
<svg xmlns="http://www.w3.org/2000/svg" viewBox="0 0 55 55">
	<style type="text/css">
		.st0{fill:url(#SVGID_1_);filter:url(#defapp-filter-1);}
		.st1{fill:url(#SVGID_2_);}
		.st2{fill:#FFFFFF;}
	</style>
	<filter filterUnits="objectBoundingBox" id="defapp-filter-1">
		<feOffset dx="0" dy=".5" in="SourceAlpha" result="defappShadowOffsetOuter1"></feOffset>
		<feGaussianBlur stdDeviation=".5" in="defappShadowOffsetOuter1" result="defappShadowBlurOuter1"></feGaussianBlur>
		<feColorMatrix values="0 0 0 0 0   0 0 0 0 0   0 0 0 0 0  0 0 0 0.5 0" type="matrix" in="defappShadowBlurOuter1" result="defappShadowMatrixOuter1"></feColorMatrix>
		<feMerge>
			<feMergeNode in="defappShadowMatrixOuter1"/>
			<feMergeNode in="SourceGraphic"/>
		</feMerge>
	</filter>
	<linearGradient id="SVGID_1_" gradientUnits="userSpaceOnUse" x1="27.5" y1="2.234" x2="27.5" y2="52.766">
		<stop  offset="0" style="stop-color:#EEEEEE"/>
		<stop  offset="1" style="stop-color:#BBBBBB"/>
	</linearGradient>
	<path class="st0" d="M43.6,52.8H11.4c-5.1,0-9.2-4.1-9.2-9.2V11.4c0-5.1,4.1-9.2,9.2-9.2h32.1c5.1,0,9.2,4.1,9.2,9.2v32.1
		C52.8,48.6,48.6,52.8,43.6,52.8z"/>
	<linearGradient id="SVGID_2_" gradientUnits="userSpaceOnUse" x1="27.5" y1="4.4629" x2="27.5" y2="50.5371">
		<stop  offset="0" style="stop-color:#2AC8FA"/>
		<stop  offset="1" style="stop-color:#1F66EB"/>
	</linearGradient>
	<path class="st1" d="M42.9,50.5H12.1c-4.2,0-7.7-3.4-7.7-7.7V12.1c0-4.2,3.4-7.7,7.7-7.7h30.8c4.2,0,7.7,3.4,7.7,7.7v30.8
		C50.5,47.1,47.1,50.5,42.9,50.5z"/>
	<g>
		<path class="st2" d="M45.8,35.1H19.4c1.4,2.7,3.3,4.7,5.6,5.5c0,0,0,0.1,0,0.1V41c-4.2-0.6-7.7-2.8-10.2-5.9H9.5
			c3.6,3.3,9.2,5.5,15.5,6v1.6c0,1.2,1,2.1,2.1,2.1h1.4c1.2,0,2.1-1,2.1-2.1V41C36.8,40.5,42.2,38.3,45.8,35.1z"/>
		<path class="st2" d="M19.6,16h25.9c-4.2-3.6-10.6-5.8-17.8-5.8C24.4,10.2,21.4,12.4,19.6,16z"/>
		<path class="st2" d="M27.7,10.2c-7.2,0-13.7,2.3-17.8,5.8H15C17.9,12.4,22.6,10.2,27.7,10.2z"/>
	</g>
	<polygon id="_x31_" class="st2" points="42.2,18 38,21.7 42.2,21.7 42.2,32.9 47,32.9 47,18 "/>
	<g id="_x30_">
		<path class="st2" d="M16.8,23.8c0,0.1,0,0.2,0,0.4v3c0,1.2-1,2.2-2.2,2.2h-1.1c-1.2,0-2.2-1-2.2-2.2v-3c0-0.1,0-0.3,0-0.4H7.7l0,0
			v3.7c0,3,2.5,5.4,5.5,5.4H15c3,0,5.5-2.5,5.5-5.5v-3.6l0,0C20.4,23.8,16.8,23.8,16.8,23.8z"/>
		<path class="st2" d="M13.5,21.7h1.1h5.6C19.5,19.6,17.5,18,15,18h-1.8c-2.4,0-4.4,1.6-5.1,3.7H13.5z"/>
	</g>
	<g id="_x30__1_">
		<path class="st2" d="M32.2,23.8c0,0.1,0,0.2,0,0.4v3c0,1.2-1,2.2-2.2,2.2h-1.1c-1.2,0-2.2-1-2.2-2.2v-3c0-0.1,0-0.3,0-0.4h-3.7l0,0
			v3.7c0,3,2.5,5.4,5.5,5.4h1.8c3,0,5.5-2.5,5.5-5.5v-3.6l0,0C35.8,23.8,32.2,23.8,32.2,23.8z"/>
		<path class="st2" d="M28.9,21.7h1.1h5.6c-0.8-2.1-2.8-3.7-5.3-3.7h-1.8c-2.4,0-4.4,1.6-5.1,3.7H28.9z"/>
	</g>
</svg>
