<?xml version="1.0" encoding="utf-8"?>
<!-- Generator: Adobe Illustrator 24.0.2, SVG Export Plug-In . SVG Version: 6.00 Build 0)  -->
<svg version="1.1" id="Layer_1" xmlns="http://www.w3.org/2000/svg" xmlns:xlink="http://www.w3.org/1999/xlink" x="0px" y="0px"
	 viewBox="0 0 112 112" style="enable-background:new 0 0 112 112;" xml:space="preserve">
<style type="text/css">
	.st0{fill:#FFFFFF;}
	.st1{fill:#F8991D;}
	.st2{fill:#F89920;}
</style>
<g>
	<path class="st0" d="M96,14V4.4C96,3.08,94.92,2,93.6,2H84v10.23h1.12c0.36,0,0.66,0.3,0.66,0.66V14H96z"/>
	<path class="st1" d="M93.6,2C94.92,2,96,3.08,96,4.4V14h1.25V4.4c0-2.01-1.64-3.65-3.65-3.65l0,0H84V2H93.6"/>
	<path class="st1" d="M84,11.98h1.12c0.5,0,0.91,0.41,0.91,0.91V14h-0.5v-1.12c0-0.22-0.18-0.41-0.41-0.41H84V11.98z"/>
</g>
<g>
	<path class="st0" d="M110.23,14v-1.12c0-0.36,0.3-0.66,0.66-0.66H112V2h-9.6c-1.32,0-2.4,1.08-2.4,2.4V14H110.23z"/>
	<path class="st1" d="M102.4,2h9.6V0.75h-9.6l0,0c-2.01,0-3.65,1.64-3.65,3.65V14H100V4.4C100,3.08,101.08,2,102.4,2"/>
	<path class="st1" d="M112,12.48h-1.12c-0.22,0-0.41,0.18-0.41,0.41V14h-0.5v-1.12c0-0.5,0.41-0.91,0.91-0.91H112V12.48z"/>
</g>
<g>
	<path class="st0" d="M15.77,14v1.12c0,0.36-0.3,0.66-0.66,0.66H14V26h9.6c1.32,0,2.4-1.08,2.4-2.4V14H15.77z"/>
	<path class="st1" d="M23.6,26H14v1.25h9.6l0,0c2.01,0,3.65-1.64,3.65-3.65V14H26v9.6C26,24.92,24.92,26,23.6,26"/>
	<path class="st1" d="M14,15.52h1.12c0.22,0,0.41-0.18,0.41-0.41V14h0.5v1.12c0,0.5-0.41,0.91-0.91,0.91H14V15.52z"/>
</g>
<g>
	<path class="st0" d="M2,14v9.6C2,24.92,3.08,26,4.4,26H14V15.77h-1.12c-0.36,0-0.66-0.3-0.66-0.66V14H2z"/>
	<path class="st1" d="M4.4,26C3.08,26,2,24.92,2,23.6V14H0.75v9.6c0,2.01,1.64,3.65,3.65,3.65l0,0H14V26H4.4"/>
	<path class="st1" d="M14,16.02h-1.12c-0.5,0-0.91-0.41-0.91-0.91V14h0.5v1.12c0,0.22,0.18,0.41,0.41,0.41H14V16.02z"/>
</g>
<g>
	<rect x="56" y="2" class="st0" width="14" height="5"/>
	<rect x="56" y="0.75" class="st1" width="14" height="1.25"/>
</g>
<g>
	<rect x="77" y="0" class="st0" width="5" height="14"/>
	<rect x="82" y="0" class="st1" width="1.25" height="14"/>
</g>
<g>
	<rect x="56" y="7" class="st0" width="14" height="5"/>
	<rect x="56" y="12" class="st1" width="14" height="1.25"/>
</g>
<g>
	<rect x="72" class="st0" width="5" height="14"/>
	<rect x="70.75" class="st1" width="1.25" height="14"/>
</g>
<g>
	<rect x="56" y="15.77" class="st0" width="14" height="5.23"/>
	<rect x="56" y="15.52" class="st1" width="14" height="0.5"/>
</g>
<g>
	<rect x="71.77" y="14" class="st0" width="5.23" height="14"/>
	<rect x="71.52" y="14" class="st1" width="0.5" height="14"/>
</g>
<g>
	<rect x="49" y="14" class="st0" width="5.23" height="14"/>
	<rect x="53.98" y="14" class="st1" width="0.5" height="14"/>
</g>
<g>
	<rect x="28" y="21" class="st0" width="14" height="5.23"/>
	<rect x="28" y="25.98" class="st1" width="14" height="0.5"/>
</g>
<g>
	<path class="st0" d="M82.23,28v-1.12c0-0.36,0.3-0.66,0.66-0.66H84V15.37l-1.38-0.19V14H77v14H82.23z"/>
	<path class="st1" d="M83.25,14v0.33c0,0.22,0.18,0.42,0.4,0.42H84v1.28l-1.09-0.01c-0.5,0-0.91-0.41-0.91-0.91V14H83.25z"/>
	<path class="st1" d="M84,27.25h-0.33c-0.22,0-0.42,0.18-0.42,0.4V28h-1.28l0.01-1.09c0-0.5,0.41-0.91,0.91-0.91H84V27.25z"/>
</g>
<g>
	<path class="st0" d="M43.77,14v1.12c0,0.36-0.3,0.66-0.66,0.66H42v10.85l1.38,0.19V28H49V14H43.77z"/>
	<path class="st1" d="M42.75,28v-0.33c0-0.22-0.18-0.42-0.4-0.42H42v-1.28l1.09,0.01c0.5,0,0.91,0.41,0.91,0.91V28H42.75z"/>
	<path class="st1" d="M42,14.75h0.33c0.22,0,0.42-0.18,0.42-0.4V14h1.28l-0.01,1.09c0,0.5-0.41,0.91-0.91,0.91H42V14.75z"/>
</g>
<g>
	<path class="st0" d="M68.23,28v-1.12c0-0.36,0.3-0.66,0.66-0.66H70V21h-7v7H68.23z"/>
	<path class="st1" d="M70,26.48h-1.12c-0.22,0-0.41,0.18-0.41,0.41V28h-0.5v-1.12c0-0.5,0.41-0.91,0.91-0.91H70V26.48z"/>
</g>
<g>
	<path class="st0" d="M56,26.23h1.12c0.36,0,0.66,0.3,0.66,0.66V28H63v-7h-7V26.23z"/>
	<path class="st1" d="M57.52,28v-1.12c0-0.22-0.18-0.41-0.41-0.41H56v-0.5h1.12c0.5,0,0.91,0.41,0.91,0.91V28H57.52z"/>
</g>
<g>
	<path class="st0" d="M29.77,14v1.12c0,0.36-0.3,0.66-0.66,0.66H28V21h7v-7H29.77z"/>
	<path class="st1" d="M28,15.52h1.12c0.22,0,0.41-0.18,0.41-0.41V14h0.5v1.12c0,0.5-0.41,0.91-0.91,0.91H28V15.52z"/>
</g>
<g>
	<path class="st0" d="M42,15.77h-1.12c-0.36,0-0.66-0.3-0.66-0.66V14H35v7h7V15.77z"/>
	<path class="st1" d="M40.48,14v1.12c0,0.22,0.18,0.41,0.41,0.41H42v0.5h-1.12c-0.5,0-0.91-0.41-0.91-0.91V14H40.48z"/>
</g>
<g>
	<path class="st0" d="M85.77,14v1.12c0,0.36-0.3,0.66-0.66,0.66H84V21h7v-7H85.77z"/>
	<path class="st1" d="M84,15.52h1.12c0.22,0,0.41-0.18,0.41-0.41V14h0.5v1.12c0,0.5-0.41,0.91-0.91,0.91H84V15.52z"/>
</g>
<g>
	<path class="st0" d="M98,15.77h-1.12c-0.36,0-0.66-0.3-0.66-0.66V14H91v7h7V15.77z"/>
	<path class="st1" d="M96.48,14v1.12c0,0.22,0.18,0.41,0.41,0.41H98v0.5h-1.12c-0.5,0-0.91-0.41-0.91-0.91V14H96.48z"/>
</g>
<g>
	<path class="st0" d="M96.23,28v-1.12c0-0.36,0.3-0.66,0.66-0.66H98V21h-7v7H96.23z"/>
	<path class="st1" d="M98,26.48h-1.12c-0.22,0-0.41,0.18-0.41,0.41V28h-0.5v-1.12c0-0.5,0.41-0.91,0.91-0.91H98V26.48z"/>
</g>
<g>
	<path class="st0" d="M84,26.23h1.12c0.36,0,0.66,0.3,0.66,0.66V28H91v-7h-7V26.23z"/>
	<path class="st1" d="M85.52,28v-1.12c0-0.22-0.18-0.41-0.41-0.41H84v-0.5h1.12c0.5,0,0.91,0.41,0.91,0.91V28H85.52z"/>
</g>
<g>
	<path class="st1" d="M109.57,15.53l-9.22,0c-0.5,0-0.91,0.41-0.91,0.91v9.14c0,0.5,0.41,0.91,0.91,0.91l9.22,0
		c0.5,0,0.91-0.41,0.91-0.91v-9.14C110.48,15.93,110.07,15.53,109.57,15.53z M109.98,25.57c0,0.22-0.18,0.41-0.41,0.41l-9.22,0
		c-0.22,0-0.41-0.18-0.41-0.41v-9.14c0-0.22,0.18-0.41,0.41-0.41l9.22,0c0.22,0,0.41,0.18,0.41,0.41V25.57z"/>
	<path class="st0" d="M109.98,25.57c0,0.22-0.18,0.41-0.41,0.41l-9.22,0c-0.22,0-0.41-0.18-0.41-0.41v-9.14
		c0-0.22,0.18-0.41,0.41-0.41l9.22,0c0.22,0,0.41,0.18,0.41,0.41V25.57z"/>
</g>
<g>
	<polygon class="st0" points="25.98,1.36 25.98,0 16.02,0 16.02,1.36 19.02,1.36 19.02,12.64 16.02,12.64 16.02,14 25.98,14 
		25.98,12.64 22.98,12.64 22.98,1.36 	"/>
	<polygon class="st1" points="16.02,1.36 16.02,0 15.52,0 15.52,1.86 18.52,1.86 18.52,12.14 15.52,12.14 15.52,14 16.02,14 
		16.02,12.64 19.02,12.64 19.02,1.36 	"/>
	<polygon class="st1" points="25.98,0 25.98,1.36 22.98,1.36 22.98,12.64 25.98,12.64 25.98,14 26.48,14 26.48,12.14 23.48,12.14 
		23.48,1.86 26.48,1.86 26.48,0 	"/>
</g>
<g>
	<polygon class="st0" points="40.64,11.98 42,11.98 42,2.02 40.64,2.02 40.64,5.02 29.36,5.02 29.36,2.02 28,2.02 28,11.98 
		29.36,11.98 29.36,8.98 40.64,8.98 	"/>
	<polygon class="st1" points="40.64,2.02 42,2.02 42,1.52 40.14,1.52 40.14,4.52 29.86,4.52 29.86,1.52 28,1.52 28,2.02 29.36,2.02 
		29.36,5.02 40.64,5.02 	"/>
	<polygon class="st1" points="42,11.98 40.64,11.98 40.64,8.98 29.36,8.98 29.36,11.98 28,11.98 28,12.48 29.86,12.48 29.86,9.48 
		40.14,9.48 40.14,12.48 42,12.48 	"/>
</g>
<g>
	<path class="st1" d="M67.61,43.53l-9.22,0c-0.5,0-0.91,0.41-0.91,0.91v9.14c0,0.5,0.41,0.91,0.91,0.91l9.22,0
		c0.5,0,0.91-0.41,0.91-0.91v-9.14C68.52,43.93,68.11,43.53,67.61,43.53z M68.02,53.57c0,0.22-0.18,0.41-0.41,0.41l-9.22,0
		c-0.22,0-0.41-0.18-0.41-0.41v-9.14c0-0.22,0.18-0.41,0.41-0.41l9.22,0c0.22,0,0.41,0.18,0.41,0.41V53.57z"/>
	<path class="st0" d="M68.02,53.57c0,0.22-0.18,0.41-0.41,0.41l-9.22,0c-0.22,0-0.41-0.18-0.41-0.41v-9.14
		c0-0.22,0.18-0.41,0.41-0.41l9.22,0c0.22,0,0.41,0.18,0.41,0.41V53.57z"/>
</g>
<g>
	<path class="st1" d="M81.61,43.53l-9.22,0c-0.5,0-0.91,0.41-0.91,0.91v9.14c0,0.5,0.41,0.91,0.91,0.91l9.22,0
		c0.5,0,0.91-0.41,0.91-0.91v-9.14C82.52,43.93,82.11,43.53,81.61,43.53z M82.02,53.57c0,0.22-0.18,0.41-0.41,0.41l-9.22,0
		c-0.22,0-0.41-0.18-0.41-0.41v-9.14c0-0.22,0.18-0.41,0.41-0.41l9.22,0c0.22,0,0.41,0.18,0.41,0.41V53.57z"/>
	<path class="st0" d="M82.02,53.57c0,0.22-0.18,0.41-0.41,0.41l-9.22,0c-0.22,0-0.41-0.18-0.41-0.41v-9.14
		c0-0.22,0.18-0.41,0.41-0.41l9.22,0c0.22,0,0.41,0.18,0.41,0.41V53.57z"/>
</g>
<g>
	<path class="st1" d="M95.61,29.53l-9.22,0c-0.5,0-0.91,0.41-0.91,0.91v9.14c0,0.5,0.41,0.91,0.91,0.91l9.22,0
		c0.5,0,0.91-0.41,0.91-0.91v-9.14C96.52,29.93,96.11,29.53,95.61,29.53z M96.02,39.57c0,0.22-0.18,0.41-0.41,0.41l-9.22,0
		c-0.22,0-0.41-0.18-0.41-0.41v-9.14c0-0.22,0.18-0.41,0.41-0.41l9.22,0c0.22,0,0.41,0.18,0.41,0.41V39.57z"/>
	<path class="st0" d="M96.02,39.57c0,0.22-0.18,0.41-0.41,0.41l-9.22,0c-0.22,0-0.41-0.18-0.41-0.41v-9.14
		c0-0.22,0.18-0.41,0.41-0.41l9.22,0c0.22,0,0.41,0.18,0.41,0.41V39.57z"/>
</g>
<g>
	<path class="st1" d="M25.61,35c0,0-3.3,2-4.61,2c-1.31,0-4.61-2-4.61-2c-0.5,0-0.91,0.41-0.91,0.91l-1,3.85
		c0,0.5,0.41,0.91,0.91,0.91l11.22,0c0.5,0,0.91-0.41,0.91-0.91l-1-3.85C26.52,35.41,26.11,35,25.61,35z M27.02,39.75
		c0,0.22-0.18,0.41-0.41,0.41l-11.22,0c-0.22,0-0.41-0.18-0.41-0.41l1-3.85c0-0.22,0.18-0.41,0.41-0.41c0,0,3.3,2,4.61,2
		c1.31,0,4.61-2,4.61-2c0.22,0,0.41,0.18,0.41,0.41L27.02,39.75z"/>
	<path class="st0" d="M27.02,39.75c0,0.22-0.18,0.41-0.41,0.41l-11.22,0c-0.22,0-0.41-0.18-0.41-0.41l1-3.85
		c0-0.22,0.18-0.41,0.41-0.41c0,0,3.27,2,4.61,2s4.61-2,4.61-2c0.22,0,0.41,0.18,0.41,0.41L27.02,39.75z"/>
</g>
<g>
	<path class="st1" d="M2.39,35c0,0,3.3-2,4.61-2s4.61,2,4.61,2c0.5,0,0.91-0.41,0.91-0.91l1-3.85c0-0.5-0.41-0.91-0.91-0.91
		l-11.22,0c-0.5,0-0.91,0.41-0.91,0.91l1,3.85C1.48,34.59,1.89,35,2.39,35z M0.98,30.25c0-0.22,0.18-0.41,0.41-0.41l11.22,0
		c0.22,0,0.41,0.18,0.41,0.41l-1,3.85c0,0.22-0.18,0.41-0.41,0.41c0,0-3.3-2-4.61-2s-4.61,2-4.61,2c-0.22,0-0.41-0.18-0.41-0.41
		L0.98,30.25z"/>
	<path class="st0" d="M0.98,30.25c0-0.22,0.18-0.41,0.41-0.41l11.22,0c0.22,0,0.41,0.18,0.41,0.41l-1,3.85
		c0,0.22-0.18,0.41-0.41,0.41c0,0-3.27-2-4.61-2s-4.61,2-4.61,2c-0.22,0-0.41-0.18-0.41-0.41L0.98,30.25z"/>
</g>
<g>
	<path class="st1" d="M35,39.61c0,0-2-3.3-2-4.61c0-1.31,2-4.61,2-4.61c0-0.5-0.41-0.91-0.91-0.91l-3.85-1
		c-0.5,0-0.91,0.41-0.91,0.91l0,11.22c0,0.5,0.41,0.91,0.91,0.91l3.85-1C34.59,40.52,35,40.11,35,39.61z M30.25,41.02
		c-0.22,0-0.41-0.18-0.41-0.41l0-11.22c0-0.22,0.18-0.41,0.41-0.41l3.85,1c0.22,0,0.41,0.18,0.41,0.41c0,0-2,3.3-2,4.61
		s2,4.61,2,4.61c0,0.22-0.18,0.41-0.41,0.41L30.25,41.02z"/>
	<path class="st0" d="M30.25,41.02c-0.22,0-0.41-0.18-0.41-0.41l0-11.22c0-0.22,0.18-0.41,0.41-0.41l3.85,1
		c0.22,0,0.41,0.18,0.41,0.41c0,0-2,3.27-2,4.61s2,4.61,2,4.61c0,0.22-0.18,0.41-0.41,0.41L30.25,41.02z"/>
</g>
<g>
	<path class="st1" d="M49,30.39c0,0,2,3.3,2,4.61c0,1.31-2,4.61-2,4.61c0,0.5,0.41,0.91,0.91,0.91l3.85,1c0.5,0,0.91-0.41,0.91-0.91
		l0-11.22c0-0.5-0.41-0.91-0.91-0.91l-3.85,1C49.41,29.48,49,29.89,49,30.39z M53.75,28.98c0.22,0,0.41,0.18,0.41,0.41l0,11.22
		c0,0.22-0.18,0.41-0.41,0.41l-3.85-1c-0.22,0-0.41-0.18-0.41-0.41c0,0,2-3.3,2-4.61s-2-4.61-2-4.61c0-0.22,0.18-0.41,0.41-0.41
		L53.75,28.98z"/>
	<path class="st0" d="M53.75,28.98c0.22,0,0.41,0.18,0.41,0.41l0,11.22c0,0.22-0.18,0.41-0.41,0.41l-3.85-1
		c-0.22,0-0.41-0.18-0.41-0.41c0,0,2-3.27,2-4.61s-2-4.61-2-4.61c0-0.22,0.18-0.41,0.41-0.41L53.75,28.98z"/>
</g>
<g>
	<circle class="st1" cx="49" cy="7" r="6.17"/>
	<path class="st0" d="M49.77,5.33l2.46-2.46c-1.88-1.48-4.57-1.48-6.45,0l2.49,2.49C48.72,5.13,49.3,5.13,49.77,5.33z"/>
	<path class="st0" d="M50.67,7.75l2.49,2.49c1.48-1.88,1.48-4.57,0-6.45l-2.49,2.49C50.87,6.7,50.89,7.26,50.67,7.75z"/>
	<path class="st0" d="M49.77,8.65c-0.47,0.2-1.03,0.22-1.52,0l-2.49,2.49c1.88,1.48,4.57,1.48,6.45,0L49.77,8.65L49.77,8.65z"/>
	<path class="st0" d="M47.35,6.23l-2.49-2.49c-1.48,1.88-1.48,4.57,0,6.45l2.49-2.49C47.15,7.28,47.15,6.7,47.35,6.23z"/>
</g>
<g id="rotator">
	<path class="st1" d="M64.61,38.1c-0.07-0.03-0.14-0.06-0.28-0.12c-1.03-0.44-1.73-1.48-2.05-2.84c-0.16-0.97-0.67-1.67-1.46-1.93
		c-0.65-0.2-1.39-0.19-2,0.28c-0.78,2.19,0.27,4.69,2.41,5.61c1.93,0.83,4.08,0.2,5.23-1.34C65.96,38.19,65.26,38.3,64.61,38.1z"/>
	<path class="st1" d="M61.56,31.89c1.27,0.46,1.97,1.5,2.22,3c0.19,0.9,0.63,1.58,1.28,1.77c0.72,0.23,1.64-0.03,2.37-0.78
		c0.39-2.04-0.67-4.13-2.6-4.96c-1.79-0.77-3.71-0.29-5.01,1.03C60.41,31.72,60.98,31.72,61.56,31.89z"/>
</g>
<g>
	<polygon class="st0" points="42,56 42,47.99 42,43.73 40.59,43.73 39.92,44.37 30.02,54.27 29.68,54.65 29.68,56 	"/>
	<path class="st1" d="M29.74,54.2L40.2,43.74c0.17-0.19,0.41-0.31,0.68-0.31H42v0.5h-1.12c-0.12,0-0.22,0.05-0.3,0.13L30.06,54.58
		c-0.08,0.07-0.13,0.18-0.13,0.3V56h-0.5v-1.12C29.43,54.61,29.55,54.37,29.74,54.2z"/>
</g>
<g>
	<polygon class="st0" points="54.32,56 54.32,54.65 53.98,54.27 44.08,44.37 43.41,43.73 42,43.73 42,47.99 42,56 	"/>
	<path class="st1" d="M54.57,54.88V56h-0.5v-1.12c0-0.12-0.05-0.22-0.13-0.3L43.42,44.06c-0.07-0.08-0.18-0.13-0.3-0.13H42v-0.5
		h1.12c0.27,0,0.51,0.12,0.68,0.31L54.26,54.2C54.45,54.37,54.57,54.61,54.57,54.88z"/>
</g>
<g>
	<path class="st0" d="M98,42v-7l14,0v7h-1.72c-0.07-1.04-1.97-3.5-5.28-3.5c-3.45,0-5.24,2.3-5.26,3.5"/>
	<path class="st2" d="M112,41.5l-1.32,0c-0.46-1.41-2.5-3.5-5.68-3.5c-3.38,0-5.3,2.04-5.69,3.5H98V42h1.74
		c0.03-1.2,1.82-3.5,5.26-3.5c3.31,0,5.21,2.46,5.28,3.5H112V41.5z"/>
</g>
<g>
	<path class="st0" d="M105,28.25c-4.14,0-5.69,0.9-7,1.81V35h7V28.25z"/>
	<path class="st1" d="M98,30.36v-0.58c1.17-0.86,2.88-1.78,7-1.78v0.5C101.09,28.45,99.44,29.29,98,30.36z"/>
</g>
<g>
	<path class="st0" d="M105,28.25c4.14,0,5.69,0.9,7,1.81V35h-7V28.25z"/>
	<path class="st1" d="M112,30.36v-0.58c-1.17-0.86-2.88-1.78-7-1.78v0.5C108.91,28.45,110.56,29.29,112,30.36z"/>
</g>
</svg>
