
<svg id="bp-001" viewBox="0 0 527 318">
	<style type="text/css">
		.st0{fill:#fff6;stroke:#999;stroke-miterlimit:10;}
		.st1{fill:none;stroke:#999a;stroke-miterlimit:10;}
</style>
<g>
	<path class="st0" d="M291.2,127.9c-1-1-2.1-1.2-2.6-1.2l0,0c-5.5-5.6-12.8-8.7-20.7-8.7c-12.8,0-21.2,6.4-23.4,8.4
		c-0.6,0.5-1,1-1.2,1.4c-1.1,0.2-2.6,1.5-3.3,2.1c-0.7,0.6-2.9,2.7-2.8,4.2c0.1,2.1,8.9,7.2,12,8.2c2.5,3.3,4.6,7.7,5,9.4
		c0.4,1.8,2.7,6.9,7.6,7.1c0.7,0,1.4,0.1,2.2,0.1c1.1,0,2.2-0.1,3.3-0.2c-0.1,1.3,0,2.8,0.2,4.5c0,0,0,0,0,0l0,0
		c0.4,2.6,1.4,5.5,3.5,8.5c3.8,5.5,2,13,1.4,15.4c-0.5,1.9-2.7,3.8-4.5,3.8c0,0-0.1,0-0.1,0c-1.5,0-2.5-1.3-2.9-3.7
		c-0.3-1.9-0.1-3.7,0.1-5.4c0.4-3.1,0.7-6.1-2.1-9.3c-3.7-4.2-9.4-4.8-14.7-4.7c-0.9-2.7-3.9-5-7.2-5.4c-3.9-0.4-7.7,1.7-9.3,3.3
		c-1,1-1.2,2.6-1.2,3.5c0,1,0.2,2.3,0.6,2.7c0.5,0.5,2.4,0.5,3.8,0.5c0.1,0,1.3,0.2,1.7-1.8c0.3-1.3,2.2-2,3.8-1.9
		c0.5,0,0.9,0.2,1,0.5c0.1,0.2,0,0.4,0,0.5c0,0.1-0.2,0.2-0.3,0.3c-0.5,0.5-1.4,1.3-1.5,2.9l0.2,0c-0.1,0.3-0.2,0.7-0.2,1
		c0,1,0.3,1.8,0.8,2.4c0.1,1.1-0.2,2-0.7,2.5c-0.4,0.5-1.1,0.6-1.9,0.6c-0.6,0-1-0.2-1.3-0.6c-0.6-0.7-0.4-1.9-0.4-1.9l0.1-0.6h-4.2
		l-0.1,0.2c0,0.1-0.9,1.5-1.2,2.5l0,0.1l0,0.1c0.6,3.2,3.2,5,7.6,5.3c0.2,0,0.4,0,0.6,0c2.8,0,5.8-1.2,7.3-3
		c0.1-0.1,0.2-0.2,0.2-0.3c1-0.1,3.8-0.4,7.4-2.5c0.9-0.5,1.7-0.6,2.3-0.3c1.5,0.9,2.3,4.8,2.1,10.2c-0.1,1,0,2,0.2,3l0,0
		c0,0,0,0,0,0.1c0.5,2.5,1.7,4.7,3.5,6.2c1.6,1.3,3.4,2.1,5.5,2.2l0,0c0,0,0,0,0,0c0.2,0,0.5,0,0.7,0c0.7,0,1.5-0.1,2.2-0.2
		c7-1.4,9.8-11.5,10-20.5c0.2-5.7-1.5-10.8-5.1-15.7c-1.8-2.4-1.9-6.9-1.2-9.1c1.6-2.1,2.8-2.2,3.8-2.3c0.7,0,1.4-0.1,2-0.8
		c1.3-1.5,1.9-3,1.9-4.6c0-1.1,2.9-3.7,5-4.6c2.7,0,9.6-5.1,9.8-6.7C296.6,133.8,291.7,128.4,291.2,127.9z"/>
</g>
<g>
	<path class="st1" d="M245.6,129.5c-1.4-0.3-3.2-0.7-0.8-2.8c2.4-2.1,10.7-8.3,23.1-8.3c12.4,0,19.4,7.6,20.5,8.7
		c1.1,1.1,0.4,1.7-1,2.3c-1.4,0.7-12,2.1-20.5,2.1S245.6,129.5,245.6,129.5z"/>
	<path class="st1" d="M243.7,128.3c-1.3-0.2-6.1,4.1-6,5.7c0.1,1.7,8.7,6.8,11.8,7.8c2.5,3.3,4.7,7.8,5.2,9.7s2.6,6.5,7.2,6.7
		c4.5,0.2,8.9,0,11.8-3.9c2.9-3.9,4.6-1.8,5.8-3.2c1.2-1.4,1.8-2.8,1.8-4.3c0-1.5,3.3-4.3,5.4-5.1c2.4,0.1,9.2-5,9.4-6.3
		c0.1-1.3-4-6.2-5.1-7.3c-1.1-1.1-2.4-1.1-2.4-1.1"/>
	<path class="st1" d="M237.7,134c7.4,4.1,39.2,7.7,58.2,1.5"/>
	<path class="st1" d="M249.5,141.8c3.3,1.1,27,2.3,37.1,0"/>
	<path class="st1" d="M254.1,149.8c-0.4-3.8,2.5-6.8,6.6-6.9"/>
	<path class="st1" d="M269.1,143.1c2.1,0,7.3,4.5,4.2,11.6"/>
	<path class="st1" d="M262.1,145.2c-3.2,0-5.7,2.9-5.7,5.6c0,2.5,2.6,5.9,5.7,5.9c3.1,0,7.2-1.9,7-6.2
		C268.9,146.3,265.1,145.2,262.1,145.2z"/>
	<path class="st1" d="M263.7,145.3c-2.8,0-6.1,2.6-6.1,5.2c0,2.2,1.2,5.9,6.8,5.9"/>
	<path class="st1" d="M267.8,158.3c-0.2,3,0.1,7.9,3.6,13c3.9,5.6,2.1,13.1,1.4,15.8c-0.9,3.6-7.2,7.2-8.4,0.1
		c-1-5.4,2.3-9.7-1.9-14.5c-3.6-4.1-9.4-4.6-14.5-4.6"/>
	<path class="st1" d="M273.6,154.4c-0.7,2.1-0.8,6.9,1.2,9.6c2,2.7,5.2,7.8,5,15.4c-0.2,8-2.6,18.6-9.6,20
		c-7,1.4-11.9-4.2-11.6-10.8c0.3-6.6-0.9-12.8-5.1-10.3c-4.2,2.5-7.5,2.4-7.5,2.4"/>
	<path class="st1" d="M243.3,171.1c-1.3-0.3-3.2,0.5-3.2,2.5s1.2,3.2,2.7,3s2.3-1.4,2.3-2.8C245,172.5,244.7,171.4,243.3,171.1z"/>
	<path class="st1" d="M240.1,172.6c0.2-1.8,1.4-2.4,1.7-2.9c0.3-0.4,0.4-1.6-1.3-1.8c-1.7-0.1-3.9,0.7-4.3,2.3
		c-0.4,1.6-1.2,1.5-1.2,1.5s-3.1,0.1-3.5-0.4c-0.4-0.4-1-4,0.6-5.5c1.6-1.5,5.2-3.5,8.9-3.1c3.7,0.4,6.8,3.2,7,6.2
		c0.2,2.9-0.8,10.3-2.3,12.1c-1.5,1.8-4.6,3-7.5,2.8s-6.4-1-7.2-4.9c0.3-0.9,1.1-2.4,1.1-2.4h3.4c0,0-0.4,2.9,2.2,3
		c2.6,0.2,3.3-1.8,3.2-3.8"/>
	<path class="st1" d="M253.7,168.4c1.3,0.7,1.7,8.7,0.4,9.3"/>
	<path class="st1" d="M264.6,180.6c-1,1.9-5.2,3.4-6.2,2.3"/>
	<path class="st1" d="M258.7,191.3c0.4,1.7,6.7,0.6,6.3-2.2"/>
	<path class="st1" d="M267.2,199.5c2.9-0.2,3.5-7.5,1.9-8.4"/>
	<path class="st1" d="M277.4,192.1c0.3-2.6-2.5-6.1-4.5-5"/>
	<path class="st1" d="M273.8,179.1c0.2-1.5,6-1.4,6,0.2"/>
	<path class="st1" d="M272.5,173.3c-0.6-2,4.1-6.5,4.9-4.9"/>
	<path class="st1" d="M268,163c-0.2-1.8,4.8-5.4,5.3-3.1"/>
	<path class="st1" d="M250,130.1c-0.2-1.2,2.1-5.5,4.5-5.1c2.4,0.4,3.1,1.5,3.1,1.5"/>
	<path class="st1" d="M255.2,130.8c-0.8-1.7,0.7-3.4,2.2-3.6c0.3-0.6,0.2-2.4,2.2-2.8c1.4-0.2,2.4,0,2.4,0s-0.7-1.8,0.7-2.1
		c1.4-0.3,3.1-0.4,3.1,0.4c0.7-1,4.1-1.6,4.8-0.6c1-0.5,3.3-0.1,3.2,1.3c1.7,0,3.3,1.6,3,2.5c1.8,0,3.3,0.4,3,1.7
		c1.8,0.4,2.3,2,1.6,3"/>
	<path class="st1" d="M258,129.1c1.1,0,2.1-1.2,2.8-1.9"/>
	<path class="st1" d="M259.8,128.1c1.2,0.6,3,0.6,3.4,0"/>
	<path class="st1" d="M264.4,125.5c1.2-0.7,2.9-1.8,3.6-0.8c0.7,0.9,3.1,0.9,3.4-0.4"/>
	<path class="st1" d="M276.4,129.4c-0.3-1.6-1.3-2.6-2.5-2.3c-0.2-1-2.2-1.8-3.2-0.6"/>
	<path class="st1" d="M265.8,129.1c2,0.8,3.9,1,4.2,0c0.9,1,3.1,1.5,3.5,0.7"/>
</g>
</svg>
