
<svg id="bp-123" viewBox="0 0 527 318">
	<style type="text/css">
		.st0{fill:#357ad0bb;stroke:#fff;stroke-miterlimit:10;}
		.st1{fill:none;stroke:#fff8;stroke-miterlimit:10;}
</style>
<path class="st0" d="M211.6,163.4c-5,0.8-8.1,3.1-8,4.4c0,0,0,0,0,0c-1,0-1.9,0.2-2.4,0.6c-1.8,1.6-4,4.6-4.7,7.3
	c-0.2,1-1.3,5.7,0.5,7c-0.4,0.9-0.7,2-0.6,3.1c0.3,3.8,3.2,7.5,5.1,8.8c0.4,0.3,0.8,0.4,1.1,0.4c0.3,0,0.5-0.1,0.6-0.2
	c0.1,0,0.1-0.1,0.2-0.1c0.5,1.1,1.2,1.9,2.5,2.2c2,0.5,3.5,1.8,4.8,3l0.1,0.1c0.5,0.5,1,0.6,1.3,0.6c0.3,0,0.5-0.1,0.7-0.2
	c0.2-0.1,0.3-0.3,0.4-0.5c0.3,0.9,0.8,1.6,1.9,2.2c1.7,1,5.7,2.6,8.3,2.9c-0.1,0.8,0.1,1.9,0.8,3.1c0.9,1.4,2.7,3.3,6.7,4.1
	c3.9,0.8,7.3,0.4,9.5,0.1c1-0.1,2.1-0.3,2.3-0.1c5.2,3.8,16.3,7.8,31.5,7.8c1.7,0,3.5-0.1,5.3-0.2c0,0,0,0,0,0l0,0
	c0.3,0,0.6,0,0.9,0c19.3-1.3,35.1-11.7,38.4-14.4c0.2,0.2,0.4,0.3,0.7,0.4c1.4,0.4,3.7-1,4.7-2.1l0.2-0.3c0.8-0.9,2.3-2.6,3.6-4.6
	c0.8-0.7,1.5-2,1.9-3.6c0.7-1.6,1-3.3,0.8-4.9c-0.1-0.7-0.2-1.3-0.3-1.9c0-0.4-0.1-0.9-0.2-1.3c-0.3-1.8-0.9-3.3-1.8-4.4
	c-0.6-0.9-1.3-1.5-2.1-1.9c-1.5-2.1-7.9-7.8-14.7-11.4c-5.9-3.1-11.9-5.3-15.3-6.2c3.5-1.3,9.1-4.4,8.9-9c-0.2-4.7-1.8-5.6-2.7-6
	c0.2-4,0.3-16.6-1.5-19.4c-0.1-1.4-0.3-3.4-0.5-5.7c-0.3-2.7-0.6-5.9-0.9-9.2c-0.1-0.6-1.3-14.1-3.5-15.5c-0.8-0.5-2-0.4-2.8,0.2
	c-0.6,0.4-1.8,1.7-1,4.6c0.9,3.5,1.5,23.2,1.5,26c-1.4,0.8-1.4,4.4-1,9.7l0,0.2c0.3,3.9,0.6,7.3,0.5,9.4c-1.4,1.9-0.4,5,0,5.8
	c0.1,0.2,0.3,0.6,0.3,0.7c0,0-0.1,0.1-0.6,0.1c-0.2,0-0.5,0-0.7,0c-0.6,0-1.9,0-2.1-0.2c1.4-6,0.8-9.8-2.5-16.2
	c-1.8-3.5-5.9-5.1-9.1-5.4c-0.6-0.1-2.1-0.2-3.2,0.2c-1.1-0.9-2.3-1.5-3.5-1.4c-0.7,0.1-1.4,0.4-1.9,1.1c-1.6-0.4-3.2,0.1-4,0.8
	c-0.4-0.2-0.7-0.4-1-0.6c-1.2-0.7-3.3-1.1-4.8-0.6c-0.7,0.2-1.2,0.6-1.5,1.1c-2.3-0.3-3.9,0-4.7,1c-0.1,0-0.2-0.1-0.3-0.1
	c-2-0.8-4.4-0.9-6-0.2c-0.7,0.3-1.2,0.7-1.5,1.2c-2.2-0.3-4,0.8-4.6,1.9c-1.3-0.1-2.5-0.1-3.6,0.1c-3.7,0.5-9.1,2.8-9.6,6.1
	c-2.2,0.5-4.7,1.3-7.1,2.4c-5.6,2.7-8.3,12.5-7.5,16.7l0.1,0.5C213.3,163.3,212.2,163.3,211.6,163.4z M212.5,175.5
	c0.6-0.7,2-1.5,3.4-2.2l0.1,0.6c0.3,1.8,1.6,2.9,3.3,4.3c0.4,0.3,0.8,0.7,1.3,1.1c-1.9,1-2.8,3.2-2.6,6.4c0.1,1.1,0.1,2,0,2.6
	c0,0.3,0,0.7,0,1c-0.4-0.2-0.9-0.2-1.7,0.1c0.2-0.3,0.2-0.6,0.2-0.9c-0.1-0.7-0.7-1.2-1.9-1.6c-1.2-0.5-1.7-1-2.1-1.4
	c-0.6-0.7-1.1-1.1-2.8-1.2c0.2-0.2,0.3-0.4,0.4-0.7c0.1-0.3,0.1-1.2-1.2-1.8c0,0,0,0,0,0c0.5-0.4,0.5-1.1,0.4-1.8
	c-0.1-0.4-0.1-0.9,0-1.2c0.1-0.2,0.2-0.2,0.5-0.3c0.4-0.1,1.1-0.3,1.6-1.3c0.2-0.4,0.2-0.7,0.2-1.1c0,0,0.1,0,0.1,0
	C212,175.9,212.3,175.8,212.5,175.5z"/>
<g>
	<path class="st1" d="M284.9,162.8c4.7-0.4,13.2,2.6,17.8,5.9c6.9,5,10.1,13.3,1.8,16.8c-8.3,3.5-17.3,9-40.1,5.5
		s-27.2-9.2-27.2-10.7c2.6,0,9.6-4.1,10.2-5.8c0.7-1.7,4.5-3.3,5.6-3.6c-0.5,2,4.3,1.7,7.4,1.2c7.9,0.9,22.2-3.8,19.8-9.6
		C282.2,163.2,282.7,164.7,284.9,162.8z"/>
	<path class="st1" d="M214.5,162.8c-0.7-3.9,1.8-13.5,7.3-16.1c5.4-2.6,11.1-3.3,13.4-2.6c2.3,0.7,13,4.8,14.2,15
		c1.2,10.2-1.1,15.5-3.2,16.8s-9,5.3-10.8,5.1c-1.8-0.2-10.6,1.3-13.4-1.3c-2.8-2.6-5.1-3.6-5.4-5.9c1.8,1,5.3,5.4,10.4,5.1
		c5.1-0.3,10.1-7.8,9.2-13.4c-0.8-5.6-5.3-13.7-11.2-13.7s-8.4,8.3-8.6,9.9L214.5,162.8z"/>
	<path class="st1" d="M218,161.4c1-4.1,3.6-5,6.9-3.9c3.3,1.1,4.8,5.5,5,8.7s-2.1,6.9-5.4,6.8c-2.2,0-3.2-1.1-3.4-1.7
		c1.5-0.1,7.5-1.1,5.4-7.3c-1.2-3.5-4.1-5.7-5.5-3.9L218,161.4z"/>
	<path class="st1" d="M217,163.3c-0.3-2.2,3.8-3.5,6-1.7c2.2,1.8,2.6,5,1.4,6.7c-1.1,1.4-3.7,2.7-4.1,2.2c1.2-1.3,1.4-4.2,0.7-5.5
		C220.2,163.9,218.7,163.1,217,163.3z"/>
	<path class="st1" d="M212.1,163.9c3-0.2,6.5-0.1,7,2.3c0.5,2.4,0.2,5.1-1.2,5.6c-1.3,0.5-4.7,1.9-5.9,3.3s-1.5-2.6-2.6-4.1
		s-2.7-2.9-4.7-2.9s0.9-3.3,6.9-4.3"/>
	<path class="st1" d="M201.6,168.9c1.2-1,4.8-0.7,6.7,2.1c1.9,2.9,3.3,4.4,2.6,5.8c-0.7,1.4-1.7,0.7-2.1,1.7
		c-0.4,0.9,0.4,2.5-0.3,2.8s-2.1,0.1-3-1.3c-0.9-1.4-2.8-1.3-4.8-0.2s-1.8,3.3-3.2,2.7c-1.4-0.6-1.2-4-0.5-6.6
		S199.8,170.4,201.6,168.9z"/>
	<path class="st1" d="M207.9,184.4c1.6-0.1,2.5-1.4,0.7-2.3c-1.8-0.9-1.2,0.2-2.5-0.8c-1.3-1,0.1-1.8-3.5-1.5
		c-3.6,0.2-6,2.6-5.8,6.1c0.2,3.5,3,7.1,4.9,8.4c1.9,1.3,1.8-1.9,1.5-3.7S204.3,184.6,207.9,184.4z"/>
	<path class="st1" d="M214.4,190.3c1-0.8,3-2.1,0-3.2c-3-1.1-1.8-2.5-4.8-2.5c-3,0-2-0.2-3.4,0.2s-3,2.4-3,5.8
		c0,3.4,0.6,5.4,2.8,5.9c2.1,0.6,3.7,2,5,3.1c1.3,1.2,2.3,0.1,1.5-2.4C211.7,194.8,212.9,191.6,214.4,190.3z"/>
	<path class="st1" d="M219.4,190.7c-1.3-0.9-1.4-1.7-3.3-0.8s-3.3,3.1-2.9,6.2c0.4,3.1,0,4.5,2.1,5.7c2.1,1.2,7.2,3.1,9.3,2.8
		c2.1-0.3,0.3-3.6,0.5-5.4c0.2-1.8,0.2-2.8,1.5-3.5c1.3-0.7,0-2.8-2.3-3.3C222,191.9,221.2,191.9,219.4,190.7z"/>
	<path class="st1" d="M229.4,194.6c-1.4,0.5-2.8,1.7-3.1,2.9c-0.3,1.2-0.3,6.1,0.9,8.4c1.1,2.3,4.3,2.9,4.3-0.4
		c0-3.3-1.6-5.8,0.1-7.7C233.2,196,230.8,194.1,229.4,194.6z"/>
	<path class="st1" d="M232.5,195c-0.1-1.2,1.6-2.2,4.2-1.6c2.6,0.7,9.9,5.4,9.8,7.8c-0.1,2.4,1.3,6.8-5.2,6.7
		c-6.5-0.2-7.7,1.2-8.9,1.2c-1.2-0.1-1.1-0.8-0.4-3.6c0.5-1.8-0.3-3.5-0.5-4.8c-0.4-2.4,1.1-2.6,1.1-3.6
		C232.5,195.9,232.6,195.5,232.5,195z"/>
	<path class="st1" d="M221.5,179.3c-2.2,0.7-3.3,2.8-3,6.2s-0.5,4.4,0.9,5.2c1.3,0.8,3.1,1.6,5.7,1.9"/>
	<path class="st1" d="M326.3,181.3c-4-1.2-7-1.6-9.3,1s-1.1,7.1,0,8.9c-1.1,2.4-5.5,4.9-8.8,6.7s-11.3,4.1-14.1,4.5"/>
	<path class="st1" d="M246.6,200.3c2,1.5,7.4,4.5,14,5.1c6.6,0.6,8.8,0.9,10.8,0.5"/>
	<path class="st1" d="M279.6,219.3c-4.8-0.6-9-5.6-8.8-12.4s5.4-10.4,12.1-10.2c6.8,0.2,11.6,2.9,11.6,8c-0.1,5.1-0.4,10.9-4.6,13.1
		"/>
	<path class="st1" d="M273.3,204.5c0.5-2.2,2.8-6.1,10.5-5.9c7.7,0.3,9.1,5,9.2,5.9c0.1,0.9-0.4,7.5-1.8,9.2
		c-1.7,2-12.8,3.4-15.5,1.1C272.9,212.5,272.5,207.9,273.3,204.5z"/>
	<path class="st1" d="M280.3,165c7.2,0.5,27.6,11,27.2,18.7"/>
	<path class="st1" d="M294.1,189.8c1-2.9-7.8-14.9-27.8-18"/>
	<path class="st1" d="M244,177.5c1.7,1.9,15.2,9,25.3,8.4c10.1-0.6,14.9-1.9,9.4-5.6s-10.8-6-16.2-6.6s-9.8,0.3-9.9-2.7"/>
	<path class="st1" d="M229.1,144.2c0-3,5.3-5.4,9.2-6c3.9-0.6,9.6,0.2,12.6,4.6c3,4.4,3.7,8,3.7,10s3.9,3.2,4.5-0.6
		s-2.1-10.1-4.9-12.6c-2.5-2.2-4.8-3.3-7.5-3.5c0.8-1.9,4.3-2.2,7-1.1c2.9,1.2,8.1,6.1,9.5,12.9c1.3,6.6,7,2.1,4.4-3.6
		c-1.5-3.4-3.1-8.3-8.4-10.1c0.9-1.9,4-1.6,5.8-0.6c2.7,1.4,6.8,4.7,7.4,11.1c0.5,5.2,4.5,5.9,4.8,2.2c0.3-3.7-3.2-11.7-6.8-13.4
		c1.7-2.3,3.9-0.8,5.8,0.9s7.5,6.9,6.8,15.7c-0.8,8.8-0.6,12.1-2.7,12.3c0.7-2.3,2.2-8.8,0-9.5s-11.6,2.1-15,3
		c-3.4,0.9-8,2.5-8.8,4.2c-0.8,1.7-3.7,7.6-3.4,10.7"/>
	<path class="st1" d="M302.3,148.6c0.2-4.3,0.2-17.3-1.5-19.6c-1.2,1.7-4.9,1.3-6.2,0.4c-1.6,0.3-1.3,5.1-1,9.3
		c0.3,4.2,0.6,7.7,0.5,9.8"/>
	<path class="st1" d="M294.5,129.4c0,0-0.6-22.6-1.6-26.4c-1-3.9,1.6-5.1,3.1-4.2s2.8,8.9,3.3,15.2c0.6,6.3,1.2,12.1,1.4,15"/>
	<path class="st1" d="M275.1,134.3c1.1-1.5,9.7-0.8,12.4,4.5c3.2,6.2,3.9,10,2.5,15.9c-0.2,1.1,1.8,0.8,3.3,0.8s1.1-0.8,0.7-1.6
		s-1.2-3.7,0.1-5.4c1.7,1.2,7.1,1.4,8.3,0c0.7,0.3,2.5,0.7,2.7,5.7c0.2,5-7.1,8.3-10.2,9.1c2.8,0.5,10.2,3.1,16.9,6.6
		c6.8,3.6,13.4,9.4,14.6,11.3c2.2,1.1,3.5,3.9,4.1,9.1c0.7,5.3-5.3,11.6-6.5,13s-4.5,3-4.9,1.2c-1.8,1.8-18.5,13.3-38.6,14.7
		c-20.1,1.4-32.9-4.2-37.4-7.5c-1-0.7-5.8,1.3-12.1,0c-6.3-1.3-7.5-5.4-7-7.2"/>
	<path class="st1" d="M284.9,162.8c2.1-1.8,4.6-5,5.1-8.2"/>
	<path class="st1" d="M242.1,138.2c0.2-1,2.2-2.4,4.5-1.9"/>
	<path class="st1" d="M254.3,135.5c0.8-1.4,2.8-1.5,4.9-1.1"/>
	<path class="st1" d="M266.3,134.5c0.5-0.7,2.3-1.5,4.1-0.9"/>
	<path class="st1" d="M319,190.6c-0.5-0.8-2.1-6-0.8-7.3c1.7-1.7,4.8-2.9,7.7-2c5.9,1.9,5,14.7,1.9,17.2c-3.1,2.5-4.5,4.8-7.3,3.9
		C319,201.9,321.7,195,319,190.6z"/>
	<ellipse transform="matrix(0.1529 -0.9882 0.9882 0.1529 9.158 433.4947)" class="st1" cx="257.4" cy="211.4" rx="1.8" ry="3.1"/>
	<ellipse transform="matrix(0.9009 -0.4341 0.4341 0.9009 -60.2685 151.6711)" class="st1" cx="301.9" cy="207.8" rx="2.5" ry="2"/>
	<ellipse transform="matrix(0.866 -0.5 0.5 0.866 -57.853 184.6532)" class="st1" cx="315.6" cy="200.3" rx="2.1" ry="1.6"/>
	
		<ellipse transform="matrix(0.7821 -0.6232 0.6232 0.7821 -47.9926 224.3675)" class="st1" cx="296.8" cy="180.8" rx="1.6" ry="3.6"/>
</g>
</svg>
