
<svg id="bp-123" viewBox="0 0 527 318">
	<style type="text/css">
		.st0{fill:#eee6;stroke:#999;stroke-miterlimit:10;}
		.st1{fill:none;stroke:#999a;stroke-miterlimit:10;}
</style>
<g>
	<path class="st0" d="M332.5,213.3c-1.1-1.7-7.4-7.3-19.1-17c-0.4-0.3-0.6-0.5-0.8-0.7l2.3-8.3l0-0.1l-0.4-3
		c0.5-0.2,0.8-0.6,0.9-0.7l0.1-0.1V175l-1.9-1.7c0.7-0.4,1.1-1.1,1.2-1.6l0-0.1l0-0.1c-0.1-0.3-2.1-7-5.9-9.4
		c-0.2-0.1-0.3-0.2-0.5-0.3c1.3-0.1,3.2-0.3,4.9-0.6c0.1,0,0.1,0,0.2,0l0,0c1.2-0.2,2.4-0.4,3-0.6c2.3-0.9,9.8-6.5,13.1-15.9
		c3.1-9.2,2.8-32.1-2.6-35.5c-4.7-2.9-21.1-4.6-31-4.9c1.2-0.4,2.4-0.8,3.6-1.3c9.9-3.7,15.1-7.6,15.3-11.4
		c0.5-9.8-12.8-18.9-35.6-24.5c-7.7-1.9-15.9-2.7-23.9-2.7c-3.2-0.2-6.4-0.3-9.9,0c-1.8,0.1-5.1,0.4-8.6,1
		c-11.1,1.3-20.3,3.5-25.1,5.2c-9.5,3.4-19.7,10.7-19.9,18.8c-0.1,3.2,2.1,5.9,6.6,8.2c0,0.2,0.1,0.4,0.1,0.5l0,0.1
		c0.6,1.9,3.2,3.5,8.4,5.3l1,0.3c4.5,1.5,8.3,2.9,9.3,3.1c0.7,0.2,1.8,0.1,2.7-0.3l0.1,0.1l0.3-0.1c0,0,0.1-0.1,0.2-0.2
		c0,0,0.1-0.1,0.1-0.1c0.3-0.2,0.5-0.4,0.6-0.7c2.3,0.7,6.1,1.4,10.3,2c-3.3,1.6-7.9,6.3-8.2,13c-0.4,9.1,1.5,14.9,5.6,17.8l-2,3
		c-2.1,0.4-5.5,3.5-5.3,8.4c0.1,1.4,0.3,3.6,1,5.7l-4.1,2.5l-3.1,7.6l-0.6,7l0.7,1.3L214,175l-0.8,7.4l0.2,1.1
		c-3.7-1.6-6.9,0.1-10.5,2.4l-0.4,0.3c-3.9,2.5-5.9,3.8-6.3,7c-0.2,2,0.2,7.2,8.9,13.3c5,3.5,7.5,4.7,9.2,4.7c0.6,0,1-0.1,1.5-0.3
		c1,3,6.5,11.8,7.2,12.9l0.1,0.2l4.5,1.4c-2.2,4.5-2.5,12.7,0.3,16.3c1.1,1.5,2.9,2.2,5,2.2c3.1,0,7.1-1.6,11.1-4.6
		c2-1.5,3.3-3.1,4.2-4.7c1.7,2.6,7.6,10.9,12.2,15.8c0.5,0.9,1.1,1.3,1.6,1.7c0.1,0.1,0.2,0.2,0.3,0.3l0,0c1,0.9,1.8,1.5,2.5,1.7
		c0.4,0.1,0.9,0.2,1.5,0.2c3,0,7.9-1.8,12-3.9c2-1,6.6-3.5,7.2-5.4c0.9-3.2,2.5-10.7-2.7-13.7c1.5-2.5,2.6-5.1,2.7-7
		c0.5-0.1,1.1-0.1,1.3,0c0.2,0.1,0.4,0.1,0.6,0c0.6-0.2,1.2-1.5,1.6-2.7c0.5,0.1,1,0.2,1.5,0.2c0.7,0,1.4-0.1,2.1-0.2
		c0.7-0.2,1.7-0.7,3-1.4c2.3,1.9,18.1,14.4,21.3,14.4c0,0,0,0,0,0c3-0.1,14.9-6.8,17.2-9.1C336.7,223,334.4,216.1,332.5,213.3z
		 M232.5,190.7l-1.9-1.4l1-1.5v-10.4l-1.1-1.3h1.1l0.9-10.6c0.4,0.4,0.8,0.7,1.2,0.9c2.9,1.8,8.5,4.6,14.7,6.6l-0.8,1l0.9,2
		l-1.8,0.9l-0.1,0.1c0,0-0.2,0.3-0.3,0.8c-1.3,0.3-5.6,1.4-7.3,4.1c-1.8,3-5.9,13.4-6.3,17.9c-0.3-0.3-0.6-0.5-0.9-0.7l1-0.8
		L232.5,190.7z M296.1,177.5l-0.7,3.2l1.6,2.1c-2.3-1.8-7.8-4.4-9.8-4.5c-0.3-0.6-0.9-1.1-1.3-1.3c0.7-0.6,1-1.1,1-1.1l0.1-0.2
		l-0.8-1.6c2-1,5.9-3.7,7.9-5.1l-0.3,1l0,6L296.1,177.5z"/>
</g>
<g>
	<path class="st1" d="M192.2,89.1c-0.1,4.6,5.3,7.3,6.6,7.9c0,2.2,3.3,4,8.2,5.6c4.8,1.7,9.2,3.2,10.3,3.5c1.1,0.3,3.5-0.3,3.5-1.5
		c6.3,2.3,28.9,4.2,32.2,4.1c1.2,2.3,8.5,2,12.8,2.1c4.6,0.1,11.6-0.8,12.8-1.1c1.2-0.3,2.9-1.5,3-2.6c4.1-0.5,32.2-7.3,32.6-15.9
		s-10.6-18-35.2-24s-55.9-0.6-67.3,3.5C202.3,74.2,192.4,81.5,192.2,89.1z"/>
	<path class="st1" d="M245.3,64.6c-10.1,0.8-22.2,3-23.1,6.9c-0.9,3.9,4.8,9.5,19,11.3c14.2,1.8,42.5,0.6,44.7-5.5
		c2.1-6-13-10.1-20.5-11.4S252.4,64.1,245.3,64.6z"/>
	<path class="st1" d="M198.8,97.1c0.1,2.5-0.8-5.7,0-6.6c3.2-3.6,12.7-10,20.6-10.9c4.6-0.6,7.7,1.1,7.7,4.8s-7.4,22.9-7.1,21.3
		c0.9-4.7,1.5-10.4-0.5-12c-2.3-1.9-18.2-4.6-19.6-4.1C198.1,90.4,198.6,93.1,198.8,97.1z"/>
	<path class="st1" d="M200.7,91.1c-0.9,0-0.7,1.8-0.5,4.2s0.4,2.9,2,3.6c1.6,0.7,13.8,5.2,14.9,5.4c1.1,0.2,2-1.3,1.6-4.2
		s-0.3-5.2-3.5-6.3S202.2,91.1,200.7,91.1z"/>
	<path class="st1" d="M252.9,108.7c-1.9-2.4-2.5-11.2-1-12.3c0.9-0.7,9.2-10.5,12.3-11.6c3.1-1.2,10.4-1.2,12.1,0.3s4.6,10,4.8,12
		c0.2,2,1.1,9.1,0.5,10.2"/>
	<path class="st1" d="M251.8,99c0.1-2.6,0.7-3.1,2.3-3.1s22-0.7,23.8,0c1.8,0.7,3.5,3.7,3.7,6.6"/>
	<path class="st1" d="M253.2,100.1c0.2-2.2-0.5-3.2,10.3-3.1c10.7,0.1,13.6-0.4,14.7,1.1c1.1,1.5,2.6,7.6,1.2,9.3
		c-2.1,2.6-22.8,2.8-24.7,0.4C253,105.8,253,102.8,253.2,100.1z"/>
	<polygon class="st1" points="287.2,82 287.2,80.7 288.6,80 295,83.9 296,85.3 295.3,85.9 292.7,85.3 	"/>
	<path class="st1" d="M234.6,107.2c-0.7,1.3-0.6,3.2-0.6,3.2l0.6,1.8c0,0,7.4,3.7,7.7,3.9c0.3,0.1,19.8,0,19.8,0l8.4-3.4l1.3-1.7"/>
	<polyline class="st1" points="276,110.2 277.5,112.4 277,116 275.4,117.6 260.8,125 238.6,124 233.2,119.1 232.5,114.1 
		234.6,112.1 	"/>
	<polyline class="st1" points="234.8,120.6 234,122.2 233.3,126 234.1,128.4 243.1,134 247.3,135.4 265.4,133.9 276.4,125.8 
		278,122.9 278,118.5 276.2,116.8 	"/>
	<polyline class="st1" points="236.9,130.1 235.7,132.3 235.7,135.4 240.8,140.8 250.6,142.7 267.6,142 276.4,135.4 276.9,133.6 
		276.9,128.3 274.8,127 	"/>
	<path class="st1" d="M233.3,107.2c-2.9,0.1-9.4,5.3-9.7,13.1c-0.4,9,1.4,14.8,5.6,17.5"/>
	<path class="st1" d="M235.7,133.2l-5.2,3.2l-3.4,5.2v14.2c0,0,3,7.9,6.9,10.3c4,2.4,15.5,8.3,25.7,8.9c10.1,0.7,23.6-0.3,25.9-1.2
		c2.3-0.9,9.6-6.2,9.6-6.2"/>
	<path class="st1" d="M276.9,131.2c2,0.2,12.9,2.4,15.4,3.7c2.5,1.3,7.3,4,7.3,13.7"/>
	<path class="st1" d="M297.8,139.9c-2.5-3.2-6.3-4.5-11.6-3.4c-5.3,1.1-9.8,11.6-9.2,21.8c0.6,10.2,4.2,15.4,12,13.6"/>
	<path class="st1" d="M292.8,104.5c8.6,0,28.7,1.7,33.8,4.9c5.2,3.2,5.6,25.6,2.4,34.9c-3.2,9.4-10.8,14.9-12.8,15.6
		c-2,0.8-9.5,1.3-9.5,1.3"/>
	<path class="st1" d="M323.6,112.4c4.1,0,6.8,11.3,5.3,21.6c-1.5,10.2-7.4,22.1-12.6,22.6c-3.1,0.3-7.6-4.7-5.4-19.7
		C313.2,121.8,317.9,112.4,323.6,112.4z"/>
	<path class="st1" d="M324.4,108.5c-3.8-0.5-9.6-0.2-14,6c-4.5,6.2-8.4,22.8-6.2,34.1s6.3,11.9,9.4,12.1"/>
	<path class="st1" d="M318.4,108.7l-8,2.5l-3.7-0.4c0,0-4,3-5.3,8s-0.8,7.2-0.8,7.2l2.2,1.8l1.4,4.7"/>
	<path class="st1" d="M318.4,116c2.7-1.7,9.3-0.8,7.3,18.4c-2,19.2-12.2,21.6-13.1,19.7"/>
	<path class="st1" d="M279.4,131.2l4.5-10.5L296,122c0,0,1.5-6.3,4.5-8.9s5.8-4.4,5.8-4.4l-2-1.5l-2.8-0.5c0,0-5,2.4-6.5,5.6
		c-1.5,3.2-2.3,5.2-2.3,5.2l-9.2-1.6l1.4-5.8l3.3-4.4l3.3-0.9l2.1,1.9"/>
	<polyline class="st1" points="299.6,107.9 298.4,105.8 295.1,105.8 291,109.5 287.8,116.8 	"/>
	<path class="st1" d="M227.1,141.5c-1.9,0.2-5.3,3.2-5.1,7.9s1.8,10.8,7.4,11.2"/>
	<path class="st1" d="M223.1,155.4l-4.3,2.7l-3,7.5l-0.6,6.7l0.8,1.5c0,0,3-3.9,7.1-2.5c4,1.3,5.8,2.6,6.3,4.4h1.7l0.9-10.1
		l-0.9-2.2"/>
	<polyline class="st1" points="216.1,173.8 214.5,175.2 213.7,182.4 214.9,187.5 216.1,188.2 218.4,185.2 222.4,184.2 228.9,187.5 
		229.9,189.4 231.1,187.7 231.1,177.6 229.4,175.7 	"/>
	<path class="st1" d="M216.1,188.2l-1.9,1.2v10.8l1.9,3.1h1.9c0,0,0.9-4.3,4.1-4.8c3.2-0.6,7.6,0.1,9.1,0.9l1.3-1.1L232,191
		l-2.1-1.5"/>
	<path class="st1" d="M217.9,203.3c-1.2,1.8-1.8,5-1.7,6.8c0.1,1.9,7.3,13.3,7.3,13.3l4.9,1.5c0,0,1.9-2.9,4.9-3.7
		c3-0.9,6.4-1,7.9-0.9c0-2.8-0.9-3.1-0.9-3.1s-6.5-15.2-7-16.1s-2.2-1.9-2.2-1.9"/>
	<path class="st1" d="M228.5,225c-2.4,4.3-2.7,12.9,0,16.3c2.7,3.4,8.8,2.4,15.4-2.5c6.6-5,7.2-13.2,5.1-15.7s-5.9-2.6-7.7-2.6"/>
	<path class="st1" d="M233.3,239c-2.2-1.6-2-6.5,2.9-9.5s9.7-3.8,10.8-0.4c0.9,2.8-2.6,7.2-5.7,9.2S235.4,240.5,233.3,239z"/>
	<path class="st1" d="M297.8,149.2c-2.1-0.3-7.9,0.7-8.5,6.1c-0.6,5.4,1,9.2,4.2,10.1c3.2,0.9,10.1-0.2,10.5-6
		C304.5,153.6,303.2,150,297.8,149.2z"/>
	<path class="st1" d="M295.5,165.8l-1.2,4.3v5.6l2.3,1.7c0,0,0.2-6.9,7.5-7.4c7.3-0.4,8,1.9,8.5,3.1c1.4,0,1.8-1.5,1.8-1.5
		s-2-6.8-5.7-9.1c-3.7-2.3-4.7-2.3-4.7-2.3"/>
	<path class="st1" d="M296.6,177.3l-0.8,3.3l1.9,2.5c0,0,1-5.2,7.5-4.8c6.5,0.3,7.7,3.4,8.1,4.8c0.4,1.4,1.7,0,1.7,0v-7.9l-2.4-2.2"
		/>
	<path class="st1" d="M297.8,183.1l-1.9,2.2l-0.8,4.6l0.8,1.7c0,0,4.3-2.6,7.6-0.9c3.4,1.8,5.8,6.6,6,7.5h1.8l3.1-11.1l-0.4-3.3"/>
	<path class="st1" d="M295.9,191.6l-2.1,1l-3.4,4.4v2.9c0,0,3.2,1.4,5.5,3.4s4.8,5.6,5.1,7.4c1.2,1.5,2.6,0.7,2.6,0.7l6.9-10.8
		l-0.9-2.3"/>
	<path class="st1" d="M290.4,199.9c-2.9-0.6-9.5,6.4-9.6,9.1c-0.1,2.8,1.1,2.5,1.1,2.5s2.3-0.1,3.7,2.3c1.4,2.4,3,4.7,2.7,5.9
		c-0.3,1.2,2.2,1.7,4.5,1.1c2.2-0.6,9.4-5.5,9.4-7.8c0-2.3-1.2-2.4-1.2-2.4"/>
	<path class="st1" d="M281.9,211.6l-2.5-0.3l-1.9,0.9l0.6,2.1c0,0,4.3,2.2,5.3,4.5c1,2.3,2,4.8,2,4.8s1.4-0.3,2,0
		c0.6,0.3,1.8-3.3,1.8-3.3"/>
	<path class="st1" d="M278,214.3c-3.6-2.4-12.2-2-14.9,0c-2.6,2-0.8,12.2,1.9,15.6c2.6,3.4,7.7,8.4,10.8,7.8
		c3.1-0.6,9.6-9.7,9.5-14.1"/>
	<path class="st1" d="M264.3,216.9c0.9-1.6,6,1.1,8.5,5.6c2.8,5.1,2.9,11.8,1.4,12.4c-1.4,0.7-6.9-4.4-8.7-8.1
		C263.7,223.1,263.1,219,264.3,216.9z"/>
	<path class="st1" d="M249.2,173l-1,1.2l1,2.2c0,0,11.9,7,23.3,5.2c11.4-1.9,13.9-5.9,13.9-5.9l-0.9-1.9"/>
	<path class="st1" d="M249.2,176.4l-2.1,1c0,0-0.6,1.1,0,1.8c0.6,0.8,8.9,7.5,19,7.6c10.1,0.1,19.2-6.1,20.3-7.3
		c1.1-1.2-1.1-2.3-1.1-2.3"/>
	<path class="st1" d="M249,180.8c-2.3,0.4-2.4,2.3,0.6,4.5s7.2,6.9,17.8,6.3c10.6-0.7,18.6-6.7,19.4-8.5c0.8-1.8-0.9-2.3-0.9-2.3"/>
	<path class="st1" d="M246.8,178.4c0,0-5.5,1-7.3,4c-1.8,3-6.1,13.9-6.2,18.1"/>
	<path class="st1" d="M236.6,208.5c2,2,5.2,4.9,7.8,5s11.1-4.9,15.1-5c4-0.2,6.4,4.1,6.4,4.1"/>
	<path class="st1" d="M278,211.9c-2.6-1.2-8.6-4.4-7.8-7.5c0.8-3.1,5-8.8,10-9.4c5.1-0.6,9.7-0.1,11.1,0.7"/>
	<path class="st1" d="M241.8,190.7c-1.2-0.5-2.9,1.5-3,3.1c-0.1,1.7,6.7,7.8,8.4,7.8c1.7-0.1,3.6-2.6,3.4-3.4
		S243.9,191.6,241.8,190.7z"/>
	<path class="st1" d="M242.9,191.3c-1.2,0.2-2.4,2.2-2.3,2.8c0.1,0.7,5.5,6.1,8.5,6.6"/>
	<path class="st1" d="M286.9,178.9c2,0,8.6,3.2,10.3,4.9"/>
	<path class="st1" d="M312,195.8c1,0.8,18.2,14.9,20.1,17.8c1.9,2.9,4,9.4,1.9,11.4s-14,8.8-16.8,8.9c-2.9,0.1-19.5-13-21.2-14.5"/>
	<path class="st1" d="M313.3,231.8c3.6,0.9,9.8-0.4,9.6-6.1s-4.3-9.3-11.6-13.6l-5.8-3.6"/>
	<path class="st1" d="M314.4,231.8c-0.9,0.2-4.4-1-6-6.1c-1.5-4.6,3.2-8.3,6-8.3c2.5,0,5.3,0.7,6.2,2.1"/>
	<path class="st1" d="M322.3,228.7c3.1-1.7,12.6-7.5,12.6-7.5"/>
	<line class="st1" x1="322.7" y1="224.2" x2="334.2" y2="218.3"/>
	<line class="st1" x1="319.5" y1="218.3" x2="331" y2="212.6"/>
	<line class="st1" x1="317.8" y1="216.7" x2="329.5" y2="210.8"/>
	<line class="st1" x1="309.6" y1="210.8" x2="322.7" y2="204.7"/>
	<line class="st1" x1="321.5" y1="203.7" x2="308.1" y2="210.1"/>
	<path class="st1" d="M316.2,220.3c-1.2-0.3-5.1,0-5.2,3.4c-0.1,3.4,1.5,5.5,3.2,5.6c1.7,0.2,5.9-0.8,5.7-3.5S319,220.9,316.2,220.3
		z"/>
	<path class="st1" d="M315.6,220.3c-1.4,0-3.1,1.9-2.9,4.5c0.2,2.6,2.1,3.9,5.4,3.6"/>
	<path class="st1" d="M244.7,220.2c0.4-2.1,1-2.7,3.5-1.3c2.4,1.4,17.7,19.9,19.8,22.5c3.1,3.6,2.1,15-5.8,9.7"/>
	<path class="st1" d="M248.4,233.4c1.4,2.3,12.9,18.5,16.9,19.9c4,1.4,19.2-5.8,20-8.8c0.9-3,2.6-10.7-2.9-13.3"/>
	<line class="st1" x1="269.6" y1="245.7" x2="286.3" y2="238.7"/>
	<line class="st1" x1="269.4" y1="247.1" x2="286.2" y2="240.4"/>
	<line class="st1" x1="255.7" y1="226.9" x2="262.6" y2="223.9"/>
	<line class="st1" x1="254.8" y1="225.8" x2="261.9" y2="222.8"/>
	<path class="st1" d="M266.8,240c-2-2.4-7.5-0.7-7,4.8s2.2,6.1,3.2,6.9"/>
	<path class="st1" d="M265.9,243.3c-1.1-1-3.5-2.1-3.7,1.5c-0.3,4,1.4,5.3,2.6,5.3s2.3-0.9,2.3-3C267,245,266.8,244.1,265.9,243.3z"
		/>
	<path class="st1" d="M265.4,242.9c-0.8-0.4-3.4,4.7,1,6.5"/>
	<path class="st1" d="M197.3,191.3c2-2.4,6.5,0.4,9.2,2.7c2.7,2.3,7.6,6.2,7.6,6.2"/>
	<path class="st1" d="M202.6,191.3l11.5-7c-3.8-2.1-6.8-0.7-10.9,1.9c-4.1,2.6-6.1,3.8-6.4,6.9c-0.3,3.1,1.7,7.9,8.7,12.9
		c7,5,8.9,5.2,10.8,4.1"/>
	<line class="st1" x1="204.8" y1="192.6" x2="214.6" y2="186.2"/>
	<line class="st1" x1="208.6" y1="195.8" x2="214.2" y2="192.6"/>
	<line class="st1" x1="210.2" y1="197" x2="213.7" y2="194.8"/>
	<path class="st1" d="M201.2,190.7c2.1,1,3.4,4.9,2.6,6.8c-0.8,1.9-2.7,3.9-4.8,2.4"/>
	<path class="st1" d="M214,200.2c-1.4-1.3-4-0.7-4.3,2.1c-0.2,2.9,0.1,6.7,2.7,7.8"/>
	<path class="st1" d="M202.4,191.7c-0.7-0.8-3.8,1.5-2.9,4.4c1,2.9,2.8,2.8,3.5,2.3"/>
	<path class="st1" d="M215.2,201.8c-2.1-0.8-3.5,0.9-3.4,3.5s1.7,3.3,2.8,3.1c1.1-0.2,2-1.9,2-1.9"/>
</g>
</svg>
