
<svg id="bp-139" viewBox="0 0 527 318">
<style type="text/css">
	.st0{fill:#357ad0bb;stroke:#fff;stroke-miterlimit:10;}
	.st1{fill:none;stroke:#fff8;stroke-miterlimit:10;}
</style>
<g>
	<path class="st0" d="M330.3,177.9l-8.4-6.5l-0.3,0.1c-0.4,0.2-0.9,0.3-1.2,0.4c1.1-0.8,3.1-3.4,3.5-6.6c0.1-0.4-0.1-1.3-0.3-2.4
		c0-0.1,0-0.2,0-0.3l0,0c-1.8-7.6-8.7-27.3-10.9-28.2c-2.1-0.9-13.7,1.1-15,1.3l-0.2,0l-9.3,9.3c1-2.7,2.1-6.1,2.4-7
		c3.2-2.3,8.5-6.5,10.3-10.2l0-0.2c0.1-1.5-1-4.9-1.9-7.6l-0.1-0.1c-2.5-3.7-16.5-10.8-19.9-11.5c0.3-0.4,0.5-0.9,0.6-1.4
		c0.1-1-0.3-1.8-0.7-2.3c6.9-4.2,11.6-8.3,12.6-9.7c0.8-1.1,0.9-2.6,0.3-3.6c-0.4-0.7-1.2-1-2-1c-0.7-1.5-2-3.3-3.7-5.2
		c0.8-1.4,1.5-4.2-0.6-5.9c-2.3-2-4.9-0.5-5.8,0.2c-2.8-2-6-3.6-9.4-4.4c-1-2.4-4-5.8-7-6.7c-4.2-1.3-8.9-1.2-11.9,0.1
		c-3,1.3-6.9,4.2-8,8.1c-1.7,0.3-3.5,0.9-5.2,1.8c-0.6-0.6-1.6-1.3-2.8-1.4c-1-0.1-1.8,0.1-2.5,0.7c-1.3,1.1-1.8,2.9-1.8,4
		c0,0.7,0.1,1.2,0.4,1.6c-2.2,2.2-4,4.8-4.9,7.3l0-0.2c-0.6,0-1.2,0.4-1.6,1c-0.5,0.8-0.6,2-0.2,3c0.4,0.9,4.3,5.8,9.9,9.7
		c-0.2,0.7-0.2,1.6,0.2,2.6c0.5,1.2,1.6,2.8,3.2,3.5c-0.1,0.1-0.1,0.1-0.2,0.2c-4.1,0.4-14.5,8.6-15.2,13.1v0.3
		c-2.2,0.7-2.4,2.3-2.7,3.6c-0.1,0.4-0.1,1.1,0,1.9c-1.5,0.6-3.3,2.6-3.4,3.9c0,2.9,1.7,7.3,6.3,10.1c1.4,0.8,2.6,1.8,3.6,2.7
		c-3.2,0.2-9.5,1-11.9,3.8c-2.3-2.3-4.8-4.4-5.9-4.6c-2.3-0.5-14.1,3-15.3,3.7c-1.3,0.8-4.2,6.4-3.4,9.6c0.6,2.5,5.6,6.4,8.3,8.3
		l0.6,3.7l-1.7,0.3c-1-1.1-2.2-2.1-3.5-2.9l-0.1-0.1l-0.2,0c-1.8,0.2-10.1,1.6-12.9,2.4c-0.1,0.1-0.3,0.1-0.5,0.2
		c-1.8,0.7-5.5,2.1-6.4,12.8c-1,11.6,4.6,19.5,10.2,22l0.1,0.1l0.1,0c0,0,0,0,0,0c0.5,0,1-0.1,1.5-0.3c2.7-0.5,8-1.6,9.8-1.9
		c-0.2,8.8,2,12,4.1,14c0.6,0.5,1.9,1.8,3.6,3.4c7.9,7.5,12.3,11.5,13.3,11.8c0,0,0,0,0,0l0,0c0,0,0,0,0.1,0c0.1,0,0.2,0,0.3,0
		c0.3,0,0.6,0.1,0.9,0.1c0.2,0,0.3,0,0.5,0c2.9,0,8.1-0.5,9.1-0.7c0.3,0,0.6-0.2,0.9-0.4l21.1,16.1c0.6,0.6,3.4,3.4,4.7,3.5
		c0,0,0,0,0,0c1.2,0,15.6-3.7,16.5-5.8c0.6-1.5,0.7-5,0.7-6.2l7.6-2l6.1,4.3l14.6-4v-5.7l6.8-1.5l4.2,4l0.5-0.1l0.7,1.1v-1.3
		l11.3-2.4l0.8-5l8.1-1.8l3.6,3.2l13.5-2.9l4.6-4.6L330.3,177.9z"/>
</g>
<g>
	<path class="st1" d="M196,202.2c0,0-10.2,2-11.9,2.3c-5.3-2.3-10.9-9.9-9.9-21.5c1-11.6,5.3-11.9,6.6-12.6
		c2.6-0.7,10.9-2.1,12.7-2.3c4.2,2.5,7.4,8,8.7,12.6c1.5,5.6,0.8,9.8,0.4,12.4c-1.8,0.2-4.5,1.6-5,2.7
		C197.1,197.1,196,199,196,202.2z"/>
	<path class="st1" d="M182.8,176.7c-2.6,0-4.1,4.7-4.1,9.6c0,5.9,2.8,10.6,4.8,10.6c2.4,0,4.3-3.8,4.1-10.1
		C187.4,180.5,185.5,176.7,182.8,176.7z"/>
	<path class="st1" d="M184.7,177.5c-1.2,0-4.1,3.2-3.8,9.7s2.1,7.3,2.9,7.4c0.8,0.1,3-0.9,3.3-2.7"/>
	<path class="st1" d="M180,170.8c6.6-0.4,11.6,7.1,11.5,17.8c-0.1,12.1-4.4,15.9-7.3,15.9"/>
	<path class="st1" d="M197.6,195.9c4.1-3.6,17.6,11.1,21.9,15.7c5.5,5.8,5.3,21.4-2.9,19.8"/>
	<path class="st1" d="M208.8,194.2c-1.6-0.9-4.8-1.3-6.2-1c-1.4,0.3-6.3,0.2-6.6,9c-0.3,8.8,1.7,12.1,4,14.2s15.3,14.7,16.7,15
		s9.3-0.3,10.6-0.6c1.8-0.3,5.2-5.5,5.1-9.5c-0.1-4-0.6-6.9-3.5-10.2C225.3,207,211.7,195.7,208.8,194.2z"/>
	<path class="st1" d="M203.9,166.6c-1.7,0.3-2.5,1.3-3.7,0.7c-1.1-0.6-9-6-9.6-9c-0.7-3,2.1-8.4,3.2-9.1c1.1-0.7,12.9-4.1,14.9-3.7
		c2.1,0.5,9.2,7.7,10.1,10.2c0.9,2.5,8.3,20.8,8.6,34.6c0,6.5-0.9,9.6-2.2,10.7c-1.3,1-5.3,1.8-5.3,1.8"/>
	<path class="st1" d="M200.2,167.3c0-2.4,0.9-2.9,2.8-2.8c2,0.1,7.1,19.9,7.4,22.3c0.2,2.4-3.9,6.3-5.1,6.3"/>
	<path class="st1" d="M193.8,149.3c3,1.6,11.2,8.6,12.9,11.2c1.6,2.6,8.7,23.6,8.7,25.8"/>
	<polyline class="st1" points="198.9,166.4 199.6,170.8 197,171.2 	"/>
	<path class="st1" d="M243.9,77c-7.4,1.1-15.7,8.8-17.2,15.4c4.2,7.6,14.9,14.8,32.2,14s31.1-10.7,31.2-13.7
		c0.1-3-9.2-14.9-20.3-17.2"/>
	<path class="st1" d="M243.9,77c0.9-3.7,4.6-6.6,7.8-8c3-1.4,7.7-1.3,11.6-0.1c3.5,1,7,5.8,7,7.8c-2.5,3.6-8.7,5.5-13.3,5.3
		C252.2,81.7,247.2,80.3,243.9,77z"/>
	<path class="st1" d="M238.1,79c-0.7-1-3.1-2.4-4.8-1s-2,4.5-1.1,5.4"/>
	<path class="st1" d="M279.7,80.1c0.7-0.6,3.3-2.3,5.5-0.4c2.2,1.9,0.8,4.9,0.3,5.6"/>
	<path class="st1" d="M257.3,89.1c-1.5-0.2-4,1.2-3.7,3.7c0.3,2.5,1.7,3.5,3.2,3.5c1.5,0,3.6-1.1,3.5-3.6
		C260.1,90.2,259.5,89.3,257.3,89.1z"/>
	<path class="st1" d="M272.7,86.5c-0.3,1.9,1,4.5,2.4,5.3c2.7,0.1,3.6-1.6,3.6-3.5c0-1.2-1.8-2.5-3.2-2.7
		C274,85.2,272.7,86.5,272.7,86.5z"/>
	<path class="st1" d="M243,86.2c0.3,1.9-1,4.5-2.4,5.3c-2.7,0.1-3.6-1.6-3.6-3.5c0-1.2,1.8-2.5,3.2-2.7C241.7,85,243,86.2,243,86.2z
		"/>
	<path class="st1" d="M226.6,90.9c-1.2,0-1.9,1.7-1.3,3.2c0.6,1.3,9.2,11.7,19.1,13.9c11.1,2.4,26.5,1,33.8-3.4
		c7.3-4.4,12-8.5,13-9.9c1.2-1.7,0.6-4.1-1.6-3.8"/>
	<path class="st1" d="M235.4,103.9c-1,1.6,0.9,5.3,3.6,6.1c2.8,0.8,19.4,8.9,38.4-0.8c3.3-2,0.8-4.6,0.8-4.6"/>
	<path class="st1" d="M239,110c-1.3,1.3-2,3.1,3,5.9c5,2.9,27.1,3.5,33.7-1.5c3-2.8,1.7-5.2,1.7-5.2"/>
	<path class="st1" d="M238.3,110.9c-3.6,0-14.3,8.3-15,12.6v2c0,0,7.4,8.5,12.7,11.1c3,1.4,5.4,1.2,6.2,0c0-3.5-1.3-5-1.8-5.4
		c-0.4-0.4-10.6-9.7-10.6-9.7l2.4-3.4l6.6-4.5"/>
	<path class="st1" d="M223.3,124.2c-2.2,0.6-2.5,2-2.7,3.3c-0.2,1.3,0.2,4.5,1.9,6.2c1.7,1.7,10.4,7.4,12.6,7.7
		c3.2,0.6,24.8,0.9,32.4,0.6l-7.3-9.8v-2.5c0,0,4.4-8.5,10-9.7c5.6-1.2,14.4,0.9,16.8,4.4c0.7,3.7-0.3,11.2-1.1,12.4
		c0.5,1.9,2,2.5,2,2.5c2.2-1.3,10.2-7,12.4-11.6c0.1-1.4-1.1-5.2-1.9-7.4c-2.4-3.5-17-11-19.7-11.3"/>
	<path class="st1" d="M214.8,150.5c1.7-2.9,8.2-3.9,13-4.1"/>
	<path class="st1" d="M277.7,109.8l14.1,9.9c0,0,0.5,5.1,0,6.5s2.3,2.5,4.4,2.6s3.5-1.1,3.5-4.8"/>
	<path class="st1" d="M224,126.4c-1,1-5.3,3.4,8.3,11.3c3.4,2.3,12,2.5,18.6,2.2"/>
	<path class="st1" d="M265.5,139.3l3.1-9.6l7.1-4.1h4.1c0,0,4.2,0.7,5.4,2.7c1.2,2,2,6,1.1,7.8"/>
	<path class="st1" d="M267.2,134.1c0.2,3.4,2,8.3,9.4,8s8.8-4.1,9.4-5.4"/>
	<path class="st1" d="M273,127c5.6-0.5,11.2,1.4,11.8,6.1c0.6,4.7,0,5.3-1.3,6.8"/>
	<path class="st1" d="M233.9,154.6c1.7-1.8,6.5-8.4,9.1-9.1c2.5-0.7,16.9-1.5,18.9-0.9c2,0.7,5.4,11.2,6.3,16.2s1.3,14.1,1,16.6
		s-2.2,4.8-3.6,4.8c-1.4,0-9.5,3-12,2.6c-2.7-1.2-5.8-5.3-5.8-5.3l-6.4-20.8L233.9,154.6z"/>
	<path class="st1" d="M250.9,183.1c0,0-0.1-8.7-1.8-15.3c-1.7-6.6-7.7-21.4-7.7-21.4l-9.8-6.4v2.1l5.7,7.2"/>
	<path class="st1" d="M253.6,185c0.4-7.6,0.8-12.2,0-15.2c-0.8-3-6.3-18.4-9.7-24.2"/>
	<path class="st1" d="M244.4,168.8l-7.7-6.9l1.4,10.4l2.3,8.6c-1-1.4-4.4-3.3-6.9-1.7c-1.7-1.5-6.7-19.4-6.9-22.2s1.6-5.2,4.2-6.5
		c-0.5-1.4-3.2-5.2-7.5-7.7s-6.1-6.6-6.1-9.7c0.1-1.1,2.1-3.2,3.5-3.5"/>
	<line class="st1" x1="233.9" y1="154.6" x2="236.7" y2="161.9"/>
	<polygon class="st1" points="230,143.4 235.3,149.3 237.4,150.5 233.9,153.3 	"/>
	<path class="st1" d="M290.1,137.7c0,0-2.6,8.2-3.7,10c-1.1,1.8-4.5,6.4-6.7,7.6c-2.2,1.2-9.6,3.7-12,3.7l3.2,13.5l19.2-4.7
		c0,0-0.7-9.7-0.7-10.4s-2.3-6.9-2.3-6.9l-3,1.3"/>
	<path class="st1" d="M285.2,138.1c1.1,2.6-2.2,9.4-8.7,10.2c-6.4,0.9-8.8-0.2-11.7-1.9s-3-1.7-3-1.7l1-2.6"/>
	<path class="st1" d="M265.7,152c3.9,1.3,7.2,2.1,10.4,1.3c3.1-0.8,7.2-4.2,7-7.7"/>
	<path class="st1" d="M290.1,150.5l-1.8-1.9v-3.1l9.4-9.4c0,0,12.6-2.1,14.7-1.3c2.1,0.8,11.4,27.2,11,30.4s-2.5,5.8-3.4,6.3
		c-0.9,0.6-11.3,2.7-12.5,2.6c-1.2-0.1-3.6-1.5-4-2.2C303.2,171.4,290.1,150.5,290.1,150.5z"/>
	<path class="st1" d="M299.1,136c0,0,9.6,24.4,9.8,26.5c0.2,2.1-1.4,11.7-1.4,11.7"/>
	<path class="st1" d="M254,175.6c1.5,2.4,2.4,4.8,7.8,3.4c5.4-1.4,6.8-1.2,7.4-4.4"/>
	<path class="st1" d="M308.9,166.3c0.5,2,0.8,4,4.6,3.1c3.8-0.9,10.1-1.1,9.5-6.8"/>
	<path class="st1" d="M297.7,136.2c0,0,9.2,25,9.3,27.5c0.1,2.5-3.5,8.3-3.5,8.3"/>
	<path class="st1" d="M288.7,154.9c0.6-0.1,1.2-0.3,3.8,2.7c2.6,3,5.2,14,5.2,14l-4.5,1.9c0,0-0.4-7.2-3.1-10"/>
	<path class="st1" d="M248.5,186.3c-1.9-0.6-6.1,0.7-9.8,2c-3.7,1.3-7.6,3.6-7.9,4.8c-0.3,1.2,0,3.5,0,3.5l2.9,1.9l0.3,5.1l-0.3,1
		c0,0,21.1,34.5,21.4,35.9c0.3,1.4,0.6,4-1.1,4.4c-1.7,0.4-2.4,0-2.4,0l-1.8,0.2l-0.2,1.7c0,0,3.2,3.3,4.4,3.4
		c1.3,0.1,15.4-3.9,16-5.5c0.7-1.7,0.7-6.4,0.7-6.4l8.2-2.2l6.1,4.3l14-3.9v-5.7l7.4-1.7l4.2,4l11.9-2.5l0.8-5l8.7-2l3.6,3.2
		l13.1-2.9l4.2-4.2l-23.1-41.5l-8-6.1c0,0-2.1,0.8-2.6,0.4c-0.5-0.4-9.1,4-9.1,4l-1.1,2.4l-8.6,2.1l-5.4-3.9l-22.8,6.7l-0.9,2.6
		l-18.1,4L248.5,186.3z"/>
	<path class="st1" d="M230.8,196.6c-1.8,0-3.2,2-2.5,5.3c0.7,3.3,2.8,5.8,5.4,2.6"/>
	<path class="st1" d="M250.9,236.1c-1.4-1.1-3.5,0-3.4,3.3s1,5,2.8,4.8c1.8-0.1,2.9-3.4,2.6-5.2
		C252.7,237.3,252.3,237.2,250.9,236.1z"/>
	<line class="st1" x1="228.2" y1="230.3" x2="249.6" y2="246.6"/>
	<line class="st1" x1="230.9" y1="226.6" x2="249.8" y2="245"/>
	<line class="st1" x1="230.7" y1="206" x2="248.9" y2="235.9"/>
	<line class="st1" x1="231.4" y1="215.4" x2="243.9" y2="231.5"/>
	<line class="st1" x1="244.4" y1="228.5" x2="243.9" y2="239.2"/>
	<path class="st1" d="M291.5,178c0.9-3.8,1.1-7.7-1.4-10.2l-2.7,0.7c0,0,1.9,2.4,2,5.7c0.1,3.3-1.2,4.8-1.2,4.8L291.5,178z"/>
	<path class="st1" d="M286,179.2c0.9-3.8,1.1-7.7-1.4-10.2l-2.7,0.7c0,0,1.9,2.4,2,5.7c0.1,3.3-1.2,4.8-1.2,4.8L286,179.2z"/>
	<path class="st1" d="M280.8,180.9c0.9-3.8,1.1-7.7-1.4-10.2l-2.7,0.7c0,0,1.9,2.4,2,5.7c0.1,3.3-1.2,4.8-1.2,4.8L280.8,180.9z"/>
	<path class="st1" d="M275.4,182.2c0.9-3.8,1.1-7.7-1.4-10.2l-2.7,0.7c0,0,1.9,2.4,2,5.7c0.1,3.3-1.2,4.8-1.2,4.8L275.4,182.2z"/>
	<polyline class="st1" points="294.9,177 298.3,174.6 300.3,174.2 302.4,177 310,176.4 	"/>
	<polyline class="st1" points="227.8,188.8 229.2,192 231.4,192 234.8,190 233.5,179.3 	"/>
	<polyline class="st1" points="260.5,248.5 262.7,243.3 262.7,238.5 237.6,195.3 238.9,194.1 249.6,192 250.9,192.5 254,197.7 
		255.3,198 275,192.6 274.4,188.4 275,187.3 294.3,182.6 295.9,182.6 298.5,186.3 299.1,186.3 314.5,182.6 315.1,179.3 319.3,178.2 
		320.9,178.8 345.4,217.3 345.4,220.6 343.5,220.9 342.1,217.6 331.7,206.8 329.2,206.5 319.4,195.3 320.8,179.3 	"/>
	<line class="st1" x1="260.5" y1="209.8" x2="303.4" y2="199.2"/>
	<polyline class="st1" points="259.3,204.9 290.1,197.4 296.3,198.2 298.1,200.5 	"/>
	<path class="st1" d="M276.2,189.2c0,0-0.5,2.2,0.3,3.8c1.1,0.4,5.1-0.3,10.8-2.1c5.8-1.8,8.1-2.1,8.7-2.3c2-0.9-0.4-4.7-1.7-4.6
		C292.7,184.3,277.3,187.9,276.2,189.2z"/>
	<path class="st1" d="M276.2,189.2c0,0,1.7,0.6,1.7,1.5c0.1,1,0.2,2.3-0.9,2.4"/>
	<polyline class="st1" points="241.3,193.7 245.7,199.6 246.3,204.9 244.1,206 	"/>
	<polyline class="st1" points="242.9,193.3 247.5,199.2 250.2,199.5 252.4,198.2 251.9,196.6 248.9,192.2 	"/>
	<polyline class="st1" points="244.4,207 247,206 248.5,206.5 256.5,204.5 257.5,202.1 256.7,197.6 	"/>
	<polyline class="st1" points="299.7,186.2 298.1,187.5 298.5,191.2 299.7,191.3 307.4,189.2 307.4,191.5 308.4,192 310.9,191.3 
		310.9,188.1 318.6,186.3 320.3,185 	"/>
	<polyline class="st1" points="300.3,195 318.1,190.7 318.8,192 319.4,195.3 303.4,199.2 298.1,192 294.9,191.3 261.6,200.1 
		259.3,202.3 259.3,208.4 260.5,209.8 247.8,212.9 	"/>
	<polyline class="st1" points="255.8,226.6 256.8,225 263.7,223.8 272.3,233.4 272.3,237.8 	"/>
	<polyline class="st1" points="256.3,227.4 257.5,226 262.8,225.2 268.8,234.3 268.1,245.8 	"/>
	<polyline class="st1" points="278.9,236 279,232.1 273.6,222.3 275,218.8 282.5,216.2 287.4,217 298.7,228.5 299.1,230.7 	"/>
	<polyline class="st1" points="285,240.3 285.4,237.8 280.8,234.2 280.8,228.5 275.3,222.2 276,219.7 283.2,217.1 287,217.9 
		296.9,229 296.9,234.6 286.6,237.8 286.4,239.9 	"/>
	<polyline class="st1" points="307,229.1 307,225.2 298.1,227.3 	"/>
	<line class="st1" x1="272.3" y1="233.4" x2="279" y2="232.1"/>
	<polyline class="st1" points="307,225.2 299.1,216.2 299.1,212.9 310.4,211 321.7,220.9 323.4,225.5 	"/>
	<polyline class="st1" points="299.1,212.9 310,223.8 310.5,231.5 311.2,232.8 311.2,230.8 320.7,229.1 320.7,223.2 319.8,220.9 
		310.4,211 	"/>
	<line class="st1" x1="322.3" y1="222.7" x2="331.3" y2="220.4"/>
	<polyline class="st1" points="332,223.5 331.3,220.4 320.3,210.3 320.7,207.6 329.2,206.5 	"/>
	<polyline class="st1" points="320.7,207.6 333.9,219.3 334.2,222.7 335.8,225.5 336.6,223.5 344.3,221.9 347.6,221.9 351.2,216.6 	
		"/>
</g>
</svg>
