
<svg id="bp-247" viewBox="0 0 527 318">
	<style type="text/css">
		.st0{fill:#357ad0bb;stroke:#fff;stroke-miterlimit:10;}
		.st1{fill:none;stroke:#fff8;stroke-miterlimit:10;}
</style>
<g>
	<path class="st0" d="M376.2,221.5c-0.8-7.2-7.1-11.8-12.7-11.8l1.2-3.9l-6.8-10.8l-2-0.6l0.1-0.1l0.9-3.3l-7.1-12.4l-1.7-0.9
		l-0.6-3.5l-7.4-10.7l-2.1-2.5l-2.2-16.4l0-0.2l-7.6-8.2h-15.6l-1,1c0.2-0.8,0.4-1.8,0.6-2.4c0.2-0.6,2.4-3.8,4.3-6.6
		c3.3-4.9,4.8-7.2,5-7.8c0.2-1.2,0.5-5.3,0-6.8c-0.5-1.5-8.9-11.7-11.5-11.7h-2.8V83.8c0.1,0,0.2,0,0.2,0l8.6-0.7l0.1,0
		c1.1-0.4,6.8-2.3,7.7-3.7c0.5-0.7,0.6-2.8,0.5-5.1c0.1-0.2,0.2-0.5,0.2-0.7l-0.3,0c-0.2-2.4-0.7-4.8-1.5-6.1
		c-0.1-0.2-11.6-16.4-45.2-17.5c0.1-1.6,0.1-4.4-0.1-5.2c0-0.1-0.1-0.2-0.1-0.3c0.5-0.6,0.6-2,0.2-3.2c-0.6-1.7-7-6.2-12.9-6.2
		c0,0,0,0-0.1,0c-6.5,0-10.7,4.4-11.5,5.3c-0.8,0.9-1.2,1.6-1.1,2.2c0,0.4,0.2,0.7,0.5,0.9c-0.9,1-0.8,4.5-0.7,6.5
		c-0.6,0.1-1.3,0.2-2.2,0.3c-9.2,1.3-33.6,4.8-42.3,17.9l-0.1,0.2c-0.6,2.9-0.5,8.3,0,9.7c0.5,1.6,8.8,6.3,13.3,6.2
		c0.4,0,1.2,0,2.3,0c0.1,0,0.2,0,0.3,0v17.6h-4c-2.3,0-10.1,10.6-10.6,11.5c-0.7,1.4-0.3,5.4-0.1,7.1c0,0,0,0,0,0l0,0
		c0,0.3,0.1,0.5,0.1,0.6c0.2,1.4,5.3,8.2,6.8,10.2c0.2,0.3,0.2,0.7,0.1,1c-1.2-0.6-2.3-1-3-1.2c-2-0.6-4.9,0.8-7.8,2.1
		c-0.7,0.3-1.3,0.6-2,0.9c-0.6,0.3-1.3,0.5-2.1,0.8c-2.6,0.9-5.6,2-6.4,4.8c-0.6-0.9-1.3-1.3-2.7-1.6c-1-0.3-2.6-0.3-3.7,0.1
		c-0.6-1-2-3-4.3-3.8c0.4-0.8,0.2-2.1,0.1-3.1c0-0.2-0.1-0.5-0.1-0.6c0-0.4-0.3-1-0.6-1.8c-0.6-1.4-1.4-3.4-1.4-5.1
		c0-2.3-0.9-5.5-2-6c-0.1,0-0.2-0.1-0.2-0.1c-0.1-0.3-0.2-0.6-0.3-0.9c0.3-0.5,1-1.6,1.5-2.5c0.1,0,0.2,0,0.2,0
		c1.9,0,3.6-3.3,5.3-6.8l0.1-0.2c1.9-3.8,0.9-9.1-2.5-12.3c-2.3-2.2-4.2-2-5.2-1.8c-1.3,0.3-2.2,1.3-2.6,2.4
		c-0.4,1.5,0.1,2.5,0.7,3.6c0.4,0.7,0.7,1.4,1,2.3c0.5,2.1-1.2,3.8-2.7,5.1c-0.5-0.2-1,0-1.4,0.2c0.3-0.5,0.4-1,0.1-1.5
		c-0.3-0.5-1-0.8-2.6-0.9c-1.1-0.1-3.1,1.7-6,5.2c-1.6-0.1-3.6-0.5-4.6-1.5c-0.4-0.4-0.6-1-0.6-1.6c0.1-3.4-0.2-9.3-2.9-9.6
		c-2.5-0.3-4.6,2.8-5.9,8.8c-0.5,2.4,0.6,5.5,2.9,8.2c1.9,2.2,4.2,3.7,6.1,3.9c-0.2,0.6-0.2,1.1-0.1,1.5c-0.9,0.4-1.5,2.8-2.6,8.2
		c-0.2,1-0.4,2-0.6,2.8c-0.6,2.7-0.2,7.3,1.4,9.5c0.4,0.6,0.8,0.9,1.3,1.1c-0.9,1.5-0.4,4.6,0.3,5.8c0.1,0.1,7.8,12.6,10,13.1
		c0.3,0.1,0.7,0.1,1,0.1c1,0,2-0.3,2.7-0.5c0,0,0,0,0,0c0.3,1.2,3.7,2,11,3.3l1.1,0.2c0.6,0.1,1.1,0.1,1.7,0.1
		c1.6,0,3.2-0.4,4.5-0.9c0.5,0.6,2,2.3,3.5,3.2c0.7,0.4,1.8,0.6,3.3,0.6c1.4,0,3.1-0.1,5-0.3c1.2-0.1,2.3-0.2,3-0.2
		c1.8,0,7.3-3.5,11.1-6.2l0.7,43.1c-0.7,2.7-6,12.2-8.9,17.4c-0.2,0.4-0.4,0.7-0.6,1c-0.6-0.3-1.4-0.5-2.2-0.6l0,0
		c-0.6-0.1-0.6-0.5-0.6-1.9c0-0.3,0-0.6,0-0.9v-46.4l-1,2.9c0,0-1.6,4.7-3.8,10l0,0.1V221c0,1.2,0.5,2.9,1.5,3.7
		c0.3,0.3,0.7,0.4,1.1,0.5c0,0.1,0.1,0.1,0.1,0.2c0.4,0.8,1.4,1.7,3.5,1.8c0.2,2.7,0.6,5.8,0.9,6.5c0.6,1.7,36.2,36.5,36.5,36.7
		c0.4,0.2,1.4,0.4,3,0.5c-0.1,0.3-0.2,0.8-0.1,1.4c0.3,2.6,2.8,6.5,5.8,8.1c4,2.1,10.3,2.5,11.7,2.5c1.6,0,9.4-1.8,12.6-4.1
		c2.6-1.9,5.3-5.3,4.3-8.6c0.4-0.1,0.7-0.2,0.8-0.3c0.3-0.3,35.8-33.1,36.4-34.8c0.4-1.3,1.1-11.7-0.1-13.6
		c-2.5-3-8.2-14.9-8.1-17.3c0-1,0.2-5.5,0.3-11.1c0.2-8.3,0.5-18.5,0.6-22.4l3.5,3.7l1.4,9.5l0,0.1l6.5,8.7l0.1,4.3l8,12.6h2.1v3.8
		l7.5,8.6h2.5c-2.1,3.3-1.7,9.3-0.6,12.7c1.2,3.8,2.3,4.6,6.1,4.6c0,0,0,0,0,0c1.3,0,2.4-0.5,3.3-1.5c1.6-1.8,2-4.6,1.7-6.6
		c-0.1-0.7-0.3-1.5-0.5-2.2c-0.7-2.6-1.4-5.1,1.4-6.4c0.7-0.3,1.3-0.6,1.8-0.8c2.4-1.1,3-1.4,4.8-1.3c0.7,0,1.5,0.6,2.2,1.5
		c1.1,1.5,1.8,3.6,1.5,4.8c-0.3,1.2,0,2.4,0.7,3.2c0.7,0.7,1.6,1.1,2.6,1c0.7-0.1,4-0.5,6.1-3.1
		C375.9,226.4,376.4,224.2,376.2,221.5z"/>
</g>
<g>
	<path class="st1" d="M252,50.4c-6.6,1.1-35,3.7-44.5,18.1c-0.6,2.9-0.4,8.1,0,9.5s8.4,6,12.8,5.9c4.9,0.1,86.9-0.6,86.9-0.6
		l8.6-0.7c0,0,6.6-2.2,7.5-3.5s0.4-8.9-1.1-11.4c-1.5-2.5-14.3-16.4-45.1-17.2"/>
	<path class="st1" d="M252.8,43.7c-0.9,0.7-0.8,5.4-0.6,7.6l1.6,0.5c0,0,0.2,14.9,0.4,16.6c0.2,1.7,2.1,4.5,3.4,5.3
		c0,0,14.4,0.1,15.3,0c1.2-0.7,2.4-3,2.6-5s0.4-17.2,0.4-17.2l1.1-0.3c0,0,0.2-5.2,0-6.3c-0.2-1.1-1.3-1.2-1.3-1.2H252.8z"/>
	<path class="st1" d="M253.4,43.7c-0.8-0.7-1.7-1.1,0-3.1c1.6-1.8,5.7-5.1,11.2-5.1c5.8,0,12,4.3,12.5,5.8c0.5,1.5,0,3.2-0.4,2.8"/>
	<path class="st1" d="M240.9,61.7c-2.2,0-15.4-0.3-17,0s-0.6,4.8,1.8,4.7c2.4-0.1,13.6,0,15.2,0c1.6,0,3.1-0.5,2.5-1.7
		C242.8,63.5,242.4,61.8,240.9,61.7z"/>
	<path class="st1" d="M287.1,62.4c2.2,0,15.4-0.3,17,0c1.7,0.3,0.6,4.8-1.8,4.7c-2.4-0.1-13.6,0-15.2,0c-1.6,0-3.1-0.5-2.5-1.7
		C285.2,64.2,285.6,62.5,287.1,62.4z"/>
	<line class="st1" x1="210.7" y1="64.7" x2="223.5" y2="64.7"/>
	<path class="st1" d="M207.5,68.5c0,0,3.5,1.2,6.7,1.1c3.2-0.2,40.1-0.5,40.1-0.5"/>
	<line class="st1" x1="243.4" y1="64.7" x2="254" y2="64.7"/>
	<path class="st1" d="M275.3,69.6c0,0,39.7,0.3,42.3,0c2.6-0.3,4.7-1.9,4.7-1.9"/>
	<line class="st1" x1="275.5" y1="65.1" x2="284.7" y2="65.1"/>
	<path class="st1" d="M304.6,65.1c0,0,11.3,0,12.2,0c0.9,0,2-1.1,2-1.1"/>
	<path class="st1" d="M207.2,72c0.7,3.4,0.3,7.3,13.7,7.4c13.3,0.1,89.4,0.3,94.1-0.7c5.2-1.1,8.6-2.8,9-5.3"/>
	<path class="st1" d="M252,47.9c0.5,1.2,1,2.4,3.2,2.5s18.6,0.3,19.5,0c0.9-0.3,2.3-0.8,2.3-1.6"/>
	<polyline class="st1" points="253.8,51.8 255.5,52.9 274.3,52.9 275.8,51.5 	"/>
	<polyline class="st1" points="255.5,52.9 255.5,67.7 257.7,69.7 273.4,69.6 274,67.7 274.3,52.9 	"/>
	<line class="st1" x1="223.5" y1="83.9" x2="223.5" y2="102.4"/>
	<line class="st1" x1="306.6" y1="83.3" x2="306.6" y2="102.4"/>
	<path class="st1" d="M211.2,110.3c-0.6,2,0.3,3.1,4.4,3.1c4.2,0,97.8-0.8,99.9-0.9s3.8-1.1,2.9-2.2"/>
	<path class="st1" d="M208.8,120.5c-0.2-2.4,1.5-4.1,3.6-4.2s101.4-1.2,103.4-1.1c2,0.1,5.8,1.7,4.5,6.3"/>
	<path class="st1" d="M255.8,116.9c-4.7,0-9.9-0.7-11.6,2.9c-1.7,3.5-1.3,17.9-1.3,23.1s0,40.1,0,43.5c0,3.4,2.9,8.1,3.9,8.7
		c1,0.6,34.6,0.3,36.3,0s3.9-6.5,3.9-8.8s0.8-65.4,0-66.2c-0.8-0.8-0.6-3.3-10-3.2C267.4,116.9,255.8,116.9,255.8,116.9z"/>
	<path class="st1" d="M214.4,116.2c-2,1,0,6.3,1.4,8.1c1.4,1.8,5.5,7.6,5.3,10.3"/>
	<path class="st1" d="M214.3,121.5c1.7,4.1,7.6,3.2,10.4,2.9c2.9-0.3,9.6-1,10.8,2.1c1.2,3.1,7.3,2.1,7.3,2.1"/>
	<path class="st1" d="M223.6,136.7c-0.7-3.9,0.2-6.1,3.8-6.3s15.4-0.4,15.4-0.4"/>
	<path class="st1" d="M287.3,127c2.1-0.1,5.1-0.6,5.9-2.6c0.9-2.1,7.7-1.5,12.7-1.5c5,0,10.9-1.4,9.9-7.6"/>
	<path class="st1" d="M287.3,128.8c2.6-0.3,15-0.2,17.8,0c2.9,0.2,5.5,2.7,4.6,5.9c-0.9,3.2-2.6,1.1-3.7,3
		c-1.1,1.9-1.3,19.4-0.7,21.1c0.7,1.8,3.2,2.5,4.1,3.6c0.9,1.1,2.3,3.1,2.1,7.2c-0.2,4.1-0.9,32-1,34.7c-0.1,2.6,5.8,14.6,8.3,17.6
		c1,1.5,0.4,11.7,0,13.1c-0.4,1.4-35.1,33.7-36.2,34.6c-1.1,0.9-13.5,1.1-19.2,1.1c-5.6,0-17.4,0.1-18.5-0.7
		c-1.1-0.8-35.9-35.1-36.3-36.4c-0.4-1.3-1.3-8.8-0.8-10c0.6-1.2,9.9-17.2,10.8-20.8l-0.7-43.5c0,0,3.7-0.2,5.6-1.2
		c1.8-1,1.5-6.9,1.7-15.5c0.2-8.6-6.9-8.8-9.4-9.2c-0.4-0.1,0.4-1.3-0.2-2.2c-0.7-0.9-6.5-8.7-6.7-10s-0.7-6.1,0-7.4
		s8.3-11.2,10.1-11.2c1.3,0,88.7,0,90.9,0c2.2,0,10.6,10,11,11.3s0.2,5.4,0,6.5s-8.7,13.1-9.2,14.4c-0.5,1.3-1,4.1-1,4.1
		s0,0-2.3,0.9c-2.3,0.9,0,21.6,0,21.6"/>
	<path class="st1" d="M208.8,221.7c-1.2-0.6-3.5-1.3-4.4,0c-0.9,1.3-1.3,5,3.2,5"/>
	<path class="st1" d="M203.8,224.6c-1.3,0.2-2.3-2-2.3-3.6c0-1.6,0-34.3,0-36.6c2.3-5.4,3.9-10,3.9-10s0,41.7,0,43.4
		c0,1.7-0.4,3,0.9,3.3"/>
	<path class="st1" d="M248.4,270.6c-1.5,1.3,1.3,7.4,5.2,9.4c3.9,2,10,2.4,11.5,2.4s9.2-1.7,12.3-4c3-2.2,5.2-5.6,4-8.5"/>
	<path class="st1" d="M241.3,266.6c3.4,0.9,14.2,1.4,23.1,1.5c8.9,0.1,19-1,21.6-1.8"/>
	<path class="st1" d="M235.7,261.2c3.6,0.7,25.8,1.6,29.8,1.6s25.4-1.9,26.9-2.3"/>
	<path class="st1" d="M231.4,256.9c4.5,0.5,23.6,1.4,25.2,1.3c-0.7-3.6,1.2-6.9,7.7-7s9.2,2.2,8.6,6.4c3.5,0.2,21.1-0.6,24.1-1.5"/>
	<path class="st1" d="M219.5,245c0,0,1.9,0.9,2.8,1c0.9,0.1,82.3,0.2,83.3,0c1-0.2,2.8-0.7,2.8-0.7"/>
	<path class="st1" d="M220.4,158.9c0,0,1,42.4,1,44.8s-8.1,17.1-8.8,19.3c-0.7,2.2-0.7,7,0,8c0.7,1,3.7,5.9,6.2,6.5s94-0.3,95.3-0.8
		c1.3-0.4,3.2-5.8,3.2-10c0-4.2-9-19.7-8.9-21.4c0.1-1.7,1.8-40.4,0.5-43.4"/>
	<path class="st1" d="M234.3,244.5c-4.4,0-11.7-0.1-12.9-0.6c-1.2-0.4-4.4-3.9-3.3-4.6c1.1-0.8,41.4-0.3,46.6-0.4
		c5.1-0.1,43.2,0.2,45.7,0c2.4-0.2-1.1,4.4-2.4,5c-1.3,0.6-39.4,0.6-43.9,0.7C259.6,244.7,234.3,244.5,234.3,244.5z"/>
	<path class="st1" d="M250,186.5c-1.2-0.9-1.7-2.6-3-2.6c-1.3,0-2.1,2.1-1.7,4c0.5,1.8,2.1,2.5,4.6,2.5s31,0.2,32.4,0
		c1.3-0.2,2-1,2.3-2.1c0.3-1.2,0.5-4.5-1.3-4.3c-1.8,0.2-1.5,2.9-2.8,2.6C279.2,186.2,250,186.5,250,186.5z"/>
	<path class="st1" d="M230,185.3c-1,0-2.2,2.2-2.2,4.3c0,3,0.9,4.7,2.1,4.8c1.2,0.1,2.2-2.3,2.2-4.5S231.5,185.3,230,185.3z"/>
	<path class="st1" d="M299.3,186.5c1,0,2.2,2.2,2.2,4.3c0,3-0.9,4.7-2.1,4.8c-1.2,0.1-2.2-2.3-2.2-4.5S297.8,186.5,299.3,186.5z"/>
	<path class="st1" d="M247,117.5c-3.5,3.9-1.8,8-1,8.6c2.3,1.9,14.8,0.9,18.9,0.9c5.3,0,19.8-0.1,20.5-0.8c0.7-0.7,1.9-7-1.7-8.7"/>
	<path class="st1" d="M194.3,141.4c0-4.7,5.1-5.3,8.4-6.7c3.3-1.4,7.2-3.6,9.4-3c2.3,0.7,9.1,3.5,9,7c-0.1,3.5,1.4,16.1,0,17.4
		c-1.4,1.3-12.4,9-14.8,9s-9.3,1.1-11.1,0c-1.8-1.1-3.5-3.3-3.5-3.3s3.7,0.4,5.1-1.3c1.3-1.8,3.5-8.8,2.4-13
		C198.1,143.4,197.9,142.5,194.3,141.4z"/>
	<path class="st1" d="M211.5,135.3c-4.2-1.3-10.5,2.5-11.1,5.4c-0.7,2.9-1.6,10.5,3.4,12.9c5,2.4,10.7-0.1,12.4-2.8
		c1.7-2.6,2-10.9-0.7-13S211.5,135.3,211.5,135.3z"/>
	<path class="st1" d="M213.5,140.2c-1.1,0.3-9.8,3.6-10.8,4.6c-1,1.1-1.8,4,0.6,4.3s9.7-3.2,11-3.7
		C215.7,144.8,215.2,139.7,213.5,140.2z"/>
	<path class="st1" d="M211.7,140.8c1.4,0.1,2.1,4.8,0.8,5.3"/>
	<path class="st1" d="M187.2,139.5c-0.5-0.9,2.3-1.3,4.1-0.9s2.2,0.8,3.1,2.8c0.9,2,3.5,3.6,3.1,9.7c-0.4,6.1-1.2,8.5-2.4,9
		c-1.2,0.6-5.2,3.3-9.6,2.5c-4.4-0.8-11.3-1.9-11.7-3.1c-0.3-1.2,1-2.4,1-2.4s3.5,1,6.3-1.7S189.5,144,187.2,139.5z"/>
	<path class="st1" d="M187.5,138.8c-0.8-1.4-2.5-3.7-5.2-4.2c-2.6-0.4-5.7,4.5-9.2,5c-3.5,0.4-9.8,1.6-12.1,1.2
		c-2.3-0.4-1.9,4.3-1,5.9c0.9,1.5,7.9,12.4,9.7,12.9s4-0.6,4-0.6"/>
	<path class="st1" d="M160,140.8c-2.8-0.3-3.7-6.9-3-10.2s1.9-10.2,3-10.7c1.2,2.4,4.6,5.2,10.3,4.4c5.7-0.8,7.7-5.3,8.5-6
		c0.8-0.6,2.1,2.8,2.1,5.5s1.9,5.9,2,6.9c0.1,1,0.9,3.6-0.6,3.9"/>
	<path class="st1" d="M170.9,105.1c-2.1-0.2-9.5,9.9-10.1,11.8c-0.7,1.9-0.8,2.6,0,3.4c0.8,0.8,2.9,3.1,8.3,2.1c5.4-1,8.1-2.2,9.8-4
		c-1-4-4.6-4-5.4-4.9c-0.9-0.9-2.6-2.1-1.5-4.6C173,106.3,174.4,105.4,170.9,105.1z"/>
	<path class="st1" d="M160.6,117.5c-3.7,0.2-10.3-6.5-9.2-11.5c1.1-5.1,3-8.7,5.4-8.4s2.6,6.2,2.5,9.1c-0.1,3,3.9,3.6,5.9,3.6"/>
	<path class="st1" d="M172.3,108c1.7-0.6,2.2-1.5,3.3,0c1.1,1.5,5.4,4.7,4.6,5.8c-0.8,1.1-1.9,3.1-1.9,3.1"/>
	<path class="st1" d="M175.1,107.2c1.4-1.4,3.4-3.2,2.9-5.7s-2.3-3.5-1.7-5.6c0.6-2.1,3.7-3.5,7-0.4c3.2,3.1,4.2,8.1,2.4,11.7
		s-3.7,7.4-5.4,6.6"/>
	<path class="st1" d="M322.3,141.8c-3.8-1.4-8.1-3.7-10.5,0c-2.5,3.7-5.9,11.1,0,17.1c5.9,6,15.4-1.5,16-5.6
		C328.4,149.1,326.8,143.6,322.3,141.8z"/>
	<path class="st1" d="M321.2,148.3c-2.2-1.6-4.2-2.6-5.3-3.1c-1.1-0.4-4.2,2.1-2.8,4.5c1.4,2.4,5.3,5,6.9,5.3
		c1.7,0.3,3.9-2.3,3.9-3.7C323.9,149.9,322.5,149.2,321.2,148.3z"/>
	<path class="st1" d="M314.5,151.5c-0.1-1.7-0.4-4.6,2.8-5.4"/>
	<path class="st1" d="M258.4,134.7c1-5.3,12.9-6.9,13.1,1.2c0.2,6.4,0.9,9.9,0.2,14.7c-0.2,1.6-4.8,4.6-6.8,4.5
		c-2-0.2-6.6-1.8-6.8-6S257.9,137,258.4,134.7z"/>
	<path class="st1" d="M248.3,205.2c-2.6,0-4.2,1.7-4.1,2.6c0.1,1-0.6,3.5,4.1,3.5s34-0.1,35.6,0c1.5,0.1,2.4-3,2.3-3.7
		c-0.1-0.8-0.9-2.3-4.2-2.4S248.3,205.2,248.3,205.2z"/>
	<path class="st1" d="M258,144.6c0,2.3,3.5,9,7.1,8.7c3.6-0.3,6.5-4.5,6.9-7.2"/>
	<path class="st1" d="M244.4,207c-1.7,1.4-2.6,5.3,0,6.8c2.6,1.5,39.4,1.7,41,0c1.7-1.7,2.4-4.2,0.6-6.2"/>
	<polyline class="st1" points="310.7,138.8 312.7,136.7 327.9,136.7 335.2,144.6 337.5,161.2 331.3,161.2 318.4,169.8 315.9,174.3 
		311.5,169.6 	"/>
	<line class="st1" x1="318.4" y1="169.8" x2="310.7" y2="164.7"/>
	<polyline class="st1" points="331.3,161.2 331.3,145.2 326,138.5 313.7,136.7 	"/>
	<polyline class="st1" points="315.9,174.3 317.3,183.9 323.8,192.7 325.9,188.4 343.5,177.5 347.6,178 346.9,174.3 339.7,163.8 
		337.5,161.2 	"/>
	<polyline class="st1" points="317.3,183.9 318.7,174.3 333,164.7 336.8,164.7 343.5,177.5 	"/>
	<polyline class="st1" points="323.8,192.7 324,197 331.7,209.2 334,209.2 355.5,194 356.3,191.1 349.4,179 347.6,178 	"/>
	<polyline class="st1" points="334,209.2 334,213.3 341.3,221.6 344.6,221.6 346.6,217.3 359.6,209.2 362.8,210.2 364.1,205.9 
		357.5,195.4 354.8,194.5 	"/>
	<path class="st1" d="M344.6,221.6c-2.6,2.8-2.3,9.4-1.2,13c1.2,3.6,2.1,4.2,5.6,4.3c3.5,0,5-4.4,4.5-7.6c-0.5-3.1-2.8-7.3,1.2-9.1
		c4-1.8,4.5-2.3,6.8-2.1c2.3,0.2,4.6,4.6,4.1,6.9c-0.5,2.3,1.2,3.8,2.8,3.6c1.7-0.2,8.1-1.5,7.3-9.1s-7.6-11.7-12.9-11.4"/>
	<path class="st1" d="M252.7,100.9h-19.9c-1.1-1-1.8-1.6-1.8-2.4l2-10.1c0-0.8,0.7-1.5,1.5-1.5h15.9c0.8,0,1.5,0.7,1.5,1.5l2,10.1
		C253.8,99.2,253.1,99.9,252.7,100.9z"/>
	<path class="st1" d="M298.7,100.9h-19.9c-1.1-1-1.8-1.6-1.8-2.4l2-10.1c0-0.8,0.7-1.5,1.5-1.5h15.9c0.8,0,1.5,0.7,1.5,1.5l2,10.1
		C299.8,99.2,299.2,99.9,298.7,100.9z"/>
	<path class="st1" d="M264.2,100.6h-3.5c-0.2-0.4-0.3-0.7-0.3-1.1l0.3-4.5c0-0.4,0.1-0.6,0.3-0.6h2.8c0.1,0,0.3,0.3,0.3,0.6l0.3,4.5
		C264.4,99.9,264.3,100.2,264.2,100.6z"/>
	<path class="st1" d="M269.3,100.6h-3.5c-0.2-0.4-0.3-0.7-0.3-1.1l0.3-4.5c0-0.4,0.1-0.6,0.3-0.6h2.8c0.1,0,0.3,0.3,0.3,0.6l0.3,4.5
		C269.5,99.9,269.4,100.2,269.3,100.6z"/>
</g>
</svg>
