
<svg id="bp-249" viewBox="0 0 527 318">
	<style type="text/css">
		.st0{fill:#eee6;stroke:#999;stroke-miterlimit:10;}
		.st1{fill:none;stroke:#999a;stroke-miterlimit:10;}
</style>
<g>
	<path class="st0" d="M327,148.7v-11.1l-5.1-4.3v-1.1l-8.2-13.5l-2.4-1.1l-1-5.8l-2.8-1.5l0.7-1.5l-0.4-3l-7-5.1l0.6-3.9l4.2-1.5
		l0.1-0.2c0.3-0.5,1.7-2.9,1.6-4.1c0.6-4.3-6.9-16.2-13-21.1c4-2.2,16.5-9.8,17.1-10.1l0.2-0.1l1.2-4l-3.9-6.7l-2.7,0.2l-23.3,11.7
		c-3.1-1.5-10.6-2.2-13.7-2.4l5.2-3.6v-4.3l-2.8-3.6h-7.3l-10.5,7.7V57l-22.1,7.4c-1.6,0.5-2.9,1.6-3.4,2.8
		c-0.2,0.4-0.2,0.8-0.2,1.1l-1.2,0.3c-1.6-2.5-7.4-6-9.2-6.3c-1.5-0.3-5.8,0.3-8.6,1c-0.1,0-0.1,0-0.2,0.1c-0.7,0.2-1.3,0.4-1.7,0.6
		l-0.1,0.1c-8.1,8.5-5.9,21.4-4.3,25.8c-0.5,3.2,0.1,7.6,5.9,10.8c0.9,0.5,2.3,0.7,3.4,0.8l-1.8,1.3l-0.3,4.3
		c-2.3,0.5-7.8,3.3-7.8,5.2c0,1.6-0.2,16.2-0.2,16.3l0,0.2l4.8,6.1l0.1,1.3c-2.7,1.4-5.9,8.6-6.1,11.3c-0.2,2.8-0.8,27.4-0.8,28.5
		c0.8,5.9,7.3,11.8,8.9,13.2l-1.4,2.1l1.5,1.8l-2.1,1.2l-3.6,5.5c-1.4,3.4,2.2,35.4,2.8,36.6c0.6,1.1,2,2.4,2.5,2.8l1.1,4.1
		l-1.2,1.5l0.2,0.4c1.2,3.2,5.7,11.6,22,19.8c8.5,4.3,17.4,5.7,25.7,5.7c12.8,0,24.1-3.5,29.9-5.7c12.9-4.9,20.6-14.9,23.5-18.7
		c0.4-0.5,0.6-0.8,0.8-1.1l0.3-0.3l-1.1-1.5l0.6-4.1l3.9-1.5l0.1-0.1c3.7-3,3.4-36.1,3.3-39.9l0-0.1l-3.4-5.1l0.3-2.6l7.5-8v-3.8
		l5.1-1.7v-13l-5.1-2.8v-9.6L327,148.7z"/>
</g>
<g>
	<path class="st1" d="M228.6,68.6c-0.7-1.3,1.1-3.1,3.1-3.7c2-0.7,22.5-7.5,22.5-7.5v-2.2l10.1-7.5h6.9l2.6,3.3v3.8l-6.2,4.3
		c0,0,11.5,0.6,15.2,2.6l23.3-11.8l2.4-0.2l3.6,6.2l-1.1,3.6c0,0-14.8,9-17.7,10.5c6.2,4.5,14.1,17.1,13.5,21.2
		c0.2,1.1-1.5,3.8-1.5,3.8l-4.3,1.5l-0.6,4.5l7,5.1l0.3,2.6l-0.8,1.8l3,1.7l1,5.8l2.5,1.2l8.1,13.2v49.5l-7.4,7.9l-0.3,3l3.5,5.1
		c0,0,0.5,36.5-3.1,39.5l-4.1,1.7l-0.7,4.6l1,1.3c-1.8,2.1-9.7,14.2-24.1,19.7c-14.4,5.4-36.5,9.4-55.2,0
		c-18.7-9.4-21.5-18.8-21.8-19.7l1.2-1.5l-1.2-4.5c0,0-1.8-1.7-2.5-2.8c-0.7-1.2-4.1-33-2.8-36.2l3.5-5.3l2.5-1.5l-1.7-2l1.5-2.1
		c0,0-8.3-6.8-9.1-13.2c0,0,0.7-25.6,0.8-28.4c0.2-2.8,3.6-10.2,6.1-11.1l-0.2-1.8l-4.8-6.1c0,0,0.2-14.7,0.2-16.3s5.8-4.6,7.8-4.8
		l0.3-4.5l2.8-2c0,0-3.1,0-4.6-0.8c-1.5-0.8-6.8-3.8-5.6-10.4c-1.7-4.5-3.8-17.2,4.1-25.4c1.8-1,8.3-2,10.1-1.7
		c1.8,0.3,7.9,4.1,9.1,6.4L228.6,68.6z"/>
	<path class="st1" d="M282.8,61.7c3.4,1.4,8.6,5.1,10.5,8.3"/>
	<path class="st1" d="M306.3,92.9h-63.7c0,0-4.1,3.9-5.8,3.9c-1.7,0-6.1-3.3-4-10.4c2.1-7.1,12.2-13.5,12.2-13.5l-0.3-5l-2-2.1
		h-12.9"/>
	<path class="st1" d="M262.9,68.3c-2.2,0-3.5,2.1-3.5,4c0,1.8,1.5,3.1,3.5,3c2-0.2,3.6-2.3,3.6-3.5
		C266.6,70.6,265.7,68.3,262.9,68.3z"/>
	<path class="st1" d="M300.9,96.5c0,0-56.8,0-60,0c0,0-2.6,4.2-8.3,4.2c-5.6,0-7.8-7.3-6.9-9.4"/>
	<path class="st1" d="M208.9,100.2c3.4,0.8,10.2-2.3,13.9-6.4c3.6-4.1,10.6-10.6,10.4-13.5c-0.2-3-5-9.2-6.6-11.1"/>
	<path class="st1" d="M203.3,89.8c1.5,2.5,6.1,7.1,10.6,1.5s4.6-15.6,1.8-21.3c-2.8-5.7-5.3-6.8-6.8-6.2"/>
	<path class="st1" d="M216.9,84.7c0.5-3.1,5.2-4.5,6.2-1.7c1,2.8,2,8.6-0.3,10.7"/>
	<path class="st1" d="M217.3,75.3c0.2-4.1,7.9-8,12.6-1.9"/>
	<path class="st1" d="M213.4,62.9c2.3-0.2,6.9,4.3,7.2,7.3"/>
	<polyline class="st1" points="300.3,101 245.7,100.3 245.7,98.2 239.4,98.2 	"/>
	<polyline class="st1" points="307.3,106.1 263,106.8 251.7,102.7 210.7,103 	"/>
	<polyline class="st1" points="210.4,107.4 245.9,106.8 245.9,104.6 251.4,104.6 261.9,110.6 306.8,110.6 	"/>
	<polyline class="st1" points="321.4,150.9 326.5,148.4 326.5,137.8 321.4,133.5 	"/>
	<polyline class="st1" points="321.4,178 326.5,176.3 326.5,163.9 321.4,161.1 	"/>
	<polygon class="st1" points="301.7,136.2 303.9,133.5 311.6,133.5 314.6,140 313.5,148.7 308.2,150.9 302.9,150.9 300.3,147.1 	"/>
	<polyline class="st1" points="300.9,144.6 304.9,146.9 310.2,145.8 311.3,137.8 308.3,135.5 305.2,135.5 301.7,136.2 	"/>
	<polygon class="st1" points="274.8,137.9 277.7,134.2 286.4,134.2 290.4,139.7 289.7,147.7 284.9,150.9 277.6,150.9 274.8,146.9 	
		"/>
	<polyline class="st1" points="274.8,140.3 276.6,146.9 278.6,147.9 286.8,145.5 286.8,138.4 284.6,136.3 276.2,136.3 	"/>
	<path class="st1" d="M298.4,163.8c0,0,4.7-4.9,5.1-4.8c0.3,0.1,3.4,0,3.4,0l6.2,3.4v10.3l-3.2,4.4h-7.2l-4.3-4.8V163.8z"/>
	<polyline class="st1" points="300.3,161.9 300.3,171.6 305.7,173.7 310.5,173.2 311.7,163.8 302.5,159.8 	"/>
	<polygon class="st1" points="273.7,166.8 275.3,159.8 278.2,158 285.8,158 290.4,164.3 290.4,171.2 286.8,175.7 278.4,176.4 
		274.8,172.1 	"/>
	<polygon class="st1" points="276.6,161.7 276.6,171.6 282.6,173 288,169.5 288,165 282.6,161.1 	"/>
	<polyline class="st1" points="320.6,131 316.2,129.5 274.8,130.3 261.8,148.5 261.8,175.9 271.2,186.4 314.6,186.4 321.4,178.9 	
		"/>
	<line class="st1" x1="313.9" y1="189.9" x2="209.6" y2="189.2"/>
	<line class="st1" x1="209.7" y1="193.3" x2="313.9" y2="193.3"/>
	<polyline class="st1" points="216.1,189.2 209.6,183.6 253.2,183.1 259,177.1 259,152.1 250.9,144.2 207.3,144.2 201.7,145.7 	"/>
	<polygon class="st1" points="217.6,132.9 214.3,135.5 211.5,135.5 207.3,129.5 208.3,111.9 213,108.3 216.2,107.6 218.9,107.6 
		211.3,112.8 210.7,128.8 214.1,132.6 216.9,130.8 	"/>
	<polyline class="st1" points="226.3,107.2 218.9,112 218.9,129.9 224.2,134.2 227.2,134.2 229.9,130.6 228.5,127.8 224.9,129.5 
		222.2,126.9 221.9,112.9 230.4,107.1 	"/>
	<polyline class="st1" points="238.3,106.9 233.2,111.4 233.2,130.2 237.4,134.2 241.6,135 249,132.3 249.7,127.8 245.5,126.5 
		241.4,128.7 237.4,126.1 238,113 242.1,110.6 246.7,111.5 247.3,113.1 247.9,123 250.3,122.9 250.3,109.9 245.9,106.8 	"/>
	<polyline class="st1" points="210.7,134.5 210.4,138.5 213.1,140 250.3,138.9 267.6,118.1 270.4,116.9 310.6,116.9 	"/>
	<polyline class="st1" points="313.3,119.2 269.4,119.8 252,142.1 206.8,142.1 204.8,139.1 	"/>
	<path class="st1" d="M201.7,164.7c0,7.2,4,11.7,7.9,11.7c0.8,0,33.4,0,35.3,0c2.4-1.4,7.6-4.2,7.3-11.4s-5-9.7-7.3-11
		c0,0-32.3,0-34,0S201.7,156.2,201.7,164.7z"/>
	<path class="st1" d="M245.5,156c-0.6,0-31.5,0-33.1,0c-1.9,0-7.3,3.3-7.1,9.1s4.8,9.3,7.3,9.3c0,0,29.8,0,31.7,0s6.5-4.8,6.5-8.6
		C250.8,162,249,158.1,245.5,156z"/>
	<path class="st1" d="M214.8,157.9c-3.6-0.3-7.5,3.2-7.5,7.2c0,3.5,2.8,7.2,6.7,7.2c4,0,6.4-3.6,6.4-7.2
		C220.4,161.5,218.3,158.2,214.8,157.9z"/>
	<path class="st1" d="M239.3,157.9c-3.6-0.3-7.5,3.2-7.5,7.2c0,3.5,2.8,7.2,6.7,7.2c4,0,6.4-3.6,6.4-7.2
		C244.9,161.5,242.8,158.2,239.3,157.9z"/>
	<path class="st1" d="M214.8,157.9c2.4,0.1,2.4,0.1,3.5,0.1c2.2-0.1,5.3,2.8,5,7.3c-0.2,4.5-3,7-5.1,7c-1.3,0-4.2,0-4.2,0"/>
	<path class="st1" d="M239.3,157.9c2.6-0.1,2.7,0.1,3.7,0.1c2.4,0,4.9,3.7,4.9,7.2c0,3.3-2.4,7.1-5,7.1c-1.3,0-4.3,0-4.3,0"/>
	<line class="st1" x1="203.8" y1="200.1" x2="317.1" y2="199.2"/>
	<line class="st1" x1="206" y1="232.5" x2="315.6" y2="232.5"/>
	<line class="st1" x1="206.6" y1="236.3" x2="314.7" y2="236.3"/>
	<line class="st1" x1="209.1" y1="239.1" x2="309.8" y2="239.1"/>
	<line class="st1" x1="210.2" y1="243.5" x2="309.2" y2="243.7"/>
	<line class="st1" x1="209.1" y1="245" x2="310.2" y2="245"/>
</g>
</svg>
