
<svg id="bp-296" viewBox="0 0 527 318">
	<style type="text/css">
		.st0{fill:#eee6;stroke:#999;stroke-miterlimit:10;}
		.st1{fill:none;stroke:#999a;stroke-miterlimit:10;}
</style>
<g>
	<path class="st0" d="M334.1,110.9c-1.2-2.5-3-4.2-5.2-5c0.1-1.2,0.3-4.8,0.2-6.4c-0.2-2.2-1.6-7.2-9.5-7.2l-0.1,0
		c-7.8,2.1-10.4,11.1-9.8,16.8l0,0.1l0.1,0.1c2.1,2.6,8.3,3.2,11.1,2.9c2.4-0.2,4.3-1.5,4.9-1.9c1.4,0.3,2.4,0.9,3,2
		c1.6,2.6,1.2,7.9-1.2,16.6c-0.9,3-2.9,5.4-6.2,7.2c-8.1,4.3-20.8,3-22.5,2.5c-0.9-0.6-2.4-1.5-6.4-1.5c-0.2,0-0.5,0-0.7,0v-23.4
		c0.8,0.3,1.8,0.5,2.9,0.5c1.2,0,2.6-0.2,3.7-0.8c1.3-0.6,2.9-2,3-4.6c0.1-1.9-0.5-3.4-1.7-4.4c-1.9-1.5-5-1.7-7.3-1.2l-1.8-1.6
		l-5.5,1.7c-0.6-4-6.6-10.4-7.4-11c-0.6-0.4-1.6-1.1-2-1.5l0.4-1.5l2.3-2.4v-9l-3.1-3.6h-8.3l-4.7,3.2v9.6l2.5,2v1.6
		c-0.4,0.3-1.3,0.9-2.2,1.6c-1,0.9-6.9,7-7.4,9.7c-0.3,1.7-0.2,3.3-0.1,4.1l-10.5,0c-0.3-0.1-1.2-0.2-2.2,0.7l-0.2,0.1l0,0.8h-13.2
		l-1.8,1.2l1.1,21.9l1.7,2.8c-2.3,0.2-7,0.8-8.6,1.6c-1.1-0.3-2.3-0.4-3.4-0.4c-3.7,0.1-5.9,2-7.2,4.3c-3.2-0.3-13.8-4.8-14.5-16.6
		c-0.7-11.2,9.1-19,10.6-20.2c0.3,0.1,0.5,0.1,0.9,0.1c1.9,0,4.6-1.2,6.2-2.4c0.1,0.1,0.1,0.1,0.2,0.1c0.3,0.2,1.4,0.3,2.8,0.3
		c3.6,0,9.3-0.6,10.6-1.8l0.1-0.2c1.3-3,0.3-8.4-1.3-11.9c-1.6-3.5-2.9-4.7-5.1-6.3c-0.8-0.6-4-1.6-5.1-0.4
		c-0.1,0.1-0.2,0.2-0.4,0.4c-1.7,1.5-6.5,5.6-5.8,11.8c-1,0-2,0.4-2.9,1.2c-1.3,1.1-2.2,2.7-2.3,4.2c-1.6,1.2-13.3,10-13.6,24.7
		c-0.3,11,5.3,22.6,18.4,24.3c0,3.3,0.7,7.9,5.1,9c1.1,2.3,10.3,5.4,11.4,5.8c3.6,1.2,12.8,4,20.3,3.7c7-0.3,16.3-1.8,24.5-4.1
		l-5.8,4.7l-3.1,2.1v5.4l1.5,1.2l-1.3,0.5l9.5,13.2c-7.9-0.6-15.9-1-18.5-1c-4.4,0-7.4,1.9-8.5,3.7c-0.4,0.7-0.6,1.4-0.4,2
		c-1.8-0.1-3.9-0.2-5.8,0.5c-0.4-0.4-1-0.7-1.8-0.9c-1.4-0.3-3.7-0.2-5.5,1.1c-2.1,1.4-5.3,6-6.6,9.7c-2-2.7-7-5.9-10-6
		c-2.6-0.1-10.9,0.9-14.6,6.6c-3.3,5-5.7,9.7-4,20.1c1.7,10.8,7.9,15.6,13.3,15.6c5.5,0,14-2.3,15.8-8.6c0.8,0.6,1.6,1,2.2,1
		c2,0.3,18.2,0.5,19.8,0.5c0.2,0,0.5,0,0.8,0c0.6,0,1.3,0.1,2,0.1c2.7,0,6.5-0.4,8.2-3.1c0.3,2.1,0.8,3.8,1.4,4.8
		c2.3,4.4,5,9.3,13.4,9.3c0.2,0,0.4,0,0.7,0c3.1-0.1,8.9-0.9,13.3-5.6c2.3-2.4,3.7-5.4,4.5-9c0.3,0.3,0.6,0.5,1,0.7
		c0.4,0.2,0.8,0.3,1.5,0.3c1.1,0,2.5-0.4,4.5-1.5c2.7-1.6,4.2-2.5,4.8-3.6c2,5.7,5.9,8.6,11.8,8.6c0,0,0,0,0,0
		c1.1,0,2.2-0.3,3.4-0.9c0.4-0.2,0.7-0.3,0.7-0.3l0,0c4.1-2.5,8.2-8.6,8.5-18.8c0.3-9.8-3.1-14.7-5.1-16.8c-0.6-0.6-1.2-1.1-1.9-1.6
		l0,0c0,0-0.1,0-0.1,0c-1.3-0.8-2.7-1.3-3.9-1.3c0,0,0,0,0,0c-3.7,0-6.8,1.4-9.3,4.1c0.1-0.8,0.2-1.7,0-2.7
		c-0.6-4.2-2.8-6.9-5.9-7.4L289,174.1l2.2-1.9l0.6-4.6l-1.1-1.4l8.5-8.3l0.3-4.3l-1.6-3.5c1.7,0,2.8-1,3.4-1.8
		c0.6,0.1,1.6,0.2,2.9,0.2c7.3,0,23.7-2.1,28.3-12.9C336.4,126.7,337,117,334.1,110.9z"/>
</g>
<g>
	<path class="st1" d="M224.3,206c0-3.7,4.5-10.4,7-12.2c2.5-1.7,6.2-1.2,7,0c2.5-1.1,5.8-0.5,7.8-0.5c2,0,6.2-0.2,6.6,0.9
		c1.2-0.5,3.5,0,3.6,1.4c1.4-0.6,7.6-3.1,13.3,6.3c-4.4,1.2-7.8,5.8-9.7,9.8c-1.9,4.2-2.9,9.3-2,16.1c-1.5,5.1-9.4,4.1-11.2,4.1
		s-17.8-0.2-19.7-0.5c-2-0.2-6.3-4.6-7.3-8.3s-0.9-11.2,0-12.5C220.6,209.1,223,206.5,224.3,206z"/>
	<path class="st1" d="M238.2,193.9c0,0-2.4,0.8-3,1.5c-0.6,0.7-2.9,6.3-3,7c-0.1,0.6-0.2,2.5,0,3.4c1.2,0,2.9,0,2.9,0v-2.1
		c0,0,1.8-5.8,2.4-7s3-3.5,5.2-3.4"/>
	<path class="st1" d="M252.6,194.2c-2.7,1.1-5.6,5.2-6,7.4c-0.4,2.2-0.5,4.5,0,5.1c0.5,0.6,3.8,0.7,4.7,0c0.9-0.7,0.2-3.5,0.4-5.1
		c0.1-1.6,2.5-5.4,4.5-6.1"/>
	<path class="st1" d="M260.3,210.9c-1.9-0.7-5.2,0.7-5.8,3.8s-0.7,9.2,0,10.3c0.7,1.1,2,3.1,3.5,2.8"/>
	<path class="st1" d="M255.1,225.9c-1.1,1.8-2.7,2.6-8.8,2.6s-16.4-0.2-19.4-0.7s-8.3-3.8-7.9-12.2"/>
	<path class="st1" d="M251.3,228.2c-2.2-1.2-2.5-5.1-2.4-9.7c0.1-4.6,3.2-10.5,6.7-11.2c1.5,2.1,4.7,2.8,4.7,2.8"/>
	<path class="st1" d="M219.7,210.5c-1.1-1-4.8,0-5.7,3c-0.9,3-1.9,10.1,1,12.2c2.9,2.1,4,0.4,5.1-1.5"/>
	<path class="st1" d="M220.4,209.6c-0.6-1.7-3.6-4.2-6-2.3c-2.4,1.8-5.7,9.3-3.6,16s7,7.9,10.1,2.4"/>
	<path class="st1" d="M224.6,204.4c-1.2-2.7-6.9-6.6-10.2-6.7c-3.2-0.1-10.8,1.2-14.2,6.3s-5.6,9.6-4,19.7
		c1.6,10.3,7.6,15.1,12.8,15.1c5.2,0,14.2-2.3,15.5-9"/>
	<path class="st1" d="M216.6,198.2c-3.2-0.5-8.6,0.8-12.9,5.1c-5.5,5.5-5.3,18.7-1.9,25.8c3.5,7.2,8.9,9.8,10.5,9.5"/>
	<path class="st1" d="M227.8,215.6c-0.2,0.7-0.1,4.2,1,5.2s10.1,0.9,11.7,0c1.6-0.9,1.2-4,1-4.6s-4-1.6-6.7-1.6
		S228,214.9,227.8,215.6z"/>
	<path class="st1" d="M229.3,215c-0.5,1.4,0.4,4.7,0.9,5c0.5,0.2,9.8,0.4,11.1,0"/>
	<path class="st1" d="M291,222.1c-0.4-11.4-5.1-19.7-12.9-20.5s-11.6,0.3-16,6.2c-5.7,7.7-4.7,22.1-2.5,26.2
		c2.5,4.7,5.2,9.3,13.7,9.1C281.7,242.8,291.6,237.5,291,222.1z"/>
	<path class="st1" d="M279.3,201.8c-3.7-0.4-9.9,2-13.4,7.1c-2.9,4.3-4.9,18.5-2.2,24c2.7,5.5,7.4,11.1,16.2,8.9"/>
	<path class="st1" d="M284.2,211.2c-2.7-2.6-6-1.9-8.3,1.7c-2.3,3.5-3.6,12.4-1.2,16.6c2.4,4.2,5.1,5.1,7,4.5
		c1.9-0.6,6.6-4.2,5.7-12.5C286.4,213.2,284.2,211.2,284.2,211.2z"/>
	<path class="st1" d="M276,231.6c3.5,1.5,7.9-1.6,8.9-5.4c0.9-3.3,0.1-14.2-4.5-16.5"/>
	<path class="st1" d="M244.8,193.2c-1.1-2.1,2.4-5.7,8.3-5.7c6,0,34,1.9,36.5,3.5s3.3,9.1,1.4,10.3c-1.9,1.2-5.4,2.8-6.6,2.9"/>
	<path class="st1" d="M288.3,202.8c-2.9-0.3-8.9-1.4-8-6.9c0.9-5.5,4.8-6.2,7-5.6"/>
	<path class="st1" d="M287.6,208.4c0,0,8.6,5.2,9.6,5.5c1,0.2,2.9,0.1,3.4,0c0.5-0.1,1.3-2.5,1.4-2.7"/>
	<path class="st1" d="M290.1,215c2.1,0.9,7.1,3.2,8.2,3.1c1.1-0.1,2.9-1.5,3.4-2.7"/>
	<path class="st1" d="M316.1,194.1c4,0,10.9,5.3,10.6,19.2c-0.4,13.8-7.8,19.6-12.1,19.6c-5.5,0-11.2-2.7-12.5-13.5
		C300.7,208.4,304.4,194.1,316.1,194.1z"/>
	<path class="st1" d="M319.9,195.4c-3.5-2-9.1-1.3-13,6.7c-2.8,5.8-3.9,19.3,1.3,26.1c5.2,6.8,10.1,3.4,10.1,3.4"/>
	<path class="st1" d="M323,205.2c-0.5-1.5-2.2-4.9-4-3.4c-1.7,1.5-5,5-4.4,13.2c0.6,8.2,3.2,9.1,4.2,9.1s5.1-3.8,5.1-10.7
		S323.6,206.7,323,205.2z"/>
	<path class="st1" d="M318.7,202.1c1.4-0.6,3.9,3.4,3.6,9.9c-0.3,6.5-3.8,12-6.1,10"/>
	<polyline class="st1" points="292.1,194.1 293.9,193.2 303.2,200.4 304.2,202.5 303.3,204.9 299.5,201.8 297.1,202.8 291.4,202.6 
		291,201.4 	"/>
	<polyline class="st1" points="289.2,202.4 293,205.7 292.1,211 294.8,212.4 295.9,206.9 298.8,206.1 297.1,202.8 	"/>
	<polyline class="st1" points="302,204.3 300.5,206.8 297.6,207.7 296.6,213.4 	"/>
	<path class="st1" d="M290.7,227.4c0.4,1.8,2.6,3,6.9,0.5c4.2-2.5,5-3.2,5-5"/>
	<path class="st1" d="M299.3,196.5c-2-3.3-2.2-8.9,1-8.6c2.8,0.2,5.3,2.2,6,7.1c0.4,2.7-0.4,4.9-2.1,4.8
		C302.5,199.8,299.3,196.5,299.3,196.5z"/>
	<polyline class="st1" points="272.7,188.7 262.9,175.1 264.4,174.5 268.6,174.5 278.6,189.2 	"/>
	<polyline class="st1" points="264.4,174.5 262.5,173 262.5,168.1 265.4,166.2 269.6,166.8 270.2,170.4 271.2,172.7 279.1,173 
		279.1,170.4 280.4,167.1 293.2,152 	"/>
	<line class="st1" x1="269.6" y1="166.8" x2="279.9" y2="156.9"/>
	<line class="st1" x1="265.4" y1="166.2" x2="273.4" y2="159.7"/>
	<polyline class="st1" points="271.5,178.8 278.6,179.2 280.6,177.7 279.1,173 	"/>
	<line class="st1" x1="293.4" y1="193.2" x2="280.6" y2="177.7"/>
	<path class="st1" d="M290.1,166.2c-3.3-1.5-6.3,1.2-6.5,4.3c-0.2,3-0.2,6.1,1.4,6.3c1.6,0.2,2.9-0.9,3.4-2.8"/>
	<path class="st1" d="M216.6,140.6c-2.2-0.1-4.7,1.9-4.6,4.3s0.5,5.6,3.5,5.5c3-0.1,5.1-1.1,5.4-4.9S219.2,140.7,216.6,140.6z"/>
	<path class="st1" d="M210.1,144c-0.1,2-1.1,10.1,4.9,11.3c6,1.1,13.1-0.8,12.7-8.4c-0.4-7.6-3.7-11.3-9.6-11.2
		C212.3,135.8,210.3,140.9,210.1,144z"/>
	<path class="st1" d="M254,140c-3.2-0.4-5.4,2.4-5.8,4.7c-0.4,2.4-0.5,5.8,3.1,6.1c3.6,0.2,7.7-3,7.5-5.2
		C258.7,143.4,258.8,140.6,254,140z"/>
	<path class="st1" d="M257.2,136.9c-3.8-0.2-11.3,2.1-10.8,8.5c0.5,6.4,2.8,8.8,7.1,9.1c4.3,0.4,14-2.3,13.9-8.8
		S262.7,137.1,257.2,136.9z"/>
	<path class="st1" d="M243.7,147.5c-1.1,0.6-11,0.2-12.8,0c-1.7-0.2-3-4.3-2.4-5.3c0.6-1,5.2-1.5,7.5-1.5c2.3,0,6.4,0.5,7.7,1.1
		S244.9,146.7,243.7,147.5z"/>
	<path class="st1" d="M231.6,141c-1.3,1.7-0.7,3.9,0,4.6c0.7,0.7,11.2,1,12.7,0"/>
	<path class="st1" d="M215,155.2c0.1,2.3,19.2,10,31.3,9.5c12.1-0.5,29.9-4.6,38-9.5c8.1-4.8,12.8-5.7,12.8-5.7l1.9,4.2l-0.2,4
		l-8.7,8.5l1.2,1.6l-0.6,4.2l-2.4,2.1l12.3,13.9"/>
	<path class="st1" d="M292.6,150.8c-3.8-0.5-9.5-3.9-7.4-8.1c2.2-4.2,3.5-5,7.4-5s5.2,0.9,6.1,1.5c-2.1,0.7-5,1.3-4.8,4.4
		s0.4,5.4,3.1,5.9c2.7,0.5,4-1.8,4-1.8s-2.8-1.2-3.2-3.5s-0.8-4.8,0.9-5"/>
	<path class="st1" d="M298.8,139.3c2.2,0.7,25.8,2.9,29.4-10s2.8-18.3-2.4-19.3c0,0-2,1.7-4.8,2c-2.8,0.3-8.8-0.3-10.7-2.7
		c-0.6-5.2,1.7-14.2,9.4-16.3c7.7,0,8.8,4.8,9,6.7c0.2,1.9-0.2,6.7-0.2,6.7c7.6,2.1,9.2,16.1,3.6,29c-5.6,12.9-28.8,13-31,12.4"/>
	<path class="st1" d="M319.8,93.9c-0.9,0.1-8.4,3.1-8.6,14.4c3.7,1.7,6.7,1.2,8.6,0c1.9-1.2,5.5-7.1,4.6-10.4
		C323.4,94.6,319.8,93.9,319.8,93.9z"/>
	<path class="st1" d="M211.2,140c-2.9,0-14.5-4.6-15.3-17.1c-0.7-12.5,11-20.8,11-20.8l-1.8-4.1c0,0-13.2,8.8-13.6,24.4
		s9.4,22.9,18.4,23.8"/>
	<path class="st1" d="M210.6,92.9c-3-0.4-5.3,3-5.4,5.1c-0.1,2.1,0.2,3.3,1.8,4.1c1.6,0.8,6.2-1.2,7.5-2.8"/>
	<path class="st1" d="M221,81c-0.8-0.6-3.7-1.3-4.5-0.5c-0.8,0.8-8,5.8-5.7,13.6c0.5,2,2.8,5.5,3.7,6c0.9,0.5,11.2,0.1,12.8-1.5
		c1.1-2.7,0.4-7.9-1.3-11.5S223.1,82.5,221,81z"/>
	<path class="st1" d="M220.5,82.6c-1.9-1.2-3.3-1.3-2.8,2.2c0.5,3.5,5,12.3,7,12.8c2,0.5,2.4-3.8,0.7-8.4S220.5,82.6,220.5,82.6z"/>
	<path class="st1" d="M221.6,136.1c1.4-1.1,9.7-1.8,9.7-1.8"/>
	<path class="st1" d="M223.7,136.9c4.4,1.5,26,0.9,29.7,0.5"/>
	<path class="st1" d="M260.4,137.3c3.9-0.1,17.3,0,19.9-0.4c2.6-0.4,9.4-0.7,9.8,1"/>
	<path class="st1" d="M242.8,107.4c1-0.8,1.8-0.6,1.8-0.6l17.3,0l1.4,1.2l-0.9,24.7l-2.1,3l-15.1-0.1l-2.8-3.5L242.8,107.4z"/>
	<polyline class="st1" points="242.5,108.5 229.2,108.5 227.7,109.5 228.8,131 231.7,135.7 244.6,135.7 	"/>
	<path class="st1" d="M261.1,134.5l0.4,1.1h19.9l4.1-4.7c0,0-0.8-23.3-0.8-26.9c0-3.6-6.4-10.7-7.2-11.2c-0.8-0.5-2.3-1.7-2.3-1.7
		h-9.9c0,0-1.2,0.8-2.4,1.8c-1.1,0.9-6.8,7-7.3,9.4s0,4.5,0,4.5"/>
	<polyline class="st1" points="284.8,106 270.5,106 270.5,127.1 271.8,128.1 285.5,128.1 	"/>
	<polyline class="st1" points="291.4,137.4 291.4,113 287.8,110.4 288.3,106.4 292.3,103.9 290.6,102.3 284.8,104.1 	"/>
	<path class="st1" d="M292.3,103.9c3.1-0.7,9-0.5,8.7,5c-0.2,5.5-7.5,5.6-9.7,4.1"/>
	<polyline class="st1" points="265.4,91.2 265.4,89.1 262.9,87.1 262.9,77.9 267.3,75 275.2,75 278,78.2 278,86.9 275.8,89.2 
		275.2,91.2 	"/>
	<line class="st1" x1="265.4" y1="89.1" x2="275.2" y2="89.1"/>
</g>
</svg>
