
<svg id="bp-329" viewBox="0 0 527 318">
<style type="text/css">
	.st0{fill:#eee6;stroke:#999;stroke-miterlimit:10;}
	.st1{fill:none;stroke:#999a;stroke-miterlimit:10;}
</style>
<g>
	<path class="st0" d="M342.7,177.9c0.2-1.6-0.1-4.8-0.3-6c1.7-0.8,2.8-1.7,2.8-2.8c0-5.1-5-12.6-15.7-12.9c-0.2-1.4-1.6-3.5-3.6-5.7
		c-0.4-0.4-1-1.1-1.8-1.8l-0.3-1.5l6.5-8.1h3.4V139l9.1-8.5v-4.3l-5.5-5l-3.5,0.7l-8.2,8.6l-0.4-0.3v4.9l-8.9,8.3
		c-4.5-2.5-10.6-4.7-18.1-5c-3.9-0.2-7.8,0.3-11.4,1.1c-1.1-2.8-6.5-6.4-13.6-6.3c-5.1,0.1-10.6,3.3-13.6,6.4
		c-0.8,0.8-1.7,2-1.7,2.8c0,1,0.7,1.8,2.1,2.4c-0.4,0.2-0.6,0.4-0.6,0.6c-0.1,0.2-0.1,0.4,0,0.6c-2.4-0.2-5.9-0.1-9.2,1.1
		c-1.1,0.4-2.1,0.7-2.9,1c-1.2,0.4-2.1,0.6-2.6,1.1c-0.1-0.2-0.2-0.3-0.3-0.4c-0.8-0.8-1.3-0.5-1.9-0.3c-0.2,0.1-0.3,0.1-0.6,0.2
		c0,0-0.1,0.1-0.2,0.1c0.1-0.5,0.1-0.9-0.2-1.3c-0.9-1.4-8.8-8.2-10.6-8.2c0,0,0,0,0,0c0.2-0.4,0.4-0.9,0.3-1.3
		c-0.2-1-2-3.7-3.6-4.1l1.5-1.6v-4.4c2.7-1,15.8-6.2,16.9-6.8c1.4-0.9,3.5-6.4,1.3-11.5c-2.2-5.2-7.6-6.4-9.3-6.4
		c-0.2,0-0.8,0.2-1.5,0.6c-0.1-0.1-0.2-0.3-0.4-0.4c-1.2-0.7-3.5-0.5-4.8-0.1c-0.7,0.2-3,1.8-6.9,4.5c-4.2,2.9-9.4,6.5-10.9,7
		c-3.7,1.1-10.7,4-16.9,6.5c-5.2,2.1-10,4-10.9,4.2c-1,0.2-1.9,0.8-2.5,1.7c-0.9,1.3-1.8,3.9-0.9,8.6c1.3,6.9,6.8,12,10.8,12
		c0,0,0,0,0,0c2.8,0,8.7-4.1,14.5-8.2c1.3-0.9,2.3-1.7,2.9-2.1l3.2,2.8l3.7,0.2l2.3,1.9l0.7-1.1c0.4,0.9,1,1.9,1.5,2.5
		c0.5,0.7,1.3,1.5,2.1,1.8c-0.2,1.6,5,9,7.7,11.5c0.9,0.8,1.5,1.2,2.1,1.2c0.1,0,0.1,0,0.2,0c0.1,0,0.3-0.1,0.4-0.1
		c-0.1,0.2-0.2,0.4-0.2,0.5c-0.1,1.2,2.1,3.7,3.8,4.3c0.8,0.3,1.8,0.4,2.9,0.4c1.4,0,2.7-0.2,3.5-0.4c1.5-0.4,2.5-1.8,2.6-3
		c0-0.2,0-0.4,0-0.7c0.1,0,0.1,0.1,0.2,0.1c0.4,0.3,1.4,0.4,2.7,0.4c2.6,0,6.3-0.5,7.9-0.8c-0.3,1.2-0.2,2.2,0.1,2.9l-1.4-0.6
		l-6.4,3.6l-0.8,1.3c-0.7-0.7-2.1-0.9-3.8,0c-2.9,1.5-8.2,7-7.6,11.7c0.5,4.1,1.9,8.9,7.8,9.7c0.1,0,0.1,0,0.2,0c0,0,0,0,0,0
		l0.8,2.3l4.9,3.7h5.4c2.4,1.8,5.5,2.4,7.4,2.6c0.4,0,0.8,0.1,1.2,0.1c3.1,0,5.8-1.3,7.3-2.5c0.9-0.7,1.4-1.5,1.6-2.3l5.4-0.8
		l0.5,2.2l4,2.7c-1.4,0.5-2.6,1-3.2,1.3c-0.6,0.3-1.1,0.7-1.2,1.2c0,0.2-0.1,0.3-0.1,0.5c-1.1-0.7-2.3-1.1-3.2-1
		c-0.7,0.1-1.3,0.4-1.7,1c-0.1,0.1-0.1,0.2-0.2,0.3l0-0.4l-3.3-0.9l-4-0.5l-1.6,1l-3-1l-11.1,2.6l-5.6,4.9l0.8,4.9l2.1,1.3l1.8-0.5
		l0.7-0.9l-0.3,2.4l2.5,4.1h10.3l4.8-3.2l3,0.4l6.1-4.6l-0.2-0.3c0.2,0.1,0.4,0.2,0.6,0.3c0.2,0,0.3,0,0.5,0c1.1,0,2.5-0.4,3.1-1.5
		c0.1-0.2,0.2-0.3,0.2-0.4c0.3,0.3,0.6,0.5,1.2,0.6c0.1,0,0.3,0,0.6,0c3.2,0,14.1-2.3,15-2.6c1.1-0.4,1.3-2.1,1-4l0.1,0.4l2.5,1.2
		l2-2c0.6,0.3,1.9,0.9,3.1,0.9c0.1,0,0.2,0,0.4,0c0.9-0.1,1.8-1,3.2-2.4c1.3-1.3,3.1-3,5.5-4.7c1.2-0.8,2.1-1.6,2.7-2.4
		c1.2,0.9,4.7,1.4,9.9,1.4c10,0,14.4-5.5,15.4-8.8c0.6-1.8,0.4-3.6-0.3-4.8C343.7,178.5,343.3,178.1,342.7,177.9z"/>
</g>
<g>
	<path class="st1" d="M329.1,156.8c-6.8,0-16,5-15.9,11.1c0.2,6.1,9.6,6.1,15.9,6.1s15.7-2,15.7-4.8
		C344.8,164.2,339.8,156.8,329.1,156.8z"/>
	<path class="st1" d="M319.8,185c0.6,1.9,1,5-3.8,8.3c-4.8,3.3-6.9,6.8-8.4,6.9c-1.5,0.2-3.5-1-3.5-1l1-2.8l-1.7-3.8
		c0,0-2.5-1.5-3.3-1.5s0.2-2.1,1.5-2.6s10.7-6.8,12.4-7.4C315.7,180.4,318.8,181.9,319.8,185z"/>
	<polyline class="st1" points="320.2,186.7 325.8,182.9 325.8,179.7 322.1,175.4 318.7,175.4 313.2,179.9 313.2,181 	"/>
	<line class="st1" x1="315.9" y1="181" x2="322.1" y2="175.4"/>
	<line class="st1" x1="319.5" y1="184.2" x2="325.8" y2="179.7"/>
	<path class="st1" d="M324.1,184.2c2.1,1,8.5,0.6,10.4,0c3.6-1.1,6.8-2.7,7.7-5.9c0.4-1.5-0.2-6.6-0.2-6.6"/>
	<path class="st1" d="M314.6,171.1c-0.3,2.1-0.3,8-0.3,8"/>
	<path class="st1" d="M329.1,156.8c0.2-3-10.8-17.2-30.8-18c-19.9-0.8-38.1,14.3-40.1,19.3c-1.2,3.1,0.7,4.6,0.7,4.6l3-2.1l5.8-0.4
		l9.4,7.6l1.4,4l1.3,0.9l22.3-0.9l0.8-1.1c0,0,1.4-7.1,6.2-9.5c4.1-2.1,9.1-0.9,9.1-0.9"/>
	<polyline class="st1" points="280.4,172.6 280.4,183.6 283.1,185.2 301.2,185.2 303.8,183 302.9,170.6 	"/>
	<path class="st1" d="M313.2,165.4c-1.2-0.4-4.8,1.9-6,4.6c-1.3,2.7-1.2,9.7-0.7,11c0.6,1.3,1,3.1,2.5,3.1"/>
	<polyline class="st1" points="280.4,183.6 278.7,186.7 280.4,188.3 283.4,189.6 300.8,189.1 	"/>
	<polyline class="st1" points="303.8,183 306.2,183.6 306.2,185.2 	"/>
	<polyline class="st1" points="275.7,166.6 274.6,168.7 267.9,169.8 258.4,164.2 258.9,162.7 267.9,167.1 273.5,165.5 274.6,168.7 	
		"/>
	<line class="st1" x1="267.9" y1="167.1" x2="267.9" y2="169.8"/>
	<polygon class="st1" points="300.2,191.1 296.7,191.1 296.7,192.9 297.7,195.2 299.3,195.2 300.2,193.2 	"/>
	<polygon class="st1" points="303.5,192.6 300.2,193.2 299.3,195.2 299.3,197.9 300.2,200.2 302.2,201.2 304.1,199.2 305.1,196.4 	
		"/>
	<path class="st1" d="M293.4,192.2c1.9-0.5,3.9,2.2,5,5.3s1.1,5.8,0,6.2s-13.3,2.9-15.3,2.6c-2-0.3-1-3.2-1.7-4.6
		c-0.7-1.4-2.8-3.7-0.6-4.7C283.1,195.9,291.8,192.6,293.4,192.2z"/>
	<path class="st1" d="M279.8,199.2c-1.8-1.6-4.1-2-5-0.7c-0.9,1.3-0.9,3.6,0,5.1c0.9,1.6,2.5,3.8,3.3,3.9c0.8,0.1,2.4,0,3.1-1.2
		c0.7-1.2,0.7-1.8,0.4-4.1C281.3,199.8,279.8,199.2,279.8,199.2z"/>
	<polyline class="st1" points="250.1,206.3 257.8,201.9 263.7,201.2 265.2,202.6 262.4,205 251.9,206.7 251.4,211.2 253.7,214.9 
		263.6,214.9 268.5,211.7 267.1,204.7 	"/>
	<polyline class="st1" points="268.5,211.7 271.4,212.1 277,207.9 274.1,203.3 273.7,198.5 270.9,197.7 267.1,197.2 265.4,198.3 
		262.4,197.2 251.5,199.8 246.3,204.4 247,208.8 248.7,209.9 250.1,209.5 251.5,207.5 	"/>
	<polyline class="st1" points="270.9,197.7 270,201.2 274.8,209.5 	"/>
	<path class="st1" d="M284.9,195.2l-4.6-3.1l-0.5-2.5l-6.3,0.9c-0.2,2.2-4.8,5.2-9.6,4.7c-3.1-0.3-11.9-2-10.2-11.7
		c1.7-9.6,9.7-9.6,12.1-9.6s8.2,2.9,9,6.9c0.9,4.3,0.4,7.5-1.2,9.7"/>
	<path class="st1" d="M264.7,175.4c-2.9-0.3-9.6,2.5-9.7,8.1c-0.1,5.6,4.3,9,8.1,9s8.1-2.9,8.8-7.4
		C272.4,181.6,271.1,176,264.7,175.4z"/>
	<path class="st1" d="M245.3,186.7c1.5,0.2,3-2.8,2.6-9.4c-0.3-6.6,0.2-9.6,0.7-10.2c0.6-0.6-0.7-2.3-3.4-0.8
		c-2.7,1.4-7.9,6.8-7.3,11.2C238.6,181.8,240,185.9,245.3,186.7z"/>
	<polyline class="st1" points="245.8,186.6 246.7,189.1 251.3,192.6 256.7,192.6 	"/>
	<line class="st1" x1="247.9" y1="183.6" x2="253.6" y2="186.7"/>
	<line class="st1" x1="247.9" y1="181.7" x2="253.6" y2="184.8"/>
	<polyline class="st1" points="248.7,167.1 250.1,164.9 256.2,161.5 258.9,162.7 	"/>
	<polyline class="st1" points="316.5,143.8 325.8,135.1 325.8,131 333.2,136.1 333.2,138.7 330.1,138.7 323.3,147.2 323.7,149 	"/>
	<polyline class="st1" points="321.4,147.1 329,137.8 333.2,136.1 342.3,126.3 	"/>
	<polyline class="st1" points="325.8,135.1 329,137.8 330.1,138.7 	"/>
	<polyline class="st1" points="325.8,131 334.1,122.3 337.2,121.7 342.3,126.3 342.3,130.2 333.2,138.7 	"/>
	<path class="st1" d="M286.6,140c-0.5-2.7-6-6.5-13.3-6.5c-7.3,0.1-14.8,6.8-14.8,8.7s3.4,2.8,8.1,3.1s5.9,0.4,5.9,0.4"/>
	<path class="st1" d="M262.3,144.8c-1.7,0-3.4,0.3-1.9,1.6c1.6,1.3,6.8,2.6,6.8,2.6"/>
	<path class="st1" d="M260.5,146.5c-3-0.3-6.9-0.2-10.1,1c-3.2,1.2-5,1.3-5.5,2.3c-0.5,1,1,7.9,2.3,8.8c1.3,0.9,9.4-0.3,11.1-0.6"/>
	<path class="st1" d="M245,152.6c0.5,2.4,1.3,6,1.3,6.9c-0.1,0.9-0.9,2.2-2.2,2.6c-1.3,0.3-4.5,0.6-6.1,0c-1.6-0.6-3.5-3-3.4-3.8
		s6.6-8.9,7.6-9.2c1-0.3,1.2-0.7,2,0S245,152.6,245,152.6z"/>
	<path class="st1" d="M233.7,157.3c-2,0.4-9.6-10.7-9.4-12.1c0.2-1.5,5.3-5.5,6.7-5.6c1.4-0.1,9.3,6.5,10.2,8
		c0.9,1.4-2.5,4.9-3.3,5.9C237.1,154.5,235.4,157,233.7,157.3z"/>
	<path class="st1" d="M224.4,144.8c-1.6,0-4.2-4.2-3.9-5.2c0.2-1,5.4-5.6,6.7-5.6c1.3,0,3.4,2.8,3.6,3.8c0.2,1-1,2.2-1.8,2.8
		S224.4,144.8,224.4,144.8z"/>
	<polygon class="st1" points="214.9,119.2 214.2,116.4 219.3,113.4 224.3,115.7 228.7,124.2 228.7,131.8 226.5,134.1 222.5,137.3 
		220.5,139.6 219.4,141.2 217.4,139.6 213.7,139.4 210.4,136.5 219.5,131.4 219.9,124.8 	"/>
	<line class="st1" x1="219.9" y1="124.8" x2="228.7" y2="124.2"/>
	<path class="st1" d="M228.7,127.3c0,0,16-6.2,17.1-6.9c1.1-0.7,3.2-5.9,1.1-10.9c-2.1-5-7.4-6.1-8.9-6.1
		c-1.4,0-17.8,10.4-17.8,10.4"/>
	<path class="st1" d="M236.2,104.2c-0.2-1.3-3.2-1.2-4.8-0.7c-1.6,0.5-15.1,10.6-17.8,11.5c-6.9,2.1-25.9,10.3-27.9,10.7
		c-2,0.3-4.3,3.1-3.1,9.7c1.2,6.7,6.5,11.6,10.3,11.6s15.3-9.1,17.5-10.4"/>
	<path class="st1" d="M214.2,116.4c-2.6,1.4-20.7,10-22.5,10.2c3,1.8,5.2,6.8,4.8,10.2c-0.4,3.4-2.5,8.2-5.9,5.9s-7.3-8.4-6.3-11.9
		c1.1-3.5,6.4-3.1,7.3,0.7c-2.5-1.7-4.9-0.6-4,2.1s2.9,5.9,4.9,5.9"/>
	<polyline class="st1" points="258.9,175.5 257.5,171.7 259.8,169.8 261.9,169.8 263.9,173.9 	"/>
	<polyline class="st1" points="248.2,171.7 250.7,171.1 252.1,168.4 252.1,166.2 249.8,165.3 	"/>
	<line class="st1" x1="280.4" y1="179.7" x2="300.8" y2="171.8"/>
	<line class="st1" x1="281.9" y1="179.7" x2="286.6" y2="185.2"/>
	<line class="st1" x1="284.2" y1="178.3" x2="289.7" y2="185.2"/>
	<line class="st1" x1="287" y1="177.1" x2="293.4" y2="185.2"/>
	<line class="st1" x1="290.2" y1="175.9" x2="296.7" y2="185.1"/>
	<line class="st1" x1="292.9" y1="174.8" x2="300.2" y2="184.8"/>
	<line class="st1" x1="295.2" y1="173.9" x2="302.7" y2="184"/>
	<line class="st1" x1="298.4" y1="172.7" x2="303.7" y2="180.9"/>
	<line class="st1" x1="323.5" y1="173.9" x2="329.1" y2="184.8"/>
	<line class="st1" x1="326.3" y1="173.9" x2="331.8" y2="184.6"/>
	<line class="st1" x1="330.1" y1="173.9" x2="335.1" y2="184"/>
	<line class="st1" x1="333.2" y1="173.9" x2="337.7" y2="183"/>
	<line class="st1" x1="336" y1="173.3" x2="340.4" y2="181.2"/>
	<path class="st1" d="M339,172.7l3.2,5.6c1.7,0.2,2.6,2.7,1.7,5.4c-0.9,2.9-4.9,8.5-14.9,8.5s-10-1.7-10-1.7"/>
</g>
</svg>
