
<svg id="bp-420" viewBox="0 0 527 318">
	<style type="text/css">
		.st0{fill:#fff6;stroke:#999;stroke-miterlimit:10;}
		.st1{fill:none;stroke:#999a;stroke-miterlimit:10;}
</style>
<g>
	<path class="st0" d="M302.3,108.3l3.2,3.9c0.3,0.8,3.8,8.7,3.7,13c-0.1,2.7-0.6,4.7-1.1,6.4c-0.4,1.2-0.7,2.3-0.7,3.4
		c0,1.2,0.3,2,0.7,2.4c-0.1,0-0.2,0.1-0.2,0.1c-1.7,1-2,1.8-2.5,2.9c-0.1,0.3-0.2,0.5-0.4,0.8c-0.4,1-0.3,2.7,0.2,4.4
		c-2.1,0.5-5.4,2-10.3,4.5c-4.1,2.1-8.6,7.1-9.5,8.2l-4.7-0.8l0.7-2.5l-1.7-7.9l-2.1-2.1l-13-4.9l-1.9,0.8l-0.9-0.4
		c0.1-0.1,0.1-0.2,0.2-0.2l0.1-0.1V137l-0.7-0.4l0.7-1.9l0-3.7l-2-1.7l-0.4,0c0.1-0.2,0.1-0.4,0.2-0.5v-2.6c1.2-0.1,2.3-0.2,3.3-0.3
		c0.3,0,0.7-0.1,1-0.1l0,0c2.7-0.5,4.9-1.2,6-2.4c2.5-2.5,4-6.7,4-10.9c0-2.7-0.7-5.1-1.9-7.2l0,0c0,0,0,0,0-0.1
		c-0.6-0.9-1.2-1.8-2-2.6c-3.2-3.1-8.7-6.4-14-8.9l1.4-6.9l-3.1-20l-3.2-7.2l-4.4,1.6l1.4,16.1l3.5,14.5c-2.6-1-4.8-1.6-6.3-1.7
		c-4.4-0.2-13.9,1.5-18,5.2c-0.5-1.2-0.9-2.4-1.5-3.2c-0.9-1.4-8.9-6.5-17.7-12c-2.6-1.6-4.9-3.1-5.3-3.4c-1.5-1.2-5.7-0.7-7.4-0.1
		c-2.2,0.8-2.9,6-2.9,7.7c0,2.4,27.2,19.1,27.5,19.2c0.5,0.2,1.6,0.3,2.9,0.2c-1.4,7,1.1,15.9,12.7,19.7c0.1,0,0.2,0.1,0.3,0.1
		l-0.8,1v3.2l0,0.2c0,0.1,0.2,0.4,0.7,1l-2.1,1.2v5.3l1,2l0.2,0.1l-0.8,0.4c-1,0.3-20.7,5.5-29.2,8.9c-19.8,7.9-29.6,11.9-30.8,12.8
		c-0.7,0.5-1.3,0.5-2,0.5c-0.7,0-1.5,0-2.6,0.6c-2.2,1.2-4.4,5.8-4.5,9.5c-1,0.1-1.9,0.5-2.6,1.2c-1.5,1.5-2.2,4.5-2,9.2
		c0,1.5,0,3,0,4.6c0,5.4-0.1,10.1,1.9,11.9c2.7,2.5,7.2,5.4,8.3,6.2l-1,17.9l1.7,1c-0.4,1.3-0.6,3.1-0.3,5.6
		c0.9,9.4,5.4,10.4,7.3,10.4c0.1,0,0.3,0,0.4,0c0.5,0,1-0.3,1.5-0.7c1.4-0.1,6.5-1.4,26.8-9l1.5-0.3c-0.2,0.9,0,1.6,0.4,2.2
		c0.8,1,2.6,1.5,5.7,1.5c0.4,0,0.9,0,1.4,0c4-0.2,5.5-1.3,5.9-1.7l57.7,27.9l3.8,0.6l5-2.5c0.7,0,3.7,0.2,4.8,0
		c1.2-0.2,8.4-3.8,10.1-4.6l1.6,1.1h2.9l15.5-7l1.7-2.2l-0.5-2.3l17.6-9.7l3,1.3l2.9,0l16.3-9.7l-1-4.5l2.7-1.9l0.5-5.7l-6.3-7.6
		L299.1,180l-3.4-5.1l-5.7-3.6h-2.5v-3.1l1.4-1v-0.6c7.4-1.9,21-9.9,22.7-12.8c0-0.1,0.1-0.2,0.1-0.3c0.3,0,0.8,0.1,1.5,0.1
		c0.7,0,1.7,0,3-0.2c1.4-0.1,2.5-0.9,3.2-2.1c0.8-1.3,1.1-3.3,0.9-5.3c0.1,0,0.2,0,0.3,0c0.5,0,0.9-0.2,1.3-0.5
		c1.7-1.3,2.4-5.2,0.7-10.2c-0.7-1.9-1.5-4-2.3-6.1c-1.9-4.6-3.7-9.3-4.1-13.2l14.3,15.2h3l4.1-5.3V123l-13.7-13.3l2.2-1.3l1-6.3
		l-2.9-2.7h-1.9l0.1-0.1v-4.5l-4.7-4.3l-5.7,1.7l-2.2-3.2l-3.7-1.4l-2.8,1.1l0.2-1.6h4.2l4.5-2.9v-3.1c0.8-2.2-2.3-9.4-4.7-11.4
		c-2.5-2.1-5.5-3.4-5.6-3.5l-5.8,0l-2.8,2.5l0.5,3.4h-2.5l-3.5,2.2l-4.4,7.5l0.5,7.1c-2.8,0.3-4.8,3.8-5.2,6.4
		c-0.4,2.9,2.4,7.5,5.6,8c0.2,0,0.4,0,0.6,0c3.2,0,7.3-3.4,7.6-5c0.2-0.9-0.1-1.8-0.3-2.5h3.6v4.2l4,4.8h2.8L302.3,108.3z
		 M199,218.5c-0.9,1.3-10,5.6-11.8,5.5c-1.8-0.1-4.5-1.7-5.3-2.8c-0.2-0.6-0.8-6-1.5-12.7l4.2,3.7l4.6,2.9h3.3l4,2.1l2.2-0.7
		L199,218.5z"/>
</g>
<g>
	<path class="st1" d="M223.8,102.9c-1.7,6.4-0.1,16.1,12.1,20c10.3,3.3,29.7,4.2,33.9,0c4.2-4.2,5.9-14.3,0-20
		c-5.9-5.7-19.8-12.1-24.4-12.3s-15.9,1.8-18.7,6.4"/>
	<path class="st1" d="M228.7,100.9c1.7-0.4,7.7,2.2,8,4.4c0.3,2.2-0.2,2.8-1.1,2.8s-8.3,0.4-9-1.2c-0.8-1.5-0.1-3.4,0-4.5
		c-2.1,0.9-5.5,1-6.3,0.7c-0.8-0.3-27.2-16.8-27.2-18.7s0.8-6.6,2.5-7.3c1.8-0.7,5.7-1,6.9,0c1.2,1,21.6,13.2,22.9,15.2
		C226.8,94.4,228.1,99.1,228.7,100.9z"/>
	<path class="st1" d="M195.7,77.1c2.1,0.3,25.7,14.5,27.1,15.9c1.4,1.3,5.9,7.9,5.9,7.9"/>
	<path class="st1" d="M271.8,105.5c-2-2.6-7.7-3.6-10.6-1.5c-2.9,2.1-7.5,8.9-5.8,15.3s6.7,6.3,8.7,5.9"/>
	<path class="st1" d="M258.7,114.1c0.2-3.5,3.9-7.4,6.7-7.2c2.9,0.1,5.2,3.4,5.1,7.2c-0.1,3.9-3.3,8.3-5.9,8.5
		C262,122.8,258.3,122.1,258.7,114.1z"/>
	<path class="st1" d="M262.1,108.2c2-1.1,6.8,1.9,6.4,5.4c-0.4,3.5-2.7,8.8-7.6,8.2"/>
	<polyline class="st1" points="252.4,92.6 248.6,77.1 247.3,61.5 251,60.2 253.9,66.8 257,86.7 255.6,94 	"/>
	<line class="st1" x1="236.3" y1="110.5" x2="255" y2="115.9"/>
	<path class="st1" d="M241.2,111.9c-1.4,1.2-0.6,8.8,3.1,12.8"/>
	<path class="st1" d="M244.2,112.8c-1.2,1.7-1.2,7.8,3.1,12.4"/>
	<path class="st1" d="M247.3,113.7c-0.9,1.3-1.4,7.9,3,12.1c0,0-9.2,0.6-12.7-7.4s0.4-15.1,3.3-18.2s11.9-7.4,16.1-5.5"/>
	<path class="st1" d="M250.5,114.8c-1.2,1.4-1.3,7.4,2.1,10.9"/>
	<path class="st1" d="M236.9,123.2l-1.1,1.5v3c0,0,2.2,4.5,12.6,4.5c10.5,0,10.9-3.4,10.9-3.4v-3"/>
	<path class="st1" d="M236.9,129l-2.4,1.4v4.8l0.9,1.7c0,0,7.4,3.1,13.1,3.1c7.3,0,12.5-3.7,12.5-3.7l0.6-1.8v-3.3l-1.7-1.4
		l-1.2,0.1"/>
	<path class="st1" d="M236.3,137.3l-1.9,1v2.2l0.9,1.3c0,0,2.9,5,12.2,4.5c9.2-0.4,14-6.3,14-6.3v-2.7l-1.1-0.7"/>
	<path class="st1" d="M236.9,143.4l-2.4,1.5l0.4,2.3c0,0,3.3,5.3,14.9,4.1c11.6-1.2,12.9-7.9,12.9-7.9v-1.9l-1.7-0.8"/>
	<path class="st1" d="M262.3,144.4c0,0,10,5.1,11.3,6.2c1.3,1.1,2.2,5.2,2.2,5.2v6.5c0,0-12,7.9-14.9,8.5s-12,0.7-14.7,0"/>
	<path class="st1" d="M245.7,163.9c2.1,0.3,10.7,2.6,18.9-1.3c8.2-4,10.9-6.3,9.1-12"/>
	<polyline class="st1" points="262.6,141.4 264.5,140.7 277.2,145.4 279.1,147.4 280.8,155 279.6,159.2 275.8,160.9 	"/>
	<polyline class="st1" points="227.7,192 239.5,201 255.6,201 270.4,194.9 287,175.1 287,165.4 278.2,159.8 280.2,164.9 
		270.4,172.9 256,177.6 233.7,176.2 218.6,168.6 218.6,164.1 223.2,161.4 	"/>
	<polyline class="st1" points="275.8,188.5 267,193.4 255,197.3 241.3,197.3 228.9,189.1 	"/>
	<polyline class="st1" points="287,175.1 267.7,189.6 257,192 241.7,192 230.2,187.8 	"/>
	<path class="st1" d="M242.4,173.9c1.1,0.7,4.1,0,4.3-1.5c0.2-1.5,0-5.3,0-5.3l-3.5-7.3c0,0-11-5.9-13.2-6.8
		c-2.2-0.9-4.3,1.9-4.3,3.2c0,1.3,1.7,2.8,1.7,2.8l8.9,4.5l3.9,5.2C240.1,168.6,240.8,172.9,242.4,173.9z"/>
	<polyline class="st1" points="225.6,157.7 223.2,161.4 234.4,169.3 240.5,170.5 	"/>
	<path class="st1" d="M277,173.3V170l3.7-2.1c0,0,2.3,1,3.1,1.5c0.8,0.6,1.1,4.2,0.4,4.8c-0.7,0.6-3.5,2.8-3.5,2.8l-3.2-1.2
		L277,173.3z"/>
	<polygon class="st1" points="262.6,180.4 264.5,177 269,176 271.2,179.4 270.4,183.6 267.7,185.9 263.4,184.7 	"/>
	<polygon class="st1" points="244.2,188.5 247.5,189.1 251.2,187.2 251.7,183.6 249.7,180.4 244.9,179.8 241.7,182.9 241.7,187.1 	
		"/>
	<polyline class="st1" points="242.4,185.1 244.7,186.9 249,186 251.2,183.6 	"/>
	<polyline class="st1" points="263.4,183.1 266.9,183.1 269.1,181.8 269.1,178.4 267.7,176.3 	"/>
	<polyline class="st1" points="277.5,175.1 280.8,174.2 282.4,172.4 281.6,169.8 279.9,168.3 	"/>
	<path class="st1" d="M227.6,191.3c-0.3-1.9,3-2.8,3-4.4c0-1.7,1.4-9.8-3-11.8c-4.4-2-8.2-2.5-9.7,0c-1.4,2.5-1.3,11.9,2.8,15
		c4.1,3.1,2.9,5,2.5,7.2c-0.3,2.2-0.7,13.1,3,14.1c0,0,0.3-3.3,3.2-3.1s4.5,1.3,4.5,1.3l4-0.4v-4.4
		C237.9,204.7,228.9,200.2,227.6,191.3z"/>
	<path class="st1" d="M226.3,210.8c0.1-4.4,4.4-4.9,6.3-4.7c-2.6-2.3-6.5-10.1-5-14.9"/>
	<path class="st1" d="M234.4,211.3c-0.6-1.8-7.7-6.2-8.3,0c-0.6,6.2,2.1,11.4,5.7,12.4c3.6,1,6-3.5,5.2-7.3
		C236.3,212.8,234.4,211.3,234.4,211.3z"/>
	<path class="st1" d="M232.6,223.9c1.5,1.6,9.4,1.1,18.1-1.3s23.9-6.4,28.1-6.5c-1.2-1.4-2-5.4,0-6.9c-5.1-1-18.1,1.7-23.7,1.2
		c-5.6-0.4-15.2-1.4-17.2-1.2"/>
	<polyline class="st1" points="245.4,208.9 255,208.2 285.3,192.9 285.3,184.4 291.1,180.4 295.2,181.8 298.7,180.4 295.2,175.1 
		289.8,171.7 287,171.7 	"/>
	<polyline class="st1" points="279.9,157.9 285.5,158.8 288.4,163 288.4,166.9 287,167.9 	"/>
	<path class="st1" d="M285.5,158.8c0,0,5.1-5.9,9.6-8.3s8.5-4.1,10.7-4.5c0,3,2.6,6,5.5,6.8c0.7,2-15.3,11.5-22.9,13.3"/>
	<path class="st1" d="M288.4,163c3.6-1.2,17.9-7,21.3-10.9"/>
	<path class="st1" d="M308.1,137.9c2.7-1.6,9.5,1.4,11,5.3c1.5,3.9,0.9,9.2-3,9.6c-3.9,0.4-4.8,0-4.8,0s-2.5-0.2-3.9-2.6
		c-1.3-2.4-2.7-7.1-2-8.7C306.2,139.8,306.2,139,308.1,137.9z"/>
	<path class="st1" d="M319.7,145.2c2.4,1.5,4.8-3,2.5-9.7c-2.3-6.7-6.6-14.8-6.5-20.7l-6-7.3l1.7-5.2l5.1-3.6l0.6-3.7l-1.4-1.7
		l-5.9,1.4l-6,8.2l-0.9,5.3l3.1,3.7c0,0,3.9,8.6,3.8,13.3s-1.8,7.4-1.8,9.7s1.3,2.6,1.3,2.6"/>
	<polyline class="st1" points="313.4,100.8 313.4,103.7 315,104.9 317.6,105.4 322,99.2 322,95.1 317.7,91.1 310.6,93.2 	"/>
	<polyline class="st1" points="321.4,99.9 324.1,99.9 326.6,102.4 325.7,108.2 319.1,111.9 316.3,110.5 316.3,106.9 317.6,105.4 	
		"/>
	<polyline class="st1" points="323.1,109.6 337.2,123.2 337.2,125.8 333.3,130.8 330.8,130.8 315.7,114.8 	"/>
	<polyline class="st1" points="337.2,123.2 332.8,127.7 331.3,127.7 310.3,105.4 	"/>
	<polyline class="st1" points="302.8,104.4 300.3,104.4 296.5,99.9 296.5,95.4 298.7,94.2 302.8,89.5 306.2,88.2 309.6,89.5 
		311.9,92.8 	"/>
	<polyline class="st1" points="298.7,94.2 298.4,98.3 302.1,101.9 304.2,102.1 	"/>
	<polyline class="st1" points="311.9,81.1 311.9,84 307.8,86.6 303.2,86.6 302.8,89.5 	"/>
	<path class="st1" d="M292.7,95.4l3.9-1.2l4.8-4.7v-3.7l-1.4-2.4l-7.3-6.2l2-4.5l0.1,1.5c0.2,0.9,4.4,5.6,9.5,8s6.8,0.4,7.7-1.2
		c0.9-1.6-2.1-8.9-4.5-11c-2.4-2.1-5.5-3.4-5.5-3.4h-5.4l-2.4,2.2l0.6,3.7h-3l-3.3,2.1l-4.2,7.3l0.5,7.5l7,5.9h4.8"/>
	<path class="st1" d="M292.8,80.4c-1.5-0.9-4.6-2-5.8,0.6c-1.2,2.6,0,7.9,2.2,9.5c2.2,1.6,5.3,0.4,6.3,0c1-0.4,1.7-3.7,1.1-5.3
		C296,83.6,292.8,80.4,292.8,80.4z"/>
	<path class="st1" d="M288.4,79.6c-1,2.5,0.4,7.3,2,8.5c1.5,1.2,3.9,2.5,6.2,1.3"/>
	<path class="st1" d="M284.7,89.5c-2.7-0.1-4.9,3.3-5.2,5.9c-0.3,2.6,2.2,7,5.2,7.5c2.9,0.5,7.4-3.2,7.6-4.6s-0.6-2.9-0.6-2.9"/>
	<path class="st1" d="M317,140c2.6,0.3,2.3-6.6,0.9-10.5c-1.4-3.9-5-15.1-4.3-16.8"/>
	<polyline class="st1" points="285.3,184.4 347.5,203.8 350.4,206.5 349.2,208.9 288.4,239 286.4,239 252.8,222 	"/>
	<polyline class="st1" points="256.6,220.9 287,236.1 347.9,207.2 347.9,204.7 285.3,185.2 	"/>
	<path class="st1" d="M279.5,210.7c1.2-3.4,3.2-4.5,6.1-5.1c2.9-0.6,4.6-2.4,8.4-2.1c3.7,0.3,8.6,6.4,10.2,8.2
		c1.7,1.7,0.8,4.3-1.3,3.5s-8.4-7.7-12.4-6.3c-4.1,1.4-6.5,5.9-1.4,7.1c5.1,1.2,3.3,5.1,1.9,5.4c-1.4,0.3-6.9,0.7-8.9-1.9
		C279.9,217.1,277.7,215.6,279.5,210.7z"/>
	<path class="st1" d="M287.9,221.7c0.8,1,6.2,4.1,7.7,3.6c1.5-0.4,6.8-2.4,7.2-3.9c0.9-3.5-14-10.8-15.3-10.8"/>
	<path class="st1" d="M321.3,213.6c-3.5-0.3-29.3-10.6-29.4-11.3c-0.1-0.8,0.1-4.8,3.7-5c3.6-0.1,29.3,10.8,30.4,11.7
		C327.1,209.8,324.9,213.9,321.3,213.6z"/>
	<path class="st1" d="M325.4,211.7c0.6-1-0.1-2-0.6-2.1c-0.6-0.1-27.6-10.6-29.7-10.9c-2.1-0.3-3.2,1.1-3.2,2.3"/>
	<polyline class="st1" points="338.8,220.5 347.3,230.3 347.9,231.9 	"/>
	<path class="st1" d="M345.4,231.9"/>
	<line class="st1" x1="355.7" y1="209.6" x2="362.8" y2="218"/>
	<path class="st1" d="M363.8,222.5"/>
	<polyline class="st1" points="342.2,230.5 338.8,220.5 355.7,209.6 	"/>
	<path class="st1" d="M323.1,244.8"/>
	<polyline class="st1" points="324.1,240.5 314.8,230.8 314.3,231 	"/>
	<polyline class="st1" points="314.3,231 296.8,240 303.5,250.5 	"/>
	<line class="st1" x1="309.1" y1="251.2" x2="296.8" y2="240"/>
	<path class="st1" d="M292.6,255.3c-0.1-0.6-8.7-13.1-8.7-13.1l-39-18.3"/>
	<polyline class="st1" points="241.7,224.5 281.6,243.2 288.4,255.3 	"/>
	<line class="st1" x1="283.4" y1="257.8" x2="281.6" y2="243.2"/>
	<line class="st1" x1="279.9" y1="257.3" x2="281.1" y2="243.2"/>
	<polyline class="st1" points="279.4,184.1 282.4,186.9 283.4,191.3 278.7,194.7 252.8,206.4 240.5,207.2 237.9,204.7 232.6,206.2 
		233.9,209.6 	"/>
	<path class="st1" d="M234.4,138.2c0,0-20.4,5.4-29.2,8.9c-8.8,3.5-29.1,11.5-30.7,12.7c-1.7,1.2-2.6,0.1-4.6,1.1s-4.3,5.7-4.3,9.6
		c-3.5,0-4.8,3.4-4.6,9.9c0.2,6.5-0.6,14,1.7,16.1c3.1,2.8,8.5,6.3,8.5,6.3l-1.3-23.1l-4.6-4.6l0.3-4.6"/>
	<polyline class="st1" points="236.2,142.8 188.3,159.8 185,162.9 	"/>
	<polyline class="st1" points="178.7,157.9 183,159 185,162.9 185,170.5 185.9,175.1 195.7,187.7 196.5,201 	"/>
	<polyline class="st1" points="234.4,146 193.2,162.1 191.6,164.9 192.4,169.2 198.8,181 200.6,181 215.7,175.1 	"/>
	<polyline class="st1" points="217.1,177 214.2,173.4 215,167.9 217.1,161.6 225.6,156.2 	"/>
	<polyline class="st1" points="214.8,169.1 202.6,174.2 200,172.4 195.7,162.9 196.3,160.9 	"/>
	<polyline class="st1" points="194.6,161.6 193.9,164.1 199,173.4 202,176 214.6,170.5 	"/>
	<path class="st1" d="M218,185.9c0,0-16.4,6.9-16.4,6.9h-1.5l0.5-11.9"/>
	<polyline class="st1" points="198.8,181 198.8,193.7 200.1,196.9 	"/>
	<polyline class="st1" points="223.2,195.3 214.6,190.3 214.8,189.1 217.1,188.5 219.2,188.5 	"/>
	<polyline class="st1" points="214.6,190.3 212.2,190.3 210.6,192 210.6,193.5 223,199.6 	"/>
	<polyline class="st1" points="210.6,193.5 208.5,192.9 205.3,193.5 204.2,195.3 223.2,204.8 	"/>
	<path class="st1" d="M204.2,195.3h-2.9l-1.9,1.5l-1.8,2.8l-0.4,3.1l-2.7,0.9l-2.5,4.5l0.6,6.3l3.9,2.1l1.6-0.5l-0.5-4.7l1.8-3.2
		l0.7-4.3l5.4-0.1l9.2,6.8l2.3,5.9l-1,5.4l0.7,4.5l3.7,2.1l59.5,28.7l3.5,0.6l5-2.5c0,0,3.6,0.2,4.8,0s10.2-4.7,10.2-4.7l1.8,1.2
		h2.8l15.1-6.9l1.5-1.9l-0.6-2.4l18.2-10l3.2,1.4h2.5l15.9-9.5l-1-4.4l2.8-2l0.4-5.2l-6.1-7.3l-61.2-23.1"/>
	<polyline class="st1" points="227.5,220.7 224.6,224.9 216.1,222 	"/>
	<polyline class="st1" points="279.9,257.3 224.6,224.9 222.4,211.7 213,204.4 200.8,198.9 197.7,199.6 	"/>
	<polyline class="st1" points="192.6,214.5 189.3,214.5 184.8,211.7 179.9,207.4 	"/>
	<polyline class="st1" points="178.7,174.2 192.6,185.2 193.9,186.9 193.7,205.2 	"/>
	<polyline class="st1" points="192.1,211.3 189,212.6 186.3,210.7 186.3,185.9 187.6,184.4 191.3,184.1 	"/>
	<polygon class="st1" points="192.1,208.2 192.1,186.9 191.3,185.9 188.3,186.4 188.3,209.6 190.2,210.2 	"/>
	<path class="st1" d="M169.4,167c-0.9-0.2-1.6,2.7-1.4,4.2c0.2,1.4,1.1,5.9,2.8,6.2c1.7,0.2,2-5.3,1.7-6.8
		C172.1,168.9,171.3,167.5,169.4,167z"/>
	<path class="st1" d="M170.2,167.6c-1,0.7-1.7,4.2,1.3,9.4"/>
	<path class="st1" d="M173.1,160.4c1.7-0.1,6.4,5.7,5.9,10.8s-1.8,3.8-2,5.8c-0.2,2.1,3.8,43.3,4.5,44.4c-1.5-2.7-5.1-4.5-5.1-4.5
		l-3.8,1.9l-1,2.6l-1.3-0.7l1-17.9"/>
	<path class="st1" d="M178.7,218.4l-3.2-42.9c0,0,2.4-2.9,2.3-4.3s-3.4-10.5-7.3-10.5"/>
	<polyline class="st1" points="175,159.6 179.5,162.3 180.9,166.2 181.5,169.8 185,168.8 	"/>
	<path class="st1" d="M185,172.2c-0.2-0.2-2.5,0.5-2.5,0.5l-2.1,2.8"/>
	<line class="st1" x1="186.3" y1="185.9" x2="177.1" y2="179.4"/>
	<path class="st1" d="M177.6,219.1c-2.4-1.2-6.9-0.6-6.1,8.3c0.8,8.9,5,10.1,7.1,9.9c2.2-0.2,4.7-6.2,4-10.9
		C181.9,221.8,177.6,219.1,177.6,219.1z"/>
	<path class="st1" d="M178.2,222.8c-1.2-2.1-5-2-4.3,3.9c0.7,5.9,2.6,7.8,4,7.3c1.3-0.5,2.8-3.4,2.1-6.5
		C179.3,224.2,178.2,222.8,178.2,222.8z"/>
	<path class="st1" d="M177.5,222c-1.6-0.5-3.2,5.5,1.2,11.3"/>
	<path class="st1" d="M179.9,236.6c0.8,0.7,27-9,27-9l4.9-0.9l2.4-2.9l1.9-6.5c0,0-3.5-8.5-8.1-9.7s-6.1-0.1-7.3,1.1
		c-1.2,1.3-2,8.4-1.2,9.4s-10.3,6.2-12.3,6.1c-2-0.1-4.8-1.8-5.7-3"/>
	<path class="st1" d="M182.3,225.2l2.6,1.5c0,0,5-0.9,8.9-2.8c3.9-1.9,5.8-3.3,6.3-4.8s-2.3-11.5,5.1-11.7"/>
	<path class="st1" d="M209.1,227.7c-0.7,2.9,2.4,3.4,7,3.3c4.6-0.2,5.7-1.6,5.7-1.6"/>
</g>
</svg>
