
<svg id="bp-476" viewBox="0 0 527 318">
	<style type="text/css">
		.st0{fill:#eee6;stroke:#999;stroke-miterlimit:10;}
		.st1{fill:none;stroke:#999a;stroke-miterlimit:10;}
</style>
<g>
	<path class="st0" d="M218.8,159.5l1.3-14.1l-5.5-26l1.4-2.4L213,95.2l2.3-4.5c1-0.6,5.7-3.6,6.7-5.3c0.7-1.2,1.1-4.2-0.2-5.5
		c-0.6-0.5-1.6-1-3.5,0.2c-2,1.2-3.5,2.9-4.8,4.3c-0.1,0.1-0.1,0.1-0.2,0.2c-1.1,0.3-2.5,0.5-4.4-0.5c-0.5-0.2-0.8-0.5-0.9-0.9
		c-0.1-0.4,0-0.7,0.1-0.9c0,0,0.1,0,0.1,0c1.1,0,2.3-0.9,2.5-3.1c0.2-2.5-0.8-5.1-2.5-6.8c-1.1-1.1-2.4-1.6-3.7-1.4
		c-0.5,0.1-0.9,0.3-1.2,0.8c-1.9,2.6-1.1,12.1-0.6,15.5c-0.8-0.2-1.4-0.4-1.8-0.7c-0.2-0.2-0.3-0.4-0.3-0.6c0-0.8,0.2-1.7,0.4-2.7
		c0.4-2.5,0.9-5.3,0-7.5c-0.5-1.1-1.3-1.6-2.3-1.5c-1.8,0.3-3.9,3-4,6.8c-0.2,3.6-0.3,8,2.2,10.6c1.4,1.4,3.5,2.1,6.2,2.1
		c1.3,0.7,3.9,1.8,4.8,2.2l-1.1,22.8l1.8,1.2l-0.9,0.1l-0.4,36.6l3.3,4.6l0.9,0.9l0.7-0.2l-2.5,1.2v5.7l4.4,2.9l5.5-1.4l0.1-1.5
		l0.1,0.1l14.1-6.6l2.6-2.4l1-4c1,1.6,2,3,2.9,3.7c1,0.7,3.8,2,7.2,3.3c-0.6,0.8-0.9,1.7-0.9,2.7c-3.3,1-10.3,7.3-11.1,9
		c-0.1,0.1-0.1,0.3-0.3,0.5c-3.3,6.1-2.6,12,1.8,17.5c-0.4,0-0.7,0.2-1,0.4c-1.1,0.7-1.3,2.3-1.3,2.9c0,0.2,0,0.5,0.1,0.8
		c-0.7,0-1.4,0.1-2,0.3l-0.4-2.6l-12-8.1c-0.6-2.2-3.1-3-7.5-2.4c-1.8,0.2-3.2,1-4.2,2.3c-1.4,1.8-1.6,4.1-1.4,5.6
		c0.1,0.7,0.6,1.4,1.3,2.3c-1.4,1-1.4,3.9-1.4,4.1l0,0.1l0.1,0.1c0,0.1,3.1,5.9,2.4,9c-0.2,0.8-0.4,1.8-0.7,3
		c-1.3,5.9-2,9.5-1.9,10.9l-10.7,5.8l-1.5,4.1l3.5,2.7l3.9-0.8l1.8-2.8l7-2.6l3.3,0.9v3l3.3,1.7l3.6-3.6l-3.2-6.9l-5-1.5
		c2.3-2.8,7.5-13.1,7.1-17c-0.1-1.3-0.3-2.3-0.6-3.1l7.8,9.8l5,1l0,0c0.2,0,0.5,0.1,0.7,0.1c1.7,0,3.4-0.8,4.9-2.3
		c1.5-1.5,2.5-3.5,2.7-5c0.1,0,0.2,0.1,0.3,0.1c0.7,0.3,1.3,0.6,1.8,0.6c0.1,0,0.2,0,0.3,0l13,8.9l5.4,1.3l2.2-0.6
		c-0.9,1.9-1.5,5-1.3,7.8c0.1,1.7,0.6,4,2.1,5.2c1,0.8,1.8,1,2.6,1c0.8,0,1.5-0.4,2.1-0.8l-1,3.4l3.8,15.7l-4.3,0.4l-3.3,3.1v3.3
		l7.9,2.8l2,6.7l3.8,3.6h2l3.1-3.3l1.5-7.6l5.3-2.9l1.9-3.1l-1.3-2.9l-6.8-1.2l0-0.1l1.2-18.9l-2.8-2.5c1.2-0.5,1.9-1.3,2.4-2
		c1-1.6,0.8-3.4,0.4-4.2l-0.1-0.2c-0.9-1.6-3.2-5.9-6.3-6.1c-0.2,0-0.3,0-0.4,0c0.9-0.2,1.4-0.8,1.4-0.8c0,0,0,0,0,0l6-5.3l3.4,7.4
		c0,0.1,0,0.1,0,0.2c0.6,2,2.1,3.2,4.2,3.4c0.3,0,0.6,0.1,0.9,0.1c1.5,0,2.7-0.5,3.5-1.6c0.5-0.7,0.8-1.4,1-2.3l0.2,0.1l4.5-7.9
		l5.6,12.4v24l1.9,1.9l0.8-0.2l-1.7,1.3l3.9,19.1c-1.6-0.1-5.4-0.3-6.8,0.1c-2,0.5-4.9,6.8-4.8,8.3c0.1,1,0.6,2.4,1.6,2.9
		c0.5,0.3,1.2,0.5,2.2,0c0.8-0.4,1.8-1.8,2.7-3.2c0.9-1.2,2-2.9,2.7-3.1c0.1,0,0.1,0,0.1,0c0.8,0.5,1.7,2.8,1.8,4.9
		c0,1.2-0.2,2.1-0.7,2.5c-1.6,1.3-4.9,5.4-5,8.2c-0.1,0.8,0.2,1.5,0.6,2c0.5,0.5,1.1,0.8,1.9,0.8c0.2,0,0.5,0,0.8-0.1
		c2.8-0.5,6.2-3.6,7.5-6.7c0.6-1.4,0.8-3.3,0.9-5.3h2l5,5.2c0.1,0.7,0.3,3.5,0,5c-0.2,1,0.4,1.9,1.4,2.2c0.2,0.1,0.4,0.1,0.7,0.1
		c1,0,2-0.6,2.6-2c1.2-2.8,1.3-7.8,1.3-8v-0.2l-7.8-11.6l-5.3-1l2.9-19.9l-1.5-3.5l0.1,0l2-2.2V225c0.6,0.3,2.2,0.7,3.5,1l0.2,0.1
		l3.2-2.1v-2.5l-7.8-3.5l-3.9-19l2.8-1.1l1.6-4.3l-1-4.1l-4.6-3.3l-3,0.5v-17.1l-2.1-2.5l-4.9-3.2c0.6-0.7,1.1-1.4,1.2-2
		c0.3-1.8,0.1-3.4-0.8-4.5c-0.5-0.6-1.1-1-1.8-1.2l4.8-4.5l-0.2-1.6c0.3,0.7,0.8,1.5,1.4,1.7c0.3,0.1,0.6,0.1,0.9,0.1
		c1.1,0,2.5-0.5,3.3-1.1c1.1-0.8,0.4-3.5,0.2-4.3l0-0.1l-2.4-2.1l0.6-2.8l-11.4-7.1l-3.4,0.9l0.1,0.3l-0.2-0.1
		c0.1-0.9,0.1-1.9,0-2.8h0c0-0.4-0.1-0.8-0.2-1.1c-0.4-2.4-1.5-4.5-2.8-5.9l1.4-0.5V121l-2.1-2.6l-1.8,0.4c-0.1-0.3-0.3-0.5-0.4-0.7
		c-1.3-1.8-3.3-4-5.9-4.7c0.1-0.1,0.2-0.3,0.3-0.4l0-2.2l-1.5-0.8l1.5-0.8v-4.4h-2.1l-0.5-1.7l3.7-2.1V97l-3.6-3.1l3.6-3.3v-3.9
		l-2.9-2.3l1.8-2.2v-3.7l-1.7-1.3l0-2.4c1-1.6,1.5-3,1.6-4c0.1,0,0.2,0,0.4,0c0.7,0,1.5-0.3,2.3-0.8c1.2-0.8,9.6-9.4,9.6-11
		c0-0.2-0.1-0.5-0.2-0.8c2.3-0.9,9.2-4.9,10.7-5.7c10.5-6,10.6-6.6,10.6-6.9c0.1-0.7,0-2.1-0.6-2.8c-0.3-0.4-0.7-0.5-1.2-0.5
		c-0.8,0.1-7.6,3.2-11.9,5.4c-7.1,3.5-9.7,5.1-10.6,5.9c0,0,0-0.1-0.1-0.1l-0.1-0.1c-0.2-0.1-0.7-0.5-3.5,0.3
		c-2.6,0.7-8.1,2.9-8.8,4.9c-0.2,0.5-0.3,0.9-0.4,1.3c-1.4-2.5-6.3-9-18.2-10.2c-6-0.6-10.9,0.9-14.7,3.4c-0.7-2-4.4-6.8-6.2-7.5
		c-2.2-6.8-4.9-14.8-5.9-15.2c-0.5-0.2-1.1-0.1-1.7,0.3c-0.7,0.5-1.3,1.4-1.2,2.3c0,0.5,1,3.8,2.5,8.7c0.8,2.7,1.7,5.6,1.8,6.4
		c-0.4,0.6-0.8,1.1-0.9,1.7c0,0.1,0,0.2,0,0.2l0,0c-0.2,1.8,1.1,9.9,2.8,11.8c0.1,0.1,0.2,0.2,0.3,0.3c-0.8,1.4-1.3,2.7-1.5,3.8
		c-1.6,6.2,3,13.2,5.8,16.2c1.7,3.2,4.8,5.3,7.3,5.6h0c0.9,0.1,1.8,0.2,2.6,0.2c1.6,0,3-0.2,4.3-0.7c0.1,0,0.1,0,0.2,0
		c0,1.2,0.9,2.7,1.5,3.5l-2.2,1.4l-1.1,3.1l2,2l1.2,0.6l-1.3,1.5l-0.1,2.7l1.7,2.1v1.3l-1.7,1.2v0.9h-3.4l-0.1,0.1
		c-0.3,0.2-4.7,2.8-7.5,5.4l-11.3,6.7l-2.7,3c-0.3-0.9-0.5-1.8-0.4-2.3c0.3-0.3,0.7-0.6,1.1-0.9c1.7-1.7,2.6-4,2.3-6
		c-0.2-1.1-0.7-2-1.5-2.4c-0.9-0.5-2.1-0.4-3.1,0.2c-0.7,0.4-1.3,1.1-1.7,1.9c0.3-0.9,0.2-2.2-0.3-3.2c-0.5-1.2-1.4-1.8-2.5-1.8
		c-1.5,0-2.8,1.7-3.4,3.3c-0.7,2-0.2,3.8,1.2,4.9l0,0c0,0,0.1,0.1,0.2,0.1c-2.8,0.5-4,2-4.4,2.7c-0.5,0.8-0.7,1.7-0.5,2.3
		c0.4,1,1.2,1.4,2.3,1.4c0.5,0,1-0.1,1.6-0.2c-2.7,7-1.3,10.5-0.6,11.7c0.5,0.8,1.2,1.4,1.9,1.4c0,0,0.1,0,0.1,0
		c1.4,0,3.1-0.8,4.7-2.2c-0.7,0.8-1.2,1.6-1.3,2.6c-0.2,1.6,0.3,6.1,0.9,8.6h-3.9l-3,1.8L218.8,159.5z M302.9,192.1l-4.3,2l-3.6,8
		c-0.3-0.4-0.8-0.7-1.4-1c-0.8-0.4-1.7-0.9-1.9-1.8l1-1c0.4-0.5,3.5-4.6,3.6-6.7c0.1-1.5-0.4-2.4-0.8-2.8c0.4-0.8,0.7-1.5,0.7-1.9
		c0.5-3-2.2-11.2-3.2-13.4c-0.9-2.1-4.5-5.8-7.4-6.5c3-2.4,4.9-4,5-5.5c0.1-1.5-0.3-3.5-1.3-4.5c-0.1-0.1-0.2-0.2-0.3-0.3
		c2.3-1.5,5.3-3.4,8.2-5l-6.3,5l0,4l0.5-0.2l1.5,0.5c-0.5,0.6-1,1.6-0.9,2.9c0,0.2,0,0.4,0.1,0.6c0.2,1.7,0.3,3.3,3.5,4.2
		c0.2,0.1,0.4,0.1,0.6,0.1l-0.9,5.8l0.5,2.3l10,14.3l0.1,0.1l0.9,0.5l-0.7,1.6l0.4,3.4L302.9,192.1z M294.6,203.9L294.6,203.9
		C294.6,203.9,294.6,203.9,294.6,203.9C294.6,203.9,294.6,203.9,294.6,203.9z M308.9,200.4l-2-2.7l2,1.3V200.4z"/>
</g>
<g>
	<path class="st1" d="M253.7,87.5c-3.7-0.5-8.9-5-8-11.6c0.8-6.4,7.6-7.3,11.1-6.6c3.5,0.7,9.3,4.6,9.2,10.6
		C265.9,84.7,261.4,88.6,253.7,87.5z"/>
	<path class="st1" d="M246.8,82.1c-3.1-3.2-7.2-10-5.7-15.8s9.7-17.3,24.1-15.9s18.3,10.9,18.3,10.9"/>
	<path class="st1" d="M286.8,70.6c-0.3,4-8,16.1-26.3,16.4"/>
	<path class="st1" d="M242.6,62.6c8-7.4,23.4-15.4,40.9,0.6"/>
	<path class="st1" d="M283.8,66.9c0.2,3.6-5,14.8-14.6,18.9"/>
	<path class="st1" d="M295.9,54.1c-1-0.8-10.7,2.7-11.6,5c-0.8,2.3-0.8,4.3-0.8,6.3c0,2,1.7,3.6,2.5,4.5c0.8,0.8,2.1,1,3.7,0
		c1.6-1,9.3-9.4,9.3-10.6C299,58.1,295.9,54.1,295.9,54.1z"/>
	<path class="st1" d="M284.3,59.1c-0.7,2.9-0.1,7.2,2.5,7.9c2.6,0.7,9.7-7.1,9.9-7.8s0-4.2-2.1-5.1"/>
	<path class="st1" d="M296.3,54.6c0-1.3,21.4-11.5,22.6-11.5c1.2-0.1,1.5,1.8,1.3,2.7c-0.2,0.9-20.4,12.4-21.5,12.4
		C297.5,58.2,296.3,55.8,296.3,54.6z"/>
	<path class="st1" d="M242.8,62.2c-1.8,0-3.6-10-3.3-11.9c0.2-1.9,3.2-4.1,4.5-4.1s6.2,6.1,6.2,7.7"/>
	<path class="st1" d="M248,55.9c0.2-1.4-3.3-8.3-4.3-8.5c-0.9-0.2-4.3,2.3-4.3,2.9"/>
	<path class="st1" d="M240.4,48.5c0.1-0.1-4.2-14.3-4.3-15.3c-0.1-1,1.2-2.5,2.2-2.1c1,0.4,5.7,15.1,5.7,15.1"/>
	<path class="st1" d="M257.3,71.9c-2.3-0.7-9.2-0.5-9.3,4c-0.1,4.5,3.5,8.8,7.7,8.7c4.3-0.2,8.5-2.4,7.9-5.8S260.2,72.8,257.3,71.9z
		"/>
	<path class="st1" d="M255.9,71.6c-3.1,0.1-4.9,2.6-4.8,4.8c0.2,2.2-0.4,6.4,9.4,7.1"/>
	<path class="st1" d="M261.4,87c-0.6,1.4,1.6,4.1,1.6,4.1l-2.5,1.7l-0.9,2.6l1.8,1.8l1.6,0.8l-1.6,1.9l-0.1,2.3l1.7,2.1v1.8
		l-1.7,1.2v2.4l-1.7,1.4v2.4c0,0,1.7,2.5,5.7,2.8"/>
	<path class="st1" d="M271.5,116.9c3.3,0.1,14-1.2,15.3-4.1v-1.7l-2.1-1.1l2.1-1.1v-3.6h-2l-0.8-2.4l3.8-2.2v-3.4L284,94l3.8-3.5V87
		l-3.1-2.4l2-2.5v-3.3l-1.7-1.3l0-2.7"/>
	<path class="st1" d="M261.4,110.2c2.5,1.7,12.2,3.1,18.3,1.8c6.1-1.3,5-1.9,5-1.9"/>
	<path class="st1" d="M263,106c3.6,1.1,13.4,3,21.8-0.7"/>
	<path class="st1" d="M261.3,102.1c4.6,1.7,17.2,3.3,26.6-1.4"/>
	<path class="st1" d="M263,97.9c3.6,0.9,15.8,0.2,21-4"/>
	<path class="st1" d="M263,91.1c5.2,0.7,18.5-2.8,21.8-6.5"/>
	<path class="st1" d="M261.4,99.8c2.9,0.7,19.1,1.4,26.5-2.5"/>
	<path class="st1" d="M259.6,95.4c4.2,0.8,21.8-1.4,28.3-8.4"/>
	<path class="st1" d="M274,123.4c2.6-2.6-2-4.5-3.3-6.5s-2.5-3.5-4-3.1c-1.4,0.4-1.9,3,0,4.7c1.9,1.8,3.9,3,1.8,4.5
		c-2.1,1.5-5,3.3-4.8,5s0.6,3.5,2.3,3.4s1.9-1.5,2.5-3.3C269.2,126.3,272.9,124.5,274,123.4z"/>
	<path class="st1" d="M265.3,124.9c-2.9-0.2-7.6-1-6.5-3c1.1-2,5.8-1.4,7.9-1.4c2.1,0,2.5,0.6,2.5,0.6"/>
	<path class="st1" d="M269.2,127c0.6,2.1,1.8,3.9,4.5,0.6c2.7-3.3,3.4-5,1-5.1"/>
	<polyline class="st1" points="276.5,124 290.4,130.6 292.9,133.9 291.8,137.5 288.4,138.9 284.7,138.2 272,129.5 	"/>
	<path class="st1" d="M272.7,128.7c0,0,13.4,8.1,15.2,8.2c1.8,0.1,4.5-1.9,5.1-3"/>
	<path class="st1" d="M292.5,118.4c-4.3,0.9-8.8,2.8-7.7,9.5"/>
	<path class="st1" d="M286.4,128.7c-0.7-2.7,1.1-8,4.9-5.5c3.8,2.5,0.5,3,2.8,4.8s4.3,2.4,4.3,4.9"/>
	<path class="st1" d="M261.3,108.3h-3.8c0,0-8.4,5-9.5,7.9c-1.1,3,0,5.4,0,5.4l-1.8,0.9c0,0-1.8,1.5-1.5,3.5c0.3,2-0.6,10.9,0,11.8
		c0.6,0.9,4.5,5.4,16.6,7.3s17.8,0.7,19,0s9.2-6.2,9.2-6.2c2.2,1.3,7.8,2.4,8.6-3c0.8-5.4-1.9-9.9-4.4-11c0.1-1.2-0.2-5-1.3-6.5
		c-1.1-1.5-3.4-4.3-6.5-4.7"/>
	<path class="st1" d="M248,121.6c0.6,2.5,2.2,8.5,10.6,10.3c8.4,1.9,14.1,0.9,16-0.5"/>
	<path class="st1" d="M244.8,127.7c2.4,3.8,7.6,9.6,14.8,10.6c7.2,1,12.3,2.5,16.6,0.7c4.3-1.9,5-3.1,5-3.1"/>
	<polyline class="st1" points="293,119.4 294.9,119 296.7,121.2 296.7,124.9 294.9,125.6 	"/>
	<polyline class="st1" points="250,113.7 238.7,120.4 235.4,124 	"/>
	<path class="st1" d="M227.5,122.3c-3.9,9.2-1,13.3,0.6,13.3c2.8,0.1,7.9-4.1,8-8.3c0.1-2.2-1.6-5.4-1.2-6.9"/>
	<path class="st1" d="M229.2,117.1c-4.8,0.3-6.4,3.4-5.9,4.5c0.4,1.1,1.4,1.4,4.3,0.7C230.4,121.5,235.6,116.7,229.2,117.1z"/>
	<path class="st1" d="M227.7,116.2c-2.8-2.1-0.4-7.3,1.9-7.3s3,3.7,2.1,4.8c-0.9,1.1-0.6,1.6-1.5,2.5S227.7,116.2,227.7,116.2z"/>
	<path class="st1" d="M232.1,117.1c0-4.4,3-6.3,4.9-5.3c1.9,1,1.8,5-0.9,7.6C233.4,122,232.1,121.3,232.1,117.1z"/>
	<path class="st1" d="M244.8,126.8c-2.7-0.2-7.3,3-8.8,4.6c-1.5,1.5-3.7,3.2-4,5.1c-0.3,1.9,0.6,7.9,1.3,9.6
		c0.7,1.6,4.4,11,7.3,13.1c2.9,2.1,21.9,9,28,8.3c6.1-0.8,14.6-6.8,16.6-8.6c2-1.8,17.1-11.3,19.8-11.1s4.3,0,4.6,0.8
		c0.3,0.8,2.1-1.3,2.1-1.3l-4.2-5l-6.6-5.3l-2.9-1"/>
	<path class="st1" d="M299,135.8l3.2-0.9l10.9,6.8l-0.6,2.8l2.5,2.2c0,0,0.9,3.1,0,3.7s-2.8,1.2-3.7,0.9c-1-0.3-1.5-2.9-1.5-2.9"/>
	<path class="st1" d="M298.3,136.5c2.9,1.9,8.5,6.4,8.9,7.8c0.5,1.4-6.2,1.4-8.9,2.9c-2.7,1.4-4.5,3.4-6.7,3.3
		c-2.2-0.1-9.2-4.2-10.4-5.9"/>
	<path class="st1" d="M240.4,140.6c-1.3-1-3.9,2.1-1.4,8.5c2.4,6.4,6.5,7.5,12.3,9.5c5.8,2,10.6,4.1,14,3.9s13.3-5,13.7-6.2
		c0.7-2.1-1.7-3.4-15-4.8C252.3,150.2,243.8,143.4,240.4,140.6z"/>
	<path class="st1" d="M241.4,141.4c-1.6-0.1-2.1,2.3-1.3,4.6c0.8,2.3,1.5,7.4,8.7,9.9s14.5,4.6,16.5,4.7c2,0.1,4.8,0.6,7.4-0.7"/>
	<path class="st1" d="M248.5,162.6c-1.3,1.2-1.6,2.6-1.1,4.4c0.6,1.8,4.2,7.4,11.7,7.7c7.5,0.3,15.9,0.2,21.1-4.1s9.7-7.2,9.8-9
		c0.1-1.9-0.6-4.7-2.3-4.5"/>
	<path class="st1" d="M284.6,167.5c2.8-0.1,6.9,4.1,7.9,6.3c1,2.2,3.6,10.3,3.2,13.1c-0.4,2.8-7.4,13.7-18.3,16s-22.2,4.5-35.4-6.3
		c-13.2-10.8-6.7-20-5.9-21.8c0.8-1.8,8.4-8.4,11.1-8.9"/>
	<path class="st1" d="M249.3,174.8c-1.3-0.5-4.1,1-6.1,5.2c-2,4.2-3.5,8.1-3.1,10.9s8.3,7.7,11.4,8.4s9.3,1.9,9.7-1.1
		c0.4-3,1.8-10.2,2.4-11.2s0.6-5.6-3.7-7.3C255.7,178,251.6,175.7,249.3,174.8z"/>
	<path class="st1" d="M251,175.5c-2.3,0.4-4.4,2-6.2,6.2c-1.8,4.2-2.9,7.3-2.6,8.4c0.2,1.1,5.9,6.2,10.8,7.3c4.8,1.1,8.2,0.6,8.3,0"
		/>
	<path class="st1" d="M277,176.8c-0.4,0-0.8-0.2-0.9-0.6c-0.2-0.5,0-1.1,0.5-1.3c3.8-1.6,6.3-3.2,6.7-3.7c0.3-0.5,0.9-0.7,1.4-0.4
		c0.5,0.3,0.7,0.8,0.4,1.3c-0.7,1.4-4.5,3.3-7.7,4.7C277.3,176.8,277.1,176.8,277,176.8z"/>
	<path class="st1" d="M279.2,180c-0.4,0-0.8-0.2-0.9-0.6c-0.2-0.5,0-1.1,0.5-1.3c1.8-0.8,6-3.3,6.5-3.9c0.3-0.5,0.9-0.6,1.4-0.3
		c0.5,0.3,0.6,0.9,0.3,1.4c-0.7,1.1-5.8,4-7.3,4.7C279.5,180,279.3,180,279.2,180z"/>
	<path class="st1" d="M280.8,183.1c-0.4,0-0.8-0.2-0.9-0.6c-0.2-0.5,0-1.1,0.5-1.3c1.2-0.5,5.7-3.2,6.8-4.1c0.4-0.3,1.1-0.3,1.4,0.2
		c0.3,0.4,0.3,1.1-0.2,1.4c-1.3,1.1-5.9,3.8-7.3,4.4C281.1,183.1,280.9,183.1,280.8,183.1z"/>
	<path class="st1" d="M283.3,186.5c-0.4,0-0.8-0.2-1-0.5c-0.3-0.5-0.1-1.1,0.4-1.4c0.9-0.5,5.2-3.6,6.2-4.5c0.4-0.4,1-0.4,1.4,0
		c0.4,0.4,0.4,1,0,1.4c-1.1,1-5.4,4.2-6.6,4.8C283.6,186.4,283.4,186.5,283.3,186.5z"/>
	<path class="st1" d="M285.1,189.8c-0.4,0-0.8-0.2-1-0.5c-0.3-0.5-0.1-1.1,0.4-1.4c1.3-0.7,4.7-3.4,5.8-4.5c0.4-0.4,1-0.4,1.4,0
		c0.4,0.4,0.4,1,0,1.4c-1.3,1.2-4.8,3.9-6.3,4.8C285.3,189.7,285.2,189.8,285.1,189.8z"/>
	<path class="st1" d="M287.5,193.5c-0.3,0-0.7-0.1-0.9-0.4c-0.3-0.4-0.3-1.1,0.2-1.4c1.4-1.1,4.9-4.5,5.2-4.9
		c0.3-0.5,0.9-0.6,1.4-0.3c0.5,0.3,0.6,0.9,0.3,1.4c-0.3,0.5-4.2,4.2-5.6,5.3C287.9,193.5,287.7,193.5,287.5,193.5z"/>
	<path class="st1" d="M301.8,148.8l-10.4,8.2v3c0,0,0.5-0.2,0.9,0c0.3,0.2,9.5-6.9,9.5-6.9"/>
	<polyline class="st1" points="309,148.2 309.4,151.5 304.8,155.8 293.8,160.9 291.4,160 	"/>
	<path class="st1" d="M293.8,160.9c0,0-1.5,1.2-1.3,3c0.2,1.9,0,3.4,3.2,4.4c3.3,1,11-4,11.5-6.5c0.5-2.5-0.2-5.2-3.6-5.4"/>
	<polyline class="st1" points="296.7,168.4 295.7,174.7 296.2,176.9 306.1,191 307.4,191.6 313,187.4 313,169.8 311,167.5 
		305.7,164 	"/>
	<line class="st1" x1="311" y1="167.5" x2="295.7" y2="174.7"/>
	<line class="st1" x1="296.2" y1="176.9" x2="313" y2="169.8"/>
	<polyline class="st1" points="307.4,191.6 306.5,193.5 306.9,197 309.4,198.7 314.1,197 317.2,198.7 320.1,197.5 321.6,193.5 
		320.7,189.8 316.4,186.8 313,187.4 	"/>
	<polyline class="st1" points="309.4,198.7 309.4,241.2 311,242.7 320.3,240.7 322.1,238.7 322.1,222.7 317.2,198.7 	"/>
	<polyline class="st1" points="313,242.7 310.4,244.6 314.6,264.9 318.5,266 321.6,244.8 319.8,240.8 	"/>
	<path class="st1" d="M314.4,264.1c0,0-5.7-0.4-7.3,0c-1.7,0.4-4.5,6.3-4.4,7.8c0.1,1.5,1.3,3.4,3.1,2.5c1.8-0.9,4.5-7.3,6.1-6.2
		c1.5,1.1,3,6.6,1.1,8.1s-6.4,7.4-4.4,9.5c2,2.1,7.6-1.5,9.3-5.8c1.8-4.3,0.6-14,0.6-14"/>
	<path class="st1" d="M318.8,274.4h2.7l5.3,5.5c0,0,0.3,3.5,0,5.3c-0.3,1.8,2.5,2.8,3.7,0c1.2-2.8,1.2-7.8,1.2-7.8l-7.6-11.3l-5.3-1
		"/>
	<polyline class="st1" points="233.2,145.5 228.7,145.5 226,147.1 219.6,159.6 	"/>
	<polyline class="st1" points="219.6,168.4 233.7,161.8 236.1,159.6 237.3,154.5 	"/>
	<line class="st1" x1="236.1" y1="159.6" x2="228.7" y2="145.5"/>
	<line class="st1" x1="233.7" y1="161.8" x2="226" y2="147.1"/>
	<polygon class="st1" points="218.7,161.5 219.6,164 219.2,169.8 214.2,171.1 210.3,168.4 210.3,163.3 214.9,161.1 218.3,159.6 	"/>
	<polygon class="st1" points="211,160.9 207.8,156.4 208.3,120.4 214.2,119.9 219.6,145.5 218.3,159.6 211.7,161.5 	"/>
	<polygon class="st1" points="209.6,119.9 207.4,118.4 208.5,95.5 212.5,95.1 215.5,116.9 213.7,119.9 	"/>
	<path class="st1" d="M212.5,95.1l2.5-4.7c0,0,5.7-3.5,6.7-5.2c1-1.7,1.1-7.2-3-4.6c-4.1,2.5-6.3,7-8.8,7.4c-2.5,0.4-9.7,0.5-9.6-2
		s1.7-7.1,0.4-10.1c-1.2-3-5.2,0-5.4,5.2s-0.6,12.4,8,12.2c1.5,0.8,5.2,2.3,5.2,2.3"/>
	<path class="st1" d="M203.4,87.9c-0.5-2.9-1.8-16,1.2-16.3c3-0.4,5.9,3.6,5.6,7.7c-0.3,4.1-4.4,2.9-4.8-0.2"/>
	<path class="st1" d="M207.8,81.8c0,0-1.2,1.8,0.9,2.8s3.6,0.9,4.9,0.5"/>
	<path class="st1" d="M243.8,198l-1.1,2.8l0.5,4l13,8.9l5.2,1.2l3.4-0.8c0,0,0.6-4,2.4-5c1.8-1,5-0.7,7.6,1.3s4.3,0.2,4.3,0.2l8-7.1
		l5.2-5.4c0,0,3.4-4.5,3.5-6.4c0.1-1.9-0.9-2.6-0.9-2.6"/>
	<path class="st1" d="M238.4,193.2c-2.3-0.8-3,1.3-3.1,2.7c-0.1,1.4,3,7.1,4.8,7.8s2.6,1.3,3.1,0.7"/>
	<path class="st1" d="M240.1,203.7c0.5,2.1-3.3,8.5-8.1,7.5c-4.8-1-4.4-7.2-3.3-9.7c1.1-2.6,3.6-4.8,6.9-4.3"/>
	<polyline class="st1" points="218.2,198.7 227.6,210.4 232.4,211.3 	"/>
	<path class="st1" d="M232.4,197.1l-0.4-2.5l-12-8.1c0.7,4.1-1.1,12.1-2.3,12.2c-2.3,0.2-9.6-4.5-9.9-7c-0.3-2.5,0.7-6.8,5.2-7.4
		c4.5-0.6,6.6,0.3,7,2.2"/>
	<path class="st1" d="M209.5,194.1c-1.8,0.3-1.7,3.9-1.7,3.9s3.2,6,2.5,9.4c-0.7,3.4-3,12.8-2.5,14s3.3,0.5,4.4,0
		c1.1-0.5,7.9-12.8,7.5-17.2c-0.5-4.4-1.9-5.6-1.9-5.6"/>
	<polyline class="st1" points="212.1,221.4 217.7,223.1 220.7,229.4 217.7,232.5 214.9,231.1 214.9,228 211.1,226.9 203.9,229.7 
		202.1,232.5 198.7,233.2 195.6,230.9 196.9,227.3 207.8,221.4 	"/>
	<path class="st1" d="M278.4,212.2c-4.9-0.3-7.9,1.1-8.7,4c-0.7,3-1.2,7.8,7,8.3c8.3,0.5,8.4-4.9,7.7-6.2
		C283.7,216.9,281.4,212.3,278.4,212.2z"/>
	<polyline class="st1" points="274.4,224.1 270.4,225.1 268.6,231.3 272.9,249.1 277.1,250.7 281.2,249.6 283.2,245.4 284.4,226.9 
		281.3,224.1 	"/>
	<polyline class="st1" points="272.5,247.4 267.8,247.9 264.7,250.7 264.7,253.4 272.5,256.2 274.5,263 278.1,266.4 279.7,266.4 
		282.5,263.3 284,255.7 289.4,252.7 291.1,249.9 290.1,247.4 282.9,246.1 	"/>
	<path class="st1" d="M264.7,214c-2.1,2.2-3.1,10.9,0,13.3c3.1,2.4,4.6-0.5,5.3-1"/>
	<path class="st1" d="M285.6,204.7l3.3,7c0,0-0.5-6.8,1.7-7c2.2-0.2,4.2-1,4.1-2.1c-0.1-1.1-3.2-1.3-3.6-3.5"/>
	<path class="st1" d="M295.7,204.7c-1.3-0.6-3.7-0.6-5.1,0.7c-1.5,1.4-3.5,9.8,2.6,10.6c6,0.8,5.4-6.5,4.7-8.3
		S295.7,204.7,295.7,204.7z"/>
	<polyline class="st1" points="294.7,203.9 299,194.5 302.7,192.7 309.4,201.9 	"/>
	<polyline class="st1" points="298.4,212.6 303.4,203.9 299,194.5 	"/>
	<polyline class="st1" points="302.7,192.7 303.4,203.9 309.4,217.3 	"/>
	<path class="st1" d="M322.7,224.5c0.3,0.3,3.5,1,3.5,1l2.8-1.9v-1.9l-7.7-3.5"/>
</g>
</svg>
