
<svg id="bp-493" viewBox="0 0 527 318">
	<style type="text/css">
		.st0{fill:#eee6;stroke:#999;stroke-miterlimit:10;}
		.st1{fill:none;stroke:#999a;stroke-miterlimit:10;}
</style>
<g>
	<path class="st0" d="M212,111.5c0,0.2,0,0.5-0.1,0.7c-0.4,5.6,3.6,8.4,5.3,9.6c0.4,0.3,0.8,0.6,1.1,0.9c0.8,0.6,1.6,1.3,2.6,1.7
		c-0.2,0.2-0.3,0.5-0.4,0.8c-0.2,0.9,0.1,2.1,1.1,2.6c0.2,0.1,0.4,0.2,0.6,0.2l-15.8,26.6c-0.4,0.2-0.9,0.5-1.3,0.8
		c-2.8,2-3.7,6.2-3.1,9.3c0.5,2.6,1.8,4.5,3.8,5.1c0.7,0.2,1.5,0.3,2.2,0.3c1.4,0,2.8-0.4,4-1.3c0.1-0.1,0.2-0.2,0.4-0.3
		c0,0.1,0,0.3,0,0.4c0.1,0.4,0.3,0.9,1.2,1.1c0.1,0,0.2,0,0.3,0c2.2,0,9.9-3,15.7-5.7c1.3,3,4.2,7.5,8.2,11.4c2.1,2.1,4.9,4.4,8.2,6
		c-1.8,1-4.1,3.2-4.2,5.7c0,1.2,0.3,2.4,0.7,3.4v3l1.7,6.8c-0.6,0.7-2.5,3.5-2.9,9.9c-0.9,14.4,10.3,19.2,16.3,19.8
		c0.4,0,0.8,0.1,1.4,0.1c3.4,0,10.4-1,15.5-8.5c6.2-9.2,3.3-20.1-2.8-26.1c-1.4-1.4-2.9-2.4-4.4-3.1v-3.1l-1.5-2.1l0.5-3.1
		c0.1,0,0.3,0,0.7,0c2.1,0,8.7-0.7,19-7.6c7.8-5.3,11.1-12.8,12.5-19.2c0.4,0.1,0.9,0.2,1.4,0.2c0.4,0,0.7-0.1,1.1-0.2
		c0.5-0.2,0.9-1,1.1-2.1l9.3-5.6l0.2-0.5c0.6,0.5,1.5,1.1,2.7,1.1c1.3,0,2.5-0.5,3.3-1.4c1-1,1.5-2.5,1.5-4.1c0-1.3-1-3.5-3.3-4.6
		l1.5-2.3l-4.6-23.2c0.4,0.1,0.8,0.1,1.2,0.1c1.4,0,2.8-0.4,3.6-1.4c1.8-0.1,5-2,6.3-3.4c0.6-0.6,0.9-1.2,0.9-1.6
		c0-0.4-0.2-0.8-0.5-1.2c0.6-0.4,1-1.2,0.9-2c0-1.3-1.1-4.4-9.9-7.5l0.6-1.9c0.2-0.7,0-1.5-0.5-2.3c-1.4-1.9-4.7-3.5-6.2-3.6
		c-0.6,0-1.6,0.1-2.6,0.5c-1.4-1.6-5.5-2.3-8.3-1.8c-0.5,0.1-1,0.2-1.5,0.3l0.4-0.4c-1-1-2.7-1.5-4.5-1.3c-1.8,0.2-3.5,1-4.2,2.2
		c-0.2,0.4-0.5,0.8-0.6,1.2c-5.4-0.7-26.2-0.7-30.4-0.7c0,0,0,0,0,0c-7.3,0-23.6,1.3-28.1,1.8c-0.8-0.7-2.1-1.4-3.7-1.2
		c-0.6,0-1.2,0.4-1.5,0.6c-0.3-0.1-0.6-0.2-0.9-0.3c-1.4-0.3-3.3,0.4-4.3,1.5c-0.5-0.1-1.1-0.1-1.7,0.1c-1.2,0.3-2.1,1-2.3,1.9
		c-5.3,1.8-8.2,5-8.4,9.4C206.3,109,211.1,111.2,212,111.5z M305.7,116.6l2.1,23.5l1.8,1.1c-0.3,0.3-0.5,0.6-0.6,0.9l0,0l-6.3,2
		c-0.2-0.9-0.6-1.6-1.2-2.1c-0.7-0.6-1.8-0.7-3-0.5c-1.2-5.8-3.9-13-9.4-16l-0.3-0.1l-0.2,0.2c-0.2,0.1-0.3,0.2-0.5,0.4
		c-0.2,0.2-0.5,0.4-0.9,0.6v-2.9c0.4-0.3,0.8-0.6,1-0.9c0.5-0.6,0.4-1.2,0.3-1.4c-0.2-0.9-1.6-2.4-4.1-3.2
		c10.8-0.7,19.1-1.6,20.1-1.7C304.8,116.5,305.2,116.6,305.7,116.6z M215.1,158.3c1.1-1.5,12.9-24.9,14.2-27.5c0.1,0,0.1,0,0.2,0
		c0.1,0,0.2,0,0.2,0c2,0,4.8-3.1,5.6-4.4c0.6-1,0.6-2.3,0.1-3.2c-0.4-0.6-0.9-1-1.6-1.2c0.3-1.2,0-3-3-5.3c-0.1-0.1-0.2-0.2-0.3-0.3
		c0.7,0.1,5.9,0.8,13.3,1.4c-2.5,1.1-4.1,2.9-4.2,4c0,0.3,0.1,0.6,0.5,0.9c0.2,0.2,0.7,0.5,1.3,0.9v2.9c-0.4-0.2-0.7-0.4-1-0.5
		l-0.3-0.2l-0.3,0.2c-13.1,10.6-12.6,25.1-12.2,29.4C222.7,156.1,216.8,157.5,215.1,158.3z M256.8,183.5l0.5,3l-2.1,5.1
		c-0.9,0.2-1.6,0.5-2.2,0.7c-0.4-2.9-0.6-5.2-0.7-5.7l0-0.4c-0.1-0.9-0.2-2-0.9-2.8c0.6,0.1,1.2,0.2,1.9,0.2
		C254.4,183.8,255.6,183.7,256.8,183.5z M266.9,183.4L266.9,183.4C266.9,183.4,266.9,183.4,266.9,183.4L266.9,183.4z"/>
</g>
<g>
	<path class="st1" d="M220.9,94c0,0-1.5-1.4-3.6-0.9c-2.1,0.5-2.5,2.3-1,3.1c1.5,0.8,4.8,0.5,8.1,0c3.3-0.5,5.1-1.7,5.3-2.5
		c0.2-0.8-1.7-2.7-4.1-2.5c-0.8,0.1-1.5,0.6-1.5,0.6"/>
	<path class="st1" d="M219,93.1c0.7-1,2.7-1.8,4-1.5c1.3,0.3,3,1.5,3,1.5"/>
	<path class="st1" d="M215.3,94.9c-4.7,1.5-8.2,4.3-8.3,9.1c-0.2,4.8,4.3,6.8,5,6.9"/>
	<path class="st1" d="M215.3,104.3c0,0-0.9-0.2-0.9-2.6c0-3.8,12.5-6.1,16.1-6.4c7.5-0.5,34.1-3.2,57-0.6"/>
	<path class="st1" d="M305.9,99.2c4.8,0.8,7.2,2.6,7,3.7c-0.2,1.1-13.4,3.6-17,4.2c-3.6,0.6-4.8,2.6-5.3,3.8
		c-0.5,1.2-38.4,0.8-40.9,0s-2.5-3-3.3-3.1c-0.8-0.2-4-1.2-6.8-1.1"/>
	<path class="st1" d="M230.5,115.9c3.4,0.5,22.3,2.8,39.8,2.3s34-2.3,34-2.3"/>
	<path class="st1" d="M311.3,114.1c2,0.7,4.7,0.7,6-1c1.2-1.7,0.9-4.6-1.1-5.6"/>
	<path class="st1" d="M317.2,113.2c2,0.1,7-3.2,6.9-4.5c-0.1-1.3-2.2-3-6.9-3c-4.7,0-14.8,4.1-15.7,5.4c-1,1.2-1.5,3.4,3,4.8
		c2.2,0.7,6.2,0.1,6.6-1.2s1.4-3.5-0.7-5.4"/>
	<path class="st1" d="M323.3,107.3c2.1-0.7,3.2-5.5-10.9-9.8"/>
	<path class="st1" d="M312.5,97.6c-1.3-1.2-6.3,1.2-8,2.2c-1.8,0.9-6.3-1.2-4.4-4.1s7-5,9-4.8c2,0.1,7,2.8,6.3,5.2s-0.7,2.4-0.7,2.4
		"/>
	<path class="st1" d="M306.3,91.3c-1-1.5-5-2.4-8-1.9c-3,0.6-5.6,1.9-5.8,3.4s0.6,4,2.3,4.2c1.8,0.2,4.8,0,4.8,0"/>
	<path class="st1" d="M296.7,89.2c-2.1-2-6.6-1.3-8,0.8s-3,7,4.4,5.9"/>
	<path class="st1" d="M231.8,104.7c-0.7-1.4-2.8-3.8-6.8-2.3c-4.1,1.5-7.3,6-7.6,8.5c-1.2,0.2-2.2,0.8-2,2.7"/>
	<path class="st1" d="M223.9,102.9c-1.1-2.1-4-2.1-6.3,0s-4.8,4.1-5.2,9.3s3.2,7.8,5.1,9.1c1.9,1.3,3.2,3.2,6.4,3s4.5,0,6.1,0
		c1.7,0,6.6-2.6,0.5-7.2c-1.2-0.9-2.2-3.5,0.9-5.4c3.1-1.9,8.1-0.6,8.1-2.8s-1-5.1-5.5-4.6c-4.5,0.5-9.4,2.4-10.9,7.4l-0.7,2.9
		c-1.8-0.4-1.8,0.5-2.1,2"/>
	<path class="st1" d="M233.2,122.4c2.1,0,2.7,2.2,1.8,3.8c-0.9,1.5-3.7,4.4-5.3,4.2c-1.6-0.2-2.8-2.4-4.2-2.9
		c-1.4-0.4-2.2,0.4-3.5-0.2c-1.3-0.7-1-2.9,0-3"/>
	<path class="st1" d="M223.1,127.5L207,154.7h1.3c0,0,1.1-1.3,2.1-0.8c1,0.6,0.1,3.2,0.8,4.2s2.8,0.9,3.9-0.7
		c1.1-1.5,14-27.1,14-27.1"/>
	<path class="st1" d="M211.2,158.1c-1-1.4-1.5-5.4-5.7-2.3c-4.2,3.1-4.2,12,0.6,13.4c4.7,1.4,8.3-2.3,8.4-5.3
		C214.6,161,212,159.4,211.2,158.1z"/>
	<path class="st1" d="M215.3,165.2c-1.7,1.4-3.6,3.8-1.6,4.4c2,0.6,22.5-8,22.5-9.5c0-1.4,2-4.3-2.3-4.6s-16,2.1-18.5,3.3
		s-0.5,3.1,0,4.2C215.8,164.1,216.1,164.6,215.3,165.2z"/>
	<path class="st1" d="M232.3,155.4c0-2.6,2.2-4.7,5.7-4.2c3.5,0.6,4.6,3.9,4.6,6.3s-1.9,7.8-5.2,7.8c-2.5,0-3.9-1.4-4.6-3.1"/>
	<path class="st1" d="M229,155.7c0.1-3.2,2.9-10.6,8.5-10.3c5.6,0.3,12,4.7,11.6,12.1s-5.3,13.2-9.5,13.1c-4.2-0.1-8.3-3-9-7.2"/>
	<path class="st1" d="M266.4,184c0,0,7,0.9,19.4-7.5s13.1-22.5,13.1-27.2c0-4.7-2.1-18.9-10.1-23.3c-1.7,1.1-6.8,5.5-21.9,5.9
		c-15.1,0.4-22.7-3.3-26.8-5.5c-12.3,10-12.6,23.8-12,29"/>
	<path class="st1" d="M229.9,163.7c2.4,5.8,11.9,18.8,23.4,19.5c11.4,0.7,19.8-11.3,19.8-11.3l4.4-1.2h5.4l1.7,0.8c0,0,0,1.4,0,2.1
		c0,0.7-10.5,9.5-17.9,10.5"/>
	<path class="st1" d="M273.1,171.9c2.7-0.7,9.4,0,9.4,0v1.4c0,0-9.4,8-15.6,9.7"/>
	<polyline class="st1" points="267.5,177.8 269,179.7 265.9,184 265.3,187.7 266.8,189.8 266.8,193.9 	"/>
	<polyline class="st1" points="261.5,181.6 261.2,185.8 257.5,191.6 	"/>
	<path class="st1" d="M247.2,181.7c-1.6,0.6-4.8,3-4.8,5.7c-0.1,2.8,1.4,5.3,3.2,5.6c1.8,0.3,3.6-1.7,3.5-4.7c0-3-0.4-3.9-1-4.3
		c1-0.2,1.8-1.3,1.8-1.3"/>
	<path class="st1" d="M249.6,183c2,0.4,2,2.3,2.2,3.7c0.2,1.4,2.5,20.6,2.5,20.6v3l-2.7,4.2l-2-0.2l-1.9-2.6l-4.6-17.8v-3.1"/>
	<path class="st1" d="M248.7,184c0.8,0.7,1.3,1.5,1.5,3.4s3.1,22.8,3.1,22.8l-1.7,4.3"/>
	<path class="st1" d="M245.8,184.8c-0.6-0.1-1.9,1.1-1.8,2.7s0.6,3.7,1.5,3.9c0.9,0.2,2.5-1.6,2.3-3.9S246.8,184.9,245.8,184.8z"/>
	<path class="st1" d="M246.8,185.1c-1.2,0-2.3,3.7-0.3,5.7"/>
	<polyline class="st1" points="257.2,182.9 257.8,186.6 255.6,191.9 	"/>
	<path class="st1" d="M252.5,193.1c2-1.3,12.1-3.7,18.9,3c6.4,6.4,8.5,17,2.8,25.5s-14,8.5-16.4,8.3c-2.4-0.2-16.9-2.9-15.9-19.3
		c0.4-7.5,2.9-9.8,2.9-9.8"/>
	<path class="st1" d="M253.7,202.6c1.6-1.8,6.7-0.9,6.4,6.3s-3.5,9.2-5,9.4c-1.3,0.1-3,0.3-4.7-3.8"/>
	<path class="st1" d="M255.6,191.9c7.2-1.1,19.7,5.5,19.7,19.5c0,14-14,18.8-18.6,18.3"/>
	
		<ellipse transform="matrix(0.7879 -0.6158 0.6158 0.7879 -66.6192 203.7796)" class="st1" cx="262.5" cy="198.6" rx="1.6" ry="1.1"/>
	
		<ellipse transform="matrix(0.9363 -0.3511 0.3511 0.9363 -54.4585 106.7654)" class="st1" cx="267.1" cy="203.5" rx="3.2" ry="1.1"/>
	<ellipse class="st1" cx="268.4" cy="209.7" rx="3.1" ry="1.6"/>
	
		<ellipse transform="matrix(0.4412 -0.8974 0.8974 0.4412 -45.1064 361.0742)" class="st1" cx="267.4" cy="216.8" rx="1.5" ry="3.3"/>
	
		<ellipse transform="matrix(0.7879 -0.6158 0.6158 0.7879 -81.3163 208.1306)" class="st1" cx="261.5" cy="222.1" rx="1.4" ry="2.4"/>
	<circle class="st1" cx="262.4" cy="147.7" r="2.3"/>
	<circle class="st1" cx="293" cy="142.7" r="1.7"/>
	<path class="st1" d="M247.7,151.5c8.8,2.5,24.1,3.5,33.8,1c10.9-2.8,16.1-4.8,17.3-5.8"/>
	<path class="st1" d="M249,155.4c6.1,1.2,15.7,2.3,25.6,1.7c9.9-0.7,21.1-4.9,24.2-6.8"/>
	<path class="st1" d="M247.9,163c3.5,2.4,18.9,5.2,30.7,3.2c11.8-2,17.7-5.3,18.7-5.9"/>
	<path class="st1" d="M246.2,166.2c2.8,1.1,8.4,2.7,10.3,3c5.4,0.8,4.4,2.3,3.1,3.6c-1.1,1.1-8.5,8.6-17.3,6.2"/>
	<path class="st1" d="M246.8,117.5c-3.9,0.3-6.6,3.1-6.7,4.3s9.8,6.9,28.9,5c19.1-1.9,19-4.5,18.9-5.4c-0.2-0.9-2.7-3.4-7.6-3.6"/>
	<line class="st1" x1="241.9" y1="123.3" x2="241.9" y2="127.2"/>
	<line class="st1" x1="286.6" y1="123.3" x2="286.6" y2="127.2"/>
	<ellipse transform="matrix(0.9586 -0.2849 0.2849 0.9586 -24.5352 85.682)" class="st1" cx="282.2" cy="127.2" rx="3.7" ry="1.6"/>
	<ellipse class="st1" cx="265.3" cy="129.6" rx="4.2" ry="1.5"/>
	<path class="st1" d="M298,142.1c2.1-0.5,4.1-0.2,4.3,3.3c0.1,3.5-0.2,11.4-1.5,11.9c-1.3,0.5-2.7-0.3-2.7-0.3"/>
	<polyline class="st1" points="302.3,144.7 308.8,142.7 311.1,144.1 311.7,147.7 310.9,149.7 301.7,155.3 	"/>
	<line class="st1" x1="302.3" y1="152.4" x2="311.7" y2="147.7"/>
	<path class="st1" d="M309.3,143c-0.2-1.1,2-3.2,4.9-2.5s4.2,3.1,4.3,4.7c0.1,2.1-1.2,4.9-4.3,4.9c-1.7,0-2.9-1.5-2.9-1.5"/>
	<polyline class="st1" points="310.4,141.2 308.2,139.8 306.2,116.2 	"/>
	<polyline class="st1" points="315,140.7 316.7,138.1 312,114.4 	"/>
	<polyline class="st1" points="313.9,140.4 314.6,136.7 310.9,115 	"/>
	<path class="st1" d="M229,92.5c4.5-0.5,21-1.8,28.3-1.8c7.3,0,26.3,0.1,30.6,0.8"/>
	<ellipse class="st1" cx="253.3" cy="223.6" rx="1.1" ry="1.6"/>
	
		<ellipse transform="matrix(0.6581 -0.7529 0.7529 0.6581 -80.4331 261.6625)" class="st1" cx="247.9" cy="219.4" rx="1.5" ry="0.9"/>
	<path class="st1" d="M252.2,213.6c0.1,1.3,0.8,2.4,2.1,2.2c1.2-0.1,3.3-3.2,3.2-6.2s-0.9-4.5-1.9-4.5c-1,0-1.4,1.3-1.4,1.3"/>
	<path class="st1" d="M253.3,211.9c0,0,0.2,1.1,1.1,0.9s1.2-1.3,1.2-2.7s-1-1.7-1.1-1.4"/>
</g>
</svg>
