
<svg id="bp-516" viewBox="0 0 527 318">
	<style type="text/css">
		.st0{fill:#eee6;stroke:#999;stroke-miterlimit:10;}
		.st1{fill:none;stroke:#999a;stroke-miterlimit:10;}
</style>
<g>
	<path class="st0" d="M334.4,196.1c0.7-0.8,1.3-1.8,1.8-2.7c1.2-2.6,1.3-6.5-0.1-8.4c0.4-0.1,0.7-0.4,0.9-0.8c1.3-2,0.1-7.5-1.3-9.5
		c0.4-0.4,0.8-1,1-1.8c0.8-2.9,0.1-7.8-2.3-10c0.3-0.1,0.6-0.2,0.8-0.4c2.4-1.5,1.3-7.1,0.2-9.1c-0.3-0.6-0.5-1.1-0.7-1.6
		c-0.2-0.6-0.5-1.2-0.8-1.7c0.2-0.1,0.5-0.2,0.7-0.4c0.7-0.6,1-1.8,0.8-3.9c-0.2-2.5-1.2-6.8-2.1-7.3c-0.4-0.2-0.7-0.4-1-0.6
		c0.6-0.9,0.7-3.1,0.1-4.5c-0.3-0.6-0.8-2.3-1.4-4.2c-2.3-7-3-8.9-3.6-9.3c-0.5-0.3-1.2-0.3-1.9-0.2c0.5-0.9,0.8-2,0.9-3.4
		c0.2-2.1-1.1-3.9-2.2-5c-2.2-2.2-5.6-3.6-7.8-3.4c-2.2,0.3-3.9,1.5-4.6,2.1c-2.1-2.3-11.3-8.3-17.9-9.3c0.2-1.3,0-2.1-0.6-2.4
		c-0.2-0.1-0.5-0.2-1,0.1c0.2-0.6,0.3-1.2,0-1.8c-0.3-0.5-0.9-0.8-1.8-0.9c1.8-0.5,3.8-1.3,6-2.3c3.3-1.5,6.1-3.4,8.5-5.5l1.7,3.3
		l2,1.1l2.7-0.9l2.1-4.2l-2-6.3l-0.3,0.1c2.5-3.8,3.7-7.5,3.7-10c0-3.7-0.9-6.9-2.8-10.1V57h5.7l14.3-16.1v-5.1l-2.4-2.4h-3.2
		l-17.9,11.2l-1.1,6.6l-3.8,0.7c-1.5-1.1-3.1-2.3-4.9-3.5c-14.5-9.5-33,0.6-35.1,1.7c-1.1,0.6-2.7,1.8-4.4,3.5l0.2-8L244,33.2
		l-4.3,0.8l-1,4.8l0.6,2.6l10.7,16h4l0.3,1.5l0.4-0.1c-2.1,2.9-3.9,6.4-4.6,10.2c-0.8,4.2-0.2,8.2,1.8,12l-2.1,3.5L250,91l2.4,1.3
		h3.1l1.1-2.5l0.3-2.3c4.5,4.4,10.1,7.4,16.5,8.8c-0.4,0.2-0.8,0.7-0.9,1.3c-0.1,0.4-0.1,1,0.2,1.8c-0.7,0.1-1.6,0.6-2.3,1.9
		c-1.1-0.8-2.8-0.8-4.6,0.2c-0.6,0.3-2.5,1.5-4.8,3.1c-1.3,0.5-2.6,1.5-3.7,2.6c-1.7,1.2-3.3,2.4-4.5,3.4c-1.3-2.3-4.3-3.9-7.2-3.6
		c-2.1,0.2-4.4,1.8-5.6,3.9c-0.8,1.3-1.5,3.4-0.5,6c-1.4-0.8-2.8-0.7-4.1-0.5h-0.1c-1.6,0.2-7,1-7.5,3c-0.1,0.5,0,0.9,0.2,1.3
		c-1.1-0.1-2.1-0.1-3,0.4c-0.9,0.4-1.4,1.5-1.7,2.9c-0.6-1-1.2-1.5-3-1.6c-0.7,0-1.5-0.2-2.1-0.4c-0.9-0.2-1.6-0.4-2.1-0.2
		c-0.3-0.6-0.7-0.9-1.4-1.4c-0.3-0.2-0.7-0.5-1.3-1c-0.1-0.1-0.2-0.2-0.4-0.4c-0.7-0.7-1.9-1.8-3.3-1.8c0.4-2-0.1-5-1-6.7
		c-0.5-1-1.1-1.6-1.8-1.7c1.5-2.8,0.8-6.8,0.4-8.5c-0.2-1-0.6-2.3-1-3.2c0.8,0.2,1.8,0.3,2.9,0.3c0.4,0,0.9,0,1.3-0.1
		c0.9-0.1,1.7-0.7,2.4-1.8c1.4-2.2,2-5.8,1.4-7.9c-0.4-1.4-1.5-2-2.9-1.8c-1.4,0.3-2.7,1.5-2.6,3c0,0.1,0,0.4-0.4,0.8
		c-1.1,1-4,1.5-5.9,1c-0.2-0.1-0.5-0.1-0.8-0.2c0.4-2.4,4.1-4.3,5-4.4c1-0.1,1.7-1.7,1.6-3.1c-0.1-0.7-0.5-3.1-3.7-2.9
		c-4.5,0.2-7,4.4-8,6.9c-0.3-0.5-0.5-1.1-0.6-1.7c-0.2-2.2,1.9-3.2,3.7-4.1c0.6-0.3,1.1-0.5,1.6-0.8c1-0.7,1.4-2.3,1-3.8
		c-0.6-1.9-2.1-3-4.1-3c-4.1,0-8.8,5.6-9.4,9.9c-0.5,3.9,2.2,8.1,5.3,10.2c-1.6,0.9-2.9,4.2-3.6,7.1c-0.9,3.9-1.1,8.8,1,10.9
		c-0.5,0.7-0.3,2.1-0.2,3.4c0.1,0.8,0.2,1.6,0.1,2.1c-0.2,1.6,2.6,5.1,5.1,6.6c-0.2,0.1-0.4,0.2-0.6,0.4c-0.3,0.3-0.4,0.7-0.4,0.9
		c0,2,6.7,9,8.6,9.6c0.3,0.1,0.6,0.1,0.8,0.1c0.6,0,1.1-0.2,1.5-0.5c0.8,2.6,4.3,3.3,7.4,3.9c0.4,0.1,0.8,0.2,1.2,0.2
		c2,0.4,3.6,0.6,4.9,0.6c1.4,0,2.3-0.2,2.9-0.7c0.2,0.2,0.6,0.4,1.2,0.4c0.1,0,0.3,0,0.4,0c1.5-0.2,8.9-1.8,10-5.3
		c1.6-0.3,5.4-2.2,7-3.3c1.1-0.8,1.7-1.8,2-3c0.1,0.2,0.3,0.4,0.5,0.6c1.3,0.6,4.5-0.4,6-2.4c1-1.3,1.4-2.6,1.5-3.6
		c1.9,2.3,6.5,6.6,12.2,9.6c0.8,0.4,1.8,0.7,2.8,1l-1.6,1.7v2.2l0.2,0.1c0,0,0.3,0.2,0.6,0.4c-3.2,1.3-8.1,5.1-8.5,7.3
		c-0.5,2.4,0.6,4.2,0.6,4.3c0.2,0.3,4.1,5.3,12.9,7.2l-0.9,1.7l0.3,0.5c-2.7,0.8-8.1,3.2-9.1,5.3c-1,2.2,0,3.8,0,3.9l0.1,0.1
		c0.2,0.2,2.8,2.8,6.9,5l-0.7,0.8c-3.6,0.1-16.8,3.4-20.3,6.6l0.1-0.3v0.1c-0.9,3.2,0.4,5,0.6,5.2c0.8,1.1,2.2,2.3,4,3.5
		c-1.2,1-1.4,2.9-1.1,4.6v0.1l-3.8,3.5v0.2c0,0.4,0.3,10.4,1.4,14.9c1.1,4.5,4,10,5,10.8l0.1,0.1c0.5,0.2,1.2,0.3,1.8,0.3
		c-0.8,1.5-0.8,3.7-0.8,3.9c0,0,0.5,2.7,2.6,4.6c-1.7,1.2-3.1,4.2-3,6.7c0.1,2.7,4.1,15.3,4.7,16.8c0.3,0.7,0.9,1.1,1.7,1.4
		l-1.7,2.3l0.9,2.8l0.1,0.1c0,0,0.1,0.1,0.3,0.2l-1.4,1.3v3.2l0.1,0.1l-6.5,3.5l-2.3,3.6l0.5,2.8l11.1,1.7h0.1l8.3-0.7l6.2-2.5
		l3.2-4.5l-2.6-4.1l-2.9-1.3l-1.2-3.5l-1.6-0.7l-1.6-0.8c0.5-1.2,0.5-2.9,0.5-3V256l-1.5-1.4c0.2-0.2,0.4-0.3,0.5-0.4
		c0.5-0.8,0.1-18.8,0.1-18.9c-0.2-1.2-1.7-3.9-2.6-4.3c-0.2-0.1-0.5-0.2-0.7-0.2c1.2-1.3,1.6-2.8,1.6-2.9v-4.8l-1.4-1.1l2.6-2.5
		v-3.7c1.5-1.8,2.6-5.9,2.7-8.9c0.3-4.8-0.3-6.4-0.8-7.1l0.7-2.9c0.2,0,0.4,0.1,0.6,0.1c0.6,0,1.3-0.2,2-0.4l-0.2,0.1
		c0.7,1.2,2.7,1.9,6,1.9c0.3,0,0.6,0,0.8,0c2.8-0.1,6.1-0.4,7.5-1.8c0.3,0.1,0.6,0.3,1,0.4l-3.2,2.4l0.5,23.1l3.4,2.6l-4.2,2.5
		l-2.5,9.5l2.3,18.3l1.4,1.4c-0.8,0.3-1.8,0.7-2.1,1.2c-0.4,0.7-1,3.7,0.1,4.6c0.1,0.1,0.3,0.2,0.6,0.3l-1.5,1.1l-0.7,2.9l1.8,1.4
		l-4,1.7l-2.9,4.7l-5.6,3.2l0.7,4.4h0.4c5.6,0.8,16.2,2.2,16.5,2.2l0.1-0.5l0,0l0.1,0.4c0.3-0.1,8.5-1.5,12.9-2.3h0.2l2.3-3.3
		l-0.9-3.5l-4.9-2.5l-3.4-4l1.6-2.6l-1.6-3.5l-0.4-0.2c0.5-0.5,0.9-1.1,1.1-2c0.2-0.6-0.2-1.9-0.4-2.6l4.4-2.2l4.4-22.9l-0.6-6.3
		l-1.9-1.7l5.4-1.7l2.2-21.8l-3.2-3.2c0.1-0.1,0.3-0.2,0.4-0.3c0.7-0.7,1.1-1.4,1.1-2v-0.6c0-1.5-0.1-3.1-1.3-3.8
		c3.9-1.8,7-3.7,7.6-4.7c1.9-3.3,0.5-4.9-0.2-5.6c-2.2-2-10.3-8.5-19.8-9l0,0l-1.7-1.4c3.6-1.7,6-3.6,6.4-4.3
		c0.9-1.4,0.7-2.8-0.5-4.2c-0.8-0.9-4-3.7-8.3-5.1c0.4-0.6,0.6-1.4,0.6-1.5l0.1-0.3l-1.8-1.7c8.9-2.8,13.6-8,14-8.8
		c0.6-1.4,0.4-4.2,0-5.1c-1.2-2.3-4.4-4.6-7.8-5.8v-2l-0.6-0.5c3.2-0.9,13.7-5.9,16.3-9c0.5,0.8,1.4,2,3.1,2.3
		c0.5,0.1,0.9,0,1.3-0.1c-1.2,2-2.3,4-2,5.9c0.5,3,1.2,6.9,2.3,8.1c0.3,0.3,0.6,0.4,1.1,0.4c0.1,0,0.2,0,0.3,0
		c-0.7,1.6-1.5,3.9-0.7,6.1c0.8,2.5,1.4,3.8,2.4,4.3c0.2,0.1,0.4,0.1,0.6,0c-0.9,1.5-1.6,3.2-0.7,6.2c0.2,0.7,0.3,1.4,0.4,2
		c0.4,2,0.7,3.7,2.9,4.4c-1.7,1.2-1.9,3.5-1.6,6.7c0.2,2.7,0.5,4.8,1.6,5.7c-0.9,0.3-1.9,0.8-2.4,1.5c-0.8,1.2-1.1,6.5,0.5,8.5
		c-1.4,1.7-1,6.4-0.6,8.7c-1.3,0.1-2.3,0.8-4.2,2.3c-0.8,0.6-1.3,1.9-1.5,3.5c-0.3,2.8,0.4,6.3,1.4,7.6c0.6,0.7,1.3,0.9,2.1,0.7
		c1.3-0.4,2.5-2,2.7-3.2c0.1-0.5,0.1-1.1,0.1-1.8c0-1.4,0-3.8,0.9-4.1c1.3-0.3,1.9,0.3,4.2,3.4c2.2,3,0.4,8.5-2.6,11.8
		c-1.9,2.1-1.9,3.5-1.4,4.4c0.5,1.1,1.9,1.8,3.5,1.8c0.1,0,0.2,0,0.2,0c1.1-0.1,2.5-0.9,3.8-2c0.3,0.6,0.8,1,1.3,1.2
		c0.4,0.2,0.9,0.3,1.5,0.3s1.3-0.1,1.9-0.4c2.7-1,4.3-9.9,4.5-11C339,204.1,337.4,198.1,334.4,196.1z M289.6,198l-0.3-0.1l0.2-0.1
		L289.6,198z"/>
</g>
<g>
	<path class="st1" d="M270.5,102c2,3.7,9.5,3.1,13.2,2.9s9-2.8,9.6-3.9c6.9,0.8,17.4,7.9,18.4,9.6c-1.3,2.5-1.9,9.6,0,11.1
		c-1,2.6-14,9-16.8,9.6c-2.9,0.6-23.9,2.6-30.9-1c-7-3.6-12.2-9.4-12.9-10.6s-0.8-5.6,0-7.2c0.8-1.5,13.1-9.8,15-10.8
		C267.9,100.8,269.6,100.9,270.5,102z"/>
	<path class="st1" d="M251,112.6c1.1,1.9,13.4,10.9,30.1,10c16.6-0.9,27.6-6.6,29.9-10"/>
	<path class="st1" d="M296.9,104h-4.8l-4.1,3.9l1.2,2.6c0,0,5.6-0.1,8.7,1.5c3.1,1.7,4.5,3,4.5,3h3l1.1-2.4c0,0-2.8-5.8-5.1-6.9
		S296.9,104,296.9,104z"/>
	<path class="st1" d="M257.8,113.4l-2.3,0.9l-1.4-0.9c0,0-0.7-2,0-2.4s3.8-4.8,7-6c3.2-1.2,6.1-0.9,6.1-0.9l2.2,2.3v2.2l-3,1.7
		c0,0-2.7-0.4-4.8,0.2C259.5,111.1,257.8,113.4,257.8,113.4z"/>
	<path class="st1" d="M270.5,102c0.9-2,2-2.3,2.6-2.3c0.7,0,4.2,3,9.1,2.3c5-0.7,9-2.2,9.9-3.1s1.5-0.1,1.1,2.1"/>
	<path class="st1" d="M273.6,99.9c-1.3-1.6-0.7-2.9,0-3.3"/>
	<path class="st1" d="M291,99.7c0.6-1.2,2.3-3.6-1.1-3.6"/>
	<path class="st1" d="M282,96.6c-12.6,0-21.8-5.5-27.4-12.7c-11.9-15.1,4.6-30.7,9.5-33.5c5.4-3.1,21.8-10.1,34.6-1.8
		c12.8,8.4,15.8,15.1,15.9,22.1c0,5.7-6,16.4-18.2,22C288,96.7,282,96.6,282,96.6z"/>
	<ellipse class="st1" cx="276.6" cy="62.4" rx="3" ry="3.7"/>
	<ellipse transform="matrix(0.9759 -0.2183 0.2183 0.9759 -10.9087 59.45)" class="st1" cx="263.6" cy="79.1" rx="3.1" ry="4.6"/>
	<ellipse transform="matrix(0.307 -0.9517 0.9517 0.307 126.2749 332.3397)" class="st1" cx="291.3" cy="79.5" rx="4.7" ry="2.9"/>
	<polyline class="st1" points="252.5,81 250.3,84.5 250.5,90.6 252.5,91.7 255.2,91.7 256.2,89.5 256.5,86.3 	"/>
	<polyline class="st1" points="305.2,87.1 307,90.8 308.7,91.7 311,90.9 312.9,87.1 311,81 	"/>
	<polyline class="st1" points="311.7,60.9 311.7,56.3 317.6,56.3 331.6,40.6 331.6,35.9 329.5,33.8 326.6,33.8 309,44.8 307.9,51.5 
		303.6,52.3 	"/>
	<polyline class="st1" points="317.6,56.3 312.3,54.7 310.5,50.9 310.5,46.4 328,35.2 331.6,35.9 	"/>
	<polyline class="st1" points="258.8,54.8 259.1,45.8 243.9,33.8 240.1,34.4 239.2,38.8 239.8,41.4 250.3,56.9 254.4,56.9 
		254.9,58.8 	"/>
	<polyline class="st1" points="250.3,56.9 255,53.5 256.5,47.3 242.3,35.2 240.1,34.4 	"/>
	<path class="st1" d="M235.2,116.7c2.3-0.3,4.5-0.6,6.6,3.8s1.5,7.1-0.7,8.7c-2.2,1.6-6.5,3.4-7,3.2c-0.6-0.2,0.8-6.6-0.8-8.5
		c-1.5-1.9-5.6-2.9-5.2-4.6C228.5,117.6,235.2,116.7,235.2,116.7z"/>
	<path class="st1" d="M229.5,121.3c-1.7-0.5-3.2-0.6-4.5,0s-1.9,3.7-1.4,6.8c0.4,3.1,0.7,5.6-0.1,7s-0.8,2.8,0.9,2.5
		c1.8-0.2,9.1-2,9.7-5.3"/>
	<path class="st1" d="M223.5,125.3c-1.1-1.8-1.2-2.5-3.3-2.6s-4.4-1.4-4.3,0c0.1,1.4,0.9,5.5-2.1,6.5s-7.8,1.6-7,4.3
		c0.8,2.8,5.1,3.2,8.3,3.9s7.3,1.1,7.8-0.6"/>
	<path class="st1" d="M215.9,122.7c-0.7-1.7-0.9-1.4-2.9-3c-0.7-0.6-2.2-2.6-4.1-2c-1.9,0.6-3.7,5.1-5.3,5c-1.5-0.1-7.8,0.2-7.8,1.8
		s6.4,8.6,8.3,9.1c1.9,0.6,2.6-1.2,2.6-1.2"/>
	<path class="st1" d="M197.6,123.3c-2.4-0.8-6.1-4.9-5.9-6.5s-0.9-5.3,0.4-5.6c1.3-0.2,6.6,2.8,8.7,2.2c2.1-0.6,3.8-4.7,5.8-4.3
		c2,0.4,3.3,6.2,2.3,8.5"/>
	<path class="st1" d="M205.9,109.2c3.1-4,0.1-12.7-0.8-13.1s-2.1,1.1-5.2,0s-1.9-3-5.2-2.6s-6.8,15.1-2.5,17.7"/>
	<path class="st1" d="M195.3,93.4c-3.5-1.6-6.7-6.3-6.2-10.3s5-9.5,8.9-9.5c4,0,4.6,4.7,2.9,5.9c-1.8,1.2-5.7,2-5.5,5.3
		c0.3,3.3,4.4,5.3,6.9,5.9c2.5,0.7,7.2-0.3,6.9-2.3c-0.2-2,3.6-3.9,4.5-1s-0.8,8.8-3.4,9.1c-2.6,0.3-5.3-0.6-5.3-0.6"/>
	<path class="st1" d="M196.6,87.5c1-2.7,3.4-7.2,7.9-7.4c4.5-0.2,3.4,4.9,2.1,5s-5.4,2.3-5.5,5.3"/>
	<path class="st1" d="M310.5,116.2l1.2-5.6c0,0,1.9-2,4.7-2.3c3.4-0.4,9.9,3.6,9.5,7.9s-2.2,5.3-5.4,5.9c-3.2,0.6-3.4,2.8-5.7,2.5
		c-2.3-0.3-3.1-2.8-3.1-2.8c-3,2-13,6.5-29.4,7.4c-16.4,0.9-27.6-6.5-31.3-9.4c0,0,0.3,2.4-1.4,4.7c-1.8,2.3-6.3,3.3-5.7,1.3
		s-1.9-4.1-4-9.1s2.5-9.1,5.6-9.4s6.1,1.5,7,3.8"/>
	<path class="st1" d="M317.4,123.6c-1.5,2.6-3.3,5-2.9,7.2c0.3,2.2,1.1,6.6,2.2,7.8s5.4-2.1,7.9-2.1s5.9,0.9,6.8,1.2
		s1.3-2.4,0.6-4.2c-0.8-1.8-4-12.8-4.8-13.2c-0.9-0.4-2.7,0-2.7,0"/>
	<path class="st1" d="M318.4,138.8c-0.7,1.6-1.8,4-1,6.4s1.3,3.6,2.1,4c0.8,0.3,3.6-2.2,6.9-1.8s6.1,3.1,7.8,1.8
		c1.8-1.4-0.3-10-1.2-10.4c-0.9-0.5-1.7-1.1-1.7-1.1"/>
	<path class="st1" d="M321.1,148.8c-1.1,1.8-2.5,3.5-1.5,7.1s0.2,6.3,5.3,6.3s8,1.3,10,0c2.1-1.3,1-6.6,0-8.5s-0.9-3.5-2.6-4.1"/>
	<path class="st1" d="M324.1,162.1c-2.6,0.8-3.1,3-2.7,6.9c0.3,3.9,0.8,5.7,2.5,5.8c1.8,0.1,7.4-0.4,10.5-0.1s3-10-1.2-12"/>
	<path class="st1" d="M334.9,174.6c1.4,1.3,2.9,7.3,1.6,9.3s-4.9-0.7-7.6-0.4s-5.8,2.6-7.6,1.2s-1.4-7.2-0.8-8.2
		c0.7-1,3.4-1.7,3.4-1.7"/>
	<path class="st1" d="M334.9,184.7c2,1.1,2.1,5.7,0.7,8.5c-1.3,2.9-4.1,5.6-6.8,5.4s-7.7-2.4-8.3-4.7s-1.1-8,0.7-9.2"/>
	<path class="st1" d="M332.3,197.4c4.7,1.2,3.2,12.3,1.4,14.8s-5.9,7.2-8.5,7.3s-5.1-1.9-1.9-5.4c3.3-3.5,5-9.2,2.7-12.4
		s-3.1-4.1-4.8-3.6c-1.7,0.4-1.1,4.7-1.3,6.3c-0.2,1.5-2.4,4-3.9,2.2c-1.4-1.8-2.2-8.7,0-10.5s3.1-2.3,4.5-2.2"/>
	<path class="st1" d="M333.6,196.3c3,1.3,5,7.4,4.2,11.9s-2.4,9.9-4.2,10.6c-1.8,0.7-3.7,0.5-4.4-1.5"/>
	<path class="st1" d="M267.4,131.5l-2,2.2v1.8c0,0,5.7,3.7,14.5,3.3s15.4-4.3,15.4-4.3v-2.1l-1.2-0.9"/>
	<path class="st1" d="M267.1,136.4c-2.9,0.5-9,5-9.4,7.3s0.6,3.9,0.6,3.9s6.4,8.5,21.5,7.6s22.9-9.1,23.4-10.3
		c0.6-1.2,0.4-3.9,0-4.6c-1.2-2.3-4.5-4.6-7.8-5.7"/>
	<path class="st1" d="M257.7,143.7c1.8,2,9.9,6.8,21.6,6s21.7-4.9,24.2-7.4"/>
	<path class="st1" d="M258.3,147.6c5.4,2.6,10,5.8,21,5.2s17.3-3.4,20.9-5.2"/>
	<path class="st1" d="M271.3,155.3l-0.8,1.5l0.8,1.5c0,0,4.7,2.1,9.8,1.8c5.1-0.3,8-1.9,8.8-2.5s1-1.8,1-1.8l-2.2-2.1"/>
	<path class="st1" d="M270.9,157.6c-2.4,0.6-8.4,3.2-9.3,5.1c-0.9,1.9,0,3.4,0,3.4s7.8,8.1,18.3,7.7c10.5-0.4,18.5-6.3,19.3-7.5
		s0.6-2.5-0.4-3.6s-4.4-4-8.8-5.1"/>
	<path class="st1" d="M261.6,166.1c6.6,3,13.7,4.2,19,3.9c5.4-0.3,16.3-2.5,18.5-3.6"/>
	<path class="st1" d="M261.6,162.7c1.9,1,12.8,3.4,17.7,3.4c4.9,0,17.3-1.5,19.9-2.8"/>
	<path class="st1" d="M268.9,171.3l-2.1,2.6l1,2.1c0,0,4.2,3.6,11.4,3.3s13.7-3.2,14.2-4.4s1-2.2,1-2.2l-2.2-1.8"/>
	<path class="st1" d="M267.7,172.8c-3.2-0.1-16.9,3.4-20.2,6.5c-0.7,2.6,0.1,4.3,0.5,4.8c3.6,4.8,17.9,11.7,23.8,12.3
		c2,0,4.9-1.7,4.9-1.7l-4-3.6c0,0-5-0.7-4.6-2.1c0.3-1.5,4.9-2.7,12-2.5s13.4,2.5,13.3,3.5s-4,1.9-4,1.9l-3.4,2.2
		c0,0,0.5,2.4,4.1,2.9s22.7-7.4,24.3-10.2s0.8-4.2,0-4.9s-9.3-8.3-19.6-8.9"/>
	<path class="st1" d="M247.5,179.2c1,1.5,9.8,8.6,20.6,9.6"/>
	<path class="st1" d="M314.9,182.4c-3.4,2.6-15,7.6-21.6,7.4"/>
	<path class="st1" d="M276.9,186.3c-2.4,1-4.2,4.6-4.2,4.6"/>
	<path class="st1" d="M286.2,187c2.5,2.4,2.8,2.7,3.1,4.6"/>
	<path class="st1" d="M274,196.3c0.7,1.3,3.6,1.7,6.4,1.6s6.4-0.4,7.4-1.9"/>
	<path class="st1" d="M252.4,187.9c-1.7,0.7-1.8,3-1.5,4.5s0.5,3.1,4.1,3.3s5.2-2.1,4.7-3.6"/>
	<path class="st1" d="M293.3,196.2c-0.9,1.5-1.7,4.3,3.3,4.8c5,0.4,11.5-2.9,11.4-5c-0.1-2.2,0.1-4.1-2.2-4.3"/>
	<polygon class="st1" points="289.8,196.9 286.2,199.6 286.7,222.2 290.9,225.4 297.4,226.1 307.6,222.9 309.7,201.7 306.6,198.6 
		296.4,202.2 290.8,199.7 	"/>
	<polyline class="st1" points="289.3,197.9 287.8,201 288.6,220.6 297.1,222.3 305.5,219.9 308,202.2 306.6,198.6 	"/>
	<path class="st1" d="M297.1,222.3c0,0-1.7-8.6-1.7-14c0.1-5.4,0.9-6.1,0.9-6.1"/>
	<path class="st1" d="M251.9,219.5h5.5l0.8-1.1l5.2,1.5l3.3-2.3c0,0-3.6-6.8-3.5-10.9c0.2-4.1,3.7-9.7,7.4-10.4l-0.8,3.5
		c0,0-4.7,2.1-4.8,6.9c-0.1,4.8,2.9,8.7,2.9,8.7v3.7l-2.9,2.7l-5.3-0.7c0,0-4.5,1.2-6.5,0.4c-0.8-0.7-3.7-5.9-4.8-10.5
		s-1.4-14.8-1.4-14.8l3.8-3.5"/>
	<path class="st1" d="M258.3,218.4c0,0-4-4-4.5-11.8c-0.3-5.3,0.3-8.1,1.2-11"/>
	<path class="st1" d="M268,215.4c1.4-1.5,2.6-5.6,2.7-8.7c0.2-3.1,0.1-6.2-0.8-6.9"/>
	<path class="st1" d="M256,221.8c-1.4,1.2-1.3,4.3-1.3,4.3s0.7,4.8,5.6,5.8s6.4-4.4,6.4-4.4v-4.4l-1.7-1.3"/>
	<path class="st1" d="M257.8,230.8c-1.8,0.7-3.5,4-3.4,6.6s4.1,15.3,4.6,16.6c0.6,1.3,3.3,1.6,4.7,1.6c1.4,0,4.6-1.5,4.9-1.9
		s0.2-17.3,0-18.6c-0.2-1.2-1.7-3.6-2.3-3.9c-0.7-0.2-1.5-0.4-1.5-0.4"/>
	<path class="st1" d="M260.8,255.6l-1.7,2.4l0.8,2.4c0,0,2.1,1.3,3.8,1.2c1.7-0.2,4.4-1.2,5.1-2.3c0.6-1.1,0.7-3.2,0.7-3.2l-1.8-1.7
		"/>
	<path class="st1" d="M260.8,260.9l-1.7,1.7v2.7c0,0,2.3,2,5.2,2c2.9,0,6-2.1,6.6-3.2s-0.1-3.8-0.1-3.8l-2-1"/>
	<polyline class="st1" points="259.6,265.7 252.5,269.4 250.4,272.8 250.8,275 261.5,276.6 269.8,275.9 275.7,273.5 278.6,269.4 
		276.3,265.7 273.3,264.3 272.2,260.9 270.8,260.2 	"/>
	<polyline class="st1" points="261.5,276.6 268.7,269.4 273.6,267.2 273.3,264.3 	"/>
	<line class="st1" x1="273.6" y1="267.2" x2="278.6" y2="269.4"/>
	<polyline class="st1" points="269.8,275.9 269.4,270.2 275.7,273.5 	"/>
	<path class="st1" d="M293.3,225.7c-3,0.6-3.5,2.3-3.6,4.3s1.6,6.7,5,6.4s7-4.2,6.9-5.9c-0.2-1.7-2.5-4.1-4.3-4.3"/>
	<polyline class="st1" points="290.5,225.1 285.8,227.8 283.4,237.1 285.6,255.2 287.4,257.1 295.7,257.9 300.3,255.6 304.7,233 
		304.1,226.9 302.1,225.1 	"/>
	<polyline class="st1" points="286.2,227.9 285.5,239.5 287.8,254.8 295,255.6 298.3,254.3 302.6,231 301,228.7 	"/>
	<path class="st1" d="M287.4,257.1c0,0-2.2,0.6-2.6,1.2s-0.8,3.3,0,4s6.2,1.2,8.5,0.9s2.8-1.9,3-2.6s-0.6-2.7-0.6-2.7"/>
	<polyline class="st1" points="286.2,262.7 284,264.3 283.4,266.7 286.2,269 295.5,269 297.1,266.3 295.7,263.3 294.4,262.7 	"/>
	<path class="st1" d="M285.5,268.5l-4.7,2l-2.9,4.7l-5.4,3.1l0.6,3.7c0,0,16.6,2.2,16.5,2.2s12.9-2.3,12.9-2.3l2.1-3l-0.7-3.1
		l-4.8-2.5l-3.7-4.4"/>
	<polyline class="st1" points="278,275.1 285.1,278.3 295.7,277.5 299.2,273.4 	"/>
	<line class="st1" x1="295.7" y1="277.5" x2="302.6" y2="281.9"/>
	<line class="st1" x1="285.1" y1="278.3" x2="289.8" y2="284.2"/>
</g>
</svg>
