
<svg id="bp-571" viewBox="0 0 527 318">
	<style type="text/css">
		.st0{fill:#fff6;stroke:#999;stroke-miterlimit:10;}
		.st1{fill:none;stroke:#999a;stroke-miterlimit:10;}
</style>
<g>
	<path class="st0" d="M249.5,161.2l-5.3,2.2l-0.8,2.8l1.9,1.4l-2.6,0.5c0-1.2-0.6-2.5-1.6-3.7c-1.9-2.2-5.2-3.7-8.3-3.7
		c-2.5-0.1-5.4,1.3-7.8,3.6c-2.2,2.2-3.6,4.8-3.6,7c0,2.7,0.8,8,3.7,10.9c1.1,1.1,2.5,1.7,3.9,1.8l-3.6,2.2l-1.2,27.6l2.3,2.7
		c-2,1.5-3.5,5.9-3.6,9.3c0,1.9,0.6,4,1.4,6.2c0.8,2.3,1.5,4.7,1.4,7c-0.2,4,0,11.6,0,13.1l-1.2,0.4l-5.1,4.1v4.7l1.3,2.4l-6.5,2.9
		l0.7,4.3l10.7,3.9l13.6-0.5l5-3.5l-1.1-4.6l-5.1-2.7l1.2-4.2l-1.4-4.8l-2.4-1.2l0.8-0.5l0-0.2c0.3-4.1,1.3-15.3,2.4-17.4
		c0.4-0.7,0.8-1.4,1.3-2.2c1.5-2.4,3.2-5,3.2-7.5c0.1-3.2-0.5-8.4-0.5-8.7l0-0.1l-1.1-1.6l0.2-0.1v-4.7l4.3-16.3l0.2-1.5h2.6
		l0.1-0.1c1.2-0.9,2.5-1.9,3.1-2.3c0.3,0.8,0.8,3,1.1,4.9l0.1,0.3l0.3,0.1c0.2,0,5.4,1,10,1c0.4,0,0.8,0,1.2,0
		c4.9-0.2,12.4-2.2,12.7-2.3l0.2,0l1.5-1.9l-0.4,2.6l0.7,10l6.4,12.9l1.9,1.3c-1.9,1.8-3.6,6.9-2.2,10.4c0.5,1.2,1.7,2.7,3.1,4.4
		c2.7,3.4,6.1,7.6,6,12.2c0,3.5,0.6,6.3,1.3,8.3l-3.9,1.4l-2.2,3.3v3l0.7,0.6l-5.5,3.1l-0.9,3.1l2,2.7l15,1.1l0.1,0l11.8-2.7
		l1.6-3.4l-0.7-2.8l-6.9-3.1l0.8-2.5l-1.6-3.5h-1.5c0-1.5-0.1-3.8-0.3-7.1c-0.2-3.3-0.5-6.7-0.2-7.7c0.2-0.8,0.5-1.8,0.9-2.8
		c0.6-1.7,1.4-3.6,1.6-5.8c0.6-4.9-0.4-14.4-4-16.3l1.5-1.5l-1.2-27.6l-5.5-7.4l-2.9,0.6c0.1-0.1,0.1-0.2,0.2-0.3
		c1.8-2.7,2.8-7.3,1-11c-1.6-3.2-4.9-4.4-7.5-4.4c0,0-0.1,0-0.1,0c-2.1,0-3.9,0.8-4.8,1.9l-3.4-3.2h-3.7l1-0.7l0.4-6.8l-2.6-2.5
		l-2.6-1.8c5.3-1.1,7.5-2.6,7.6-2.7l0.2-0.1v-3.8l-0.7-1.1c1.7-0.4,2.9-0.8,3.5-1.2l5.7,0.6l13.9-14.1v-8l-1.8-0.9l2.1-2.1l0.5,1.9
		l6.3,4.8h3.2l0.4-0.2l-2.1,2.5v7l0,0.2c0.3,0.8,7.2,19.1,10.5,22.6l0.2-0.2l0.1,0l-0.5,0.9l-1.2,5.3l-3.1,4.3l-0.9,10l3.2,8.4
		l-1.2,10.7v7.7l1.9,5.8l-4.5,3.2l-2.2,3.4v10.4l2.2,2.4l2.2-1.5V221l1.7,2.7l-0.4,3.1l-2.8,2.6v2.7l2,1.1l2-1.4l0.6-0.8l1.7,1
		l2.7-1.3l4.6-7.1l-0.8-2.1l1.2-0.5l1.5-4.7l-1-3.4l-4-2.2c0.7-3.1,5.7-25.3,6.5-31.4c0.8-6-0.2-12.2-0.4-13.3l1.8-3.5l-2.1-7.2
		l-2.3-0.7c0.2-5.4-4.3-30.8-4.5-31.9l-1.6-3.2l-0.2-0.1c-2.1-0.7-3.4-1.1-4.3-1.2l0.6-0.7v-6.6l-3.2-5.3l-2.3-0.6l1.3-1.2v-2.9
		l-11-6.2c0.5,0,1-0.1,1.4-0.2c0.3,0,0.6-0.1,0.9-0.1c0.2,0,0.4-0.2,0.6-0.3c0.4,0.3,1.1,0.4,1.9,0.4c0.7,0,1.6-0.1,2.6-0.2
		c1.1-0.1,2.2-0.2,3.2-0.2c2.7,0,4.2-1.8,4.5-5.3c0.2-2.4-0.8-6.2-4.5-6.5c-3.9-0.4-6.2-0.2-7.4,0.6c-0.3-0.3-0.5-0.5-0.7-0.7
		c-1-0.7-3.2-0.5-4.6,0c-0.6,0.2-1,0.5-1.2,0.8c-1.5-0.1-3.6,0.7-6.3,2.3c-1.3,0.8-1.7,1.9-1.8,2.7c-0.1,1,0.1,1.9,0.5,2.6l-0.6-0.1
		h-0.5l-1.6-0.7l0.5,0.7h-0.2l-6.8-2.3l-5.6-0.8l-0.5,0.5c-0.5-0.8-1.3-1.4-2.2-1.6c0.5-1.3,1-2.9,1-4.5c0.1-3.4-0.5-5.5-1.9-6.5
		c0.9-0.5,1.5-1.1,1.7-1.4c0.2-0.5,0.2-1.2-0.1-1.8c-0.1-0.3-0.3-0.5-0.4-0.7c6.4-2.1,26.6-10.3,32.7-13.3c0.3-0.1,0.6-0.2,0.8-0.4
		l0,0c0.5-0.3,0.9-0.5,1-0.6c1.1-1.4,1-4,0-5.1c-1-1.2-20.6-7.9-22.3-8.2c-0.4-0.1-56.1-1.1-58.5-0.3c-1.1,0.3-4.9,2.4-7.9,4.2
		c-6.6,3.8-6.7,4.5-6.8,4.8c-0.5,3-0.5,4.5,0.1,5c0,0,0.1,0,0.1,0.1l0,0c0.1,0,0.1,0.1,0.2,0.1c2.8,1.7,24.7,13.1,27.7,14
		c-0.3,0.9,0.1,2,0.4,2.7l0.1,0.1l0.1,0.1c0.2,0.1,4.5,2.4,6.2,2.8c0.2,0,0.6,0.1,1.1,0.1c-0.7,0.9-1,2.3-0.9,4.1
		c0,0.7,0.5,1.5,1.4,2.3c-0.5,0.6-1.4,1.9-1.7,2.8c-1.6-0.1-3.1,0.9-3.6,1.7c-1.3,0.1-4.1,0.6-5.2,2l-1.9-2.2h-10.4l-0.8,0.5
		c0.9-1.3,0.9-2.5,0.9-3.2l0-0.1c0-3.7-1.8-6.3-4.8-7.1c-2.9-0.7-20.6,0-22,0.2c-2,0.1-3.9,4.7-4,6.4c-0.2,2.9,0.7,5.9,2.3,7.7
		c0.8,0.9,1.7,1.4,2.7,1.5c0,0,0.1,0,0.1,0c0,0,0,0,0,0c0,0,0,0,0,0c0.3,0,0.7,0,1.1,0c2.4,0,5.9-0.2,10-0.7l0,0.1
		c0.3,0,0.6-0.1,0.8-0.2c0.8-0.1,1.5-0.2,2.3-0.3l-9.4,3.2l-0.9,2.6l3.5,3l-4.3,0.9l-3.6,3.9v12.4l0.2,0.1l-1.7,0.5l-3.8,7
		l-2.8,31.9l1.5,1.6l-2.8,2.6l-0.6,3.3l2,3.9l1.1,0.3l-3.4,2.4l-1.6,6.8l0,0.1c0.1,0.6,2,14.3,4.8,20.5c0.8,1.7,1.6,3.7,2.4,5.6
		c2.3,5.5,4.4,10.7,6.6,12c0.6,0.3,1.1,0.5,1.6,0.6l-1.9,3.2v12l0.1,0.1c0.2,0.2,4,4.9,8.2,4.9c2.9,0,5.8-2,7.4-3.7
		c0.7-0.7,1.8-2.1,1.7-3.2c-0.1-1.2-0.5-2.2-1.3-2.7c-0.6-0.4-1.2-0.5-1.9-0.2c-0.6,0.2-1,1-1.6,1.9c-0.6,1.1-1.4,2.5-2.2,2.3
		l-0.1,0c-1.7-0.4-3.1-0.8-3.3-1.7l-0.1-0.4c-1.4-5.4-1-6.7-0.7-7c1.1-0.9,3-1.3,3.3-1.1l0,0.2c0,0.7,0,1.7-0.4,2.1
		c-0.1,0.1-0.4,0.2-0.7,0.2c-0.6,0-1.1,0.3-1.5,0.9c-0.6,0.9-0.8,2.4-0.2,3.5c0.4,0.7,1.1,1.2,2.1,1.2c3.2,0,7-3.3,7.7-5.9
		c0.4-1.6,0.5-4.8-1-6.8c-0.7-1-1.7-1.6-2.9-1.7c-3.1-0.3-4.4-3.6-4.5-4c0.5-0.4,0.8-0.9,0.9-1.7c0-0.6-0.6-2.8-1.8-6.9
		c-1.3-4.6-3.2-10.9-3-12.5c0.1-0.9,0.4-2.3,0.7-3.7c0.7-2.8,1.4-6,1.1-8.3c-0.4-3.3-3.1-7.8-3.2-8l-2.2-2.1l2.1-4.1v-3.5l-2.2-1.5
		l2.2-4.2v-5.1l1-0.6l4.8-18l1.1-5.1l-1.7-4.7l10.3-3.6l1.6-5l5.4,4.6l-2.1,1.6v12.7l12.2,8.9l0.1,0.2l0.1,0l0.1,0.1h5.9l0.4-0.3
		c0.3,0.6,1.6,1.2,3.3,1.7l-1.6,1.6v3.9l0.2,0.1c0.1,0.1,1.4,0.9,4,1.7l-5.2,3.5v6.5L249.5,161.2z M301.8,214l0.4,0l-0.3,0.3
		L301.8,214z"/>
</g>
<g>
	<path class="st1" d="M230.9,43.9c-1.9,0.6-14.1,7.5-14.3,8.6s-0.7,4,0,4.6c0.7,0.7,25.5,13.5,27.9,14.1c2.5,0.7,28,0.3,30.8,0
		s34.9-13.5,35.9-14.6c1-1.2,0.8-3.5,0-4.4s-20-7.7-22-8C287.1,43.9,232.6,43.3,230.9,43.9z"/>
	<path class="st1" d="M249.3,70.7c-2-0.6-6.1-4.4-6.4-5.9c-0.3-1.5-0.9-5.5-0.6-6.7c0.3-1.2,3.6-6.1,4.8-6.6s23-0.7,23.9-0.3
		s4.6,5.9,5,7.2c0.3,1.2-0.2,6.5-0.7,7.3c-0.5,0.7-4.1,4.3-5.2,5S250.2,70.9,249.3,70.7z"/>
	<path class="st1" d="M252.4,69.5c-1.1-0.1-3.1,0-5.2-2.6c-2.1-2.6-1.4-4.5-0.4-5.3s7.6-0.9,11-0.9c3.5,0.1,12,0.8,12.8,1.6
		c0.8,0.7,1.3,3.9,0.6,4.7c-0.7,0.8-3,2.5-4,2.6C266.1,69.6,253.9,69.6,252.4,69.5z"/>
	<path class="st1" d="M249.3,61c-1.1,0.7-1.1,4.9,2.3,6s18.5,1.6,19.9-0.8"/>
	<path class="st1" d="M224.1,51c-0.8,0.3-0.7,3.7-0.5,4.4s1.4,1.5,3.4,1.7s10.2,0.3,11,0s0.6-2.6,0-2.9c-0.6-0.4-7.2-2.8-8.9-3.1
		C227.3,50.7,225.2,50.5,224.1,51z"/>
	<path class="st1" d="M225.9,51c-0.9,0.5-0.9,3.5-0.4,4.1s12,1.2,13,1"/>
	<path class="st1" d="M296.6,51.9c-1.9,0.2-12,2.4-12.6,3s-0.5,2.4,0,2.8c0.5,0.3,14.6,0.6,15.4,0.4c0.8-0.2,1.7-2.3,1.6-3
		S297.9,51.8,296.6,51.9z"/>
	<path class="st1" d="M285.9,54.2c-0.9,0.9-0.9,2.5,0,2.5c0.9,0.1,13.4,0.7,14.4,0.5"/>
	<path class="st1" d="M245.1,71.3c-1.1,0.8,0,2.8,0,2.8s4.4,2.4,6,2.7c1.7,0.3,19.7,0.4,20.7,0c1.1-0.4,5.1-2.6,5.4-3.3
		c0.3-0.7-0.1-2.1-1.2-2.5"/>
	<path class="st1" d="M253.3,77.1c-1.4,0.6-1.6,2.7-1.5,4.4c0.1,1.7,3.5,4.5,10.2,4.4c6.8-0.1,11.2-2.8,11.5-4
		c0.2-1.2,0.7-3.9,0-4.5s-1.7-0.7-1.7-0.7"/>
	<path class="st1" d="M275,75.2c2,0.6,2.5,3.3,2.4,6.4s-1.5,5.9-2.4,6.4s-2.2,5-7.2,5c-5,0.1-9.8,0.2-11.1-0.7
		c-1.3-0.9-5.6-4.1-5.4-5.2c0.2-1.1,2.1-3.4,2.1-3.4"/>
	<path class="st1" d="M251.3,87.1c-1.7-0.3-3.5,1.1-3.7,1.7c-1.4,0-4.8,0.7-5.4,2.3c-0.6,1.6,9.1,8.8,10.7,8.9
		c1.6,0.2,23.7-0.4,24.5-0.7c0.9-0.2,4.4-6.4,4.4-7.1s-1.7-3.6-2.9-3.7c-0.3-1.2-1.8-2-2.9-2"/>
	<path class="st1" d="M242.2,91.2l-2.2-2.6h-10l-5.6,3.4h-2.2l-12.6,4.3l-0.7,2l32.2,27.6h2.1v-2.5l1.4-0.1l1.6,2.1l2.4,0.1l2.6-3.5
		l33.9,0.5c0,0,1.5,3.3,1.8,3.4c0.2,0.1,2.9,0,2.9,0l0.9-3h1.6l0.4,1.7h1.7l21.6-21.1v-2.4l-16.8-9.5l-5.3-0.7H292l-6.8-2.3
		l-5.4-0.8l-0.8,0.8l-4.5,5.4c0,0-6.4,1.6-10.1,1.5c-3.6-0.1-11.5-1-11.5-1l-5.3-5.6"/>
	<polyline class="st1" points="222.2,92 231.8,101 231.8,106 232.8,100.1 224.4,92 	"/>
	<path class="st1" d="M281.9,92.3l2.9,1l0.9,3.6l-1.2,2.6c0,0-5.7,1.7-5.9,1.7s-26,0.3-26,0.3l-4.4-2.6H240l-5.6,1.1l-1.5,7.2
		l8.9,7.8l0.5-1.1l2.4-2l2.5,0.8v2.6l5.2,3.6l30.8,0.4l0.5-1.4l4-3.6l5.1,3.1l5-5l-0.1-2.2l2.1-2.4l1.7,2.4l0.6-2.1l-1.1-5.4l3-3.2
		l-0.6-4l-10.3-4.7l2.2,3.5l-0.7,4.5"/>
	<line class="st1" x1="230" y1="88.6" x2="239.9" y2="99"/>
	<line class="st1" x1="240" y1="88.6" x2="248.1" y2="99"/>
	<line class="st1" x1="284.7" y1="93.4" x2="285.2" y2="88.6"/>
	<polyline class="st1" points="284.4,99.6 290,98.4 299.1,99.6 301.1,102.8 	"/>
	<polyline class="st1" points="287.5,89.4 289.5,91.7 290,98.4 	"/>
	<polyline class="st1" points="290,90.3 292.4,93.1 292.4,98.7 	"/>
	<polyline class="st1" points="297.8,93.1 298.7,95.3 297.5,99 	"/>
	<polyline class="st1" points="300.9,94.5 301.7,97.9 299.4,100.1 	"/>
	<path class="st1" d="M266.3,101.4l1.2,5.4c0,0-1.3,0.5-1.5,1.1s0,4.6,0.8,5.1s1.7,1,1.7,1s1.8-0.9,2-1.4s0.7-4.1,0-4.9
		c-0.7-0.9-1.7-1.1-1.7-1.1l0.3-5.2"/>
	<path class="st1" d="M267.1,113.3c0.4,0.2,3.5-0.5,2.4-6.3"/>
	<path class="st1" d="M220,92c-6.8,1.1-12.7,1.4-15.7,1.3c-2.3-0.1-4.8-4-4.5-8.6c0.1-1.7,2-5.8,3.5-5.9c1.5-0.2,19-0.9,21.8-0.2
		c2.8,0.7,4.4,3.2,4.4,6.6C229.5,86.7,229.8,90.5,220,92z"/>
	<path class="st1" d="M202.6,79.3c2-0.5,3.4,3.6,3.5,6.6s-0.1,9.7-3.1,6.6"/>
	<path class="st1" d="M213.6,78.6c3.5,0,5.2,3.5,5.1,6.6c-0.1,3.1,0.2,7.2-3.3,7.5"/>
	<path class="st1" d="M219.6,78.6c3.2,0,3.8,4.3,3.8,6.6s0.4,6.3-2.8,6.8"/>
	<path class="st1" d="M295.4,90.9c-1-1-1.7-3.9,0.7-5.3s6.2-3.2,7.6-1.5s0.8,9.6-2.5,8.5"/>
	<path class="st1" d="M302.4,83.5c0.3-1.2,4.1-1.8,5.3-1c1.2,0.9,2.9,3.9,2.2,6.1c-0.7,2.3-1.1,5-2.2,5.2c-1.1,0.1-3.4,0.6-4.3,0.1"
		/>
	<path class="st1" d="M308.6,83.5c1.1-1.1,4.2-1.1,7.5-0.8s4.2,3.7,4,6s-1,4.8-4,4.8s-6.5,0.9-7.5,0"/>
	<polyline class="st1" points="314.3,105.2 317.2,106 320.2,111 320.2,117.3 317.2,120.9 313,122.9 310.1,122.9 304.1,118.3 
		303.5,115.8 	"/>
	<polyline class="st1" points="305.3,114 306.7,117.4 312.9,121.4 316.7,119.6 320.2,115.7 	"/>
	<polyline class="st1" points="212.9,101.7 207.7,102.8 204.3,106.4 204.3,118.3 208.9,121.4 212.9,121.4 223.4,117.7 225.1,112.2 	
		"/>
	<polyline class="st1" points="222.7,110.1 221.1,116.2 211.7,120 208.9,120 204.3,118.3 	"/>
	<polyline class="st1" points="231.6,117.7 229.2,119.6 229.2,131.8 241.4,140.7 247,140.7 252.3,136.8 252.3,133.7 243.2,125 	"/>
	<polyline class="st1" points="229.2,119.6 247.2,135.3 252.3,133.7 	"/>
	<polyline class="st1" points="247.2,135.3 246.6,138 240.8,140.7 	"/>
	<line class="st1" x1="246.6" y1="138" x2="247" y2="140.7"/>
	<polyline class="st1" points="287.9,125.9 280,133.4 280,135.8 283.2,140.7 288.8,141.3 302.4,127.5 302.4,120 300.3,118.9 	"/>
	<polyline class="st1" points="249.7,124.1 251.8,125.9 282.5,126.4 286.2,124.6 	"/>
	<polyline class="st1" points="248.7,125.4 248.1,128.3 249.7,129.2 282.6,129.2 285,128.6 284.7,125.3 	"/>
	<polyline class="st1" points="251.3,132.2 255.3,134.1 278,134.1 280,133.4 284.7,136.1 298.7,124.8 298.7,120.4 	"/>
	<path class="st1" d="M252.3,136.8c2.2,1.1,11.8,1.2,15.6,1.3c3.9,0.1,12.6-1.3,12.6-1.3"/>
	<path class="st1" d="M248.1,140.7c0.8,1.4,8.7,3.4,18.4,2.9s15.4-1.9,16.7-2.9l1.6-4.6l4,5.2"/>
	<path class="st1" d="M251.8,142.4l-2.1,2v3.4c0,0,4.7,3.3,15.5,2.8c10.8-0.6,14.8-3.5,14.8-3.5v-3.4l-1-1.6"/>
	<path class="st1" d="M249.7,144.5c2.8,0.9,10.6,3.2,16.2,2.5s14-3.3,14-3.3"/>
	<polyline class="st1" points="254.5,149.8 248.7,153.7 248.7,159.7 253.8,164.5 260.1,166 270.9,165.5 277,161 277.4,154.7 
		275,152.4 271.5,150 	"/>
	<path class="st1" d="M248.7,153.7c0,0,6.7,3.1,14.9,2.6c8.1-0.4,13.9-1.7,13.9-1.7"/>
	<path class="st1" d="M248.7,159.7c4.1,1.4,9.6,4.4,15.3,4.1s11.4-1.9,13-2.8"/>
	<path class="st1" d="M260.1,166l-3.4,5.4h-8l-2.1-3.5l-4.4,0.8v2.7l1.8,2.8l-4,3.8l-0.1,7.4l5.9,6.6h2.9c0,0,3.2-2.5,3.6-2.5
		c0.4,0,1.4,5.4,1.4,5.4s6.2,1.2,11.1,1s12.6-2.3,12.6-2.3l2.5-3.3c0,0,0.3-4.8,0.6-4.8c0.4,0,2,1.5,2,1.5l4.9-6.1l-4.9-9.9H280
		l-2.5,2l-2.4-0.2l-2.6-6.1l-1.5-1.2"/>
	<polyline class="st1" points="254.5,181.6 252.3,186.5 255.5,192.3 276.1,191.2 278.3,188.7 277.4,180.7 	"/>
	<polyline class="st1" points="256.7,171.3 256.7,174.8 258.7,177.5 267.1,179.3 275,175.3 275,172.8 	"/>
	<polyline class="st1" points="275,162.5 280,162.5 283.7,166 282.6,171 	"/>
	<polyline class="st1" points="249.7,161.7 244.6,163.8 244,166 246.6,167.9 	"/>
	<path class="st1" d="M283.7,166c1.4-3,9.2-3.4,11.8,1.9c2.6,5.3-1.1,13-4.3,12.9c-3.2-0.1-3.6,0.2-3.6,0.2"/>
	<path class="st1" d="M242.2,168.6c0.4-3.5-4.3-7.3-9.4-7.4c-5-0.1-10.8,5.7-10.8,10.1c0,4.4,1.9,12.3,7.7,12.2
		C235.6,183.5,240.9,180,242.2,168.6z"/>
	<polyline class="st1" points="224.8,213.6 226.2,212.3 227.4,188.7 229.4,184.4 226,186.5 224.8,213.6 227.3,216.6 229.8,216.6 
		235.4,212.5 238.1,213.5 239.1,215.9 241.3,214.8 241.3,210.3 245.6,194 245.8,192 	"/>
	<polyline class="st1" points="226.2,212.3 230.9,210 239.9,211.6 241.3,210.3 	"/>
	<path class="st1" d="M227.3,216.6c-1.9,0.9-3.7,5.4-3.8,9.2c-0.1,3.9,3,8.7,2.8,13.2s0,13.4,0,13.4l2.5,3.4h2.3l4.7-3.1
		c0,0,1.1-15,2.5-17.6s4.4-6.3,4.5-9.5s-0.5-8.6-0.5-8.6l-1.4-2"/>
	<path class="st1" d="M229.2,238c0.4-3.1,0-6.6,1.5-6.4c1.5,0.2,1.2,5.7,1.4,7c0.8-3.1,1.6-8.3,1.6-10.2c0-2.6-5.1-2.3-5.4,0.8
		C228,232.2,228.9,235.6,229.2,238z"/>
	<polyline class="st1" points="280,189.8 279.3,194.7 280,204.6 286.3,217.2 288.7,218.8 293.5,215.5 292.8,212.3 295.6,210 
		299.4,210.6 301.8,215.1 303.8,213.1 302.6,185.9 297.4,178.9 294.6,179.5 298.9,186.5 301.4,194.9 301.8,214 	"/>
	<polyline class="st1" points="282.6,187 288.5,188.7 293.2,202.7 290.4,213.5 287.5,214.7 282.6,204.5 280.6,185.5 277.4,180.7 
		254.5,181.6 246.8,188.7 239.9,185.4 235.7,181.9 	"/>
	<path class="st1" d="M288.7,218.8c-1.9,1-4.1,6.6-2.6,10.2c1.5,3.6,9.2,9.7,9.1,16.8c-0.1,7,2.5,10.9,3.4,11.6c0,0,4.6,0.7,5.6-1.6
		c0.7-1.5-0.9-13.9-0.4-16.2s2.2-5.1,2.5-8.5c0.6-5.2-0.6-15.4-4.5-16.1"/>
	<path class="st1" d="M300.4,237.9c0-2.4,0.5-4.6,1.2-4.5s0.7,2.1,0.6,4.5c0.6-2.4,1.1-5.2,0.9-6.9c-0.3-2.4-3.2-2.5-3.6,0.5
		C299.3,233.7,299.7,236.3,300.4,237.9z"/>
	<path class="st1" d="M296.6,254.4l-4.1,1.5l-2,3v2.6l1.8,1.5l0.2,2l4.1,1.4l6.6-0.5c0,0,4.1-1.3,4-2.4s-0.7-2.7-0.7-2.7"/>
	<polyline class="st1" points="291.6,262.4 285.6,265.8 284.8,268.5 286.5,270.8 301.3,271.9 312.8,269.3 314.2,266.3 313.6,263.9 
		306.5,260.7 307.4,258 306,255 304.4,255 	"/>
	<polyline class="st1" points="234.6,253.6 237.5,255 238.8,259.4 237.5,263.9 242.8,266.7 243.8,270.7 239.2,273.9 225.8,274.4 
		215.5,270.6 214.9,267 221.5,264 220,261.2 220,256.9 224.8,253 226.2,252.5 	"/>
	<polyline class="st1" points="220,256.9 225.5,263.4 232.6,263.4 238.8,259.4 	"/>
	<polyline class="st1" points="221.5,264 224.8,264.7 233.1,264.9 237.5,263.9 	"/>
	<polyline class="st1" points="292.4,263 299.5,263.4 306.5,260.7 	"/>
	<path class="st1" d="M314.4,122.9l-2.5,3v6.8c0,0,7.1,19,10.4,22.4"/>
	<polyline class="st1" points="311.9,125.9 314.4,127.3 317.9,127.3 323.6,121.4 324.2,120 	"/>
	<path class="st1" d="M317.9,127.3v4.1l8.4,22.3l3.9,1.3c0.5-4.1-4.5-32.2-4.5-32.2l-1.5-2.9c0,0-4.9-1.7-5.3-1.2"/>
	<polyline class="st1" points="321.8,154.6 323.4,155.1 313.6,133 314.4,127.3 	"/>
	<polygon class="st1" points="322.2,156.4 322.9,155.1 326.3,153.7 332.6,155.7 334.6,162.5 332.8,166 330.2,166.7 327.2,162.5 
		323.4,163.8 321,161.7 	"/>
	<path class="st1" d="M332.8,166c0,0,1.3,6.7,0.4,13.3s-6.6,31.7-6.6,31.7l-2.4,1l-0.8-1.5l2.1-31.6l-4.5-4.4l-0.8-7l3.3-3.6"/>
	<polyline class="st1" points="321,161.7 317.9,166 317,175.7 320.2,184.1 319,194.9 319,202.6 321,208.6 323.5,209.5 	"/>
	<polyline class="st1" points="321,208.6 316.2,212 314.2,215.1 314.2,225.2 316,227.1 317.6,226 317.6,217.8 319.3,215.1 
		318.5,220.7 320.3,223.6 319.8,227.1 317,229.7 317,231.9 318.5,232.7 320.3,231.5 324.1,226.2 324.1,222.4 	"/>
	<polyline class="st1" points="318.8,218.3 321,223 324.1,223 330.2,220.7 331.6,216.4 330.7,213.3 326.6,211 	"/>
	<polyline class="st1" points="321,230.4 322.9,231.5 325.2,230.4 329.6,223.6 328.7,221.2 	"/>
	<polyline class="st1" points="205.2,118.9 202.6,119.6 198.9,126.4 196.2,157.9 197.9,159.7 200.7,158.8 202.6,157 202.6,147.1 
		206.1,146.4 207.8,149.8 208.9,149.2 213.6,131.4 214.7,126.4 212.9,121.4 	"/>
	<polyline class="st1" points="202.6,119.6 208.9,127.3 212.1,127.5 214.7,126.4 	"/>
	<line class="st1" x1="212.1" y1="127.5" x2="206.1" y2="146.4"/>
	<polyline class="st1" points="207.8,149.8 207.8,155.1 204.3,161.7 201.6,163.1 198.8,161.7 198.8,159.4 	"/>
	<polyline class="st1" points="197.9,159.7 194.9,162.5 194.4,165.5 196.2,169 201.1,170.2 205.5,168.8 207.8,164.3 207.8,161.2 
		205.5,159.6 	"/>
	<path class="st1" d="M198.1,169.5l-4.1,2.9l-1.5,6.5c0,0,2,14.2,4.8,20.4c2.9,6.3,6,15.7,8.8,17.3c2.8,1.5,5-0.3,5.4-1.9
		c0.3-1.6-4.8-15.4-5.4-19.7c-0.6-4.3-1.5-14.8-0.7-16.2"/>
	<path class="st1" d="M210.8,211.1c1.5,1,3,0.3,3.2-1.2c0.1-1.4-5.1-16.6-4.8-19.4c0.3-2.8,2.3-8.5,1.8-11.8
		c-0.4-3.2-3.1-7.8-3.1-7.8l-2.3-2.2"/>
	<path class="st1" d="M208.3,217.2l-2.2,3.7v11.7c0,0,3.8,4.7,7.8,4.7s8.7-4.4,8.6-6.4c-0.1-2-1.4-2.9-2.5-2.5s-2.2,4.7-4.1,4.2
		c-1.9-0.5-3.5-0.9-3.8-2.1c-0.3-1.2-1.9-6.8-0.6-7.9c1.3-1.1,4.1-1.8,4.1-0.7s0.1,3.1-1.6,3s-2.5,4.6,0.4,4.6s6.6-3.1,7.2-5.5
		s0.2-7.6-3.5-7.9c-3.7-0.3-5-4.4-5-4.4"/>
	<path class="st1" d="M216.5,57.1c5.5,2,12.3,7.4,26.3,7.8"/>
	<path class="st1" d="M275.3,65.7c3.7,0.3,29.6-5.8,35.1-8.6"/>
</g>
</svg>
