
<svg id="bp-598" viewBox="0 0 527 318">
	<style type="text/css">
		.st0{fill:#eee6;stroke:#999;stroke-miterlimit:10;}
		.st1{fill:none;stroke:#999a;stroke-miterlimit:10;}
	</style>
	<g>
		<path class="st0" d="M367.3,167.7c-0.7-1.1-1.6-1.7-2.5-1.9c-0.5-0.1-1.1-0.2-1.7-0.2v-1.2l-2.4-2.6l-2.6-0.7
			c0-0.2,0.1-0.4,0.1-0.5c0-0.7-0.3-1.4-1-2c-1.7-1.5-3.2-1.6-4.2-1.3c0.6-2.5-0.2-6.5-2.6-13.6c-3.5-10.4-15-25.6-20.5-27.2
			c-3.9-1.1-5.6-0.6-6.4-0.2l-1.3-1.6l-4-1l-0.7-0.1l-0.1-0.1c-2.4-5-20.3-9.4-24.7-9.3c-2.1,0.1-3.6,0.1-4.8,0.3V103l-0.8-0.6
			c1.8-0.9,3.1-1.8,4.1-2.5c0.4-0.3,0.8-0.6,1.1-0.8l0.2-0.1l0.1-0.2c0.8-3.2,0.9-8.9-0.1-10.5l-0.2-0.2c-2.7-1.8-11.6-3.7-15.2-4.2
			l-0.5-3.1l2.9-2.8c1.1,1.5,4,1.7,7.9,1.6c2.7-0.1,7.2-1.7,10.8-4.7c0.1,0,0.1,0,0.2,0c0.1,0,0.1,0,0.2,0c2.4-0.3,10.5-7.1,13-10.3
			c0.5,0.5,1.4,0.8,2.4,0.8c0.2,0,0.3,0,0.5,0c2.6-0.2,6.5-2.1,6.8-6.4c0.3-3.5-1.2-5.7-2.4-6.9c-0.6-0.6-1.3-1.1-2.1-1.5l0,0
			c0.1-1,0.1-2.7-0.1-4.3c1.2-0.9,2.3-2.6,2.5-4.6c0.1-1.9-0.7-3.7-2.5-5.3c-1.3-1.2-2.6-1.7-3.8-1.6c-0.8,0.1-1.4,0.5-1.8,0.8
			c-0.1-0.1-0.2-0.3-0.3-0.4c-5.9-7.9-10-8.1-12-8.3c-0.3,0-0.5,0-0.6-0.1c-2.5-2.1-4.6-2.7-5.4-2.9l-1.7-4.1l-3.3-1.6l-8.7,0.5
			l-2.2,2.3l-0.6,2.5c-6-2.6-18.3-1-21.9,0c-0.2-1.1-0.7-2.2-1.6-3c-1-1-3-2-6.6-1.8c-5.5,0.4-8.2,3.4-8.8,5.5
			c-4.8,0.8-11,2.4-12.5,7c-2,0.1-3.5,2.1-4.4,3.3c-0.1,0.1-0.2,0.3-0.3,0.4c-0.7-0.2-1.5-0.1-2.5,0.4c-1.8,0.9-3.6,3.1-3.8,5.8
			c-0.1,3,0.7,4.8,1.4,5.6c-1.2,1.1-1.3,2.5-1.4,3.7c0,0.1,0,0.1,0,0.2c-0.9,0.1-2.2,0.5-3.3,1.7c-1.1,1.1-1.6,2.6-1.6,4.3
			c0.1,3.2,1.1,6,2.8,7.3c0.8,0.6,1.7,0.9,2.6,0.8c0.2,1.9,1.5,4.2,3.5,6.3c2.4,2.4,5.2,3.9,7.5,4c2.5,2.1,8.6,5,15.3,5
			c0.7,0,1.4,0,2-0.1l2.2-0.2c4.6-0.4,8-0.7,10.3-1.7c-0.2,1.4-0.6,4.2-0.5,7c-3.4,0-13.4,4-14.4,6.5c-0.4,1.9-0.7,7.9,0,9.8l0.1,0.2
			c0.6,0.6,2.8,2,6.4,3.2l-0.9,0.5c-2.7,0.4-13.1,3.8-15.9,6.1c-0.4,0.3-0.7,0.7-0.9,1.1c-0.6-0.3-1.3-0.4-2-0.3
			c-0.7,0.2-1.2,0.6-1.7,1.2l-2.6-1.6l-0.2,0c-0.2,0.1-2.9,1.2-4.4,1.8l-0.1,0.1l-0.3,0.5l-4.8,0.3l-3.3,3l-2.2-1.8l-3.8,1l-0.8,2.3
			c-0.6-0.3-1-0.5-1.1-0.5l-3.7,0v3.5l-14.2,9.9l0,0l-0.1,0.1l-0.6,0.4c-0.6,0.4-0.9,0.7-1,1l-2.7,2.5l-0.5,3.2l-4.9,1.4v-3.3
			l-2.1-5.8l-4.5-3.8l-7.9-9.8l-0.1,0.5l-20.7-34.8l2.5-2.1l-1.8-4l6.8-7l-1.5-9.4l-3-1.7L139,62l-0.4,5.7l-0.8,0.7l-4.4,0.7
			l-3.9-0.7l-5-4.2v-2.1l2.3-2v-6.8l-3.7-1.8l-6,11.2l1.1,4.6l-0.3,0.6l-5.3-4.7v-3.5l3.8-2.2l-0.4-4.4l-4.1-0.7l-6,7.5v6.6l8.5,10.9
			l10.8,3.8l2.2,0l1.5,5.3l4.1-0.1l0.9,2.4l-1.8,1.4l18.7,36.9c-0.3,1.2-0.4,2.4-0.2,3.6c0.2,0.9,1.6,3.7,4.1,8.1
			c1.8,3.2,3.8,6.9,4.1,7.9c0.4,1.7,2.7,9.7,7.1,10.5c-0.4,0.6-0.7,1.4-0.4,2.2c0.3,1.1,1.6,2.5,5.9,2.6c0.3,0,0.6,0,0.8,0
			c3.7,0,5.6-0.4,6.4-1.4c0.5-0.7,0.4-1.5,0.2-2.1c0-0.1,0-0.1-0.1-0.2l5.8-2.5l4.9-4.9c1.6-0.6,21.6-7.7,22.7-9
			c0.6-0.7,1.1-2.1,1.4-4.1l1.3,0.6l2.6-1.9l0.9-7.8l-2.3-4.4l2.3,4.1l4,0.7l1.9-1c0,1,0.1,2.4,0.8,3c0.1,0.1,8.7,8.4,16.4,10.7
			c-0.1,5.9,0.1,14.2,2,17.6c0.3,0.5,0.6,1,0.9,1.7c1.6,3.2,3.9,7.8,9.6,10.4c-1,0.6-2,1.4-2.8,3l-3-4.9l-5.1-2.3l-6.9,6.5l-0.7,5.9
			l3.7,5l-3.6,3.8l-2.5,8.8c-1.2,2-1.8,5-0.6,6.6c0.5,0.7,1.5,1.4,3.4,1.1c0.3,1.6,1.1,2.6,1.9,3.1c-4.1,5.5-9.1,16.5-9.6,38
			c-0.6,22.8,4.8,44.9,11.3,46.3l0-0.1c1,1.9,2.1,3.6,3.3,4.8c1.9,1.4,3.7,1.8,4.3,1.9c3.4,3.9,9.9,5.5,15.3,5.6c0.3,0,0.6,0,0.9,0
			c4.5,0,8-1,9.3-2.6c4.3-0.1,10.8-4.7,16.4-11.7c4.8-6,9.2-20.6,10.9-35.7c0.3-2.4,0.5-4.9,0.6-7.4c0,0,0,0,0-0.1
			c1-18-2.6-30.2-5.3-34.2c1.5-1.1,2.3-2.3,2.6-3c0.1-0.1,0.1-0.2,0.2-0.3c0.6-0.9,0.7-3-0.3-4.3c2-2.9,2.5-6.1,2.3-8
			c-0.5-4.2-1.8-6.8-4.6-8.8l-2.5-2.7c1.5-1.1,5.5-4.1,5.8-6.2c0.4-2.4-4-9.8-7.2-11.3c-3.3-1.5-6.5,0.3-8.2,2.9
			c-0.4,0.7-0.8,1.3-1.1,1.9c-0.4,0.8-0.9,1.6-1.2,1.7c-0.1,0-0.3,0-0.4-0.1c0.3-0.6,0.3-1.4,0.2-2.2c-0.2-1.1-0.7-2.5-1.8-3.4
			c3.1-1.9,5.4-4.1,6.6-5.4c3-3.2,5.1-6.9,5-8.8c-0.2-4,0.2-13.5,0.4-15.4c2.7-1.6,17-8.9,20.3-9.8l0.5-0.1l-0.1-0.5
			c-0.1-0.6-0.2-1.1-0.3-1.7l3.6,1.6l1.5-0.3c-0.3,1-0.8,2.9-0.5,4.1c0.3,1.5,0.8,4,2.9,6.4c0.4,0.4,1.1,1.3,2,2.4
			c4.2,4.9,11.9,13.9,14.5,16.2l0.1,1.6l4.1,4.8l3.3,0.8c0.3,2.2,1.4,4.5,5.2,5.1c1.3,0.2,2.5,0.3,3.5,0.4c-3.1,2.1-5.2,6.5-4.8,8.1
			c0.1,0.4,0.3,0.6,0.6,0.7l-10.2,11.6l-3.3-0.2l-1.3,0.7l-2.4-1.8l-4.6-3.9l-3.8,0.7l-7.3,6.5v6l3.2,1.9l2.8-1l2.6-4.3l4.1,2.6
			l-0.3,5.1l-5-1.7l-4.3,3.4l0.6,5.6l5,2.3l-1.4,1.9l-6.2-0.6l-6.4,2v4l0.3,0.1c0.3,0.1,6.2,3,11.5,3c0.4,0,0.7,0,1.1,0
			c5.5-0.4,10.2-5.7,10.6-6.3l10.2-6.9l0.1-6h1.2l11.2-11.3c0.3,0.2,0.7,0.4,1.3,0.4c0.3,0,0.7-0.1,1.1-0.2
			c2.4-0.9,10.3-13.5,11.1-17.1C369.3,173.2,368.7,169.9,367.3,167.7z M238.5,208.4l-0.2-0.1C238.4,208.3,238.5,208.3,238.5,208.4
			C238.5,208.4,238.5,208.4,238.5,208.4z"/>
	</g>
	<g>
		<path class="st1" d="M183.8,132.4l15.2-10.6v-3.3h3c0,0,7.3,3,9.7,9.7c2.5,6.8,1,12.1,0,13.2c-1,1.2-20.6,8.3-22.6,8.9
			c-2,0.7-4.6-1.3-5.3-3.5c-0.7-2.1-1.7-5.4,0-6.4c1.7-1,5.6-4.8,4.6-7.1c-1-2.3-3.4,0.1-4.8,0.1
			C182.2,133.5,183.8,132.4,183.8,132.4z"/>
		<path class="st1" d="M151,130.6c0.3,1.8,7.6,13.8,8.1,16s3.1,10.7,7.8,10.1s2.4-6.8,3.4-9.5c1-2.6,3.5-7.4-1.5-11.1
			c-5.1-3.7-5.5-0.2-9.2-5.5c-3.7-5.3-5.5-6.5-7-5.4C151,126.3,150.7,128.6,151,130.6z"/>
		<path class="st1" d="M165.3,134.5v-5.7l-5.7-7.9l0.6-2.4l7.3,9l4.5,3.7l2,5.5v4l-2,0.9C170.8,135.6,165.3,134.5,165.3,134.5z"/>
		<path class="st1" d="M159.6,120.9c-3.2-0.6-5,2-5.2,3.9c1.6,1.4,7,7.9,7,7.9l3.9,1.7v-5.7L159.6,120.9z"/>
		<polygon class="st1" points="150.9,126.4 132.6,90.4 134.4,89.1 133.3,86 138.5,82.9 159.6,118.5 159.6,120.9 156.4,121.6 
			154.4,124.8 152.6,125.2 	"/>
		<polygon class="st1" points="138.5,82.9 141,80.9 139.2,76.9 146.1,69.8 144.8,60.9 142.3,59.5 139.5,62.2 139,68 134.7,71.7 
			120.8,71.2 112.1,63.5 112.1,59.5 115.8,57.3 115.5,53.6 112.1,53 106.3,60.2 106.3,66.4 114.6,77.1 125.3,80.9 127.7,80.9 
			129.2,86.1 133.3,86 	"/>
		<polygon class="st1" points="138,68.9 133.3,69.6 129.2,68.9 123.9,64.5 123.9,61.9 126.2,59.9 126.2,53.7 123.3,52.2 117.6,62.8 
			118.7,67.4 117.9,68.7 120.8,71.2 134.7,71.7 	"/>
		<polygon class="st1" points="182.9,133.4 180.3,135.8 179.8,139.1 173.9,140.8 171.9,141.7 170.4,147.2 170,153.7 171.9,152.7 
			173.9,156.2 178.1,157.9 184.3,155.3 189.1,150.4 186.8,150.2 183.8,146.9 183,141.7 180.9,140.8 181.4,136.9 	"/>
		<path class="st1" d="M167,156.7c-1.7,1-2.6,4.6,4.3,4.7c6.9,0.1,7.4-1.2,6.9-2.9c-0.4-1.7-4.3-2.4-4.3-2.4l-2-3.4l-1.9,1l-0.9,2.1
			L167,156.7z"/>
		<path class="st1" d="M203.6,119.3l0.9-2.6l3.3-0.9l6.2,5.1l4,7.7l-0.9,7.4l-2.2,1.6l-1.7-0.7c0,0,0.5-3.1-0.8-7.3
			S208.5,122.2,203.6,119.3z"/>
		<path class="st1" d="M223.1,111.8c-0.2,0.1-4.3,1.8-4.3,1.8l-2.8,4.1v5.2l2.6,4.8l3.6,0.6l3.3-1.7l-0.8-6l1.3-7.1L223.1,111.8z"/>
		<polygon class="st1" points="210,117.7 213.5,114.5 218.4,114.2 216,117.8 216,123 215.1,123.4 213.9,120.9 	"/>
		<path class="st1" d="M246.5,105.2c-2.4,0.3-13,3.7-15.7,6s-2.6,9.7-2.2,13.2s7.5,12.3,13.4,14.9c-0.1,2.5-0.5,15.4,1.9,19.7
			c2.4,4.3,5.2,14,20.7,13.7s25.5-14,25.4-18c-0.2-4,0.2-14.4,0.5-15.7c2.1-1.3,17.1-9,20.6-10c-1.3-5.6,0.1-13.1,0.3-13.2
			c2.1-1.3,3.3-2.4,5.6-2c-2.3-4.8-19.9-9.1-24.3-9s-6.2,0.2-7.4,1.3s-3.4,4.2-18.6,4.2s-21.5-2.4-20.5-3.4
			C247.2,105.8,247,105.2,246.5,105.2z"/>
		<path class="st1" d="M255.6,85.1c-2.5-0.7-13.5,3.9-14.4,6.1c-0.4,1.9-0.6,7.7,0,9.5c1.2,1.2,9.8,6.4,26.9,5.4
			c17.1-1,21.6-6.1,24-7.5c0.8-3.1,0.9-8.7,0-10.1c-2.8-1.8-12.1-3.7-15.4-4.2c0.3,2.3-6,4.2-10.1,4.2S256.8,87.7,255.6,85.1z"/>
		<path class="st1" d="M241.2,91.2c2,1.6,17.6,3,25.4,2.9s21.6-2.8,25.4-5.6"/>
		<circle class="st1" cx="266.7" cy="99.9" r="2.1"/>
		<circle class="st1" cx="283.6" cy="96.9" r="1.9"/>
		<circle class="st1" cx="251.1" cy="97.8" r="1.7"/>
		<path class="st1" d="M246.5,107.5c-3.9,1-13.5,6.5-15.2,8.2c-0.5,1.8-0.3,4.4,0,5.4c1.1,1.7,7.3,7.9,10.6,9.4
			c0.8-4.7,7.3-12.2,13.1-14.8c0,2.8,2,5.3,3.1,6.1c2.4,0,8.7,0.3,10.8-0.1c2.1-3.2,3.7-5.3,4.7-6c4.4,2.8,11.1,11.7,11.9,15.4
			c5.9-1.7,15.6-6.4,17.4-8.4c1.8-2,0.9-7.9-0.6-8.6c-1.4-0.7-11.9-7.2-14-7.4c-1.4,1.4-7,5-19.5,5s-21.1-1.3-22-2.7
			C245.9,107.7,246.5,107.5,246.5,107.5z"/>
		<path class="st1" d="M246.4,112.5c1.2,0.7,2.2,1.3,2.2,1.3l-4.2,4.1l-3.6-2.1L246.4,112.5z"/>
		<polygon class="st1" points="281.7,113.6 283.6,112.5 287.4,115.7 284.6,117.8 	"/>
		<path class="st1" d="M252.8,124.8c-3.8,1.2-9,8.2-9,14.3c0,6.1-0.4,14.3,1.8,17c1.4,1.7,5.6,2.9,15.5,2.9s17-0.6,19-3.4
			c2.1-2.8,2.4-17.7,0.8-20.5s-7-9.4-9.2-10.1C269.4,124.2,256.8,123.5,252.8,124.8z"/>
		<path class="st1" d="M261.2,134.5c-4.2,0.1-10.8,0-11.8,2.3c-1,2.3-0.8,8.5,0,9.5s4.1,3.5,10.7,3.3c6.6-0.2,10.3-1.7,11.4-3.3
			s0.7-8.4,0-9.5C270.9,135.7,265.1,134.4,261.2,134.5z"/>
		<path class="st1" d="M260.2,135.8c-3.3,0-8.3,0.4-9.1,1.9c-0.9,1.5-0.6,6.3,0,7c1.7,1.9,10,4,18.3,0c1-1.2,0.6-6.6-0.6-7.3
			C268.6,137.2,264.5,135.8,260.2,135.8z"/>
		<path class="st1" d="M310.7,126.7l-25.2,12c0,0-0.9,11.6-1.9,15.4c-1.1,4.3-4.4,8.4-9.4,9.3c-5,0.9-22.9,1.3-28-3.2
			c-1.6-1.9-3.2-3.2-3.2-3.2"/>
		<polygon class="st1" points="318.1,114.2 315.2,113.7 311.7,116.2 310.5,122.6 311.4,126.7 314.9,128.2 319.3,127.5 326.6,121 
			322,115.1 	"/>
		<path class="st1" d="M317,127.9c0,0-1.1,3-0.8,4.7c0.3,1.7,0.8,3.9,2.8,6.2c2,2.3,13.7,16.1,16.7,18.6c0-5.3,3.1-5.6,6.4-5
			c3.3,0.7,4,8.4,7.8,7.4s3.5-5.6,0-15.9c-3.5-10.3-14.9-25.4-20.1-26.9c-5.3-1.5-6.4,0-6.4,0l3.1,4l-7.3,6.5L317,127.9z"/>
		<path class="st1" d="M345.9,156.6l-2.3,3.2l-0.4,4.5l-3.4-0.8l-3.9-4.5l-0.1-1.7c0,0-0.4-3.3,1.3-4.2c1.7-0.9,3.3-1.4,5.7-0.6
			S345.9,156.6,345.9,156.6z"/>
		<path class="st1" d="M346.4,158.2c-1.5-0.3-2.8,1.1-3,2.8s-1.5,7.4,4.6,8.4c6.1,1,8.2,0,9.9,0c1.7,0-4.5-3.1-3.6-4.5
			c0.9-1.4,5.3-3.5,2.6-5.9s-4.8-0.8-4.8-0.8l-2.2,1.6l-2-0.4L346.4,158.2z"/>
		<path class="st1" d="M364.7,166.3c2.5,0.5,4.3,5.5,3.5,9.3s-8.7,16-10.7,16.8c-2.1,0.7-2.8-1.1-2.8-1.4c0-0.3,1.5-5.6,1-8.3
			s-0.2-4.5,2.1-8.1c2.4-3.6,2-4.8,1.1-6.3S361.4,165.7,364.7,166.3z"/>
		<path class="st1" d="M357.5,161.5l3,0.8l2.1,2.3v1.5l-3,0.7c0,0-0.9,0.3-0.8,1.6c0.1,1.3-0.2,1.1-1,0.4c-0.9-0.7-3.6-3.3-3.6-3.3
			L357.5,161.5z"/>
		<path class="st1" d="M355.5,181.6c-1.6,5.4-5.4-3.3-7.7-2.9c-2.2,0.4,0.9-7.4,5.5-8.9s5.8-1.5,6-0.5c0.2,1,0.3,2.5-2,6
			C355.1,178.7,355.3,178.4,355.5,181.6z"/>
		<polygon class="st1" points="348.3,178.7 337.3,191.2 341.4,192.6 343.9,198.8 342.4,203.5 343.9,203.5 355.2,192 354.7,191 
			355.7,185 355.5,181.6 354.3,183.4 352.7,182.8 	"/>
		<polygon class="st1" points="337.3,191.2 333.9,191.1 332.5,191.9 329.8,190 325.4,186.2 322,186.9 315,193.1 315,198.7 
			317.7,200.3 320.1,199.4 322.9,194.8 327.6,197.9 327.3,203.9 321.9,202.1 318,205.1 318.6,210.2 332.2,216.5 342.3,209.7 
			342.4,203.5 343.9,198.8 341.4,192.6 	"/>
		<polyline class="st1" points="327.3,203.9 330.3,208.1 334.5,206.1 337.3,200.3 336.6,198.3 332.5,196.7 	"/>
		<path class="st1" d="M323.8,212.6l-1.9,2.7l-6.4-0.7l-5.9,1.9v3.3c0,0,6.8,3.3,12.3,2.9s10.3-6.2,10.3-6.2L323.8,212.6z"/>
		<path class="st1" d="M229.3,112.5c-1-0.6-2.5-0.4-3.3,1.1c-0.8,1.5-1.3,7.1-1.3,7.1l0.8,6l-0.8,0.4c0,0-0.2,2.7,0.6,3.5
			c0.8,0.8,9.2,8.7,16.5,10.7c0-0.5,0.1-2,0.1-2s-3.8-1.3-8.6-6.9c-4.8-5.6-5-6.5-5-10c0-3.5,0.3-7,0.7-8.2
			C229.5,113,229.3,112.5,229.3,112.5z"/>
		<path class="st1" d="M255.1,171.2c-1.4,0.7-2.8,1.6-4,4.1l-3.4-5.5l-4.7-2.1l-6.5,6.1l-0.7,5.5l3.8,5.2l-3.8,4l-2.5,8.8l5.7-8.1
			l4.7-5.4l0.2-3.6l7.3-1.4l21.6,0.6l12.7,14.8l3.6-0.2l5.9-5.3l-2.9-3.1c0,0,5.7-4,6.1-6.2c0.3-2.2-4-9.4-6.9-10.7
			c-3-1.4-5.9,0.3-7.6,2.7c-1.7,2.5-2,4.8-3.8,3.3c0.9-1.2,0.2-4.5-1.8-5.8C270.8,172.7,264.1,174.1,255.1,171.2z"/>
		<path class="st1" d="M280.9,175.1c-2.5,4.3,2.5,10.4,11.1,10.4"/>
		<path class="st1" d="M233.3,197.3c-1.8,2.9-2.1,8.1,2.8,6.9c0-4.6,2.1-6.6,14.4-6.9s19.3,0.9,22.2,3.6s3.6,11.4,14.2,9.9
			c10.6-1.4,13-9.8,12.6-13.6s-1.5-6.4-4.5-8.5C289,194,289,194,289,194l-3.6,0.2l-12.7-14.8l-21.6-0.6l-7.3,1.4l-0.2,3.6l-4.7,5.4
			L233.3,197.3z"/>
		<path class="st1" d="M240.8,187.6c0,0,2.4,4.4,3.9,5.6c1.5,1.2,20.5,1.2,22.7,0c2.2-1.2,7.1-6.6,8-8.6c-1.7-2-4.4-5.3-4.4-5.3
			s-17.9-0.7-19.9-0.6c-2,0.1-7.3,1.4-7.3,1.4l-0.2,3.6L240.8,187.6z"/>
		<path class="st1" d="M275.4,189.3l2,1c0,0-3,5.8-3.3,5.8s-2.8-0.7-2.8-0.7l-0.9-2.1L275.4,189.3z"/>
		<polygon class="st1" points="240.8,189.3 240.8,193.3 240,194.8 238.1,194.2 239.5,189.8 	"/>
		<polyline class="st1" points="327.6,197.9 331.6,198.3 334,194.2 332.5,191.9 	"/>
		<path class="st1" d="M297,205.2c1.2,1.1,1.1,3.2,0.5,4s-2.5,5.9-12.6,5.1c-10-0.9-14.8-8.2-15.1-9.1c-0.8,2.4-5.7,2-6.7,0.8
			c-1-1.2-6.4-2.6-10.5-2.6c-4.1,0-8.8-0.1-10.2,0.7c-1.4,0.8-2.7,2.5-3.1,3.4c-0.3,0.9-3.1-0.1-3.3-3.4c-0.2-3.2,1.5-5.5,5.8-6.1
			c4.2-0.6,16.5-2.2,25.9,0.4s3.3,7.4,12.5,11.6S297,205.2,297,205.2z"/>
		<path class="st1" d="M244.4,203.7c-3,3.5-8.1,23.1-8.3,46.5c-0.1,14,2,33.1,10.3,47c4.8,8,23.1,8.3,25.9,4.2
			c-5.2-2.9-12.8-30.3-12.2-50.9c0.6-21.4,4-37.6,6.5-43.5c-1.8,0.4-3.3-0.9-3.3-0.9l-6.1-2.3H244.4z"/>
		<path class="st1" d="M239.5,207.6c-4.6,9-7.1,26-7.3,40.2c-0.2,14.2,2.7,40.4,10.8,48.8c2.2,1.5,4.3,1.8,4.3,1.8"/>
		<path class="st1" d="M238.1,208.1c-3.5,4.6-9,15.2-9.6,37.9c-0.5,22.1,4.8,44.5,10.9,45.8"/>
		<path class="st1" d="M294.5,212.6c2.8,3.5,6.5,16.2,5.5,34.4c-1,18.2-6.1,36.1-11.4,42.8c-5.4,6.7-12,11.7-16.3,11.6"/>
		<path class="st1" d="M277.4,212.6c-1.9,4.1-6.2,16.6-5.2,36.7s5.2,36.3,11.8,35.7c6.6-0.7,15.3-18.7,16-38
			c0.7-19.3-2.8-27.2-6-34.1"/>
		<path class="st1" d="M282.1,213.8c-2.1,4-6,22.5-5.6,33.2c0.4,10.7,4.2,33.5,8.1,33.6c4,0.1,14.3-14.3,14.2-34.9
			s-4.2-30.8-5.4-32.5"/>
		<line class="st1" x1="248.6" y1="104.2" x2="246.5" y2="105.2"/>
		<polyline class="st1" points="286.2,102.2 287.4,103.2 287.4,105.1 	"/>
		<polygon class="st1" points="251.1,71.2 264,80.5 269.4,80.5 271.2,78.1 273.2,80.5 276.1,80.5 287.4,69.4 287.4,57.7 280.7,52.9 
			276.9,54 275.1,57.6 265.4,57.3 261.9,53.6 257.8,53.4 250.5,58.1 	"/>
		<ellipse class="st1" cx="261.1" cy="59.3" rx="4.5" ry="3"/>
		<ellipse transform="matrix(0.1737 -0.9848 0.9848 0.1737 173.2027 324.991)" class="st1" cx="280.3" cy="59.3" rx="3.1" ry="3.9"/>
		<circle class="st1" cx="272.7" cy="35.8" r="8.2"/>
		<path class="st1" d="M279.7,77c0.5,1.8,3.8,2.1,7.8,1.9c4-0.1,12.6-3.7,15-10.8c2.4-7,2-35.2-3.9-40.6c-3.3-3-5.9-3.2-5.9-3.2
			l-1.7-4.2l-3-1.4l-8.3,0.4l-2,2.1l-0.8,3c-5.8-3.1-20-1-22.7-0.1c0-2.4-2.1-5.4-7.7-5c-5.5,0.4-8.1,3.4-8.4,5.4
			c-5.6,0.9-11.4,2.6-12.6,7c5.1,0.3,10,4.7,11,15.1c1,10.3,0.5,20.4-3.2,25.9c-1.2,1.2-5,2.4-7.4,1.5c2.6,2.2,9.6,5.6,17.1,4.9
			c7.5-0.7,12.4-0.9,14.4-3.2l-6.3-4.6l-0.6-13.1l7.3-4.6l4.1,0.1l3.5,3.7l9.7,0.3l1.8-3.6l3.8-1.1l6.7,4.8v11.7L279.7,77z"/>
		<path class="st1" d="M298.2,74.2c1.2,1.2,11.9-7.7,13.5-10.6c2.2-3.8,3.7-21.8-1.1-28.2c-6.7-9-11.1-7.8-12.5-8.2
			c3.8,3.5,5.6,11.7,5.6,23.5c0.1,11.8-0.8,17.1-2.2,19.2C300.3,72,298.2,74.2,298.2,74.2z"/>
		<path class="st1" d="M225.6,31.6c-2.3-0.3-4.2,3.1-4.9,3.7c-1.6-1-5.7,1.7-5.9,5.6c-0.2,3.9,1.3,5.4,1.7,5.5
			c-1.8,1.2-1.6,2.8-1.8,4.3c-1.4,0-4.9,1.2-4.8,5.5c0.1,4.3,2.1,8.3,5.4,7.5c-0.1,4.2,6.3,10.4,10.7,10.4c4.4,0,6.4-0.7,7.4-1.5
			s4.6-10.9,3.5-22.2S233.3,32.6,225.6,31.6z"/>
		<path class="st1" d="M220.7,35.4c2.7,1.5,3.8,3,3.6,7.5c-0.2,4.5-6.5,4.5-7.8,3.6"/>
		<path class="st1" d="M227.3,56.8c-0.9-2-4.4-4.2-6.8-1.2c-2.5,3.1-2.1,10.8,2,11C226.4,66.9,229.9,62.4,227.3,56.8z"/>
		<path class="st1" d="M218.9,62.2c-2.5,1-3.6,0.8-4,0c-0.4-0.8-4.6-7.2-0.1-11.4"/>
		<path class="st1" d="M311.7,63.6c0.6,2.5,8.8,1.3,9.3-4.8s-4.5-8.8-7.2-8.6"/>
		<path class="st1" d="M316.5,50.8c0.1-2.2,0.7-8.2-3.5-9.6"/>
		<path class="st1" d="M316.4,46c1.8-1.2,4.6-5.3,0.2-9.3c-3.4-3.1-5.3-0.3-5.3-0.3"/>
		<path class="st1" d="M228.2,31.6c0.4-2.8,7-5.3,10.6-5.6c0,3.8,6.9,7.6,10.6,7.6c3.7,0,4.9-2,4.9-2V26l10.3-2.3l13.3,2
			c0,0,5.9,5.4,6.6,7.9c0.7,2.5,0.8,5.4,0,7c-0.8,1.6-5.8,5.4-5.8,5.4"/>
		<path class="st1" d="M231.9,73.4c1.8,2.2,9.7,4,12.7,2.5c3.1-1.5,4.7-10.8,3.9-13.7c-0.8-2.9-3.8-3.6-3.9-4.7
			c-0.1-1.1,4.4-8.3,9-10.6c4.6-2.3,29.9-1.5,34.5-1c3.1,2.9,6.6,9.2,6.8,11.5c0.2,2.4,0.7,3.1-1,3.4s0.6,5.6-1.9,8.7
			c-2.5,3.1-4.4,5.9-6.9,6.8c-2.5,0.9-4.2-0.7-4.2-0.7"/>
		<path class="st1" d="M256.3,76.7c0,0-0.9,4.4-0.7,8.4"/>
		<line class="st1" x1="276.6" y1="84.3" x2="276.1" y2="80.5"/>
		<path class="st1" d="M269.2,179.3l4.2,5.3l-7,7.4c0,0-8.1,0.8-12.2,0.6s-8.4-0.6-8.4-0.6l-3.9-5.6"/>
		<path class="st1" d="M235.9,179.4c0.4-3.5,7-9.9,11.9-9.5"/>
		<polyline class="st1" points="286.1,168.9 287.4,174.1 293.2,178.2 298.1,179.4 	"/>
		<line class="st1" x1="287.4" y1="174.1" x2="281.7" y2="181.2"/>
		<line class="st1" x1="293.2" y1="178.2" x2="287.7" y2="185"/>
		<polyline class="st1" points="239.7,184.6 243.1,182.5 243.5,181.2 238.2,175.1 	"/>
		<polyline class="st1" points="251.1,175.3 247.7,178.2 243.8,180.1 	"/>
		<line class="st1" x1="243.7" y1="170.8" x2="247.7" y2="178.2"/>
		<path class="st1" d="M321,126c0,0,16,13.3,21.7,26.5"/>
		<path class="st1" d="M269.9,24.5l-8.8,1.4l-4.9,3.3l-0.7,5.6c0,0-0.3,4.6,2.5,6.3c2.8,1.7,5.4,4.4,7.6,4.3"/>
	</g>
</svg>
