
<svg id="bp-598" viewBox="0 0 527 318">
	<style type="text/css">
		.st0{fill:#fff6;stroke:#33f;stroke-miterlimit:10;}
		.st1{fill:none;stroke:#33fa;stroke-miterlimit:10;}
	</style>
	<g>
		<path class="st0" d="M336,157.5c0-1.1-0.6-3.3-1.6-4.1c-0.3-0.2-0.5-0.3-0.8-0.4c-0.1-2.1-0.4-3.8-0.8-4.5
			c-4.3-5.7-22.2-12.3-28.7-13.6c-7-4.6-20.6-6.6-24.2-7c0.1-2.7,0-6.1,0-8.2c0-0.7,0-1.2,0-1.6c0-1.6-2-4.3-4.3-4.3
			c-3,0-4.2,3.4-4.2,5.2v8.4c-4.3-0.1-19.7,0.3-23.8,0.6c0.1-2.5,0-5.1,0-6.9c0-0.7,0-1.2,0-1.6c0-1.7-2.1-4.1-4.1-4.1
			c-2.1,0-5.3,1.5-5.3,5.6c0,3.2,0.1,7.4,0.1,8.7c-7,1-12.9,4.5-17.2,8.1c-4.8,1.6-11.1,5.5-14.4,7.7c-0.6-0.5-1.3-0.7-2.1-0.5
			c-4.2,1.1-12.7,10.2-13,12.7c-0.3,2.3-0.8,16.5,0,20.8l0.1,0.2c1.7,2.9,10,9.1,15.9,12c1.8,0.8,3.9,1.6,6.2,2.3
			c4.8,4.3,25,11,59.4,11c0.1,0,0.2,0,0.3,0c29.1,0,43.9-15.9,50.2-22.7c0.6-0.6,1.1-1.2,1.6-1.7c3.6-4.8,6.5-9.9,6.5-9.9l0,0
			c0.6-0.9,1-1.7,1.2-2.4c0.3-1,0.6-2.9,0.7-5.1C335.3,161.7,336,158.7,336,157.5z"/>
	</g>
	<g>
		<path class="st1" d="M204.6,145.7c2.5-0.6,4.2,4.2,1.8,4.8c-2.4,0.7-10.1,3.5-3.4,9.5c6.7,5.9,22.8,7.2,25,6.8
			c1.1-2.5,3.6-3.2,6.3-2.9s7.8,4.5,7.7,11c-0.1,6.5,0,13.5,0,15.6s-3.6,4.8-10.3,4.8c-6.7,0-17.8-2.1-23.9-5
			c-6.2-3-14.2-9.2-15.7-11.8c-0.8-4.2-0.3-18.3,0-20.6C192.3,155.7,200.7,146.7,204.6,145.7z"/>
		<path class="st1" d="M238.7,130.3c-13.5,1.7-23.2,13.1-24.5,16.7c-0.7,2.2-0.4,4.6,0,5.9c3.2,3.1,12.7,9.3,28.7,8.5
			c0-1.7,6.3-8.4,11-10c4.7-1.5,34.8-5.8,39.2-5.1s10.9,3.8,12.1,5.3c1.2,2.4,1.8,3.5,1.7,4.4c1.9-1.7,4.5-15.2-2.3-20.3
			s-22.1-7.3-25.2-7.5c0.1-3.6,0-8.9,0-10.2s-1.8-3.8-3.8-3.8c-2.7,0-3.7,3.2-3.7,4.7c0,1.5,0,7.8,0,8.9c-3.3-0.1-21.7,0.3-24.8,0.6
			c0.1-3.6,0-7.6,0-9s-1.9-3.6-3.6-3.6s-4.8,1.2-4.8,5.1S238.7,130.3,238.7,130.3z"/>
		<path class="st1" d="M248.5,161.1c0-3.1,5.2-8.6,10-10c4.8-1.4,29.2-5,33.8-4.7c4.6,0.2,16,13.6,16.6,15.2c0.6,1.6,0.8,28.9,0,30.8
			c-2.4,3.1-16.2,11.9-44.3,6.7c-2.5-2.2-2.1-21-1.2-27c-2-2.9-7.8-11-10.5-11.4C250.6,160.4,248.5,161.1,248.5,161.1z"/>
		<path class="st1" d="M309,162.2c-4.2-1.5-37.3,2.1-40.7,6.7c-1.5,2.9-0.4,26.9,0.4,28.7c0.8,1.9,11.6,3.4,20.8,2.5
			c9.2-0.9,19.4-5.5,19.5-7.8C309.5,183.7,310.1,163.5,309,162.2z"/>
		<path class="st1" d="M289.8,172.9c4.5-0.4,8.1,2.7,8.1,6.5c0,5-3.4,7.9-7.4,8.4c-4.2,0.5-8.5-1.4-8.8-6.6
			C281.5,176.2,285.3,173.4,289.8,172.9z"/>
		<path class="st1" d="M290.3,172c5.4-0.5,9.7,3.2,9.7,7.8c0,6-4.1,9.5-8.9,10c-5,0.6-10.2-1.7-10.5-8
			C280.3,175.9,285,172.5,290.3,172z"/>
		<path class="st1" d="M271,171.5c-0.2-0.8,4.1,0.5,4.6,1.4c0.4,0.8-0.7,2.4-1.6,2.5C273.1,175.5,271.5,173.1,271,171.5z"/>
		<path class="st1" d="M306.3,191.3c0.5,0.6-4,0.9-4.6,0.4c-0.6-0.5-0.1-2.2,0.7-2.6C303.2,188.6,305.4,190,306.3,191.3z"/>
		<path class="st1" d="M305.5,166c0.9,0-1.4,3.9-2.3,4.2c-0.9,0.2-2.2-1.2-2.1-2.1C301.2,167.1,303.8,166.1,305.5,166z"/>
		<path class="st1" d="M271.9,195.6c-0.9-0.2,2.4-3.1,3.3-3.1c0.9,0.1,1.8,1.8,1.5,2.6C276.4,195.9,273.5,196.1,271.9,195.6z"/>
		<path class="st1" d="M306.3,137.7c3.9,0.4,14.2,7.8,14.3,10.5c0.1,2.6-3.7,2.9-4.7,3.7c-1,0.9-0.6,3.6,1.2,4.5
			c1.8,0.9,3.5,3.3,3.5,7.3c0,4,0,12.8,0,14.8s1.5,3.1,3.2,0.8c1.7-2.3,7.5-8.7,8.6-11.9s1.1-16.2,0-18.4
			c-4.3-5.7-22.5-12.3-28.5-13.5"/>
		<path class="st1" d="M206.5,146.3c3.3-2.2,9.9-6.3,14.7-7.9"/>
		<path class="st1" d="M213.9,192.7c4.8,4.4,25.8,11,59.4,10.9c31.5,0,46-18.7,51.4-24.2c3.6-4.9,6.5-9.9,6.5-9.9"/>
		<path class="st1" d="M192.9,156.1c-1.9,5.5,12,17.9,49,20"/>
		<path class="st1" d="M309.3,166c5.5-1.9,10.8-5.7,10.8-5.7"/>
		<path class="st1" d="M320.5,161.6c2.3-0.6,12.7-7.5,11.3-13.4"/>
		<path class="st1" d="M241.9,174.2c3.9,1,16.9,1.7,19.5,0s-6.8-11.8-8.2-12.3s-4.6-0.8-4.6-0.8"/>
		<path class="st1" d="M249.2,164.7c-0.9-0.2,0.9,4.8,1.6,5.8c0.7,1,3.6-0.6,2.9-1.8S251.1,165.1,249.2,164.7z"/>
		<path class="st1" d="M309.6,154.5c-0.1-0.5,3.5,3.3,3.9,4.1c0.3,0.8-1.2,2.2-1.9,2C310.8,160.4,310.1,157.1,309.6,154.5z"/>
		<path class="st1" d="M298.4,149.9c-4.6-1-33.2,2.5-35.9,3.7c-2.7,1.2-4.6,3.7-4.9,4.9c0.9,3.4,8.4,9.7,10.7,10.5"/>
		<path class="st1" d="M257.6,158.5c-0.4,2.9,5.9,13.5,5.9,13.5"/>
		<path class="st1" d="M268.7,197.6c-2.1,0.7-4,1.4-4,1.4"/>
		<path class="st1" d="M219.9,194.2c9.4,4.1,43.8,9.4,65.8,6.4"/>
		<path class="st1" d="M309.2,188.9c2.9-1.1,13.2-8.6,13.2-8.6"/>
		<path class="st1" d="M227.2,134.2c-5.9,4.2-11.7,11.4-11.8,13.2c-0.1,1.9,8.9,9.9,30.7,9.6"/>
		<path class="st1" d="M305.2,151.7c1.7-1.3,3.5-9.4,0.5-14.8"/>
		<path class="st1" d="M238.7,130.3c0,0,0,4.6,0,6.2c0,1.5,5.4,7,9,7.9c2.5,0,32.1-2.6,34-3.9c1.1-2.5,0.8-4.8,0.3-5.7
			c-0.6-0.9-2.5-3-2.5-3l-0.1-3.4"/>
		<path class="st1" d="M243.4,116c-1.9,0.4-3.5,3.3-3.3,7c0.2,3.7,0,10.7,0,10.7s6.3,8.5,7.8,8.7c1.5,0.2,32.4-2.9,33.1-3.4
			c0.7-0.5,1.7-1.7,1.5-2.6"/>
		<line class="st1" x1="247" y1="128.6" x2="247" y2="133.3"/>
		<line class="st1" x1="271.8" y1="128" x2="271.8" y2="132"/>
		<path class="st1" d="M326.2,161.1c1.1-0.6,2,1.4,2.3,2.9s-0.3,5.4-1.2,6.2c-0.9,0.8-3-1-3.2-3.3S324.7,162,326.2,161.1z"/>
		<path class="st1" d="M333.2,153.5c1.3-0.2,2.2,2.7,2.2,4c0,1.2-0.7,4-2.2,4.3"/>
		<path class="st1" d="M195.9,167.8c-1-1.4-3.3,1.2-3.2,3.4s0.8,4.9,2.5,5.5S198.4,171,195.9,167.8z"/>
		<path class="st1" d="M209,174.5c-1.1-0.9-3.7,1.3-3.7,3.6c0,2.4,0.5,6.2,2.9,6.5C210.5,185,212.9,177.5,209,174.5z"/>
		<path class="st1" d="M225.9,177.9c-1.9-0.7-4.7,2.1-4.7,4.4c0.1,2.2,0.5,6.3,3.4,6.6c2.9,0.3,3.5-4.1,3.6-5.5
			C228.4,182,228,178.7,225.9,177.9z"/>
		<path class="st1" d="M309.6,170.5c1.7,0.2,2,4.1,2,5.6c0,1.5-0.6,4.5-2,5"/>
		<path class="st1" d="M260.2,177.9c1.3-0.1,1.5,4.9,1.6,6.7s-0.5,6.7-1.8,6.7s-2.8-4.6-2.4-7.6C258,180.8,258.9,178,260.2,177.9z"/>
		<path class="st1" d="M261.4,174.2c0,0-6.2,3.8-5.7,11.7c0.5,7.9,8.1,11.2,8.1,11.2c-4.6,0.1-23.9-0.9-28.6-1.9"/>
		<path class="st1" d="M309,162.2c2.2,1.5,2.1,28.2,0,30.1"/>
	</g>
</svg>
