
<svg id="bp-614" viewBox="0 0 527 318">
	<style type="text/css">
		.st0{fill:#fff6;stroke:#33f;stroke-miterlimit:10;}
		.st1{fill:none;stroke:#33fa;stroke-miterlimit:10;}
</style>
<g>
	<path class="st0" d="M228.3,170.1C228.4,170.1,228.4,170.1,228.3,170.1c1,0,2.7-1.1,3.8-2.1l-0.4,0.8l0,0.1c0,0.1,0,3.5,0.7,5.3
		c0.7,1.9,7.7,7.2,9.2,7.7c0.4,0.1,1.2,0.2,2.2,0.2c2.7,0,6.9-0.4,8.6-1.3c-0.1,1-0.3,3.9-0.4,5.8c-0.2,2.4,3.4,11.1,4.1,12.7
		c-0.2,0.9-1.1,5,0,7.5l-1,3.2l0.5,4.1l0.7,0.6l-2.9,4.5l0.9,13.3l5.1,17.8c-0.5,0.7-2.1,2.7-2.9,4.4l-4.6-0.7l-2.2,2.7l-0.4,2.5
		l0,0l-4,2.2l-2.3,3.9v3.1l5.5,4h5l1.5-1.6c0.2,1,0.5,2,1.1,3.1c4.2,8.2,13.1,10.7,18,11.5c0.3,0,0.5,0.1,0.8,0.1
		c2.1,0,4.3-1.2,5.8-2.5c0.5-0.4,1.9-1.7,1.9-2.7c0-0.8-1.2-2.1-4.4-5.4c3.4,2.2,7.5,4.5,8.5,4.5c1.6,0,4.8-2.1,5-6
		c0.2-3.7-15.8-18.7-17.6-20.4l-0.1-0.1h-2.4l0.5-1l0.7-30.2c0.2,0,0.3-0.1,0.5-0.2c2-1.3,3.9-7.8,4.2-9.3c0.4-1.9-0.3-5.5-1.2-7
		c1.6-2.2,3.9-11.5,4.5-16.2c0.6-4.6,0.8-26.4-2.1-27.3c-1.5-0.5-5.3,0.5-8.2,1.9c2.3-3.3,4.6-7.1,5.4-8.6c0.9-1.7,0.9-2,0.8-2.3
		c-0.2-0.4-3.9-6.4-6-6.4c0,0,0,0-0.1,0c-0.3,0-0.8,0.2-1.8,1.6c-0.4,0.5-0.8,1.1-1.3,1.8l-5.5-1.2l-4.7,3.2l-0.6-0.3l1.2-2.5
		l-1.1-2.1l1.3,0l4.4-6.4l0.6-5c0.6,0,1.2-0.2,1.8-0.5c1.3-0.6,2.5-6.7,4.2-18.4l1.2,3.3l5.5,7.5l-0.7,3.8l5.8,7.5l8.7,0.9
		c0.5,0,13.4-1,19.6-9.1c6-8,16.6-22.2,16.7-22.4l0.1-0.1l0.3-3c0.9,1.1,2.5,1.4,5.8,1.4c0.3,0,0.6,0,1,0c5.2-0.1,8.9-1.7,10.7-4.6
		c1.6-2.6,13.2-26.6,13.7-27.6l0.1-0.1V69l-7.3-2.2l-4.5,1.1l-0.1,0.2c-2.5,4-9.1,14.8-10.3,15.9c-0.3,0.3-1,1.1-1.8,2.1
		c-0.6,0.8-1.5,1.9-2.5,3l0-0.2c-0.4,0-0.9-0.6-1.2-1.6c-1-2.9-0.6-8.6,2.2-10.9c1.2-1,2.5-2.2,3.9-3.5c2.9-2.7,6.2-5.8,8.1-6.3
		l0.1,0.7l0.5,0c6.5-0.5,6.7-1.1,6.8-1.4c0.2-0.5,1.5-4.6-0.5-5.4c-1.6-0.7-12.2-1-14.5-0.7c-2.9,0.5-23,16.6-23.2,23.2
		c-0.2,5.7,1.4,10.9,4,13.6l-3.9,0.9l-0.1,0.3c-1.2,3.2-13.3,17.9-15.6,19.6c-2.2-1-5.5-1-5.6-1h-0.1l-3.1,1.5
		c0.2-0.4,0.4-0.9,0.6-1.5c1.6-4.9,2.3-18.4-0.4-21l1.5-2.4l-0.5-0.3c0.6,0,1.1,0,1.6,0c2,0,3.6-0.2,4.1-0.6
		c1.3-1.1,5.4-10.9,3.5-21.8c-2.2-12.3-13.6-17.8-14-18c-2.6-1.2-10.4-0.5-13.5-0.1c-0.5-4.3-1.6-10-3.7-13
		c-2.5-3.5-6.4-6.8-11.8-9.9c-0.8-0.4-16-6.9-25.3-7c-9.2-0.2-21.3,4.2-22.4,9.5c-0.7,3.5,0.9,7.2,4.5,10.4c0.4,0.3,1.5,1.6,2.7,3
		c4.7,5.4,7.3,8.2,8.5,8.3c0.3,0,0.6,0,1.1,0.1l0.3,1.5c-0.3,0.3-0.6,0.9-0.8,1.8c-0.6,2.3-0.7,6.5,0.7,9.3
		c-1.9,0.7-8.2,3.4-12.3,8.8c-0.3-2.9-0.8-5.4-1.1-6.5c1-1.1,3.6-4.6,3.7-7c0.2-2.6-2.5-6.3-4.1-6.9l-0.2,0c0,0-3.5-0.1-16.4,0
		c-10.6,0.1-17.3,3.7-21.9,12c0,0,0,0.1-0.1,0.1l0,0c-0.5,0.9-1,1.9-1.5,3c-4,9-1.1,25.9,0.1,26.9c0.5,0.4,1.6,0.7,2.7,0.7
		c0.7,0,1.4-0.1,2-0.4c0.4-0.2,0.6-0.4,0.9-0.6l1.3,4.3c-0.1,0-0.1,0-0.2,0.1c-1.1,0.7-1.6,3.2-1.7,3.9c-0.3,2.1,2.2,19.7,2.5,21.7
		l0,0.2l1.4,1.4c-0.7,0.4-1.6,1.1-1.9,2.3c-0.5,1.8-1.6,13.4,0,17.8c1.6,4.3,11.4,23.7,11.8,24.5l2.2,2.1l0.2-0.6l1.2,0.8l-0.2,1.2
		l1.5,1.2c-0.8,1-2.8,3.4-3.2,4.5c-0.8,2.5-0.1,6.1,0.3,7.9c0.1,0.3,0.1,0.5,0.1,0.7c0.2,1.5,8.3,15.4,13.1,23.5
		c-1.3,1.5-1.9,5.5-2,6l0,0.1l0,0.1c0.1,0.2,0.3,0.8,0.6,1.6l-4.8,3.2l-1.3,15.7l4,24l-0.1,0.7c-2.7,0.6-8.5,6-9.1,10.9
		c-0.5,4.6,1.6,16.4,4.1,18c1.7,1.1,3.6,1.7,5,1.7c0.5,0,1-0.1,1.3-0.3c0.7-0.4,1-2.7,1.1-14.8c0.7,0.4,1.8,0.9,2.9,0.9
		c0.1,0,0.2,0,0.4,0c0.9-0.1,1.7-0.4,2.3-0.7c0,1.3-0.1,2.7-0.1,4.1c-0.2,5.7-0.3,9.2-0.3,9.7c0,0.2,0.1,0.6,0.8,0.8
		c1.5,0.4,5.7-0.4,7.4-2.6c2-2.7,5.2-18.4,2.5-23.3c-2.2-4-5-5.4-6-5.7l1.2-20l5.9-9.5l-0.3-9.8c0.7-1.4,1.6-7.5,1.6-8.1
		c0.1-1-0.2-1.8-0.5-2.3c0.5-0.4,0.8-0.6,0.9-0.8c0.2-0.3,0.5-1.1,0.6-1.9l2.5-2.1l0-0.2c0-0.2,4.8-19.3,5.4-21.7
		c0.6-2.6-0.5-12.2-2.2-15.2l-1.9-1.5L228.3,170.1z M205.7,98.3l9.8,10.1c-0.7,1.1-1,3.9-0.3,7.7c1,9.1,5.1,16.7,8.8,20.9l-1.4,3
		l1,3.6l4.9,2l-1.6,1.7l0,0.2c0,0.1,0.4,2,1.5,3.2l-1.4,0.9l-1,2.3c-1.5-1.6-3-2.9-4.2-3.3c-3.7-1.3-6.4-1.3-8.2,0.1
		c-1.5,1-5.7,5-5.8,9.2c-0.1,3.5,0.5,7.5,2.1,9.1l-0.9,3.3c-0.8-0.6-1.6-1.1-2.3-1.3l0.4-1.3l-1.4-1l1-1.2l-1-1.6l0.9-0.6l-0.5-6.6
		l-5-16.5l0.5-10.7l-1.6-1.8c0.1-0.2,0.3-0.4,0.4-0.6c0.1-0.2,0.2-0.4,0.4-0.5c0.2-0.2,0.4-0.9,0.8-1.8c0.1-0.3,0.3-0.7,0.5-1.2
		c2-5.3,5.3-15.6,5.4-17.2c0.1-1.8-0.7-8.7-2.2-9.7L205.7,98.3z"/>
</g>
<g>
	<path class="st1" d="M255.9,29.7c-0.8-0.4-15.9-6.8-25-7c-9.1-0.2-20.9,4.1-21.9,9.1c-1,5,3.1,8.8,4.4,9.9
		c1.3,1.2,9.2,11.1,10.9,11.2c1.7,0.2,8.9,0.1,10.7,1.7c1.7,1.7,12.6,21.3,12.7,22.2c0.2,0.9,1.4,1.6,2.8,1.7c1.4,0.1,7.2,0.2,8-0.4
		s-1-14.4-1.5-15.6c2.3,0.8,3.9,0.3,5.2-0.6c1.3-0.9,2.6-2.1,3-2.9c0.3,0.2,0.7,0.6,0.7,1.2c0,4.3-0.8,14.7-0.7,15.8
		c0.2,1.2,3,1.7,3.7,1c0.7-0.7,1.1-12.8,1.4-13.8c0.3-1,1.5-3.8,1.4-5.5c-0.1-1.7-0.7-13.5-4.1-18.2
		C264.8,35.5,260.4,32.3,255.9,29.7z"/>
	<path class="st1" d="M257,62.6c-0.7-1.9-8.5-17.8-17.1-19.1c-1.5-0.9-0.9-6.1,0-7.7c1-1.9,5-7.9,17.1-5.4"/>
	<path class="st1" d="M209.7,30.4c-1,1.9,11.3,13.5,14.2,13.8c2.9,0.3,15.6,0.7,16.3-0.9"/>
	<path class="st1" d="M230.8,44.4c-1.2,0.8-0.9,2.6-0.7,3.1c0.3,0.5,6.8,5,8.3,5.1s8.4,0.3,9.1-0.3c0.7-0.6,1.2-2.9-0.2-4.1"/>
	<path class="st1" d="M237.4,44.1c1.7,0.5,9.4,4.9,8.9,6.6c-0.7,0.7-8.2,0.6-11.3,0.2"/>
	<path class="st1" d="M257,52.3c0.1-2.2,2.2-3.8,3.9-3.2c1.7,0.6,4.8,3.4,4.2,5.8c-0.6,2.4-3.2,4.7-5.2,4S256.8,56.5,257,52.3z"/>
	<path class="st1" d="M261,49c1.4,0.8,5.5,6.3-1.7,9.3"/>
	<path class="st1" d="M269.7,44.1c-1.5-1.6-3.9-0.7-3.9,2s2.1,7.2,3.9,5.7c1.7-1.5,1-3.5,0.8-4.6"/>
	<path class="st1" d="M266.4,44.1c1.6-1.4,5.2,5.4,1.5,7.6"/>
	<path class="st1" d="M232.1,56.7c-2.9-1.2-4.5-2.1-5.8-1.4c-1.3,0.7-2.2,7.8,0,11.1c2.2,3.3,6.3,7.3,8.8,7.9
		c2.5,0.7,5.3-0.1,6.3-1.2s-1-9.4-3.5-12S232.1,56.7,232.1,56.7z"/>
	<path class="st1" d="M225.8,53.1l0.4,2.2c2.1,1,5.2,5.9,7,8.4c1.8,2.5,2.7,8.3,1.1,10.4"/>
	<path class="st1" d="M226.2,66.4c0,0-8.1,2.6-12.9,9.1"/>
	<path class="st1" d="M271.3,52.7c4.8-0.6,11.5-1,13.7,0c2.2,1,11.8,6.7,13.8,17.7c2,11-2.3,20.5-3.3,21.4c-1,0.9-9.5,0.7-12.6-0.8
		c-0.7-2.9,1.3-14.8,0-17.7c-1.3-3-4.7-7.1-8-7c-3.3,0.1-5.1,2.3-5.1,2.7"/>
	<path class="st1" d="M270.8,61.8c2.8-1.4,8.3-1.5,12.2,0.7c2.4,1.4,5.4,7.8,4.8,12.7c-0.6,5-1.8,13.2-1.5,14
		c0.3,0.8,8.5,1.2,10.5,0"/>
	<path class="st1" d="M269.9,71c3-2.1,5.1-3.8,8.1-1.7c3,2.1,4.8,7.5,5,10.8"/>
	<path class="st1" d="M269.6,74.6c3.1-0.7,8.3,1,8.5,4.1c0.2,3.1,1.5,13.6,1.2,18.1"/>
	<path class="st1" d="M258.8,82.9c2.9-1.9,1.7-6.4,3.5-6.2s7.6,3.6,8.5,7.5c0.9,3.9-0.6,10.8,0.9,13c1.5,2.2,3,3.5,2.7,4.6
		s-4.5,5.7-5.5,12.6c-1,6.8-2.8,19.4-4.2,20c-1.4,0.7-3.4,0.8-3.6-1.3s0.1-14-11.7-14.3c-11.8-0.3-13.3,7.7-13.5,11.3
		c-0.2,3.6-3.2,10.1-6.7,10c-3.5-0.1-12-10.3-13.5-24c-0.9-4.8-0.1-7.4,0.4-7.7c0.6-0.3,1.2,3.5,4.4,3.1c3.2-0.4,9.2-6.2,8.4-18.3
		c-0.9-12.1-4.3-15.1-5.7-16.5c0.3-2.2,3.2-1.7,4.7-1.3c1.5,0.4,9.6,7,11.2,8.8C241.6,84.8,256.3,84.6,258.8,82.9z"/>
	<path class="st1" d="M258.8,82.9c2.5,0.9,2.5,6.4,2.5,6.4s-15.4,0.3-16.5,0.7c-1.1,0.4-2.3,2.6-2.3,2.6"/>
	<path class="st1" d="M239.1,84.2c1.5,2.1,4.3,9.8,4,13.7s-3.2,10.1-7,9.7c-3.9-0.4-5.1-3.3-5.5-9.5s-1.8-12.6-3.9-16.3"/>
	<path class="st1" d="M224,77.6c3.2,2.3,8.2,8.7,8.4,15.6c0.2,6.9,0,9.6,1.5,10c1.5,0.4,6.7,2,8.6-2.7"/>
	<path class="st1" d="M260.4,81c4.9,0.8,2,17.7,4.9,19c2.9,1.3,8,1.2,8.5,0"/>
	<path class="st1" d="M261.3,89.3c-0.2,3.3,0.1,8.3,0.3,11.6c0.2,3.7,4.2,6.6,10.1,5.4"/>
	<path class="st1" d="M243.1,100c0.5,1.4,4.4,2.1,10.1,1.9c5.7-0.2,8,0.5,8.1-1.9"/>
	<path class="st1" d="M244.8,90.1c-0.7,1.9,0.6,7.5,1.5,8.4c0.9,0.9,13.9,1.6,14.8-1.2"/>
	<path class="st1" d="M241.6,84.5c0.7,2.6,1,4.8,2.4,5.7"/>
	<path class="st1" d="M223.1,76.7c-3.1,1.4-5.2,3.1-5.6,4.3c2.3,3.2,1.4,12.5,0,15.1s-4,1.8-4.8,1.1c-1.5-1.2-2.2-3.2-2.2-3.2"/>
	<path class="st1" d="M274.4,100.9c3.5-1.9,8-7.7,8.5-10l3.3-1.6"/>
	<polyline class="st1" points="290.1,92.7 286.3,98.7 283.8,100 280.3,97.9 277.1,101.9 273.7,103 	"/>
	<path class="st1" d="M288.3,95.5c2.6,1.1,2.3,15.4,0.6,20.7c-1.8,5.3-5.9,4.8-5.9,4.8l-3.2,0l-3.3,6.2l-5.6-7.6l-1.9-5.2"/>
	<polyline class="st1" points="277.1,101.9 277.1,112.5 279.7,121 	"/>
	<path class="st1" d="M277.1,106.6c0,0-5.9,0.2-7.5,9.5"/>
	<path class="st1" d="M277.1,109.4c-1.7,0-5.9,4.7-6.3,9.6"/>
	<path class="st1" d="M277.4,113.6c-2.1,0.3-4.4,2.9-4.9,8.3"/>
	<path class="st1" d="M278.4,116.8c-1.8-0.2-3.6,3.7-4,7.7"/>
	<path class="st1" d="M238.2,119.7c-1.4,0.6,0-14,7.1-15.8c3.5-0.9,16.8-2.1,16.1,3.9c-0.9,7.5-0.5,14.4-1.5,13.2
		c-2.7-3.3-5.2-4.2-10-4.2C245.2,116.8,240.3,118.8,238.2,119.7z"/>
	<path class="st1" d="M238.7,112.2c-0.5,1.9,1.8,3.7,9.7,3.1c7.9-0.6,12-1.2,12.8-6.9"/>
	<polyline class="st1" points="224.6,137 223.1,140.2 224,143.4 232.2,146.7 257.9,146.3 262.2,140.2 262.8,134.8 	"/>
	<polyline class="st1" points="236.4,127.2 238.7,137.1 234.8,141.8 229.3,141.8 228.8,140.2 	"/>
	<path class="st1" d="M259.2,124.5c1.2,3.2-0.6,19.4-1.3,21.8"/>
	<path class="st1" d="M237,125.3c2,4.1,4,9.4,3.5,21"/>
	<line class="st1" x1="232.2" y1="146.7" x2="229.3" y2="141.8"/>
	<path class="st1" d="M256.3,146.7l1.1,2.2l-1.3,2.7c0,0-7.6,2.3-14.6,2c-7-0.3-10.8-1.7-12.2-2.6s-1.9-3.4-1.9-3.4l1.9-2l0.5,2.1
		c0,0,4.7,2.8,13.7,2.5C252.5,149.9,256.3,146.7,256.3,146.7z"/>
	<path class="st1" d="M261.1,163.9c-0.4-1.8,8.1-17.1,9.7-17.2c1.6-0.1,5.2,5.3,5.6,6.1c0.4,0.8-9.4,15.9-10.7,16.1
		C264.4,169.1,261.5,165.7,261.1,163.9z"/>
	<line class="st1" x1="261.1" y1="163.9" x2="272.5" y2="147.7"/>
	<path class="st1" d="M213.4,164.5c-0.8-2.5-0.8-6.8,0.9-6.7s13,11.7,14.1,11.8c1.1,0.1,5-2.8,4.9-4.3c-0.1-1.1-7.7-12.9-11.5-14.2
		c-3.8-1.3-6.2-1.1-7.8,0c-1.6,1.1-5.5,4.9-5.6,8.8c-0.1,3.9,0.7,7.7,2.2,9C211.5,167.2,213.4,164.5,213.4,164.5z"/>
	<path class="st1" d="M228.4,169.6c-0.4-1.8-9.4-16-17.9-15"/>
	<path class="st1" d="M229.3,151l-1.9,1.1l-0.9,2c0,0,10.3,4.4,17.7,3.8c7.4-0.7,13.3-2.7,13.7-3.3c0.4-0.6-0.5-2.3-0.5-2.3
		l-1.3-0.7"/>
	<polyline class="st1" points="257.5,152.3 262.3,149 267.9,150.2 	"/>
	<path class="st1" d="M276.4,127.2l-0.7,3.8l5.5,7.1l8.4,0.8c0,0,13.1-0.8,19.2-8.9c6.1-8.1,16.7-22.4,16.7-22.4l0.5-4.5l-7.9-6.4
		l-4.5,1.1c-1.1,3.1-14,19-16.1,20c-2.2-1.1-5.6-1.1-5.6-1.1l-4.6,2.3"/>
	<line class="st1" x1="313.6" y1="97.9" x2="325.5" y2="107.6"/>
	<line class="st1" x1="312.4" y1="100" x2="324.2" y2="109.4"/>
	<line class="st1" x1="311.5" y1="101.3" x2="323.1" y2="110.9"/>
	<path class="st1" d="M326,103.2c0.7,2,1.8,2.6,7,2.5c5.3-0.1,8.6-1.7,10.2-4.4c1.6-2.7,13.7-27.5,13.7-27.5v-4.4l-6.9-2.1l-4.1,1
		c0,0-8.9,14.6-10.3,16s-8.5,11-11.1,10.8s-1.8-9.1-1.5-12.2c0.3-3.1,4.8-10.1,7.4-12.5c2.5-2.4,10.1-6.8,10.1-6.8l3.3,0.4l0.5,2.6
		c0,0,6.2-0.5,6.4-1c0.2-0.6,1.2-4.2-0.2-4.8s-11.7-1-14.2-0.6c-2.4,0.4-22.6,16.3-22.8,22.7c-0.2,6.5,1.8,11.7,4.5,13.9"/>
	<path class="st1" d="M323.5,81.4c-1.5,1.9-2.5,6.7-2.5,11.3s2.9,6.1,5,7.3c2.1,1.1,10.2-5.3,13.6-11.2c3.4-5.8,10.1-18,10.1-18
		l0.4-3.5"/>
	<path class="st1" d="M331,89.3c-2.6-0.1-3.4-10,0.7-13.4c4-3.4,9.9-9.8,12.6-10"/>
	<polyline class="st1" points="357,73.8 349.7,70.8 346,68.3 	"/>
	<line class="st1" x1="343.9" y1="64" x2="351.1" y2="61.4"/>
	<line class="st1" x1="216.1" y1="108.5" x2="205.9" y2="98"/>
	<path class="st1" d="M211.5,55.1c1.4,0.6,3.9,4,3.8,6.4c-0.2,2.4-3.2,6.4-3.8,6.9c1.1,2.7,2.9,19.3,1.1,23.9
		c-1.1,2.9-5.1,2.3-8.1,2.4s-9.9,0.4-10.6,0s0.6-19.1-3.5-23.7c-4.1-4.6-12.4-2.7-13.3,5.8c-0.9,8.5-0.2,15.9,0.6,17.9
		c-0.2,2.6-4.4,2.3-5.5,1.5c-1.1-0.9-4-17.4,0-26.3c4-8.9,9.9-14.7,23-14.8S211.5,55.1,211.5,55.1z"/>
	<path class="st1" d="M193.9,94.7l4.1-1.4c0,0,0.4-3.1,0-16.5c-0.4-13.4-10-16.1-13.4-16.5c-3.4-0.4-7.6,1.8-11,6.7"/>
	<line class="st1" x1="197.9" y1="93.3" x2="212.3" y2="92.7"/>
	<polygon class="st1" points="197.8,65.9 199.4,71 209.6,70.5 208.3,65.6 	"/>
	<polyline class="st1" points="198.2,67.2 207.2,66.8 208.5,70.5 	"/>
	<polygon class="st1" points="200,73.1 200.4,78 210.8,78 210.5,72.6 	"/>
	<path class="st1" d="M200.3,77c0,0,9.4,0.2,9.4,0s-0.2-4.3-0.2-4.3"/>
	<path class="st1" d="M193.4,100c1.5-0.7,10.5-1.5,11.6-0.7c1.1,0.7,2.1,7.1,1.9,9.2c-0.2,2.1-5.8,18.8-6.6,19.9
		c-0.8,1.2-1.6,2.6-2.5,2.6c-0.9-0.1-0.6-2.9,0.2-4.1c0.7-1.2,1.3-3.8,1.3-4.2s-1.7-1.3-3.3-1.5c-1.7-0.1-4.2,1.3-4.8,7
		c0,2.8-2.1,5.1-2.1,5.1h-2.1l-7.3-7.1c0,0-2.8-19.5-2.5-21.6s1.2-3.9,2.1-3.7c0.9,0.3,2.1,10.2,5,10.4c2.9,0.2,7.8-8,7.8-10.1
		L193.4,100z"/>
	<path class="st1" d="M203.3,99c0,0,1.7,6.8,1.6,8.7s-2.6,16.5-4,19.1"/>
	<path class="st1" d="M176.7,80.1c-0.5,9.8,1.8,17,5.3,17.2c3.6,0.2,7.3-7.9,7.5-14.3c0.2-6.5-3.8-14.3-5.7-14.3
		C181.4,68.7,177.1,71.6,176.7,80.1z"/>
	<line class="st1" x1="177.5" y1="95.1" x2="179.2" y2="100.9"/>
	<path class="st1" d="M180.1,103c0.8,2.8,1.7,4.6,3.4,4.6c3,0,6.8-10.2,6.8-14.9c0-1.2,0.7-3.8,0.7-3.8l2.5-0.6"/>
	<path class="st1" d="M182,97.3c0,0,1,0.7,2.1,0.8s9.1-7.1,7.9-16.7c-1.2-9.6-2.6-10.9-3.8-12"/>
	<path class="st1" d="M182.7,77.4c-1.1-0.2-2.7,1.9-2.6,4.9c0.1,3-0.1,7.7,1.9,7.8c2.1,0.1,2-6.3,1.9-8.3
		C183.9,79.8,183.8,77.6,182.7,77.4z"/>
	<path class="st1" d="M183.1,77.6c-1.4,0.1-2.7,8.4-0.3,12.2"/>
	<path class="st1" d="M181.5,127.9c0,0-1.8,0.6-2.2,2.3c-0.4,1.7-1.6,13.2,0,17.5c1.6,4.3,11.8,24.5,11.8,24.5l1.6,1.5l0.9-2.3
		c0,0-0.2-3.5,0-4.3s2-2.9,4.6-3.1s5.8,0.3,6.8,2l1.1-0.7l-0.5-6.3l-5-16.5l0.5-10.6l-1.7-2"/>
	<path class="st1" d="M186.5,132.8c0,0,7.1,23,7.7,24.4c0.6,1.4,1.7,1.3,3.2,1.1c1.5-0.2,0.8-9.7-0.7-13.5
		c-1.6-3.8-2.4-9.8-1.5-11.5c0.9-1.7,2.2-2.8,2.2-2.8"/>
	<path class="st1" d="M191.7,149.6c1.2,0.9,5.1,1.2,4.8-5.3"/>
	<path class="st1" d="M179.4,129.8c1.5-1.6,6.3,3.6,7.8,10.9s4.7,14.8,7,16.4"/>
	<path class="st1" d="M181.6,132c1.1-0.5,2.8,6.8,2.7,10.9c-0.1,4.1-0.4,7.9-1.9,7.2c-1.4-0.7-2.3-4.8-2.4-10.8
		C179.9,133.3,181.6,132,181.6,132z"/>
	<path class="st1" d="M193.5,171.3v2.3l1.3,0.9c0,0,1.7-5.1,4.7-5.6c3.1-0.6,5.4,0,5.4,0l1.1-1.3l-1.1-1.7"/>
	<path class="st1" d="M194.8,174.5l-0.2,1.3l1.7,1.3c0,0,2.4-3,4.7-4s5.1-1.6,5.1-1.6l0.5-1.5l-1.6-1.1"/>
	<path class="st1" d="M196.3,177.1c0,0-3,3.4-3.4,4.7c-0.9,2.8,0.3,7.4,0.4,8.3c0.3,1.9,15.9,28.5,16.5,29.1c0.6,0.7,3.2,0.7,4.1,0
		c0.9-0.7,8.8-5.7,9.2-6.3c0.5-0.7,0.9-3.8,0.4-5.6s-10-30.1-11.8-32c-1.8-1.8-4.1-3.9-5.6-3.9"/>
	<path class="st1" d="M223.7,209.5c-0.4,1.4-9.3,7.3-9.9,7.5c-0.7,0.2-13.3-30.2-14-30.9c-0.7-0.8-3.9-1.4-4.6-1.3s-0.1,3,0.3,3.6
		c0.3,0.6,15.6,27.7,16,28.1c0.4,0.4,1.5,0.2,1.9,0.1"/>
	<path class="st1" d="M197.1,176.2c0,0,3,4.5,4.5,4.7c1.5,0.2,10.1-5.5,10.1-5.5"/>
	<path class="st1" d="M267.3,167.3c0.1-3,9.3-5.9,11.4-5.2c2.1,0.6,2.6,20.7,1.7,26.7s-3.6,15.9-4.7,16.3c-1.2,0.4-1.1-1.7-4.2-1.8
		s-5.5,0.8-5.8,1.9c-0.2,1.1-3.3-1.7-4.6-1.7s-3.5,2.7-4.4,3.3c-1.2-2.6,0-7.5,0-7.5s-4.3-10.2-4.1-12.6c0.2-2.4,0.4-6.2,0.4-6.2
		s1.1-1.2,1.9-1.7c-0.7,4.1-1,9.4,2.2,9.3C260.3,188,267.1,172.7,267.3,167.3z"/>
	<path class="st1" d="M261.1,203.4l0.6-6.9c0,0,5.5-16.6,9-17c3.5-0.4,7.2-0.2,7.9,0.9c0.7,1.1,1.5,7,1.6,10"/>
	<path class="st1" d="M267.9,203.7l-2.6-2.8l-0.9-6.2l4.4-7.5h8c0,0,1.2,2.5,1.3,4.6c0.1,1.9,0.5,6.7-0.4,9.1"/>
	<polyline class="st1" points="256.7,206.7 255.7,210 256.2,213.8 259.7,217 261.8,217.4 261.8,212.8 263.4,211.3 265.8,205.1 
		265.8,217 263.5,219.8 	"/>
	<path class="st1" d="M275.8,205.1c0.9,0.9,1.8,4.8,1.4,6.9s-2.8,9.7-4.7,9.2c-1.9-0.5-8.9-1.4-8.9-1.4l-1.7-2.4"/>
	<path class="st1" d="M265.8,217c0,0,7.4,1.8,9.6,0.6"/>
	<path class="st1" d="M233.3,162.1c0.5-1.3,7.2-2.1,12.9-2.2c5.7-0.1,12.1-0.2,13.1,1.1c1,1.3,1.5,7.6,1.5,9.2s-6.4,8.7-8.2,10
		c-1.7,1.2-9.4,1.7-10.8,1.2c-1.4-0.4-8.2-5.6-8.8-7.3c-0.7-1.7-0.7-5.2-0.7-5.2l1.8-3.5L233.3,162.1z"/>
	<path class="st1" d="M234.3,161.3l1,5.3l-0.5,3.6c0,0,8.6,2.5,13.7,2c5.1-0.5,12.3-3.5,12-5.9"/>
	<line class="st1" x1="243.6" y1="172.3" x2="241.7" y2="181.4"/>
	<line class="st1" x1="251.2" y1="171.8" x2="252.1" y2="180.4"/>
	<path class="st1" d="M213.4,164.5c1.6-0.7,14.3,4.9,16,7.8s2.8,12.4,2.2,14.9c-0.6,2.5-5.4,21.7-5.4,21.7l-2.5,2.1"/>
	<line class="st1" x1="210.5" y1="168.9" x2="209.3" y2="173.2"/>
	<path class="st1" d="M214.7,182.2c0,0,6.4-1,7.8,0c1.4,1,3.3,10.5,3.1,12.3s-2.6,11.1-2.6,11.1"/>
	<path class="st1" d="M217.4,189.7c0,0,3.2-0.6,3.8,1.1c0.6,1.7,1,5.9,0.6,7s-0.9,1.9-0.9,1.9"/>
	<path class="st1" d="M206.5,213.9c-1.4,1.1-2.1,5.9-2.1,5.9s2,5.2,2.6,6.1c0.7,0.9,5.1,2,5.8,1.9c0.7-0.1,7.4-2.6,8-3.5
		c0.6-0.9,1.5-6.8,1.7-8.1c0.2-1.3-0.6-2.4-0.6-2.4"/>
	<polyline class="st1" points="220.9,224.3 221.2,234.1 215.3,243.6 213.8,268.8 209.3,272 204.4,272 202.1,269.5 203.1,264.5 
		199.1,240.4 200.3,225.1 205.2,221.8 	"/>
	<path class="st1" d="M203.8,222.8c-0.6,1.4,0.2,12.2,4.4,12.4c4.1,0.2,7.6-8.3,7.6-8.3"/>
	<line class="st1" x1="215.3" y1="243.6" x2="219" y2="225.5"/>
	<polyline class="st1" points="217.8,226 211.3,245.7 212.8,267.3 207.4,269.7 202.4,268.3 	"/>
	<path class="st1" d="M202.9,265.6c-2.3,0-8.5,5.7-9,10.5c-0.6,4.9,1.7,16.1,3.9,17.5c2.2,1.4,4.9,2,5.9,1.4s0.7-16.5,0.8-18.5
		c0.1-2,6.7-3.2,6.7-0.7s-0.7,17.9-0.6,18.8c0.1,0.9,5.4,0.4,7.2-2.1c1.8-2.5,5.1-18,2.4-22.8c-2.6-4.8-6.1-5.6-6.1-5.6"/>
	<path class="st1" d="M204.4,279.7c0,0.2,2,1.5,3.7,1.4s2.9-1.1,2.9-1.1"/>
	<path class="st1" d="M194.8,273.1c-1,3,2.3,17.5,5,18.1s4.4,0,4.4,0"/>
	<path class="st1" d="M210.6,291c2.6,0.2,7.6,1.1,9.9-7.8"/>
	<polyline class="st1" points="257,214.6 254,219.3 254.9,232.4 261.1,254.4 267.1,255.8 270.7,253.7 271.7,251.7 272.5,221.2 	"/>
	<path class="st1" d="M260,250.3c0,0-3.5,4.1-3.4,6c0.1,1.9,2.4,5.6,5.7,5.4s7.8-1.3,8.7-3.5s0.1-3.2-0.3-4.5"/>
	<path class="st1" d="M270.8,253.4h3c0,0,17.6,16.5,17.4,20s-3,5.5-4.5,5.5s-12.2-6.6-12.7-7.7"/>
	<path class="st1" d="M261.8,262.5c2.9-0.2,7.7,2.2,9.6,5.4c1.8,3.2,10.8,11.1,10.8,12.4c0,1.3-4.4,5.2-7.9,4.6
		c-3.6-0.6-13.2-2.7-17.7-11.3S261.8,262.5,261.8,262.5z"/>
	<path class="st1" d="M268.4,260.4c0,0,8,9.9,11.8,12.2c3.8,2.3,7.9,5.4,9.6,4.7"/>
	<path class="st1" d="M258.5,264.1c-2.1,2.1-0.1,13.5,14,17.6c3.7,1.1,8.4-1.2,8.9-2.7"/>
	<polyline class="st1" points="256.6,255.1 252.1,254.5 250.2,256.9 249.6,260.9 252.2,263.3 256.6,263.6 260.2,261.7 	"/>
	<polyline class="st1" points="249.6,259.6 245.7,261.7 243.6,265.4 243.6,268.2 248.8,272 253.4,272 255.4,269.7 	"/>
</g>
</svg>
