
<svg id="bp-629" viewBox="0 0 527 318">
	<style type="text/css">
		.st0{fill:#fff6;stroke:#33f;stroke-miterlimit:10;}
		.st1{fill:none;stroke:#33fa;stroke-miterlimit:10;}
</style>
<g>
	<path class="st0" d="M348.5,174.9c0.5-1.8,0.5-3.5-0.1-4.8c-1.1-2.2-5.3-10.8-5.9-12.6c-0.6-1.8-2.4-6-5.4-5.6
		c-2.6,0.3-24.7,3.1-27.7,3.3c-2.8,0.2-6.2,0.3-7.4,3.4c-3.7-3.5-6.5-6-8-6l0.3-0.8l-0.9-1.5c0.4-0.2,0.8-0.5,1.2-0.9
		c0.7-0.8,1.1-1.9,1.2-3.4l0.8,0l4.1-0.7l4.4-5.7l0.1-4.1l3.6-1.1l3.5-7.5l-0.2-0.5l0.1,0c1.4-3.2,3.6-8.8,2.7-9.9c0,0,0,0,0,0
		c0.8-2.1,4.5-11.2,4.7-13.2c0.2-2.1-1.8-7.5-3-7.8c-0.9-0.3-6.4,1.2-7.7,4.1c-1.1,2.5-5.6,13.4-6,14.4c-0.7,0.8-1.3,2.7-2.3,5.6
		c-0.4,1.4-0.9,2.9-1.4,4.3l-1.8,4.3l1.2,2.4l-0.8,0.4l-3.9-4.1h-4.7c-4.5-6.2-11-10.3-18.6-11.6c0-0.1-0.1-0.2-0.1-0.3
		c-0.8-2-2.2-5.4-9-5.3c0,0,0,0,0,0c-4.4,0-6.9,1.7-7.9,2.6c-0.2-0.3-0.5-0.7-0.8-1.2l-0.1-0.2l-19.6-0.2l-6.4,5.5h-14.1l-2.5,0.9
		l-1.5,2.7h-3.2l-1.3,2.6h-3.7l-1.6,1.5v19.6l2,1.8h2.8l1.3,1.2h3.5l2.3,3.2l2,1.8h13.5l1.2-3l1.5-0.3c0.2,0.5,0.4,1,0.7,1.3
		c0.5,0.7,1.3,1,2.1,1h0.4l-0.7,1.3l0.8,1.4c-0.2,0-0.3,0-0.3,0.1c-0.5,0.2-0.9,0.7-1.3,1.3c-0.9,1.2-2.1,2.6-5.1,3
		c-2,0.2-19.2,2.1-25.8,3c-5.8,0.8-9.6,4.9-9.6,8.3c-2.2,0.8-4.3,2-6,3.6c-3.7,3.5-5.8,8.5-5.8,14.2c0,13,16.7,35.7,26.3,35.7
		c0.6,0,3.4,0,7.7,0c14.6,0.1,47.2,0.3,72.4,0.3c16.3,0,29.4-0.1,32.6-0.3c10.1-0.7,19.5-9.4,20.4-19.1c0.6-5.5-0.7-11.4-3.8-15.7
		c1-0.3,3.2-1.1,5.8-2.2c3.6-1.5,5.3-4.1,7-6.6l0.5-0.7c0.6-0.8,1-1.7,1.3-2.6C348.4,175.1,348.4,174.9,348.5,174.9L348.5,174.9z"/>
</g>
<g>
	<path class="st1" d="M178.7,186.5c0-12.1,9.1-19,18.5-18.3s117.7,12.1,127,13.7S338,193.3,337,203c-1,9.7-10.4,18-20,18.7
		c-9.6,0.7-108.5,0-112.6,0C195.2,221.7,178.7,199,178.7,186.5z"/>
	<path class="st1" d="M186.4,188c-1.6-3.1-0.7-12.6,8.8-13.2c9.4-0.7,121.1,11.1,125.7,12.2c7.4,1.8,10.2,9.1,10.2,13.9
		c0,4.8-4,12.2-12.1,13.5c-8.1,1.3-104,0.8-108.5,0.7c-4.5-0.2-11.7-4.6-16.5-12.9S188.2,191.6,186.4,188z"/>
	<path class="st1" d="M190.4,169c-0.2-3,3.2-7.3,9.2-8.1c5.9-0.8,21.1-2.5,25.8-3c4.6-0.5,5.3-3.6,6.6-4.3
		c1.3-0.7,59.3-0.7,61.9-0.7c2.6,0,12.1,10.7,13.7,11.2c1.7,0.5,13.2,0.2,15.4,0.2s8.6,9,8.8,10.4s0.5,9.3-1.3,10"/>
	<path class="st1" d="M302.2,159.4c0.8-3.5,4.3-3.6,7.3-3.8c3-0.2,25.2-3,27.7-3.3s4.2,3.3,4.8,5.3s5.1,11.1,5.9,12.7
		c0.8,1.7,0.5,4.6-1.3,7.3c-1.8,2.6-3.5,5.5-7.3,7.1c-3.8,1.6-6.5,2.4-6.5,2.4"/>
	<path class="st1" d="M310.3,164.4c-0.3-1.4,2-2.4,7.1-2.5c5.1-0.2,12,0,14.5,0c2.5,0,4.4,4,5.3,6.9c-1.8,0.9-1.5,4.7-0.6,5.9
		c0.8,1.2,2.1,2.5,6.1,2.7c4,0.2,5.1-1.9,5.3-2.7"/>
	<path class="st1" d="M337.2,168.8c1-1.3,5.3-2.2,9.7-0.7"/>
	<path class="st1" d="M331.7,181.4c1.7,0,6.6-1.6,6.5-5"/>
	<path class="st1" d="M215.3,169.6c-0.7-1.8,0.7-3.9,8.1-4.1c7.4-0.2,86-1.1,86-1.1"/>
	<path class="st1" d="M267.8,115.5c13.8,0.9,24.7,11.2,27.3,26.6c0.9,5.9-1,7.9-3,7.9c-2,0-58.1,0-60.4,0c-2.3,0-3.2-3.7-2.5-7.1
		c3.1-14.5,15.6-25.9,26.8-27.4"/>
	<path class="st1" d="M262.1,112.2c-1.8-0.1-6.1,1.4-7,5.2c-0.9,3.8,2.4,7.6,5.1,7.8c4.5,0.3,8.4-2.1,8.3-6.1
		C268.3,115.2,267,112.5,262.1,112.2z"/>
	<path class="st1" d="M255.4,115.6c-1.3,0.9-3.9,5.3-2.3,11c1.7,5.7,7.3,6.9,10.8,6.6c3.5-0.3,9.6-5.7,8.9-11.1s-5.3-7.1-5.3-7.1"/>
	<path class="st1" d="M254.9,118.9c-0.6,1.4,0.1,8.2,6.7,8c6.7-0.2,7.2-6.4,6.7-7.8"/>
	<path class="st1" d="M289.1,127.4h4.8l4,4.2l1.5-0.8l-1.3-2.6l1.8-4.1l1.4,0.5c0,0-1.3,2.8-0.7,3.7c0.7,1,5.2,4,8.4,0.4l1.3-2.8
		l1.1-0.3l0.4,1.2l-3.3,7.2l-3.7,1.1l-0.1,4.3l-4.2,5.4l-3.9,0.7h-1.2"/>
	<path class="st1" d="M299.8,124.1c1.4-3.8,2.5-8.8,3.6-9.8c1.7,1.2,0.2,4,3.6,4.6c3.4,0.6,6.3-0.4,7.3-2.1c1.7-0.2-2.5,9.5-2.5,9.5
		"/>
	<path class="st1" d="M303.4,114.3c0,0,4.8-11.8,6-14.4c1.2-2.6,6.3-4.1,7.1-3.9s2.9,5.2,2.6,7.3c-0.2,2.1-4.8,13.4-4.8,13.4"/>
	<path class="st1" d="M270.4,115.8c-0.8-1.8-1.6-5.6-8.8-5.5c-5.1,0-7.5,2.4-7.8,2.8s-1.3-1.5-1.3-1.5l-19.1-0.2l-6.4,5.5h-14.3
		l-2.2,0.8l-1.5,2.8h-3.2l-1.3,2.6h-3.9l-1.3,1.2v19.2l1.7,1.5h2.8l1.3,1.2h3.5l2.4,3.4l1.8,1.5h13l1.2-3l2.2-0.4"/>
	<polyline class="st1" points="232.9,150 231.9,151.8 232.9,153.5 	"/>
	<polyline class="st1" points="292.7,150 293.8,151.8 293.2,153 	"/>
	<line class="st1" x1="201.8" y1="122.9" x2="201.8" y2="144.8"/>
	<line class="st1" x1="204.6" y1="122.9" x2="204.6" y2="145.5"/>
	<line class="st1" x1="208.7" y1="146" x2="209.1" y2="120.3"/>
	<polyline class="st1" points="235.7,128.7 233.5,126.2 233.5,111.2 	"/>
	<polyline class="st1" points="233.5,126.2 227.8,126.2 227.1,116.8 	"/>
	<polyline class="st1" points="227.8,126.2 224.7,124.6 215.2,124.6 213.9,126.2 209.1,126.2 	"/>
	<polyline class="st1" points="209.1,141.7 213.5,141.7 215.2,144.4 225.7,144.4 229.2,142.9 	"/>
	<line class="st1" x1="213.9" y1="126.2" x2="213.5" y2="141.7"/>
	<line class="st1" x1="228.1" y1="126.2" x2="228.1" y2="143.4"/>
	<polygon class="st1" points="216,125.9 224.5,125.9 226.9,127.6 226.9,142.7 215.6,142.5 214.7,141.3 215.4,126.2 	"/>
	<circle class="st1" cx="241.4" cy="204.2" r="8.6"/>
	<circle class="st1" cx="241.4" cy="204.2" r="11.2"/>
	<circle class="st1" cx="267" cy="205.7" r="7.5"/>
	<circle class="st1" cx="267" cy="205.7" r="9.7"/>
	<circle class="st1" cx="291.3" cy="206.1" r="7"/>
	<circle class="st1" cx="291.3" cy="206.1" r="9.1"/>
	<circle class="st1" cx="212.2" cy="200.6" r="14.7"/>
	<circle class="st1" cx="317.7" cy="200.6" r="13.4"/>
	<circle class="st1" cx="194.4" cy="183.8" r="5.3"/>
	<circle class="st1" cx="194.4" cy="183.8" r="6.9"/>
	<path class="st1" d="M219.8,195.6l-0.7-1.7l-2.7,0.3c-1.2-0.8-2.7-1.3-4.3-1.3c-2.3,0-4.3,1-5.7,2.5l-3.5,0.4v1.6l1.5,2.3
		c0,0.2,0,0.5,0,0.7c0,3.4,2.2,6.3,5.3,7.3l1.5,2.3h2.5l1-2.5c2.9-1.1,4.9-3.9,4.9-7.1c0-1.2-0.3-2.2-0.7-3.2L219.8,195.6z"/>
	<path class="st1" d="M323.2,201.2c0-0.2,0-0.4,0-0.6c0-1.9-0.9-3.5-2.3-4.5l-0.7-4.3h-2.1l-1.1,3.2c-2.8,0.3-4.9,2.7-4.9,5.5
		c0,0.1,0,0.3,0,0.4l-1.9-0.4l-0.8,1l1.5,3.5l3.7,0.2c0.9,0.6,1.9,0.9,3.1,0.9c0.9,0,1.8-0.2,2.6-0.6l1.8,0.1l0.8,1.9l1.9-0.6V203
		L323.2,201.2z"/>
	<polyline class="st1" points="200.8,186.5 203.8,184.7 203.8,179.6 199.7,174.9 	"/>
	<polyline class="st1" points="203.8,184.7 206.1,184.7 209.1,182.4 207.4,179.6 207.8,175.4 	"/>
	<polyline class="st1" points="207.9,180.3 211.4,181.4 213.5,178.9 213.5,175.9 	"/>
	<path class="st1" d="M216.6,186.6c2.3-1.1,12.1-5.5,15.3-5.2s5.6,3.9,3,7.7s-8.1,11.5-8.1,11.5"/>
	<path class="st1" d="M243.6,193.2c0,0,5.7-4.9,7.1-6s5.8-3.3,9,0.1c3.2,3.4,8.8,8.8,8.8,8.8"/>
	<path class="st1" d="M250,187.8c-0.8,2-0.2,7.3,4.5,7.3c4.8,0,7.5-3.5,6.6-6.3"/>
	<line class="st1" x1="251.1" y1="198.6" x2="252.9" y2="194.8"/>
	<line class="st1" x1="258.4" y1="201" x2="257.3" y2="194.6"/>
	<polygon class="st1" points="275,190.1 272.2,194 276,197 278.1,202.1 281.4,202.1 284.3,197 290.3,195 290.3,192.4 285.3,188.4 
		283.9,186.5 280.5,185.9 275.6,187.8 	"/>
	<line class="st1" x1="252.4" y1="206.5" x2="257.3" y2="206.5"/>
	<line class="st1" x1="276.7" y1="206.1" x2="282.2" y2="206.1"/>
	<polygon class="st1" points="302.2,207.1 304.3,207.1 309.4,213.6 299.6,213.6 	"/>
	<polygon class="st1" points="301.8,194.6 303,198.6 305.6,192.4 310.2,188.1 313,187.1 303.7,185.9 300.5,187.8 299.6,190.3 
		300.5,194 	"/>
	<polyline class="st1" points="275,190.1 276.7,193.5 280.7,195 284.3,194 285.7,190.1 285.3,188.4 	"/>
	<polyline class="st1" points="226.3,182.6 224.8,185.9 225.2,189.6 228.9,191.8 233.3,191.4 	"/>
	<line class="st1" x1="194.4" y1="168.2" x2="195.2" y2="174.8"/>
	<line class="st1" x1="199.4" y1="168.2" x2="199.4" y2="174.8"/>
	<line class="st1" x1="212.2" y1="169.6" x2="211.8" y2="175.4"/>
	<line class="st1" x1="215.2" y1="176" x2="216" y2="170"/>
	<line class="st1" x1="228.1" y1="171.2" x2="228.1" y2="176.9"/>
	<line class="st1" x1="232.8" y1="171.7" x2="232.4" y2="177.5"/>
	<line class="st1" x1="243.1" y1="172.5" x2="242.5" y2="178.5"/>
	<polyline class="st1" points="246.3,178.6 247.4,173.2 259.1,174.5 259.1,180.1 	"/>
	<line class="st1" x1="263" y1="180.5" x2="264.1" y2="175"/>
	<line class="st1" x1="277.5" y1="182" x2="277.8" y2="176.5"/>
	<line class="st1" x1="282.9" y1="176.9" x2="281.8" y2="182.5"/>
	<path class="st1" d="M296.1,178.5c-0.2,0,0,5.5,0,5.5"/>
	<line class="st1" x1="299.2" y1="184.4" x2="301" y2="179"/>
	<line class="st1" x1="311.6" y1="185.8" x2="312.1" y2="180.1"/>
	<line class="st1" x1="316.6" y1="180.9" x2="315.2" y2="186.2"/>
	<path class="st1" d="M325.3,189c0.2,0.1,4.7-4.7,4.7-4.7"/>
	<line class="st1" x1="333.8" y1="188.4" x2="328" y2="191.7"/>
	<line class="st1" x1="330.8" y1="198.2" x2="336.9" y2="196.7"/>
	<line class="st1" x1="331.1" y1="201.6" x2="337.1" y2="202.1"/>
	<line class="st1" x1="329.4" y1="207.1" x2="334.6" y2="210.4"/>
	<line class="st1" x1="326.8" y1="210.4" x2="331.1" y2="215"/>
	<line class="st1" x1="320.9" y1="214" x2="323" y2="220.3"/>
	<line class="st1" x1="316.6" y1="214.6" x2="317" y2="221.7"/>
	<line class="st1" x1="305.6" y1="215" x2="306.3" y2="222"/>
	<line class="st1" x1="301.4" y1="215.1" x2="300.5" y2="222"/>
	<line class="st1" x1="289.1" y1="215.3" x2="289.8" y2="221.7"/>
	<line class="st1" x1="285.7" y1="215.2" x2="284.8" y2="222"/>
	<line class="st1" x1="273.5" y1="215.2" x2="274.5" y2="221.7"/>
	<line class="st1" x1="270.4" y1="215.4" x2="269.6" y2="222"/>
	<line class="st1" x1="256.1" y1="215.3" x2="256.6" y2="221.7"/>
	<line class="st1" x1="252.4" y1="215.2" x2="251.1" y2="221.7"/>
	<line class="st1" x1="239.6" y1="215.2" x2="240.2" y2="221.8"/>
	<line class="st1" x1="236" y1="215.3" x2="234.9" y2="222"/>
	<line class="st1" x1="225.5" y1="215.2" x2="225.8" y2="221.8"/>
	<line class="st1" x1="222.3" y1="215.2" x2="221.4" y2="221.8"/>
	<line class="st1" x1="209.6" y1="215.1" x2="208.7" y2="221.7"/>
	<line class="st1" x1="205.7" y1="214" x2="202.6" y2="221.4"/>
	<line class="st1" x1="188" y1="178.2" x2="183.3" y2="173.7"/>
	<line class="st1" x1="186.6" y1="180.7" x2="180.2" y2="178.5"/>
	<line class="st1" x1="185.8" y1="186.5" x2="178.7" y2="186.5"/>
	<line class="st1" x1="187.2" y1="189.6" x2="179.4" y2="191.7"/>
	<line class="st1" x1="190.4" y1="196.7" x2="182.7" y2="200.1"/>
	<line class="st1" x1="192.8" y1="200.1" x2="185.6" y2="205.2"/>
	<line class="st1" x1="196.7" y1="206.1" x2="190.4" y2="211.8"/>
	<line class="st1" x1="199.7" y1="209.4" x2="194.4" y2="216.1"/>
</g>
</svg>
