
<svg id="bp-742" viewBox="0 0 527 318">
	<style type="text/css">
		.st0{fill:#fff6;stroke:#33f;stroke-miterlimit:10;}
		.st1{fill:none;stroke:#33fa;stroke-miterlimit:10;}
</style>
<g>
	<path class="st0" d="M167.2,94.6c-0.2-0.1-0.4,0-0.6,0.1c-1.1,1-0.9,7.4,0,11.7c0.5,2.4,0,3.6-0.8,5.5c-0.6,1.4-1.4,3.2-1.9,6
		c-1.4,7.4,1.4,10.8,2.7,11.9c0.5,0.4,0.9,0.7,1.4,0.9c-1.9,1.6-2.9,4.4-3.3,7.5c-0.1,0.3-0.2,0.6-0.3,0.8l0.2,0
		c-0.4,3.5-0.1,7.2,0.4,9.6c0.2,1,0.7,2.3,1.3,3.9l0,0c0.2,0.5,0.4,1,0.7,1.5c2.3,5.1,6,11.5,7.9,13.9c-1.8,0.3-3.3,1-4.2,2.2
		c-1.3,1.6-1.8,4-1.5,7.1c0,0.2,0,0.4,0.1,0.7c0,0.2,0,0.4,0.1,0.6c-0.8,1.6,0.4,4.9,1.5,6c-0.1,1.7,1,3.9,2.5,4.8
		c2.4,3.6,5,4.9,6.8,4.9c0.1,0,0.1,0,0.2,0c1.9-0.1,2.9-0.6,3.4-1c0.6,0.6,1.3,1,2.2,1c0.3,0,0.6,0,0.9-0.1c1.8-0.4,3.3-2,3.2-3.2
		c-0.2-1.5,1.8-6.7,3.3-9.4c1.5-2.9,1.6-10-3.6-13.6l-0.2,0.3c0.1-0.2,0.2-0.5,0.3-0.8c0.3-1,0-3.3-0.5-6c-0.3-1.9-0.6-3.8-0.6-5.1
		c0-0.1,0.1-0.2,0.1-0.4l-0.1,0c0-0.2,0-0.4,0-0.5c0.1-1,0.7-2.7,1.4-4.8c1.2-3.4,2.5-7.4,2.5-9.7c0-3-0.3-6.1-2.2-7
		c0-1-0.1-2-0.4-2.9c12.9-9.3,12.5-25.1,11.7-31.6c0-0.1,0-0.1,0-0.2c0.5-0.1,1-0.3,1.5-0.4c0.2,2.8,3.1,8.6,7.2,9.3l0-0.3
		c0.4,2.8,1.1,5.5,2.5,7.6c2.7,4.1,7.8,7.1,12.5,8.9c-0.4,0.8-0.1,1.9,0.1,2.8c0.7,2.2,2.5,5.3,5.4,8c-0.4,0.1-0.9,0.4-1.3,0.7
		c-1.6,1.4-2.5,4.1-2.5,7.2c0,2.1,0,4,0.5,5.6c-2.2-0.3-6.3,0-8.9,2.3c-1.9,1.7-2.8,4.1-2.7,7.2c-0.8,0.1-1.5,0.4-2.2,0.9
		c-2.9,1.9-4.8,6.5-5.4,12.9l-0.3,0.3c-0.3-0.4-0.7-0.8-1-1c-1.4-1.1-2.6-0.8-3-0.7c-1.5,0.5-5.4,2.5-7.5,12
		c-1.3,6.2,0.2,12.8,2.2,15.9c0.5,0.8,1.1,1.3,1.6,1.6c-0.1,0.1-0.1,0.2-0.2,0.4c-0.6,1.2-1.2,2.5-1.4,4.6
		c-0.1,1.5,0.5,8.8,3.2,10.6c0.6,0.4,1.3,0.5,2,0.2l0.6,1.5c-0.5,1.1-0.9,2.4-0.9,3.8c-0.1,2,0.2,4.1,0.6,6.1
		c-1.1,0.1-2.7,0.7-4.2,2c-1.3,1.1-2.8,3-2.9,6.1c-0.1,1.5,0.2,2.6,0.5,3.4l-2.5,0.6l-1.1,7.1l3.6,8.1l1.5,0.3
		c0.4,2.2,2.5,13,1.7,17.1c-0.5,2.3-1.9,4-3.1,5.4c-1.1,1.3-2.1,2.5-2.1,3.8l-3.1,1.5l-3.1,3.8l1.5,4.7l8.2,8.1l9.2,1.2l0.1,0
		l8.2-1.8l6-8.5v-5.9L219,281c0-2.6-1.1-4-2.2-5.3c-0.9-1.1-1.7-2.1-2-3.8c-0.7-3.9,1.8-12.2,3.5-16.1l5.9-8.4l0.6-6l-1-1.7
		c0.2-0.3,0.3-0.6,0.4-1c0.9-3.5,0.8-6.3-0.3-8c1.7-2.1,3.2-4.6,3.2-6.9c0-1.2,0-2.2-0.1-3.1l2.2-2.6l-0.1-0.1
		c0.9-0.5,1.6-1,2.4-1.6l0.1,0.2c0.2-0.1,0.4-0.4,0.6-0.8c8.9-7.5,9.2-19.6,7.1-23.9c-0.1-2.3,0.4-3.5,1-4.9
		c0.5-1.3,1.1-2.8,1.4-5.2l1.2,0.7c0.2,0.8,0.5,1.5,1,2.1c0.8,1,3,1.4,5.5,1.4c2.6,0,5.4-0.5,7.3-1.4l0.3,0.4c0,0,0,0,0,0l0,0
		c-4.1,4.9-4.4,12.8-3.3,18.6c0.9,5.1,4.8,8.2,8.3,9.7c-2.2,1.8-1.3,4.8-0.8,6.7c0.5,1.6,1.4,2.7,2.3,3.1l-1.5,2.6
		c-0.1,0.2-2.9,5.4-2.4,10.8c0.1,1.4,1.5,14.2,7,15.7c0.4,0.1,0.8,0.2,1.2,0.3c2.3,3.4,3.7,13,3.4,16.4c-2.2,1.4-5.6,4.7-5.3,11.4
		v2.9l6.7,4.4l-0.1,0.2c0.4,0.3,9.5,6.1,15.4,6.5c0.4,0,0.8,0,1.2,0c4.8,0,8-1.7,11.4-3.8c1.6-1,2.5-2.5,2.5-4.3
		c0-2.5-1.8-5.2-4.8-7.1c-2.3-1.5-4.6-1.7-6.6-1.4c-0.1-0.7-1.3-5.6-4.1-8.5c-2.5-2.5-2.6-16-2-18.4l1.5-0.7l0-0.3
		c-0.1-2.6-0.2-9.5,0.5-11.2c0.2-0.5,0.5-1,0.7-1.5c0.9-1.8,1.9-3.8,1.8-6.1c-0.1-2.3-0.7-3.3-1.1-3.7c1.1-1.7,2-4.1,1.9-6.9
		c-0.1-3.5-1.1-7.2-2.5-9.6l0.1-0.2l0.7-0.4c2.4-1.3,3.7-3.9,4-7.7c0.1-1.7-0.6-3.5-1.2-4.7c-0.2-0.5-0.5-1.1-0.5-1.4
		c0.8-0.6,2.9-2.8,3.2-3.1l0.1-0.1v-9.4l-2.1-8.9h-3.1l-2.3-2.9c-0.8-3.3-3.3-7.3-6.4-9.5c0.2,0,0.4-0.1,0.6-0.3
		c0.8-0.7,0.9-1.9,0.5-3.8c3.4,4.3,10.2,12.1,19,22c2.1,2.3,3.6,4,4,4.6c1.5,1.7,3,2.9,4.8,2.9c0.3,0,0.5,0,0.8-0.1
		c0.5,1,1.2,1.5,2.2,1.5c0.1,0,0.1,0,0.2,0c0,0.9-0.1,2.6,0,5.2c0.2,4.1,7.1,10.4,8.8,11.8c2.1,1.7,9.2,5.6,13.5,5.6
		c0.7,0,1.3-0.1,1.9-0.3l0.2-0.1l0.1-0.2c0.6-1.4,0.3-5.5,0.1-7.1c1.2,0.1,4.2,0.3,7.2-0.2c0.1,0,0.2,0.1,0.3,0.1l0-0.1
		c0.5-0.1,1.1-0.2,1.6-0.3c5.7,4.5,11,4.3,13.4,2.2l0.2-0.1l0-0.2c0.2-4.7-2.7-9.4-5.7-11c0.4-3.2,0.3-5.9,0.1-7.8
		c2.3,0.9,7.3,1.3,8.1,0.6c0.8-0.8,0.1-6.7-0.5-8.6c-0.9-2.7-8.6-11.1-11.8-13.4c-3.1-2.3-5.8-2.7-9.8-2.5c0-0.1,0.1-0.2,0.1-0.4
		c0.1-1.1-0.8-2.1-1.2-2.5c0.5-1.3,0.4-3-0.4-4.4c-0.9-1.5-2.2-2.4-3.8-2.5c-1.4-1.6-11.4-13.7-13.7-16.1c-2.6-2.7-5.1-3.3-8.1-3.4
		c-0.9-2-6-6.1-13.7-5.1c-0.9,0.1-1.8,0.3-2.6,0.6l-0.5-0.8c0.6-0.5,1.2-1.1,1.7-1.8c1.2-1.5,1.8-3.9,2-6.5c0.2-0.5,0.2-0.9,0.2-1.4
		l-0.1,0c0.3-5.4-0.7-11.4-1.1-13.8c-0.1-0.5-0.2-1.1-0.4-1.6c0.4-0.5,1.8-2.4,1.6-4.5c-0.3-3.4-1.4-5.6-3.2-6.5
		c1.9-1.4,6.4-5.7,5.2-15.7c-1.2-9.5-6.7-16.8-14.5-19.1c-2.1-2.2-4.8-3.5-7.7-3.4c-1.7,0.1-3.2,0.5-4.2,1.3l-1.7-1.2l0.3-2.6
		c0.9-0.4,2.1-1.4,2.6-2.1c0.7,0,1.7-0.4,2.7-1.1c1-0.7,2.2-2.1,2.4-4.3c0.2-2.3-0.4-3.8-1.3-4.8l0.1-0.1c-0.2-0.2-0.4-0.3-0.7-0.5
		c-0.4-0.4-0.8-0.7-1.1-0.9l-0.3-0.2c-0.7-0.5-2.1-1.4-3.5-2.2c-1.5-0.9-3-1.8-3.7-2.4c-1.3-2.4-10.8-13.3-28.8-13.3
		c-0.1,0-0.2,0-0.3,0c0,0-0.1,0-0.1,0l0-0.2c-0.1,0-0.2,0-0.3,0c-3-1.6-14.3-1.4-17.5-1.2c-4.1,0.3-12.9,2-14.9,3.6
		c-2.2-0.1-4.2,1.1-5.8,2.1c-2.4,1.5-2.4,8.3-1.3,10.4c0.8,1.4,11,8.8,18.5,14l-1,0.6l0.3,0.5c0,0.1,0.2,0.2,0.4,0.5l-2.8-0.7
		l-2.4,2.2v0.6c-0.4-0.2-1.1-0.5-1.8-0.9l-0.3-0.2l-8.5,6.8l1.1,1.6c-0.2-0.3-0.5-0.6-0.7-0.8c-2.6-2.8-5.7-3.8-7.2-3.8v0.2
		c-0.8-0.6-1.5-1.1-2-1.5c-2.4-1.6-9.1-1.8-11.6-0.8c-0.6,0.3-1,0.6-1.1,1l-0.3,0.7c-1.7-1-4.9-0.2-6.3,0.3c-3,0.9-6.2,3.3-6.1,7.2
		c-3.5,3.2-6.7,9-7.9,16.2c-1,5.7,0.3,10.8,2.1,14.7c0,0,0,0,0,0l0,0c0.3,0.7,0.7,1.4,1.1,2L167.2,94.6z M279.3,152L279.3,152
		c0.1,0.6,0.2,1.2,0.4,1.7c-2.1-2.1-5.1-4.1-6.5-4l0,0c-0.5,0-0.9,0.1-1.3,0.2l-0.9-0.9c0.7-2.5,0.3-7.4-1-11.1
		c0.6-0.3,1-0.6,1.3-0.8c0,0.9,0.2,1.8,0.4,2.7c0.1,0.4,0.2,0.8,0.3,1.4C272.7,144.1,273.9,149.8,279.3,152z M275,127.6
		c-1.9,1.7-3.1,4-3.5,6.6c-0.6-1.3-0.8-2.7-0.6-4.2c0.5-2.7,2.5-4.7,3.7-5.4l-0.2-0.3c0.2,0.1,0.4,0.1,0.6,0.1
		c1.4,0,3.1-1.3,4.4-4.2c0.4,1.2,1.1,3.1,2.2,5.3C279.5,125.1,277,125.9,275,127.6z"/>
</g>
<g>
	<path class="st1" d="M205.3,24c-2.1,1.3-2.2,7.7-1.1,9.7c1.1,2,24.1,17.9,26.3,19.3s7.9,1.2,8.5,0.7c0.6-0.6-1.3-3.7,1.5-3.5
		c2.9,0.2,11.7,3.2,13.1,3.9c1.4,0.7,2.3,2.3,2.3,2.3l10-0.7l0.8-1c0,0-0.6-1.8,0-2.5c0.6-0.8,5-3.9,6.7-3c0,0,1,0.6,1,1.5
		s2.9-1.2,3.3-2.1c1,0.2,4.5-1.1,4.9-4.9c0.3-3.8-1.6-5-3-6.1s-6-3.6-7.3-4.7c-1.2-2.4-10.7-13.3-28.9-13.1
		c-1.7-1.7-13.4-1.7-17.6-1.4c-4.2,0.3-13.3,2.1-14.8,3.6C209.1,21.9,207.2,22.8,205.3,24z"/>
	<path class="st1" d="M243.5,19.6c-4.5-0.1-9.1,3.6-9.4,5.4c-6.4-3.3-20.1-3.5-23-3.1"/>
	<path class="st1" d="M207.5,22.8c-1.7,0.9-3.7,3.5,8.2,9.4s22,8.7,22.8,10.6s-0.3,6.7,7.4,8.6"/>
	<path class="st1" d="M238.9,51.6c0.2-2.2-0.5-7.3-1.3-8.4c-0.8-1.1-6.4-1.2-7.3,0c-0.9,1.2-1.4,9.7,2.3,10.5"/>
	<path class="st1" d="M272.4,32.8c-0.2,2.6-1,3.5-1.1,4.4c-0.2,2.5,1.2,8.2,5,10.4"/>
	<path class="st1" d="M281.6,39.2c-1.9-1.8-6.2-1.5-6.6,2.5c-0.3,3.1-0.1,7.6,5.3,5.9"/>
	<path class="st1" d="M260,56.2c-0.7,0.8,2.3,4,2.3,4l5.1,0.3l5-2.2l2.1-4.3l0.4-3.3"/>
	<polyline class="st1" points="248.3,52 247.5,53.6 254.6,61.8 262.2,61.8 265.2,60.6 	"/>
	<polyline class="st1" points="272.4,58.4 273.6,60.6 270.9,66.1 267,67.4 263.5,66.6 259.9,68.4 254.6,68.4 250.1,66.7 239,53.6 	
		"/>
	<path class="st1" d="M259.9,39.7c1.8,0.1,3.5,1.7,3.5,4c0.1,2.4-1.8,5-4.4,5s-4-3.1-3.6-5.6C255.8,40.6,257.5,39.5,259.9,39.7z"/>
	<path class="st1" d="M259.1,48.7c-3.9-0.2-8.1-2-12.1-6.6s-5.8-5.1-6.4-5.5c-9-5.8-6.4-11.6-6.4-11.6"/>
	<path class="st1" d="M236.3,22.3c-2.2,2.7,6.9,11.8,11.2,12.3s9.9,0.2,12.5,2.2s4,4.7,3.5,6.9"/>
	<path class="st1" d="M281.6,63.5c-2.5-3.6-5.2-3.9-5.9-5.3c-0.7-1.4,1.1-3.7,5.2-3.9c4.1-0.1,8.3,2.8,10.1,7.9
		c1.9,5.2,2.2,11.2,0,11.7c-3.6,0.8-5.8-1.9-6.2-3.5C284.6,68.8,281.6,63.5,281.6,63.5z"/>
	<path class="st1" d="M185.3,53.6c0.3-1.7,9.2-1.8,11.9,0c2.6,1.8,8.3,5.9,8.3,13.5s-2.5,7.9-4.1,8c-1.5,0.1-4.2-2.3-5.1-7.9
		c-0.9-5.6-5.8-10.8-8.1-11.6s-3.4-0.8-3.4-0.8L185.3,53.6z"/>
	<path class="st1" d="M185.3,53.6c2.5-1.1,9.5,2.9,11.2,9.2c1.8,6.4,2.4,13,8,10.2"/>
	<path class="st1" d="M276.4,59c-2,1.3-1.1,5.1-0.8,6.1c0.4,1,2,2.2,2,2.2s2.3-1.2,4,4.7c1.7,5.9,2.8,7.8,3.9,8.8
		c0.8-1.3,5.8-1.7,8.1,1.8c2.3,3.4,0.3,8.5-0.6,10.1c2.2,1.4,11.3-2.6,9.6-16.3c-1.2-9.6-6.8-16.7-14.5-18.8"/>
	<path class="st1" d="M223.3,48l-1.3,0.7c0,0,8.7,11.9,15.2,14.8c6.5,3,13.8,3.5,13.8,3.5"/>
	<path class="st1" d="M223.2,50.3l-3.9-0.9l-2,1.9v1.6c0,0,15,19.6,33.1,19c18.2-0.6,18.9-4.9,18.9-4.9"/>
	<polyline class="st1" points="218,53.6 215.5,53.4 208.1,59.3 	"/>
	<polyline class="st1" points="219.8,55.7 217,55.7 210.3,62.4 	"/>
	<polyline class="st1" points="223,59 219.8,58.3 212.1,64.9 	"/>
	<polygon class="st1" points="223.9,59.9 224.7,68.4 223,70 215.5,69.4 213.6,67 220.9,59.9 	"/>
	<path class="st1" d="M213.6,67l-6.7-9.4l7.9-6.3c0,0,1.9,1,2.2,1"/>
	<path class="st1" d="M184.7,54.9c-0.9-1-3.4-0.9-6.3,0c-2.9,0.9-5.9,3.2-5.7,6.9"/>
	<path class="st1" d="M166.9,92.4c-1-6-0.1-10.9,3.8-11.1c3.9-0.2,8,4.6,7.8,7c-0.2,2.6,7.4-8.6,8.3-14.7c0.9-6.1-3.3-14-8.3-14.4
		c-5-0.3-11.8,7.5-13.7,18.7s4.7,19.8,7.5,21.2c4.4,2.2,10.7-0.2,13-2.1s12.1-14.5,14.9-15s9.4,2.5,10.1-10.3
		c0.8-12.8-8.1-16.7-10.8-16.7"/>
	<path class="st1" d="M209.7,76.1c-3.1,4.4-7.7,3.7-11.1,4.5c-3.4,0.9-12.3,14.1-15.7,15.3c-3.4,1.2-8.4,5.4-13.3-3.9
		c-2.7-9.2,5-6.1,6-5.1c1.7,1.9,3.9,4,4.6,5.9c1.8,4.5-4.1,5-6.9,3.8"/>
	<path class="st1" d="M176.7,88.4c-4.1-1.6-8.5-1.7-5.2,6.7"/>
	<path class="st1" d="M179.5,102.2c2.6-2.3,9.4-7.1,7.8-2s-9.8,12.6-10.7,14.9s-1.8,8.9-3.2,11.7c-2.3,4.8-4.7,4.2-6.5,2.6
		c-1.7-1.5-3.7-5-2.5-11.4s3.7-7.3,2.7-11.7c-1-4.5-1-10.5-0.2-11.2c0.9-0.7,1.7,9.9,4.1,11.7C173.6,108.6,179.5,102.2,179.5,102.2z
		"/>
	<path class="st1" d="M164.9,116.3c-1.2,3.7,1.6,11.2,4.1,11.2c2.5-0.1,6.1-10.8,6.3-13.1c0.2-2.3,10.1-9.6,12.1-14.2"/>
	<path class="st1" d="M210.3,70c1.6,2,5.3,12.9-9.9,27.1"/>
	<path class="st1" d="M215.5,69.4c4.2,3.4,0,25.9-14.3,29.2"/>
	<path class="st1" d="M187.6,99.3c3.6-2.4,12.7-6.9,13.5,0c0.6,5,1.8,21.7-11.8,31.3c1.8,5.2-1.3,12.1-6.1,12.3
		c-5,0.2-8.7-6.1-8.1-14.8c1.7-1.5-0.4-12,5.4-17.9"/>
	<path class="st1" d="M184.1,105.7c0.5,2.4,8.9,8.5,17.1,3.2"/>
	<path class="st1" d="M178.8,112.3c-1.4,2.9,7.6,12.7,20.1,6.2"/>
	<path class="st1" d="M176.4,119.2c-0.4,4,6,13.9,17.3,7.5"/>
	<path class="st1" d="M175.8,124.6c0.5,4.2,3.8,10.9,13.5,6"/>
	<path class="st1" d="M168.9,130.6c-4.6,2.7-4.6,12.9-3.5,17.9c1.1,5.1,8.6,18.4,10.5,19.7c1.6-1.7,10.3-1,11.4,0.9
		c0.8,0.4,1.4-0.4,1.9-2.1c0.6-1.7-1.5-9.3-1.1-11.9s3.9-10.7,3.9-14.4s-0.5-6.3-2.3-6.7"/>
	<path class="st1" d="M164.8,139.1c0.8-3.3,8-9.8,10.1,3.7c2.2,13.5-1.7,14.6-2.8,14.7c-1.1,0.1-4-1.3-5.4-5.2"/>
	<path class="st1" d="M175,154.8c0.6,2.6,11.9,5.8,13.2,0.8"/>
	<path class="st1" d="M189.3,168.1c5,3.5,4.8,10.3,3.4,13c-1.5,2.6-3.6,8-3.4,9.7c0.2,1.7-4.5,4.8-6,0.8c-1.5-4.1-1.7-9.4,0-10.7
		c1.7-1.4,4.1-3.1,2.1-5.5"/>
	<path class="st1" d="M176,168.2c-4.7,0.2-7.4,3.1-6.2,10.3c-0.9,1.3,0.5,4.9,1.5,5.7c-0.2,1.7,1,3.9,2.3,4.6
		c2.2,3.4,4.8,4.9,6.6,4.8c2.9-0.2,3.5-1.3,3.5-1.3"/>
	<path class="st1" d="M174,174c2.2,2.3,8.8,0.3,9.6,0s3,1.9,2.3,4.2c-0.7,2.2-5.3,3.4-7.2,3.4c-3.3,0.1-9.5-3.2-9.1-4.4"/>
	<path class="st1" d="M182.1,185.6c-3.6,1-10.1-0.2-10.8-1.4"/>
	<path class="st1" d="M182.8,189.9c-2.9,0-7,1.3-9.5-1.6"/>
	<path class="st1" d="M226,71c3.3-2.9,24,6.3,25,8.9c3.3,2.3,8.6,1,10.3,0c0-2.2,10.1-8.9,13.9-8.9s12.3,9.4,13.9,23.1
		c0,9.6-2.8,14.7-6.3,16.9c-4.4,0.7-19.3-5.8-21.8-8.9c0,0-3.7,0.1-4.6,0.3c-3.4,4.2-15.1,7.9-18.2,8.1c-3.1,0.2-16.4-1.8-23.4-15.4
		C215.6,86.6,219.6,76.6,226,71z"/>
	<path class="st1" d="M249.9,78.7c3.4,2.9,6.4,13.6,6.4,16.9s0,6.8,0,6.8"/>
	<path class="st1" d="M214.6,95c7.3,6.8,23.7,14.8,41.7,5.1"/>
	<path class="st1" d="M260.6,99.8c2.1,2.1,24.1,11,28.4-3.4"/>
	<polygon class="st1" points="228.6,74.1 232.1,75.3 233,81.3 232.1,82.4 230.4,81.9 226.9,76.1 	"/>
	<polygon class="st1" points="274.9,74.7 276.7,74.2 277.7,75.5 278.1,77 274.8,80.6 273.6,80.9 273.3,79.7 	"/>
	<path class="st1" d="M274.5,54.1l2.2,1.6c-1.8,1.8,1.8,1.9,5.3,5.3c3.5,3.5,4.8,9.4,6.4,10.4c2,1.2,4.5,0.4,4.1-3"/>
	<path class="st1" d="M261.3,79.9c-0.8,2.6-2.6,12.1-0.3,22.1c0,0,1.9,1.6,3.5,2.6c5.4,3.4,13.9,6.4,15.3,6.3c0.8,1.3,1.2,2.5,0,6.8
		c-1.2,4.4-3.4,6.2-4.8,6.2c-1.4,0.1-3.2-2.2-3.6-3c-0.3-0.8-1.1-3,0-3.9c-0.9-2.1-7.9-6.3-11.9-6.2s-12.4,4.7-12.4,7.6
		c-0.7,1.5-7.8,7.2-12.7,7.3s-16.7-3.8-21.2-10.7c-4.5-6.9-2.3-20.5-1-20.6s5,9.3,10,12c5,2.6,11.9,6.9,18.2,5
		c6.3-1.8,15-6,16.1-7.8c1.1-1.8,5.1-1.6,5.5-1"/>
	<path class="st1" d="M216.5,107c-0.7-1.3-4,0.1-1.9,4s11.1,8.2,14.4,8.7c1.7-0.4,2.1-1.9,1.5-3.2
		C229.9,115.2,219.6,112.4,216.5,107z"/>
	<path class="st1" d="M230,119.2c-2.6-0.6-16.7-6.1-12-10.3"/>
	<path class="st1" d="M203.5,98c-0.2,2.1,2.5,8.7,6.8,9.4"/>
	<path class="st1" d="M243.4,130c-1.1-1,2.8-11.6,10.7-11.6c7.3,0,2.2,9.6-2.6,11.1C247.8,130.6,244.7,131.1,243.4,130z"/>
	<path class="st1" d="M260.1,120.7c0.4-1.6,2.2-4.2,6.7-1.5s4.6,8.1,4,9.2c-1.4,2.6-6.5,1.1-8.8-1.1
		C260.9,126.1,259.5,122.8,260.1,120.7z"/>
	<path class="st1" d="M225.9,124.2c-1.5,1.8,3.3,12,12.7,14.7"/>
	<path class="st1" d="M262.1,127.3c-2.2-0.4-6.6-0.7-3.2,5.3"/>
	<path class="st1" d="M237.9,143.1c0.7-3.5,0.7-7.9,10.8-9.2c10.2-1.3,17.9-2.4,20.1,2.1s2.7,12.3,1.2,13.8s-4.5,3.1-6.6,0.7
		c-2.1-2.4-4.7-3.3-8.6-2.9s-6.6,5.7-10.5,5.7C240.5,153.3,236.2,151.9,237.9,143.1z"/>
	<path class="st1" d="M232.1,135.4c-2.4-0.3-4.5,3-4.5,7.6s0.1,7.7,3.8,8.9s5.9,0.3,6.6-2"/>
	<path class="st1" d="M247.9,152c3.1-1.6,6-2.7,9-2.8s7.2,1.7,8,3.2s-0.1,4.8-1.4,5.7s-8.5,2.5-13,1.4c-4.4-1.1-6-3.6-5.5-5
		C245.5,153.1,247.9,152,247.9,152z"/>
	<path class="st1" d="M273.2,150.1c1.9-0.1,7.6,4.5,8.3,6.8c0.7,2.3,0.8,4,0,4.7c-0.8,0.8-2.1-0.6-3.9-0.6s-4.5,1.4-4.9,2.9
		c-0.4,1.4-2.2-1.6-1.8-4.2c0.4-2.6-0.5-5.7-1.5-6.6C268.4,152.5,268.7,150.4,273.2,150.1z"/>
	<path class="st1" d="M270,150.9c-1,1.6,2.4,4.8,2.6,6.4c0.2,1.6,1.7,1.8,3.8,1.6s5.5-0.4,4.4-3.2"/>
	<path class="st1" d="M227.6,152.4c-2.7-0.4-7.4-0.2-8.4,2.5s-2,9.2-0.9,11s3.6-1.2,6.7-1.5c3.1-0.3,5.6,1.8,6.5,2.8
		s2.6-2.1,1.3-5.8C231.6,157.6,229.7,152.8,227.6,152.4z"/>
	<path class="st1" d="M220.5,153.3c-1.4,1.6-2.5,9.3,0,9.2s7.8-0.7,10.2,0c2.5,0.7,1.3-3.1,1.3-3.1"/>
	<path class="st1" d="M239.5,162.6c-0.1-2.3,7.5-1.4,14.7-0.5c7.1,0.9,10.7-2.3,12.2-3.1s4,1,2.5,6.4s-9.6,16.8-11.3,18.1
		c-3.2,2.4-11.7,2.5-13.2,0.7s-1.2-3.9-0.5-5.6c2.1-5,0.6-7.8-0.7-9.7C241.9,167,239.7,165.4,239.5,162.6z"/>
	<path class="st1" d="M243.3,161.1c-5.7,2.3,4,6.3,4.3,9.9c0.2,2.8-0.8,6.1-0.8,7.1c0.1,3.1,12,3.8,15,0.1"/>
	<path class="st1" d="M218.2,158.7c-3.7-1.2-8.4,2.3-9.3,13.3c0.8,3.9,2.7,4.2,2.7,4.2"/>
	<path class="st1" d="M216.3,169.2c3.2-2.8,12.4-10.4,16.9,2.2s-3.5,23.3-4.8,24.4c-1.3,1.1-6.4,4.3-10.6-1.7
		c-4.3-5.9-7.3-11.4-6.9-15.5C211.4,174.6,216.3,169.2,216.3,169.2z"/>
	<polygon class="st1" points="216.9,174 216,174.4 216.9,181 220,182.5 221.1,179.3 	"/>
	<polygon class="st1" points="233.3,175.2 229.9,179.1 230.2,181.6 232.3,180 233.7,175.9 	"/>
	<path class="st1" d="M225.6,164.4c-3.6,1.5-13.2,9.3-12,17.2c1.1,8,3.4,11.5,4.2,12.5"/>
	<path class="st1" d="M204.3,170.9c1.6-0.5,5.6,0.6,5.2,10.7c-0.1,2.2-1.1,14.9-8.1,18.1c-3-0.5-6-9.3-4.3-17.2
		C198.9,174.7,201.9,171.6,204.3,170.9z"/>
	<path class="st1" d="M199.1,197.7c1.7,0.6,10.2-8.1,7.6-26.3"/>
	<path class="st1" d="M233,165.8c3.7,0.1,8.5,5.9,8.4,13.4s-2.8,7.6-2.6,12.8c2.1,4,2.1,18.5-10.1,25.6c1.6-4.8-4.7-10-9.8-10
		s-13.7,4.8-14.7,7.5c-3.7,1.9-5-8.1-4.8-10.2c0.2-2.6,1.2-4,1.8-5.4"/>
	<path class="st1" d="M202.6,199c-0.9,1.8-1.7,11.4,0.9,12.1c2.1,0.6,6.5-3.7,10.1-5.8c4.9-2.8,18.8-2.2,15.4,11.8"/>
	<line class="st1" x1="241.5" y1="181" x2="243.4" y2="182.1"/>
	<path class="st1" d="M268.9,172c1.2-3.7,2.9-10.4,7.6-10.7s9.5,5.8,10.7,10.7s2.7,17.5-2,21.3s-12.4-2.9-14.7-6.8
		S266.4,179.8,268.9,172z"/>
	<path class="st1" d="M271.4,165.4c-1.4,3.3-9.1,17.4,5.8,24.9s10.4-16.3,10.4-16.3"/>
	<polygon class="st1" points="270.4,171.3 271.4,170.3 274.9,174.8 274.9,177 272.6,176.2 	"/>
	<polygon class="st1" points="285.6,170.8 284,174 284,175.8 285.2,175.8 286.1,172.4 	"/>
	<path class="st1" d="M288.2,173.3l1.5,1.9h2.9l2,8.4v9.2c0,0-2.5,2.6-3.2,3.1s1.8,3.5,1.6,6.4c-0.2,2.9-1,5.8-3.7,7.3
		c0-2.8-1.3-8.6-9.2-7.9s-13.2,9.9-13.8,12c-3.3,0-10.6-3.1-11.9-10.2c-1.4-7.1-0.4-15.6,4.7-19.7c5-4,6.8-4.5,7.3-4.4
		c-0.5,2.8,4,12.2,9.4,14.9s9.1,1.5,10.8-0.7C288.4,191.2,290.9,185.9,288.2,173.3z"/>
	<path class="st1" d="M257.5,185.3c1.6-1.6,8.9,1.6,8.7,10.5c-0.2,8.9-1.5,18.8-8,14.1"/>
	<path class="st1" d="M238.9,192.1c-1.7-1.5-6,3.6-5.6,11.8s-1.3,11.7-2,12.2"/>
	<path class="st1" d="M213.9,208.8c-2.6,1.1-2.3,2.6,3.5,3.4s6.2,1.7,7.5,2.3c1.3,0.7,3.4-0.1,1.7-3.4"/>
	<path class="st1" d="M276.2,202.7c-3.1,1.9-5.2,5.3-1.3,5s8.6-2.3,11.2,0s3.3-1.1,2.1-2.7"/>
	<line class="st1" x1="257.8" y1="184.9" x2="256.9" y2="183.8"/>
	<path class="st1" d="M213,212.2c-3.2-0.1-8.6,2.9-8.8,8.8c-0.2,5.9,2.2,13,4.4,14.3c2.1,1.3,7.5,1.6,9.7,0c2.1-1.6,8.3-7,8.3-11.6
		s-0.6-7.3-2.1-8.5C222.8,214,218.4,212.3,213,212.2z"/>
	<path class="st1" d="M208.5,213.6c-2.8,2.8-2.9,13.7,0,15.5s10.9,3,12.7,1s6.2-5.8,2.5-15.4"/>
	<path class="st1" d="M204.9,227.6c-1.5-0.2-7.1,1.9-7.3,7.6c-0.2,5.7,3.5,4.5,3.7,7.4c0.2,3,0.2,7.7,1.1,10.2
		c0.9,2.5,3.6,6.6,6.4,6.5c2.7-0.1,6.6-4,6.9-7.3c0.2-2.1-0.3-7.5,0.6-8.6s6.5-1.4,7.4-4.9c0.9-3.6,0.7-6.4-0.4-7.9"/>
	<polyline class="st1" points="198.4,238.9 195.6,239.6 194.6,246.2 198,253.9 204.2,255.3 	"/>
	<polyline class="st1" points="214.3,255.3 218,255.3 223.7,247.1 224.3,241.4 223.2,239.6 	"/>
	<path class="st1" d="M199.6,254.2c0,0,2.7,13,1.8,17.7c-1,4.7-5.4,6.7-5.2,9.4c0.2,2.7,2.1,3.1,2.1,3.1s6.4-5.4,6.7-5.4
		c0.2-0.1,3.2-1.1,3.2-1.1l2.8,1.5l4.4,5.4c0,0,3.1,0.8,3.1-3.7c0.1-4.5-3.5-5.2-4.2-9.2s1.9-12.7,3.7-16.7"/>
	<polyline class="st1" points="196.1,281.4 192.8,283 190,286.5 191.4,290.8 199.4,298.7 208.4,299.9 216.3,298.2 222.1,290 
		222.1,284.5 218.5,281.2 	"/>
	<path class="st1" d="M194.6,293.9c-0.3-0.3,1.9-6.6,1.9-6.6l5.3-3l12.5,0.6l3.9,3.2l1.7,5.1"/>
	<path class="st1" d="M274.9,208.8c1.7-0.8,9.5-1.6,11.6,0s4.1,6.3,4.2,11.4c0.1,5.1-2.9,8.5-4.5,9.6c-1.7,1.1-7.8,2.1-10.3,0.7
		c-2.5-1.5-8-8.2-8.1-10.3s-0.4-4.6,1.2-6.5C270.5,211.7,274.9,208.8,274.9,208.8z"/>
	<path class="st1" d="M263.5,213c-3.1,1.5-2.2,4.7-1.6,6.8c0.7,2.1,2.1,3.7,3.7,2.5s2.3-1.7,2.3-1.7"/>
	<path class="st1" d="M264.5,222.8l-1.8,3.1c0,0-2.8,5.2-2.3,10.5s2.4,14.1,6.6,15.3s8.3-0.7,9.2-1.7c1.8,0.3,6.7,1.5,6.7,1.5l4-1.9
		c0,0-0.4-9.3,0.5-11.4c0.9-2.1,2.6-4.6,2.5-7.4c-0.1-2.8-1.1-3.5-1.1-3.5"/>
	<path class="st1" d="M261.9,228.4c2.5-0.2,13.3,5.8,14.4,21.5"/>
	<path class="st1" d="M268.4,252c2.5,3.4,4,13.7,3.6,17.1c-2.9,1.8-5.5,5.3-5.3,11.1c0,1,0,2.6,0,2.6l6.5,4.2c0,0,0.7-6.9,3.1-9.7
		s7.3-5,7.3-5l4.4,2.6l2,2.8c0,0,1.5,0.2,1.5-0.1s-1.2-5.4-4-8.2s-2.9-18.1-1.9-19.4"/>
	<path class="st1" d="M273.8,283.3l4-0.5l4.8,3.4c0,0,1.2-3.9,3.5-5.4c2.2-1.6,7-4.8,12.2-1.5s6,8.3,2.3,10.6c-3.7,2.3-7,4-12.3,3.7
		c-5.2-0.3-13.2-5.1-15.2-6.4"/>
	<path class="st1" d="M289,94.1c2.1,1,4.1-1.4,4.1-1.4"/>
	<path class="st1" d="M289,96c2.3-1.9,9,1,10.4,8.7s2,17.5-0.9,21.3s-10.1,6.7-15.8,0.4c-2.5-4.3-3.2-7.8-3.2-7.8"/>
	<path class="st1" d="M285.8,107.9c2.8,0.9,10.5,2.6,13.6-3.3"/>
	<path class="st1" d="M300.3,111c-0.9,3-4.8,8.6-20.1,4.4c-1.2-0.3-3.7,0.8-3.8,2.5c-0.1,1.7,0.6,2.6,1.9,2.8"/>
	<path class="st1" d="M300.6,118.5c0.6,4.2-12.3,10.4-19.6,4.4"/>
	<path class="st1" d="M296.9,92.2c2.8,0.7,3.5,4.1,3.7,6.4s-1.6,4.3-1.6,4.3"/>
	<path class="st1" d="M274.3,124.2c-2.1,1.2-6.6,6.5-2.1,12.1"/>
	<path class="st1" d="M282.7,126.3c-5-2-12.8,3.6-10.5,13.2c0.7,2.6,1.2,9.6,7.3,12"/>
	<path class="st1" d="M282.7,134.2c-2.3-1.6-8.4,3.6-2,9.7"/>
	<path class="st1" d="M285.1,139.8c0.1-3.1-3.6-9.3-7-6.3s-2.4,9.5,2.4,11.8"/>
	<path class="st1" d="M296.3,138.9c-0.4-2.8,3.1-9.9,12.1-9.1"/>
	<path class="st1" d="M301.2,138.9c-0.3-2.4,3.6-8.2,10.4-7.3"/>
	<path class="st1" d="M306.6,142.2c-0.9-3.3,2-8,7-8.3"/>
	<path class="st1" d="M312.7,148.2c-1.5-4,3.3-10.4,11.1-8.8"/>
	<path class="st1" d="M319,154.5c-1.2-3.5,4.6-8.9,10.7-8.1"/>
	<path class="st1" d="M335.5,153.3c-2.5,0-8.4,2.2-12.4,5.4c0,0-15.2-15.4-18.1-17.9s-7.7-3.1-11.9-0.7c-7.4-3.2-13.4,2.1-12.7,5.9
		c-1.3,2.1-0.6,6.2,0,8.5s23.3,27.5,25.3,29.9c2,2.3,3.5,3.1,5.5,2.6c-1.2-4,3.3-13,10.3-18.5s14.5-9.6,17.9-8.7
		C340.7,157.3,338.8,153.4,335.5,153.3c0,0-11.4-13.7-13.8-16.2s-4.8-3.2-8.1-3.2c-0.2-1.5-5.2-6.1-13.3-5.1c-8.1,1-8.8,8-8.2,11"/>
	<path class="st1" d="M308.4,186.7c-1.3-3.8,0.7-10.7,4.6-16.4c4.6-6.7,17.8-16,25.9-15.2"/>
	<path class="st1" d="M288.2,150.4c0.6-3,4.9-8.6,10.3-6S313,159,313.6,160s-0.9,4.8-2,6.4c-1.1,1.6-4,7.3-4.1,8.2s-1.7,1.9-5.6-1.9
		c-3.9-3.8-13.2-14.2-13.7-15.2S287.7,153.4,288.2,150.4z"/>
	<path class="st1" d="M290.1,149.8c0.7-2,3.1-3.9,5.7-1.6s12.5,13.3,12.7,14.1s-3,7-4,7.5c-1,0.4-2.3-0.5-6.3-5.1s-7.9-7.8-8.1-8.6
		C289.1,154.5,289.5,152.1,290.1,149.8z"/>
	<path class="st1" d="M290.4,149.2c0.6-0.9,2.1-1.2,3.5,0s12.1,13.3,12.5,13.9c0,1-2,6.6-4.1,6"/>
	<path class="st1" d="M311.2,187c0.5,1.3,1.2,1.8,2.6,1.5c0.8-5.2,4.1-10.7,10.5-16.4s13.3-9.1,15.6-8.9c1.9-1.2-0.4-3.3-0.4-3.3"/>
	<path class="st1" d="M339.9,163.1c4.5-0.4,7.4-0.2,10.7,2.3c3.2,2.4,10.8,10.7,11.6,13.2c0.7,2.5,1.1,7.6,0.6,8.1s-6.8,0-8.3-1.1
		c0.5,4.3,0,8.1-0.1,8.9c3,1.4,5.9,6.2,5.7,10.7c-2.4,2-7.5,2-13-2.4c-4.6,1.1-9.8,0.5-9.8,0.5s0.7,5.9,0,7.5
		c-3.5,1.5-12.3-3.1-14.9-5.2c-2-1.6-8.4-7.7-8.6-11.4s0-5.7,0-5.7"/>
	<path class="st1" d="M328.8,177.6l-0.7,2.3l0.7,2.9c0,0,5.4,2.9,5.6,2.9c0.2,0.1,1.8,0,1.8,0l0.4-2l-3.3-5.7l-2.9-0.9L328.8,177.6z
		"/>
	<path class="st1" d="M337.2,203.3c-1.2-1.8-5.8-7.3-9.6-8.4c-3.9-1.2-12.3-0.7-13.8-0.1"/>
	<path class="st1" d="M347.1,202.7c1.3-0.3,6.7-6.1,7.3-8.2"/>
	<path class="st1" d="M354.4,185.6c-3.7-3.6-9-9.5-8.9-15.2s6.2-4,6.2-4"/>
	<path class="st1" d="M362.1,178.6c-3.7-0.6-7.3,2.3-7.1,7.3"/>
	<path class="st1" d="M358.5,198.9c-3.7,0-6.4,3-6.1,6.9"/>
	<path class="st1" d="M337.2,204.1c-2.1-0.7-8.8-1-7,5.7"/>
	<path class="st1" d="M354.3,191.8c-1.4-2-6.2-0.1-8,1.7c-3.2,3.1-5,8.5-0.8,9.8"/>
	<path class="st1" d="M349.4,191.5c2.3-0.6,4.2,1.8,2.5,3.7s-7.3,9.6-8.9,4.9"/>
	<path class="st1" d="M228.3,149.2c-2.6-0.6-12.6-0.6-11.8,9.3"/>
	<line class="st1" x1="208.1" y1="172.9" x2="208.9" y2="172"/>
	<path class="st1" d="M269.4,137.5c2.7-1.2,2.4-2.4,2.4-2.4"/>
	<line class="st1" x1="271.8" y1="150.4" x2="270.4" y2="149"/>
	<line class="st1" x1="226.5" y1="220.4" x2="228.8" y2="217.7"/>
	<line class="st1" x1="205.2" y1="217.2" x2="204.4" y2="215.2"/>
</g>
</svg>
