
<svg id="bp-751" viewBox="0 0 527 318">
	<style type="text/css">
		.st0{fill:#fff6;stroke:#999;stroke-miterlimit:10;}
		.st1{fill:none;stroke:#999a;stroke-miterlimit:10;}
</style>
<g>
	<path class="st0" d="M300.5,118.6c4.4-2.1,5.7-11.2,5.4-14.4c-0.2-1.5-4.5-9.5-6.8-12.9c-2.3-3.5-7.7-10.5-7.8-10.6l-0.1-0.1
		l-7.3-0.9l-0.3,0.7c-1.1-0.4-2.1-0.6-2.5-0.6c-0.7,0-1.2,0.3-1.6,0.9c-1.7-0.5-4.3-2-4.6-10.2c-0.2-6.1-1.6-8.5-2.5-9.3h8.4
		l0.6-1.6l8.8,4.7c0.2,0.2,0.5,0.2,0.8,0.2c0.3,0,0.6-0.1,0.9-0.3c0.8-0.5,1.4-1.4,1.4-2.3c0-0.6-0.3-1-0.9-1.3
		c-1.5-0.8-6.3-3.7-10.2-6c-2.8-1.7-5.2-3.1-5.9-3.5l-0.1,0c-0.6,0-0.9,0.4-1,0.8c-2.2-1.9-4.6-3.6-6.2-4.5
		c-3.7-2-10.1-3.7-15.6-2.8l0.1,0.4c-0.2,0-0.4,0-0.6,0l0,0c-21.3-21.3-43.1-12.4-47.4-9c-2.8,1.1-5.7,2.8-8.5,5.2
		c-13.5,11.5-17.5,21.2-21.3,35c-2.8,0.2-6.5,1.4-7.5,2.4c-0.8,0.8-5.6,6-9.7,12.4c-5.7,8.7-7.8,15.7-6.3,20.6l2,2.1l-5.7,11.5
		l2.9,5.2l-4.4,14c-0.4-0.8-1.1-1.4-1.9-1.9c-0.1-0.1-0.2-0.1-0.4-0.1c0,0,0,0-0.1,0l0,0c-0.6-0.1-1.6,0-2.5,0.4
		c-1.7,0.7-3,2.1-3.5,3.7c-0.8,2.7-0.2,5.2,0.7,6.5c0.2,0.6,4,12.9,4.6,14.3c0.3,0.8,1.1,1,1.8,1c0.3,0,0.6-0.1,0.9-0.1
		c0,0.3,0,0.6,0,0.9c-2,0.3-3.3,2-3.2,4.2c0.1,1.5,0.7,2.4,1.2,2.9c-0.2,0.1-0.3,0.3-0.4,0.4c-0.2,0.5-0.5,1.7,0.1,2.6
		c0.4,0.6,1.3,1,2.4,1c2.5,0,3.4,0,3.6,0l6.4,4.1l2.6-0.4l3,1.8l-0.9,2.9l7.6,3.9l10.6-0.4l0.4-0.3c-0.2,0.7-0.6,2-0.7,2.9
		c-3,1.5-6,3.5-8.3,5.6c-4.2,3.9-12,11-14.9,22.3c-1.3,0.2-3.1,1.6-4.6,4c-2.7,0-4.8,2.1-5,5c-0.3,2.9,1.2,5.8,2.7,6.5
		c0.2,4.6,1.2,8.7,1.2,8.8l0,0.2l0.7,0.1l-0.4,0.5v1.2l-1.6,1.2l0,0.1c0,0-0.1,2,0,4.5c0.1,2.6,1.8,5.5,1.9,5.6l0.1,0.1l1.1,0.1
		c-0.2,0.3-0.5,0.8-0.5,1.2c-0.1,0.9,1.6,6.5,2.6,9.8c1.3,4.2,5.7,13.3,5.7,13.4l0,0.1l6.1,1.9l1-0.8l-2.2-8.8l-1.5-0.6
		c-0.3-0.8-1.8-5.9-1.9-8.6l-0.4-10.3l4-7.6l-0.7-3.6l-1-0.2l-0.2-0.6l0.2,0l-0.4-2.3l1.5-0.6l0-0.2c-0.1-1.6,0.5-6,0.5-6.5
		c0.7-1,1.1-2.2,1.1-3.6c0-0.9-0.2-1.7-0.5-2.5c0.5-0.1,0.7-0.4,0.7-0.4c0.1-0.1,4.6-5.5,10.1-9.9c0,0.6,0.1,1.6,0.5,2
		c0.1,0.1,0.3,0.2,0.4,0.2h2.2l-0.3,1.6h-0.8l-0.6,1.3l-1.3,0.2l-0.2,1.1c0,0.7,0.4,18.4,3.5,23.6c0.5,0.6,0.9,0.7,1.1,0.8l0.5,1.5
		l-0.2,0.5l0.4,1.3h0.3c-0.1,0.7-0.2,2.5,0.8,3.7l0.1,0.1h2.4l0.4-1.3l0-3.1l-0.7-0.5l0.1-0.8l0.1-2.5l-0.7-0.5
		c-0.1-1.1-1-9.5-0.5-14.8c1.2-0.3,1.3-1.5,1.5-2.7l0-0.3c0.1-0.7,0.3-1,0.5-1.2c0.2-0.2,0.4-0.4,0.4-0.9c0-0.1,0.4-2.7-0.3-3.5
		c-0.3-0.4-0.7-0.5-0.9-0.6l-0.4-1.3h-0.8l0.4-1.6h1l0.1-0.1c1-1,1.1-2.9,0.8-3.9c-0.1-0.3-0.2-0.5-0.4-0.7c-0.2-0.6,0-1,0.5-1.4
		c0.7,0.1,1.3,0.2,1.6,0.3c0.1,0,0.1,0,0.2,0c0.5,0,1.1-0.6,1.4-1.1c0.6-0.9,1-2.3,0.2-3.4c0.7-0.4,1.3-0.7,1.9-1
		c5.7,13.1,17.3,20.4,31.9,20.4c0.6,0,1.3,0,1.9,0c8-0.3,15.7-4.5,21.6-11.8c2.1-2.6,3.9-5.5,5.3-8.4c0.7-0.2,5.7-0.4,8.9-0.6
		l3.4-0.8l3.6-4.5c1.2,0.6,2.6,0.9,4,0.9c0.9,0,1.8-0.1,2.7-0.4l0.5,0.9c-0.1,0-0.2,0.1-0.2,0.1l-0.3,0.1l2.8,4.7l0.1,0
		c16.7,0.1,33.8,4.2,49.4,12l0.3,0.1l0.1-0.3c0.2-0.5,1.6-2.1,3.7-3.7c1.8-1.5,5.9-1.2,5.9-1.2l0.1,0l1-0.7c2.3,0.3,4,1.4,5.2,3
		c1.4,2.2,1.4,4.8,1,6.4c-0.2,0.7-1,1.7-2.3,2.9c0.7-1.1,1.2-2.5,1.2-3.9c0-4-3.3-7.3-7.3-7.3s-7.3,3.3-7.3,7.3
		c0,1.4,0.4,2.7,1.1,3.8l-1.5,0.3l-0.5,4.6l0.4,0.7l-0.1,1.6l3.7,0.3l0.3,0.5l6.2,0.6l0,0.3l-9.1-1.2l-0.1,0l-1.2,0.7l-1.1,1.7
		l0,0.1c0.2,2.5,0.4,6.6,0.4,7c-0.1,0.2,0,0.4,1.5,1.4c0,7.8-2,15-2.3,16.2l-0.8,0l-0.1,0.2c-0.1,0.3-2.5,8.6-2.8,10.2l0,0.3l0.3,0
		c0.6,0.1,1.1,0.1,1.6,0.1c1.4,0,2.7-0.5,5.1-2.6l0,0c0,0,0,0,0,0c0.7-0.6,1.5-1.4,2.4-2.3c7.4-7.9,12.4-29.2,12.4-29.4l0-0.1l0-0.1
		c-0.6-1.4-0.7-1.5-0.8-1.5c-0.1,0-0.2-0.1-4.2-0.5v-0.8h-0.1l0.1-0.1l4,0.4l-0.4-1.6l-0.5-0.3l0.8-1.4v-3.7l-1.1-1
		c1.6-1.3,2.6-2.6,2.8-3.4c0.5-1.7,0.4-4.5-1.1-6.8c-1.1-1.7-2.8-2.7-5-3.2l0.1-0.1l0-0.1c0-0.1,0.1-1.1,0-1.5
		c-0.1-0.4-4.5-3.8-7.7-6c-3.9-2.8-9.5-6.6-14.3-9c-8.4-4.2-17.3-6.9-18.5-7.2c-0.2-0.5-1-2.6-2.5-3.7c-1.7-1.3-11-3.6-11.4-3.7
		h-2.1v3.3c-1.6,1.6-2.3,2.3-2.7,2.6c-1.6-2.5-4.5-4.2-7.7-4.2c-2.8,0-5.3,1.3-7,3.3h-1.2c0.6-0.8,1.2-1.1,1.2-1.1l0.4-0.2l-2.8-2
		l-2.8,0.9l-5.5,2.4c-0.5-2.3-1.1-4.3-1.9-6.2l16.7-10.1v-9.5l-0.1,0l-0.4-1.1l-24.8-9.7l-4.2,4.2h-5.8c-1.9-3.2-6-19.5-6-30.5
		l4.2,0V127l3.2-0.1l1.3,1.3h6.4l0.1-4.1l0.7-0.7l0.7-7.2l34.3-7.9c0.2,0.4,0.4,0.9,0.7,1.2c0.5,0.6,2.5,4.7,3.8,7.3l-4,7.6l0.3,0
		l4.4,13.2l0,0.1l5.9,1.1l6.3,15.6c-0.1,0-0.2,0-0.3,0c-1.9-0.1-3.6,0.9-4.2,1.6c-0.2,0.1-0.4,0.3-0.6,0.5c-0.7,0.7-1,1.9-0.8,3.7
		c0.1,1.1,0.5,2,1,2.7l0,0c1.8,2.7,3.4,2.9,5.8,2.9c0,0,0,0,0,0c0.7,0,1.5-0.3,2.2-0.7l15.1,12.4l0.2-0.2c0.1,2.2,1.2,4.7,4.4,6.7
		l0.1,0l6.6-0.5l0.9-1c0.8,0,6-0.1,11.7-1.7c6-1.6,14.7-6,15.7-7.2c0.2,0,0.7-0.2,1.5-0.3c0.1,0,0.3,0,0.4-0.1
		c3.9-0.8,12.5-2.5,14.2-2.8c0,0,0,0,0,0c0,0,0,0,0,0l0,0c0.7-0.1,1.3-0.7,1.6-1.5c0.4-1.1,0.3-2.4-0.3-3.1
		c-0.1-0.1-0.2-0.2-0.3-0.3c0.5-0.1,1-0.2,1.3-0.2c1.1-0.3,8-1.6,11.3-2.2c1-0.2,1.8-0.3,1.9-0.4c1.4-0.3,1.9-1.8,1.7-3.1
		c-0.2-1.1-1-2.2-2.8-2.2l0,0c0,0,0,0-0.1,0c-0.2,0-0.3,0-0.5,0c-3.5,0.6-13.2,2.5-14.9,2.9c-1-1.2-6.5-2.5-10.2-2.4
		c-3.7,0.2-10.5,1.7-12.1,2.9c-0.6-0.4-1.9-1.1-1.9-1.1l-0.1,0l-9.9,0.7l-0.1,0l-4.2,3.6v0.5c-0.9,0.1-3.7,0.3-4.7,1l-6.9-9l0.6-1.5
		l-2.7-3.8l-1.4-0.7l-8.3-12.7v-1.3l-3.5-5.9l0.4-0.5L300.5,118.6L300.5,118.6z M317.1,171.4L304.5,160l2.7-1.5l0-0.1
		c0-0.1,0-0.2,0-0.2l1.3-0.6l0,0.4l0.4-0.3c0,0,0.8-0.5,1.5-0.9c0.2,0.3,0.5,0.5,0.8,0.7c0.1,0,0.2,0.1,0.4,0.1
		c0.2,0,0.4-0.1,0.6-0.2c0.3,0.5,1.6,2.5,2,2.8c0.3,0.2,0.6,0.2,0.8,0.1c0.9,1.2,4.8,6.5,5.6,7.5c-0.4,0.7-0.6,1.4-0.6,1.7
		c-0.5,0.1-1,0.2-1.3,0.2C318.2,169.9,317.6,170.5,317.1,171.4z M164.9,160.2c0.3-0.1,1-0.4,1.3-1.1c0.3-0.8,0.9-6,1-6.6l0-0.1
		l-0.9-1.3l2.4-12.5l1-1.2l0.8-7.1c0.1,6,3.4,23.8,4.3,26.8l-6.8,3.5c-1.1,0.1-2.2,0.2-3.3,0.3L164.9,160.2z M152.9,154.5
		L152.9,154.5l5.1,2.3l-0.1,0.8l0.8,0.8l-0.8,3.2c-0.2,0-0.4,0-0.4,0.1l-0.8-0.7l-6.2,0.4l-2-10.7L152.9,154.5z M244.1,86.7
		l-7.4-0.2l-0.1,0l-0.9,0.4l0.1,1.6l-2,0.1v-6.1l2.9-1.8l0-0.1c0.3-0.9,0.6-1.9,0.9-2.9c0.3,0,0.9,0,1.4-0.1
		c0.9-0.2,3.3-2.3,3.4-6.1c0.1-3.8-2.6-5.3-3.5-5.8c-0.6-0.3-1.3-0.3-2.1-0.3c-0.3,0-0.7,0-1,0c-0.2-0.1-0.3-0.3-0.4-0.3l-2.5-0.1
		c0-4.5,4.4-10.2,6.5-10.8l2.7,0.2l1.9,4.8l13.8,2.9l1.2-2.5l2.6,0c3.1,1.5,5.9,2.9,6.1,3l0.1,0l0.1,0c0.8-0.1,1.3-0.6,1.6-1.2
		c1.7,1.5,3.4,3.9,3.5,9.7c0.1,6.2,1.1,10.6,5.9,11.7c0.1,0.5,0.3,0.9,0.7,1.1l0.7,0.3c0.7,0.3,1.5,0.6,2.3,0.9v0.7l4.5,7.9
		c-0.6-0.3-1.3-0.6-2.1-0.8l0.1-0.1l-1.8-2l-27.4-0.7l-0.7,1.4h-10.6l0.1-3.3h-0.1L244.1,86.7z M180.9,191.4l1.5-1.2l0.8-2.4
		l4.6-0.2c-0.1,0.1-0.1,0.3-0.2,0.5l-0.1-0.1c0,0.1-0.1,0.2-0.2,0.3c-1.2,1.4-2.7,3.2-2.8,4.4l0.1,0c-1.3,0.5-2.7,1.1-4.2,1.8
		c0.2-1.3,0.8-2.9,0.8-3L180.9,191.4z"/>
</g>
<g>
	<ellipse class="st1" cx="227.6" cy="97" rx="3" ry="3.4"/>
	<ellipse class="st1" cx="241.3" cy="97.4" rx="3" ry="3.4"/>
	<circle class="st1" cx="175.3" cy="96.3" r="4.7"/>
	<circle class="st1" cx="284.6" cy="99.9" r="3.9"/>
	<path class="st1" d="M174.8,91.6c3.6,0,4.8,3.7,4,5.9s-3.6,3.6-6.1,2.7"/>
	<path class="st1" d="M282.3,96.8c0.8-0.5,4.9-0.9,5.3,2.8c0.4,3.7-2.5,4.1-3.6,4.1"/>
	<polyline class="st1" points="244.7,88.2 243.9,87 236.7,86.8 236.1,87.1 236.2,88.8 231.5,88.9 231.6,88.1 230.8,86.8 221,86.8 
		224.7,127.3 226.4,127.9 233,127.9 233,126.8 236.5,126.6 237.9,127.9 243.9,127.9 244.7,88.2 237.5,88.2 236.3,87.2 	"/>
	<line class="st1" x1="237.5" y1="88.2" x2="237.9" y2="127.9"/>
	<line class="st1" x1="236.5" y1="126.6" x2="236.2" y2="88.8"/>
	<line class="st1" x1="231.5" y1="88.9" x2="233" y2="126.8"/>
	<polyline class="st1" points="226.4,127.9 222.7,87.9 231.6,88.1 	"/>
	<line class="st1" x1="222.7" y1="87.9" x2="221" y2="86.8"/>
	<path class="st1" d="M244.3,106.1c0,0,11.8-2.4,11.8-2.4l3.1-9.1l-1.2-1.5h-13.3"/>
	<line class="st1" x1="244.5" y1="95" x2="259.2" y2="94.6"/>
	<polyline class="st1" points="221.7,92.8 202.4,92 201.5,93.6 208.3,104.3 222.7,106.9 	"/>
	<line class="st1" x1="222.7" y1="105.7" x2="207.5" y2="102.9"/>
	<path class="st1" d="M279.8,106.1c-0.3,0.4,0.2,2.1,1,3.1c0.8,1,4.8,9.5,4.8,9.5h0.9c0,0,1.8-1.9,3.6-2.8s4.3-1,4.3-1l-5.5-10.6"/>
	<path class="st1" d="M277.9,100.6c0.5,2,2.4,6.8,7.8,5.6c5.4-1.2,4.4-7.2,4-8.1c-0.4-0.9-2.1-4.9-7.4-3.7
		C276.9,95.4,277.9,100.6,277.9,100.6z"/>
	<path class="st1" d="M282.3,92.8c-4.4,0.4-6.6,4.9-5.8,8.2c0.8,3.3,3.6,7.5,8.9,6s5.9-5.8,5.1-9.3
		C289.6,94.2,286.1,92.5,282.3,92.8z"/>
	<path class="st1" d="M283.5,114.5c0-2.5,5.4-5.1,8.4-4.2"/>
	<path class="st1" d="M282.7,112.8c0.3-3.1,6.4-4.9,8.5-4.1"/>
	<path class="st1" d="M285.2,117.9c0.2-1.3,5.7-4.4,8.6-4.1l5,1.5l6,14.8l-0.6,0.7"/>
	<path class="st1" d="M292.4,111.1c0.5-0.1,3.5-1.3,3.5-1.3l0.5-1.5l-4.8-12.7L290,96"/>
	<line class="st1" x1="292.2" y1="97.2" x2="290.4" y2="97.7"/>
	<polyline class="st1" points="288.1,94.2 283.2,85.5 283.2,84.5 	"/>
	<path class="st1" d="M283.9,80.6l0.3-0.6l7,0.9c0,0,5.4,7,7.7,10.6c2.3,3.5,6.5,11.4,6.7,12.8c0.3,3-0.9,12.1-5.2,14.1"/>
	<path class="st1" d="M299.6,117.4c0.9-0.9,2-4.2,1.4-6.7c-1.4-3.3-9.1-21.2-13-24.3"/>
	<path class="st1" d="M292.7,83.9c1,0.3,1.3,3.9-0.7,3.6c-2-0.3-10.8-3.6-12-4s-0.6-3.6,1.2-3.5C282.9,80.1,292.7,83.9,292.7,83.9z"
		/>
	<path class="st1" d="M292.5,84.5c-0.7,0.1-1.2,1.6-0.5,2.3"/>
	<polyline class="st1" points="288.1,117.4 284.6,123.4 288.5,134.9 293.9,136.1 301.2,153 	"/>
	<polyline class="st1" points="284.6,116.6 280.7,123.9 284.6,123.4 	"/>
	<polyline class="st1" points="280.7,123.9 285.2,137.3 291.2,138.5 297.7,154.7 	"/>
	<line class="st1" x1="285.2" y1="137.3" x2="288.5" y2="134.9"/>
	<line class="st1" x1="291.2" y1="138.5" x2="293.9" y2="136.1"/>
	<polyline class="st1" points="287.7,118.7 297,132.8 297,134.9 301.2,140.5 302.7,140.5 308,148.8 	"/>
	<path class="st1" d="M292.9,115.1l9.5,14.2l1.6,0.7l4,6.7v1.3l8.4,12.9l1.4,0.7l2.6,3.6l-0.6,1.5l6.7,8.8l0.4,0.6
		c0.8-0.8,5-1.1,5-1.1v-0.7l4-3.5l9.8-0.7c0,0,1.7,0.9,2.1,1.2c1.1-1.2,8.2-2.8,12.1-3c3.9-0.2,9.6,1.3,10,2.4
		c0.8-0.2,11.3-2.3,15-2.9s3.8,4.3,1.5,4.7c-0.8,0.2-11.8,2.2-13.3,2.6c-1.4,0.3-4.6,0.7-5.2,0.4c-0.7-0.4-0.8-1.1-0.8-1.1l-5.4,1.1
		l-6.9,2.6l-0.1,0.6c0,0,12.9-2.6,15.7-3.1c2.9-0.5,2.6,4.4,0.4,4.8c-2.2,0.3-16.2,3.2-16.2,3.2c-0.4,0.9-9.4,5.5-15.6,7.2
		c-6.3,1.7-11.8,1.7-11.8,1.7l-0.9,1l-6.4,0.4c-7.9-4.8-2.8-13.2-1.4-13.5c1.4-0.3,6-1,6-1l1.2,1c-0.9,0.5-2.4,4.3-1.7,7.3
		c0.8,3.6,2.9,4.8,2.9,4.8"/>
	<path class="st1" d="M297,134.9c0.7-1.8,4.3-4.5,7-4.9"/>
	<path class="st1" d="M297,132.8c0.7-1.2,3.4-3.2,5.4-3.5"/>
	<path class="st1" d="M301.2,140.5c0.5-1.3,2.9-3.8,6.8-3.8"/>
	<path class="st1" d="M302.7,140.5c0.4-0.6,3.4-2.4,5.3-2.5"/>
	<path class="st1" d="M295.3,155.8c-3.4-0.3-4,1.7-3.7,4.2c0.2,2.6,2,4.2,4.5,4.3s4.3-1.3,4.2-4S298.7,156,295.3,155.8z"/>
	<path class="st1" d="M292.9,156.1c0.8-1,5.2-3.5,8.3,1.1c3.1,4.6-0.5,8.2-3.1,8.2c-2.5,0-3.9-0.3-5.6-2.8"/>
	<path class="st1" d="M298,154.7c0,0,3.5-1.4,4.7-1.7c1.2-0.3,4.6,1.2,4.3,5.3l-3,1.6"/>
	<path class="st1" d="M307.6,150.4l-2.8,1.5c0,0,2.4,0.9,3.2,2.4s0.9,2.8,0.8,3.3c0,0,1.5-0.9,2.5-1.3
		C311.6,153.4,310.2,151.4,307.6,150.4z"/>
	<polyline class="st1" points="306.5,150.9 302.1,143.7 299.7,145.1 302.7,153 	"/>
	<line class="st1" x1="304" y1="153" x2="305.5" y2="152.2"/>
	<line class="st1" x1="307" y1="158" x2="308.8" y2="157.2"/>
	<line class="st1" x1="299.7" y1="145.1" x2="304.6" y2="152.6"/>
	<path class="st1" d="M305.9,149.9c0.4-0.7,3.9-1.6,6.1,1.1c2.2,2.7,0.4,5.8,0,6.2s-1.3,0-1.5-0.7"/>
	<line class="st1" x1="301.5" y1="157.6" x2="317.1" y2="171.7"/>
	<line class="st1" x1="302.2" y1="162.1" x2="315.8" y2="175"/>
	<line class="st1" x1="300.3" y1="164.7" x2="315.5" y2="177.2"/>
	<path class="st1" d="M312.3,157.2c0,0,1.6,2.5,2,2.8s0.7,0,0.7,0c0.4,0.6,5.8,7.9,5.8,7.9"/>
	<path class="st1" d="M314.3,160c0.3-1.4,3.9-3.7,5.5-3.4"/>
	<path class="st1" d="M313.1,154c0.6-1.2,3.6-2.5,4.7-2.4"/>
	<path class="st1" d="M316.4,150.9c-1.4,0-3,1.1-3.4,1.9"/>
	<path class="st1" d="M318.7,164.7c0.3-0.8,3.7-3,4.8-3.2"/>
	<path class="st1" d="M322.6,160.3c-1.2,0.2-4.5,2-5.1,3.2"/>
	<path class="st1" d="M320.1,169.8c0-1.1,1.1-4.2,6.2-4.6"/>
	<path class="st1" d="M324.7,169.1c-1.9,1.5-3,4.7-2.6,7.7s3.1,5.7,4.5,6.4"/>
	<path class="st1" d="M325.9,170.1c2.4-0.6,17.4-3.9,20.3-3.7c2.9,0.2,7.9,0.4,8.8,1.6"/>
	<path class="st1" d="M337.4,167.6c-3,0.6-5.4,9.1,1.5,13"/>
	<path class="st1" d="M335.3,168c-3.7,1.5-3.2,11.2,2.4,12.9"/>
	<path class="st1" d="M354.8,168.5c-1.5,0.2-2.5,1.3-2.4,2.9s2,2,2.4,2"/>
	<path class="st1" d="M356.8,173c-2,0.7-4.5-2.8-1.5-4.5"/>
	<path class="st1" d="M360,167.5c-2.3,0.1-3.1,4.7,0.3,4.8"/>
	<path class="st1" d="M362.4,171.9c-2.6,0.4-3.8-4.1,0-4.9"/>
	<path class="st1" d="M371,165.4c-2.9,0.2-2,5.2,0.1,4.8"/>
	<path class="st1" d="M385.6,157.7c-2.6,0.2-2.2,5.5,0.7,4.9"/>
	<path class="st1" d="M377,159.2c-1.9,0.4-2,5.5,0.6,5"/>
	<path class="st1" d="M374.8,159.6c-2,0.4-2.1,5.4,0.2,5"/>
	<path class="st1" d="M371.6,160.3c-2.7,0.6-3.5,5.7-0.4,5.1"/>
	<path class="st1" d="M370,160.6c-2,0.4-3.7,1.6-2.7,3.7"/>
	<path class="st1" d="M347.9,161.2l-2.5,3c13.4-3.5,17.4-0.1,17.9,0.9"/>
	<line class="st1" x1="343" y1="166.6" x2="345.4" y2="164.2"/>
	<path class="st1" d="M344.9,164.7c-0.2-0.9-1.9-1.2-1.9-1.2l-11,0.7"/>
	<line class="st1" x1="330.2" y1="169.1" x2="332.5" y2="166.3"/>
	<polyline class="st1" points="332,164.9 332.4,166.5 333.6,166.3 331.6,168.8 	"/>
	<path class="st1" d="M333.6,166.3c0,0,1.5-1.4,2.8-1.5c1.3-0.1,1.3,0.6,1.3,0.6l6-1.1l-1.9,2.5"/>
	<path class="st1" d="M327,166c-1.1,0.4-2.4,2-2,3.3"/>
	<line class="st1" x1="244.3" y1="114.5" x2="279.4" y2="106.1"/>
	<line class="st1" x1="244.1" y1="116.2" x2="280" y2="107.9"/>
	<polyline class="st1" points="244,123.9 244.7,123.2 245.4,115.9 	"/>
	<polyline class="st1" points="244.2,111.1 245.4,111.5 245.4,114.2 	"/>
	<path class="st1" d="M277.1,102.9c-0.5,0.2-33.1,5.1-33.1,5.1"/>
	<line class="st1" x1="244.3" y1="106.9" x2="276.3" y2="101.9"/>
	<line class="st1" x1="257.1" y1="100.8" x2="276.3" y2="98.8"/>
	<line class="st1" x1="257.7" y1="98.8" x2="276.7" y2="97.4"/>
	<line class="st1" x1="257.9" y1="97.7" x2="277.1" y2="96.5"/>
	<polyline class="st1" points="256.4,92.8 257.1,91.5 282.7,92.1 283.2,92.8 	"/>
	<polyline class="st1" points="244.7,91.5 255.6,91.5 256.4,90.1 283.5,90.8 285.2,92.8 	"/>
	<path class="st1" d="M280,81c-2.1-0.6-5-2-5.2-10.6c-0.2-8.6-3-9.6-3-9.6"/>
	<path class="st1" d="M269.4,58.9h12l-0.7,2h-11c1.8,1.5,3.7,3.8,3.8,10.1c0.1,6.3,1.1,10.5,5.8,11.5"/>
	<path class="st1" d="M253.9,50.7c0.7-0.1,14.4,7.3,15.1,7.8c0.7,0.4,1.4,3.3-0.9,3.7c0,0-13.7-6.8-14.9-7.5
		C252,54,252.6,51,253.9,50.7z"/>
	<path class="st1" d="M269.1,58.5c-0.8-0.4-2.8,1.6-0.9,3.7"/>
	<path class="st1" d="M281.5,59.2l9,4.8c1.6,1,3.9-2.2,2-3.2c-2.6-1.3-14.3-8.6-16.1-9.6c-0.8,0-0.8,0.8-0.8,0.8"/>
	<path class="st1" d="M292.5,60.9c-1.3-0.1-2.7,1-2,3.2"/>
	<path class="st1" d="M281.5,58.9c-0.2-2.1-8.4-9.1-12.4-11.2s-10.3-3.6-15.4-2.8"/>
	<path class="st1" d="M277.3,58.9c-0.5-1.2-7-7.7-12.3-10.3s-10-3.3-13.2-3.5s-3.5,0.9-3.5,0.9"/>
	<path class="st1" d="M272.5,58.9c-1.6-2.6-9.8-9.1-14.6-10.8c-4.7-1.7-12.1-3.6-16.1,0.2"/>
	<path class="st1" d="M267.4,57.3c-2.3-1.8-8.3-6.4-13.1-7.7c-4.8-1.2-8.3-1.7-10.7-0.9"/>
	<polyline class="st1" points="253.1,51.4 248.3,49.5 246.9,50.4 240,47.5 229.7,50 229.9,52 238,53.8 242.5,54.1 244.5,58.9 
		257.9,61.7 259.1,59.2 262,59.2 	"/>
	<polyline class="st1" points="260.5,58.4 243.1,53.3 242.5,54.1 	"/>
	<path class="st1" d="M252.6,52.9c-0.4,0.1-3.3-1.1-3.3-1.1l-1.8,0.7l-8.7-3l-8.9,2.5"/>
	<path class="st1" d="M239.6,53.9c-2.2,0.6-6.9,6.6-6.7,11.4"/>
	<path class="st1" d="M240.5,47.5c-2.2-2.7-9.2-10.9-23.6-11c-14.3-0.1-27.3,12.9-31.7,21.8c-4.4,8.9-9.2,24.4-9.4,27.1"/>
	<path class="st1" d="M173.7,85.7c4.9-19,7.4-30.4,23.8-44.4c17.7-15.1,40.2-2.6,45.1,6.2"/>
	<path class="st1" d="M205.9,36.2c3.8-3,25.6-12.6,47.1,8.9"/>
	<path class="st1" d="M211.7,34.6c2.6-1.1,22.3-6.6,34.7,11.5"/>
	<path class="st1" d="M249,45.5c-1.5-3.7-17.8-17.9-35.6-11.5"/>
	<polyline class="st1" points="223.7,33 224.1,34.2 228.5,35.3 229.4,33.9 	"/>
	<polyline class="st1" points="230.7,34.2 230.7,36.1 235.8,38.3 237.1,37.1 	"/>
	<polyline class="st1" points="239,38.4 238.3,39.8 244,45.5 245.8,45.5 	"/>
	<path class="st1" d="M231.5,40c-2.9-0.6-7.8,0.7-8.7,3c-0.7-0.2-2.9-0.8-3.5-0.9c0.7-2.7,2.7-4.6,3.5-5.1"/>
	<path class="st1" d="M219.3,42.2c1-1.6,4.6-4.4,7.7-4.1"/>
	<path class="st1" d="M221.2,36.8c-2.7-0.2-16.9,12.8-20,26.3"/>
	<path class="st1" d="M217.9,36.5c-2,0.4-15.5,12.4-18.2,27"/>
	<path class="st1" d="M233,40.9c-5.4,2.5-13.4,12.9-16,19"/>
	<path class="st1" d="M218.9,59.6c5.6-11.4,13.7-17.1,15.6-17.7"/>
	<path class="st1" d="M221.9,64.6c-0.5-1.2-2.4-5-3.1-5c-0.7,0-1.5-0.2-1.6,0c-0.1,0.2-1.6,2.8-1.3,4.6"/>
	<path class="st1" d="M220.3,64.6c-0.2-0.3-1.8-4.6-2.4-4.8c-0.6-0.2-0.6-0.3-0.9,0.1"/>
	<path class="st1" d="M219.4,60.1c0.4-0.6,1.4-0.5,2.4,0.8c0.9,1.2,0.5,2.1-0.4,2.5"/>
	<path class="st1" d="M202.5,63.1c-0.2-0.9,0.2-3.7,1.4-3.5c1.1,0.2,1.4,2.5,1.3,3.5"/>
	<path class="st1" d="M203.9,59.6c0.8-0.3,1.7-0.3,2.3-0.1c0.6,0.3,1.1,2.4,1,3.9"/>
	<path class="st1" d="M206.2,59.5c0.3-0.7,1.5-0.9,2-0.4s2.5,2.9,3,4.7"/>
	<path class="st1" d="M232.9,88.9c-0.6-0.9-0.3-2.1-0.3-2.1l-1.4-4.8c0,0,0.4-8.4,0.3-10c-0.1-1.6,0.6-1.4,0.8-2.8
		c0.2-1.3-0.2-4.3-2-4.3c-1.8,0-24.8-1.8-27.1-1.8c-2.4-0.1-2.5,0.1-2.8,0.6l15.7,17.8l4.7,9.9l-0.2,0.5l-5.5-6.2l-13.6-11.2"/>
	<path class="st1" d="M233.7,88.8c0-0.1,0-6.5,0-6.5l2.9-1.8c0,0,1.7-5.5,2.1-6.2c0.4-0.7,0.3-4.8-0.4-5.8c-0.7-1-2.4-3-2.8-3.2
		l-4.6-0.2"/>
	<path class="st1" d="M235.9,65.6c1.2,0.1,2.2-0.2,3.1,0.3s3.5,1.8,3.4,5.5c-0.1,3.7-2.5,5.7-3.2,5.8c-0.7,0.1-1.6,0.1-1.6,0.1"/>
	<polyline class="st1" points="228,86.8 228.2,84.8 222.5,84.8 223.2,86.8 	"/>
	<line class="st1" x1="227.1" y1="86.6" x2="227.1" y2="84.8"/>
	<line class="st1" x1="209.9" y1="81.4" x2="199.9" y2="81"/>
	<path class="st1" d="M216.6,87.4c0,0-12.7-0.6-12.7-0.6l-1.3,1.1"/>
	<path class="st1" d="M218.6,89.6c-0.1-0.1-13-0.8-13-0.8"/>
	<polyline class="st1" points="219.8,91 206.4,90 204.9,88.2 171.8,85.5 171,86.3 170.7,89 	"/>
	<path class="st1" d="M198.6,87.7c0.2-0.4,2.5-13.2,2.5-13.2s1.7-0.7,1.7-4.9s-3.2-6.1-3.6-6.1c-0.4,0-7.1-0.1-8.4-0.1
		c-1.3,0-2.9,2.3-2.9,6.2c0,3.8,2.8,5,3.2,5.2c-0.3-0.1,4.1-0.1,4.1-0.1l-2.8,12.6"/>
	<line class="st1" x1="190" y1="87" x2="192.9" y2="74.6"/>
	<path class="st1" d="M195.2,74.6c1,0.1,2.4-2.8,2.4-5.6c0-2.8-0.8-5.6-2.8-5.6"/>
	<path class="st1" d="M190.9,63.4c1.7,0,4.8,7.1,0.2,11.3"/>
	<polygon class="st1" points="219.8,79.2 212.9,67.6 223.4,68 225.9,79.2 	"/>
	<path class="st1" d="M222.1,79.2c0-0.2-1-4.5-1-4.5h-3.9"/>
	<line class="st1" x1="221" y1="74.7" x2="223.4" y2="68"/>
	<path class="st1" d="M175.8,77.6h-1.2c0,0-18.7,21.2-20.1,34.5l0.7,0.6"/>
	<path class="st1" d="M176.2,76.3c-2.8,0.2-6.5,1.4-7.5,2.4c-1,1-19.6,21.1-16,32.8l2,2.1"/>
	<path class="st1" d="M206.2,92c0,0,0-1.9-2.3-1.9s-28.6-2.4-28.6-2.4l-0.3,1.1"/>
	<line class="st1" x1="172.1" y1="88.8" x2="171.8" y2="85.5"/>
	<path class="st1" d="M223,108.4c0-0.1-42.9-7.7-42.9-7.7"/>
	<line class="st1" x1="208.3" y1="104.3" x2="180.9" y2="99.2"/>
	<line class="st1" x1="205.2" y1="99.5" x2="181.6" y2="95.6"/>
	<line class="st1" x1="203.9" y1="97.4" x2="181.1" y2="93.9"/>
	<line class="st1" x1="203.1" y1="96.1" x2="180.9" y2="92.8"/>
	<polyline class="st1" points="170.7,87.9 168.6,87.3 158.6,105.7 160,106.9 	"/>
	<path class="st1" d="M157.1,111.3c0.3-1.2,2.7-5.3,4.8-5.3c2,0,2.7,2,2.7,2"/>
	<path class="st1" d="M166.6,99.2l-2.4,10.8l0.5,0.8c0,0,1.3-0.3,2.7-0.1c3.4,0.6,5.2,2.5,5.6,3.6h0.6l3-11.1"/>
	<path class="st1" d="M164.6,108.2c0.9-0.6,7.9-0.1,9.7,3.1"/>
	<path class="st1" d="M164.9,106.8c0.5-2.1,9.8,0.6,9.9,2.8"/>
	<path class="st1" d="M177,89.6c3,0.7,5.6,3.8,4.1,8.6c-1.4,4.8-4.9,6.2-9.1,4.2c-4.9-2.3-4-7.2-3.4-9.1
		C169.2,91.4,172.6,88.5,177,89.6z"/>
	<path class="st1" d="M179.2,90.7c-0.8-1.2-2.2-2.4-6.5-2c-4.3,0.4-7.2,3.8-6.6,8.1s1.8,5.3,3.6,6.2c0,0,1.8,0,3.3,0.7
		c1.5,0.7,2.6,1.3,2.8,1.9"/>
	<polyline class="st1" points="164.5,110.5 164,111.1 155.5,111.3 155.5,112.1 149.1,125.2 152,130.4 147.5,144.8 	"/>
	<polyline class="st1" points="160.1,111.2 153.5,125.4 155.9,130.4 149.9,148.1 151.9,149.8 155.4,140.8 160.6,144.1 156.7,154.5 
		157.2,155 156.7,155.9 	"/>
	<line class="st1" x1="153.5" y1="125.4" x2="149.1" y2="125.2"/>
	<line class="st1" x1="152" y1="130.4" x2="155.9" y2="130.4"/>
	<polyline class="st1" points="148.1,150.2 152.8,154.1 157.2,142 	"/>
	<line class="st1" x1="152.8" y1="154.1" x2="158.4" y2="156.7"/>
	<path class="st1" d="M176.2,104.6c-0.1,0.1,34.1,11.2,35.5,11.6c0.4,0.9,0.6,2-0.5,1.9c-1.1-0.1-35.5-11.7-35.5-11.7"/>
	<polyline class="st1" points="207.1,114.5 207.1,113.9 221.6,109.2 223,109.2 	"/>
	<polyline class="st1" points="221.6,109.2 222.2,121.4 224.2,121.9 	"/>
	<polyline class="st1" points="222.2,121.4 217.3,120.3 208.1,123.3 207.1,116.9 	"/>
	<line class="st1" x1="208.1" y1="123.3" x2="224.4" y2="123.9"/>
	<line class="st1" x1="217.3" y1="120.3" x2="217" y2="110.7"/>
	<polyline class="st1" points="208.6,105.8 208.6,107.6 201.5,112.9 	"/>
	<polyline class="st1" points="205.5,105.3 205.5,106.8 198.9,112.1 	"/>
	<line class="st1" x1="201.5" y1="93.6" x2="221.7" y2="93.9"/>
	<path class="st1" d="M184.9,107.5c0.5-1.2,6.6-3,12.1-0.8v0.9l-0.7,0c-2.5-0.8-8.6-0.5-9.8,0.4"/>
	<line class="st1" x1="196.5" y1="107.7" x2="196.5" y2="111.4"/>
	<path class="st1" d="M185.5,109.7l0.3,13.6c0,0,2.9-1.2,6-1.4c3.1-0.1,4.8,0.4,5.1,0.5l-0.3-9"/>
	<path class="st1" d="M185.7,124.2c0.2-0.4,3.8-1.4,5.9-1.5c2.2,0,4.8,0.2,5.4,0.6c0.6,0.4-1.6,2.6-4.9,2.8S185.1,125.7,185.7,124.2
		z"/>
	<path class="st1" d="M184.9,101.6c-0.7,2.2-0.6,5.7-0.6,5.7"/>
	<path class="st1" d="M179.8,101.1c-0.4,1.3-0.6,3.1-0.6,4.5"/>
	<path class="st1" d="M184.3,109.3c-0.8,6.5-2.3,23.5,5.5,53.8"/>
	<path class="st1" d="M179,107.5c-0.2,7-0.4,34.4,5.6,53.6"/>
	<path class="st1" d="M176.2,106.6c-1.1,16.2-1.4,29.2,3.1,48.5"/>
	<path class="st1" d="M190,126.1c-0.4,10.9,5.4,34.3,6.6,37"/>
	<path class="st1" d="M194.6,125.5c0.2,11,3.3,30.2,5.3,34"/>
	<path class="st1" d="M198.4,114.3c-0.6,5.2,0.1,32.1,4.6,45.1"/>
	<path class="st1" d="M172.6,117.4c-1,14.1,0.8,31,3.8,39.2"/>
	<path class="st1" d="M170.7,129.9c0,5.5,3.5,24.5,4.4,27.2"/>
	<path class="st1" d="M228.8,127.9c0,10.9,4.2,27.9,6.2,30.9c0,0,5.5,0,6.4,0s4.6,3,4.8,9.3"/>
	<path class="st1" d="M164.4,161.2l0.3-1.2c0,0,1-0.2,1.3-1s1-6.6,1-6.6l-1-1.3l2.4-12.7l1-1.2l0.9-8.1l-0.5-0.8l0.7-4.4h0.6
		l1.8-9.6c-0.6-2.1-6-3.6-6.9-2.5l-2.1,9.9c0,0,0.7,0.7,0.6,0.9c-0.1,0.2-1,4.3-1,4.3l-0.8,0.3l-1.8,8.9l1.3,1.6l-2.1,12.4l-0.9,0.4
		l-1,6.8l0.8,0.8l-0.9,3.5"/>
	<path class="st1" d="M159,158.4c1-1.1,5-1.4,5.7,1.6"/>
	<path class="st1" d="M158.2,157.5c1.5-2.4,6.5-2.3,7.9,0.8"/>
	<path class="st1" d="M160.1,150.3c1.3-1.3,4.9-0.6,5.9,0.9"/>
	<path class="st1" d="M162.2,137.8c1.1-1.3,4.8-2,6.2,0.6"/>
	<path class="st1" d="M160.9,136.2c2.7-3.8,7.7-2.7,8.5,1.1"/>
	<path class="st1" d="M163.5,127c1.3-1.1,5.2-1.2,6.4,1.4"/>
	<path class="st1" d="M164.5,122.7c1.8-1.5,5.3-0.6,6.1,1.3"/>
	<path class="st1" d="M163.9,121.8c1.4-1.5,6.8-1.5,7.3,2.2"/>
	<path class="st1" d="M178.9,153.6c0.3-0.2,3.7,0,3.7,0"/>
	<polyline class="st1" points="194,153.6 188.6,153.6 191.1,163.9 	"/>
	<line class="st1" x1="189.6" y1="157.9" x2="195" y2="157.9"/>
	<path class="st1" d="M183.3,156.3c-0.3,0.1-8.2,4.1-8.2,4.1"/>
	<line class="st1" x1="182.1" y1="153.6" x2="168.1" y2="160.8"/>
	<polyline class="st1" points="207.5,119.9 199.9,119.9 200.3,125.2 224.4,125.3 	"/>
	<polyline class="st1" points="224.6,126.6 200.9,127.2 200.3,127.9 200.7,132.4 203.1,132.4 203.6,131.3 224.2,131.3 224.7,132.4 
		226.9,132.4 226.9,127.9 	"/>
	<polygon class="st1" points="200.7,134 205.2,134 205.2,132.7 222.7,132.7 223,133.8 226.9,133.8 227.3,136.2 200.9,136.2 	"/>
	<polygon class="st1" points="228.3,141.4 227.6,137.8 201.1,137.8 201.5,141.5 	"/>
	<polygon class="st1" points="201.8,143.4 228.8,143.4 230,149.3 202.6,149.3 	"/>
	<polygon class="st1" points="203.1,151.2 230.7,150.8 231.9,155.2 203.8,155.6 	"/>
	<polyline class="st1" points="204.7,159.4 204.3,157.4 232.3,157.1 233.9,161.6 233.5,162.3 206.7,162.5 	"/>
	<path class="st1" d="M235.6,158.9c1.2,0,3.5,2.1,3.9,9.6"/>
	<polyline class="st1" points="242,159.1 245.4,155.7 270,165.4 270,174.7 253.1,184.9 	"/>
	<polyline class="st1" points="240.9,158.9 245.1,154.7 269.6,164.3 270,165.4 	"/>
	<path class="st1" d="M239.9,168.2c0.9,0,6.3,0.1,7.3,0c1.1,0,1.8,1.8,1.7,3.2s-1.2,2.5-1.8,2.5c-0.6,0-5.9,0-6.8,0
		s-1.4-2.2-1.4-3.2S239.4,168.2,239.9,168.2z"/>
	<path class="st1" d="M240.3,168.2c0.9,0,2.1,5.3,0.1,5.7"/>
	<path class="st1" d="M242,168.2c1.9,0,1.8,5.7,0.3,5.7"/>
	<path class="st1" d="M245.7,168.2c1.7,0,1.7,5.7,0.1,5.7"/>
	<circle class="st1" cx="251.1" cy="166.3" r="2.6"/>
	<circle class="st1" cx="260.1" cy="166.1" r="2.6"/>
	<circle class="st1" cx="260.6" cy="174.9" r="2.6"/>
	<circle class="st1" cx="251.9" cy="175.3" r="2.6"/>
	<circle class="st1" cx="272.4" cy="198" r="5"/>
	<circle class="st1" cx="272.7" cy="198.3" r="6.1"/>
	<circle class="st1" cx="273.1" cy="197" r="8.9"/>
	<circle class="st1" cx="337.1" cy="225.7" r="3"/>
	<circle class="st1" cx="336.9" cy="226.1" r="7.1"/>
	<circle class="st1" cx="336.8" cy="225.7" r="3.9"/>
	<circle class="st1" cx="161.8" cy="232.6" r="2.2"/>
	<ellipse class="st1" cx="162.5" cy="232.5" rx="3.2" ry="3.6"/>
	<path class="st1" d="M166.5,232.6c0,3.1-2.3,5.8-5.1,5.8s-5.1-2.7-5.1-5.8c0-3.1,2.2-5.8,5.1-5.8S166.5,229.5,166.5,232.6z"/>
	<path class="st1" d="M161.4,238.4c-3.5,0-6.4-2.6-6.4-5.9c0-3.3,2.9-6.1,6.5-5.8"/>
	<path class="st1" d="M145.3,142.7c-1.1-0.6-5.1,0.4-6.1,3.9c-1,3.4,0.3,6.5,1.3,6.9c1,0.4,5.3-0.1,6.5-3.4S147.9,144.1,145.3,142.7
		z"/>
	<path class="st1" d="M144.8,142.5c1.2,0.6,2,5,0.7,7.1c-1.3,2.1-4.1,4.2-5.7,3.2c0,0,4,12.9,4.6,14.3c0.6,1.4,2.7,0.7,2.7,0.7"/>
	<line class="st1" x1="150.3" y1="161.7" x2="147.7" y2="148.1"/>
	<line class="st1" x1="146.7" y1="150.8" x2="149" y2="162.7"/>
	<path class="st1" d="M200.3,165c0.1-1.9-0.4-4.3-2-5.4l6.9-0.2c0,0,1.8,1,1.8,5.4"/>
	<path class="st1" d="M192,165.3c0,0,15.3-0.6,16.7-0.6c2.4,0,2.7,5.3,0.5,5.3c0,0-15.7,0.9-17.2,0.9c-1.5,0-2.4-1.9-2.4-3
		C189.6,166.9,190.2,165.3,192,165.3z"/>
	<path class="st1" d="M209.1,164.8c-1.8,0-2.8,4.7,0,5.3"/>
	<path class="st1" d="M199.9,165c-2.7,0.1-2.7,5.7-0.1,5.6"/>
	<path class="st1" d="M198.2,170.7c-3.5,0.2-2.6-5.5-1-5.6"/>
	<path class="st1" d="M194.1,170.9c-3,0.1-3.9-5.5-1-5.6"/>
	<path class="st1" d="M200.1,162.9c0,0-3.9,0.3-4.2,0.2c-0.3-0.1-0.5,1.2-0.5,1.2l4.8-0.2"/>
	<path class="st1" d="M192.7,165.3c0-0.8-5.6-3.9-9.5-4.5c-3.8-0.6-10.4-0.4-15.1,0c-4.7,0.4-10.7,1.1-10.7,1.1l-0.8-0.7l-6.7,0.5
		c0,0-3.3,2.7-2.7,7.7c0.6,5,4.1,7.5,4.5,7.7c0.9,0,5.2-0.2,5.2-0.2l0.8-1.2c0,0,18.2-0.2,20.7-0.2c2.4,0,11.7-1.8,15-4.6"/>
	<path class="st1" d="M147.1,169.3c-1.9,0.2-3.3,1.7-3.1,4c0.2,2.3,1.6,3.2,1.6,3.2"/>
	<path class="st1" d="M149.9,175.6c-1.1,0.1-4.8,0.2-5.1,1.1c-0.3,0.9-0.7,3.2,2.4,3.2c3,0.1,3.7,0,3.7,0l6.4,4.1l2.6-0.4l3.2,2
		l-0.9,2.9l7.3,3.8l10.4-0.4l2.2-1.8l0.9-2.8"/>
	<line class="st1" x1="182.1" y1="190.1" x2="173.5" y2="184.3"/>
	<line class="st1" x1="179.9" y1="191.8" x2="169.1" y2="185.6"/>
	<polyline class="st1" points="163.1,185.6 172.9,185.8 174.4,182.5 171.8,179.5 159.5,179.5 157.2,184 	"/>
	<polyline class="st1" points="159.9,183.6 160.1,182.6 169.8,182.6 172.9,185.8 	"/>
	<line class="st1" x1="169.8" y1="182.6" x2="171.8" y2="179.5"/>
	<path class="st1" d="M156.6,161.3c-2.8,2-3.7,4.9-3.5,8.2c0.2,3.3,2.6,6.8,3.8,7.5"/>
	<path class="st1" d="M157.7,175.8c-1.2-1.2-3.3-3.3-3.3-7c0-3.6,3-6.9,3-6.9"/>
	<path class="st1" d="M172,175.7c-1.4,0-3.4-4.6-3.3-8.2c0.1-3.6,1.8-6.8,3.1-6.9"/>
	<path class="st1" d="M173.5,160.4c-1.8,0.1-3.8,4-3.7,7.4s1.7,7.4,3.1,7.8"/>
	<polyline class="st1" points="172.9,180.8 197,179.8 198.2,178.8 198.7,173.9 197,172.4 192.7,171.5 	"/>
	<path class="st1" d="M178.7,187.8l11.3-0.6c10.9-0.8,17.5-3.5,18-5.5c-0.9-0.1-1.6-1.2-1.6-2.9c0-1.4,1-2.2,1.6-2.4
		c-1.3-4.5-9-4.1-10.9-4"/>
	<path class="st1" d="M190,187.2c-1.7,0.1-3.3-4.2-2.9-7"/>
	<path class="st1" d="M188.5,187.3c-1.3,0.1-3-3.4-2.7-7.1"/>
	<path class="st1" d="M208,176.4c0.3,0,6.7,0,6.7,0l0.5-0.4c0,0,9.7,0.2,10.5,0.2c2.8-0.1,3.2,6.1,0.3,6c-2.9-0.1-11.2,0.1-11.2,0.1
		l-1.1-0.8l-5.8,0.1"/>
	<path class="st1" d="M225.9,176.3c-2.3,0-3.4,6.1-0.3,6"/>
	<path class="st1" d="M214.6,176.4c-1.7,0-2.5,4-0.9,5.1"/>
	<path class="st1" d="M209.2,176.4c-2.1,0.1-1.9,5.3-0.3,5.3"/>
	<path class="st1" d="M210.6,168.7c0,0,18.9-0.1,20.5-0.2c2.8-0.1,3.3,5.1,0.8,5.3c-2.5,0.2-25.3,0.4-25.3,0.4"/>
	<polyline class="st1" points="213.3,168.7 214,165.1 230.8,165.1 231.1,168.5 	"/>
	<path class="st1" d="M211.6,168.7l1.8-5.6h19.2l0.3,6.2h1.1l-0.2-6.9c0,0,2.6,0,3.5,0c0.9,0,1.2,1.9,0.4,1.9c-0.8,0-2.7,0-2.7,0
		l0.2,6.4l-0.4,0.8h-1.2"/>
	<path class="st1" d="M229.5,168.6c2.3,0,2.5,5.3,0.5,5.4"/>
	<path class="st1" d="M216.5,168.7c2.3,0,2.5,5.3,0.5,5.4"/>
	<path class="st1" d="M214.6,168.7c2.3,0,2.5,5.3,0.5,5.4"/>
	<path class="st1" d="M212.3,168.8c2.3,0,2.5,5.3,0.5,5.4"/>
	<path class="st1" d="M210.5,168.8c2.3,0,2.5,5.3,0.5,5.4"/>
	<polyline class="st1" points="220,176.1 220.6,175.3 230,175.3 230.8,181.3 227.5,181.3 	"/>
	<polyline class="st1" points="218,182.4 216.9,184.5 214.2,184.5 212.9,181.7 	"/>
	<path class="st1" d="M211.6,181.7c0,0,3.9,7.1,4.4,11.7c0.4,0.8,12,2.1,20.6,1.8c8.6-0.4,15.6-2.4,15.6-2.4s0.7-10.1-9.4-18.8"/>
	<path class="st1" d="M209.5,181.7c1.9,1.9,4.2,6.3,4.8,13.5c5.2,1.8,17.6,2.2,20,1.8c0.9,8.9,0.1,25.2-12.4,34"/>
	<path class="st1" d="M231.5,230.2c8.6-6.9,11.3-21,9.4-33.8c2.7-0.2,10.4-2.1,13-3c-0.4-5.2-2-13.2-9.6-19.5"/>
	<path class="st1" d="M223.7,231c5.4-3.8,12.8-12.5,11.9-32.9c0,0,3.7-0.2,4.4-0.3c2,20.5-6.5,28.8-10.4,32.9"/>
	<path class="st1" d="M245.2,173.9c2,1.7,10.2,9,10.8,23.4c0.6,14.4-12.7,32.9-29.7,33.7s-28.4-8.4-33.6-20.4"/>
	<line class="st1" x1="215.8" y1="192.6" x2="251.9" y2="192.2"/>
	<line class="st1" x1="215.6" y1="191.5" x2="251.9" y2="190.9"/>
	<path class="st1" d="M218,191.5c-0.2-1.4-0.9-3.5-1.5-4.2c0.7-0.8,2.6-0.8,2.6-0.8s1.4-3.7,2.9-4.2"/>
	<path class="st1" d="M239.8,173.5c0.2,0.2,0.2,8.1,0.2,8.1"/>
	<path class="st1" d="M234.5,179.5l1.9-0.4c0,0,5.2,2.5,6.3,5.4c1.3-1.1,4.5-1.6,5.1-1.4c1.1,1.5,1.2,5.8,0.6,7.9"/>
	<path class="st1" d="M245.7,190.9c0.4-1.1,0.5-4.3,0.3-5c-1.4,0-3.4,0.8-3.9,1.8c0-1.6-3.8-6.7-7.3-7.7"/>
	<line class="st1" x1="233.3" y1="172.7" x2="235.1" y2="182.7"/>
	<line class="st1" x1="234" y1="183" x2="232.3" y2="173.9"/>
	<path class="st1" d="M222.9,191.4c-0.1-1.3-1.8-4.4-2.5-4.7c1.8-0.1,16.3-0.1,17.2-0.1s2.5,2.1,2.5,4.5"/>
	<path class="st1" d="M222.8,186.6c-0.6-0.5-0.8-2.6,0.2-3c1-0.4,2.2-0.1,2.5,0.6l2.8,0l0.2-0.7h2.3l0.6,0.7l2.1,0
		c0,0,0-1.4,1.4-1.5c1.4,0,2.1,0.1,2.3,3.9"/>
	<path class="st1" d="M233.9,186.6c0.1-0.5,0.6-2-0.4-2.5"/>
	<path class="st1" d="M231.4,184.1c0.3,0.6,0.5,1.9,0.1,2.4"/>
	<path class="st1" d="M228.3,184.1c0.6,0,0.7,1.5,0.5,2.4"/>
	<path class="st1" d="M225.6,184.2c0.3,0.2,0.9,1.6,0.2,2.4"/>
	<path class="st1" d="M223.1,183.6c0.7-0.3,1.8,1.5,0.8,3"/>
	<path class="st1" d="M217,176.1c-3,0-3,6.3-0.3,6.3"/>
	<path class="st1" d="M202.7,210.9l0.9,2.5h8c0,0-3.1-14.8-2.4-24.7l-1.5-0.6l-7.8,1.5l-0.1,0.2"/>
	<path class="st1" d="M207.4,191.4c-1.4,0-4.2-0.3-4.8,1.3c0-1.2,0.2-2.9-0.9-2.9c-1.1,0.1-4.5,0.3-4.5,0.3l-1,1.3l-0.3,1.1"/>
	<path class="st1" d="M207.4,191.8c-1.5,0-4.4,1.4-4.1,3.6c1.2,0.3,1.7,3.2,1.6,6.2c-0.1,3-1.3,6.9-3.3,6.9c-1.2,0-1.8-1.2-1.8-1.2"
		/>
	<path class="st1" d="M203,212l6.2-0.5c-3.4-10.2-1.5-21.4-1.5-21.4l-5.1,0.5"/>
	<path class="st1" d="M208.4,211.5c-0.9,0-3.6-1.5-5.1-4.1"/>
	<path class="st1" d="M201.3,208.5c0,0.9,1.4,2.9,2.9,3.4"/>
	<path class="st1" d="M200.5,193.7c-0.3-2,0.6-3.9,1.5-3.9"/>
	<path class="st1" d="M197.5,190.1c-0.7,0-0.9,2.1-0.9,2.9"/>
	<path class="st1" d="M197.3,194c0.7,0,3.1-0.4,3.8-0.2c0.7,0.2,2.9,2,2.8,6.4c-0.1,4.4-1.6,7.3-2.9,7.4c-1.3,0.1-4.3-1.4-4.2-6.9
		c0-1.8,1.1-6.7,3.5-6.9"/>
	<path class="st1" d="M201.4,193.9c-0.9-0.2-4.1,1.9-3.8,7s2.2,6.3,2.4,6.5"/>
	<path class="st1" d="M199.8,207.3c-1.1-0.1-2.5,0.2-2.5,0.2"/>
	<path class="st1" d="M165.9,229.9c0.6,0,0.8-0.4,0.8-0.4s8.7-10.2,16.6-14.2s13.4-6.9,13.7-7.1s0.2-0.7,0.2-0.7s-2.3-1.7-2.2-6.8
		s1.1-6.3,2-6.5c0.9-0.1-0.9-1.7-0.9-1.7s-1.7-1.2-5.9-1.2c-4.2,0.1-13.2,4-18.7,9c-5.1,4.7-12.2,11.6-14.9,22.3l2.5,1.9
		c0,0,2.5-0.3,4.5,1.2C165.8,227.4,165.9,229.9,165.9,229.9z"/>
	<path class="st1" d="M159.2,224.7c0.5-2.5,5.7-14,13.7-21.5c8-7.5,19.5-11.3,22.5-10.9"/>
	<path class="st1" d="M162.5,222.3c-0.2-0.8,4.3-11.2,12.1-17.6c7.8-6.3,14.9-9.5,15.9-9.2c1,0.3,3.7,6.9,1.9,12.9
		c-1.8,1-10.9,5.8-13.9,8.3c-3,2.5-11.1,9.5-11.4,10.1C165.7,226.5,163.3,225.1,162.5,222.3z"/>
	<path class="st1" d="M164.1,221.9c-0.6-1.7,5.4-10.6,11.4-15.6c5.9-5,12-8.6,13-8.6c1,0,2.4,3.6,2.4,5.5c0,2-0.4,3.8-0.9,4.3
		c-0.5,0.5-8.5,4.9-12.1,7.5c-3.6,2.6-10.2,9.2-10.6,9.6C166.7,225.1,164.6,223.4,164.1,221.9z"/>
	<path class="st1" d="M156.7,222.7c-1.9,0-5.8,3.8-6.6,9.9s1,14.1,1,14.1l4.3,0.9l4.3-0.8l0.2-2.1l5.1-2c-0.1-1.7,0.6-6.6,0.6-6.6"
		/>
	<path class="st1" d="M155.4,247.6c-0.4-4.5-5-19.2,3.8-22.9"/>
	<path class="st1" d="M149.8,236.1c-0.7-0.6-2.2-3.2-1.8-5.2c0.3-2,2.1-4,4.1-4.2c-2.7,0-4.7,2-4.9,4.7c-0.2,2.8,1.3,5.7,2.7,6.3"/>
	<polyline class="st1" points="163.4,243.3 163.8,245.4 161.1,245.2 160.7,246.1 161,247.8 	"/>
	<polyline class="st1" points="152.1,246.9 151.4,247.6 151.4,248.8 156,249.3 162.2,247.4 163.8,246.3 163.5,245.5 	"/>
	<path class="st1" d="M163.5,246.5l1.3,0.3l0.6,3.3l-4,7.6c0,0,0.3,7.4,0.4,10.4s1.9,8.8,1.9,8.8l1.4,0.6l2.1,8.5l-0.8,0.7l-5.9-1.9
		c0,0-4.4-9.1-5.7-13.3s-2.7-9-2.6-9.7c0.1-0.7,0.8-1.4,0.8-1.4l-1.5-0.2c0,0-1.7-2.9-1.8-5.5c-0.1-2.6,0-4.5,0-4.5l1.6-1.2"/>
	<polyline class="st1" points="149.8,250.1 155.8,251.3 164.8,246.8 	"/>
	<polyline class="st1" points="155.8,251.3 156.5,261 153.2,260.3 	"/>
	<path class="st1" d="M156.5,261l-1.2,1.5c0,0,1.6,12,7.2,21.8c0.9,1,4.1,2.3,4.1,2.3"/>
	<path class="st1" d="M187.1,192c-0.4-1.4,0.8-4.4,1-4.8"/>
	<path class="st1" d="M184.6,192.6c0.2-1.4,2.7-4.1,3-4.5"/>
	<path class="st1" d="M179.9,194.8c0.2-1.3,0.9-3.5,0.9-3.5"/>
	<line class="st1" x1="180.4" y1="189" x2="180.8" y2="187.8"/>
	<path class="st1" d="M183,215.4c2-0.1,5,0.4,5.8,0.6c0.8,0.2,2.8-2.5,1.5-4.2"/>
	<path class="st1" d="M187.1,215.7c-0.9,0.6-0.8,1.3-0.6,1.8c0.6,0.2,0.8,2.9-0.4,4.2c0,0-7.3,0-8.1,0s-0.7-2.5-0.7-2.5"/>
	<line class="st1" x1="186.5" y1="217.5" x2="179.8" y2="217.4"/>
	<path class="st1" d="M183.7,221.7c0.7-0.5,1.1-3.4,0.4-4.2"/>
	<line class="st1" x1="180.5" y1="221.7" x2="180.2" y2="223.8"/>
	<line class="st1" x1="185" y1="221.7" x2="184.5" y2="223.8"/>
	<path class="st1" d="M185.8,225.1l-0.4-1.3h-6.2l-0.6,1.3l-1.2,0.2l-0.1,0.9c0,0,0.3,18.3,3.4,23.4c0.6,0.8,1.1,0.7,1.1,0.7
		l0.5,1.8l-0.2,0.5l0.3,1h0.4c0,0-0.6,2.3,0.7,3.8c0.4,0,2.1,0,2.1,0l0.3-1.1v-2.9l-0.7-0.5l0.2-0.9l0.1-2.4L185,249
		c0,0-1.1-9.4-0.5-15.2c1.3-0.2,1.3-1.5,1.5-2.9c0.2-1.4,0.8-1.2,0.9-2.1c0.1-0.9,0.3-2.7-0.2-3.3S185.8,225.1,185.8,225.1z"/>
	<path class="st1" d="M178.7,225.1c0,0,4.2,0.7,7.1,0"/>
	<path class="st1" d="M186.7,225.6c-2.4,1.2-7.4,1.1-9.2-0.3"/>
	<path class="st1" d="M182.4,252.1c1.1,0.2,2.8,0.1,3.2-0.2"/>
	<path class="st1" d="M183,253.6c0.8,0.1,2.6,0.1,3.2-0.2"/>
	<path class="st1" d="M185.7,249.5c-0.9,0.2-2.2,0.2-2.5-3c-0.3-3.3-0.2-12.2-0.2-12.2l1.5-0.4"/>
	<path class="st1" d="M181.8,250.4l0.3-0.6c0,0-3-9-2.9-21.5c-0.6-1-1-1.9-1-1.9l-0.9-0.1"/>
	<path class="st1" d="M255.6,193.1c1.5,0.6,2.7,5.4,2.5,8.4c-0.2,3-2,6.3-3.9,6.6"/>
	<path class="st1" d="M253.1,210.8c0.1-0.2,9-0.7,9-0.7l3.3-0.7l3.7-4.6"/>
	<path class="st1" d="M255.3,191.5l5.8-2.5l2.7-0.9l2.3,1.7c0,0-3.4,1.6-2.9,8.3c0.4,5,3.4,6.8,3.4,6.8l-4.5,5.3"/>
	<line class="st1" x1="265.9" y1="204.4" x2="267.3" y2="203.7"/>
	<polyline class="st1" points="260.6,189.1 264.4,191.4 266.2,191.4 	"/>
	<path class="st1" d="M280.8,192.4c0,0,3-2.9,3-2.9v-3.2h1.8c0,0,9.6,2.4,11.3,3.6s2.4,3.7,2.4,3.7s9.5,2.7,18.6,7.2
		s21.7,14.4,21.9,14.8c0.1,0.4,0,1.4,0,1.4l-1.5,1c0,0-4.2-0.3-6.1,1.2c-1.9,1.5-3.5,3.2-3.7,3.9c-15.5-7.7-32.5-11.9-49.5-12
		l-2.6-4.3c0,0,5.8-1.7,6.7-6.3c0.9-4.6,0.2-6.8-0.5-7.5l-0.9,0.7"/>
	<line class="st1" x1="276.6" y1="206.8" x2="276" y2="205.4"/>
	<polyline class="st1" points="283.7,189.5 286.1,190.3 286.2,187.9 285.5,186.3 	"/>
	<line class="st1" x1="299.2" y1="193.7" x2="286.1" y2="190.3"/>
	<path class="st1" d="M282.3,193.1c0.1-0.1,1.4-1.4,1.4-1.4s16.8,2.6,29.1,8.6s23.2,13.3,25.3,17.8"/>
	<path class="st1" d="M332.9,215.2c-9.6-9.2-26.8-17.8-40-19.8c-4.9,0-6.3,3.3-6.8,5s-0.4,6.1,2.7,7.1s13.9,3.2,19.1,4.6
		c5.2,1.4,17.5,7.9,18.6,8.4C327.3,219.2,330.3,215.6,332.9,215.2z"/>
	<path class="st1" d="M326.1,218.7c0.7-1.3,3.7-3.6,4.8-4c0,0-9.4-8.1-18.2-11.7c-8.8-3.5-16.2-5.6-19.3-6c-3.1-0.5-5.3,2.1-5.3,4.2
		c-0.1,2.1,0.8,4.6,2.7,4.9s11.9,2.8,17.2,4.2C313.2,211.8,323.4,216.9,326.1,218.7z"/>
	<path class="st1" d="M340.5,232.2c3.1-1.9,4.9-3.9,5.2-5c0.8-3.1-0.1-8.9-6.5-9.8"/>
	<polyline class="st1" points="331.1,230.1 329.4,230.4 328.9,234.7 329.3,235.4 329.2,236.8 332.8,237.1 333.1,237.6 339.7,238.3 
		340.3,237.9 344,238.3 343.7,237.1 343.1,236.7 344,235.2 344,231.7 342.7,230.7 	"/>
	<path class="st1" d="M329.4,230.4c2.1,2.6,4.9,3.6,7.1,3.8c2.2,0.1,6-0.8,7.5-2.4"/>
	<polyline class="st1" points="329.3,235.4 332.8,235.6 333.6,234.4 339.7,235 340.1,236.6 343.1,236.7 	"/>
	<path class="st1" d="M340.1,238.3v1c0,0,4.2,0.4,4.3,0.5s0.7,1.4,0.7,1.4s-4.9,21.3-12.4,29.3c-5.2,5.1-6.2,5-8.9,4.7
		c0.2-1.6,2.8-10.2,2.8-10.2l0.8,0c0,0,2.4-8,2.4-16.6c0,0-1.6-1.1-1.5-1.2c0.1-0.2-0.4-7.1-0.4-7.1l1-1.5l1.2-0.6l9.4,1.2l-0.1-0.8
		"/>
	<path class="st1" d="M328.9,238.5l0.7,0.8c0,0,13.8,1.9,15.5,1.9"/>
	<path class="st1" d="M343.6,241.1c-0.4,6.9-9,27.2-13.3,31.7"/>
	<path class="st1" d="M327.5,265c0.8,0.1,0.9,0,1.4,0c1-1.4,3.8-13.2,3.7-16.4c-0.7,0-2.8-0.2-2.8-0.2"/>
</g>
</svg>
