
<svg id="bp-821" viewBox="0 0 527 318">
	<style type="text/css">
		.st0{fill:#eee6;stroke:#999;stroke-miterlimit:10;}
		.st1{fill:none;stroke:#999a;stroke-miterlimit:10;}
		.st2{fill:#999a;}
</style>
<g>
	<path class="st0" d="M352.8,190.8l-7.3-4.6l-3.5,0.6l-4.4-2.9l-0.9-1.4c0.1-0.1,0.2-0.2,0.3-0.4c0.2-0.8-0.7-2.1-1.6-3.1
		l-17.8-22.3l-0.1-2.1l-3.6-3.3h-0.8l2.7-3.1l0.8-8l-1.6-3.2l-4.2-4.7l0.8-3.9l0-0.1c-2-7.5-2.2-7.7-2.2-7.8
		c-0.1-0.1-0.2-0.2-7.3-6.6c-0.4-0.3-1.5-0.5-2.5-0.5l-0.4-1.7l2.6-4.2c0.6-0.4,6-3.4,9.5-5.4l0.2-0.1l0.9-4.6l2.8-2.1V90l-4.4-12.3
		l-2-1.6h-1.9v-4.2l-13.5-10.9l-2.6,0.6l-0.6,2.2l-0.4,0.1l-0.7-2l-7-5.5l-4.4-0.8l0.4-1.4l0.1-9.2c1.2-0.6,3.8-1.8,4.4-2
		c0.6-0.2,1.3-0.9,1.5-1.9c0.1-0.6,0.1-1.7-1.2-2.8c-0.5-3.6-3.8-7.6-9.9-8c-6.2-0.4-9.9,4.2-10.6,6.9c-1.1,0.6-1.7,2.8-1.3,4.3
		c0.4,1.5,3.7,2.6,5,3v8.2l0.9,2.1l-29,0.6l-0.1,0l-0.2,0l0,0.1l-5,0.8c-0.4-1.2-1.6-4.2-2.9-5.6c1-1.4,1.9-4.7,2.1-5.5l0-0.2
		l-0.9-1.8l-0.1-0.2c0,0-0.7-0.6-1.7-0.7c-2.9-2.6-10.9-1.4-14.2,0.8c-3.4,2.3-5.9,7.3-5,10l-0.5,2.1l3.2,2h4.9v4.3l-9.2,3.6
		l-7.5,7.1l0,0.1c-0.4,1.9-2.5,11.4-2.3,12.5c0.2,1,3.3,5.5,4.4,7.1l-1.1,0.9l-0.2,1.1l-6.6,6.2l-0.8,3.1l0.7,6.6l2.2,4.5l11.3,7.6
		l-5.8,4.5l-2.4,5.7l-6.8,9.2l-0.6,3.7c-1.2,0.6-6.5,3.8-8.5,7.7c-0.3,0.6-0.6,1.4-0.9,2.3l0,0c0,0,0,0,0,0.1
		c-1.4,5-1.5,13.5,1.5,17.4c-2.8,1.8-3.4,5.3-3.4,5.4l-3.3,12l0,0c0,0,0,0,0,0l-1.2,4.2l0.7,1.9l-1.6-0.3l-0.2,0.1
		c-0.1,0.1-3.5,2.4-3.4,8.1c0.1,5,1.6,8,3.2,8.5c0.8,2.1,2.1,3.3,2.6,3.7c0,3.4,6.2,21.2,8.2,26.9l1.7,2.3l-0.9,0.7
		c0,0-0.7,0.7-0.9,1.7l-3.4,3l-0.9,6.2l2.1,2.3v3.5l-1.5,5.1l-2.1,1.5l-1.5,3.9l2.8,3.6h4.2l6.8-5.6l0.9-3.1l-1.5-5.8l1.7-1.3l2,3.6
		v4l1.5,3.6h3.7l3-3.9l-0.9-5.7l-5.8-7.7v-1.7l0.5-0.2l1.8,2.6h3.2l1.1-4.4l-2.4-3.7h-3.3c-0.3-1.1-1-2.3-1.8-2.8
		c-0.6-0.4-1.2-0.7-1.7-0.8l1.9-2.6l0.2-2.3l-7-26.7c0.1-0.4,0.5-1.7,0.5-2.9c-0.1-1.3-1.5-3.7-2.8-4.5c0.2-0.9,0-1.8-0.3-2.5
		c0,0,0,0,0,0c1.5,0,3-1,3.1-1l0.1-0.1c1.8-2.1,17.5-20.7,18-21.8c0.4-0.9,0.3-2.1-0.1-3c2.8,0.1,5.9-0.9,7.6-2
		c0.2,2.4,1.1,3.6,2.1,4.4c-4.5,1.9-9.2,8.9-10.3,15l0,0c0,0.2-0.1,0.5-0.1,0.8c0,0.3-0.1,0.7-0.1,1c0,0.2,0,0.4,0,0.6
		c0,0,0,0,0,0.1c0,0,0,0,0,0c0,0.5,0,1.1,0,1.7c0,6.7,0.4,15.4,0.9,17.9c0.6,2.8,3,10.2,7.3,13.1c-2.7,3.2-4,8.1-4.1,8.3l0,0.1
		l0.5,5.8l1.6,1l-0.9,13.3c-0.7,0-1.8,0.1-2.8,0.9c-1.5,1.1-4,7.6-2.5,11.6c1.4,3.7,6.9,7,9.8,6.7c2.2-0.3,3.2-1.7,3.6-2.3l1.9-0.1
		l1.4,2.4l25.9-0.6l0.4-0.5c0.8,1.2,2.9,2,5.5,2.1c0.2,0,0.3,0,0.5,0c2.2,0,3.9-0.3,4.7-0.4c0.4,0.6,0.9,1.2,1.3,1.8
		c0.3,0.4,0.6,0.8,0.8,1c0.4,0.7,1.5,1.3,2.4,1.3c0.1,0,0.1,0,0.2,0c0.1,0.3,0.3,0.6,0.6,0.9c0.9,0.8,2.4,1.2,4.3,1.2
		c0.2,0,0.4,0,0.7,0c5.3-0.3,7.6-0.6,8.3-1.3c0.5-0.4,1.4-1.9,1.1-3.3c-0.1-0.8-0.7-1.8-2.4-2.5c-2.4-1-5.3-1-6.9-1
		c0.3-1.2-1.5-3.2-2.4-4.1c-0.5-0.5-1.1-0.8-1.8-1l0.5-3.2l3.5-3.1c0.7,0.5,2.1,1.6,3.3,1.9c1.6,0.4,4.8-0.3,6.1-1.6
		c0.7-0.7,1.1-1.9,1-3.3c0-1.6-0.6-3-1.5-3.8c-1.4-1.3-5.1-1.3-8.1-1.3c-1,0-1.8,0-2.4-0.1c-2.2-0.3-5.2,2.9-7.5,5.2l0,0
		c-1.2-0.3-2.7-0.5-4.5-0.4c-2.4,0.2-4.8,2.3-6.3,4.6l-1.8-1.1l-23.7-1.5l-1.2,0.8l-1.5-0.6l-0.1-1.8l2.9-2.5l0-0.1
		c1.2-3.5,4.6-13,5.4-14.2c0.7-1,2.1-2.5,2.7-3.2c1.8,1.9,10.4,10,19.8,9.6c11.8-0.5,23.2-9.7,25.1-11.6c3.2-0.2,7.4-3.7,9.2-5.5
		c1.2-1.3,5-5.3,5.3-7.2c0.9-0.8,2.9-2.8,4.6-6.1c1.7-3.4,2.6-18.7,2.7-21.5l10-2l5.3,24l0.4-0.3c-0.1,0.7-0.6,1.5-1,2.3
		c-0.4,0.7-0.8,1.4-0.9,2.1c-0.1,0.4-0.1,0.7-0.1,1c0,0.2,0,0.5-0.1,0.6c0,0-0.1,0.1-0.7,0.1c-0.3,0-0.7,0.1-1.1,0.5
		c-1.4,1.5-2,6.7-1.6,9.1c0.4,2.9,2.1,6.2,4.1,6.4c0.3,0,0.5,0,0.8,0c0.7,0,1.1-0.1,1.5-0.3c0.1-0.1,0.2-0.1,0.4-0.1
		c0.4-0.1,1-0.3,0.4-9.6l2,0.5l5.1-5.9l-0.5,5.1l2.7,4.8l4.6,0.8l1.5-2.2l0-0.2c0-0.1-0.2-11.3,0-13.6c0.1-1-0.4-2-1.4-3.1
		c-1.6-1.7-4-2.8-5.8-2.8c-1.5,0.1-2.4,0.2-2.9,0.2v-1l0,0l0-0.2v-0.7l-0.1,0l-2.2-21.4l0.7-2.7l-0.1-0.2c-2.3-4.5-2.7-4.7-2.8-4.8
		c-0.4-0.2-3.8-1.8-4.1-2l-0.3-0.1l-2.1,1.4l-0.8,2h-0.8l-0.2-0.7l-0.1-0.2c-1.1-1.3-11.3-3.3-14.4-2.7c-1.4-2.2-6.7-7.8-8.7-7.8
		c-1.2,0-2.1-0.5-2.4-0.8v-0.7h1.5l2.5-6.2l-0.4-5.1l-1.2-2.5l2.3,1.6h5.6l9.3-4.6v1.9l0.1,0.1c3.7,4.3,22.4,25.6,23.6,26.2
		c0.2,0.1,0.3,0.1,0.5,0.2l0.6,1.8l2.1,2.2l-0.6,0.9c-0.6,0.1-1.9,0.4-2.8,1.5c-0.9,1.1-1.2,2.6-0.8,4.6c0.8,4.5,2.4,6.5,4.9,6.1
		c0.9-0.1,1.7-1,2-2.1c0.3-1.2,0-2.4-0.9-3.1c-0.8-0.6-0.8-1.5-0.5-2c0.1-0.2,0.3-0.4,0.4-0.3c0.6,0.2,2.4,3.2,3.7,5.9l0.1,0.2
		l0.8,0.1l-1.7,2.3l-0.9,3.1l2.9,2.9l4.5-1.2l3-7.4l-1.1-2.6v-1.5l-3-2.4l1.8-0.7l2.8,1l0.7,5.2l0.1,0.2c2.1,3.3,2.4,3.4,2.6,3.4
		c0.2,0,0.5,0.1,0.8,0.1c0.5,0,1,0,1.3,0l0.2,0l2-2.6L352.8,190.8z"/>
</g>
<g>
	<path class="st1" d="M306.2,78.6l-0.6-1.4l0.6-1.1V72l-13.1-10.6l-2.1,0.5l-0.6,2.2l-1.1,0.2l-0.8-2.2l-6.7-5.3l-4.8-0.9l0.5-1.9
		l0.1-9.4c0,0,3.9-1.9,4.7-2.2c0.8-0.2,2.2-2.2,0-3.9c-0.4-3.5-3.5-7.4-9.5-7.8c-6-0.4-9.6,4.3-10.1,6.7c-0.9,0.2-1.6,2.3-1.2,3.8
		c0.4,1.5,5.1,2.8,5.1,2.8v8.6l1.2,2.6L238,55.9l-5.7,0.9c0,0-1.7-5-3.3-6.1c1.1-0.9,2.3-5.6,2.3-5.6l-0.8-1.7c0,0-0.6-0.6-1.6-0.6
		c-2.6-2.6-10.4-1.4-13.7,0.7c-3.3,2.2-5.7,7.1-4.7,9.6l-0.4,1.9l2.8,1.7h5.2v5.1l-9.5,3.7l-7.2,6.8c0,0-2.5,11.2-2.3,12.3
		s4.6,7.3,4.6,7.3l-1.3,1.1l-0.2,1.1l-6.6,6.2l-0.7,2.9l0.6,6.5l2.1,4.3l11.8,7.9l-6.3,4.8l-2.3,5.6l-6.7,9.1l-0.6,3.9
		c0,0-6.3,3.4-8.5,7.6c-2.2,4.3-2.8,15.8,1,19.7c-3.1,1.5-3.7,5.4-3.7,5.4l-4.4,16l0.9,2.6l-2.2-0.4c0,0-3.3,2.2-3.2,7.7
		c0.1,5.5,1.9,8,3,8.1c0.9,2.7,2.7,3.9,2.7,3.9c-0.7,1.8,8.1,27,8.1,27l1.7,2.2h5.1l2.9-4l0.2-2.1l-7-26.7c0,0,0.6-1.5,0.5-2.8
		c-0.1-1.3-1.8-4-3-4.3c0.6-1.2-0.3-3-0.5-3.5c1.5,0.6,3.6-0.8,3.6-0.8s17.4-20.6,18-21.7c0.6-1.1-0.2-3-0.5-3.3
		c3.5,0.4,8-1.2,8.9-2.5c-0.1,3.5,1.3,4.7,2.7,5.7c-4.9,1.2-11.1,10.2-11.2,17.3c-0.1,7.1,0.3,16.9,0.9,19.5
		c0.6,2.6,3.1,10.6,7.5,13.1c-2.9,3.1-4.3,8.6-4.3,8.6l0.5,5.5l1.7,1.1l-1,14.1c0,0-1.6-0.3-3,0.7c-1.4,1-3.7,7.4-2.3,11
		c1.4,3.6,6.7,6.7,9.3,6.3s3.3-2.3,3.3-2.3l2.5-0.1l1.4,2.4l25.4-0.6l1.6-2.1c0,0-1.7-1.5-1.7-4.1s1.2-3.9,1.2-3.9l-1.5-0.9
		l-23.4-1.4l-1.3,0.9l-2-0.9l-0.1-2.3l3-2.6c0,0,4.5-12.8,5.5-14.3c1-1.5,3.1-3.6,3.1-3.6c2.2,2.4,10.8,10.2,19.8,9.9
		c12-0.5,23.6-10.2,24.9-11.6c2.9,0,7-3.2,9.1-5.4c2.1-2.2,5.3-5.9,5.2-7.1"/>
	<path class="st1" d="M306.2,76.5h2.2l1.8,1.4l4.3,12v4.9l-2.7,2.1l-10,6v3.4l-3.2,5.2c0,0,0.5,2.3,0.5,2.3s2.1,0,2.5,0.4
		c3,2.6,7.1,6.3,7.2,6.5c0.2,0.2,2.2,7.6,2.2,7.6l-0.8,4l4.3,4.8l1.5,3l-0.7,7.7l-6.2,7.1l-13.4,6.6h-5.3l-3.7-2.6l1.9,4l0.4,5
		l-2.3,5.8h-1.7v1.4c0,0,1,1,2.9,1s7.5,5.9,8.5,7.9c2.5-1,13.3,1.3,14.3,2.4l0.3,1h1.5l0.9-2.2l1.8-1.2c0,0,3.7,1.7,4.1,1.9
		c0.4,0.2,2.6,4.6,2.6,4.6l-0.6,2.6l2.2,22.1l-4.3,3.5l-2.2,1.4l-5.2-23.8l-10.9,2.2c0,0-0.8,18.1-2.6,21.7
		c-1.8,3.6-4.1,5.6-4.7,6.1c0,1.9-19.1,14.1-21.4,13.4c-2,2-13.3,5.4-22.6,4.2c-9.3-1.2-15.1-5-15.1-5"/>
	<path class="st1" d="M229.1,237.1c1.1-1.3,3.3-1.6,4.5-0.4c1.2,1.2,1.4,2.9,0,4c-1.4,1.1-4.3,1.8-5.1,0.9
		C227.2,239.9,227.6,238.8,229.1,237.1z"/>
	<path class="st1" d="M213,243.2c0,0,5.5-5.8,6.8-6.1c1.3-0.3,6.2,0.7,6.6,0.8c0.4-1.3,3.8-3.8,4.5-3.7c-1.3-2.3-8.3-6.4-9.3-6.5
		c-1.1,0-4.7,1.4-4.7,1.4"/>
	<path class="st1" d="M214.7,244.3c1.1-1,5-5.1,5.8-5.3s5.5,1.2,6.3,2.6c0.8,1.4-6,17.9-6,17.9l-1.3,1.2"/>
	<path class="st1" d="M213.8,258.4c0,0,3.3-0.6,3.6-0.4c0.3,0.2,3.4,4.1,3.4,4.1l0.8,4.1l-1.9,1.3l-0.1,5.7l1.4,1"/>
	<polygon class="st1" points="212,260.4 219.2,264.9 219,266 217.2,266.8 217,273.2 212,271.2 209.3,266.5 211.3,260.8 	"/>
	<path class="st1" d="M226.8,264.6l-2.5,2.2l-0.3,5.5l1.4,1.2l23.9,0.6l0.7-0.9c0,0-1.3-2.6-1-4.6c0.2-1.9,1-3.1,1-3.1L226.8,264.6z
		"/>
	<path class="st1" d="M305.7,156.7v2.6c0,0,22.3,25.5,23.5,26.1c1.2,0.6,0.6-1.9,3-3.1c2.4-1.2,4.2,0.2,4.4-0.4
		c0.2-0.6-1.5-2.7-1.5-2.7l-17.9-22.5l-0.1-2l-3.3-3H312"/>
	<path class="st1" d="M329.1,185.4c0-1.7,1.4-7.5,6.7-5.1"/>
	<path class="st1" d="M310.5,164.8c-0.6-3.8,3.3-9.5,6.6-8.1"/>
	<path class="st1" d="M308.5,162.6c-0.1-2.7,2.2-10.9,8.5-7.9"/>
	<polyline class="st1" points="301,198.7 300.3,191.6 296.5,184.2 	"/>
	<path class="st1" d="M300.4,193.1c1.8,0,10.3,0.2,10.7-0.7c0.4-0.9,0-4.8,0-4.8c1.7,1,3.5,4.7,0.8,8.9"/>
	<line class="st1" x1="318.3" y1="217.3" x2="317.1" y2="220.3"/>
	<path class="st1" d="M210.5,53.1c2.5-4,12.4-11,18.4-10.3"/>
	<path class="st1" d="M212.8,56.7c0.6-2.4,9.6-11.2,18.5-11.7"/>
	<path class="st1" d="M218.1,56.7c1-1.9,7.6-6.3,10.9-6.1"/>
	<path class="st1" d="M218.1,61.8c0,0,7.7,7.8,9.8,8.7c2.1,1,7.1,0.7,7.5-2.2s-0.3-6-1.3-7.7c-1-1.7-1.7-3.9-1.7-3.9"/>
	<path class="st1" d="M226.8,69.9c-1.5-2.3-0.2-6.8,2.5-7.2c2.7-0.3,5.7-0.2,6.2,3.6"/>
	<path class="st1" d="M267.7,55.2c-0.1,1.7,2.5,5,5.5,4.6c3-0.4,3.7-2,3.8-3.9c0-1.8-1-5.8-4-5.5S267.8,52.6,267.7,55.2z"/>
	<polyline class="st1" points="235.5,64.4 242.9,65 247.5,68 252.7,75.6 253.7,76 275.6,68.3 276.3,65.2 273.1,59.8 	"/>
	<path class="st1" d="M275.4,67.9c-0.4-0.3-4.4-7.3-4.4-7.3l-3.3-0.4l-21.5,6.9"/>
	<polyline class="st1" points="247.7,66.6 253.1,73.3 274.3,66.2 	"/>
	<polyline class="st1" points="242.9,65 266.9,57.6 271.2,60.2 	"/>
	<line class="st1" x1="266.9" y1="57.6" x2="237.6" y2="55.9"/>
	<polygon class="st1" points="203.6,92 217.4,79.6 219.7,79 226.8,82.2 226.1,103.5 220.3,108 217.8,108 203.6,98.5 	"/>
	<polyline class="st1" points="217.4,79.6 224.3,83.3 220.9,105.4 218.1,105.4 204.4,96.6 203.6,92 	"/>
	<path class="st1" d="M224.3,83.3c1.2,0,2.4-1,2.4-1"/>
	<line class="st1" x1="218.1" y1="105.4" x2="217.8" y2="108"/>
	<path class="st1" d="M220.9,105.4c0,0.4-0.5,2.6-0.5,2.6"/>
	<path class="st1" d="M209.1,92.5c0.9,0.1,1,2.4,0,2.6c-1,0.2-1.8-0.5-1.7-1.3C207.6,93,207.9,92.4,209.1,92.5z"/>
	<path class="st1" d="M215.2,87.5c1,0.2,1.3,2.4,0.5,2.8s-2.2-0.3-2.2-1.4C213.7,87.9,214.3,87.4,215.2,87.5z"/>
	<path class="st1" d="M214.9,96.5c0.9-0.4,1.7,0.2,1.6,1.1s-0.8,1.9-1.8,1.3S214.3,96.8,214.9,96.5z"/>
	<polygon class="st1" points="196.3,109.2 196.3,106 197.4,105.4 216.2,118.1 217.1,120.9 215.2,122.8 212.8,122.8 198.4,112.9 	"/>
	<polyline class="st1" points="215.3,125.1 227.4,126.2 228.5,122.8 223.5,111.7 199.7,98.4 197,99.1 	"/>
	<polyline class="st1" points="227.4,126.2 230.1,128.3 245.4,126.2 248.9,122.2 248.1,117.9 234.5,80.1 222.1,73.3 219.7,72 
		223.5,71.1 236.2,78.5 250,117.4 250.5,128.3 264.1,125.7 267.1,126.2 291.3,116.3 293.4,114 298.6,111.5 	"/>
	<polyline class="st1" points="250.5,128.3 244.8,129.6 229,131 213.6,126.6 209.3,122 215.3,125.1 219.2,123.6 220.9,120.8 
		218.7,115.4 199.7,103.1 197.5,103.7 195,105.4 	"/>
	<path class="st1" d="M301.3,107.1c0.1-0.2,9.6-5.5,9.6-5.5l0.9-4.6l-6.3-19.7l-16.3-12.8l12.5,38.6l-1.9,3.1l-11.6,3.7l-24.2,9.9
		l-2.4,2.5l-11.2,5.5"/>
	<path class="st1" d="M266.9,120.1l-3.4,3.3c0,0,3.2,0.6,3.8,0.6c0.6,0.1,23.3-9.1,23.3-9.1l3.6-4l-5.4,0.4L266.9,120.1z"/>
	<polyline class="st1" points="265.6,123.8 290.2,113.5 291.4,111.1 	"/>
	<path class="st1" d="M255.3,110.3c0.8,1.7,2,4.6,6.2,3c4.2-1.5,27-8.8,28.6-9.5s5.9-1.5,2.9-9.1s-6.7-17.1-7.2-18.7
		c-0.6-1.6-3.1-3.2-7.3-1.9c-4.2,1.3-26.2,8.7-28,9.2c-1.8,0.6-4,3-2.2,7.6C250,95.6,255.3,110.3,255.3,110.3z"/>
	<path class="st1" d="M248.3,90.9c-0.6-2.2,1.1-4,4.3-5.2c3.2-1.2,27-8.6,28.6-8.9c1.5-0.3,2.8,2.7,3.5,4.7
		c0.6,1.9,5.8,16.8,6.3,18.2c0.6,1.4,0.8,2.8,0,3.5"/>
	<path class="st1" d="M282.4,65c0.2,0.1,1.9-1,1.9-1l1,1.4l-2.6,6.3h-1.5l-0.6-1.6L282.4,65z"/>
	<polygon class="st1" points="246.8,80.6 246.8,79 242,75.1 239.7,75.7 239.7,78.3 245.3,81.1 	"/>
	<path class="st1" d="M228.5,109.4c-0.5-2.1-0.5-3.7,1.5-4.4c2-0.7,6.1-2.3,7.6-2.7c1.5-0.4,2.8,1.1,3.7,3.6
		c0.9,2.4,3,10.6,3.2,11.6s-1.3,1.6-2.3,2s-5.2,1.8-6.3,2.2c-1.1,0.5-3.5,0.6-4.5-1.9S228.5,109.4,228.5,109.4z"/>
	<path class="st1" d="M296,85.2c1.7-0.7,7.2-2.9,8.3-2.4c1.1,0.5,1.4,1.6,1.8,2.7c0.4,1,2,6.5,2.3,7.4c0.3,0.9-0.3,2.6-1.8,3.2
		c-1.5,0.6-4.1,1.8-4.9,2c-0.8,0.2-1.7-0.3-1.7-0.3"/>
	<path class="st1" d="M296.6,87.1c2-0.8,6.7-2.8,7.5-2.4s3.1,7.3,3.4,8.2c0.2,0.9-0.2,1.4-1.4,1.9c-1.2,0.5-6.3,2.4-6.3,2.4"/>
	<path class="st1" d="M230.1,108.8c-0.1-1.3,7.5-4.2,8.7-3.9s4.1,8.9,4,10c-0.1,1.1-8.1,4.7-9.1,4.2
		C232.7,118.6,230.2,110.2,230.1,108.8z"/>
	<path class="st1" d="M193.4,145.4c4.7-0.8,11.4-1.4,15.2,2.4c3.9,3.9,6.3,6,6.1,8.7c-0.2,2.7-0.5,6.2,2.4,6.8s1.8,8.8-0.2,10.2"/>
	<path class="st1" d="M208.5,166.6c1.3-2.3,4.7-3.8,5.9-2.4c1.2,1.4,2,4.8,0.4,6.6c-1.6,1.8-3.6,3.3-5.6,2.8
		C207.3,173.1,207,169.3,208.5,166.6z"/>
	<path class="st1" d="M201.6,165.1c0.5-2,4.3-7.5,6.3-8.2c0,0-1-0.8-1.3-1.3c-3.1,1.4-5.9,3.9-7,8L201.6,165.1z"/>
	<path class="st1" d="M193.4,149.7c-2.7,1.3-4.2,3.2-4.4,6.3l-1.7-1.4C187.3,154.6,188.4,150.9,193.4,149.7z"/>
	<path class="st1" d="M184,155.2c-0.8,4.3-1.6,17.8,11.4,19.9c5.2-0.3,7.5-2.6,9.2-2.6c1.8-0.1,3,2.3,5.6,1.2"/>
	<path class="st1" d="M185.8,172.7c1.4,1.8,6.7,6,12.4,5c5.7-1,7.1-1.6,9.7-1.6"/>
	<path class="st1" d="M179.6,187.1c-0.6,2.4,5.5,11.7,13.3,11"/>
	<path class="st1" d="M178.8,190c-0.4,1.6,4.8,9.5,12.8,9.7"/>
	<path class="st1" d="M176.2,212.1c1.8,0.5,5.3-1.4,4.9-6.7c-0.4-5.4-1.4-8-2.5-8.7"/>
	<path class="st1" d="M175.5,197.1c1.7-0.7,4.7,1.7,4.1,6.7c-0.6,5.1-2.2,9.3-5.3,6.2"/>
	<path class="st1" d="M190.1,213.3c-1.9-1.2-9.3,1.9-8.9,3.6c0.4,1.7,7.8,25.2,7.8,25.2l1.2,2.2l2.9-0.3l3.7-2.7"/>
	<path class="st1" d="M186.9,201.9c0,0,0.1-1.3-2.2-3.4c-2.2-2.1-4.2,2.4-3.6,5.9c0.6,3.5,3.6,3.9,5.2,2.5c0.8-0.7,1.1-1.6,1.1-1.6"
		/>
	<path class="st1" d="M208.7,194.2c-1.2,7.5,0.9,23.3,25.8,30.5c11.5,4,29.5,3.7,31.4,3"/>
	<path class="st1" d="M222.8,182.6c-3.1,2.5-7.6,7.6-3.6,17.9"/>
	<path class="st1" d="M258.2,217.3c-5.9,0.2-15.5,0.5-21.7-3.4"/>
	<path class="st1" d="M224,190.9c1.4,0.3,1.4,2.3,0.6,3.3s-3.8,2.2-3.8,0.7C220.8,193.3,221.1,190.1,224,190.9z"/>
	<path class="st1" d="M244.4,206c-0.9-1.2-3.1-0.3-3.1,1.7s0.6,4.1,2.2,3.5C245.2,210.6,245.8,207.9,244.4,206z"/>
	<path class="st1" d="M219.2,202.8c-0.7-1.5-0.7-4.2,2.7-3.5s3.2,1.7,5.4,3.5c2.8,2.3,5.5,4.1,7.2,5.5c1.4,1.2,2.8,2.8,2.8,4.7
		c0,1.2-4.6,2.3-8.9-0.8C224.1,209.1,221.4,207.5,219.2,202.8z"/>
	<path class="st1" d="M222,199.3c-1.6,0-2.5,2.4-0.3,5.1c2.6,3.2,9.3,9.3,14.9,9.5"/>
	<path class="st1" d="M237.3,190.8c0.1,1.2,4.2,3.8,8.6,4.6c5.4,0.9,15.5-1.2,17.3-3.2"/>
	<path class="st1" d="M254.3,197l5.5,17.7c0,0,2.4,0.1,3.5,1.8c1,1.6,3.3,6.2,3.3,6.2s-0.4,7.2,0.4,8.7s3.3,1.6,5.4,1.2
		c2.1-0.4,16.8-8,17.7-10.2c0.9-2.2,1.7-12,1.6-14.5c-0.1-2.5-2.9-12.3-5.1-16.3c-2.2-4-6-7.4-6-7.4c0,5.7-4.1,9.6-7.9,11.5
		c-3.9,1.9-13.5-0.4-14.3-0.6s-2,0.7-3.3,1.5c-1.3,0.7-0.5,1.7-2.9,2.2c-2.4,0.4-6.1,0.4-11.4-1.4c-5.3-1.8-7.9-6.8-7.1-8.2"/>
	<path class="st1" d="M243.8,198.2c2,0.7,7.3,1,8.4,2.6s2.6,11.4,3.7,13.4c1,2.1,2.8,3.6,3.5,4.1c0.7,0.5,6.6,7.5,7,11.3"/>
	<path class="st1" d="M266.5,228.9c5.2-0.4,22.5-7.5,24.5-12"/>
	<path class="st1" d="M266,207.1c1.2,0.7,7.1,13.4,8.1,14.5c1,1.1,3,1.6,5,0.8c2-0.8,8.5-3.9,9.3-5.5c0.7-1.6,0.5-6-1-9.8
		c-1.5-3.8-3.2-7-4-7.9c-0.9-0.9-2.9,0.7-4.5,1.3c-1.6,0.6-10.6,4.4-11.5,4.9S266,207.1,266,207.1z"/>
	<path class="st1" d="M266,207.1c0.6,2.6,7.3,16.3,7.3,16.3s-4,0.2-6.8-0.7"/>
	<path class="st1" d="M273.3,223.4c1.3,0.2,2.1,2.4,10-3"/>
	<path class="st1" d="M289.7,199.6c1.8-2,5.5-12.1-5.7-20.9"/>
	<path class="st1" d="M221.5,181.6c-1.5-1.7-1.4-3.8-0.8-3.8c0.6,0,2.2,1.3,2.2,1.3s0.1,2.2,4.4,4.1s7.3,3.5,8.2,3.5
		c0.8,0.1,0.1,2.3-1.3,2.1C232.8,188.5,223.9,184.2,221.5,181.6z"/>
	<path class="st1" d="M235.4,188.3c0.5,2,3.8,2.4,9.4,2.5c5.6,0.1,9.3-0.3,9.3-0.3"/>
	<path class="st1" d="M251.5,181.2c-1.8,1.6-1.6,3.4-1.2,5.1s2.8,5.1,9.3,5.2"/>
	<path class="st1" d="M216.9,174.7c1.3-0.9,3.1,1.1,3.4,1.8c0.3,0.7,3.4,2.3,3.4,2.3s2.3-0.1,2.5,0c0.2,0.1,10.3,6.1,10.3,6.1
		l0.8,1.4h2.9l14.2-6.6l1.4,1.5l-1.8,5.4l1.5,2.9c0,0,5.5,4.9,13.5,1.2c8-3.6,15.1-9.6,14.8-14.5c-0.2-4.9,0-10.4,0-10.4
		s-3.2-3-4.1-3.3c-0.9-0.3-16.2,8.9-17.3,9.9s-6.6,8.7-6.6,8.7"/>
	<polyline class="st1" points="259.6,176 239.7,184.2 237.2,183.6 225.2,176.8 218.6,169.9 	"/>
	<path class="st1" d="M200.6,144.4c-0.7-2.1,0.7-5.8,4.8-5c4.1,0.8,12.1,6.2,12.6,10.3c0.5,4.1,0,9.4,0.7,13.3s1.1,7.9,2.2,9.1"/>
	<polyline class="st1" points="200.8,132.4 205.7,128.6 206.7,126.7 210.3,124.9 212.2,125.1 	"/>
	<polyline class="st1" points="214.9,126.9 212.2,126.9 212.2,128 210.3,129.6 208.9,131.8 210.3,134.5 222.8,139.3 239.7,131 
		249.3,133.1 267.8,129.1 283.3,119.6 	"/>
	<path class="st1" d="M212.2,128c0.5,0.3,8.3,6.1,8.3,6.1l1.7,0.4l11.1-3.9"/>
	<path class="st1" d="M225.2,150.1c0,0,19.1-10.3,19.3-10.3s4.9,1.4,4.9,1.4l16.2,15l-0.7,2.5l1.1,2.3l-0.4,8.3l-1.8,1.4l-19.3,9.2
		l-8.7-0.4l-6.6-5.8l-4.7-21.5L225.2,150.1z"/>
	<path class="st1" d="M229.2,173.7c0.4-5.2,5.5-13.4,8.1-14.5c2.6-1,16.5-7.5,20.7-7.5c2.1,0.5,4.4,1.6,4.4,1.6"/>
	<polyline class="st1" points="244.5,139.8 258.1,151.7 264.8,158.7 	"/>
	<path class="st1" d="M247.1,178.6l-9.9-0.9l-3.9-3.2l1.2-1.3l3.8-1l4.5,1.4l1.6-0.9c0,0-0.4-3,0.2-3.2c0.6-0.1,14.9-6.8,14.9-6.8
		l2.9,1.5v1.8l2.4-0.1l1-1.6"/>
	<path class="st1" d="M242.2,173.3c0.1-0.4,1.7-5.1,1.7-5.1l-6.5-9l-12.2-9.1"/>
	<polyline class="st1" points="243.8,168.2 259.6,161.2 262.5,160.7 266,161 	"/>
	<path class="st1" d="M239.1,172.4l-0.5,1.3c0,0,2.2,2,6.1,1.4c3.9-0.6,17.5-7.5,18.1-8.4c0.6-0.9,1.3-0.9,1.3-0.9"/>
	<path class="st1" d="M269.8,167.9c-0.5-0.5-2.3-0.7-2.3-0.7l-0.8-2.4l1.1-3.7l17.1-7.6l2.9,2.3c0,0-0.9,0.3-0.7,1.2
		c0.1,1,0.3,2.4,0.3,2.4"/>
	<line class="st1" x1="278.5" y1="127.2" x2="291.5" y2="140.4"/>
	<path class="st1" d="M266,160.4l19.4-8.7l-9.7-21.8l2.3-3.6l18.7-7l4.3,2.7l9.2,10.4c0,0,0.1-0.7-2.6-0.4
		c-2.7,0.4-14.3,5.9-16.5,8.4c-2.2,2.6-5.7,11.3-5.7,11.3c1.4,1.7,5,5.7,8.7,5.3s16.3-7.1,16.3-7.1"/>
	<path class="st1" d="M312.8,141.5l-2.6-2.8l-12.5,6.1l-1.3,4l0.2,2.1c0,0,0.7,0.9,4.7-1.1S312.7,143.3,312.8,141.5z"/>
	<path class="st1" d="M296.6,150.9c-1.8-0.4-3.1-0.1-4.4-0.4c-1.3-0.2-2.2,2.2-0.8,3.1c1.4,0.9,3.4,2,5.6,1.5
		c2.2-0.5,15.2-4.5,16.8-8.2c1.6-3.7,1.6-5.9-1-5.3"/>
	<line class="st1" x1="291.1" y1="140.4" x2="297.7" y2="144.9"/>
	<polygon class="st2" points="256.3,92 255.5,91.3 258,88.5 264.7,89.4 273.2,84.7 278.5,84.7 280.2,82 281,82.5 279,85.7 
		273.4,85.7 264.9,90.5 258.4,89.5 	"/>
	<path class="st2" d="M263.6,105.6l-2.8-1l0.3-0.9l1.7,0.6l1-6.1l4.1,2.9c0.9-5.1,1.4-5.2,1.7-5.3c0.2,0,0.5,0.1,0.6,0.3
		c0.4,0.6,3.3,2.8,4.2,3.1c0.6,0.2,2,0.1,2.7,0l1.5-2.2l0.9-4l6.8,4.7l-0.6,0.8l-5.7-3.9l-0.7,2.9l-1.8,2.6l-0.2,0
		c-0.2,0-2.3,0.3-3.3,0c-0.9-0.3-3.3-2-4.3-3c-0.3,0.9-0.8,3.1-1.1,4.9l-0.1,0.8l-4-2.9L263.6,105.6z"/>
	<polygon class="st2" points="260.9,94 260.7,93.1 268.1,91.2 278.7,87.1 279,88 268.4,92.1 	"/>
	<path class="st1" d="M259.8,262.9c-1.7,0.1-4.5,3-4.1,4.7s3.3,2,5.3,0C263.1,265.5,264,262.7,259.8,262.9z"/>
	<path class="st1" d="M258.2,261.4c-2.4,0.2-5.2,2.8-6.6,5.4c-1.2,2.4-1,8.4,6,8.3c7.1-0.1,9.1-6.4,8.9-9
		C266.2,263.4,263.9,260.9,258.2,261.4z"/>
	<path class="st1" d="M251.1,275.1c0.1,1.2,2.2,2.4,5.3,2.4c3.2,0.1,5.5-0.5,5.5-0.5"/>
	<path class="st1" d="M264.5,271.9c1.7-1.1,3.4-1.3,4.6,0c1.2,1.3,2.7,3.3,2.2,3.8c-0.5,0.6-4.5,3.5-4.5,4.8s-2.2,0.5-2.7-0.4
		c-0.5-0.9-2.8-3.1-2.6-4.3c0.2-1.2,1.1-2.1,1.1-2.1"/>
	<path class="st1" d="M266.5,281c0.1,1.4,2.1,2.4,5.2,2.3c3-0.2,7.2-0.4,8-1.1c0.7-0.7,2.3-3.7-1.1-5c-3.4-1.3-7.8-0.9-7.8-0.9"/>
	<path class="st1" d="M262.8,261.8c2-2.1,5.2-5.5,7.2-5.3c2,0.2,8.5-0.3,10.2,1.2c1.7,1.6,1.7,5.2,0.5,6.4s-4.2,1.8-5.6,1.5
		c-1.4-0.3-3.4-2-3.4-2l-4,3.5l-0.6,3.9"/>
	<polyline class="st1" points="271.7,263.6 271.7,259.5 269.2,256.5 	"/>
	<path class="st1" d="M321.7,219.9c-1.9-0.1-2.9,1.5-2.9,3.6c0,2,0.9,3.6,2.3,2.9s2.7-3.1,2.5-5.3S321.7,219.9,321.7,219.9z"/>
	<path class="st1" d="M317.7,220.4c0.1,1.7-1.7,3.5-2,4.9c-0.2,1.4,0.3,2.2-1.4,2.1c-1.7-0.1-2.6,6.3-2.2,9.1c0.4,2.8,2,5.8,3.7,5.9
		c1.7,0.2,1.8-0.2,2.4-0.4c0.6-0.2,0-9.7,0-9.7l2.3,0.5l5.9-6.9"/>
	<path class="st1" d="M316.6,242.4l-0.2-11h2.5l6.7-8l1,2.5l-0.6,6.5l2.5,4.5l4.1,0.7l1.2-1.8c0,0-0.2-11.3,0-13.7s-3.9-5.4-6.7-5.3
		c-2.7,0.1-3.5,0.4-3.5,0.4v-1.8l-5.3,1.8l-3.8-25.2c0,0-1.4-4.1-1.9-4.5"/>
	<polyline class="st1" points="331.9,237.6 331.9,221.1 329.1,217.3 	"/>
	<path class="st1" d="M329.7,185.4l0.8,2.2l2.3,2.3l-0.9,1.5c0,0-4.4,0.2-3.4,5.6c1,5.4,2.9,5.9,4.3,5.7c1.4-0.2,2.5-3,0.9-4.3
		c-1.6-1.4-0.7-3.5,0.4-3.1c1,0.3,4,6.1,4,6.1l1.4,0.2l0.6-2.8l2-1.2l2.6,1.5v-1.4l-3.5-2.8l2.8-1l3.2,1.1l0.7,5.5
		c0,0,2,3.1,2.3,3.2c0.3,0.1,1.9,0,1.9,0l1.7-2.2l-1.5-10.2l-6.9-4.4l-3.5,0.6l-4.7-3l-1.4-2.1"/>
	<polyline class="st1" points="339.5,201.5 337.2,204.5 336.5,207.1 339,209.6 342.9,208.5 345.7,201.5 344.7,198.9 	"/>
	<polyline class="st1" points="337.8,208.3 342,207.1 345,199.6 	"/>
	<polyline class="st1" points="353.1,202.3 350.6,191.4 345,187.6 341.9,187.2 	"/>
	<path class="st1" d="M189.4,245.2l-1.7,1.3c0,0-1,0.9-0.9,2.2c0.1,1.4,1.9,3.5,5.3,3.2s5.9-1.8,6.2-3c0.3-1.2-0.6-3-1.7-3.8
		c-1-0.7-2.2-1-2.2-1"/>
	<polyline class="st1" points="198.4,248.1 201.8,248.1 203.9,251.4 202.9,255.2 200.4,255.2 198.4,252.4 197.2,253 197.2,255.2 
		203.1,262.9 203.9,268.2 201.2,271.8 198,271.8 196.7,268.6 196.7,264.6 194.3,260.4 191.9,262.2 193.5,268.2 192.6,271.1 
		186.1,276.5 182.3,276.5 179.8,273.2 181.1,269.7 183.2,268.2 184.8,262.9 184.8,259.1 182.7,256.9 183.6,251.1 186.9,248.1 	"/>
	<path class="st1" d="M183.6,251.1c1.4,3.5,3.3,5.4,7.5,4.8c4.3-0.6,6.1-2.9,6.1-2.9"/>
	<path class="st1" d="M184.8,259.1c2.3,1.1,8.3,2,12.4-3.9"/>
	<path class="st1" d="M196.7,264.6c1.8,1.9,5.5,0.9,6.4-1.7"/>
	<polyline class="st1" points="180.2,272.2 183.6,274.7 186.5,274.1 192.2,268.2 191.9,262.2 	"/>
	<polyline class="st1" points="259.6,191.4 257.2,187.6 259.1,183.3 266,176.4 281.6,167.9 283.3,168.2 283.9,170.7 	"/>
	<path class="st1" d="M266.5,44.1c2-1.1,8.4-1.9,11,0.6"/>
	<path class="st1" d="M261.9,41.9c1.8-1.7,18.1-2.8,20.3,0.5"/>
	<path class="st1" d="M262.6,37.5c2.6-1.1,15.3-2.2,19.6,1"/>
</g>
</svg>
