
<svg id="bp-834" viewBox="0 0 527 318">
	<style type="text/css">
		.st0{fill:#fff6;stroke:#33f;stroke-miterlimit:10;}
		.st1{fill:none;stroke:#33fa;stroke-miterlimit:10;}
</style>
<g>
	<path class="st0" d="M336.6,146.1c-0.7-1.3-2-2.5-3.4-2.7l0,0c0,0-0.1,0-0.1,0c-0.5-0.1-1.1,0-1.7,0.3l-0.3,0.2
		c-1.2,0.6-2.5,1.2-3.7,1.8l-1.6-1.5l-7,0.4L296,160.4l-0.1,2.1c-0.6,0.1-1.2,0.5-1.7,1l0-0.2l-7,0.2l7.6-10.9v-11.1h7
		c2.1,0,3.5-0.4,4.4-1.3l4.3-4.3c1.8-1.8,2-2.9,2-5.2v-14.4c0-3.6-0.4-5.4-1.2-6.3c-0.3-0.3-0.6-0.6-0.9-1c-0.4-0.5-1-1.2-1.9-2.1
		c-1.7-1.7-3.1-2.3-5-2.3c-0.8,0-7.1-0.1-14.2-0.1l0-0.2c-0.5,0-0.9,0-1.3,0c-1.3,0-2.5-0.1-3.5,0.1c-5.2-0.1-10.2-0.1-13.1-0.1
		c0.8-0.6,1.7-1.5,1.8-1.6l0.2-0.1V99l-1.1-1.3c1.1-0.5,1.8-1.4,1.9-1.4l0.1-0.1v-3.4l-1.6-1.2h6c3.2,0,4.4,0,5.9-3.1
		c2.6-0.1,6.2-0.7,8.6-2.6c2.1-1.6,4.8-4.1,4.8-7.2c0-2.6-0.6-17.3-0.6-19.7l8.2-4.9v-2.7l-2.8-1.4c-1.6-2-5.1-3.3-7-3.4
		c-2.6-2.6-5.7-5.3-6.9-6.3l-0.1-0.1c-1.2-1-2.4-2-8-2h-45c-2.9,0-5.2,0.2-6.8,1.2c-0.4,0-0.8,0-1.2,0c-2.3-0.1-4.6-0.2-6.5,2.5
		c-1.3,1.9-2.2,3.2-2.8,4.3c-0.3,0.5-0.6,1-0.9,1.4h-3.3c-0.9,0-1.7,0.4-2.3,1.1c-0.8,0.9-1.3,2.1-1.2,3.3c0.1,1.5,0.2,3.9,3.6,4.1
		l-0.5,2.6l0,0c-0.6,0.3-1.2,0.9-1.6,1.6c-0.9,1.6-1,3.5-0.2,4.8c0.3,0.5,0.8,1.1,1.7,1.3l-0.3,2.3c-1.4,0.6-2.1,1.7-2.1,2.9
		c0,1.3,0.9,2.5,2.5,3c0,0.5-0.1,1.6,0,3c0.2,2.2,6,5.2,8.8,5.4c0.7,8.5,18.1,8.6,18.3,8.6h0.2l-2.2,1.6v3.7l2.5,1.5l0.2,0.1
		c0,0,0.1,0,0.2,0l-1.7,1.4l-0.1,2.6l0.2,0.2c0.1,0.1,1.4,1.1,2.4,1.8c-2.1,0-6.1-0.1-10.9-0.2c-1.8,0-3.8-0.1-5.8-0.1v0
		c0,0,0,0,0,0c-3.3-0.1-6.8-0.1-10.1-0.1l0-0.1c-0.7,0-1.3,0-1.9,0.1c-6.9-0.1-12.7-0.2-14.8-0.1c-6.2,0.1-7.6,4.9-7.6,5.8v4.3h0.4
		c-1,0.5-1.6,1.3-1.6,2.2c0,0.3,0,1,0,1.8c-0.1,3-0.2,8.7,0,10.7c0.1,1,0.6,1.7,1.2,2.2l0,3.8c0.2,4.6,4.3,6.7,7,6.7h13.3
		c-0.6,1.1-0.8,2.8-0.6,4.4c-6.5,0.4-15.8,9.1-16.4,15.7c-0.3,2.7-0.1,4.4,0.4,5.6c-1,0.2-2,0.7-2.8,1.6c-1,1.1-1.5,2.6-1.3,3.9
		c0.1,0.7,0.3,1.6,0.7,2.6c0.1,0.5,0.3,1,0.6,1.4c0.6,1.1,1.3,2.1,2.4,2.8c0.2,0.1,0.4,0.2,0.6,0.3l-2.4,2.9l0.6,6.7l0,0.1
		c0.6,1.6,3.5,9.4,6.6,17.2l-4.5,47.7l4.6,4.7l1.5,5.5l5.1,3.3l8.6,0.7c1.2,1.6,10.2,11.4,37.6,11.4c1.9,0,3.9,0,6-0.1
		c31-1.5,37-10.1,38-11.9l10.1-0.2l0.9-3.5l3.3-2.8l-1.3-2.7l6.7-7l-6.3-42.8c0.4-0.5,1.2-2,0.8-4.7c-0.5-2.9-2.7-5.5-3.2-6.1
		l-1.5-8.4l-0.9-2.1l5.6-6.7l-0.9-5.3l-1.2-1.7l21.2-13.8l1.9-4.4l0-2.8c0.2-0.1,0.4-0.2,0.6-0.4c0.8-0.4,1.7-1,2.9-1.7
		C337.2,149.9,337.6,148,336.6,146.1z M207.5,189.3c-2.3-5.7-4.2-10.2-4.4-10.6c-0.4-0.7-1.3-1.1-2-1.3c0.3-0.7,0.6-1.4,0.7-2.3
		c0.1-0.9,0.1-1.8-0.1-2.7c0.2,0.2,0.4,0.3,0.7,0.4c0.2,0.1,0.4,0.1,0.7,0.1c0.9,0,1.7-0.5,1.8-0.5l0.1-0.1
		c1.1-1.1,8.5-8.8,12.1-13.1l-3.2,5.8l-0.7,3.2l1.8,2.8l-7.6,8.9v6l2.7,2.3L207.5,189.3L207.5,189.3z"/>
</g>
<g>
	<path class="st1" d="M216.8,131.5c-1.8,0-18.6,0-21,0s-5-0.4-5.3-3c-0.3-2.5,0-11.1,0-12.4s1.5-2.2,3.4-2.2c1.9,0,21.6,0,23.8,0
		c3.5,0,3.5,2.9,3.5,5.5s0,7.4,0,9.1C221.2,130.3,220.1,131.5,216.8,131.5z"/>
	<path class="st1" d="M213.7,113.9c2,0,4.5-0.4,4.6,3.1s0,10.5,0,11.8c0,1.3-2.3,2.8-4.6,2.8"/>
	<path class="st1" d="M191.7,113.9c0-2.2,0-3.4,0-4.3c0-0.9,1.4-5.2,7.2-5.3c5.7-0.1,41.4,0.6,44.8,0.6c1.8,0,5,0.9,6.3,2.6
		c1,0.9,2.9,3.2,3.3,3.7c0.4,0.6,0.9,2.5,0.9,5.7c0,3.2,0,12.7,0,14.5c0,1.9-1.3,3.4-2.6,4.7c-1.3,1.3-2.2,2.1-2.6,2.5
		s-1.7,2.1-4,2.1s-44.1,0-46.7,0s-6.3-2.1-6.5-6.3c0-1.9,0-3.9,0-3.9"/>
	<path class="st1" d="M240.2,107.1"/>
	<path class="st1" d="M209.2,125.9c-2.1,0-10.8,0-12,0c-1.2,0-2.2-1.7-2.2-3.2c0-1.5,1-2.7,2.6-2.7s10.8,0,12.1,0
		c1.3,0,2.3,0.9,2.3,2.6S211.6,125.9,209.2,125.9z"/>
	<path class="st1" d="M200.4,125.9c-1.7,0-3-2.2-3-3c0-0.8-0.3-2.9,3-2.9"/>
	<path class="st1" d="M216,140.9c-3,0-6.9-1.9-6.9-5.6v-3.7"/>
	<path class="st1" d="M209.1,113.3c0-3.2-0.5-9.2,6.4-8.9"/>
	<path class="st1" d="M225.7,104.6c-5.6-0.1-7.9,0.8-7.9,9.3"/>
	<path class="st1" d="M217.7,131.5c0,3.4-1.3,9.4,8.8,9.4"/>
	<path class="st1" d="M231.5,117.9c0-4.2,0.8-8.6,5.7-8.6s6.6,0,9.4,0c2.8,0,4.5,3,4.5,7.1s0,12,0,14.4s-0.8,3.9-4.2,3.9
		c-3.4,0-8.5,0-11.6,0s-3.9-2.9-3.9-5.4C231.5,126.7,231.5,117.9,231.5,117.9z"/>
	<path class="st1" d="M221.7,105c0.1,0,11.4,6.1,11.4,6.1"/>
	<line class="st1" x1="221.2" y1="140.1" x2="233.1" y2="133.9"/>
	<line class="st1" x1="250.4" y1="133.4" x2="246.4" y2="140.6"/>
	<line class="st1" x1="248.4" y1="109.8" x2="246.9" y2="105.5"/>
	<path class="st1" d="M231.6,115.2c1.5-2.8,2.8-3.4,4.9-3.3s4.8,0,7.3,0c2.4,0,3.1,1.7,3.1,4.5c0,2.9,0,11.9,0,14.2
		s-0.3,4.1-5.1,4.1"/>
	<path class="st1" d="M231.5,117.1c0.6,0,13.8,0,13.8,0l-1.4-5.3"/>
	<polyline class="st1" points="231.6,118.5 245.2,118.5 245.2,117.1 	"/>
	<path class="st1" d="M231.5,123c0.8,0.1,13.8,0,13.8,0l-1.4-4.5"/>
	<polyline class="st1" points="231.5,124.3 245.2,124.3 245.2,123 	"/>
	<polyline class="st1" points="231.6,128.5 245.2,128.5 243.8,124.3 	"/>
	<polyline class="st1" points="231.6,130 244.8,130 245.2,128.5 	"/>
	<path class="st1" d="M268.6,104.6c0,0,32.9,0.4,34.7,0.4c1.8,0,3.1,0.6,4.6,2.2c1.6,1.6,2,2.3,2.8,3.1s1.1,2.6,1.1,5.9
		c0,3.3,0,12.2,0,14.4s-0.2,3.2-1.8,4.9c-1.7,1.7-3.5,3.5-4.3,4.3c-0.7,0.7-1.9,1.2-4.1,1.2s-14,0-14,0"/>
	<path class="st1" d="M289.1,104.6c-4.6,0-7.9-0.9-9.2,6.4"/>
	<path class="st1" d="M247.3,105.5c0.7-1.5,5.4-1.1,7.6-1.2c2.1-0.1,9.4,0,11.7,0s13,2.5,16.7,10.8c3.7,8.3,3.2,14.6,2.1,18.3"/>
	<path class="st1" d="M239.3,163.8c0.1-2.1,1.3-2.3,2.4-4.1c2.8-3.5,14.4-12.3,17.9-16.2c3.5-3.9,3.2-10.9,2.7-13.5s-3-1-2.7,1
		c0.6,3.6,0.7,7.8-1.8,10.8c-2.6,3-10.3,9.6-13.7,12.7c-3.4,3.1-7.2,5.4-7.2,9.2"/>
	<path class="st1" d="M259.9,132.9c-1.4-0.2-3.8-1.1-3.8-4.2c0-3.1,2.7-4.5,5-4.4c2.2,0.2,4.5,1.8,4.4,4.4c-0.1,2.6-1.1,4.1-2.8,4.2
		"/>
	<path class="st1" d="M265.4,112.8c-0.1,1.8,1.2,2.6,3.2,2.6s3.4-0.5,3.6-2.6c0.2-2.1-2-3-3.4-3
		C267.4,109.8,265.5,110.5,265.4,112.8z"/>
	<path class="st1" d="M271.9,111.5c1.1,0.8,1.6,2,1.1,3c-0.6,1-1.2,2.6-4.2,2.6c-3,0-4.9-2-4.8-3.7c0.1-1.7,1.8-2.3,2-2.4"/>
	<path class="st1" d="M277.4,163.8c0.1-3.3,2.6-3.1,6.3-6.4c3.7-3.4,4-9.5,4.1-15.3c0.1-5.8-3.8-11.8-5.2-14.6
		c-1.4-2.8-4-0.3-2.6,1.8s5.1,7,5.3,10.4s0,12.5-1.9,14.8c-3.4,4.1-8.8,3.8-7.9,9.3"/>
	<path class="st1" d="M280.6,130.3c-1.5,0.3-4.7-1.1-4.5-3.9s2.4-4.6,4.5-4.2c2.1,0.4,3,2.2,3,3.4c0.1,1.2-0.7,2.5-0.7,2.5"/>
	<path class="st1" d="M251.1,151.5c2.9,1.4,26.2,3.5,33.4-14.5"/>
	<path class="st1" d="M248.4,150.7c-2.5-0.9-8.1-3.5-10.6-9.8"/>
	<path class="st1" d="M212.6,140.9c-1.6,1.3-2.3,7.5,2.4,9.2c4.7,1.8,10.2-1.3,12.2-4.4c0.9-1.3,1.1-5,1.1-5"/>
	<path class="st1" d="M224.7,140.8c0,3.9-2.4,11.5-10.4,9"/>
	<path class="st1" d="M215.5,140.9c-1.3,0.8-3,6.5,1.3,6.6c4.3,0.1,6.7-5.3,6.1-6.7"/>
	<path class="st1" d="M211.4,146.3c-6.2,0-15.7,8.6-16.3,15.2c-0.7,6.6,1.6,6.9,2.4,7.1s3.6,1.7,4,2.6c0.9,2.2,3.1,0.7,3.1,0.7
		s13-13.4,13.8-15.4s0-5.9,0-5.9"/>
	<path class="st1" d="M216.5,150.6c0.3,2.6,0.1,4.9-2.9,8s-7.1,8.2-8.9,9.1c-3,1.6-9.9-0.8-9.8-3.8"/>
	<path class="st1" d="M195.7,167.5c-2.5-0.1-4.8,2.5-4.5,5s2.4,8.3,6.9,6.9c4.5-1.4,3.2-8.6,1.9-9.4"/>
	<path class="st1" d="M191.9,175c0.4,3.8,10.2,3.4,7.5-5.4"/>
	<path class="st1" d="M195.9,179.4l-2.7,3.3l0.6,6.5c0,0,11.6,31.5,14.1,33.4l1.9,0.9l0.4-2.9c0,0-0.6-1.2-0.6-2.1s4-3.3,5.2-1.7
		c1.2,1.6,2.2,3.6,2.2,3.6l1.5-0.8l-0.9-3.9c0,0-14.4-35.8-15-36.7c-0.6-1-2.4-1.1-2.4-1.1"/>
	<polyline class="st1" points="196.3,179.5 194.2,183.5 208,218.4 209.7,218.5 	"/>
	<path class="st1" d="M210.2,220.6c0.7,2.4,1.2,4.8,1.2,4.8"/>
	<line class="st1" x1="217.1" y1="220.4" x2="218.6" y2="223"/>
	<path class="st1" d="M214.2,223c-1.7,0.2-5.8,5.8-5.7,9.2s0.4,7.6,2.4,8.4c1.9,0.8,4.5,0.3,3.3-3.4c-1.2-3.6-1.1-7.8,2.2-8.1
		c2.3-0.2,6.2-0.2,5,3.9c-1.2,3.8-0.3,6.3,1.6,6.4s6.3-5,3.6-11.1C223.2,220.8,214.2,223,214.2,223z"/>
	<polyline class="st1" points="294.1,140.9 294.1,152.4 286.2,163.8 	"/>
	<path class="st1" d="M279.6,157c0.3-0.7,1.9-8.3,1.9-8.3l-1.6-4.6"/>
	<polyline class="st1" points="223,149.3 214.2,165.3 213.7,168.2 215.5,171.1 207.8,180.2 207.8,185.8 210.9,188.4 207.8,189.7 	
		"/>
	<polyline class="st1" points="215.5,171.1 222.1,163.8 249.8,163.8 255.3,172.4 262.6,172.4 267.8,164.5 294.1,163.8 	"/>
	<polyline class="st1" points="222.1,163.8 212.3,179.5 212.6,184 216.6,186.3 251.1,185.3 254.2,181 260.7,179.5 265.4,181.1 
		267.8,186.3 304.9,187.4 310.5,180.6 309.7,175.6 308.2,173.5 	"/>
	<polyline class="st1" points="210.9,188.4 212.1,190.6 253.5,189.7 256.1,192.5 257,251.7 254.8,255 199.9,255.6 197.4,252.8 
		201.3,208.7 	"/>
	<path class="st1" d="M200.4,206.5l-4.5,47.6l4.5,4.6l1.5,5.4l4.9,3.1l8.7,0.7c0,0,9.2,12.9,43.3,11.2s37.7-11.9,37.7-11.9l10.1-0.2
		l0.8-3.3l3.1-2.6l-1.3-2.6l6.8-7.1l-6.3-42.8c0,0,1.3-1.3,0.8-4.5c-0.5-3.1-3.1-5.9-3.1-5.9l-1.5-8.6l-1-2.3"/>
	<polyline class="st1" points="256.1,192.5 258.5,189.7 285.2,189.7 287.8,192.5 295,251.7 293.5,255.6 261.4,255.6 257,251.7 	"/>
	<polyline class="st1" points="294.1,253.9 295,255.6 311.8,255.8 	"/>
	<line class="st1" x1="200.4" y1="258.8" x2="309.2" y2="258.6"/>
	<line class="st1" x1="201.9" y1="264.2" x2="307.3" y2="263.9"/>
	<line class="st1" x1="215.5" y1="268" x2="296.4" y2="267.3"/>
	<polygon class="st1" points="223,168.2 240.2,168.2 243.1,172.4 243.1,176.7 240.2,179.5 219.8,179.5 216.6,177.3 217.1,174.5 	"/>
	<polyline class="st1" points="243.1,174.7 239.3,169.6 223.9,169.6 219.8,174.7 220.5,177.3 242.5,177.3 	"/>
	<polyline class="st1" points="223.9,169.6 224.7,173.5 220.5,177.3 	"/>
	<line class="st1" x1="224.7" y1="173.5" x2="241.9" y2="173.1"/>
	<path class="st1" d="M266.8,172.4l2-4.3l6.5,0c0,0,3.3,3.9,3.3,8.2c0,4.3-3.1,8.4-3.1,8.4h-6.7l-1-2.6c0,0,3-1.4,2.9-4.8
		C270.5,173.9,266.8,172.4,266.8,172.4z"/>
	<path class="st1" d="M278.1,179.5c1,3.7,5.6,5.1,8.9,5.2c3.3,0.2,12.5-2.9,10.2-10.5"/>
	<path class="st1" d="M277.4,171.6c1.5-2.8,5.1-4.6,8-5s3.8,4.4,3.7,5.8c-0.1,1.4-1,5.6,1.1,5.4s4.3-4.2,4.1-4.5"/>
	<line class="st1" x1="288.6" y1="169.6" x2="292.3" y2="166.6"/>
	<path class="st1" d="M296.4,163c-2.1-0.2-5.9,5-4.1,7.9c1.8,2.9,3.8,4.5,8.1,2.4"/>
	<polyline class="st1" points="331.6,152.4 331.6,155.4 329.8,159.6 307.3,174.3 302.1,174.3 299.2,172.2 296.1,167.5 296.4,160.7 
		318.9,145 325.5,144.7 327.2,146.3 	"/>
	<path class="st1" d="M325.2,147.5c2-1.3,4.4-2.4,6.4-3.3c3.3-1.6,6.9,4.4,3.8,6.1c-3.8,2.1-4.8,2.9-6.4,3.4
		C327.2,154.3,323.6,150.8,325.2,147.5z"/>
	<path class="st1" d="M333.2,143.9c-0.7,0-1,4.7,2.9,5.8"/>
	<path class="st1" d="M318.6,145.2c0,0,1.5,7.1,1.5,7.1c0.1,0.1,2.3,3.3,2.3,3.3l5.6,3.2l1.9,0.8"/>
	<polyline class="st1" points="320,152 299.4,166.6 296.1,167.5 	"/>
	<polyline class="st1" points="322.4,155.7 301.9,170.3 301.1,173.5 	"/>
	<path class="st1" d="M305.3,174.3c0,0,0.9,1.2,1.2,3.6s-1.7,6.3-3.4,7.3c0,0-7.3-0.3-7-0.4c2.4-1.2,4.4-3,4.3-6.4s-1.9-4.4-1.9-4.4
		"/>
	<path class="st1" d="M289.1,118.2c0-4.2,0.8-8.6,5.7-8.6c5,0,6.6,0,9.4,0s4.5,3,4.5,7.1s0,12,0,14.4s-0.8,3.9-4.2,3.9
		s-8.5,0-11.6,0c-3.1,0-3.9-2.9-3.9-5.4S289.1,118.2,289.1,118.2z"/>
	<path class="st1" d="M289.2,115.4c1.5-2.8,2.8-3.4,4.9-3.3s4.8,0,7.3,0c2.4,0,3.1,1.7,3.1,4.5s0,11.9,0,14.2c0,2.3-0.3,4.1-5.1,4.1
		"/>
	<path class="st1" d="M289.1,117.4c0.6,0,13.8,0,13.8,0l-1.4-5.3"/>
	<polyline class="st1" points="289.2,118.7 302.9,118.7 302.9,117.4 	"/>
	<path class="st1" d="M289.1,123.2c0.8,0.1,13.8,0,13.8,0l-1.4-4.5"/>
	<polyline class="st1" points="289.1,124.6 302.9,124.6 302.9,123.2 	"/>
	<polyline class="st1" points="289.2,128.8 302.9,128.8 301.5,124.6 	"/>
	<polyline class="st1" points="289.2,130.3 302.4,130.3 302.9,128.8 	"/>
	<path class="st1" d="M227.2,163.8c-1.8,0-3.5-1.3-1.5-6.8c2-5.5,3.5-10.6,6-10.8c2.5-0.2,9.6-0.1,9.6-0.1"/>
	<path class="st1" d="M271.2,163.8c-0.7-2.6,0.1-4.9-3.4-5.1c-3.5-0.2-18.4,0.7-19.4,0.6c-0.9-0.1-1.8,3.1-2,4.5"/>
	<line class="st1" x1="272.2" y1="149.8" x2="275.6" y2="160.9"/>
	<path class="st1" d="M227.4,159.5c-0.2-1.4,0.3-3.1,2.5-3.2c2.2-0.1,2.3,2,2.3,3.1c0,1.1-0.8,2.7-2.3,2.7S227.6,161,227.4,159.5z"
		/>
	<path class="st1" d="M227.3,230.3c3.6-0.2,14.9,0,16.7,0c1.9,0,3.7,2,3.7,3.1c0,1.1-1.2,2.3-3.6,2.3s-17.6,0-17.6,0"/>
	<path class="st1" d="M239.1,243.2c0.2,1.6,0.6,3.1,1.9,3.2c1.3,0.1,1.9-0.9,2.2-2.5c0.3-1.7-0.8-3.2-2-2.9
		C239.9,241.2,239,242.1,239.1,243.2z"/>
	<path class="st1" d="M239.1,220.8c0.2,1.6,0.6,3.1,1.9,3.2c1.3,0.1,1.9-0.9,2.2-2.5s-0.8-3.2-2-2.9
		C239.9,218.8,239,219.8,239.1,220.8z"/>
	<path class="st1" d="M223.8,220c0.2,1.6,0.6,3.1,1.9,3.2c1.3,0.1,1.9-0.9,2.2-2.5s-0.8-3.2-2-2.9C224.5,218,223.6,218.9,223.8,220z
		"/>
	<path class="st1" d="M219.8,244c0.2,1.6,0.6,3.1,1.9,3.2c1.3,0.1,1.9-0.9,2.2-2.5s-0.8-3.2-2-2.9C220.6,242,219.7,242.9,219.8,244z
		"/>
	<path class="st1" d="M220.5,210.3c0.1-2.3,0-9.8,0-12s1.6-3.1,5.3-3s17.9,0,19.7,0c1.8,0,4.3,1.3,4.3,5.4c0,4.1,0.1,5.4,0,7.6
		c-0.1,2.2-0.7,4.6-5.2,4.7s-17.5,0.1-19.8,0S220.4,212.1,220.5,210.3z"/>
	<polyline class="st1" points="225.8,195.3 225.2,205.5 227.2,207.2 226.6,208.8 224.7,209.5 224.8,213 	"/>
	<polyline class="st1" points="229.8,213.1 229.9,207.6 227.8,205.9 227.8,202.8 229.9,201.7 229.9,195.3 	"/>
	<polyline class="st1" points="233,195.3 232.2,204.2 231.5,205.4 232.2,208.8 232.2,213.1 	"/>
	<line class="st1" x1="238.6" y1="195.3" x2="238.6" y2="197.9"/>
	<path class="st1" d="M243.2,213c0,0,0-3.3,0-5c0-1.7-0.1-3,2.5-3s4.1,0,4.1,0"/>
	<path class="st1" d="M238.6,213c0.1-0.6,0-9.9,0-9.9c-2.3-0.1-3.6-0.4-3.5-2.4s2.2-2.9,4.4-2.7s3.8,1.6,3.6,2.7c0,0,6.1,0.1,6.6,0"
		/>
	<path class="st1" d="M243.2,200.7c-0.3,2.1-2.3,2.7-4.5,2.4"/>
	<path class="st1" d="M265.4,206.1c-0.3-3.4,3.6-9.4,8.5-9.5c4.9-0.2,10.5,3.3,10.6,8.5c0.1,5.2-3.3,10.4-9,10.4
		S266,213.5,265.4,206.1z"/>
	<path class="st1" d="M273.9,198.8c3.7-0.1,7.6,2,7.6,7.3c0,5.2-3.7,7-6.6,7c-2.9-0.1-7.2-1.8-7.2-7
		C267.8,201.9,269.9,198.9,273.9,198.8z"/>
	<path class="st1" d="M268.2,235.7c0.7-3.3,6-8,10.8-6.9c4.8,1.2,9.2,6.1,7.9,11c-1.3,5-6,9.1-11.5,7.6S266.8,242.9,268.2,235.7z"/>
	<path class="st1" d="M278.4,230.9c3.5,0.9,6.8,4,5.4,9.1c-1.4,5-5.5,5.8-8.2,4.9s-6.4-3.6-5-8.6
		C271.7,232.3,274.5,229.9,278.4,230.9z"/>
	<path class="st1" d="M301.2,237.8c-0.7-3.3,0.9-9.6,4-10.3s7.4,2.2,8.2,7.3s-0.5,10.6-4.2,11.2S302.8,245,301.2,237.8z"/>
	<path class="st1" d="M305.6,229.6c2.4-0.5,6.5,0.8,7.3,6c0.8,5.2-2.5,7.7-4.4,8s-4.9-1-5.7-6.1C302.1,233.4,303,230.2,305.6,229.6z
		"/>
	<path class="st1" d="M301.3,198.5c1.6-0.1,5,0,6.4,3.9s-0.4,9.3-3.2,9.6c-2.8,0.2-6.4-1.2-6.9-7.1
		C297.1,198.9,301.3,198.5,301.3,198.5z"/>
	<path class="st1" d="M307.3,198.3c-2-1.3-1.5-1.9-5.3-1.7c-3.8,0.1-9.6,2.7-5.5,12.4s12.9,4,13.1-0.3"/>
	<path class="st1" d="M213.9,74.2c0,0-0.2,1.3,0,3.3c0.2,2,6.3,5.1,8.8,5c0,7.4,14,8.6,17.8,8.6s34.5,0,37.8,0c3.3,0,4.1,0,5.6-3.1
		c3,0,6.4-0.8,8.6-2.5c2.1-1.7,4.6-4,4.6-6.8c0-2.8-0.7-20-0.7-20l8.3-5v-2.1l-2.6-1.3c-1.5-2-5.1-3.3-6.9-3.3
		c-2.6-2.7-5.9-5.4-7-6.4c-1.2-1-2.1-2-7.8-2c-5.7,0-41.4,0-45,0s-6.1,0.3-7.6,2c-1.5,1.7-5.2,7.3-5.2,7.3"/>
	<path class="st1" d="M228.7,39.8c-2.7,0-5.3-0.8-7.5,2.3c-2.1,3-3,4.8-3.8,5.9c-2,0-1.7,0-3.6,0s-3.1,2.1-3,3.8
		c0.1,1.7,0.3,3.7,3.7,3.7s13.7,0,15.6,0c3.3,0,4.9-7,0.2-7.4c-4.7-0.4-12.9-0.1-12.9-0.1"/>
	<path class="st1" d="M228.9,47.9c-2.2-0.1-4.2,7-0.6,7.5"/>
	<path class="st1" d="M228.9,58.6c-4.9,0-11.6,0-13.9,0c-3.6,0-5.1,7.4-0.4,7.3s11.1,0,14.3,0S233.9,58.6,228.9,58.6z"/>
	<path class="st1" d="M230,58.8c-3.7,0-4.9,7.2-1.1,7.2"/>
	<path class="st1" d="M228.3,68.7c-2.9,0-11.4,0-13.4,0c-4.5,0-4.5,5.5,0,5.5c7.4,0,11.5,0,13.4,0C232.2,74.2,231.6,68.7,228.3,68.7
		z"/>
	<path class="st1" d="M228.9,68.8c-3.2-0.1-4.3,5.6-0.6,5.4"/>
	<line class="st1" x1="214.5" y1="55.4" x2="213.9" y2="58.6"/>
	<line class="st1" x1="213.9" y1="65.9" x2="213.5" y2="68.9"/>
	<path class="st1" d="M216.3,74.2c-0.1,2.2-0.1,2.9,3.1,4c3.2,1.1,11.5,4.5,13.4,4c1.9-0.5,4.6-1,4.9-4c0.3-3,0-28.2,0-28.2"/>
	<path class="st1" d="M232.9,49.5c2.1,0.4,5.4-1.1,7,2.1c1.7,3.3,2,5.5,3.8,5.4c1.8-0.1,3.4-4.9,6-5.4c2.6-0.4,18.8,0,26.1,0
		c7.3,0,16.5,0,19.2,0c2.7,0,1.5,3.8,1.5,3.8l0,3.3"/>
	<path class="st1" d="M240.3,52.4c1.9-4.8,1.6-5.6,10.4-5.7c8.9-0.1,44.5,0.2,44.5,0.2"/>
	<path class="st1" d="M239,38.6c7.6,1.6,23.6,8.1,23.6,8.1"/>
	<path class="st1" d="M276.5,38.6c0,0,5.6,4.3,5.8,8.1"/>
	<path class="st1" d="M245.1,56c0,3.6,0,5.9,0,7.8c0,1.9,1.3,5,7.1,5c5.9,0,31.6,0,35.2,0s6.2-1.9,6.2-6.2s0-4.4,0-5.6
		c0-2.2-1.8-5.4-9.2-5.4"/>
	<line class="st1" x1="241.9" y1="48.8" x2="247.8" y2="52.8"/>
	<line class="st1" x1="245.1" y1="47" x2="249.7" y2="51.6"/>
	<line class="st1" x1="304.8" y1="51.6" x2="296.5" y2="55.4"/>
	<line class="st1" x1="295.1" y1="51.6" x2="302.1" y2="50.3"/>
	<path class="st1" d="M293.7,51.6c1.4,0,1.7,2.7,1.5,14.3c-0.2,11.6-0.1,14-0.1,15s-1,2.3-6.2,2.3c-5.3,0-33.7,0-38,0
		c-4.3,0-7.4-1.1-7.4-5.8c0-4.7-0.3-7.3-1.5-8.8c-1.2-1.5-1.1-3.9-1.1-6.4c0-2.5,0-8.9,0-8.9"/>
	<line class="st1" x1="237.3" y1="79.5" x2="243.6" y2="79.5"/>
	<path class="st1" d="M284,87.9h-40.3c0,0-3.1,0.3-5.3-0.6c-2.2-1-5.6-5.1-5.6-5.1"/>
	<path class="st1" d="M242.3,91l-3.3,2.4v3.2l2.3,1.3c0,0,8,0.9,14.1,0.7c6.1-0.2,14.4-0.7,15.7-1.1c1.3-0.4,2.3-1.5,2.3-1.5v-3
		l-2.6-1.9"/>
	<path class="st1" d="M242.8,98.1l-2.5,2l-0.1,2.1c0,0,2,1.6,2.9,2.1c0,0,7.7-0.4,13.4-0.6c5.7-0.2,14.2,0.2,14.2,0.2
		c0.8-0.6,1.9-1.7,1.9-1.7v-3.1l-1.4-1.7"/>
	<path class="st1" d="M287.8,51.9c3.1,0.2,2.4,6.9,2.4,10.9s-1.7,4.7-5.7,4.7s-35.3,0.4-37.4,0"/>
</g>
</svg>
