
<svg id="bp-883" viewBox="0 0 527 318">
	<style type="text/css">
		.st0{fill:#fff6;stroke:#999;stroke-miterlimit:10;}
		.st1{fill:none;stroke:#999a;stroke-miterlimit:10;}
</style>
<g>
	<path class="st0" d="M350.9,210.2l-0.1-0.2l-0.2-0.1c-0.5-0.3-2.6-0.4-5.4-0.4c0.7-1,1.2-2.3,1.3-3.6c0.2-2-0.5-3.8-1.9-5.1
		c1.9-0.5,3.2-1,3.5-1.1l0.3-0.1v-0.3c0-4.6-19.8-50-23.8-54.5v0c-0.2-0.3-0.6-0.3-1-0.2c-0.9,0.1-3.1,0.9-5.7,2
		c0-0.4,0-0.9-0.1-1.2l0-0.1l-0.1-0.1c-3.2-2.5-12.8-2.5-18-2.4c-1.6,0-2.8,0.1-3.5,0.2L296,143c-1,0.6-1.3,2.1-1.3,3.5
		c-0.4-0.1-0.8-0.1-1.1-0.2c0.6-1,1.3-3.2,1.2-5.8c2.4-0.1,4-0.2,4.2-0.2c1.3-0.5,8.1-9.3,10.1-11.9l0.1-0.1v-7.4l-8.6-12.5l-2.6,0
		l0.5-1.7c2.5-0.1,4.4-0.1,5.8-0.2l0.3,0l1.1-3.1c0.4,0,0.8,0,0.9,0l0.1,0l0.1-0.1c4-2,13.5-12.3,13.8-17.4l12.5-0.1l1.5-2.3l0-0.1
		c0.1-0.7,0.1-1.5,0.2-2.2c0.4-3.7,0.7-7.5-0.6-14.7l0-0.2l-1.7-1.3l-0.2,0c-0.1,0-2.6,0-6.5,0.1l-3.2-3.8l-27.9-4.8l-2.9-2.8
		l-0.1,0l-5-1.6l4.3-0.8l0-0.4c0.1-1.5,0.4-6.5,0-7.4c-1.8-3.7-31.9-3.3-32.2-3.3c-12.5,0.2-30.1,2.3-36.9,5.4l-0.2,0.1l-0.1,0.2
		c-1,2.7-1.6,7.6-1.6,7.8l-0.1,0.6l6-0.1l0,0.4c-3.3,0.3-5.4,0.5-5.4,0.5l-0.3,0l-0.9,3.7l-5.1,0.6l-1.7,4.6l-12.5,2v4l-9.1,0.8
		l-2,0.6l-0.1,0.2c-1,1.6-0.8,6.9-0.6,9.1c0.1,1.8,1.3,7.1,1.9,7.8c0,0,0.1,0.1,0.2,0.1l0,0c1.7,0.9,2,0.9,2.1,0.9
		c0.1,0,4.8-0.2,10.6-0.5c1.9,3,16.8,14.1,24.5,15.9l0.1,0c0.3,0,1.2,0,2.6,0c0.3,0.9,1.1,2.9,2.2,3.2c0.1,0,0.7,0,1.8,0
		c0.6,0,1.2,0,2,0l0.3,1.3l-2,0l-0.1,0.1c-0.4,0.3-10.1,8-11.4,12.8c-1.4,4.9,1.1,8.8,1.2,9l0.1,0.1c1,0.9,9.6,8.8,11.3,9.5
		c0.4,0.1,2.9,0.2,6.4,0.3c0,1.3,0.3,2.7,0.6,3.7c-0.5-0.3-1-0.5-1.4-0.6c-0.2-0.6-0.7-1.2-0.7-1.2l-0.1-0.2l-0.2,0
		c-0.4,0-10.7-0.7-15.7,1.3l-0.2,0.1l-0.1,0.2c-2.1,4.4-2,8.4-1.9,9.4c-0.7,0.7-1.2,1.4-1.4,2c-6.2-2.8-13.3-5.9-14.5-6.4
		c-2.2-0.9-3.8-0.3-5,1.9c-0.1,0.2-0.4,0.7-0.8,1.5c-14.2,24.5-21.9,39.5-22.4,43.4c-0.1,0.2-0.1,0.5-0.2,0.7
		c-0.4,1.3-0.9,3.2,1.5,4.1c0.4,0.2,1.5,0.6,3,1.1c-0.5,0.4-0.8,1-1.1,1.7c-0.5,1.3-0.5,2.9-0.2,4.3h-4.8l0,0.5
		c0,0.5-2.5,48,4.1,68.5l0.2,0.6l0.6-0.4c0,0,0,0,0.1-0.1l0,0c0,0,0,0,0,0c6.2-4.3,25-45.2,28.6-60.4l0-0.1c0-0.4,0-1.4-11.6-5.3
		c0.8-1,1.5-2,1.5-3.1c2.5,0.9,4.2,1.6,4.5,1.7c0.6,0.3,2.2,0.5,3.8,0.5c1.3,0,2.5-0.2,2.9-0.6c0.5-0.5,1.1-2,1.9-4.2
		c0.4-1,0.7-1.9,0.9-2.2c0.4-0.8,2.2-5.1,3.3-7.9c0.5-1.2,0.9-2.1,1-2.4c0.4-1,0-2.5-0.7-3.5c-0.6-0.9-1.2-1.8-0.8-2.8
		c0.9-2.2,1.6-3.7,1.9-4.1c0.2-0.2,1.4-0.6,2.1-0.8c1.5-0.5,2.3-0.8,2.7-1.1c0.7,4.2,3.4,14.7,4.1,16.4l0.1,0.1l0.1,0.1
		c0.3,0.3,1.4,0.4,2.9,0.4c-0.3,1-0.3,2.4,0.2,3.8c0.1,0.3,0.2,0.6,0.4,0.9c-1.7,0.3-2.9,0.9-3.9,1.7l-0.2,0.2l0,0.2
		c0.3,7.7,5.6,32.5,10.3,36.9l0.4,0.4l0.3-0.4c6-7,9.1-33.9,9-36.9l0-0.2l-0.1-0.1c-1-1.1-2.2-1.6-3-1.7c0.1-0.1,0.1-0.2,0.2-0.3
		c0.6-1.2,1-3,0.2-5.1c1.1-0.1,1.9-0.3,2.3-0.4l0.2-0.1l0.1-0.2c1.8-3.8,3.6-22.2,3.5-25.7c0.3-0.3,0.5-0.5,0.7-0.7
		c0.6-0.8,1.6-4.4,1.9-7.3c3,3.1,11.8,3.8,15.5,3.7c7.1-0.3,11.7-1.5,14.1-3.7c0.2,1.3,0.8,2.3,1.7,2.7c0.5,0.3,1.1,0.3,1.6,0.2
		c1,3.9,5.1,7,6.3,7.9c-0.6,4.2,0.9,18.5,1.8,21.1l0.2,0.5l0.5-0.1c0.5-0.1,1.2-0.3,2.2-0.4c-0.5,0.8-0.7,1.9-0.6,2.9
		c0,0.1,0,0.3,0.1,0.5c-1.2,0.1-1.7,0.3-2.4,0.6l-0.8,0.3l0,0.3c-0.6,11.1,3.3,32.5,6.4,38.6l0.3,0.6l0.5-0.4
		c6.2-5.3,11.5-32.2,11.5-36v-0.1l-0.1-0.1c-0.4-0.7-1.3-1.1-1.9-1.4c0.5-0.8,0.9-2,0.8-3.1c0-0.6-0.2-1.1-0.4-1.5
		c0.3,0.2,0.6,0.3,0.9,0.5l0.3,0.3l0.3-0.3c0.2-0.2,0.4-0.5,0.5-0.9c2.4,5.4,4.5,9.4,5.4,10.3l0.1,0.1l0.1,0c0.3,0.1,0.6,0.1,1,0.1
		c1.3,0,3.3-0.3,5.7-0.7c-0.2,1.7,0.5,3.5,1.7,4.8c-2.6,0.2-4.8,0.3-5.9,0.4l-0.3,0l-2.5,6.8l6.1,25.5l2.4,1.5l2.1,9.2
		c-0.2,0.5-0.9,1.9-1.1,2.8c-0.4,1.5,5.7,16.5,10.4,19.4l0.4,0.3l0.3-0.4C344.4,265.7,352.8,218,350.9,210.2z"/>
</g>
<g>
	<path class="st1" d="M189.2,71.9c-0.9,1.4-0.7,6.9-0.6,8.8c0.1,1.9,1.3,6.9,1.8,7.5c0.4,0.6,34.2-1.7,34.2-1.7l1.5,1.8h15.2l5.8-2
		l-2.6-18.8l0.7-0.4l-0.7-1.4c0,0-8.8-0.2-12.6,0c-3.9,0.2-8.8,1.7-8.8,1.7l-0.8,1.4L191,71.4L189.2,71.9z"/>
	<path class="st1" d="M222.3,68.8c0,5.5,1.2,14.9,2.4,17.8"/>
	<path class="st1" d="M223.1,67.4c0.1,4.2,2,18.6,3.1,20.9"/>
	<polyline class="st1" points="239.6,65.7 237.1,66.6 236.6,67.4 239.6,87.2 241.4,88.3 	"/>
	<path class="st1" d="M238.6,68.1c0.1-0.3,0.8-0.8,0.8-0.8h2.6l1,0.8l2.1,16.7l-0.4,0.6l-2.9,1L241,86L238.6,68.1z"/>
	<polyline class="st1" points="238.7,69.4 241.4,69.1 243.6,84.2 240.9,85.4 	"/>
	<path class="st1" d="M245.1,66.7c0.7,0,87.5-1.1,87.5-1.1l1.4,1.1c1.6,8.5,0.8,12.2,0.4,16.8l-1.3,2l-85.9,0.9"/>
	<path class="st1" d="M247,85.4c0-0.1,87.3-2,87.3-2"/>
	<path class="st1" d="M190.5,88.2c0,0,1.6,0.9,1.9,0.9c0.2,0,33.1-1.6,33.1-1.6"/>
	<path class="st1" d="M331.6,65.7c0.2,1.3,1.4,12.4,1.2,17.8"/>
	<path class="st1" d="M329.2,65.7c0.1,0.9-0.1,17,0.5,17.9"/>
	<line class="st1" x1="324" y1="83.7" x2="323.7" y2="81.9"/>
	<path class="st1" d="M323.1,74.9c0-0.4-0.5-9.1-0.5-9.1"/>
	<path class="st1" d="M322.3,75.3l1.4-0.7c0,0,0.5,0.3,0.5,0.7c0,0.5,0.6,5.9,0.6,5.9l-0.4,0.6l-1.5,0.2l-0.6-0.5V75.3z"/>
	<polyline class="st1" points="297.3,84.5 297.3,79 296.5,77.2 296.5,67.9 295.8,66.1 	"/>
	<polyline class="st1" points="289.2,66.2 289.2,69.6 290,72.9 289.6,77.9 289.1,78.9 289.1,82.8 	"/>
	<polyline class="st1" points="286.4,84.5 287.2,82.8 292.2,82.8 293.7,84.4 	"/>
	<line class="st1" x1="255.8" y1="66.6" x2="256.9" y2="76"/>
	<polyline class="st1" points="257.2,85.2 257.6,82.8 257.4,80.7 	"/>
	<path class="st1" d="M221.1,86.8c0.1-0.5-0.9-7.6-0.9-7.6l2.1-0.6l-1.1-3.6v-2.7h-1.7l-0.5-3.1"/>
	<polygon class="st1" points="233.9,71.3 231.8,75.7 236.6,76 	"/>
	<polyline class="st1" points="210.1,87.5 209.5,85.4 209.8,82 	"/>
	<polyline class="st1" points="209.8,79.7 208.9,77 208.9,73.3 209.4,69.9 	"/>
	<polygon class="st1" points="208.9,80.7 208.6,82 208.9,82.5 210.1,82 211.1,82.5 211.1,81.8 210.1,80.3 210.4,79.3 	"/>
	<polyline class="st1" points="203.2,70.4 203.2,74.8 204.3,80.2 204.3,85.7 205,87.7 	"/>
	<path class="st1" d="M193.1,71.2c0,0-1.1,5-1,6.6c0.1,1.6,1,3.9,1,3.9l-0.2,3.4l0.8,3.1"/>
	<polyline class="st1" points="192.8,88.3 191.4,86.4 191.8,82.5 190.9,80.3 191.4,71.4 	"/>
	<polyline class="st1" points="200.6,70.4 200.6,66.6 261.1,57.1 294.7,57.1 322.6,61.9 326.1,66.1 	"/>
	<polyline class="st1" points="212.9,64.7 214.6,60 249.7,55.7 253.7,58.3 	"/>
	<path class="st1" d="M219.7,59.4l0.9-3.7c0,0,23.1-2.3,36.9-2.3s31.2,0.3,34.2,0.9l2.9,2.8"/>
	<path class="st1" d="M291.7,54.3l-5.4-1.7v-0.8l4.3-0.8c0,0,0.4-6.2,0-7.2c-1.1-2.4-18.4-3.2-31.7-3c-13.3,0.2-30.3,2.5-36.7,5.4
		c-1,2.7-1.6,7.6-1.6,7.6l6-0.1l-0.2,1.3"/>
	<path class="st1" d="M223.9,53.9c0,0,25.3-2.6,33-2.5c7.6,0.1,29.1-1.8,33.8-0.3"/>
	<line class="st1" x1="286.4" y1="51.9" x2="237.1" y2="52.6"/>
	<line class="st1" x1="286.4" y1="52.6" x2="226.7" y2="53.8"/>
	<path class="st1" d="M225.5,45.1c-1.3,1.1-2.7,5.9-2.3,8.7"/>
	<path class="st1" d="M228.3,44.3c-1.7,0.9-3.5,5.1-2.9,9.4"/>
	<path class="st1" d="M231.1,43.7c-1.4,1.3-2.9,8.3-1.4,9.7"/>
	<path class="st1" d="M237.1,42.7c-1.1,1.9-1.5,8.9-1.1,9.9"/>
	<path class="st1" d="M249.5,41.3c-1.2,1.4-2.4,8.8-1.8,10.4"/>
	<line class="st1" x1="260.4" y1="40.9" x2="260.7" y2="49"/>
	<polyline class="st1" points="260,51.3 260,49.5 261.2,48.6 261.7,49.5 261.9,51.3 	"/>
	<path class="st1" d="M275.1,41.1c0,0,1.6,4.5,1.5,7.4"/>
	<path class="st1" d="M284.3,41.9c1,2.6,1.3,8.4,1.3,8.4"/>
	<polyline class="st1" points="286.4,42.2 286.4,43.4 288.4,46.1 289.1,49.9 288.6,50.6 	"/>
	<polyline class="st1" points="267.4,57.1 266.1,60.2 266.1,63.1 266.8,63.1 266.1,63.7 266.1,66.5 	"/>
	<path class="st1" d="M274,66.4l-1.2-1.1v-2l-0.5-0.9l1.2-0.6h3.1l1.1,0.6c0,0,1.3-0.1,1.3-0.6s-1.2-3.6-1.2-3.6h-1.2v-1.1"/>
	<path class="st1" d="M203.2,88.6c0.1,1.7,16.1,14,24.3,16c3.5,0,75.5-1.8,79.2-1.5c4-2,13.9-12.8,13.5-17.4"/>
	<path class="st1" d="M230.5,104.5c0,0,0.9,2.9,2,3.2c1.1,0.3,71.8-1.6,71.8-1.6l1.1-3.2"/>
	<path class="st1" d="M300.3,108.9l8.4,12.1v7c0,0-8.7,11.3-9.9,11.8c-1.2,0.4-61.3,1.3-63,0.7c-1.7-0.7-11.2-9.4-11.2-9.4
		s-2.5-3.9-1.2-8.6c1.3-4.7,11.2-12.6,11.2-12.6L300.3,108.9z"/>
	<line class="st1" x1="236.6" y1="107.8" x2="237.1" y2="110"/>
	<line class="st1" x1="298.1" y1="106.3" x2="297.3" y2="108.9"/>
	<path class="st1" d="M224,121.4c0,0,58.9,2,84.7-0.4"/>
	<path class="st1" d="M224.7,131.2c6.4,0.7,71.7,0.2,84-3.1"/>
	<path class="st1" d="M239.6,110c-1.9,1.5-5.6,9-6.2,11.6"/>
	<polyline class="st1" points="269.1,109.5 269.7,117.4 266.3,119.1 265,121.6 	"/>
	<path class="st1" d="M269.7,117.4c0,0,3.7-0.4,4.1,0c0.3,0.4,2.9,3.6,2.9,3.6v1.2"/>
	<line class="st1" x1="284.4" y1="109.5" x2="288.3" y2="119"/>
	<line class="st1" x1="287.1" y1="109.2" x2="292.8" y2="121.9"/>
	<path class="st1" d="M222.3,87.6c-0.4,3.7,5.2,14.4,9.5,16.8"/>
	<path class="st1" d="M231.1,88.3c0,0,3.6,10.8,7.5,16.2"/>
	<path class="st1" d="M214,88c2,5.6,12.9,16.1,14.3,16.5"/>
	<path class="st1" d="M207.2,88.4c1,2.6,17.8,15.3,20.4,16.2"/>
	<path class="st1" d="M298.7,85.8c-0.1,4.2-4.3,15.5-5.8,17.2"/>
	<path class="st1" d="M306.8,85.8c-0.2,5.7-5.2,15.1-7.3,17.2"/>
	<path class="st1" d="M302.8,85.8c0,4-3,13.1-6.2,17.2"/>
	<path class="st1" d="M236.6,131.4c-1.1-1.8-1.9-6.6-1.1-9.2"/>
	<path class="st1" d="M228.9,131.4c-1.2-2-2.9-5.8-1.3-9.8"/>
	<path class="st1" d="M227.9,131.3c-1.9-1.9-4.1-4.2-3.2-9.7"/>
	<polyline class="st1" points="272.7,140.5 271.6,134.9 266.6,133 265.9,131.1 	"/>
	<polyline class="st1" points="271.6,134.9 275.6,133.9 276.7,131.9 277.1,130.7 	"/>
	<path class="st1" d="M268.5,131.1c0.1,1,1.7,2,2.6,1.7s3.2-0.4,3.2-1.7"/>
	<path class="st1" d="M286.3,135.8l2.8-5.6c0,0-0.5-5.3,0-8"/>
	<path class="st1" d="M305.4,121.6c0.6,1.9,0.4,5.7-0.8,7.2"/>
	<path class="st1" d="M302.8,129.1c0,0,1.2-5.1,0.4-7.5"/>
	<path class="st1" d="M299.7,121.7c0.9,2.4,1,5.7-0.1,7.8"/>
	<path class="st1" d="M306.8,128.5c-4.5,5.5-8,10.9-11.7,11.6"/>
	<line class="st1" x1="301" y1="129.4" x2="292.4" y2="140.2"/>
	<path class="st1" d="M265.9,140.6c0,0,0.8,11.5,0.8,14.1c0,2.6,0.3,10.8-0.8,11.8"/>
	<path class="st1" d="M275,165.9c-0.8-1.2-0.6-9.5-0.7-12.3s0.3-12.9,0.3-12.9"/>
	<line class="st1" x1="266.7" y1="164.1" x2="274.3" y2="163.5"/>
	<path class="st1" d="M266.6,162.5c0.8,0.5,7.1-0.1,7.7-0.7"/>
	<path class="st1" d="M254.4,163.8c1-0.2,3.1-1.1,1.8-4.1c-1.3-3-6.4-14.2-7.9-14.9c-1.5-0.7-4.4-0.8-4.9,0.8"/>
	<path class="st1" d="M283.1,162.2c-1.7,0.6-1.8-4.6,0.7-8.6c2.5-4,6.4-11,8.7-7.8l0.4,0.7c0.5-0.2,1.6-2.8,1.4-6.4l9.2-11"/>
	<path class="st1" d="M293.1,146.2c-0.2-1.3-1.8-5.3-6-0.3c-4.2,5-6.5,11.3-6.5,14c0,2.8,0.5,3.3,1.5,3.2"/>
	<path class="st1" d="M232.4,149.9c0.5-1.9,7-9.1,12.5-2.3l2.3,1.9l-0.9,0.9c0,0-1.2,1.5-2.1,2.1c-0.9-2.5-4.5-5-6.2-1.1"/>
	<path class="st1" d="M248.3,147.3c-0.9,0.5-1.3,2.9-0.6,5.2c-0.4,0-4,2-4,2"/>
	<path class="st1" d="M239.1,152.6c1.2-1.1,1.8-1.3,2.9,0c1.1,1.3,4.8,4.5,4.8,8s-1.8,2.9-1.8,2.9"/>
	<path class="st1" d="M246.5,159.2l4.2-1.8c0,0,1.6,2.4,3.2,1.8"/>
	<path class="st1" d="M221.2,156.6c0.4-2.9,8.2-7.8,13.6-6.3s9,7.5,9.7,10.7s1.5,10.7-4,13.6c-5.4,2.8-10.2,2.3-14,0.3"/>
	<path class="st1" d="M223.7,153.3c2.7-1.7,11,0.6,13.4,7.6c2.4,7,0.5,15.4-4.4,15.6"/>
	<path class="st1" d="M225.6,152.1c2.9-0.6,10.5,0.5,13,7.8c2.3,6.6,2.4,13.3-2.3,16.3"/>
	<path class="st1" d="M223.1,180.9c0,0,7.2-12.7,7.9-14.2c1.5-3.2,1.4-4.9-2.7-6.8c-4.9-2.4-20.3-9.2-22.1-9.9s-3.2-0.4-4.4,1.7
		c-1.2,2.1-22.4,38.2-23.2,44.7c-0.3,1.5-1.4,3.4,1,4.3c2.4,0.9,23.9,8.7,24.9,9.2c1.1,0.5,5.4,0.7,6.1,0s2.1-5.2,2.7-6.3
		s4-9.5,4.3-10.2s0-2-0.7-3c-0.7-1-1.3-2-0.8-3.2c0.5-1.2,1.5-3.6,2-4.2C218.7,182.4,222.7,181.5,223.1,180.9z"/>
	<path class="st1" d="M227,159.3c1.8,0.9,2.2,2.7,0.4,5.8c-1.7,3.1-6,12.2-6.8,13.3s-5,1.8-6.1,2.1c-2,3.8-4.3,8.9-4.4,10
		c-0.1,1.1,2.5,2.4,2.1,3.7s-5,12.8-5.6,14c-0.7,1.2-2.5,1.7-4.2,1"/>
	<path class="st1" d="M212.3,193.5c0.8-0.1,5.5-1,5.5-1"/>
	<path class="st1" d="M210.2,190.4c0.4,0.1,6.1-1.4,6.1-1.4"/>
	<line class="st1" x1="214.5" y1="180.4" x2="218.2" y2="183"/>
	<line class="st1" x1="220.7" y1="178.3" x2="223.1" y2="180.9"/>
	<polyline class="st1" points="209.3,151.3 202.5,167.4 207.9,172.8 195.4,203.1 	"/>
	<path class="st1" d="M192.9,205.6c0.7-1.9,1.8-2.5,3-2s0.9,2.3,0.4,3.2"/>
	<polyline class="st1" points="198.7,195 201.2,195 207.2,181.3 205.9,177.7 	"/>
	<path class="st1" d="M181.6,201.5l0.4-3.7c0,0,5.5-12.4,6-13.4s-1.6-5.2-1.6-5.2"/>
	<line class="st1" x1="224.7" y1="158.3" x2="215.5" y2="180"/>
	<polyline class="st1" points="217.8,175.1 219.2,175.1 226.2,158.9 	"/>
	<line class="st1" x1="223.1" y1="173.9" x2="225.9" y2="176.5"/>
	<line class="st1" x1="223.5" y1="172.9" x2="226.1" y2="175.4"/>
	<line class="st1" x1="224.1" y1="171.5" x2="226.8" y2="174.3"/>
	<line class="st1" x1="224.8" y1="170.3" x2="227.5" y2="173.1"/>
	<line class="st1" x1="225.5" y1="168.8" x2="228.2" y2="171.8"/>
	<line class="st1" x1="226.4" y1="167.1" x2="229.1" y2="170.3"/>
	<line class="st1" x1="227" y1="165.7" x2="229.7" y2="169.1"/>
	<path class="st1" d="M183.5,202.2c-2.8,1.1-2.3,6.5-1,8.9"/>
	<path class="st1" d="M194,214.4c1.7-0.7,5.9-3.9,5.3-6.5"/>
	<path class="st1" d="M188.6,213c-1.5-1.7-2-6.4-0.5-9.2"/>
	<path class="st1" d="M186.2,203.1c-0.5,1.5-1.9,6.7,0.2,9.2"/>
	<path class="st1" d="M191.6,213.9c1.9-0.3,4.7-4.5,3.8-7.4"/>
	<path class="st1" d="M181.6,208.8h-4.8c0,0-2.5,47.7,4.1,68.4c6.1-4.1,24.9-45.1,28.5-60.1c0-1.1-12-5.1-12-5.1"/>
	<path class="st1" d="M209.3,217h-3.5l-3.4-1.8c0,0-7.8,1-25.7-6.5"/>
	<path class="st1" d="M205.9,217c0,0-16.2,51.6-25,60.1"/>
	<path class="st1" d="M229.7,150c-0.1-1.7,2.1-4.2,5.1-3.3"/>
	<path class="st1" d="M240.8,144.7c-0.1-0.5-0.7-1.2-0.7-1.2s-10.5-0.8-15.4,1.2c-2.4,5-1.9,9.4-1.9,9.4"/>
	<path class="st1" d="M241.6,173.9c0.8,0.6,1.1,1.4,3.4,0.4c2.3-1,5.1-3.2,5.7-4c0.6-0.8,2-5.7,1.9-8.5c0-0.3,0-1.4,0-1.4"/>
	<path class="st1" d="M242.9,174.7c2.5-0.6,4.9-6.7,3.8-14.1l4.2-1.7c0,0,0.6,1.9,3.8,2.1"/>
	<path class="st1" d="M223.7,180c0.1,2.4,3.5,15.8,4.2,17.6c1.1,0.9,15.5,0,18.6-0.8c1.8-3.7,3.7-23,3.4-25.7"/>
	<path class="st1" d="M231.9,203.4c-1.9,0.3-3.3,0.8-4.3,1.7c0.3,7.9,5.7,32.3,10.1,36.6c6-6.9,9-33.7,8.9-36.6
		c-1.5-1.7-3.4-1.7-3.4-1.7"/>
	<path class="st1" d="M231.3,197.9c-0.8,0.8-1.1,6.4,3.5,7.3c3.2,0.6,4.6,0.3,6.3-0.1c1.5-0.4,4.5-3.8,2.6-7.9"/>
	<path class="st1" d="M227.6,205.1c2.4,0.4,5.3,1.6,10.3,1.2c5-0.3,8.7-1.2,8.7-1.2"/>
	<path class="st1" d="M292.8,173.9c-0.7,3.5,0.9,18.6,1.8,21.1c2.1-0.6,13-1.9,17,1.2c0.6-0.6,0.7-2.7,0.7-2.7"/>
	<path class="st1" d="M298.2,194.4c-1.6,1-2.7,5.4,1.9,7c4.6,1.6,7.6,0.7,8.6,0c1-0.7,3-4.7,0-6.4"/>
	<path class="st1" d="M297.1,198.9c-1.9,0-2.3,0.3-3.4,0.8c-0.6,11.2,3.4,32.6,6.4,38.3c5.8-5.1,11.3-31.6,11.3-35.6
		c-0.6-0.9-2.3-1.4-2.3-1.4"/>
	<path class="st1" d="M293.7,199.7c1.8,1.7,5.2,3.5,8.8,3.8c3.6,0.3,8.9-1.1,8.9-1.1"/>
	<path class="st1" d="M298,150.2c-1.2-3.3-4.3-3.5-6.1-3.1c-2.8,0.6-6.9,5.2-7.5,8.1c-0.7,2.9-1.4,5.7-1.3,7"/>
	<path class="st1" d="M295.2,147.3c0-1.4,0.1-3.2,1.1-3.8c2.7-0.5,17.5,0.2,20.1,2.2c0,0.6,0,2.1,0,2.1"/>
	<path class="st1" d="M307.1,152.5c-1.2-2-8.1-3.6-13.3-1.1c-5.6,2.6-7.8,6.4-7.4,14.1"/>
	<path class="st1" d="M306.3,151.7c-2.5-1-11.8-0.6-10.6,12.3c0.8,9,7.8,9,7.8,9s-6,3.3-10.6,0.8c0,0-5.7-3.8-6.5-8.3
		c-1.3,0.9-3.3-0.3-3.3-3.4c-2.7,3.6-10.7,4.2-14.6,4.4c-3.9,0.2-12.5-0.7-15.2-3.6c0.7,0.2,1.8-1.3,1.4-2
		c-0.4-0.7-5.6-14.4-7.8-14.9s-3.4,0.4-3.4,0.4s-1.2-3.3-1.1-5.7"/>
	<path class="st1" d="M304.6,150.9c-4.4-0.8-11.4,2.8-10.9,11.4c0.5,8.6,3.9,11.1,8,11.6"/>
	<path class="st1" d="M324.3,145.1c-0.8-0.9-22.6,8.7-24.7,13.5c0.4,7.6,16,44.7,18.5,47.1c4,0.8,28.4-5.5,29.9-6.4
		C348,194.4,328.1,149.4,324.3,145.1z"/>
	<path class="st1" d="M323.8,145c-4.1,1.4-21.7,11-22.8,13.4c0.9,5.9,9.9,31.6,19.1,47.2"/>
	<line class="st1" x1="299.6" y1="158.5" x2="301" y2="158.4"/>
	<path class="st1" d="M323.3,145.2c0,0-3.1,13.2-3.4,17.9c-4.3,2.4-14.7,8.4-14.7,8.4"/>
	<polyline class="st1" points="305.8,173.3 320.4,164.9 337.2,171.1 	"/>
	<line class="st1" x1="292.8" y1="146.5" x2="292.8" y2="146.9"/>
	<path class="st1" d="M296.3,143.5c1.6-0.1,17.1-1,21.1,2.1c0.2,0.6,0,1.8,0,1.8"/>
	<line class="st1" x1="316.3" y1="145.7" x2="317.3" y2="145.5"/>
	<line class="st1" x1="317.5" y1="201" x2="341.4" y2="180.9"/>
	<polyline class="st1" points="326,194 328.4,195.6 338.5,188.3 338.5,183.4 	"/>
	<polyline class="st1" points="336.5,185.1 336.5,188.5 327.8,195.2 	"/>
	<line class="st1" x1="336.5" y1="188.5" x2="338.5" y2="188.3"/>
	<path class="st1" d="M325.3,204.9c-0.6,2.6,0.9,5.1,3.1,6.3"/>
	<path class="st1" d="M343.6,210.3c2-0.8,4.5-6.8,0-9.7"/>
	<path class="st1" d="M336,202.5c2.5,0.8,2.6,6,0.5,7.8"/>
	<path class="st1" d="M339.3,210.3c2-1.5,4.2-5.9,1.1-8.8"/>
	<path class="st1" d="M318.3,217.6l2.3-6.4c0,0,27.9-2,29.8-0.9c1.8,7.3-6.3,54.8-12.4,65.2c-4.7-2.9-10.5-17.8-10.2-18.8
		c0.3-1,1.2-2.9,1.2-2.9l-2.2-9.6l-2.4-1.5L318.3,217.6z"/>
	<line class="st1" x1="320.6" y1="211.2" x2="338" y2="275.5"/>
	<line class="st1" x1="332" y1="253.5" x2="345.3" y2="251.5"/>
	<polyline class="st1" points="325.8,230.5 336,224.8 336.5,228.5 343.6,228.2 344.9,224.8 349.5,227.1 	"/>
	<path class="st1" d="M349.8,224.8c-0.7-0.6-7.3-3.9-7.3-3.9l-0.6,5.1l-4.3,0.4l-0.5-5l-11.8,7.2"/>
	<path class="st1" d="M262.3,148.3c-0.1-1.2,2-2.1,2.1-0.5c0.2,1.6,0.6,9.2,0.5,10.1c-0.1,0.9-1.5,1.2-1.7-0.1
		S262.3,148.3,262.3,148.3z"/>
	<path class="st1" d="M275.7,156.8c0.1,1,1.5,1.8,1.4,0.2c-0.1-1.5,0-9,0-9.7s-1.4-1.5-1.4,0C275.7,148.8,275.7,156.8,275.7,156.8z"
		/>
	<path class="st1" d="M297.3,148.9c0.7-1.9,7.3-2.1,7.3,2"/>
	<polyline class="st1" points="193.4,252.5 190.8,245.7 192.1,233 176.8,218.4 	"/>
	<polyline class="st1" points="176.8,216.2 192.8,229.9 196.7,227.6 203,226 	"/>
	<path class="st1" d="M268,121.9c0.3-1.9,2.8-2.3,3.5-2.2s2.6,0.4,2.9,2.2"/>
	<path class="st1" d="M281.9,124c-1.9,0-20.9,0-24.3,0s-3.3,5.1,0,5.1s23-0.6,24.9-0.6S285.6,124,281.9,124z"/>
</g>
</svg>
