
<svg id="bp-999" viewBox="0 0 527 318"><style type="text/css">
	.st0{fill:#fff6;stroke:#33f;stroke-miterlimit:10;}
	.st1{fill:none;stroke:#33fa;stroke-width:0.75;stroke-miterlimit:10;}
	.st2{fill:none;stroke:#33fa;stroke-miterlimit:10;}
</style>
<g>
	<path class="st0" d="M376.2,107.3c1.2-1.3,3.6-4.6,3.1-9.4c-0.3-3.9-1.8-7-4.2-9c-2.1-1.6-4.9-2.4-7.5-2c-0.5-1.2-0.9-3.4-0.9-3.4
		l0-0.1l-9.1-9.1l-2.1-7.9l-0.1-0.1c-0.6-0.6-14-14.8-16.4-16.8c-2.4-2-7.3-6.3-14.8-6.4l-0.2-0.2c0,0-0.1-0.1-0.1-0.1
		c-0.1-0.3-0.8-1.4-2.4-2.6c-5.6-17.1-16.1-20.2-26-20.5c-0.1,0-0.2,0-0.3,0c0,0,0,0,0,0v0c-0.5,0-0.9,0-1.4,0c-0.2,0-0.5,0-0.7,0.1
		c0,0,0,0,0,0v0c-1.8,0.2-3.8,0.7-5.6,1.3l0,0c0,0-0.2,0.1-0.5,0.2c-2.4,0.9-4.5,2-5.1,3c-1.9,0.3-8,2.1-11.9,6.6
		c-3.4,4-4.9,8.7-5.2,10.1h-6.2l-0.8,1.3l-2.4,0.1v1.1l-6.8,0.1c-0.1-0.5-0.5-1.2-1.4-1.8c-1-0.5-3.7,0-7.7,0.9
		c-1.2,0.3-2.3,0.5-3.1,0.6c-3.3,0.5-3.5,1.4-3.7,4.7c-0.1,1.7-1.5,2.7-4.1,3.1l-0.3,0c-0.5,0.1-1,0.2-1.2,1
		c-3.3-0.4-9.4,0.8-12.5,1.5l0,0c0,0-0.1,0-0.1,0c-0.9,0.2-1.5,0.4-1.7,0.4c-0.8,0.3-1.3,1.6-1.6,2.3h-8.9v-1.9l-2.6-4.1l-0.3,0
		c-0.5,0.1-13.3,1.3-16,2.2c-1.1,0.3-1.8,0.9-2.1,1.6c-0.1,0.3-0.1,0.7-0.1,0.9l-1.1,0.1l-1.5-1l-0.2,0c0,0-8.4,0.8-9.2,0.9
		c-0.3,0-0.6,0.2-0.7,0.5c-0.1,0.3-0.1,0.6,0,0.9l-7.5,0.7v-1.1h-1.4l-5.9,1.4v3.8h3.6v1.1h2.5c0.6,0,0.9-0.5,1.1-0.8
		c2.3,0,4.1-0.1,5.4-0.1c-6.7,2.1-17.4,6.1-18.2,7c-0.7,0.8-0.6,2.8-0.5,5.7c0,0.8,0.1,1.6,0.1,2.3c0,3.3,8.2,4.9,8.5,4.9
		c1.1,0.2,2.5,0.5,3.5-0.8c0.7,0.4,1.9,0.5,3,0.6c1.5,0.1,2.9-0.9,3.6-2.5c1.4,0.1,3-2,4-3.4c0.2-0.2,0.3-0.4,0.4-0.6
		c0.4-0.5,0.4-1.5,0.3-2.4c0.5,0.2,1.1,0.3,1.9,0.3c1.8-0.1,3.7-1.1,4.1-2.7c3.5-0.3,27.6-2.3,27.8-2.3c0.1,0,3-0.2,4.5-0.4
		c1.1,2.6,8.8,3.1,11.2,3.1c2,0.1,5.2-0.4,6.9-0.7l-2.4,3.6l3.1,1.8l13.8-1.2l4.5,3.7l19.6-0.3l-0.4,20.6l0,0.1l0,0.1
		c0.1,0.6,1.3,5.5,2.6,7.1c0,0.1,0,0.2,0,0.3c-0.1,1.1-0.2,3,1.1,4.3c1.2,1.2,3.4,1.2,4.4,1.2c0.5,1.6,2.3,7.5,3,9.9
		c0.1,0.5,0.4,1.2,0.6,1.9c1.2,3.7,3.2,9.7,2.9,13.7c-1.6,1.3-1.8,3.3-1.9,5c0,0.3-0.1,0.7-0.1,1c-4.8,0.6-12.3,8.2-16,13.7
		c-3,4.4-21.8,33.8-25.1,42.7c-5,0.2-9.3,4.5-9.8,8.4c-0.4,3.2,0,8,2.5,11.2c-0.1,2.5,1.6,12.5,3.4,23.1c1.5,8.6,2.9,16.8,3.1,19.9
		c0.5,6.7-3.1,11.6-3.1,11.6l-0.3,0.3l3.6,3.7l-3.5,1l0.1,2.4l-0.6,0.2l-1-0.6l-9,3.6l-1-1.5l-16.9,4.7l0.7,2.2v2.9l2.7,3.3
		l16.6-0.4l12.4-1.5v-1.5l1.3-0.1l0.8,1.8l6.4-2.7l1.2,0.1l1.4,1.6l12.6-1.8l-1.4-7.9l-2.8-2.1c0.4-0.3,0.9-0.9,1.2-2l0.1-0.3
		l-0.2-0.2c-0.5-0.7-4-6-4.2-10c-0.1-3.6,0.7-9,0.9-10.3l3-1.2l2.9-28.5l-0.2-0.2c-0.2-0.2-5.2-4.9-7.9-6.6c3.3-2.6,4-9.1,3.2-12.3
		c1.8-1.9,12.6-13.6,14.2-15.3l2.2,0.3l0.2-0.2c0.5-0.7,13-16.4,16.2-21.1c6.1,3.7,12.7,2.4,16.4-0.7c0.1-0.1,0.1-0.1,0.2-0.2
		c0.1-0.1,0.2-0.2,0.3-0.3c0.1,0,0.2,0.1,0.3,0.1c0.5,0.2,1,0.4,1.7,0.5c0,0,0,0,0,0l0,0c0.5,0.1,1.1,0.1,1.9,0.1
		c-0.2,0.7-0.3,1.5-0.4,1.7l0,0.2l7.2,13.4l0.1,0.1c0.1,0.1,3.1,3,4.5,3.8c1.9,3.9,9.7,15,12.8,18.3c-0.1,4.1-0.2,10.9,3.6,15.6
		l0.1,0.1l0.2,0c0.5,0.1,1.2,0.1,1.6,0.1l0.4,2.9l5.8,8.5c2.3,7.6,5.8,19.1,5.9,19.6c0,0.2-0.2,9.3-0.4,15.8l-1.6,1.1l-0.8,5.2
		l0.8,1.6l-3,4c-3.8,0.9-5.1,3.4-5.5,4.3l0,0c0,0,0,0,0,0c-0.1,0.2-0.1,0.4-0.1,0.4v3.9l0,0.2c0.1,0.2,2.3,4.3,9.9,4.3
		c0.1,0,0.1,0,0.2,0c7.7-0.1,10.7-3.3,10.8-3.5l0.1-0.1v-2.4l1.8-3.2l-0.6-2.4l0.8-2.4l1.5-1l1.6-3.1l-0.8-5.5l-0.1-0.1
		c-0.7-0.5-1.5-1.2-1.9-1.5l-0.8-2.7l-5.9-15.5l1.5-5l-0.8-8.1l0.5-6.6l0-0.1c-0.1-0.4-2.1-10-3.1-13.3c0.3-0.7,0.9-3.3,0.5-8.2
		c-0.5-5.3-2.3-9.9-4.5-11.4l-0.8-0.2c-1.7-0.4-4.9-1.3-6.6-1.4c-0.5-4.1-6.3-24.3-6.4-24.5c-0.3-1-1.7-3.9-3.7-7.6l5,2.2l6.4,0.9
		l0,0l4-0.5l4.1-4.8v-0.8h1.1l4.6-6.9l0.2-2.4c1.4-2.1,18-27.3,19.4-46.9l0-0.3l-0.2-0.2C377.7,108.5,376.8,107.8,376.2,107.3z
		 M348.7,119.7c0,1.2-1.4,6.1-2.8,9.4l-0.2,0.4l0.3,0.2c0.5,0.4,1,1.3,1.4,1.9c0,3.2-3.3,13.3-4,15.3l-2,0l-2.1,2.1l-3.2,0.2
		l-3.7,3.1l0.2,5c-0.1,0-0.2,0-0.2-0.1l-0.2,0l-2.3,2.5l0.3,2.5c-4.1-7.2-8.7-14.8-10.7-16.7c0.1-0.7,0.2-1.4,0.3-1.8
		c0.7-0.2,2.3-0.6,2.6-0.8l0.3-0.1v-0.3c0-2-1.4-8-5.7-8.8c-0.3-6.1,2.4-11.2,3.6-12.3l0.2-0.1v-0.2c0-1-0.2-4.9-0.2-5.9l3.1-3
		l3.2-1.5l0-0.3c0-0.1,0.3-8.4,0.1-12.5c-0.2-3.5-2.1-8.3-2.8-9.9l1.9-0.4L332,93l-0.5,3.4l9.3,9.2l4.2,0.1l4.2-2.7l1.3,1.3l2.8,0.1
		c-0.1,3.3,2.3,5.7,3.3,6.6l-4.4,4l0,0.2c0,0.1,0.1,1.4,0.2,2.2c-0.7,0.6-2,1.4-3.2,1.6l-0.5,0.1L348.7,119.7z"/>
</g>
<g>
	<ellipse transform="matrix(0.1887 -0.982 0.982 0.1887 202.0699 445.4616)" class="st1" cx="370.6" cy="100.4" rx="7.3" ry="5.4"/>
	<ellipse transform="matrix(0.1887 -0.982 0.982 0.1887 201.8728 444.8054)" class="st1" cx="370.1" cy="100.2" rx="9.1" ry="6.7"/>
	<ellipse transform="matrix(0.8336 -0.5524 0.5524 0.8336 20.5072 193.0662)" class="st1" cx="330.7" cy="62.5" rx="8.4" ry="9.9"/>
		<ellipse transform="matrix(0.8336 -0.5524 0.5524 0.8336 20.4526 193.0173)" class="st1" cx="330.6" cy="62.6" rx="9.9" ry="11.7"/>
		<ellipse transform="matrix(0.9747 -0.2235 0.2235 0.9747 -27.1856 75.2596)" class="st1" cx="318.9" cy="157.8" rx="4.8" ry="8.7"/>
		<ellipse transform="matrix(0.9668 -0.2557 0.2557 0.9668 -30.1109 86.8833)" class="st1" cx="319.1" cy="159.2" rx="6.1" ry="12.5"/>
		<ellipse transform="matrix(0.9969 -7.921474e-02 7.921474e-02 0.9969 -15.7953 28.4631)" class="st1" cx="350.9" cy="213.3" rx="3.1" ry="9.3"/>
		<ellipse transform="matrix(5.972693e-02 -0.9982 0.9982 5.972693e-02 16.8922 444.4083)" class="st1" cx="244.3" cy="213.2" rx="6.6" ry="5.5"/>
		<ellipse transform="matrix(5.972693e-02 -0.9982 0.9982 5.972693e-02 17.9027 445.2541)" class="st1" cx="245.3" cy="213.1" rx="8.2" ry="6.9"/>
		<ellipse transform="matrix(5.972693e-02 -0.9982 0.9982 5.972693e-02 18.1542 445.4015)" class="st1" cx="245.5" cy="213.1" rx="11.4" ry="9.8"/>
		<ellipse transform="matrix(5.972693e-02 -0.9982 0.9982 5.972693e-02 -53.8942 516.6456)" class="st1" cx="247.3" cy="286.9" rx="3.9" ry="3.6"/>
	<circle class="st1" cx="247.2" cy="286.4" r="4.4"/>
	<polyline class="st1" points="205.9,289.3 222.3,284.7 224.8,292 224.7,294.7 	"/>
	<polyline class="st1" points="206.2,289.3 209,292.6 224.8,292 236,290 	"/>
	<line class="st1" x1="236.7" y1="291.7" x2="231.5" y2="281.1"/>
	<line class="st1" x1="233.7" y1="281.3" x2="238.8" y2="291.6"/>
	<line class="st1" x1="237.5" y1="277.8" x2="243.2" y2="284.4"/>
	<line class="st1" x1="255.8" y1="281.1" x2="251.3" y2="284.7"/>
	<line class="st1" x1="251.6" y1="286.6" x2="259.1" y2="283.5"/>
	<line class="st1" x1="247.8" y1="290.7" x2="259.8" y2="287.7"/>
	<line class="st1" x1="250.3" y1="283.2" x2="249.3" y2="259.1"/>
	<polyline class="st1" points="254.1,258.1 243.2,260.2 244.1,283.2 	"/>
	<path class="st1" d="M257.4,253.6c-2.4-0.6-9.9-9.2-8.2-30.1"/>
	<path class="st1" d="M256.7,207.9c0.3-0.3,0-7.8,0-7.8l8.4-8.5l4.6,2.3"/>
	<path class="st1" d="M257.4,185l7.7-3.4l9.9-13.7l-6.8-0.7L257.4,185l7,5.5l7.2-3.3c0,0,7.5-11,8.6-12.9c1.1-1.9-2.8-6.2-5.1-6.4
		l2.1-3.6"/>
	<path class="st1" d="M265.2,181.6c2.8,0,6.6,2.5,6.4,5.6"/>
	<polyline class="st1" points="270.1,167.4 272.1,165.2 276.7,165.2 	"/>
	<path class="st1" d="M280.8,137.1c-1.6,2.5,0,8.7,0,8.7s2.8-0.1,4.3,0c12.2-8.7,23.5-11.5,31.5-11.8"/>
	<path class="st1" d="M319.4,143.3c-2.9-1.9-8-2.4-14.4,0.8s-18.8,11.4-19.9,12.8c-1.8,1-4.7-0.8-5.4-1.9l0.7-11.8"/>
	<path class="st1" d="M278.7,143.3c-0.1,1.3-0.3,9.3,0.8,10.5"/>
	<path class="st1" d="M285.2,147.7c1.7-1.5,22.2-13.6,30.2-12.2c2.5,0.4,4.3,0.8,5.6,2.2"/>
	<line class="st1" x1="348.1" y1="165.4" x2="345" y2="171.2"/>
	<line class="st1" x1="345.3" y1="165" x2="341.7" y2="170.7"/>
	<line class="st1" x1="341.2" y1="162.8" x2="337.9" y2="169.9"/>
	<path class="st1" d="M337.6,161l-3.4,3.4l-0.5-1.1l3-4.5c-1.2-0.5-4.4-1.2-4.4-1.2l-2,2.2l0.5,4.5l1.7,3.2l6.2,2.8l6.3,0.9l3.8-0.5
		l4-4.6V165"/>
	<polyline class="st1" points="343.8,147.4 345,151.5 341.3,154.6 	"/>
	<path class="st1" d="M345,151.5l1.6,0.6c0,0,2.8-5.8,5.6-10.5c2.9-4.7,10.8-12.9,12.4-12.1c1.6,0.8-2,13.7-6.1,19.7
		c1,3.8-0.6,6.7-0.6,6.7s-5.5,4.9-8.2,3.7c-2.8-1.2-3.8-3.9-3.2-7.6"/>
	<path class="st1" d="M346.5,152c1.4-2.8,6-8.2,9.7-6.7c2.5,1,2.3,3.8,2.3,3.8"/>
	<line class="st1" x1="246.5" y1="201.8" x2="237.5" y2="199.8"/>
	<path class="st1" d="M246.2,201.7c-3.8-0.9-14.4-0.6-14.6,10.5c-0.2,11.1,10.5,11.9,10.5,11.9"/>
	<path class="st1" d="M243.4,201.1c-3.8-0.8-13.1-0.1-13.3,9.8c-0.2,9.8,5.3,10.7,6.4,11.3"/>
	<polyline class="st1" points="230.3,218.7 232.5,223 240.9,227.5 249,224.1 	"/>
	<path class="st1" d="M238.9,200.1c1.8-5,19.1-33.7,24-40.8c4.9-7.1,13.3-14.4,15.8-14.5"/>
	<path class="st1" d="M333.9,210.3l4.8,5.4c0,0,0.3,0.2,1.4,0c-0.6-4.2-0.6-13,3-14.7"/>
	<path class="st1" d="M348.2,206.9c0.5-1.5,3.9-2.6,4.7,6.5c0.8,9.1-2.4,9.2-3.1,7.8"/>
	<path class="st1" d="M346.1,201.4c-1.8-0.3-7,4.1-4.9,13.8c2.1,9.7,5.6,10,5.6,10l5.8-0.6l1.9-2.9"/>
	<path class="st1" d="M342.1,225.7c-1.9-1.4-2-8.3-3.4-10c-12.3-15.1-21.9-37.3-27-45s-4-22.7,0-24.5c4-1.8,6.7-2.1,10.1,3.2"/>
	<line class="st1" x1="339.3" y1="225.8" x2="343.1" y2="225.8"/>
	<line class="st1" x1="340.2" y1="215.7" x2="345.5" y2="237.5"/>
	<line class="st1" x1="352.6" y1="224.6" x2="357.2" y2="242"/>
	<polyline class="st1" points="345.5,224.5 353.9,260 353.8,270.2 	"/>
	<polyline class="st1" points="351.1,275.7 350.6,279.6 346.2,285.6 	"/>
	<polyline class="st1" points="351.1,273.2 349.4,274.4 348.6,279.3 349.5,281.1 	"/>
	<path class="st1" d="M363.2,273c0.1,0.2,2.2,1.8,2.2,1.8l0.8,5.2l-1.5,2.9l-1.5,1l-0.9,2.6l-1.3-4.3c0,0-3.7-4.7-6.4-4.6
		c-2.6,0.1-4.1,1.9-4.1,1.9"/>
	<polyline class="st1" points="361.6,275.7 362.1,280.3 363.2,284 	"/>
	<path class="st1" d="M364.7,283c-0.7-1.7-1.7-5.1-1.2-9"/>
	<path class="st1" d="M354.6,277.7c0.1,1.8-0.8,5.8-2.9,7.4"/>
	<path class="st1" d="M362.3,286.6l0.6,2.4l-1.8,3.2v2.3c0,0-2.9,3.3-10.5,3.4s-9.7-4.1-9.7-4.1v-3.9c0,0,1.2-4.8,8.5-4.7
		c7.3,0.2,10,4.3,10,4.3l1.9-3.1c0,0-0.8-2.9-2.5-4.6c-1.7-1.7-3.2-3.6-5.9-2.3c-2.6,1.3-3.5,2.3-4.3,3.1"/>
	<path class="st1" d="M342.4,287.3c-0.8,2.3-1.4,5.9,6.4,5.9s10.5-3.7,10.5-3.7"/>
	<path class="st1" d="M341,289.4c-0.1,2.9,1,5.1,6.7,5.2c5.8,0.1,10.4,1.8,14.8-6.9"/>
	<path class="st1" d="M319,145.7c-4.2-2.8-16.2-5.1-12.5,16.5c1.2,4.8,8.6,22.1,14.5,29.8"/>
	<path class="st2" d="M306.4,149.4c-2.2,0.2-7,2-5.9,11.4c1.1,9.4,6.6,11.6,6.7,11.6"/>
	<path class="st2" d="M301.6,152.8c-1.2-0.1-3.4,3.8-2.6,8.1c0.8,4.4,2.1,6.9,4.2,7.6"/>
	<path class="st2" d="M304.7,172c-3.6-1.6-8.3-7.1-8.8-12.2c-0.4-5.2-0.3-10.4-0.3-10.4"/>
	<path class="st2" d="M294.4,150.2c-1.9,2.7-4.1,13.3,2.6,18.3c6.7,5,7.6,3.7,7.6,3.7"/>
	<path class="st2" d="M279.8,155.2c-0.8,4.9-0.6,11.8,8.4,17.5"/>
	<path class="st2" d="M279.5,154.2c-0.9,0.8-4.3,10.2,4.4,15.4"/>
	<path class="st2" d="M278.9,151.6c-1.9,2-5,9.9,1.6,15.2"/>
	<path class="st2" d="M278.7,149.4c-2.6,2.3-3.9,5.7-3.4,9c0.4,3.3,1.5,5.5,4.8,7.9"/>
	<path class="st2" d="M272.2,110.7c-1.1-1.5-1.4-2.6,3.3-1.9c4.7,0.7,13.2,5.6,17.8,6.1c4.6,0.5,23.9,0.6,26.8-0.2"/>
	<path class="st2" d="M315.9,115.1c0.1,0.8-0.4,9.6-0.4,9.6l-1.2,9.2"/>
	<polyline class="st2" points="312.6,115.2 312.6,125.3 311.1,134.6 	"/>
	<polyline class="st1" points="285.2,112.3 285.1,145.8 285.7,156.2 	"/>
	<path class="st1" d="M279.1,109.8c-0.1,3.8,2.5,19.5,2.9,23.5c0.4,4-0.9,11.7-1.2,12.5"/>
	<path class="st1" d="M275.3,114.5c1.2-1.4,2.9-3.1,9.1-2.5"/>
	<path class="st1" d="M276.5,118.6c1.2-1.7,8.9-3.1,16.7-1.8s19.4,6.2,19.4,6.2"/>
	<path class="st1" d="M301.4,115.2c4.6,0.7,11.3,4.1,11.3,4.1"/>
	<path class="st1" d="M277.6,122.3c1.1-0.8,8.7-1.9,14.7-1c6,0.9,20.1,5.2,20.1,5.2"/>
	<path class="st1" d="M279,126.5c3-0.9,11.7-0.6,15.6,0s17.3,3.5,17.3,3.5"/>
	<path class="st1" d="M280.2,131.1c2-0.5,11-1.1,31.3,1.5"/>
	<path class="st1" d="M280.8,135.2c2.2-0.3,17.1,0,23,1.1"/>
	<path class="st1" d="M280.2,139c2,0.7,11.1-0.6,14.9,0.9"/>
	<path class="st2" d="M281.4,142.8c0.8,0.6,5.4,1.2,6.7,1"/>
	<path class="st2" d="M271.5,109.2c-0.7-2.7-0.5-9.1,1.4-11c2.8,1.5,4.6,10.3,7.2,11.9"/>
	<path class="st2" d="M268.8,105.3c-0.8-4.8-0.7-12.4,1.7-12.5c2.4-0.1,9.1,2.5,16.2,11.4c7.1,8.9,18.7,11.1,18.7,11.1"/>
	<path class="st2" d="M307.3,115.2c-1.2-3.2-1.9-13.1,1.7-18.7s10.6-12.1,13.2-1.2c1.9,8,1.7,15.9,1.7,15.9"/>
	<path class="st2" d="M318,115c-2.8-0.6-10.3-5.8-11-13.3"/>
	<path class="st2" d="M308.5,154.6c0.3,8,7.7,19.2,14.3,19.5c6.6,0.3,6.7-10.2,3.8-17"/>
	<path class="st2" d="M349.2,119.7c1.5,0.4,12.6-3.5,15.5-9.5l-4.2-3.7l-2,1.7l1.5,3.5c-0.7,0.7-4.3,4.1-7.1,6.1"/>
	<path class="st2" d="M362.7,112.9c2.2,0.3,10.2,2.1,14.8-3.9"/>
	<path class="st2" d="M364.3,110.9c2,0.7,8.2,1.8,11.2-3.5"/>
	<path class="st2" d="M367.2,87.6c-3.9,1.4-12.1,9.1-7.2,18.9"/>
	<polyline class="st2" points="366.6,87.8 362,82.6 360.8,83.3 356.5,92.6 358.6,100.2 	"/>
	<polyline class="st2" points="357,74.6 340.8,57.7 339,57.5 	"/>
	<path class="st2" d="M339.8,58.9c5.1,5.2,6,10.9,3.8,13.4s-10.4,6-19.3-2"/>
	<path class="st2" d="M344.6,70.3l13.2,11.2c0,0-2.6,4.4-3.9,6c-1.3,1.7-5,1.7-5.3,0.4c-0.3-1.3-0.2-3,0-3.6
		c-3.1-2.6-7.8-8.3-11.3-9.1"/>
	<polyline class="st2" points="353.8,104 356.2,102.3 358.5,101.7 	"/>
	<polyline class="st2" points="349.2,102.3 351,101.1 344,93.3 344,90.3 341.1,88 335.1,87.6 329.8,82 330.6,74.3 	"/>
	<polyline class="st2" points="332,96.2 336.5,96.2 344.8,105.2 	"/>
	<line class="st2" x1="336.5" y1="96.2" x2="341.1" y2="88"/>
	<path class="st2" d="M344,90.3l2.1-1.9l2.5-0.4l-1.8,1.9l9.3,12.5c0,0,0.3,3.8,2.3,5.9"/>
	<polyline class="st2" points="329.8,82 328,84 336,91.4 335.5,93.6 333.8,93.6 332.5,92.8 	"/>
	<line class="st2" x1="326.3" y1="86.8" x2="328" y2="84"/>
	<path class="st2" d="M317.6,76.6c2.4,4.8,9.3,9.2,9.3,9.2"/>
	<path class="st2" d="M329.9,81.2c-3.2-2.8-8.3-4.5-10.7-4.6c-2.4-0.1-3.3,0.3-3.3,0.3s0.9,5,3.5,7.1c2.6,2.1,4.1,3.4,4.1,3.4"/>
	<path class="st2" d="M323.9,43.6c-7.8,0.3-16.1,7.5-16.2,16.7c0,6.8,3.6,13.7,8.2,16.6"/>
	<path class="st2" d="M319.3,44.6c-6.1,1-14.1,8-12.9,18.4c1.2,10.4,6.3,11.4,7.5,12.4"/>
	<path class="st2" d="M313.7,47c-5.1,2.1-8.8,7.2-8.8,15.5s6.2,14.1,11,14.4"/>
	<path class="st2" d="M316.5,79.3l-13-1.9c0,0-0.6-17.7-0.6-21.1c0-3.4,4-17,20.4-13.2c0,0-5-8.9-22.7-5.9
		c-17.8,3-16.3,23.7-16.3,23.7l16,19.6c0,0,15.9,0.1,16.5,0l-0.4,1.6h-16.1l-16.9-20.6c0,0-3.3,9.2-4.4,12
		c-1.1,2.8-6.7,12.5-10.7-1.6"/>
	<line class="st2" x1="303.6" y1="77.4" x2="300.5" y2="80.4"/>
	<path class="st2" d="M293.1,20.2c2.1-0.1,11.4,3.2,13.9,16.3"/>
	<path class="st2" d="M295.2,20.2c4,0,11.8,6.5,13,16.4"/>
	<path class="st2" d="M295.6,20.8c-6.7,0.3-16.4,8.6-17,19.7s-0.4,17-0.4,17s2.9,3.3,5.3,3.9"/>
	<path class="st2" d="M281.2,60.3c0,0-3.7,11-4.3,11.8c-4.7,0-13-5.9-14-9.1"/>
	<path class="st2" d="M278.6,74.6c-2.3,0.2-9.5,0.3-15.8-8c-0.5-10.5,2.4-25.1,2.4-25.1"/>
	<path class="st2" d="M266.7,77.1c0.1-1.5,0.5-6.1,0.5-6.1"/>
	<path class="st2" d="M263.6,51.7c2,0.7,6.1,0.8,12-14.5s16.7-15.6,16.7-15.6"/>
	<path class="st2" d="M263.8,50c2.7,0.3,6.3-1.7,10.3-13.3s13.5-15.2,13.5-15.2"/>
	<path class="st2" d="M264.3,47c0,0.1-6,4-6,4H249l-20.1,1.8l-1.2-0.9"/>
	<line class="st2" x1="250.1" y1="51" x2="248.1" y2="44"/>
	<polyline class="st2" points="255.8,44 255.8,47.5 258.1,47.5 259.7,50 	"/>
	<line class="st2" x1="258" y1="42.7" x2="258.1" y2="47.5"/>
	<line class="st2" x1="249.1" y1="46" x2="255.8" y2="46"/>
	<path class="st2" d="M262.8,58c-5.4,0.4-16.5,1.3-18,1.3c-1.5,0-2.4,2-2.1,3.2c0.3,1.2,0.8,2.4,2.8,2.4s17.3-1.3,17.3-1.3"/>
	<path class="st2" d="M265.9,69.9c0,0-19.8,0.1-21.6,1.1c-1.8,1-13.8,1.1-13.8,1.1"/>
	<polyline class="st2" points="228.3,74.9 234.6,66.2 234.6,58 230.5,53.9 227.5,52.8 	"/>
	<polyline class="st2" points="231.9,72.1 236.1,66.2 236.1,58 231.4,52.8 	"/>
	<polyline class="st2" points="247.2,71 250.7,74.9 266.9,74.9 	"/>
	<line class="st2" x1="243.7" y1="71.2" x2="249.7" y2="77.4"/>
	<path class="st2" d="M211.5,57c-0.8,1.3-1,3.8-1,5.9c4.3,1.4,18.3,2,24.1-1.4"/>
	<path class="st2" d="M228.5,69.3c2.6-0.7,6.1-3.1,6.1-3.1"/>
	<line class="st2" x1="210.5" y1="62.9" x2="209.7" y2="67"/>
	<path class="st2" d="M234.6,58.7c-9,5-21.4,2-23.9,1.2l-9.2-1.2"/>
	<path class="st2" d="M214.6,54.2c-1.7,0.5-4.1,2.4,6.1,2c10.1-0.4,12.7-1.9,8.7-2.7"/>
	<polyline class="st2" points="201.8,57 201.5,60.1 184.9,61.4 184.9,56.2 	"/>
	<polyline class="st2" points="182,55.7 183.3,57 201.8,54.8 	"/>
	<line class="st2" x1="180.1" y1="55.8" x2="180.1" y2="59.3"/>
	<path class="st2" d="M171.2,60.9l-1.8-3.8c0,0,1.2,3.6,0.9,3.8c-0.3,0.2-9.7,0.3-9.7,0.3s-0.2,0.8-0.7,0.8s-2,0-2,0V61h-3.6v-2.9
		l5.4-1.3h0.9v1.2l8.8-0.8c0,0-0.7-1.2,0-1.3c0.7-0.1,9.2-0.9,9.2-0.9l1.5,1l1.9-0.2c0,0-1-1.7,1.7-2.5c2.6-0.8,15.9-2.1,15.9-2.1
		l2.3,3.7V57h9.7c0,0,0.6-2,1.4-2.3c0.8-0.3,10.7-2.7,14.5-1.9c0-1.2,0.5-1.1,1-1.2c0.5-0.1,4.4-0.4,4.6-3.6
		c0.2-3.1,0.3-3.8,3.3-4.3c3-0.5,9.2-2.2,10.5-1.6s1.2,1.8,1.2,1.8l7.7-0.1v-1.2l2.2-0.1l0.8-1.3h6.4c0,0,1.2-5.6,5.2-10.2
		c4-4.6,10.4-6.3,11.8-6.4c0.5-1.5,6.9-4.3,11.6-4.5c9.7,0,21.4,2.1,27.3,20.6c0.9,0.7,2,2,2.8,2.9c7.5,0,12.4,4.3,14.8,6.3
		s16.3,16.7,16.3,16.7l2.1,7.9l9.1,9.1c0,0,0.6,2.6,1.1,3.9c4.5-0.8,10.9,1.7,11.6,10.5c0.6,5.3-2.6,8.7-3.3,9.4
		c0,0,1.7,1.4,2.3,1.9c-1.4,19.6-18.3,45.4-19.4,46.8l-0.2,2.4L354,165h-1.7l-0.1-1.6l-1.5-0.6l-2.6,2.6l-2.8-0.4l0.3-2.6l-2.1-0.9
		l-2.3,1.3l-3.6-1.7l-0.9-2.2l4.6-4.3l-1.5-0.9l-2.8,3.9l-3.9-0.5l-0.2-4.4l3.4-2.8l3.2-0.2l2.1-2.1l2.2,0c0,0,4.2-12.5,4.1-15.9
		c-0.4-0.7-0.9-1.7-1.6-2.2c1.4-3.2,2.9-8.3,2.8-9.6c1.7-0.2,3.3-1.5,3.7-1.9c-0.1-0.7-0.2-2.5-0.2-2.5l4.6-4.2c0,0-3.9-2.8-3.5-7.1
		l-3.1-0.2l-1.5-1.5l-4.4,2.8l-3.8-0.1l-9-8.9l0.5-3.4l-6.3-6l-2.8,0.6c0,0,2.8,6.2,3,10.3c0.2,4.1-0.1,12.5-0.1,12.5l-3,1.4
		l-3.3,3.2c0,0,0.2,5,0.2,6.1c-1.4,1.3-4.2,6.9-3.7,13.1c4.2,0.5,5.6,6.4,5.6,8.4c-0.5,0.2-2.9,0.9-2.9,0.9s-0.3,1.4-0.4,2.4
		c3.3,3,16.9,27.3,17.8,30.5c0.9,3.1,6.5,22.9,6.4,24.9c1.7,0,6.3,1.2,7.6,1.6c2,1.3,3.8,5.7,4.3,11s-0.3,7.8-0.5,8.2
		c1,3.2,3.1,13.5,3.1,13.5l-0.5,6.5l0.8,8.1l-1.5,5l5.9,15.7l1,3.5l-1.8,1.7l-7.8-5.5l-2.7,5.5c0,0,0.4-18.2,0.4-18.4
		s-5.9-19.8-5.9-19.8l-5.8-8.4l-0.5-3.3c0,0-1.1,0.2-1.9,0c-3.7-4.6-3.6-11.5-3.5-15.4c-3-3-11.1-14.5-13-18.4
		c-1.2-0.7-4.5-3.8-4.5-3.8l-7.1-13.3c0,0,0.2-1.8,0.7-2.4c-2.6,0.2-3.5-0.3-4.9-0.8c-3.6,3.9-10.8,5-16.8,1.1
		c-2.7,4.1-16.4,21.5-16.4,21.5l-2.1-0.3c0,0-13.6,14.8-14.5,15.7c0.9,3.2,0,10.4-3.6,12.5c2.4,1.1,8.5,6.9,8.5,6.9l-2.9,27.9
		l-3,1.2c0,0-1.2,6.5-1,10.7c0.2,4.1,3.7,9.6,4.3,10.3c-0.6,1.8-1.7,2.1-1.7,2.1l3.3,2.4l1.2,7.2l-11.8,1.7l-1.4-1.6l-1.6-0.1
		l-6,2.6l-0.7-1.7l-2.1,0.2v1.5l-12,1.5l-16.3,0.4l-2.5-3v-2.8l-0.6-1.7l16-4.5l1,1.6l9.2-3.6l1,0.6l1.2-0.4l-0.1-2.4l3.9-1.1
		l-3.9-4c0,0,3.7-5,3.2-12c-0.5-7-6.9-39.4-6.4-43.1c-2.3-2.8-3-7.3-2.5-11c0.5-3.6,4.6-7.9,9.7-7.9c2.9-8.3,21.6-37.6,25.2-42.9
		s11.4-13.4,16-13.5c0.3-1.7-0.1-4.7,2.1-6.2c0.4-4.9-2.7-13.2-3.6-16s-3.1-10.3-3.1-10.3s-3.1,0.3-4.4-1c-1.3-1.3-0.9-3.6-0.9-4.5
		c-1.2-1.2-2.6-7-2.6-7l0.5-21.1l-20,0.3l-4.5-3.7l-13.9,1.2l-2.5-1.5l2.7-4.1c0,0-5.2,1-7.9,0.9c-2.7-0.1-10.7-0.7-10.9-3.2
		c-1.2,0.2-4.9,0.5-4.9,0.5s-27.4,2.2-28.2,2.3c0,1.5-1.9,2.6-3.6,2.6c-1.7,0.1-2.6-0.8-2.6-0.8s0.6,2.4,0,3.1
		c-0.6,0.7-2.9,4.4-4.4,3.6c-0.5,1.7-1.9,2.6-3.2,2.6c-1.3-0.1-2.7-0.2-3.1-0.8c-0.7,1.5-2,1.3-3.3,1.1c-1.3-0.2-8.1-1.8-8.1-4.5
		s-0.5-6.7,0.3-7.7S167.3,61.4,171.2,60.9l8.9-1.6c0,0,3.9,0,4.8,0"/>
	<polyline class="st2" points="205.8,59.3 202.6,62.4 204.6,64.9 204.8,67.5 	"/>
	<path class="st2" d="M202.6,62.4c-4.8,1.1-11.8,0-18.1,0.5c-6.3,0.4-9,0.4-9.6,3.3"/>
	<path class="st2" d="M169.7,71c-0.9-2.1-0.1-4.8,2.5-4.8s4.2,0.7,4.3,3.6"/>
	<path class="st2" d="M176.4,68.6c2.8-2.3,9-2.8,14.7-2.4s11.9,0,13.5-1.2"/>
	<path class="st2" d="M176.8,63.9c-3.7-0.4-10.7,1.2-15.8,3.6c-5.1,2.4-9.2,3.7-9.2,3.7v5.1l1,3.8"/>
	<polyline class="st2" points="151.8,79.8 149.6,76.1 149.6,70.3 153.8,68.6 	"/>
	<path class="st2" d="M152.3,67.2c0.8,0.9,3.1,2.7,3.1,2.7l1.8,4.2v2.5l-5.2,0.9"/>
	<line class="st2" x1="159.7" y1="80" x2="157.3" y2="76.5"/>
	<polyline class="st2" points="158.9,64.7 161,67.5 161,78.3 164.3,80 	"/>
	<polyline class="st2" points="157.9,77.4 161,75.4 165.6,78.3 	"/>
	<polyline class="st2" points="157,73.5 161,71.2 164.9,74.1 168.3,74.1 170.4,71.6 	"/>
</g>
</svg>
