
<svg id="bp-r2d2" viewBox="0 0 53 79">
<style type="text/css">
	.st0{fill:#fff7;stroke:#4448;stroke-width:0.75;stroke-miterlimit:10;}
	.st1{fill:none;stroke:#9998;stroke-width:0.5;stroke-miterlimit:10;}
	.st2{fill:#999;}
</style>
<g>
	<path class="st0" d="M45,58.6c0.1-0.3,0.3-1.4-0.1-2.4c-0.2-0.5-0.4-0.7-0.8-0.9c0,0-0.1,0-0.1,0v-5.1l-1-1.2V38.2h0.4l2-2v-0.1
		c0-0.1,0.2-8.7,0.2-10.1c0-1.3-0.3-2.5-0.8-3.6c-0.5-1-0.7-1.2-1.8-1.4c-0.9-0.1-2.8-0.3-3.2-0.3V18c0-8.4-6.8-15.3-15.3-15.3
		c-4,0-7.8,1.7-10.8,4.9c-2.8,3-4.5,6.9-4.5,10.6v5c-0.5,0-2,0.1-3.1,0.2C5,23.6,4,24.1,3.8,24.8c-0.1,0.6-0.6,5.9-0.5,7.9
		c0.1,0.9,0.1,1.5,0.2,2c0.1,0.6,0.2,1.1,0.1,1.9c-0.1,1.5-0.1,3.8-0.1,3.8v0.1l1.7,2l0.4,10L5,52.8l0.1,4.2l0.5,0.6l-0.3,3.2
		l0.7,1.6l-1.8,3.3l-0.2,1.2l2.6,9l0.8,0.4l9.6-1.7H17l1.2-1.2l-0.6-2.1c0.7-0.4,0.9-1,0.5-1.9c-0.3-0.7-0.7-0.9-1-0.9v-0.6
		c0.1,0,0.3-0.1,0.4-0.2c0.3-0.2,0.6-0.7,0.6-1.2c0.1-0.7-0.2-3-0.2-3.7h0.7l2.3-2.6c1.1,0.3,2.4,0.5,4,0.5c0.5,0,1.1,0,1.7-0.1
		c1.4-0.1,2.6-0.4,3.5-0.7l2.6,2.9l0.4-0.2v0.8l-0.5,0.3v1.1l7.2,7.1h0.5l8.9-2.6l0.6-1v-1L45,58.6z"/>
</g>
<g>
	<path class="st1" d="M9.6,18.2c0-7.5,6.8-15.3,15.1-15.3S39.8,9.6,39.8,18c0,0,0,4.6,0,5c0,0.5-2.6,3.6-15.1,3.6S9.9,23.8,9.6,23.3
		C9.6,22.7,9.6,18.2,9.6,18.2z"/>
	<path class="st1" d="M21.4,3.3c0.3,0.2,2.1,0.4,2.9,0.3c0.8,0,2.9-0.2,3.2-0.5"/>
	<path class="st1" d="M20,3.7L20.5,4c0,0-3.2,2.7-3.7,3.1c-0.9-0.2-1.5-0.6-1.5-0.6"/>
	<path class="st1" d="M21.1,4.1c0,0-2.9,2.8-3.3,3.2c1.1,0.4,6.7,0.7,7.9,0.5c-0.2-0.7-0.7-3.3-0.7-3.3s-1,0-1.9,0
		C22.1,4.4,21.1,4.1,21.1,4.1z"/>
	<path class="st1" d="M26,4.4l0.9,3.3c0,0,2.6-0.2,3.6-0.3c1-0.1,2.7-0.5,2.7-0.5l-4.3-2.8c0,0-0.7,0.2-1.3,0.3
		C26.8,4.4,26,4.4,26,4.4z"/>
	<polyline class="st1" points="29.9,3.8 29.3,3.9 33.8,6.7 34.3,6.3 	"/>
	<path class="st1" d="M10,14.7c1.7,0.9,3.8,1.4,6.3,1.9l-0.1,5.6c-2.5-0.5-4.8-1.1-6.6-1.9"/>
	<path class="st1" d="M18.5,22.5c-0.5-0.1-1-0.1-1.5-0.2l0.2-5.5c0.5,0.1,1,0.2,1.4,0.2L18.5,22.5z"/>
	<path class="st1" d="M36.1,21.4c0.7-0.2,1.3-0.4,1.9-0.6c0,0,0.1-1.6-0.1-2.6c-0.1-1-0.6-2.5-0.6-2.5c-0.6,0.2-1.2,0.4-1.9,0.5
		c0,0,0.5,1.3,0.5,2.3c0.8,0.3,0.7,1.3,0.6,1.5c0,0.3-0.3,0.6-0.5,0.7C36.1,21.1,36.1,21.4,36.1,21.4z"/>
	<path class="st1" d="M39.8,20c-0.5,0.2-0.9,0.4-1.4,0.6c0,0,0-2.3-0.1-3.1c-0.1-0.8-0.5-2-0.5-2c0.6-0.2,1.2-0.5,1.8-0.7"/>
	<path class="st1" d="M39.8,22c-3.3,2-8.4,3.1-15.4,3.1c-7.8,0-11.5-1-14.9-2.8"/>
	<ellipse class="st1" cx="35.4" cy="19.7" rx="1.1" ry="1.3"/>
	<path class="st1" d="M35.1,21c-0.2,0.1-0.4,0.2-0.7,0.2c-0.7,0-1.2-0.6-1.2-1.4c0-0.8,0.5-1.4,1.2-1.4c0.2,0,0.3,0,0.5,0.1"/>
	<path class="st1" d="M35,21c-0.2,0.3-0.5,0.5-0.9,0.5c-0.7,0-1.3-0.8-1.3-1.7c0-0.9,0.6-1.7,1.3-1.7c0.3,0,0.6,0.2,0.9,0.5"/>
	<path class="st1" d="M35.7,21c-0.3,0.7-1,1.2-1.7,1.2c-1.1,0-1.9-1-1.9-2.3c0-1.3,0.9-2.3,1.9-2.3c0.6,0,1.2,0.3,1.5,0.9"/>
	<circle class="st1" cx="28.5" cy="20.6" r="1.6"/>
	<polygon class="st1" points="22.9,18.1 22.9,23 24.7,23 24.7,18.2 	"/>
	<path class="st1" d="M25.3,23c0,0,2,0,3.4-0.1c1.5-0.1,3.1-0.4,3.1-0.4l-0.2-4.8c0,0-1.5,0.3-3.2,0.5c-1.3,0.1-3.1,0-3.1,0L25.3,23
		L25.3,23z"/>
	<polygon class="st1" points="19.1,16.9 22.5,17.1 22.5,23 18.9,22.7 	"/>
	<polygon class="st1" points="19.4,17.4 19.4,19.7 22,19.7 22,17.5 	"/>
	<polygon class="st1" points="19.4,20.2 19.4,22.4 22,22.5 22,20.2 	"/>
	<path class="st1" d="M23.8,10.5c0.5,0.1,3,0.1,3.8,0c0.8-0.1,3.3-0.1,3.7-0.2c0.2,1,1,6.3,1.1,6.8c-1.1,0.4-3.1,0.8-4.8,0.7
		c-1.7-0.1-4.2-0.1-4.5-0.2C23.2,16.1,23.8,10.5,23.8,10.5z"/>
	<ellipse class="st1" cx="27.4" cy="13.7" rx="3.1" ry="2.7"/>
	<path class="st1" d="M24.5,14.7c-0.1-1.8,1.2-3,2.9-3s3,1,3,2.6"/>
	<polyline class="st1" points="31.4,11.1 32.1,11.1 33,14.7 32,14.7 	"/>
	<path class="st1" d="M32.1,15.2c0,0,1.1,0,1.1,0l0.2,1.2h-1.1"/>
	<path class="st1" d="M17.9,26.3l-0.1,10.5c0,0,3.3,0.7,6.5,0.6c3.3-0.1,10.3-1,13.1-2.6v-10"/>
	<path class="st1" d="M17.8,32.3c2,0.3,6.9,0.3,9,0.3c2.1,0,7.5-0.4,10.6-2.1"/>
	<path class="st1" d="M19.4,26.4v1.9c0,0,3.2,0.5,6.9,0.3c3.7-0.2,9.1-1.4,10.2-1.7v-1.8"/>
	<path class="st1" d="M36.5,28.4v1.4l-1.4,0.2l-0.8,1.2l-7.6,0.7v-0.9l-3.8,0.9l-3.5-0.6v-1.5l3.3-0.3l3.9,0.6l0.1-0.7
		c0,0,6.4-0.2,7.4-0.6c0.4,0.2,0.9,0.3,0.9,0.3L36.5,28.4z"/>
	<path class="st1" d="M36.5,32.4v1.3L34.2,35h-3.1l-0.2,0.6c0,0-6.3,0.6-7.9,0.5l-1.5-0.8l-2-0.1v-1.3l2.2,0.1l1.2-0.5
		c0,0,5.4,0.1,8-0.3l0,0.7l3.2-1.3L36.5,32.4z"/>
	<path class="st1" d="M17.8,37.4l0.1,4.1c0,0,1.2,0.5,2.9,0.6c1.7,0.1,4,0,4,0v-3.8c0,0-2.6,0.1-4.5-0.1
		C18.4,37.8,17.8,37.4,17.8,37.4z"/>
	<path class="st1" d="M32.7,37.2c0,0,3.1-0.6,4.7-1.6c0,0.3-0.3,11.2-0.3,11.2s-3.2,1.8-4.5,2.1V37.2z"/>
	<path class="st1" d="M21.7,42.7h3v7.6c0,0-2.2,0-3.1-0.1L21.7,42.7L21.7,42.7z"/>
	<path class="st1" d="M12.4,26.9c0,0,2,1.2,4.7,1.3l0.3,21.4c0,0-4.1-1.2-5-2.1C12.4,47.3,12.4,26.9,12.4,26.9z"/>
	<polygon class="st1" points="18,42.3 18,43 20.9,43.4 20.9,42.7 	"/>
	<polygon class="st1" points="18,43.7 18,44.3 20.9,44.8 20.9,44.1 	"/>
	<polygon class="st1" points="18,45 18,45.7 20.9,46.1 20.9,45.4 	"/>
	<polygon class="st1" points="18,46.3 18,47 20.9,47.5 20.9,46.7 	"/>
	<polygon class="st1" points="18,47.7 18,48.4 20.9,48.8 20.9,48.1 	"/>
	<polygon class="st1" points="18,49 18,49.7 20.9,50.1 20.9,49.4 	"/>
	<path class="st1" d="M25.7,38v12.2c0,0,4.1-0.2,6-0.9l0.2-12C31.9,37.4,28,37.9,25.7,38z"/>
	<polygon class="st1" points="21.7,50.8 21.7,52.7 24.7,52.8 24.7,50.8 	"/>
	<path class="st1" d="M25.7,50.8v2c0,0,4.6-0.2,6-0.7v-1.9c0,0-2.5,0.7-4.5,0.7H25.7z"/>
	<path class="st1" d="M32.5,49.8v1.9c0,0,2-0.3,3.6-1.3l1.2-0.8v-2C37.2,47.6,34.6,49.6,32.5,49.8z"/>
	<path class="st1" d="M4.5,24.1c0.7,0,1.2,1.7,1.2,4.5C5.8,31.5,6.1,38.9,6,40.1s0.3,12.7,0.3,12.7"/>
	<path class="st1" d="M6.3,23.6c0.5,0.3,1.3,4.2,1.4,8.2C7.9,35.9,8,40.1,8,40.1"/>
	<path class="st1" d="M9.6,23.3c0.9,1.5,1.9,5.1,1.8,16.8H6"/>
	<path class="st1" d="M11.3,40.1c-0.2,0-0.6,0.5-0.6,0.5v1.7l0.9,10.3l0.7,0.5"/>
	<line class="st1" x1="10.8" y1="42.3" x2="6" y2="42.2"/>
	<line class="st1" x1="7.7" y1="42.2" x2="8.1" y2="53.1"/>
	<path class="st1" d="M5.9,52.4c0.8,0.5,1.9,0.9,3.5,0.8c1.6-0.1,2-0.3,2.4-0.7"/>
	<path class="st1" d="M19.4,58.1l1.4,1.7l-2.3,2.6h-0.8c0,0,0.3,3,0.3,3.8c-0.1,0.8-0.6,1.4-1,1.3v0.9c0,0,0.7,0,1,0.9
		c0.3,0.9,0.2,1.4-0.6,1.8l0.6,2.1L17,74.3L7.4,76l-0.7-0.3l-2.6-8.9l0.2-1.1l1.9-3.4l-0.7-1.6l0.3-3.2l-0.5-0.6l-0.1-4l0.7-0.4
		L5.5,42.3l-1.7-2c0,0,0.1-2.2,0.1-3.8c0.1-1.5-0.3-2-0.4-3.9s0.3-7.2,0.5-7.8c0.1-0.6,1.1-1.2,2.4-1.3c1.3-0.1,3.2-0.2,3.2-0.2
		c1.6,2.2,2.2,5.3,2.4,7.5S12,40.8,12,40.8s-0.4,1-0.4,0.8c0.1,1,0.4,9.2,0.4,9.6c0.3,0.2,0.4,0,0.4,0.9s0,3.6,0,3.6
		c6.6,3.6,13.5,3.2,18.4,2.4s8-3.6,8-5.2c0-1.6,1-29.8,1-29.8"/>
	<path class="st1" d="M20.9,59.9c1.4,0.3,3.1,0.7,5.7,0.5c2.6-0.3,5.7-0.9,6.3-2.8"/>
	<polyline class="st1" points="30.2,59.7 32.7,62.5 35.4,61.4 35.4,56.5 	"/>
	<path class="st1" d="M9.6,21.2c3.6,1.6,8.9,2.6,14.7,2.6c6.2,0,11.8-1,15.5-2.8c0,0,2.2,0.2,3.3,0.3c1.1,0.1,1.2,0.3,1.7,1.3
		s0.7,2.1,0.7,3.5s-0.2,10.1-0.2,10.1L43.4,38h-0.5v10.9l1,1.2v5.2"/>
	<path class="st1" d="M41.8,21.1c0.7,0.6,1.7,1.2,1.9,3.7S44,36.4,44,36.4"/>
	<path class="st1" d="M45.3,36.1l-4.4,0.3l-1.1,1.7l0,16.8l1.7-1.3l0.4,0.3l1.1-0.1l0.6-0.3l-0.1,1.7c0,0,0.9-0.4,1.3,0.8
		c0.5,1.2,0.1,2.4,0.1,2.4l4.7,8.6v0.9L49,69l-8.8,2.6h-0.5l-7.1-7v-0.9l0.5-0.3v-1.1"/>
	<path class="st1" d="M40.9,36.4c0,0,0.2-5,0-7.7s-1.2-4.5-1.2-4.5"/>
	<line class="st1" x1="42.9" y1="38" x2="39.8" y2="38.1"/>
	<polyline class="st1" points="6.6,75.3 7.2,63.5 6.1,62.2 	"/>
	<polygon class="st1" points="12.7,48.8 12.7,53.1 13.1,53.4 13.1,49 	"/>
	<polygon class="st1" points="13.4,49.2 13.4,53.5 14,53.9 14,49.5 	"/>
	<polygon class="st1" points="14.4,49.6 14.4,54.1 15.2,54.4 15.2,49.9 	"/>
	<polygon class="st1" points="15.6,50.1 15.6,54.7 16.8,55 16.8,50.5 	"/>
	<path class="st1" d="M11.9,47.9c0,0,3.2,1.8,5.6,2.2l0.1,7c0,0-3.5-1-5.2-2.2"/>
	<path class="st1" d="M18.2,52.8v4.5c0,0,2.3,0.9,6.5,0.6v-4.5C24.7,53.4,20.3,53.3,18.2,52.8z"/>
	<polygon class="st1" points="32.5,52.4 32.5,57 34.6,56 34.6,51.8 	"/>
	<polygon class="st1" points="35.1,51.7 35.1,55.8 37.2,54.2 37.2,50.3 	"/>
	<circle class="st1" cx="28.5" cy="55" r="0.6"/>
	<ellipse class="st1" cx="28.6" cy="55.3" rx="2.2" ry="2"/>
	<path class="st1" d="M31,57.3c-1.9,0.5-4.8,0.7-4.8,0.7l0.2-4.5c4.1-0.3,4.6-0.7,4.6-0.7L31,57.3L31,57.3z"/>
	<path class="st1" d="M21.8,54.1l-2.4-0.2V57c0,0,1.1,0.4,2.4,0.3V54.1z"/>
	<path class="st1" d="M21.8,56.7c0,0-1.3-0.1-1.9-0.3v-2.6"/>
	<path class="st1" d="M5.7,57.4l2.2,2.3v-5.8c0,0,1.3,0.2,2.9,0c1.6-0.2,1.6-0.5,1.6-0.5c1,0.8,4.4,2.1,4.4,2.1s0,0.6,0,1
		c-1.1-0.3-4-1.7-4.4-2"/>
	<path class="st1" d="M17.4,71.1c-1.8,0.6-3.8-0.4-4.1-1.7c-1.1,0.2-2.3,1.5-3,2c-0.7,0.5-0.7-0.4-0.5-0.7c0.3-0.4,0.9-1.2,2.2-1.6
		c-2.5-0.3-2.8-1.2-2.6-1.5c0.2-0.3,0.5-0.3,0.7,0c0.1,0.3,2.7,0.9,3.3,0.9c0.5-0.4,2.3-0.3,3.5,0.1"/>
	<path class="st1" d="M14,69.1c0.7-0.3,2.6-0.2,3.1,0.3c0.5,0.5-0.1,1.1-0.6,1c-0.5,0-1.3,0-1.8-0.5S14,69.1,14,69.1z"/>
	<polyline class="st1" points="10.8,67.8 10.8,66.7 8.7,67 9.7,73.1 11.4,72.8 11.3,70.7 	"/>
	<line class="st1" x1="11" y1="69.4" x2="10.9" y2="68.8"/>
	<polygon class="st1" points="7.2,74.3 7.2,74.9 9.6,74.5 9.6,73.8 	"/>
	<polygon class="st1" points="10.2,74.3 12.4,73.8 12.4,73.3 10.2,73.6 	"/>
	<polygon class="st1" points="12.8,73.8 15.1,73.4 15.1,72.8 12.8,73.2 	"/>
	<polygon class="st1" points="15.6,73.3 15.6,72.7 17.4,72.4 17.5,72.9 	"/>
	<polyline class="st1" points="39.3,71.2 39.5,69.9 37.4,66.1 36.2,65 36.8,64.7 37.1,56.7 35.4,57 	"/>
	<polyline class="st1" points="37.1,56.7 39.5,56.2 39.5,64.7 	"/>
	<polyline class="st1" points="38.4,53.9 39.8,54.9 40.4,56.1 40.7,63.6 39.5,63.6 	"/>
	<path class="st1" d="M46.4,65.1c-0.2-0.2-0.5-0.1-0.6,0c0,0-0.3,0.3-0.8,0.7c0,0,0.1-0.1,0.1-0.1c0.5-0.7,0.7-1.3,0.5-1.9
		c-0.2-1-0.5-1.6-1-1.8c-0.3-0.2-0.7-0.1-1.2,0.1c-0.2,0.1-0.3,0.4-0.2,0.6c0.1,0.2,0.4,0.3,0.6,0.2c0.3-0.1,0.4-0.1,0.4-0.1
		c0.1,0.1,0.4,0.3,0.6,1.2c0.1,0.3-0.1,0.8-0.4,1.2c-0.5,0.7-1.3,1.3-2,1.7c-0.3,0-0.7,0-0.9-0.1c-0.7-0.3-1.4-1.2-1.4-1.8
		c0-0.2-0.2-0.4-0.4-0.4l0,0c-0.2,0-0.4,0.2-0.4,0.4c0,0.9,0.7,1.8,1.4,2.3c-0.9-0.1-1.7-0.3-1.9-0.4c-0.1-0.1-0.3-0.5-0.1-0.8
		c0.1-0.2,0-0.5-0.2-0.6c-0.2-0.1-0.5,0-0.6,0.2c-0.1,0.2-0.3,1.2,0.3,1.7c0.5,0.4,2,0.7,3.1,0.7c0.2,0,0.3,0,0.4,0
		c0.3,0,0.6-0.2,1-0.4c0.5-0.1,1.1-0.3,1.7-0.5c1.1-0.5,2-1.5,2.1-1.6C46.6,65.6,46.6,65.3,46.4,65.1z"/>
	<path class="st1" d="M29.5,43.4l-1.6,0.2c-1,0.1-1.8-0.6-1.8-1.6v-1.6c0-1,0.8-1.8,1.8-1.9l1.6-0.2c1-0.1,1.8,0.6,1.8,1.6v1.6
		C31.3,42.4,30.5,43.3,29.5,43.4z"/>
	<path class="st1" d="M29.5,49.3l-1.6,0.2c-1,0.1-1.8-0.6-1.8-1.6v-1.6c0-1,0.8-1.8,1.8-1.9l1.6-0.2c1-0.1,1.8,0.6,1.8,1.6v1.6
		C31.2,48.3,30.4,49.2,29.5,49.3z"/>
	<line class="st1" x1="27.9" y1="44.3" x2="27.9" y2="49.5"/>
	<line class="st1" x1="29.8" y1="44.1" x2="29.8" y2="49.2"/>
	<rect x="26.7" y="38.6" transform="matrix(0.9922 -0.125 0.125 0.9922 -4.6153 3.8865)" class="st2" width="4" height="0.3"/>
	<rect x="26.2" y="39.1" transform="matrix(0.9911 -0.1329 0.1329 0.9911 -4.9633 4.157)" class="st2" width="4.8" height="0.3"/>
	<rect x="26.1" y="39.6" transform="matrix(0.9912 -0.1327 0.1327 0.9912 -5.0236 4.1608)" class="st2" width="5.2" height="0.3"/>
	<rect x="26.1" y="40.1" transform="matrix(0.9895 -0.1444 0.1444 0.9895 -5.516 4.5605)" class="st2" width="5.2" height="0.3"/>
	<rect x="26.1" y="40.6" transform="matrix(0.9909 -0.1349 0.1349 0.9909 -5.2324 4.2466)" class="st2" width="5.2" height="0.3"/>
	<rect x="26.1" y="41.1" transform="matrix(0.9906 -0.1368 0.1368 0.9906 -5.3684 4.3141)" class="st2" width="5.2" height="0.3"/>
	<rect x="26.1" y="41.6" transform="matrix(0.9914 -0.1308 0.1308 0.9914 -5.2074 4.1125)" class="st2" width="5.2" height="0.3"/>
	<rect x="26.2" y="42" transform="matrix(0.9914 -0.1308 0.1308 0.9914 -5.2702 4.1204)" class="st2" width="5.1" height="0.3"/>
	<rect x="26.4" y="42.5" transform="matrix(0.9929 -0.1192 0.1192 0.9929 -4.8737 3.7269)" class="st2" width="4.7" height="0.3"/>
	<rect x="26.9" y="42.9" transform="matrix(0.9922 -0.125 0.125 0.9922 -5.1531 3.9326)" class="st2" width="3.8" height="0.3"/>
	<rect x="27.8" y="44.5" transform="matrix(0.9917 -0.1288 0.1288 0.9917 -5.5102 4.0853)" class="st2" width="2" height="0.3"/>
	<rect x="27.8" y="45" transform="matrix(0.994 -0.1094 0.1094 0.994 -4.7608 3.4248)" class="st2" width="2" height="0.3"/>
	<rect x="27.8" y="45.4" transform="matrix(0.9931 -0.1171 0.1171 0.9931 -5.1392 3.6895)" class="st2" width="2" height="0.3"/>
	<rect x="27.8" y="45.9" transform="matrix(0.9942 -0.1074 0.1074 0.9942 -4.7773 3.3625)" class="st2" width="2" height="0.3"/>
	<rect x="27.8" y="46.4" transform="matrix(0.9936 -0.1132 0.1132 0.9936 -5.0804 3.5627)" class="st2" width="2" height="0.3"/>
	<rect x="27.8" y="46.8" transform="matrix(0.9944 -0.1055 0.1055 0.9944 -4.7944 3.3036)" class="st2" width="2" height="0.3"/>
	<rect x="27.8" y="47.3" transform="matrix(0.9903 -0.1387 0.1387 0.9903 -6.3029 4.4572)" class="st2" width="2" height="0.3"/>
	<rect x="27.8" y="47.8" transform="matrix(0.9868 -0.1622 0.1622 0.9868 -7.3883 5.3133)" class="st2" width="2" height="0.3"/>
	<rect x="27.8" y="48.2" transform="matrix(0.9837 -0.1796 0.1796 0.9837 -8.2214 5.967)" class="st2" width="2" height="0.3"/>
	<rect x="27.8" y="48.7" transform="matrix(0.9848 -0.1739 0.1739 0.9848 -8.0539 5.7605)" class="st2" width="2" height="0.3"/>
	<polyline class="st1" points="36.9,61.1 37.2,61.4 37.2,65.3 38.4,64.9 38.4,59 38,58.7 38,56.5 	"/>
	<line class="st1" x1="40.7" y1="60.4" x2="42.5" y2="66.7"/>
	<line class="st1" x1="44.3" y1="65.5" x2="43.5" y2="62.9"/>
	<polyline class="st1" points="44.8,67.1 45,67.9 46.5,67.5 46.2,66 	"/>
	<path class="st1" d="M44.9,58.6l-0.6-1c0,0-0.9,0-1.1,0.3c-0.2,0.3-0.6,1.4,0.7,1.4l0.9,2.4l-1.5-0.2c0,0,0.2-1.8-1.1-2.3
		c-1.3-0.5-1.7,0.1-1.7,0.1"/>
	<polygon class="st1" points="42.2,53.4 43.3,53.1 43.3,51.8 42.2,52 	"/>
	<polygon class="st1" points="40.1,70 40.2,70.4 42.3,69.8 42.2,69.4 	"/>
	<polygon class="st1" points="42.9,69.6 44.8,69.1 44.7,68.7 42.8,69.2 	"/>
	<polygon class="st1" points="45.2,69 47.2,68.5 47.2,68.1 45.1,68.6 	"/>
	<polygon class="st1" points="47.7,68.3 47.7,68 49.2,67.6 49.3,67.9 	"/>
	<path class="st1" d="M6.3,58l-0.1,1.7l1.2,2.8c0,0,1.1,0.7,1.2,1.7c0.1,1,0.1,2.2,0.1,2.2l1.6-0.4c0,0,0-2.6-0.9-3.1h2.2v-0.4
		l0.7-0.6l0.3-3l4.5-0.2"/>
	<line class="st1" x1="17.8" y1="62.5" x2="17" y2="57.5"/>
	<polyline class="st1" points="12.4,55.7 12.4,61.9 10.8,62.2 10.9,60 9.1,59.7 9.1,62.5 8.4,62.2 8.4,57.8 	"/>
	<path class="st1" d="M7.9,58h2.5c0,0,0.3,1.2,2,0.8"/>
	<polyline class="st1" points="12.4,61.9 12.4,63.3 13.1,64 13.5,68.4 	"/>
	<polyline class="st1" points="13.4,58.8 13.4,60.5 12.9,60.5 12.9,63.2 13.7,64 14,68.3 	"/>
	<polyline class="st1" points="14.9,68.2 14.7,60.5 14.3,60.5 14.3,58.9 	"/>
	<polyline class="st1" points="15.6,58.8 15.6,60.5 15.3,60.5 15.4,63.1 16.2,64.4 16.2,68.3 	"/>
	<polyline class="st1" points="17,67.6 17,60.5 16.6,60.4 16.6,58.8 	"/>
</g>
</svg>
