
<svg id="bp-999" viewBox="0 0 527 318">
<style type="text/css">
	.st0{fill:#eee6;stroke:#999;stroke-miterlimit:10;}
	.st1{fill:none;stroke:#999a;stroke-miterlimit:10;}
	.st2{fill:none;stroke:#999a;stroke-width:0.5;stroke-miterlimit:10;}
	.st3{fill:#999a;}
</style>
<g>
	<path class="st0" d="M328.7,226.4c0.2-0.9,1.1-4.8-0.4-8.5c-0.6-1.6-1.5-2.6-2.7-3.1c-0.1,0-0.2-0.1-0.3-0.1v-18.1l-3.4-4.3v-37.8
		h1.4l7-7l0-0.2c0-0.3,0.8-30.6,0.8-35.6c0-4.7-0.9-8.8-2.7-12.6c-1.7-3.6-2.3-4.3-6.3-4.8c-3.3-0.5-9.8-1-11.4-1.1v-9.8
		c0-29.7-24.1-53.8-53.8-53.8c-14,0-27.5,6.1-38,17.2c-10,10.6-15.8,24.2-15.8,37.4v17.5c-1.6,0.1-7.2,0.4-10.9,0.8
		c-4.7,0.4-8.3,2.4-8.9,4.8c-0.5,2.2-2,20.7-1.7,27.7c0.2,3.2,0.5,5.3,0.8,7.1c0.3,2,0.6,3.8,0.5,6.7c-0.2,5.4-0.5,13.3-0.5,13.4
		l0,0.2l6.1,7.1l1.5,35.2l-2.5,1.3l0.3,14.7l1.6,2l-1,11.3l2.3,5.5l-6.5,11.8l-0.7,4.2l9.3,31.9l2.8,1.3l33.9-6.1l0.2,0l4.1-4.3
		l-2-7.3c2.5-1.4,3.1-3.5,1.9-6.7c-0.9-2.5-2.6-3.1-3.5-3.2v-2c0.5-0.1,0.9-0.3,1.4-0.7c0.9-0.8,2-2.3,2.1-4.4
		c0.2-2.5-0.6-10.7-0.8-12.9h2.6l8-9.2c3.9,0.9,8.3,1.8,14.1,1.8c1.8,0,3.8-0.1,6-0.3c4.9-0.5,9-1.3,12.4-2.3l9,10.1l1.4-0.6v2.8
		l-1.8,1v3.8l25.3,25.1h1.8l31.3-9.3l2.2-3.6v-3.4L328.7,226.4z"/>
</g>
<g>
	<path class="st1" d="M203.7,84c0-26.6,23.9-54.1,53.3-54.1s53.3,23.9,53.3,53.3c0,0,0,16.1,0,17.8c0,1.7-9.2,12.6-53.3,12.6
		s-52.3-9.7-53.3-11.6C203.7,100,203.7,84,203.7,84z"/>
	<path class="st1" d="M245.3,31.3c0.9,0.8,7.5,1.3,10.4,1.2s10.3-0.7,11.3-1.6"/>
	<path class="st1" d="M240.5,32.9l1.7,0.9c0,0-11.4,9.7-13.2,11.1c-3.3-0.6-5.4-2-5.4-2"/>
	<path class="st1" d="M244.3,34.3c0,0-10.4,9.8-11.8,11.2c3.9,1.5,23.7,2.3,27.8,1.7c-0.6-2.6-2.6-11.5-2.6-11.5s-3.7,0.1-6.8-0.1
		C247.7,35.4,244.3,34.3,244.3,34.3z"/>
	<path class="st1" d="M261.5,35.5l3.1,11.6c0,0,9-0.7,12.6-1.1c3.5-0.4,9.7-1.9,9.7-1.9l-15.3-9.8c0,0-2.4,0.8-4.6,1
		C264.5,35.4,261.5,35.5,261.5,35.5z"/>
	<polyline class="st1" points="275.3,33.2 273.3,33.7 289.1,43.5 291,42.2 	"/>
	<path class="st1" d="M205.3,71.8c6.1,3.1,13.5,4.8,22.2,6.7l-0.4,19.6c-8.9-1.6-16.8-3.8-23.4-6.6"/>
	<path class="st1" d="M235,99.3c-1.8-0.2-3.6-0.5-5.3-0.7l0.7-19.5c1.7,0.3,3.4,0.6,5.1,0.8L235,99.3z"/>
	<path class="st1" d="M297.1,95.3c2.3-0.7,4.6-1.4,6.7-2.1c0,0,0.2-5.5-0.3-9.3c-0.5-3.7-2-8.7-2-8.7c-2.1,0.7-4.3,1.3-6.6,1.9
		c0,0,1.8,4.7,1.7,8.1c2.8,1.2,2.3,4.5,2.2,5.4c0,0.9-1,2.2-1.7,2.6C297.1,94.2,297.1,95.3,297.1,95.3z"/>
	<path class="st1" d="M310.4,90.5c-1.6,0.8-3.3,1.5-5.1,2.2c0,0,0-8.1-0.5-11s-1.8-6.9-1.8-6.9c2.2-0.8,4.3-1.6,6.3-2.5"/>
	<path class="st1" d="M310.4,97.5c-11.6,7.2-29.8,10.8-54.2,10.8c-27.4,0-40.6-3.7-52.5-9.9"/>
	<ellipse class="st1" cx="294.9" cy="89.4" rx="3.9" ry="4.5"/>
	<path class="st1" d="M293.7,93.9c-0.7,0.5-1.5,0.8-2.3,0.8c-2.4,0-4.3-2.2-4.3-5s1.9-5,4.3-5c0.6,0,1.2,0.1,1.7,0.4"/>
	<path class="st1" d="M293.5,93.9c-0.8,1-1.9,1.6-3.1,1.6c-2.5,0-4.5-2.7-4.5-5.9c0-3.3,2-5.9,4.5-5.9c1.2,0,2.2,0.6,3,1.6"/>
	<path class="st1" d="M295.7,93.8c-1.2,2.5-3.4,4.1-5.9,4.1c-3.8,0-6.8-3.7-6.8-8.2c0-4.5,3-8.2,6.8-8.2c2.2,0,4.1,1.2,5.3,3.1"/>
	<circle class="st1" cx="270.6" cy="92.4" r="5.7"/>
	<polygon class="st1" points="250.7,83.6 250.7,100.9 257,100.9 257,84.1 	"/>
	<path class="st1" d="M259.1,100.9c0,0,6.9,0.1,12.1-0.4s10.8-1.3,10.8-1.3l-0.8-16.8c0,0-5.3,1.2-11.3,1.6
		c-4.6,0.3-10.9,0.1-10.9,0.1V100.9z"/>
	<polygon class="st1" points="237.2,79.6 249.2,80.1 249.2,100.9 236.7,100 	"/>
	<polygon class="st1" points="238.5,81.1 238.5,89.2 247.6,89.4 247.6,81.6 	"/>
	<polygon class="st1" points="238.2,90.9 238.2,98.7 247.6,99.3 247.6,90.9 	"/>
	<path class="st1" d="M253.8,56.8c1.9,0.2,10.5,0.2,13.3,0c2.8-0.2,11.6-0.5,13-0.7c0.6,3.5,3.6,22.3,4,23.9
		c-3.9,1.3-11,2.7-17.1,2.5c-6.1-0.2-14.7-0.5-16-0.8C251.8,76.7,253.8,56.8,253.8,56.8z"/>
	<ellipse class="st1" cx="266.6" cy="68.1" rx="11" ry="9.7"/>
	<path class="st1" d="M256.4,71.7c-0.3-6.4,4.3-10.5,10.2-10.5s10.7,3.7,10.7,9.1"/>
	<polyline class="st1" points="280.6,59 283.3,59 286.4,71.8 282.7,71.8 	"/>
	<path class="st1" d="M283,73.6c0-0.1,3.9,0,3.9,0l0.7,4.3h-3.8"/>
	<path class="st1" d="M233,112.5l-0.4,37c0,0,11.5,2.4,23.1,2.2s36.3-3.5,46.2-9.2v-35.1"/>
	<path class="st1" d="M232.7,133.7c6.9,0.9,24.4,1.2,31.7,1.1c7.3-0.1,26.4-1.3,37.4-7.5"/>
	<path class="st1" d="M238.5,113v6.7c0,0,11.3,1.9,24.3,1.1c13-0.8,32-4.8,36-6.1v-6.2"/>
	<path class="st1" d="M298.8,120v4.8l-5.1,0.6l-2.7,4.1l-26.8,2.5v-3.1l-13.5,3.1l-12.2-2v-5.4l11.7-1.2l13.9,2l0.2-2.4
		c0,0,22.4-0.7,26.1-2c1.3,0.7,3.1,0.9,3.1,0.9L298.8,120z"/>
	<path class="st1" d="M298.8,134.1v4.7l-8.4,4.4h-10.9l-0.7,2.2c0,0-22.1,2.1-27.9,1.8l-5.4-2.8l-7.1-0.4v-4.6l7.8,0.3l4.4-1.9
		c0,0,19.2,0.4,28.2-0.9l0.1,2.6l11.4-4.7L298.8,134.1z"/>
	<path class="st1" d="M232.6,151.7l0.2,14.3c0,0,4.3,1.7,10.1,2c5.9,0.3,14.1,0,14.1,0v-13.5c0,0-9.1,0.3-15.7-0.5
		C234.7,153.1,232.6,151.7,232.6,151.7z"/>
	<path class="st1" d="M285.3,151c0,0,10.9-2.1,16.6-5.6c0,1-0.9,39.6-0.9,39.6s-11.2,6.4-15.7,7.4V151z"/>
	<path class="st1" d="M246.3,170.3H257v26.9c0,0-7.6-0.1-10.8-0.5V170.3z"/>
	<path class="st1" d="M213.6,114.7c0,0,6.9,4.2,16.6,4.5l1.2,75.5c0,0-14.4-4.4-17.8-7.4C213.6,186.8,213.6,114.7,213.6,114.7z"/>
	<polygon class="st1" points="233.4,169.1 233.4,171.5 243.6,173 243.6,170.5 	"/>
	<polygon class="st1" points="233.4,173.8 233.4,176.2 243.6,177.7 243.6,175.2 	"/>
	<polygon class="st1" points="233.4,178.5 233.4,180.9 243.6,182.5 243.6,179.9 	"/>
	<polygon class="st1" points="233.4,183.3 233.4,185.7 243.6,187.2 243.6,184.7 	"/>
	<polygon class="st1" points="233.4,188 233.4,190.4 243.6,192 243.6,189.4 	"/>
	<polygon class="st1" points="233.4,192.8 233.4,195.1 243.6,196.7 243.6,194.2 	"/>
	<path class="st1" d="M260.5,154v43.2c0,0,14.5-0.6,21.2-3.2l0.6-42.3C282.3,151.7,268.7,153.5,260.5,154z"/>
	<polygon class="st1" points="246.3,199 246.3,205.8 257,206.1 257,199 	"/>
	<path class="st1" d="M260.5,199v7.1c0,0,16.3-0.6,21.1-2.6v-6.8c0,0-8.8,2.3-15.9,2.3H260.5z"/>
	<path class="st1" d="M284.6,195.4v6.7c0,0,6.9-0.9,12.6-4.5l4.1-2.9v-7C301.3,187.7,291.8,194.7,284.6,195.4z"/>
	<path class="st1" d="M185.7,104.9c2.3,0,4.3,5.9,4.4,16c0.2,10.1,1.3,36.3,1,40.4s1,44.8,1,44.8"/>
	<path class="st1" d="M192.3,102.9c1.8,1.2,4.6,14.8,5.1,29.1s0.8,29.4,0.8,29.4"/>
	<path class="st1" d="M203.7,102.1c3.1,5.2,6.6,17.9,6.3,59.3h-18.8"/>
	<path class="st1" d="M209.9,161.4c-0.8,0-2,1.7-2,1.7v5.9l3.3,36.5l2.3,1.8"/>
	<line class="st1" x1="208" y1="168.9" x2="191.1" y2="168.5"/>
	<line class="st1" x1="197" y1="168.7" x2="198.6" y2="207.2"/>
	<path class="st1" d="M190.6,204.8c2.7,1.6,6.6,3.1,12.3,2.9c5.7-0.2,7.1-1.2,8.3-2.3"/>
	<path class="st1" d="M238.5,224.9l5.1,6.1l-8.1,9.2h-2.9c0,0,1.1,10.6,0.9,13.4c-0.2,2.8-2.2,4.8-3.5,4.6v3c0,0,2.4,0,3.5,3
		s0.6,5-2,6.3l2,7.4l-3.8,4l-33.8,6.1l-2.5-1.2l-9.2-31.5l0.7-4l6.6-12.1l-2.3-5.6l1-11.4l-1.7-2l-0.3-14.2l2.5-1.3l-1.5-35.7
		l-6.1-7c0,0,0.3-7.9,0.5-13.4c0.2-5.4-1-6.9-1.3-13.8c-0.3-6.9,1.2-25.3,1.7-27.5c0.5-2.2,4-4.1,8.4-4.5c4.5-0.4,11.4-0.8,11.4-0.8
		c5.7,7.7,7.7,18.7,8.4,26.3c0.7,7.6,0.2,35.5,0.2,35.5s-1.5,3.4-1.5,2.8c0.4,3.5,1.5,32.4,1.5,34c1,0.6,1.3,0.1,1.3,3
		s0,12.6,0,12.6c23.3,12.6,47.6,11.4,65,8.4s28.1-12.8,28.1-18.4c0-5.7,3.6-105.1,3.6-105.1"/>
	<path class="st1" d="M243.6,231.1c4.8,1.2,11.1,2.5,20.2,1.6c9.1-0.9,20.1-3.2,22.2-9.9"/>
	<polyline class="st1" points="276.3,230.3 285.3,240.3 294.9,236.5 294.9,219 	"/>
	<path class="st1" d="M203.7,94.5c12.8,5.8,31.5,9.1,52,9.1c21.7,0,41.8-3.6,54.7-10c0,0,7.9,0.6,11.7,1.1s4.3,1.1,5.9,4.6
		s2.6,7.5,2.6,12.4s-0.8,35.5-0.8,35.5l-6.7,6.7h-1.7v38.5l3.4,4.3V215"/>
	<path class="st1" d="M317.5,94.2c2.5,2,6.1,4.2,6.8,13.1s0.8,40.8,0.8,40.8"/>
	<path class="st1" d="M329.8,147.2l-15.5,1l-4,6.1l0.1,59.3l6.1-4.5l1.3,1.2l3.8-0.2l2-1l-0.3,6.1c0,0,3-1.3,4.6,2.8
		c1.7,4.1,0.3,8.4,0.3,8.4l16.7,30.4v3.1l-2,3.3l-31,9.2h-1.6l-25-24.8v-3.3l1.8-1v-3.9"/>
	<path class="st1" d="M314.3,148.2c0,0,0.7-17.5,0-27.2s-4.2-16-4.2-16"/>
	<line class="st1" x1="321.4" y1="153.9" x2="310.3" y2="154.3"/>
	<polyline class="st1" points="193.1,285.6 195.2,243.8 191.4,239.3 	"/>
	<polygon class="st2" points="214.6,192 214.6,207.2 216,208.1 216,192.8 	"/>
	<polygon class="st2" points="217.1,193.3 217.1,208.7 219.2,209.9 219.2,194.3 	"/>
	<polygon class="st2" points="220.8,194.9 220.8,210.7 223.4,211.7 223.4,196 	"/>
	<polygon class="st2" points="225.1,196.7 225.1,212.7 229,213.9 229,198 	"/>
	<path class="st1" d="M211.8,188.8c0,0,11.4,6.4,19.6,7.9l0.4,24.8c0,0-12.4-3.5-18.3-7.9"/>
	<path class="st1" d="M234,206.1v16c0,0,8,3,23,2v-16C257,208.1,241.6,207.9,234,206.1z"/>
	<polygon class="st1" points="284.6,204.5 284.6,220.8 292,217.5 292,202.6 	"/>
	<polygon class="st1" points="293.6,202.1 293.6,216.6 301.3,211.1 301.3,197.2 	"/>
	<circle class="st1" cx="270.3" cy="213.8" r="2.1"/>
	<ellipse class="st1" cx="270.8" cy="215" rx="7.7" ry="7"/>
	<path class="st1" d="M279.4,222.1c-6.6,1.9-17,2.3-17,2.3l0.6-15.7c14.6-1.2,16.3-2.5,16.3-2.5V222.1z"/>
	<path class="st1" d="M246.8,210.6l-8.3-0.7v11c0,0,3.9,1.3,8.3,1.2V210.6z"/>
	<path class="st1" d="M246.8,219.9c0,0-4.5-0.2-6.8-1v-9"/>
	<path class="st1" d="M190.1,222.3l7.7,8.1V210c0,0,4.5,0.6,10.2,0c5.6-0.6,5.6-1.9,5.6-1.9c3.5,2.9,15.4,7.4,15.4,7.4s0,2.1,0,3.5
		c-3.9-0.9-14.1-6-15.4-7"/>
	<path class="st1" d="M231.4,270.5c-6.3,2-13.3-1.5-14.3-6c-3.9,0.6-8.1,5.3-10.5,7c-2.3,1.7-2.6-1.3-1.7-2.6s3-4.3,7.8-5.6
		c-8.8-1-9.9-4.1-9.1-5.3c0.8-1.2,1.8-1.2,2.3,0c0.5,1.2,9.7,3,11.5,3.1c1.8-1.3,8.2-1,12.5,0.2"/>
	<path class="st1" d="M219.2,263.4c2.3-1,9.2-0.7,11.1,1.1c1.8,1.8-0.2,3.8-2.1,3.7s-4.6,0-6.3-1.8
		C220.2,264.6,219.2,263.4,219.2,263.4z"/>
	<polyline class="st1" points="208,259 208,255.2 200.5,256.3 204.2,277.5 210,276.5 209.6,269.1 	"/>
	<line class="st1" x1="208.8" y1="264.6" x2="208.4" y2="262.5"/>
	<polygon class="st1" points="195.2,281.8 195.2,284.1 203.7,282.5 203.7,280.3 	"/>
	<polygon class="st1" points="206,281.8 213.6,280.3 213.6,278.3 206,279.6 	"/>
	<polygon class="st1" points="215.1,280 223.2,278.6 223.2,276.5 215.1,278 	"/>
	<polygon class="st1" points="225.1,278.3 225.1,276.3 231.4,275.3 231.5,277.1 	"/>
	<polyline class="st1" points="308.7,271 309.3,266.3 301.9,252.9 297.5,249.1 299.6,248.2 300.6,219.9 294.9,220.8 	"/>
	<polyline class="st1" points="300.6,219.9 309.3,218.2 309.3,248.2 	"/>
	<polyline class="st1" points="305.4,210 310.4,213.5 312.4,217.7 313.3,244.1 309.3,244.1 	"/>
	<path class="st1" d="M333.6,249.6c-0.6-0.6-1.6-0.5-2.1,0.1c0,0-1.1,1.2-2.7,2.4c0.1-0.1,0.2-0.2,0.3-0.3c1.7-2.3,2.3-4.6,1.8-6.7
		c-0.8-3.6-1.9-5.6-3.7-6.4c-1.2-0.6-2.6-0.5-4.1,0.3c-0.7,0.4-1,1.3-0.7,2c0.4,0.7,1.3,1,2,0.7c0.9-0.5,1.3-0.3,1.4-0.2
		c0.4,0.2,1.3,1,2,4.4c0.3,1.2-0.2,2.7-1.3,4.3c-1.7,2.5-4.7,4.7-7.1,6.1c-1.2,0.1-2.3,0-3.2-0.4c-2.4-1-4.8-4.1-4.8-6.3
		c0-0.8-0.7-1.5-1.5-1.5c0,0,0,0,0,0c-0.8,0-1.5,0.7-1.5,1.5c0,3,2.3,6.2,4.8,8c-3.1-0.2-5.9-0.9-6.6-1.4c-0.2-0.3-0.9-1.8-0.5-2.9
		c0.3-0.8,0-1.6-0.8-2c-0.8-0.3-1.6,0-2,0.8c-0.3,0.7-1,4.3,1.2,6.1c1.7,1.4,7.2,2.5,10.8,2.5c0.6,0,1.1,0,1.5-0.1
		c0.9-0.1,2.1-0.6,3.6-1.4c1.8-0.2,3.8-0.9,5.9-1.9c3.9-1.8,7.1-5.3,7.3-5.5C334.3,251.1,334.3,250.1,333.6,249.6z"/>
	<path class="st1" d="M274,172.8l-5.8,0.6c-3.4,0.3-6.2-2.2-6.2-5.6v-5.8c0-3.4,2.8-6.5,6.2-6.8l5.8-0.6c3.4-0.3,6.2,2.2,6.2,5.6
		v5.8C280.2,169.4,277.4,172.5,274,172.8z"/>
	<path class="st1" d="M273.9,193.7l-5.8,0.6c-3.4,0.3-6.2-2.2-6.2-5.6v-5.8c0-3.4,2.8-6.5,6.2-6.8l5.8-0.6c3.4-0.3,6.2,2.2,6.2,5.6
		v5.8C280.1,190.2,277.3,193.3,273.9,193.7z"/>
	<line class="st1" x1="268.2" y1="176.1" x2="268.2" y2="194.3"/>
	<line class="st1" x1="275.1" y1="175.5" x2="275.1" y2="193.4"/>
	<rect x="263.9" y="155.9" transform="matrix(0.9922 -0.125 0.125 0.9922 -17.4199 35.0955)" class="st3" width="14.2" height="1"/>
	<rect x="262.5" y="157.8" transform="matrix(0.9911 -0.1329 0.1329 0.9911 -18.6312 37.4121)" class="st3" width="17" height="1"/>
	<rect x="262" y="159.6" transform="matrix(0.9912 -0.1327 0.1327 0.9912 -18.8419 37.3947)" class="st3" width="18.3" height="1"/>
	
		<rect x="261.8" y="161.4" transform="matrix(0.9895 -0.1444 0.1444 0.9895 -20.5409 40.8427)" class="st3" width="18.4" height="1"/>
	<rect x="262" y="163" transform="matrix(0.9909 -0.1349 0.1349 0.9909 -19.574 38.0585)" class="st3" width="18.4" height="1"/>
	
		<rect x="261.9" y="164.7" transform="matrix(0.9906 -0.1368 0.1368 0.9906 -20.0533 38.6304)" class="st3" width="18.5" height="1"/>
	<rect x="262" y="166.4" transform="matrix(0.9914 -0.1308 0.1308 0.9914 -19.4935 36.8882)" class="st3" width="18.3" height="1"/>
	
		<rect x="262.3" y="168.1" transform="matrix(0.9914 -0.1308 0.1308 0.9914 -19.7115 36.9112)" class="st3" width="17.9" height="1"/>
	
		<rect x="262.9" y="169.6" transform="matrix(0.9929 -0.1192 0.1192 0.9929 -18.3417 33.5503)" class="st3" width="16.6" height="1"/>
	<rect x="264.7" y="171.1" transform="matrix(0.9922 -0.125 0.125 0.9922 -19.324 35.2654)" class="st3" width="13.3" height="1"/>
	<rect x="268.1" y="176.8" transform="matrix(0.9917 -0.1288 0.1288 0.9917 -20.5777 36.4744)" class="st3" width="7" height="1"/>
	<rect x="268.1" y="178.4" transform="matrix(0.994 -0.1094 0.1094 0.994 -17.9395 30.779)" class="st3" width="7" height="1"/>
	<rect x="268.1" y="180.1" transform="matrix(0.9931 -0.1171 0.1171 0.9931 -19.2734 33.0412)" class="st3" width="7" height="1"/>
	<rect x="268.1" y="181.7" transform="matrix(0.9942 -0.1074 0.1074 0.9942 -18.006 30.2361)" class="st3" width="7" height="1"/>
	<rect x="268.1" y="183.4" transform="matrix(0.9936 -0.1132 0.1132 0.9936 -19.0729 31.9356)" class="st3" width="7" height="1"/>
	<rect x="268.1" y="185" transform="matrix(0.9944 -0.1055 0.1055 0.9944 -18.0584 29.6922)" class="st3" width="7" height="1"/>
	<rect x="268.1" y="186.7" transform="matrix(0.9903 -0.1387 0.1387 0.9903 -23.3358 39.4821)" class="st3" width="7" height="1"/>
	
		<rect x="268.1" y="188.3" transform="matrix(0.9868 -0.1622 0.1622 0.9868 -27.0304 46.5536)" class="st3" width="7.1" height="1"/>
	<rect x="268.1" y="190" transform="matrix(0.9837 -0.1796 0.1796 0.9837 -29.7916 51.8761)" class="st3" width="7.1" height="1"/>
	
		<rect x="268.1" y="191.6" transform="matrix(0.9848 -0.1739 0.1739 0.9848 -29.2744 50.1636)" class="st3" width="7.1" height="1"/>
	<polyline class="st1" points="300.1,235.2 301.3,236.3 301.3,250 305.4,248.7 305.4,227.8 303.9,227 304,219.2 	"/>
	<line class="st1" x1="313.3" y1="232.9" x2="319.9" y2="255.2"/>
	<line class="st1" x1="326" y1="250.9" x2="323.4" y2="241.7"/>
	<polyline class="st1" points="327.8,256.5 328.5,259.5 334.1,258 332.8,252.7 	"/>
	<path class="st1" d="M328.2,226.4l-2.1-3.7c0,0-3.1-0.1-3.8,0.9s-2.2,5.1,2.5,5.1l3,8.4l-5.2-0.7c0,0,0.8-6.4-3.9-8.1
		c-4.7-1.7-5.9,0.3-5.9,0.3"/>
	<polygon class="st1" points="318.7,208.1 322.7,207.2 322.7,202.6 318.7,203.3 	"/>
	<polygon class="st1" points="311.4,266.6 311.6,268.1 319.1,266.1 318.9,264.7 	"/>
	<polygon class="st1" points="321.1,265.4 327.9,263.5 327.7,262.2 320.9,264 	"/>
	<polygon class="st1" points="329.2,263.1 336.4,261.3 336.3,260 329.1,261.9 	"/>
	<polygon class="st1" points="338.1,260.8 338,259.6 343.6,258.2 343.8,259.3 	"/>
	<path class="st1" d="M192.3,224.3l-0.2,6.1l4.1,9.9c0,0,3.9,2.5,4.4,6c0.5,3.6,0.4,7.7,0.4,7.7l5.8-1.4c0,0,0-9.2-3.1-11h7.6v-1.4
		l2.3-2l1-10.5l15.8-0.8"/>
	<line class="st1" x1="232.6" y1="240.3" x2="229.7" y2="222.8"/>
	<polyline class="st1" points="213.6,216.2 213.6,238.3 208,239.3 208.4,231.6 201.9,230.4 201.9,240.3 199.5,239.3 199.5,223.7 	
		"/>
	<path class="st1" d="M197.8,224.3h8.7c0,0,1,4.4,7.1,2.7"/>
	<polyline class="st1" points="213.6,238.3 213.6,243 216,245.5 217.4,261.1 	"/>
	<polyline class="st1" points="217.1,227.4 217.1,233.2 215.3,233.2 215.5,242.7 218.1,245.5 219.2,260.8 	"/>
	<polyline class="st1" points="222.5,260.3 221.8,233.2 220.2,233.4 220.2,227.5 	"/>
	<polyline class="st1" points="225.1,227.3 225.1,233.2 223.9,233.2 224.2,242.5 227.1,247.1 227.1,260.8 	"/>
	<polyline class="st1" points="229.9,258.3 229.9,233.2 228.3,232.9 228.3,227.1 	"/>
</g>
</svg>
