
<svg id="paradroid-3001" viewBox="0 0 201 38">
	<style type="text/css">
		.st0{fill:#AE00D3;}
		.st1{opacity:0.28;}
		.st2{fill:#6B0089;}
		.st3{fill:url(#SVGID_1_);}
		.st4{fill:url(#SVGID_2_);}
		.st5{fill:url(#SVGID_3_);}
		.st6{fill:url(#SVGID_4_);}
		.st7{fill:url(#SVGID_5_);}
		.st8{fill:url(#SVGID_6_);}
		.st9{fill:url(#SVGID_7_);}
		.st10{fill:url(#SVGID_8_);}
		.st11{fill:url(#SVGID_9_);}
		.st12{fill:url(#SVGID_10_);}
		.st13{fill:url(#SVGID_11_);}
		.st14{fill:url(#SVGID_12_);}
		.st15{fill:url(#SVGID_13_);}
		.st16{fill:url(#SVGID_14_);}
		.st17{fill:url(#SVGID_15_);}
		.st18{fill:url(#SVGID_16_);}
		.st19{fill:url(#SVGID_17_);}
		.st20{fill:url(#SVGID_18_);}
		.st21{fill:url(#SVGID_19_);}
		.st22{fill:url(#SVGID_20_);}
	</style>
	<g>
		<path class="st0" d="M47,1H33.5H3.7C2.2,1,1,2.2,1,3.7v3.1c0,1.5,1.2,2.7,2.7,2.7h22.1c1.1,0.2,2,1.1,2.1,2.3h0
			c0,1.5-1.2,2.7-2.7,2.7l0,0h-12c-1.5,0-2.7,1.2-2.7,2.7v3.1c0,1.5,1.2,2.7,2.7,2.7h12c1.5,0,2.6,1.2,2.6,2.6
			c-0.1,1.2-1,2.1-2.1,2.3H3.7C2.2,27.8,1,29,1,30.5v3.1c0,0,0,0,0,0l0,0c0,1.5,1.2,2.7,2.7,2.7H47c1.5,0,2.7-1.2,2.7-2.7l0-30
			C49.7,2.2,48.5,1,47,1z"/>
		<path class="st0" d="M101.5,1H58.1c-1.5,0-2.7,1.2-2.7,2.7v30c0,1.5,1.2,2.7,2.7,2.7h43.4c1.5,0,2.7-1.2,2.7-2.7v-30
			C104.1,2.2,102.9,1,101.5,1z M95.7,25.2c0,1.5-1.2,2.7-2.7,2.7H79.9c-1.5,0-2.7-1.2-2.7-2.7V12.1c0-1.5,1.2-2.7,2.7-2.7H93
			c1.5,0,2.7,1.2,2.7,2.7V25.2z"/>
		<path class="st0" d="M155.9,1h-43.4c-1.5,0-2.7,1.2-2.7,2.7v30c0,1.5,1.2,2.7,2.7,2.7h43.4c1.5,0,2.7-1.2,2.7-2.7v-30
			C158.6,2.2,157.3,1,155.9,1z M150.1,25.2c0,1.5-1.2,2.7-2.7,2.7h-13.1c-1.5,0-2.7-1.2-2.7-2.7V12.1c0-1.5,1.2-2.7,2.7-2.7h13.1
			c1.5,0,2.7,1.2,2.7,2.7V25.2z"/>
		<path class="st0" d="M192.9,3.7c0-1.5-1.2-2.7-2.7-2.7l0,0H167l0,0c-1.5,0-2.7,1.2-2.7,2.7l0,0v3c0,1.5,1.2,2.7,2.7,2.7h1.6
			c1.5,0,2.7,1.2,2.7,2.7v13.1c0,1.5-1.2,2.7-2.7,2.7H167c-1.5,0-2.7,1.2-2.7,2.7v3.1c0,1.5,1.2,2.7,2.7,2.7h30
			c1.5,0,2.7-1.2,2.7-2.7v-3.1c0-1.5-1.2-2.7-2.7-2.7h-1.4c-1.5,0-2.7-1.2-2.7-2.7V3.7z"/>
	</g>
	<g class="st1">
		<g>
			<path class="st2" d="M26.8,27.4c-0.3,0.2-0.6,0.4-1,0.4H3.7C2.2,27.8,1,29,1,30.5v3.1c0,0,0,0,0,0l0,0c0,0.1,0,0.3,0,0.4
				c0.2-1.3,1.3-2.2,2.6-2.2h22.1c1.1-0.2,1.9-1.2,2.1-2.3c0,0,0-2.3,0-3.6C27.6,26.5,27.3,27,26.8,27.4z"/>
			<path class="st2" d="M3.7,5h29.8H47c1.5,0,2.7,1.2,2.7,2.7v-4C49.7,2.2,48.5,1,47,1H33.5H3.7C2.2,1,1,2.2,1,3.7v3.1
				C1,7,1,7.1,1,7.2C1.2,5.9,2.3,5,3.7,5z"/>
			<path class="st2" d="M26.7,13.9c-0.4,0.3-1,0.5-1.6,0.5l0,0h-12c-1.5,0-2.7,1.2-2.7,2.7v3.1c0,0.1,0,0.3,0,0.4
				c0.2-1.3,1.3-2.2,2.6-2.2h12l0,0c1.4,0,2.6-1.1,2.7-2.6c0,0,0,0,0,0s0-2.3,0-3.6C27.7,12.9,27.3,13.5,26.7,13.9z"/>
		</g>
		<g>
			<path class="st2" d="M79.9,31.9H93c1.5,0,2.7-1.2,2.7-2.7v-4c0,1.5-1.2,2.7-2.7,2.7H79.9c-1.5,0-2.7-1.2-2.7-2.7v4
				C77.2,30.7,78.4,31.9,79.9,31.9z"/>
			<path class="st2" d="M101.5,1H58.1c-1.5,0-2.7,1.2-2.7,2.7v4c0-1.5,1.2-2.7,2.7-2.7h43.4c1.4,0,2.7,1.2,2.7,2.7v-4
				C104.1,2.2,102.9,1,101.5,1z"/>
		</g>
		<g>
			<path class="st2" d="M134.3,31.9h13.1c1.5,0,2.7-1.2,2.7-2.7v-4c0,1.5-1.2,2.7-2.7,2.7h-13.1c-1.5,0-2.7-1.2-2.7-2.7v4
				C131.7,30.7,132.9,31.9,134.3,31.9z"/>
			<path class="st2" d="M155.9,1h-43.4c-1.5,0-2.7,1.2-2.7,2.7v4c0-1.5,1.2-2.7,2.7-2.7h43.4c1.4,0,2.7,1.2,2.7,2.7v-4
				C158.6,2.2,157.3,1,155.9,1z"/>
		</g>
		<g>
			<path class="st2" d="M167,5h23.2c1.5,0,2.7,1.2,2.7,2.7v-4c0-1.5-1.2-2.7-2.7-2.7H167c-1.5,0-2.7,1.2-2.7,2.7v3c0,0.2,0,0.3,0,0.5
				C164.6,5.9,165.7,5,167,5z"/>
			<path class="st2" d="M196.9,27.8h-1.4c-1.5,0-2.7-1.2-2.7-2.7v4c0,1.5,1.2,2.7,2.7,2.7h1.4c1.4,0,2.4,1,2.6,2.2c0-0.1,0-0.3,0-0.4
				v-3.1C199.6,29,198.4,27.8,196.9,27.8z"/>
			<path class="st2" d="M167,31.8h1.6c1.5,0,2.7-1.2,2.7-2.7v-4c0,1.5-1.2,2.7-2.7,2.7H167c-1.5,0-2.7,1.2-2.7,2.7v3.1
				c0,0.1,0,0.3,0,0.4C164.5,32.8,165.6,31.8,167,31.8z"/>
		</g>
	</g>
	<g>
		<g>
			<linearGradient id="SVGID_1_" gradientUnits="userSpaceOnUse" x1="10.5279" y1="22.0677" x2="27.8533" y2="22.0677">
				<stop  offset="0" style="stop-color:#AE00D3"/>
				<stop  offset="0.5133" style="stop-color:#646464"/>
				<stop  offset="1" style="stop-color:#AE00D3"/>
			</linearGradient>
			<path class="st3" d="M13.2,22.9h12c1.3,0,2.3,0.9,2.5,2c0-0.1,0.1-0.3,0.1-0.4c0-1.4-1.1-2.6-2.6-2.6h-12c-1.5,0-2.7-1.2-2.7-2.7
				v1C10.5,21.7,11.7,22.9,13.2,22.9z"/>
			<linearGradient id="SVGID_2_" gradientUnits="userSpaceOnUse" x1="1" y1="19.9836" x2="49.6879" y2="19.9836">
				<stop  offset="0" style="stop-color:#AE00D3"/>
				<stop  offset="0.5133" style="stop-color:#646464"/>
				<stop  offset="1" style="stop-color:#AE00D3"/>
			</linearGradient>
			<path class="st4" d="M49.7,32.6c0,1.5-1.2,2.7-2.7,2.7H3.7c-1.5,0-2.7-1.2-2.7-2.7v1c0,0,0,0,0,0l0,0c0,1.5,1.2,2.7,2.7,2.7H47
				c1.5,0,2.7-1.2,2.7-2.7l0-30l0,0L49.7,32.6z"/>
			<linearGradient id="SVGID_3_" gradientUnits="userSpaceOnUse" x1="1" y1="8.5843" x2="27.8462" y2="8.5843">
				<stop  offset="0" style="stop-color:#AE00D3"/>
				<stop  offset="0.5133" style="stop-color:#646464"/>
				<stop  offset="1" style="stop-color:#AE00D3"/>
			</linearGradient>
			<path class="st5" d="M3.7,9.5h22.1c1,0.2,1.8,0.9,2,1.9c0-0.2,0.1-0.4,0.1-0.6h0c-0.1-1.1-1-2-2.1-2.3H3.7C2.2,8.5,1,7.3,1,5.8v1
				C1,8.3,2.2,9.5,3.7,9.5z"/>
			<linearGradient id="SVGID_4_" gradientUnits="userSpaceOnUse" x1="1" y1="32.6264" x2="1.0012" y2="32.6264">
				<stop  offset="0" style="stop-color:#AE00D3"/>
				<stop  offset="0.5133" style="stop-color:#646464"/>
				<stop  offset="1" style="stop-color:#AE00D3"/>
			</linearGradient>
			<path class="st6" d="M1,32.6L1,32.6L1,32.6C1,32.6,1,32.6,1,32.6z"/>
		</g>
		<g>
			<linearGradient id="SVGID_5_" gradientUnits="userSpaceOnUse" x1="77.2409" y1="10.2533" x2="95.7016" y2="10.2533">
				<stop  offset="0" style="stop-color:#AE00D3"/>
				<stop  offset="0.5133" style="stop-color:#646464"/>
				<stop  offset="1" style="stop-color:#AE00D3"/>
			</linearGradient>
			<path class="st7" d="M93,8.4H79.9c-1.5,0-2.7,1.2-2.7,2.7v1c0-1.5,1.2-2.7,2.7-2.7H93c1.5,0,2.7,1.2,2.7,2.7v-1
				C95.7,9.6,94.5,8.4,93,8.4z"/>
			<linearGradient id="SVGID_6_" gradientUnits="userSpaceOnUse" x1="55.4333" y1="34.4665" x2="104.1212" y2="34.4665">
				<stop  offset="0" style="stop-color:#AE00D3"/>
				<stop  offset="0.5133" style="stop-color:#646464"/>
				<stop  offset="1" style="stop-color:#AE00D3"/>
			</linearGradient>
			<path class="st8" d="M101.5,35.3H58.1c-1.5,0-2.7-1.2-2.7-2.7v1c0,1.5,1.2,2.7,2.7,2.7h43.4c1.5,0,2.7-1.2,2.7-2.7v-1
				C104.1,34.1,102.9,35.3,101.5,35.3z"/>
		</g>
		<g>
			<linearGradient id="SVGID_7_" gradientUnits="userSpaceOnUse" x1="131.6742" y1="10.2533" x2="150.1348" y2="10.2533">
				<stop  offset="0" style="stop-color:#AE00D3"/>
				<stop  offset="0.5133" style="stop-color:#646464"/>
				<stop  offset="1" style="stop-color:#AE00D3"/>
			</linearGradient>
			<path class="st9" d="M147.5,8.4h-13.1c-1.5,0-2.7,1.2-2.7,2.7v1c0-1.5,1.2-2.7,2.7-2.7h13.1c1.5,0,2.7,1.2,2.7,2.7v-1
				C150.1,9.6,148.9,8.4,147.5,8.4z"/>
			<linearGradient id="SVGID_8_" gradientUnits="userSpaceOnUse" x1="109.8667" y1="34.4665" x2="158.5546" y2="34.4665">
				<stop  offset="0" style="stop-color:#AE00D3"/>
				<stop  offset="0.5133" style="stop-color:#646464"/>
				<stop  offset="1" style="stop-color:#AE00D3"/>
			</linearGradient>
			<path class="st10" d="M155.9,35.3h-43.4c-1.5,0-2.7-1.2-2.7-2.7v1c0,1.5,1.2,2.7,2.7,2.7h43.4c1.5,0,2.7-1.2,2.7-2.7v-1
				C158.6,34.1,157.4,35.3,155.9,35.3z"/>
		</g>
		<g>
			<linearGradient id="SVGID_9_" gradientUnits="userSpaceOnUse" x1="164.2999" y1="34.4666" x2="199.6" y2="34.4666">
				<stop  offset="0" style="stop-color:#AE00D3"/>
				<stop  offset="0.5133" style="stop-color:#646464"/>
				<stop  offset="1" style="stop-color:#AE00D3"/>
			</linearGradient>
			<path class="st11" d="M196.9,35.3h-30c-1.5,0-2.7-1.2-2.7-2.7v1c0,1.5,1.2,2.7,2.7,2.7h30c1.5,0,2.7-1.2,2.7-2.7v-1
				C199.6,34.1,198.4,35.3,196.9,35.3z"/>
			<linearGradient id="SVGID_10_" gradientUnits="userSpaceOnUse" x1="164.2999" y1="8.8674" x2="171.2031" y2="8.8674">
				<stop  offset="0" style="stop-color:#AE00D3"/>
				<stop  offset="0.5133" style="stop-color:#646464"/>
				<stop  offset="1" style="stop-color:#AE00D3"/>
			</linearGradient>
			<path class="st12" d="M167,9.4h1.6c1.5,0,2.7,1.2,2.7,2.7v-1c0-1.5-1.2-2.7-2.7-2.7H167c-1.5,0-2.7-1.2-2.7-2.7v1
				C164.3,8.2,165.5,9.4,167,9.4z"/>
		</g>
	</g>
	<g>
		<g>
			<linearGradient id="SVGID_11_" gradientUnits="userSpaceOnUse" x1="1" y1="2.5193" x2="49.6879" y2="2.5193">
				<stop  offset="0" style="stop-color:#AE00D3"/>
				<stop  offset="0.5133" style="stop-color:#646464"/>
				<stop  offset="1" style="stop-color:#AE00D3"/>
			</linearGradient>
			<path class="st13" d="M3.7,1.4h29.8H47c1.5,0,2.7,1.2,2.7,2.7V3.7C49.7,2.2,48.5,1,47,1H33.5H3.7C2.2,1,1,2.2,1,3.7V4
				C1,2.5,2.2,1.4,3.7,1.4z"/>
			<linearGradient id="SVGID_12_" gradientUnits="userSpaceOnUse" x1="10.5279" y1="14.7212" x2="27.8462" y2="14.7212">
				<stop  offset="0" style="stop-color:#AE00D3"/>
				<stop  offset="0.5133" style="stop-color:#646464"/>
				<stop  offset="1" style="stop-color:#AE00D3"/>
			</linearGradient>
			<path class="st14" d="M13.2,14.8h12l0,0c1.5,0,2.7-1.2,2.7-2.7h0c0,0,0-0.1,0-0.1c-0.1,1.4-1.3,2.4-2.6,2.4l0,0h-12
				c-1.5,0-2.7,1.2-2.7,2.7v0.4C10.5,15.9,11.7,14.8,13.2,14.8z"/>
			<linearGradient id="SVGID_13_" gradientUnits="userSpaceOnUse" x1="1" y1="28.2436" x2="27.8533" y2="28.2436">
				<stop  offset="0" style="stop-color:#AE00D3"/>
				<stop  offset="0.5133" style="stop-color:#646464"/>
				<stop  offset="1" style="stop-color:#AE00D3"/>
			</linearGradient>
			<path class="st15" d="M25.8,27.8H3.7C2.2,27.8,1,29,1,30.5v0.4c0-1.5,1.2-2.7,2.7-2.7h22.1c1.1-0.2,1.9-1.2,2.1-2.3
				c0-0.1,0-0.1,0-0.2C27.7,26.7,26.8,27.6,25.8,27.8z"/>
		</g>
		<g>
			<linearGradient id="SVGID_14_" gradientUnits="userSpaceOnUse" x1="77.2409" y1="26.7326" x2="95.7016" y2="26.7326">
				<stop  offset="0" style="stop-color:#AE00D3"/>
				<stop  offset="0.5133" style="stop-color:#646464"/>
				<stop  offset="1" style="stop-color:#AE00D3"/>
			</linearGradient>
			<path class="st16" d="M79.9,28.3H93c1.5,0,2.7-1.2,2.7-2.7v-0.4c0,1.5-1.2,2.7-2.7,2.7H79.9c-1.5,0-2.7-1.2-2.7-2.7v0.4
				C77.2,27.1,78.4,28.3,79.9,28.3z"/>
			<linearGradient id="SVGID_15_" gradientUnits="userSpaceOnUse" x1="55.4333" y1="2.5193" x2="104.1212" y2="2.5193">
				<stop  offset="0" style="stop-color:#AE00D3"/>
				<stop  offset="0.5133" style="stop-color:#646464"/>
				<stop  offset="1" style="stop-color:#AE00D3"/>
			</linearGradient>
			<path class="st17" d="M101.5,1H58.1c-1.5,0-2.7,1.2-2.7,2.7V4c0-1.5,1.2-2.7,2.7-2.7h43.4c1.4,0,2.7,1.2,2.7,2.7V3.7
				C104.1,2.2,102.9,1,101.5,1z"/>
		</g>
		<g>
			<linearGradient id="SVGID_16_" gradientUnits="userSpaceOnUse" x1="131.6742" y1="26.7326" x2="150.1348" y2="26.7326">
				<stop  offset="0" style="stop-color:#AE00D3"/>
				<stop  offset="0.5133" style="stop-color:#646464"/>
				<stop  offset="1" style="stop-color:#AE00D3"/>
			</linearGradient>
			<path class="st18" d="M134.3,28.3h13.1c1.5,0,2.7-1.2,2.7-2.7v-0.4c0,1.5-1.2,2.7-2.7,2.7h-13.1c-1.5,0-2.7-1.2-2.7-2.7v0.4
				C131.7,27.1,132.9,28.3,134.3,28.3z"/>
			<linearGradient id="SVGID_17_" gradientUnits="userSpaceOnUse" x1="109.8667" y1="2.5193" x2="158.5546" y2="2.5193">
				<stop  offset="0" style="stop-color:#AE00D3"/>
				<stop  offset="0.5133" style="stop-color:#646464"/>
				<stop  offset="1" style="stop-color:#AE00D3"/>
			</linearGradient>
			<path class="st19" d="M155.9,1h-43.4c-1.5,0-2.7,1.2-2.7,2.7V4c0-1.5,1.2-2.7,2.7-2.7h43.4c1.4,0,2.7,1.2,2.7,2.7V3.7
				C158.6,2.2,157.3,1,155.9,1z"/>
		</g>
		<g>
			<linearGradient id="SVGID_18_" gradientUnits="userSpaceOnUse" x1="164.2999" y1="28.0139" x2="171.2031" y2="28.0139">
				<stop  offset="0" style="stop-color:#AE00D3"/>
				<stop  offset="0.5133" style="stop-color:#646464"/>
				<stop  offset="1" style="stop-color:#AE00D3"/>
			</linearGradient>
			<path class="st20" d="M167,28.2h1.6c1.5,0,2.7-1.2,2.7-2.7v-0.4c0,1.5-1.2,2.7-2.7,2.7H167c-1.5,0-2.7,1.2-2.7,2.7v0.4
				C164.3,29.4,165.5,28.2,167,28.2z"/>
			<linearGradient id="SVGID_19_" gradientUnits="userSpaceOnUse" x1="164.2999" y1="2.5193" x2="192.8538" y2="2.5193">
				<stop  offset="0" style="stop-color:#AE00D3"/>
				<stop  offset="0.5133" style="stop-color:#646464"/>
				<stop  offset="1" style="stop-color:#AE00D3"/>
			</linearGradient>
			<path class="st21" d="M167,1.4h23.2c1.5,0,2.7,1.2,2.7,2.7V3.7c0-1.5-1.2-2.7-2.7-2.7H167c-1.5,0-2.7,1.2-2.7,2.7V4
				C164.3,2.5,165.5,1.4,167,1.4z"/>
			<linearGradient id="SVGID_20_" gradientUnits="userSpaceOnUse" x1="192.8538" y1="28.0139" x2="199.6" y2="28.0139">
				<stop  offset="0" style="stop-color:#AE00D3"/>
				<stop  offset="0.5133" style="stop-color:#646464"/>
				<stop  offset="1" style="stop-color:#AE00D3"/>
			</linearGradient>
			<path class="st22" d="M196.9,27.8h-1.4c-1.5,0-2.7-1.2-2.7-2.7v0.4c0,1.5,1.2,2.7,2.7,2.7h1.4c1.5,0,2.7,1.2,2.7,2.7v-0.4
				C199.6,29,198.4,27.8,196.9,27.8z"/>
		</g>
	</g>
</svg>
