
<svg id="paradroid-3001" viewBox="0 0 201 38">
	<style type="text/css">
	.st0{fill:#B7B7B7;}
	.st1{fill:#f2f2f2;}
	.st2{fill:#A5A5A5;}
</style>
<g>
	<path class="st0" d="M47,1H33.5H3.7C2.2,1,1,2.2,1,3.7v3.1c0,1.5,1.2,2.7,2.7,2.7h22.1c1.1,0.2,2,1.1,2.1,2.3l0,0
		c0,1.5-1.2,2.7-2.7,2.7l0,0h-12c-1.5,0-2.7,1.2-2.7,2.7v3.1c0,1.5,1.2,2.7,2.7,2.7h12c1.5,0,2.6,1.2,2.6,2.6
		c-0.1,1.2-1,2.1-2.1,2.3h-22C2.2,27.8,1,29,1,30.5v3.1l0,0l0,0c0,1.5,1.2,2.7,2.7,2.7H47c1.5,0,2.7-1.2,2.7-2.7v-30
		C49.7,2.2,48.5,1,47,1z"/>
	<path class="st0" d="M101.5,1H58.1c-1.5,0-2.7,1.2-2.7,2.7v30c0,1.5,1.2,2.7,2.7,2.7h43.4c1.5,0,2.7-1.2,2.7-2.7v-30
		C104.1,2.2,102.9,1,101.5,1z M95.7,25.2c0,1.5-1.2,2.7-2.7,2.7H79.9c-1.5,0-2.7-1.2-2.7-2.7V12.1c0-1.5,1.2-2.7,2.7-2.7H93
		c1.5,0,2.7,1.2,2.7,2.7V25.2z"/>
	<path class="st0" d="M155.9,1h-43.4c-1.5,0-2.7,1.2-2.7,2.7v30c0,1.5,1.2,2.7,2.7,2.7h43.4c1.5,0,2.7-1.2,2.7-2.7v-30
		C158.6,2.2,157.3,1,155.9,1z M150.1,25.2c0,1.5-1.2,2.7-2.7,2.7h-13.1c-1.5,0-2.7-1.2-2.7-2.7V12.1c0-1.5,1.2-2.7,2.7-2.7h13.1
		c1.5,0,2.7,1.2,2.7,2.7V25.2z"/>
	<path class="st0" d="M192.9,3.7c0-1.5-1.2-2.7-2.7-2.7l0,0H167l0,0c-1.5,0-2.7,1.2-2.7,2.7l0,0v3c0,1.5,1.2,2.7,2.7,2.7h1.6
		c1.5,0,2.7,1.2,2.7,2.7v13.1c0,1.5-1.2,2.7-2.7,2.7H167c-1.5,0-2.7,1.2-2.7,2.7v3.1c0,1.5,1.2,2.7,2.7,2.7h30
		c1.5,0,2.7-1.2,2.7-2.7v-3.1c0-1.5-1.2-2.7-2.7-2.7h-1.4c-1.5,0-2.7-1.2-2.7-2.7L192.9,3.7L192.9,3.7z"/>
</g>
<g>
	<g>
		<path class="st1" d="M3.9,10.4h22.1c1,0.2,1.9,1,2.1,2.1c0-0.1,0-0.2,0-0.4c-0.1-1.2-1-2.1-2.1-2.3H3.9c-1.5,0-2.7-1.2-2.7-2.7
			v0.6C1.1,9.2,2.4,10.4,3.9,10.4z"/>
		<path class="st1" d="M25.4,23.3h-12c-1.5,0-2.7-1.2-2.7-2.7v0.6c0,1.5,1.2,2.7,2.7,2.7h12c1.4,0,2.4,1,2.6,2.2c0-0.1,0-0.1,0-0.2
			C27.9,24.5,26.9,23.3,25.4,23.3z"/>
		<path class="st1" d="M47.1,36.6H3.9c-1.5,0-2.7-1.2-2.7-2.7v0.6c0,1.5,1.2,2.7,2.7,2.7h43.3c1.5,0,2.7-1.2,2.7-2.7v-0.6
			C49.9,35.4,48.6,36.6,47.1,36.6z"/>
	</g>
	<g>
		<path class="st1" d="M101.6,36.7H58.2c-1.5,0-2.7-1.2-2.7-2.7v0.6c0,1.5,1.2,2.7,2.7,2.7h43.4c1.5,0,2.7-1.2,2.7-2.7V34
			C104.4,35.5,103.1,36.7,101.6,36.7z"/>
		<path class="st1" d="M93.1,9.7H80.1c-1.5,0-2.7,1.2-2.7,2.7V13c0-1.5,1.2-2.7,2.7-2.7h13.1c1.5,0,2.7,1.2,2.7,2.7v-0.6
			C95.9,10.9,94.6,9.7,93.1,9.7z"/>
	</g>
	<g>
		<path class="st1" d="M147.6,9.7h-13.1c-1.5,0-2.7,1.2-2.7,2.7V13c0-1.5,1.2-2.7,2.7-2.7h13.1c1.5,0,2.7,1.2,2.7,2.7v-0.6
			C150.3,10.9,149.1,9.7,147.6,9.7z"/>
		<path class="st1" d="M156.1,36.7h-43.4c-1.5,0-2.7-1.2-2.7-2.7v0.6c0,1.5,1.2,2.7,2.7,2.7h43.4c1.5,0,2.7-1.2,2.7-2.7V34
			C158.7,35.5,157.6,36.7,156.1,36.7z"/>
	</g>
	<g>
		<path class="st1" d="M197.1,36.7h-30c-1.5,0-2.7-1.2-2.7-2.7v0.6c0,1.5,1.2,2.7,2.7,2.7h30c1.5,0,2.7-1.2,2.7-2.7V34
			C199.9,35.5,198.6,36.7,197.1,36.7z"/>
		<path class="st1" d="M167.1,10.3h1.6c1.5,0,2.7,1.2,2.7,2.7v-0.6c0-1.5-1.2-2.7-2.7-2.7h-1.6c-1.5,0-2.7-1.2-2.7-2.7v0.6
			C164.4,9.1,165.6,10.3,167.1,10.3z"/>
	</g>
</g>
<g>
	<g>
		<path class="st2" d="M3.7,29.9h22c1.1-0.2,2-1.1,2.1-2.3c0-0.4-0.1-0.8-0.2-1.1c-0.4,0.7-1,1.3-1.9,1.4h-22C2.2,27.8,1,29,1,30.5
			v2C1,31,2.2,29.8,3.7,29.9z"/>
		<path class="st2" d="M25.2,14.5h-12c-1.5,0-2.7,1.2-2.7,2.7v2c0-1.5,1.2-2.7,2.7-2.7h12c1.5,0,2.7-1.2,2.7-2.7
			c0-0.3-0.1-0.6-0.2-0.9C27.2,13.9,26.3,14.5,25.2,14.5z"/>
		<path class="st2" d="M47,1H33.5H3.7C2.2,1,1,2.2,1,3.7v2C1,4.2,2.2,3,3.7,3h29.8H47c1.5,0,2.7,1.2,2.7,2.6v-2
			C49.7,2.2,48.5,1,47,1z"/>
	</g>
	<g>
		<path class="st2" d="M79.9,29.9H93c1.5,0,2.7-1.2,2.7-2.7v-2c0,1.5-1.2,2.7-2.7,2.7H79.9c-1.5,0-2.7-1.2-2.7-2.7v2
			C77.2,28.7,78.4,29.9,79.9,29.9z"/>
		<path class="st2" d="M101.5,1H58.1c-1.5,0-2.7,1.2-2.7,2.7v2c0-1.5,1.2-2.7,2.7-2.7h43.4c1.4,0,2.6,1.2,2.7,2.7v-2
			C104.1,2.2,102.9,1,101.5,1z"/>
	</g>
	<g>
		<path class="st2" d="M134.3,29.9h13.1c1.5,0,2.7-1.2,2.7-2.7v-2c0,1.5-1.2,2.7-2.7,2.7h-13.1c-1.5,0-2.7-1.2-2.7-2.7v2
			C131.6,28.7,132.8,29.9,134.3,29.9z"/>
		<path class="st2" d="M155.9,1h-43.4c-1.5,0-2.7,1.2-2.7,2.7v2c0-1.5,1.2-2.7,2.7-2.7h43.4c1.4,0,2.7,1.2,2.7,2.7v-2
			C158.6,2.2,157.3,1,155.9,1z"/>
	</g>
	<g>
		<path class="st2" d="M167,3h23.2c1.5,0,2.7,1.2,2.7,2.7v-2c0-1.5-1.2-2.7-2.7-2.7H167c-1.5,0-2.7,1.2-2.7,2.7v2
			C164.3,4.2,165.5,3,167,3z"/>
		<path class="st2" d="M197,27.9h-1.4c-1.5,0-2.7-1.2-2.7-2.7v2c0,1.5,1.2,2.7,2.7,2.7h1.4c1.5,0,2.7,1.2,2.7,2.7v-2
			C199.7,29.1,198.5,27.9,197,27.9z"/>
		<path class="st2" d="M167,29.9h1.6c1.5,0,2.7-1.2,2.7-2.7v-2c0,1.5-1.2,2.7-2.7,2.7H167c-1.5,0-2.7,1.2-2.7,2.7v2
			C164.3,31.1,165.5,29.9,167,29.9z"/>
	</g>
</g>
</svg>
