
<svg id="circuit-board" viewBox="0 0 746 470" size="keep">
<style type="text/css">
	.st0{fill:none;stroke:#124;stroke-width:3;stroke-miterlimit:10;}
	.st1{fill:#124;stroke:#124;stroke-width:3;stroke-miterlimit:10;}
	.st2{fill:#124;}
	.st3{fill:none;stroke:#124;stroke-width:4;stroke-miterlimit:10;}
	.st4{fill:none;stroke:#124;stroke-width:18;stroke-linecap:round;stroke-miterlimit:10;}
	.st5{fill:none;stroke:#124;stroke-width:3;stroke-linecap:round;stroke-miterlimit:10;}
	.st6{fill:none;stroke:#124;stroke-width:7;stroke-miterlimit:10;}
	.st7{fill:#124;stroke:#124;stroke-width:0.25;stroke-miterlimit:10;}
</style>
<g id="circles">
	<circle class="st0" cx="70.5" cy="59.2" r="5"/>
	<circle class="st0" cx="85.8" cy="59.2" r="5"/>
	<circle class="st0" cx="101.1" cy="59.2" r="5"/>
	<circle class="st0" cx="216.5" cy="61.5" r="5"/>
	<circle class="st0" cx="225.9" cy="44.8" r="5"/>
	<circle class="st0" cx="225.9" cy="77.4" r="5"/>
	<circle class="st0" cx="168.9" cy="136.1" r="5"/>
	<circle class="st0" cx="265.7" cy="166.7" r="5"/>
	<circle class="st0" cx="310.4" cy="75.8" r="5"/>
	<circle class="st0" cx="324.7" cy="121.5" r="5"/>
	<circle class="st0" cx="350.8" cy="153" r="5"/>
	<circle class="st0" cx="-16.1" cy="28.7" r="5"/>
	<circle class="st0" cx="-36.6" cy="140.7" r="5"/>
	<circle class="st0" cx="83.7" cy="184.8" r="5"/>
	<circle class="st0" cx="-29.6" cy="188.6" r="5"/>
	<circle class="st0" cx="-29.6" cy="232.6" r="5"/>
	<circle class="st0" cx="-29.6" cy="257.5" r="5"/>
	<circle class="st0" cx="-7.5" cy="284.8" r="5"/>
	<circle class="st0" cx="-26.8" cy="330.8" r="5"/>
	<circle class="st0" cx="-25.5" cy="358.7" r="5"/>
	<circle class="st0" cx="-28.2" cy="377.3" r="5"/>
	<circle class="st0" cx="-11.8" cy="403.1" r="5"/>
	<circle class="st0" cx="-31.1" cy="417.5" r="5"/>
	<circle class="st0" cx="49.6" cy="420.3" r="5"/>
	<circle class="st0" cx="65.2" cy="419.2" r="5"/>
	<circle class="st0" cx="66.3" cy="436" r="5"/>
	<circle class="st0" cx="66.3" cy="453.4" r="5"/>
	<circle class="st0" cx="52.2" cy="454.2" r="5"/>
	<circle class="st0" cx="117.3" cy="424" r="5"/>
	<circle class="st0" cx="149.8" cy="454" r="5"/>
	<circle class="st0" cx="170.7" cy="445.1" r="5"/>
	<circle class="st0" cx="101.8" cy="363.8" r="5"/>
	<circle class="st1" cx="115.2" cy="350.8" r="5"/>
	<circle class="st0" cx="185.7" cy="371.1" r="5"/>
	<circle class="st0" cx="185.7" cy="352.8" r="5"/>
	<circle class="st1" cx="255.4" cy="307.6" r="5"/>
	<circle class="st0" cx="268.5" cy="320.1" r="5"/>
	<circle class="st1" cx="285.5" cy="312" r="5"/>
	<circle class="st0" cx="290.8" cy="298.5" r="5"/>
	<circle class="st0" cx="282.2" cy="357.2" r="5"/>
	<circle class="st1" cx="354.6" cy="351.4" r="5"/>
	<circle class="st0" cx="338.7" cy="351.4" r="5"/>
	<circle class="st0" cx="318.2" cy="322.4" r="5"/>
	<circle class="st1" cx="318.2" cy="304.5" r="5"/>
	<circle class="st1" cx="317.6" cy="286.5" r="5"/>
	<circle class="st0" cx="317.2" cy="268.6" r="5"/>
	<circle class="st1" cx="289.2" cy="270.9" r="5"/>
	<circle class="st0" cx="273.1" cy="256.5" r="5"/>
	<circle class="st1" cx="237.4" cy="261.4" r="5"/>
	<circle class="st1" cx="198.7" cy="232.4" r="5"/>
	<circle class="st0" cx="268.5" cy="217.7" r="5"/>
	<circle class="st1" cx="242.4" cy="199.8" r="5"/>
	<circle class="st1" cx="280.3" cy="184.3" r="5"/>
	<circle class="st1" cx="293.2" cy="230" r="5"/>
	<circle class="st1" cx="334.9" cy="233.9" r="5"/>
	<circle class="st0" cx="349.6" cy="233.9" r="5"/>
	<circle class="st1" cx="373" cy="238.5" r="5"/>
	<circle class="st1" cx="391.3" cy="235" r="5"/>
	<circle class="st1" cx="383.3" cy="209.8" r="5"/>
	<circle class="st0" cx="391.7" cy="193.9" r="5"/>
	<circle class="st0" cx="415.5" cy="198.9" r="5"/>
	<circle class="st1" cx="415.5" cy="227" r="5"/>
	<circle class="st0" cx="446.5" cy="258.5" r="5"/>
	<circle class="st0" cx="424.1" cy="269.5" r="5"/>
	<circle class="st1" cx="424.1" cy="288.2" r="5"/>
	<circle class="st0" cx="423.7" cy="307.7" r="5"/>
	<circle class="st0" cx="462.1" cy="297.8" r="5"/>
	<circle class="st1" cx="423.7" cy="327.3" r="5"/>
	<circle class="st0" cx="462.1" cy="333" r="5"/>
	<circle class="st1" cx="483.3" cy="315.6" r="5"/>
	<circle class="st0" cx="488.3" cy="352.8" r="5"/>
	<circle class="st1" cx="502" cy="358.7" r="5"/>
	<circle class="st0" cx="421.3" cy="368.3" r="5"/>
	<circle class="st0" cx="434.9" cy="368.3" r="5"/>
	<circle class="st0" cx="421.3" cy="381.6" r="5"/>
	<circle class="st0" cx="434.9" cy="381.6" r="5"/>
	<circle class="st0" cx="421.3" cy="394.9" r="5"/>
	<circle class="st1" cx="434.9" cy="394.9" r="5"/>
	<circle class="st0" cx="421.3" cy="408.2" r="5"/>
	<circle class="st0" cx="435" cy="408.2" r="5"/>
	<circle class="st0" cx="421.4" cy="421.5" r="5"/>
	<circle class="st0" cx="435.1" cy="421.5" r="5"/>
	<circle class="st0" cx="576.5" cy="393.3" r="5"/>
	<circle class="st1" cx="557.1" cy="393.3" r="5"/>
	<circle class="st1" cx="566.7" cy="408.5" r="5"/>
	<circle class="st0" cx="651.7" cy="442" r="5"/>
	<circle class="st0" cx="666.1" cy="428.4" r="5"/>
	<circle class="st0" cx="679" cy="413.7" r="3.9"/>
	<circle class="st0" cx="722.1" cy="437" r="5"/>
	<circle class="st1" cx="734.9" cy="427" r="5"/>
	<circle class="st1" cx="774.7" cy="411.7" r="5"/>
	<circle class="st1" cx="774.7" cy="426.7" r="5"/>
	<circle class="st1" cx="774.7" cy="441.6" r="5"/>
	<circle class="st1" cx="774.7" cy="456.6" r="5"/>
	<circle class="st0" cx="675.1" cy="376.3" r="3.8"/>
	<circle class="st1" cx="675.1" cy="390.3" r="3.8"/>
	<circle class="st1" cx="781.5" cy="332.3" r="5"/>
	<circle class="st0" cx="779.7" cy="305.1" r="5"/>
	<circle class="st1" cx="752.9" cy="284.3" r="5"/>
	<circle class="st1" cx="752.9" cy="259.8" r="5"/>
	<circle class="st0" cx="780.9" cy="226.7" r="5"/>
	<circle class="st0" cx="739.8" cy="252" r="5"/>
	<circle class="st0" cx="704.7" cy="280.2" r="5"/>
	<circle class="st0" cx="696.2" cy="262.7" r="5"/>
	<circle class="st0" cx="688.6" cy="237.3" r="5"/>
	<circle class="st1" cx="708.1" cy="250.3" r="5"/>
	<circle class="st1" cx="666.8" cy="275.2" r="5"/>
	<circle class="st1" cx="657.6" cy="289.9" r="5"/>
	<circle class="st0" cx="629.5" cy="263.5" r="5"/>
	<circle class="st0" cx="594.6" cy="263.5" r="5"/>
	<circle class="st0" cx="594.6" cy="278.9" r="5"/>
	<circle class="st1" cx="529.2" cy="288.1" r="6.1"/>
	<circle class="st0" cx="518.8" cy="232.5" r="5"/>
	<circle class="st0" cx="492.6" cy="240" r="4.4"/>
	<circle class="st0" cx="483.9" cy="250" r="4.4"/>
	<circle class="st1" cx="-31.6" cy="107.3" r="5"/>
	<circle class="st1" cx="-0.4" cy="249.6" r="4.1"/>
	<circle class="st1" cx="-24.6" cy="308.1" r="5"/>
	<circle class="st0" cx="104" cy="229" r="5"/>
	<circle class="st1" cx="59.6" cy="191.5" r="5"/>
	<circle class="st1" cx="130.2" cy="150.4" r="5"/>
	<circle class="st1" cx="140.2" cy="185.3" r="5"/>
	<circle class="st1" cx="144.1" cy="136.1" r="5"/>
	<circle class="st2" cx="174.7" cy="171.4" r="4.8"/>
	<circle class="st3" cx="174.7" cy="171.4" r="14"/>
	<circle class="st3" cx="174.7" cy="171.4" r="21.3"/>
	<circle class="st1" cx="116" cy="59.2" r="5"/>
	<circle class="st1" cx="221" cy="94.2" r="5"/>
	<circle class="st1" cx="262.9" cy="69.5" r="5"/>
	<circle class="st1" cx="275.1" cy="94.2" r="5"/>
	<circle class="st1" cx="256.3" cy="131" r="5"/>
	<circle class="st1" cx="279.6" cy="150.2" r="5"/>
	<circle class="st1" cx="301.4" cy="153.6" r="5"/>
	<circle class="st1" cx="339.5" cy="130" r="5"/>
	<circle class="st1" cx="328.5" cy="101.4" r="5"/>
	<circle class="st0" cx="429.7" cy="168.6" r="5"/>
	<circle class="st0" cx="431.5" cy="153" r="5"/>
	<circle class="st0" cx="446.8" cy="158" r="5"/>
	<circle class="st1" cx="435.4" cy="184.6" r="6.2"/>
	<circle class="st0" cx="470.7" cy="123.5" r="5"/>
	<circle class="st0" cx="491.3" cy="133.4" r="5"/>
	<circle class="st0" cx="499.8" cy="104.2" r="5"/>
	<circle class="st0" cx="514.6" cy="133" r="5"/>
	<circle class="st0" cx="537.7" cy="133.4" r="5"/>
	<circle class="st0" cx="561" cy="133.4" r="5"/>
	<circle class="st0" cx="508.6" cy="166.5" r="5"/>
	<circle class="st1" cx="584.4" cy="145.7" r="6.1"/>
	<circle class="st1" cx="629.2" cy="148.3" r="5"/>
	<circle class="st1" cx="651.6" cy="139.2" r="5"/>
	<circle class="st1" cx="252" cy="86.9" r="5"/>
	<circle class="st1" cx="310.4" cy="56.7" r="5"/>
	<circle class="st1" cx="385" cy="20.4" r="5"/>
	<circle class="st0" cx="393.8" cy="7.4" r="5"/>
	<circle class="st0" cx="418.9" cy="24.5" r="5"/>
	<circle class="st0" cx="430.2" cy="15.9" r="5"/>
	<circle class="st0" cx="449.5" cy="8.9" r="5"/>
	<circle class="st1" cx="468.2" cy="7.5" r="5"/>
	<circle class="st0" cx="468.2" cy="46.8" r="5"/>
	<circle class="st0" cx="482.4" cy="60.4" r="5"/>
	<circle class="st0" cx="556.7" cy="26.4" r="5"/>
	<circle class="st0" cx="561.1" cy="10.1" r="5"/>
	<circle class="st0" cx="589" cy="23.9" r="5"/>
	<circle class="st0" cx="587.9" cy="8.4" r="5"/>
	<circle class="st0" cx="604.9" cy="7.4" r="5"/>
	<circle class="st0" cx="622.5" cy="7.4" r="5"/>
	<circle class="st1" cx="623.1" cy="21.7" r="5"/>
	<circle class="st0" cx="653.6" cy="17.4" r="5"/>
	<circle class="st0" cx="668.3" cy="17.4" r="5"/>
	<circle class="st0" cx="683.1" cy="17.4" r="5"/>
	<circle class="st0" cx="698.2" cy="17.4" r="5"/>
	<circle class="st1" cx="732.1" cy="66.5" r="5"/>
	<circle class="st0" cx="772.7" cy="56.5" r="5"/>
	<circle class="st0" cx="781.9" cy="74.7" r="5"/>
	<circle class="st2" cx="692.4" cy="154.9" r="4.8"/>
	<circle class="st3" cx="692.4" cy="154.9" r="14"/>
	<circle class="st3" cx="692.4" cy="154.9" r="21.3"/>
	<circle class="st1" cx="629.2" cy="128.6" r="5"/>
	<circle class="st1" cx="629.2" cy="167.1" r="5"/>
	<circle class="st1" cx="732.6" cy="90" r="5"/>
	<circle class="st0" cx="345.5" cy="389.3" r="5"/>
	<circle class="st0" cx="345.5" cy="402.5" r="5"/>
	<circle class="st1" cx="345.5" cy="415.7" r="5"/>
	<circle class="st0" cx="345.5" cy="429" r="5"/>
	<circle class="st0" cx="345.5" cy="442.2" r="5"/>
	<circle class="st0" cx="256" cy="465.8" r="5"/>
	<circle class="st1" cx="242.1" cy="444.9" r="5"/>
	<circle class="st0" cx="106.8" cy="285" r="5"/>
	<circle class="st0" cx="136.7" cy="291.4" r="5"/>
	<circle class="st1" cx="373" cy="110.7" r="5"/>
</g>
<g id="chips">
	<rect x="616.9" y="285.2" class="st2" width="25.4" height="25.4"/>
	<rect x="616.8" y="314.6" class="st2" width="25.4" height="25.4"/>
	<rect x="616.9" y="344" class="st2" width="25.4" height="25.4"/>
	<rect x="616.9" y="373.3" class="st2" width="25.4" height="25.4"/>
	<rect x="65.5" y="7.1" class="st2" width="25.4" height="25.4"/>
	<rect x="95.4" y="7.1" class="st2" width="25.4" height="25.4"/>
	<rect x="124.9" y="7.1" class="st2" width="25.4" height="25.4"/>
	<rect x="154.7" y="7.1" class="st2" width="25.4" height="25.4"/>
	<polygon class="st2" points="490.1,97.8 454.7,97.8 454.7,79.7 462.7,72.4 490.1,72.4 	"/>
</g>
<g id="lines">
	<path class="st2" d="M588,96.1L588,96.1c-3.7,0-6.8-3-6.8-6.8V58.6c0-3.7,3-6.8,6.8-6.8l0,0c3.7,0,6.8,3,6.8,6.8v30.7
		C594.7,93,591.7,96.1,588,96.1z"/>
	<path class="st2" d="M624.2,100.5V100c0-2.8,2.3-5.2,5.2-5.2h47.9c2.8,0,5.2,2.3,5.2,5.2v0.5c0,2.8-2.3,5.2-5.2,5.2h-47.9
		C626.5,105.7,624.2,103.4,624.2,100.5z"/>
	<path class="st2" d="M286,381.9h-13.7c-1.7,0-3.1-1.4-3.1-3.1l0,0c0-1.7,1.4-3.1,3.1-3.1H286c1.7,0,3.1,1.4,3.1,3.1l0,0
		C289.1,380.5,287.7,381.9,286,381.9z"/>
	<path class="st2" d="M286,392.3h-13.7c-1.7,0-3.1-1.4-3.1-3.1l0,0c0-1.7,1.4-3.1,3.1-3.1H286c1.7,0,3.1,1.4,3.1,3.1l0,0
		C289.1,390.9,287.7,392.3,286,392.3z"/>
	<path class="st2" d="M286,402.7h-13.7c-1.7,0-3.1-1.4-3.1-3.1l0,0c0-1.7,1.4-3.1,3.1-3.1H286c1.7,0,3.1,1.4,3.1,3.1l0,0
		C289.1,401.3,287.7,402.7,286,402.7z"/>
	<path class="st2" d="M286,413.1h-13.7c-1.7,0-3.1-1.4-3.1-3.1l0,0c0-1.7,1.4-3.1,3.1-3.1H286c1.7,0,3.1,1.4,3.1,3.1l0,0
		C289.1,411.7,287.7,413.1,286,413.1z"/>
	<path class="st2" d="M286,423.4h-13.7c-1.7,0-3.1-1.4-3.1-3.1v0c0-1.7,1.4-3.1,3.1-3.1H286c1.7,0,3.1,1.4,3.1,3.1v0
		C289.1,422.1,287.7,423.4,286,423.4z"/>
	<path class="st2" d="M286,433.8h-13.7c-1.7,0-3.1-1.4-3.1-3.1l0,0c0-1.7,1.4-3.1,3.1-3.1H286c1.7,0,3.1,1.4,3.1,3.1l0,0
		C289.1,432.4,287.7,433.8,286,433.8z"/>
	<path class="st2" d="M286,444.2h-13.7c-1.7,0-3.1-1.4-3.1-3.1l0,0c0-1.7,1.4-3.1,3.1-3.1H286c1.7,0,3.1,1.4,3.1,3.1l0,0
		C289.1,442.8,287.7,444.2,286,444.2z"/>
	<path class="st2" d="M286,454.6h-13.7c-1.7,0-3.1-1.4-3.1-3.1l0,0c0-1.7,1.4-3.1,3.1-3.1H286c1.7,0,3.1,1.4,3.1,3.1l0,0
		C289.1,453.2,287.7,454.6,286,454.6z"/>
	<path class="st2" d="M286,465h-13.7c-1.7,0-3.1-1.4-3.1-3.1l0,0c0-1.7,1.4-3.1,3.1-3.1H286c1.7,0,3.1,1.4,3.1,3.1l0,0
		C289.1,463.6,287.7,465,286,465z"/>
	<path class="st2" d="M606.1,171.5v-13.7c0-1.7,1.4-3.1,3.1-3.1l0,0c1.7,0,3.1,1.4,3.1,3.1v13.7c0,1.7-1.4,3.1-3.1,3.1l0,0
		C607.5,174.6,606.1,173.2,606.1,171.5z"/>
	<path class="st2" d="M595.7,171.5v-13.7c0-1.7,1.4-3.1,3.1-3.1l0,0c1.7,0,3.1,1.4,3.1,3.1v13.7c0,1.7-1.4,3.1-3.1,3.1l0,0
		C597.1,174.6,595.7,173.2,595.7,171.5z"/>
	<path class="st2" d="M585.3,171.5v-13.7c0-1.7,1.4-3.1,3.1-3.1h0c1.7,0,3.1,1.4,3.1,3.1v13.7c0,1.7-1.4,3.1-3.1,3.1h0
		C586.7,174.6,585.3,173.2,585.3,171.5z"/>
	<path class="st2" d="M574.9,171.5v-13.7c0-1.7,1.4-3.1,3.1-3.1l0,0c1.7,0,3.1,1.4,3.1,3.1v13.7c0,1.7-1.4,3.1-3.1,3.1l0,0
		C576.3,174.6,574.9,173.2,574.9,171.5z"/>
	<path class="st2" d="M564.5,171.5v-13.7c0-1.7,1.4-3.1,3.1-3.1l0,0c1.7,0,3.1,1.4,3.1,3.1v13.7c0,1.7-1.4,3.1-3.1,3.1l0,0
		C565.9,174.6,564.5,173.2,564.5,171.5z"/>
	<path class="st2" d="M554.2,171.5v-13.7c0-1.7,1.4-3.1,3.1-3.1l0,0c1.7,0,3.1,1.4,3.1,3.1v13.7c0,1.7-1.4,3.1-3.1,3.1l0,0
		C555.5,174.6,554.2,173.2,554.2,171.5z"/>
	<path class="st2" d="M543.8,171.5v-13.7c0-1.7,1.4-3.1,3.1-3.1l0,0c1.7,0,3.1,1.4,3.1,3.1v13.7c0,1.7-1.4,3.1-3.1,3.1l0,0
		C545.2,174.6,543.8,173.2,543.8,171.5z"/>
	<path class="st2" d="M533.4,171.5v-13.7c0-1.7,1.4-3.1,3.1-3.1l0,0c1.7,0,3.1,1.4,3.1,3.1v13.7c0,1.7-1.4,3.1-3.1,3.1l0,0
		C534.8,174.6,533.4,173.2,533.4,171.5z"/>
	<path class="st2" d="M523,171.5v-13.7c0-1.7,1.4-3.1,3.1-3.1l0,0c1.7,0,3.1,1.4,3.1,3.1v13.7c0,1.7-1.4,3.1-3.1,3.1l0,0
		C524.4,174.6,523,173.2,523,171.5z"/>
	<polyline class="st4" points="1.9,13.5 1.9,50.8 55.5,104.4 136.7,104.4 151.6,119.3 210.1,119.3 243,152.2 	"/>
	<polyline class="st4" points="237.4,330 213.8,353.7 213.8,394.3 194.4,413.7 155.8,413.7 96.3,473.2 	"/>
	<polyline class="st4" points="324.5,341.3 302,363.7 302,476 	"/>
	<polyline class="st4" points="683.6,280.2 683.6,363.7 700.8,380.9 700.8,470 	"/>
	<polyline class="st4" points="420.5,251.2 484.5,187.1 649.2,187.1 669.7,207.6 715.5,207.6 752,171.2 752,50.4 769.3,33.1 	"/>
	<polyline class="st5" points="130.2,150.4 130.2,132.1 125.3,127.2 49,127.2 -22.3,55.9 -45.7,55.9 	"/>
	<polyline class="st5" points="-16.1,33.7 -16.1,55.9 50.4,122.4 130.9,122.4 140.9,132.3 	"/>
	<polyline class="st5" points="251.3,131 243,131 211.2,99.2 154.7,99.2 145,89.4 70.5,89.4 20.9,39.8 20.9,-1.2 	"/>
	<polyline class="st5" points="27.5,-1.2 27.5,35.1 76.4,84 150.4,84 160.6,94.3 216,94.3 	"/>
	<line class="st5" x1="70.5" y1="54.2" x2="70.5" y2="32.5"/>
	<line class="st5" x1="85.8" y1="54.2" x2="85.8" y2="32.5"/>
	<line class="st5" x1="101.1" y1="54.2" x2="101.1" y2="32.5"/>
	<line class="st5" x1="116" y1="54.2" x2="116" y2="32.5"/>
	<polyline class="st5" points="130.2,32.5 130.2,50.8 147.6,68.2 198.9,68.2 208.1,77.4 221,77.4 	"/>
	<polyline class="st5" points="211.5,61.5 147.9,61.5 136.5,50.1 136.5,32.5 	"/>
	<polyline class="st5" points="142.9,32.5 142.9,49 150.1,56.2 199.6,56.2 211,44.8 220.7,44.8 	"/>
	<polyline class="st5" points="180.1,14.3 223.8,14.3 230.5,7.7 230.5,-1.2 	"/>
	<polyline class="st5" points="236.1,-1.2 236.1,11.1 226.6,20.6 180.1,20.6 	"/>
	<polyline class="st5" points="180.1,25.8 229.9,25.8 242.1,13.6 242.1,-1.2 	"/>
	<polyline class="st5" points="252,80.4 252,64.5 257.3,59.3 257.3,40.4 265.3,32.4 265.3,-1.2 	"/>
	<polyline class="st5" points="262.9,63.1 262.9,42.7 270.3,35.3 270.3,-1.2 	"/>
	<line class="st5" x1="275.1" y1="87.9" x2="275.1" y2="-1.2"/>
	<polyline class="st5" points="310.4,50.4 310.4,29.9 296.4,15.8 296.4,-1.2 	"/>
	<polyline class="st5" points="290.1,-1.2 290.1,19.5 301.5,30.9 301.5,153.6 	"/>
	<polyline class="st5" points="284.5,-1.2 284.5,21.6 295.6,32.7 295.6,135 279.6,151 	"/>
	<polyline class="st5" points="310.4,80.8 310.4,144.5 348.6,182.6 348.6,219.6 338,230.1 	"/>
	<polyline class="st5" points="352.7,230 363.1,219.6 363.1,181.1 324.8,142.8 324.8,126.5 	"/>
	<polyline class="st5" points="328.5,101.4 328.5,44.2 350.9,21.8 350.9,-1.2 	"/>
	<polyline class="st5" points="362.1,-1.2 362.1,26.7 339.8,49 339.8,130 	"/>
	<polyline class="st5" points="373,-1.2 373,50.1 350.8,72.3 350.8,148.1 	"/>
	<polyline class="st5" points="385,25.4 385,33.1 394.7,42.8 394.7,115.7 383.2,127.2 383.2,204.8 	"/>
	<polyline class="st5" points="391.7,189 391.7,128.1 403.4,116.4 403.4,41.8 393.9,32.3 393.9,12.4 	"/>
	<line class="st5" x1="373" y1="238.5" x2="373" y2="110.7"/>
	<polyline class="st5" points="391.3,235 391.3,224.7 401.5,214.6 401.5,127.6 412.2,116.9 412.2,40.4 402.5,30.7 402.5,19.5 
		422.9,-0.9 	"/>
	<polyline class="st5" points="418.9,29.5 418.9,81.1 431.8,94 431.8,122.2 415.5,138.4 415.5,193.9 	"/>
	<polyline class="st5" points="426.6,164.7 420.8,159 420.8,139.6 437.2,123.3 437.2,93.3 424.2,80.3 424.2,36.1 429.9,30.4 
		429.9,20.9 	"/>
	<polyline class="st5" points="431.5,148 431.5,136.4 453.9,114 473.2,114 488.6,129.3 	"/>
	<polyline class="st5" points="465.7,123.5 456.4,123.5 446.1,133.7 446.1,153.3 	"/>
	<polyline class="st5" points="494.8,104.2 454.5,104.2 447.5,97.2 447.5,76.1 456,67.6 456,20.9 467.8,9.1 	"/>
	<polyline class="st5" points="449.5,13.9 449.5,65.4 442.2,72.7 442.2,101.4 450.5,109.6 492.2,109.6 511.6,129 	"/>
	<polyline class="st5" points="419.1,223.5 476.2,166.4 503.7,166.4 	"/>
	<polyline class="st5" points="468.2,41.8 468.2,26.4 484.6,10 556.1,10 	"/>
	<polyline class="st5" points="482.4,55.4 482.4,42.9 474.5,35.1 474.5,26.8 486.8,14.6 544.8,14.6 553.1,22.9 	"/>
	<polyline class="st5" points="490.1,85.1 533.4,85.1 546.5,72 581.2,72 	"/>
	<polyline class="st5" points="490.1,90.8 535.6,90.8 547.9,78.5 581.2,78.5 	"/>
	<polyline class="st5" points="581.1,66.7 543.8,66.7 530.3,80.1 490.1,80.1 	"/>
	<line class="st5" x1="653.6" y1="12.4" x2="653.6" y2="-1.2"/>
	<line class="st5" x1="668.3" y1="12.4" x2="668.3" y2="-1.2"/>
	<line class="st5" x1="683.1" y1="12.4" x2="683.1" y2="-1.2"/>
	<line class="st5" x1="698.2" y1="12.4" x2="698.2" y2="-1.2"/>
	<polyline class="st5" points="540.6,129.4 560.1,109.9 638.5,109.9 644,104.4 	"/>
	<polyline class="st5" points="563.9,129.4 578.4,114.8 647.6,114.8 658,104.4 	"/>
	<polyline class="st5" points="604.9,12.4 604.9,27.2 654.2,76.5 654.2,96.1 	"/>
	<polyline class="st5" points="590.9,12.4 597.9,19.4 597.9,26.7 647.5,76.2 647.5,95 	"/>
	<polyline class="st5" points="592.3,27.7 641.4,76.7 641.4,95 	"/>
	<polyline class="st5" points="619.2,11.1 611.1,19.1 611.1,26.7 660.4,76 660.4,95 	"/>
	<polyline class="st5" points="623.1,27.7 623.1,32 667.3,76.2 667.3,95 	"/>
	<polyline class="st5" points="635.8,128.6 651.6,128.6 663.3,116.9 694.5,116.9 706.7,104.7 706.7,36.8 747.1,-3.6 747.1,7.4 
		712.7,41.8 712.7,109.1 700.2,121.6 670,121.6 656.5,135.2 	"/>
	<polyline class="st5" points="635.8,148.3 658,148.3 678.6,127.7 707.5,127.7 719.4,115.9 719.4,47.7 754.2,12.9 754.2,-1.2 	"/>
	<polyline class="st5" points="766,-1.2 766,14.8 732.3,48.5 732.3,60.2 	"/>
	<polyline class="st5" points="732.6,96.1 732.6,162.2 707.7,187.1 676.2,187.1 656.4,167.3 635.8,167.3 	"/>
	<polyline class="st5" points="781.9,79.7 781.9,178.8 723.3,237.4 693.6,237.4 	"/>
	<polyline class="st5" points="772.7,61.5 772.7,176.2 721.8,227 662.6,227 640.5,204.9 487.3,204.9 426.9,265.3 	"/>
	<path class="st5" d="M450.3,255.3c0.3,0.3,41.4-41.4,41.4-41.4h145.3l36,36h30.3"/>
	<polyline class="st5" points="691.2,262.7 678.4,262.7 636.7,221 493.6,221 462.7,251.9 462.7,271.2 446,288 430.6,288 	"/>
	<polyline class="st5" points="523.8,232.5 598.8,232.5 626.1,259.8 	"/>
	<polyline class="st5" points="589.6,263.5 516,263.5 495.6,243 	"/>
	<polyline class="st5" points="488.3,250 494.8,250 512.9,268.1 583.2,268.1 590.8,275.7 	"/>
	<polyline class="st5" points="777.2,230 764.5,242.7 764.5,289.9 776.2,301.6 	"/>
	<polyline class="st5" points="791.9,197.5 783.6,197.5 752.4,228.7 752.4,259.8 	"/>
	<polyline class="st5" points="791.9,180.3 726.7,245.5 726.7,270.3 714,283 714,344 735.6,365.6 735.6,427 	"/>
	<polyline class="st5" points="722.1,432 722.1,372.5 705.5,355.9 705.5,285.2 	"/>
	<line class="st0" x1="774.7" y1="411.7" x2="791.9" y2="411.7"/>
	<line class="st0" x1="774.7" y1="426.7" x2="791" y2="426.7"/>
	<line class="st0" x1="774.7" y1="441.6" x2="791" y2="441.6"/>
	<line class="st0" x1="774.7" y1="456.6" x2="791" y2="456.6"/>
	<polyline class="st0" points="781.5,332.3 781.5,366.4 775.7,372.2 775.7,388.4 760.5,403.6 760.5,461.6 770.5,471.7 	"/>
	<polyline class="st0" points="764.5,471.7 753.4,460.6 753.4,402 768.5,386.9 768.5,320.1 752.4,304 752.4,289.3 	"/>
	<polyline class="st0" points="739.8,256.9 739.8,269 725.1,283.8 725.1,341 744.9,360.8 744.9,471.7 	"/>
	<polyline class="st0" points="677.8,378.9 688.1,389.1 688.1,471.7 	"/>
	<line class="st0" x1="679" y1="417.6" x2="679" y2="471.7"/>
	<polyline class="st0" points="666.1,433.4 666.1,444.6 660.1,450.6 660.1,471.7 	"/>
	<line class="st0" x1="651.7" y1="447" x2="651.7" y2="470.8"/>
	<polyline class="st0" points="675.1,390.3 675.1,402 632.4,444.6 632.4,471.7 	"/>
	<polyline class="st0" points="666.8,275.2 666.8,401.3 623.7,444.3 623.7,470.8 	"/>
	<polyline class="st0" points="614.7,470.8 614.7,443.5 657.6,400.7 657.6,289.9 	"/>
	<line class="st0" x1="566.7" y1="408.5" x2="566.7" y2="470"/>
	<polyline class="st0" points="557.1,398.3 557.1,416.5 562.1,421.5 562.1,470.8 	"/>
	<polyline class="st0" points="576.5,398.3 576.5,416.5 571.5,421.5 571.5,470.8 	"/>
	<polyline class="st0" points="540.7,470 536.1,465.4 536.1,380.1 552.4,363.7 616.9,363.7 	"/>
	<polyline class="st0" points="616.9,358.6 549.5,358.6 529.2,378.9 529.2,470 	"/>
	<polyline class="st0" points="518.8,470 523.5,465.3 523.5,376.3 546.3,353.4 616.9,353.4 	"/>
	<polyline class="st0" points="616.8,327.3 533,327.3 521.1,315.4 488.3,315.4 	"/>
	<polyline class="st0" points="467.1,333 489.8,333 499,323.8 521.1,323.8 533.2,335.9 616.9,335.9 	"/>
	<polyline class="st0" points="616.9,318.1 532.8,318.1 521.4,306.8 499.1,306.8 490.4,298.1 467.1,298.1 	"/>
	<polyline class="st6" points="616.9,297.8 584.5,297.8 575.5,288.7 535.3,288.7 	"/>
	<polyline class="st6" points="616.9,388.3 599,406.2 599,470 	"/>
	<polyline class="st0" points="502,364.8 502,388.3 487,403.3 487,470 	"/>
	<polyline class="st0" points="488.3,357.8 488.3,380.3 478.5,390.1 478.5,469.5 	"/>
	<polyline class="st0" points="426.9,311.5 446,330.6 446,373 439.6,379.4 	"/>
	<polyline class="st0" points="434.9,363.3 434.9,338.8 427.1,331 	"/>
	<polyline class="st0" points="434.9,394.9 455.4,415.4 455.4,470.8 	"/>
	<polyline class="st0" points="439.2,410.8 450.1,421.6 450.1,470 	"/>
	<polyline class="st0" points="439.2,424.2 444.7,429.6 444.7,470 	"/>
	<polyline class="st0" points="350.5,389.3 399.8,389.3 417.5,371.5 	"/>
	<polyline class="st0" points="350.5,402.5 400.4,402.5 417.8,385.1 	"/>
	<polyline class="st0" points="417.5,397.5 399.7,415.4 350.5,415.4 	"/>
	<polyline class="st0" points="417.1,410.8 398.5,429.3 350.5,429.3 	"/>
	<polyline class="st0" points="417.8,424.9 400.2,442.5 350.5,442.5 	"/>
	<polyline class="st0" points="354.6,351.4 324.9,381.1 324.9,465.8 329.6,470.6 	"/>
	<polyline class="st0" points="335,354.7 317.8,371.9 317.8,467.4 320.8,470.5 	"/>
	<line class="st0" x1="285.8" y1="353.8" x2="314.1" y2="325.4"/>
	<polyline class="st0" points="313.2,308.1 255.6,365.7 255.6,460.8 	"/>
	<polyline class="st0" points="285.5,317 285.5,325.1 249.8,360.8 249.8,424 221.6,452.1 176.5,452.1 158.3,470.3 	"/>
	<polyline class="st0" points="146.6,470.5 149.9,467.1 149.9,459 	"/>
	<polyline class="st0" points="170.7,470.3 179.4,461.7 225.4,461.7 242.1,445 	"/>
	<polyline class="st0" points="175.7,445.1 217.9,445.1 242.3,420.6 242.3,357.8 268.5,331.6 268.5,325.1 	"/>
	<line class="st0" x1="113.9" y1="427.7" x2="70.5" y2="471.1"/>
	<polyline class="st0" points="47.2,454.2 40.9,454.2 24.7,470.4 	"/>
	<polyline class="st0" points="63.6,450.1 55.2,441.7 47.2,441.7 17.9,471 	"/>
	<polyline class="st0" points="61.3,436 46.4,436 11.5,470.8 	"/>
	<polyline class="st0" points="61.3,422.3 53,430.5 45.2,430.5 4.8,470.9 	"/>
	<line class="st0" x1="45.7" y1="423.4" x2="-1.6" y2="470.8"/>
	<polyline class="st5" points="-21.8,362 -11.2,372.6 42.7,372.6 56.9,358.4 86.5,358.4 94.2,350.6 115.2,350.6 	"/>
	<polyline class="st5" points="96.9,363.8 57.1,363.8 44,377 -23.2,377 	"/>
	<polyline class="st5" points="-2.5,284.8 9.3,284.8 25.9,301.4 90.9,301.4 103.6,288.7 	"/>
	<polyline class="st0" points="131.7,291.4 118.7,291.4 103.3,306.7 22.1,306.7 10.1,294.7 -43.9,294.7 	"/>
	<polyline class="st0" points="-6.8,403.1 125.9,403.1 158.1,370.9 180.7,370.9 	"/>
	<polyline class="st0" points="180.7,352.8 163.2,352.8 122,394 -19.6,394 -31.4,405.8 -31.4,412.6 	"/>
	<polyline class="st0" points="-45.5,411.7 -22.1,388.2 118.3,388.2 154.8,351.7 154.8,335.7 191.3,299.3 248.1,299.3 252.1,303.3 	
		"/>
	<polyline class="st0" points="285.8,298.5 279.2,298.5 273.6,293 184.9,293 150.5,327.4 18.1,327.4 4.9,314.2 -10.8,314.2 
		-23.6,327 	"/>
	<polyline class="st0" points="-24.6,308.1 7.7,308.1 21.6,322 146.4,322 182.5,285.9 317.2,285.9 	"/>
	<path class="st0" d="M288.2,270.9c-0.2,0-12.9,0-12.9,0l-9.4,9.4H123.1L106.9,264H-16.4l-14,14h-13.5"/>
	<polyline class="st0" points="-24.6,257.5 111.8,257.5 129.4,275.1 256.3,275.1 270.6,260.8 	"/>
	<polyline class="st0" points="-0.4,249.6 113.4,249.6 132.8,268.9 206.3,268.9 213.6,261.7 237.4,261.7 	"/>
	<polyline class="st0" points="-24.6,232.6 -12.5,232.6 3.6,216.5 92.2,216.5 100.8,225.1 	"/>
	<polyline class="st0" points="-43.9,179.8 -3.6,179.8 8.4,191.8 58.5,191.8 	"/>
	<polyline class="st0" points="-24.6,188.6 -12.5,188.6 2.8,203.9 111.8,203.9 149.4,241.6 244.7,241.6 265,221.2 	"/>
	<polyline class="st0" points="293.2,230 269.3,230 249.3,250 144.1,250 103.9,209.7 -43.9,209.7 	"/>
	<polyline class="st0" points="-31.6,140.7 11.2,140.7 30,159.6 70.5,159.6 84,173.1 84,179.8 	"/>
	<polyline class="st0" points="-43.9,129.8 9.3,129.8 31.7,152.2 73,152.2 153.3,232.5 198.7,232.5 	"/>
	<polyline class="st0" points="280.3,184.3 242.4,184.3 233.3,193.4 216,193.4 192.6,216.8 159.3,216.8 140.6,198.1 140.6,185.3 	
		"/>
	<polyline class="st0" points="242.4,199.8 217.3,199.8 193.1,224 157.6,224 75.5,141.9 33.3,141.9 12.9,121.4 -17.3,121.4 
		-28,110.7 	"/>
	<polyline class="st0" points="173.9,136.1 203.7,136.1 234,166.5 260.7,166.5 	"/>
</g>
<g id="cpu">
	<rect x="341.7" y="289.1" class="st7" width="1.7" height="11.4"/>
	<path class="st7" d="M344.1,295.3l3.7,5.3l2.1,0l-4-5.7l4-5.7h-2.1l-3.7,5.3c-0.1,0.1-0.1,0.3-0.1,0.4
		C343.9,295,344,295.1,344.1,295.3z"/>
	<circle class="st7" cx="359.9" cy="294.8" r="0.9"/>
	<circle class="st7" cx="380.4" cy="294.8" r="0.9"/>
	<circle class="st7" cx="388.4" cy="294.8" r="0.9"/>
	<path class="st7" d="M390.8,298.1c0,0-0.1,0.1-0.1,0.1c0,0,0,0.1,0.1,0.1l2.7,2.7l1.2-1.2l-1.6-1.6c0.7-1,1.1-2.2,1.1-3.4
		c0-3.2-2.6-5.7-5.7-5.7c-3.2,0-5.7,2.6-5.7,5.7c0,3.2,2.6,5.7,5.7,5.7c0.5,0,1.1-0.1,1.6-0.2l0.3-0.1c0.1,0,0.1-0.1,0.1-0.1
		c0,0,0-0.1,0-0.1l-1.2-1.2c-0.2,0-0.5,0.1-0.7,0.1c-2.2,0-4-1.8-4-4c0-2.2,1.8-4,4-4s4,1.8,4,4c0,1.1-0.4,2.1-1.2,2.8L390.8,298.1z
		"/>
	<path class="st7" d="M400,300.5c-2.4,0-4.4-2.1-4.4-4.6v-6.8h1.6v6.8c0,1.6,1.2,2.9,2.7,2.9c1.5,0,2.7-1.3,2.7-2.9v-6.8h1.6v6.8
		C404.3,298.5,402.4,300.5,400,300.5z"/>
	<path class="st7" d="M354.7,289.5l-4.3,11h1.9l3.2-8.2l3.2,8.2h1.9l-4.3-11c-0.1-0.3-0.4-0.5-0.8-0.5
		C355.2,289.1,354.9,289.3,354.7,289.5z"/>
	<path class="st7" d="M375.2,289.5l-4.3,11h1.9l3.2-8.2l3.2,8.2h1.9l-4.3-11c-0.1-0.3-0.4-0.5-0.8-0.5
		C375.6,289.1,375.3,289.3,375.2,289.5z"/>
	<path class="st7" d="M365.4,293.9c0.8-0.1,1.4-0.7,1.4-1.6c0-0.9-0.7-1.6-1.6-1.6H364v9.7h-1.7v-11.4h3c1.8,0,3.3,1.5,3.3,3.3
		c0,1.3-0.8,2.4-1.9,3l3.6,5.2h-2.1l-3.5-5c-0.1-0.2-0.2-0.4-0.2-0.6C364.5,294.4,364.9,294,365.4,293.9z"/>
	<rect x="337.1" y="259.5" class="st0" width="71.4" height="71.4"/>
</g>
</svg>
