<svg id="electric" viewBox="0 0 1305 45">
<style type="text/css">
	.st0{fill:#000;}
</style>
<g id="frame-1">
	<path class="st0" d="M26.1,16c-0.6-0.5-1.3-0.3-1.1,0.3c0.1,0.6,0.7,0.9,1.1,0.7C26.5,16.8,26.5,16.3,26.1,16z"/>
	<path class="st0" d="M33.7,30.4c-0.4,0.7-0.9,1.6-2.8,0.3c0.2,2.4-0.4,4-0.7,4.3c2.9-0.2,1.9,3.7-0.7,5.6
		c-2.6,1.9-6.1,1.1-10.6-4.2c1.1-2.4,2.9-3.8,3.3-4c-0.6-1.4,0-3.6,0.7-4c-1.1-1-1.1-2.2-0.9-2.3c0.9-0.5,4.3-0.9,4.5-0.9
		c0.2,0,2.3-2.3,2.5-2.4c-0.3-1.1,4.7-6.5,5.9-7.1c-0.6-2-1.2-10.1-1-10.3c-4-0.5-11.5,2.6-11.9,2.8c0,0.2,0,0.4,0,0.6
		c-1.7-0.4-4.3-2.9-5.6-5.5c0.1-0.1,1-0.3,1.7-0.2c-0.3-0.5-3-2-3.4-2c-0.4,0-0.9,0.7-1.1,0.8s-1.8-0.1-1.9,0
		c-0.1,0.1-0.1,2.6,0,3.4c1.9,2.4,2.5,5.1,2.4,6.7c-0.1,1.6-4.3,3.1-6,3.9c0.1,6.6,2.2,11.4,2.2,11.4c-1,1-1.9,2-2,2.3
		c-0.4,3.6,0.6,8.9,0.6,9.3c0.1,1.1,0,3.2-0.1,3.5c3.2-1,8.5-2.5,9.1-2.6c0.3-0.8,0.4-1.4,0.4-1.4l7.7,5.9l3-1.7l1.8-0.2
		c0,0,1.9-0.9,2.5-1.3c-0.8-1.8,0.4-8.1,0.7-8.7c-0.1-0.4-0.1-1.2,0-1.3c1.4,0.8,2.3,0.5,2.5,0.4C34.9,31.3,34,30.6,33.7,30.4z
		 M8.5,15.9c0.2-0.1,5.7-1.8,6.9-3.4c0-0.8-2.2-5.8-3.5-7.4c0-0.2,0-2.3,0.2-3c0.1,0,1.1-0.1,1.6-0.1c0-0.1,0.6-0.7,1-0.9
		c0.2,0,1.8,0.9,2.3,1.4c-0.2,0-1.1,0.3-1.3,0.5c1.8,3.3,5,5.5,6.4,5.8c0,0.4-0.1,0.9-0.2,1.3c-0.3,0-3.8,1.1-3.7,2.3
		c0.1,1.2,2.2,3.7,2.2,3.7c-0.6,1.7-1.3,3.1-1.9,3.7c-0.8,1-1.6,1.9-2.3,2.5c-0.1-0.3-0.2-0.5-0.3-0.7c-0.6-1.7-2.3-2.6-2.2,0.6
		c0,0.7,0.1,1.3,0.3,1.9c-0.8,0.5-1.3,0.7-1.6,0.8c-0.5,0.4-1.1,1-1.7,1.6C8.6,23.8,8.4,18.5,8.5,15.9z M21.8,10.3
		c-0.3,1.7-0.9,3.9-1.5,5.7c-0.1-0.2-1.8-2.6-1.9-3.6C18.5,11.5,21.2,10.4,21.8,10.3z M11.3,28.7c0.4,0.7,3.9,5.6,5.9,7.8
		C10,44.6,9.8,31.3,11.3,28.7z M18,35.5c-0.8-0.3-5.2-5-6.5-7.2c0-0.4,1.3-1.9,2.8-3.2c0.8,1.8,2.3,3.1,3.4,3.4
		c1.6,0.5,2.7-0.6,1.1-1.8c-0.7-0.5-1.7-2.2-2.4-3.5c0.3-0.2,0.5-0.4,0.7-0.5c1.9-1.2,3-4.4,3.3-6c0.1,0.1,1.6,1.3,1.9,1.6
		c0.3,0.2,0.1,1,0.1,1.3c0,0.3,0.8,1.3,0.8,1.3l1.9,0l-1.6-0.3L23,19.2l0.2-1.5l1.3-2.1c0,0,0.3-0.1,0.8-0.6c-0.2,0.1-0.8,0.4-1,0.4
		c-0.2,0,0,0,0,0.2c0,0.2-0.9,1.8-1.7,2c-0.8,0.2-2-1.3-2-1.3s1.1-2.7,1.1-2.8c0.9-3.2,1.2-3.7,3.6-3.8c-0.4,0-1-0.5-1.5-0.7
		c0.7-1.8,4.9-3,6.4-3.1c1.6,0,2.8,1.2,3,1.9c0.1,0.7,0.6,4,0.6,4.8c0.1,1.2-0.8,3.2-1.4,4.2c-0.6,1-3.9,5.1-3.7,5.7
		c0,0.1-1.9,1.9-2.4,2.3c-5.1,0.2-5.8,1.4-5.8,1.6c0,0.2,0.5,0.6,0.9,0.6c0.3,1.2-0.4,4.1-2.7,6.5C18.8,34,18.6,34.9,18,35.5z"/>
</g>
<g id="frame-2">
	<path class="st0" d="M78.6,30.9c-0.1,0.2,0,0.5-0.1,0.5c-0.1,0-2.9,0-4.1-1.8c1,2.1,1.1,3.1,1,3.5c0.6,0.9,0.8,3.1,0.3,3.9
		c0.6,1.6,0,4-2,5.2c-3,0.8-4.9-0.4-6.8-2.1C65,38.4,63,36.3,63,36.3c0.6-0.9,2.1-3.7,3.3-4.4c0.3,0,0.6,0,0.7,0
		c-0.2-1.8-1.3-4.4-1.3-4.6c0.6,0.2,1.3-0.4,1.2-1c0.9,0,5.2,1.5,5.5,1.6c0.5-0.4-0.4-2.8-0.4-3c3.3-4.2,9.1-9.1,9.9-9.4
		C81.5,13.8,81.1,5,81.2,3.1c-3.5-0.3-16.4,2.6-17.5,3.2c0,0.1-0.1,0.4-0.1,0.4s-2.8-2.9-2.7-3.4s2.2-0.1,2.4-0.1
		c0-0.6-3.4-2.6-3.6-2.6c-0.1,0.3-0.3,1.2-2.5,1c-0.3,0-0.2,1.2-0.4,1.4c-0.2,0.2-0.7,1.4-0.4,1.9c0.3,0.5,3.4,4.7,3.6,6.5
		c-1.7,2-5.3,5.3-5.9,5.8c-0.3,0.5-0.6,1.1-0.9,1.8c-0.2-1.3-0.2-2.3-0.2-2.5c0-0.2,1.1-0.9,1.4-1.1c0.3-0.2,1.4-1.1,2.5-1.2
		c-1.2-0.2-2,0.7-2.7,1.1c-0.6,0.4-1.3,1-1.4,1.1c-0.1,0.6,0.1,1.9,0.3,2.7c-1.8,4.2-3.9,11.8-3.4,14.6c1.4,0.8,4.2,6.8,4.5,7.7
		c1.7-0.7,7.8-2,8.3-2.1c0-1,0.4-2.1,0.5-2.3c0.5,0.5,0.6,1.1,1,1.4c0.4,0.3,6.1,4.7,6.5,4.9c1.2,0,3.6-1.1,4.7-1.3
		c0.7-0.4,2.3-2.2,2.6-2.3c-0.4-0.6-0.4-2.4-0.4-3.8c0-2,0.7-4.8,1.4-2.1c-0.1-1.7,0-2.7,0.1-2.7c0.2-0.1,1.4,0.3,1.7,0.4
		C79.4,30.7,78.7,30.7,78.6,30.9z M56.5,4.6C56.4,3.7,57,3,57,2.8c0-0.3-0.1-1,0.1-1s2.4,0.1,2.6-0.9c2.3,1.1,3,1.8,3,2
		c-0.6,0.1-2.3-0.2-2.4,0.2s2.9,3.8,3,3.9c-0.6,1.1-2.8,3.7-3.3,4.2C59.2,7.4,56.6,5.4,56.5,4.6z M62.8,35.9
		c-4.1-2.8-7-7.3-8.9-13.6c1,6,5.5,11.5,8.6,14.2c-0.2,0.7-2.9,3.6-6,3.4c-3.3-0.2-5.3-4.4-6.2-8c0.7-8.4,6.7-15.1,9.4-18.3
		c1.7-2,5.5-4.2,6.6-4c0.3-0.2,4-3.6,9.5-2.2c5.1,1.3,3.7,6.7,2.1,7.9c-0.2,2.2-2.1,4.7-6.2,9.5c0.4,0.6,0.6,2.2,0.6,2.8
		c-0.3-0.1-4.6-1.7-5.5-1.8c-0.4-1-1.8-0.8-2.1-0.1c-0.3,0.7,0,1.2,0.6,1.5c0.5,1.2,0.5,3.1,0.6,4.2C65.7,31.6,63.7,34.5,62.8,35.9z
		"/>
	<path class="st0" d="M70.6,15.9c-0.6-0.3-1.2,0.4-0.6,1.2c0.7,0.8,1.4,1.1,1.7,0.7C72.1,17.5,72,16.7,70.6,15.9z"/>
	<path class="st0" d="M59.4,23.8c-0.2-0.9,0.3-1.7,1.4-0.3s1.5,2,1.7,2.3c0.2,0.4,0.8,1.6-0.7,1C60.3,26.2,59.7,25.2,59.4,23.8z"/>
	<path class="st0" d="M68.1,8.7c1,0.4,1.7,0.8-1.3,1.3c-3,0.4-4.2,1.5-4.1,2.2c0.1,0.7,2.3,3.6,2.5,3.9c-0.5,0.1-1.5,0.3-1.8,0.2
		c1.2,0.2,1.7,0,1.9-0.1c0.3,0.6,2,2,2.1,2.3c0.1,0.3,0.2,1.5,0.6,2c0.4,0.5,2.4,1.4,3.3-0.1c-0.9,0.6-1.8,1-3.1-0.1
		c-0.6-1.3,0-2.8,0.1-3c0.4,0,0.7-0.1,0.8-0.2c0.1-0.4,0.3-1.2,0.3-1.4c-0.2,0.7-0.3,1.2-0.4,1.3c-0.4,0.1-0.9,0.1-0.9,0.1
		c-0.3,0.4-0.4,1-0.4,1.1c-0.7-0.4-4.7-4.5-4.6-6.1c0.5-0.8,1-1.6,4.9-2.2C69.6,9.7,71.6,9,68.1,8.7z"/>
</g>
<g id="frame-3">
	<path class="st0" d="M105.8,8.4c-0.2,1.1,0.1,2.3-0.2,2.8s-4,4.5-4.6,4.7c-0.6,1-1.7,3.3-1.7,3.3L98,21.3l1.7-2.1l1.6-3.2
		c0,0,3.9-3.2,4-3.3c0,0.4-0.9,4.2-0.9,4.7c0.1,0.5,1.2,2.1,1.8,2.4s2.9,2.5,3.1,5c-0.8,0-1.1,1.1-1,1.7c0.1,0.6,0.7,1.3,1.3,1.4
		c0,0.4,0.9,1.7,1.2,1.9s0.6,1.1,0.6,1.4c-0.4,0.4-2.4,2.7-2.4,2.7l-1.9,3.9l2.1-3.9l2.5-2.3c0,0,0-1,0-1.1c-0.4-0.3-0.4-0.9,0-1
		c0.4-0.1,4.5,0.4,4.9,0.5c0.6,0.2,1.3-0.1,1.5-0.1c0.1-0.6-1.1-4.1-1.1-4.5c0.2-0.6,3-4.3,3-4.3l1.7-1.5l0.2-0.7l2.6-2l-2.8,2
		l-0.2,0.6l-1.6,1.6l-3.1,4.2c0,0,0.3,2.9-0.2,3.5c-0.5,0.7-1.4,0.6-3,0.5c-1.6-0.1-2.4-0.4-3-1.5c0.7,0.1,2-1.4,2-1.8
		c0-0.4-0.2-1.1-2.7-1.2c-0.2-0.7-0.7-3-1.1-3.4c-0.4-0.4-2.3-2.3-2.6-2.8c-0.4-0.6-0.3-3.6-0.1-4.2c0.1-0.6,2.5-4.8,4.1-5.6
		c1.6-0.8,2.8-0.8,3.1-0.9c1-0.6,3-1.4,4.3-1.4c-1.9-0.3-4.4,1.2-4.6,1.2C112.7,7.7,107.9,8.5,105.8,8.4z"/>
	<path class="st0" d="M105.6,24.5c-0.6-0.7-1.7-0.8-0.9,0.9c0.8,1.7,1.4,1.2,1.5,1C106.4,26.1,106.5,25.6,105.6,24.5z"/>
	<path class="st0" d="M115.1,15.8c-1-0.1-1.7,1-1,2.9c0.7,1.9,1.3,1.9,2.1,1.4c0.8-0.4,1.7-1.8,1-2.9
		C116.5,16.2,115.7,15.8,115.1,15.8z"/>
	<path class="st0" d="M112,18c0.3,0.5,0.4,0.6,0.4,0.7c0,0.1-0.3,1.2,0.4,1.8c0.6,0.6,0.9,0.7,1,0.7c0.1,0,0.7,0,1-0.2
		c0.3-0.1,0.9,0,1.1,0c0.2,0.1,0.4-0.6,0.4-0.7c-0.3,0.3-0.3,0.5-0.4,0.6c-0.1,0-0.7-0.1-1-0.1c-0.3,0-0.9,0.3-1.1,0.3
		s-1-0.7-1.1-1.3c-0.1-0.6,0.1-1.4,0.3-1.6C112.5,18.4,112.4,18.6,112,18z"/>
</g>
<g id="frame-4">
	<path class="st0" d="M164.5,21.9c0.9-0.6,4.9-2.1,7.7-3.5c0.3-0.7,0.9-7.8,0.9-14.9c-0.4-0.1-1.7-0.4-2.1-1.3
		c-1.4,0-13.7,1.4-16.7,2.3c-0.8,0.9-3.2,2.5-5.3,4l-1.1-2.3l-1.4-2.1l0.3-1l0.1-1.6h1l0.2,0.4l1.1-0.7h1.6l0.8,0.8l1.1,0.1l0.5,0.7
		c-0.5-0.1-1.6-0.4-2.1-0.4c-0.2,0-0.4,0.1-0.4,0.3c-0.2,0.6,0.4,1.6,1.7,2.9c-1.4-1.4-1.7-2.5-1.5-2.9c0-0.1,0.1-0.1,0.3-0.2
		c0.6,0,2.3,0.5,2.3,0.5l0.3,0.1l-1-1.3l-1.1-0.1L151,1h-1.8l-1,0.6l-0.2-0.3h-1.3l-0.1,1.7l-0.4,1.1l1.5,2.2l1.2,2.2
		c-1.2,0.9-2.3,1.7-2.9,2.3c-0.9,1.1-1.7,3.1-3.4,5.9c0.4,6.1,0.7,11.7-2.1,15.3c0,0.5,0.7,6,3.7,8.8c2.4-1.8,5-2.3,9.1-1.9
		c0.1-0.2,0.5-0.9,0.5-1.6c1,1.5,6.3,5.3,6.8,5.4c0.5,0.1,3.2-0.5,3.7-0.7c0.6-0.2,2.4-2,2.8-3.3c-0.2-1.2-0.4-5,0-6.4
		c0.4-1.4,1.2-0.8,1.4-0.6c0.1-0.2,0.6-0.6,0.7-1c-2.2,0.6-3.8-0.4-5.8-2.2C162.3,25.2,163.6,22.5,164.5,21.9z M153.2,36.4
		c-0.6-0.7-2.3-2.8-3.3-3.7c-1.1-0.7-2.2-3-5.6-9.1c0,0,1.4,3.2,2.2,4.7c1,2,2.7,4,3.3,4.6c0.3,0.3,2.6,3.2,3.3,3.9
		c-0.3,0.7-0.7,1.2-1.1,1.5c-3.8-0.6-5.3,0.2-7.6,1.8c-3-2.3-3.2-6.8-3.1-7.5c0.1-0.8,1.9-4.4,2-5.2c0.1-0.7,0.7-3.8,0.4-7.8
		c0.4-3.1,4.1-8.6,6.1-9.3l0.7,1.4l-0.7-1.4c0,0,0.1,0,0.1,0c1.9-0.4,0.7,2-0.1,2.5c0.2,0.4-0.7,1.7-1.8,2.6
		c-0.2,1.5,0.4,7.9,1.3,8.6s3.5,4.3,4,5.4c3.7,0.7,2.6,2.6,0.4,3.1C153.9,33.9,153.6,35.3,153.2,36.4z M163.4,28.8
		c2.5,1.9,3.1,5.6,3.1,6.1c0,0.5-0.3,1.4-0.3,1.6c0,0.2,0.3,2,0.3,2.3c0,0.3-1.7,2.4-2.3,2.8c-0.3,0.1-2.4,0.6-3.6,0.6
		c-1.1-0.1-5.9-4.2-6.8-5.5c0-0.1,0.3-0.5,0.4-1.1c0.1-0.6-0.1-1.8,0-2.5c0.1-0.7,3-1.3,4.1-1.7c-0.3-0.4-0.2-1.1,0.2-1.2
		c0.9,0.2,3.8,0.4,5.3,0.4C163.7,30.5,163.4,29.8,163.4,28.8z M160.9,24.8c0.9,0.6,0.3,5.5-6,2.8c2.1,0.1,4.2-2.5,4-3.2
		c-0.2-0.6-1.8,0.8-2.4,1.1c-0.7,0.3-2.3,0.8-3.4,0.1c-1.1-0.7-0.6,0.4-0.5,0.6c-0.7-0.5-4.1-4-4-10.4c1-1.2,1.7-2.7,1.6-3
		c0.8-0.4,2.3-1.2,3-2.3c0.7-1.2,2.9-4.9,7.4-4.1c5-2.2,13.4,1.1,7.8,8.6c0,4.1-5.1,7.2-7.2,7.9C161.3,24.2,161,24.7,160.9,24.8z"/>
	<path class="st0" d="M157.8,19.4c0-0.6,0-1.6,0.3-1.9c-0.4,0-0.4,0.6-0.5,0.4c-0.1-0.1-4.6-4.7-4.6-6.2c0-1.4,7.6-2.6,7.7-2.7
		c0.2-0.3-2.3-1.1-3.8-1.1c2.2,0.6,3.4,0.9,3.4,1.1c-0.1,0.1-7.3,1-7.4,2.7c-0.1,1.7,4.7,6.4,4.8,6.6c0,0.2-0.1,1.3,0.1,1.5
		c0.2,0.2,1.3,0.9,1.7,0.9C158.8,20.4,157.8,20,157.8,19.4z"/>
	<path class="st0" d="M160.5,15.8c-1.1-0.8-2.3,0.5-0.7,1.4c1.5,0.8,1.7,3.9,0.9,4.7c-0.8,0.9-0.8,1.1-0.1,0.8
		C161.2,22.5,164.6,18.8,160.5,15.8z"/>
</g>
<g id="frame-5">
	<path class="st0" d="M209.4,22.1c2.7-0.7,8.8-1.6,9.7-1.7c1.6-4,1.3-10.1,1.3-10.3c-0.7-0.8-0.4-5-0.3-5.3
		c-0.9,0.1-2.5-1.3-2.9-2.8c-1.7,0-14.8,0.1-15.2,0.2c-0.4,0.1-4.7,3.2-5.6,3.6s-3.8,1.7-5.3,4.4c-2.2,2.5-4.5,6.5-4.4,8
		c0.3,1.2,2.9,3.4,2.7,7.8c-0.8,4-4.4,6.8-5.1,6.9c-0.3,3.6,1.4,7.2,3,7c0.8,0.4,1.3,0.6,1.7,0.7c-0.4-2.2,5.3-4.4,10.5-1.5
		c-1.2-1.3-2.3-2.5-2.5-4.2c-1.7-0.9-3.2-4.2,0.4-5.7c2.3,0.2,5.8,0.5,6.3,0.7c1.4,0.6,4.7,0.3,4.7,0.3s0.1-0.8,0-1.1
		c2.2,1.8,2.8,3.1,3.1,6.8c0.3,3.8,0,3.6-1.1,4.7s-3.5,2.2-4.9,1.6c-1.3-0.5-5.8-3.9-7.1-5.3c2.9,3.5,6.8,5.5,7.2,5.7
		c0.4,0.1,5,0,6.3-3.6c-0.1-2.9-0.4-5.5-0.3-5.7c-0.4-1.3,0.3-2.1,1.8-2c-2.7-0.4-3.6-0.8-5.3-2.8c0.1-1.4-0.3-2-0.4-2.4
		C207.5,25.8,206.6,22.8,209.4,22.1z M194.7,30.4c-0.1,0.3-0.4,1.4,0.4,3.3c2.3,2.5,1.4,3-0.2,3.7c-2.8,0.1-6.1,1.1-7,2.4
		c-0.1,0-0.4-0.1-0.9-0.1c-2.4-1.2-2.3-4.9-2.1-6.2c1.3-0.6,6.3-5.5,6.3-7c0-0.7-1.9-5-2.2-5.4c-0.2-0.4-0.6-0.7-1.6-2.6
		c0.1-5,7.1-10.7,8.1-10.8c1-0.1,0.8,2.4,0.6,3.4c-0.3,0.2-2.9,3.4-3,5.6c0.2,2.9,1,7.8,2.3,8.1c0,0.2,0.1,1.6,1.4,2.2
		C198,28.7,196.1,29.6,194.7,30.4z M206.1,17.5c-1.9,0.1-1.7,1.4-0.6,1.9c1.1,0.5,2,1.5,1.9,2.8c-0.2,0.1-0.6,0.4-0.7,0.5
		c0.1,0.5,0.5,3.1,0.9,4c0,0.6-0.2,1.3-0.1,1.7c0.5,0.1,1.1,1.4-1.7,1.3c-2.8-0.1-5.6-0.4-6.7-1.6c0-0.7-1.4-1.5-1.6-2.1
		c-0.1-0.6,0.9-3.9-0.9-3.5c-0.7,0.1-1.2,0.9-1.2,1.7c-0.6,0-2-3.7-2-7.3c0-3.6,3.6-6.2,3.8-6.3c-0.4-1-0.4-4,2.6-5.1
		s7.5-1.2,8.1-0.9c2.7-0.5,9.1-0.4,9.6,5.8c-0.4,4-2.5,5.3-2.9,5.5c0.4,2.9-4.1,5.1-6.7,6C208.3,20.9,208,17.4,206.1,17.5z"/>
	<path class="st0" d="M204.5,21c-0.7,0-1.7-0.6-1.8-0.7l0,0v-1.8l-0.5-0.2l-0.5-0.6l-0.1-0.5l-0.9-0.8l0,0l1,0.7l0.1,0.5l0.5,0.5
		l0.6,0.3v1.8C203.1,20.3,204,21,204.5,21L204.5,21C204.5,21,204.5,21,204.5,21z"/>
</g>
<g id="frame-6">
	<path class="st0" d="M246,3.7c-3.2,1.7-4,2.7-4.1,3c-0.1,0.3-0.7,4-0.4,4.4c-0.4,0.4-2.5,2.8-2.6,4.7c0.6,1,0.8,5.2,0.3,6.6
		c-0.1,0.7,0.1,1.3,0.2,1.4c0.1-1.7,0.7-3.3,2.3-3.3c1.6,0,2.5,2,2.5,3s0.8,3.2,0.5,3.8c-0.4,1.1-2.5,0.7-2-0.7c-1,0-2.7-1-2.9-1.5
		c1.1,2.3,3.2,3.9,5.7,4.1c0.4-0.3,1.9,0.3,2.7,0.3s4.5-1.4,2.6-5c-0.2-0.4-0.1-1,0-1.1c0.1-0.2,1.7-1,1.9-1.1
		c-0.7-0.5-1.8-0.5-2-1.3s1-2.2,1.9-0.9c0.9,1.3,0.5,2,0.5,2.2c1.2-0.6,4.5-1.5,5-1.6c0.4-0.1,2.3-0.3,3.1-0.5
		c0.7-0.1,3.3-1.2,3.7-5.3c-0.1,4.6-0.9,5.5-1.1,5.7c-2.2,0-8.8-0.3-10.7,3.1c-0.3,1.5,0.1,4.7,0.3,5.2s2.6,2.1,2.9,2.2
		c0.3,0.1,1.4,0.3,1.8,0.3c-1,0-1.6,0.1-1.7,0.3c0,0.2,0.5,1.1,0.5,1.5c0,0.4,0.2,5.9,0.1,6.2c-0.1,0.3-2.2,2.6-2.4,2.8
		c-0.2,0.1-3.9,0.9-4.4,0.6s-6.2-4.5-6.3-4.8c0.9,0.8,6.4,4.7,6.4,4.7s3.6-0.4,4.1-0.6c0.5-0.2,2.4-2.5,2.4-2.8
		c0-0.3-0.2-6.1-0.4-6.4c-0.7-1.7-3.9-3.7-4.3-4c-0.9,0.2-1.2,1.4-0.9,2.3c-2,0-7.3-0.6-7.7-0.7c-0.4,0-3.6-2.9-3.9-3.4
		s-1.3-2.7-1.2-3.3c0-0.6,0.7-3,0.7-4.2c0-1.1-0.5-3.5-0.6-3.9c0.1-1,2.4-4.6,2.5-4.7c0-1.2,0.3-4.1,0.4-4.4c-0.3,0-3.1,1.1-4,2.5
		c0.3-0.9,2.5-2.7,3.8-2.9C242.4,5.2,244.6,4.2,246,3.7z"/>
	<polygon class="st0" points="232.6,17.9 232.3,17.5 232.3,16.7 233.4,15.9 233.4,15.9 232.5,16.8 232.5,17.4 	"/>
	<polygon class="st0" points="243.4,13 242.9,12.7 242.9,11.7 242.9,11.7 243.1,12.6 	"/>
	<polygon class="st0" points="249.7,9.4 249.7,9.4 250.7,8.9 250.8,9.1 	"/>
</g>
<g id="frame-7">
	<path class="st0" d="M310,6.1c-0.1-0.1-2.5-5-2.5-5h-10.5c-0.1,0.6-3.6,1.8-6.1,2.4s-6.9,2.9-7.4,3.3c-0.6,0.4-3.7,2.4-7.4,10.8
		c0.1,0.1,1.2,1.7,3.3,5.9c2.1,4.2-0.4,6.5-1.3,7.2s-3.6,2.1-3.8,2.3c-0.2,0.2-1.4,3.4-1.2,3.7c0.1,0.3,1.7,1.8,1.8,1.9
		c0.1,0.1,0.3,1.3,0.6,1.6c0.3,0.2,2.8,1,4.5,0.9c-0.2-0.1-1.1-0.8-1.6-1.5c0-1.3,4.5-2.3,5.9-2.2c0.5,0.1,3.8,1.2,6.1,2.4
		c-1.4-1.4-5.3-6.6-5.6-8.5c0-1.8,2.4-2.3,4.7,0.1c0.4,0.1,5.5,0.2,7.3-0.1c0.1-0.5,1.3-1.7,1.5-1.7c0.2,0,1.3,0.9,1.8,1.1
		s1.8,3.4,1.8,3.4l0,5.2l-1.9,2.9l2.1-2.8l0-5.2c0,0-0.4-1-0.6-1.4c-0.2-0.4-0.2-1.1,0.1-1.3c-0.3-0.2-1.6-1-3-1.8
		c0-0.8,0.2-2.2,0.5-2.9c0-0.4,0-3,1.1-4.4c2-1.5,9.1-0.5,9.6-0.7c0.2-0.5,1.8-9.2,3.4-10.3C313,10.5,310.1,6.2,310,6.1z
		 M284.3,30.4c0.1,2.1,2.7,5.6,3.3,6.5c0.6,0.9-0.4,0.9-0.7,0.8c-0.3,0-1.3-0.7-3.6-0.8c-2.3-0.1-6,1.3-6,1.7c0,0.3,1,1.3,1.1,1.8
		c-0.4,0.1-2.6-0.5-2.8-0.6c-0.2-0.1-0.5-1-0.6-1.4c-0.2-0.1-1.5-1.6-1.6-2c-0.1-0.4,0.5-2.8,1.2-3.5c0.7-0.2,6.3-4,7.3-5.5
		c-0.6-1.3-5.3-9.3-5.3-9.9c0-0.6,0.8-2.4,2-4.6c1.2-2.2,5.2-5.7,6.9-6.6s1,0.5,0.4,0.8c0,0.1-0.3,0.9-0.1,1.3
		c0.1,0.1,0.4,0.2,0.5,0.4c0.1,0.1,0.7,1.9,0.4,2.2c-0.2,0.3-2.2,0.8-2.3,1c-0.2,0.2-1.4,1.8-1.1,3.5c1.4,1.3,1.9,2.6,1.8,3.3
		c-0.7,0.3-1.4,2.2-1.2,3.6c-0.1,0.1-0.4,0.1-0.6,1.2c0.4,2.1,2.2,4.7,2.2,4.9S284.6,29.1,284.3,30.4z M307.8,12.8
		c-0.1,1.4-2.3,7.3-9.8,9.4c0-0.5-0.9-0.9-1.1-0.9c-0.5,0.3-0.4,1.1-0.4,1.2c-0.2,0-0.4,0.1-0.4,0.3c1,7.5-7.9,10-12.1,2.5
		c-0.4-1-0.7-1.9,0-2.6c0,0.9,0.7,2.9,2.5,3.2c1.8,0.3,5,1.4,5.5,1.6c-2.5-1.1-3.2-2.2-3-3.3s3-7.1-3-6.1c-0.6-1.1-2.4-2.8-2.4-2.9
		c-0.1-1.1,0.6-2.9,1-3.1c0.9-0.2,2.4-0.7,2.6-1.1c0.2-0.4-0.5-2.6-0.7-2.7c-0.1-0.1-0.4-0.1-0.3-0.5c0-0.4,0-0.7,0.4-0.9
		c0.4-0.2,1.5-0.7,1.7-1.1c0.1-1.1,3.2-2.3,9.5-2.3c2.1-0.9,10.4-2.3,11.2,4.6C308.8,10.8,307.9,12.6,307.8,12.8z"/>
	<polygon class="st0" points="295.6,43.1 294.6,42.1 294.6,42.1 295.6,42.8 296.4,42.4 297.2,42.7 297.2,42.7 296.4,42.7 	"/>
</g>
<g id="frame-8">
	<path class="st0" d="M334,26.4c-1.2-0.5-3.2-0.4-1.8,0.9c1.4,1.2,2.3,1.1,2.5,0.6C334.9,27.3,334.7,26.7,334,26.4z"/>
	<path class="st0" d="M342.4,22.8c-0.9-0.3-1.6,0.9-0.4,1C343,24,343.1,23.1,342.4,22.8z"/>
	<path class="st0" d="M354.2,24.2c-8.9-1.3-5.6-4.1-0.3-4.2c0.7-3.2,2.7-7.4,3.3-8c-0.7-3.4-2-5.9-2.4-6.3c-0.4-0.5-2.8-3.9-2.8-4.2
		c-3.2-0.1-8.9-0.2-9.5,0c-3.9,0.8-11.2,3.7-11.6,3.8c-1.1,0.5-4.8,3.7-5.4,4.4c-0.3,0.4-0.5,0.9-0.6,1.1c-0.5,0.2-4.3,1-5,1.1
		c0.6,1.5,1.6,3.6,1.6,3.6s-0.4,1.1-0.4,1.3c0,0.2,1.2,2.6,1.3,2.9c0.2,0.3,0.6,1.7,0.7,1.9s2.3,3.3,2.8,4.5
		c0.5,1.2,0.3,2.4-0.8,3.2c-1.1,0.8-5.1,3.4-5.8,3.6c-0.6,0.1-0.8,0.6-0.7,1.1c0,0.5,0,2.3-0.4,2.9c1.3,0.7,2.5,2.1,2.3,3.6
		c1.4,0,4.4,0.4,4.8,0.6c-0.1-0.7-1.6-1.5-2-1.9c-0.4-0.4,0.4-2,4-2.1c4,0.7,6.9,2.5,7.5,2.8c0.6,0.3,1,0,0.3-0.7
		c-0.7-0.8-5.2-6.1-5.4-6.9s-0.2-5.4,4.4-1.3c1.3-0.2,6.3-0.2,7.1,0c0.4-0.9,1.1-1.2,1.4-1.2c0.3,0,2.5,2.3,2.7,2.6
		c0.6,0.4,4,2.6,4.4,2.8c0.4,0.2,4.1-0.4,4.7-0.6s4.2-1.3,5.5-1.2C358.9,31.9,354.5,24.6,354.2,24.2z M328.9,30.5
		c-0.3,2.3,4.2,7.1,4.8,7.7s0.1,0.8-0.3,0.7c-0.3-0.1-4.4-1.9-6.2-2.1c-1.8-0.2-4.9,1-5,1.4c-0.2,0.4,1.3,1.5,2.4,2.5
		c-0.2-0.1-2.7-0.4-4-0.5c0-1.7-1.4-3-2.2-3.4c0.1-0.3,0.3-2.7,0.4-3.5c0.1-0.1,4.7-2.7,5.1-3c0.4-0.2,2.1-1.7,3.1-2.3
		c0-1.2-3.6-6.2-3.7-6.5c-0.1-0.2-1.8-4.3-1.9-4.6c-0.1-0.3-0.1-0.7,0.1-1.1c0.2,0.6,3.6,6.6,4.9,7.7c0.3,0.1,1.1,0.1,1.7,0.2
		c0.1,0.1,2.2,4.7,2.2,5.1C330.2,28.9,329.1,29.3,328.9,30.5z M335.3,30.3c-1.2,0-2.6-0.6-3.3-1c-0.8-0.4-1.3-0.4-1.4-0.4
		c-0.4-0.6-2.2-4.8-2.3-5c2.2,0.1,4,0.5,4.2,0.5c0.6,0.6,1.9,1.6,2,1.7c-0.7-0.7-1.5-1.6-1.5-1.7c2.9,0.5,7.5,2.8,7.4,4.1
		C340.3,29.8,336.5,30.3,335.3,30.3z M346.2,31.9c-3-3-8.6-7.7-13-8c-0.3-0.3-0.1-0.3,0-0.4c4-3.2,3.6-7.8,0.5-7.7
		c-3.1,0.1-4.2,3.3-4.3,3.9c-0.1,0.6-0.4,2.5,0.4,3.3c-2.5-0.5-5.1-2.2-6.4-4.5c-1.3-2.3-2.4-4.4-2-5.5c0.4-1.1,3.4-1.7,3.6-1.9
		c0.4-2,4.9-5.1,5.7-5.4c0.8-0.2,1.4,0.1,1.3,0.3c-0.1,0.2-1.1,1-1.4,1.1c-0.3,0.6,0.3,1.3,0.5,1.6s0.4,1,0.4,1l0.4,1l-0.2,0.3
		l-1.3,0.4l-1.6,0.9l1.9-0.9l1.3-0.4l0.1-0.6l-0.6-0.8c0,0-0.1-0.9-0.2-1c0-0.1-0.5-0.4-0.6-0.6c0-0.2-0.1-0.7,0-0.9
		s1.4-0.7,1.5-0.9c0-0.5,0.2-1.4,2.9-2.2c2.6-0.8,6.1-1,6.6-1.1c11.1-3.2,15.9,3.8,11.8,10.9c-0.9,3.8-5,7-10.5,7.9
		c3,0.4,5.5,2,5.7,2.4C358.9,26.9,357.2,35.3,346.2,31.9z"/>
</g>
<g id="frame-9">
	<path class="st0" d="M386.7,23.6c-0.6-0.1-0.6,1,0,0.9C387.3,24.5,387.7,23.8,386.7,23.6z"/>
	<path class="st0" d="M378.5,25.4c-2.5-1.5-4.2,0.1-1.6,2C379.8,29.4,381.2,27,378.5,25.4z"/>
	<path class="st0" d="M399.3,24.9c-3.6-0.3-6.5-2.5-6.5-2.8c0-0.3,0.4-2.5,5.6-2.5c0.1-1.5,3.1-7.8,3.1-7.8s0-0.9,0-1.5
		c-2,11.5-11.5,10.8-14.9,10.7c0.5,0.1,1.1,1.3,1.5,3.9c0.8,5.1-3.3,6.8-5.5,5.6c-0.3,0-2.9,0-3.6-0.1c-0.7-0.1-3.3-2.5-3.8-3.1
		c-0.5-0.6-2-2.6-1.9-3.5c0.2-0.9,3.6,0.2,4.9,0.3c0,0-3.4-0.7-3.9-0.9c-0.4-0.1-0.6-0.3-0.5-0.4c0-0.2,1.9-3.2,2.4-4
		c-0.3,1.6-0.2,2.2,2.5,2.1s3.7-2.3,3.8-3.1c0.1-0.8-0.9-2.1-2.5-2.3s-3.2,1.5-3.7,2.6c-0.1-0.1-2-2.2-3.1-2.6
		c-0.1-0.2-0.2-0.9-0.2-1.8c0.3-0.1,1-1.4,1.3-1.8c0.3-0.3,3.1-0.8,3.1-1.1c0-0.3-1.6-3.1-1.6-3.1V7.2c0,0,2.4-1.6,2.5-1.9
		c0.1-1,2-1.3,5.2-2.4c-0.5,0.1-3.4,0.9-4,1c-0.6,0.1-4.6,1.7-5,1.9c-0.4,0.2-2.2,1.7-2.9,2c-0.7,0.3-8.4,1.7-9.5,1.9
		c0,1.9,9.4,17.5,9.3,17.9c0,0.4-2.4,2.3-3.5,3.3c0.4-0.2,3.9-2.8,4.1-3.3c0.1,0,1.8,0.9,2.5,1.4c-0.9,0.3-1.3,2.7,0.6,4.6
		c-2-2.6-1-4.5-0.3-4.4c0.7,0,3.6,2.3,9.2,6.8c5.7,2.6,12.9,2.9,15.3,2.6c0-1,3.3-4.3,4.7-5.5C404,32.6,400.2,26,399.3,24.9z
		 M370.1,10.5c0.1-0.4,2-2.1,2.8-2.6c0-0.2-0.3-0.4,1.6-1.6s3.6-1.2,3.4-0.9c-0.2,0.3-2.2,1.4-2.4,1.9c0.1,0.3,1.7,3.3,1.7,3.4
		c0,0.1-2,0.5-3.1,0.9c-0.2,0.4-0.8,1.3-1.4,1.8c0,0.1,0,1.4,0.3,2.1c0.8,0.4,2.2,1.5,2.4,2.8c0.1,0.9-1.7,3.8-2.8,5.4
		C364.5,13.5,368.3,10.5,370.1,10.5z M402.3,32.7c-0.4,2.2-1.3,2.8-2.5,3.7c-1.2,0.9-1.7,1.8-3,1.8c-1.2,0-10.1-1.6-17.5-7.3
		c1.5,0.4,2.4,0.8,2.5,0.9c1,0,4.9-0.1,5.1-0.2c0.7-1.8,3-5.1,3.4-5.3c-1.9-2,1.1-4.7,5.6-1.8C400.5,27.5,402.7,30.5,402.3,32.7z"/>
</g>
<g id="frame-10">
	<path class="st0" d="M443.4,19.6c0.6-3.5,2.5-6.9,2.8-7.2c0-2.6-0.9-5.7-1-6c-0.1-0.3-3.5-4.3-3.8-4.5c-0.3-0.1-6.9-0.4-7.4-0.3
		c-0.5,0.1-9.3,2.3-9.6,2.4c-0.8,0-4,1.6-4.1,1.8c-0.6,0-3.1,1.8-3.3,2.1l-0.2,0.5l-3.4,4.1l3.6-4.1l0.2-0.5c0,0,2.8-1.9,3.6-2.1
		c0.8-0.6,2-1.2,2.1-1.1c0.1,0.1-0.3,0.9-0.5,1.1c0.8-0.7,1-1.4,1.2-1.5c0.2-0.1,9.8-2.4,10.3-2.4c0.4,0,5.9,0,7,0.5
		c1.1,0.5,3.7,3.8,3.9,4.2c0.2,0.4,0.7,4.9,0.7,5.5c-0.1,0.6-1.1,1.5-1.3,1.9c-0.1,1-1.3,5.5-6.5,6.3c-0.7,0.2-2,0.7-2.2,0.7
		c-0.9,0.2-3.7,0.2-4.3,0c0.7,1.1,2,3,2,3.8c0.4,0.6,1.3,3.3-1.8,5.8c-1.6,0.4-3.2,0.7-6.6,0c-1.1-0.2-4.4-0.4-7.1-6.3
		c0.3-0.9,2.9-5.8,3.5-6.3c-0.1-0.4-3.4-2.6-3.6-2.7c0-0.9-0.1-1.9,0-1.9s1.2-0.6,1.3-1.6c0.2-0.2,0.4-0.6,0.6-0.6
		c-0.4-0.1-0.8,0.5-0.9,0.6c0,0.1,0,0.8-1.3,1.5c0,0.7,0,2,0,2.1c0.3,0.4,3.4,2.3,3.4,2.5c0,0.3-3.2,6.2-3.3,6.3
		c0.4,0.9,2.4,3.9,2.5,4c0.1,0.2,0.1,0.5-0.2,0.7c-0.2,0.2-1.2,1-1.2,1.2c-0.1,0.1,0.2,1.5,0.3,1.6c-0.2-0.7-0.1-1.6,0-1.7
		c0.1-0.1,1.5-1.1,1.7-1.1c0.2,0,1.6,1.1,2.7,1.4c1.1,0.3,3.8,1.1,4,1.1c0.3,0,3.7-0.1,4-0.2c0.4-0.1,3.5-4.3,3.3-5.4
		c-1.5-1.9,0.1-4.8,2.6-3.2c0.7,0.6,2.4,1.6,4.3,1.9c1.9,0.3,2.9,1.1,3.8,3.2c0.1,0.3,1.2,2,1.4,2.2c-0.7-1.3-2.4-4.7-2.8-4.9
		c-0.4-0.2-2.5-0.7-4.2-1.3c-1.8-0.6-2.7-2.3-2.6-2.5C437.3,21.1,438.3,19.9,443.4,19.6z"/>
	<path class="st0" d="M426.3,15.9c-2.1-0.2-2.5,1.2-2.5,2c0,0.8,1,2,2.7,1.9c1.7-0.1,2.8-0.9,2.7-1.7
		C429.2,17.4,428.4,16.1,426.3,15.9z"/>
	<path class="st0" d="M423.4,25.4c0.9,0.9,1.4,2.8,1.1,3c-0.7,0.3-1.6-0.3-3-1.3c-1.4-1-1.6-2.2-0.3-2.4
		C422.6,24.5,423.2,25.2,423.4,25.4z"/>
	<polygon class="st0" points="414.5,23.4 413.4,22.5 412.1,20 412.1,19.2 411.3,18.3 411.5,17.4 410.9,17 411.1,15.8 412.1,14.4 
		412.1,14.4 411.3,15.9 411.1,16.9 411.7,17.3 411.5,18.3 412.4,19 412.3,19.8 413.6,22.3 	"/>
	<polygon class="st0" points="415,29.1 415,29.1 416.2,28.5 416.7,27.8 415.6,25.2 415.6,25.2 417.2,28 416.3,28.7 	"/>
	<polygon class="st0" points="411.2,31.8 411.1,31.7 412.7,30.8 412.7,30.4 413.9,29.9 413.9,29.9 412.9,30.6 412.9,31 	"/>
	<polygon class="st0" points="410.4,39.3 409.2,37.8 408.2,37.2 407.7,36.5 408.3,35.6 408.8,34 408.5,33.6 408.8,32.7 409.8,32.4 
		410.4,31.3 410.4,31.3 409.9,32.5 408.9,32.8 408.9,33.4 409,33.9 408.5,35.6 408,36.5 408.3,37 409.4,37.4 	"/>
	<path class="st0" d="M415.1,41.1l-0.5-0.4c-0.6-0.1-1.3-0.1-1.4-0.1c-0.1,0-0.7-0.1-1.1,0c-0.6,0.1-0.8-0.1-0.8-0.1l0,0
		c0,0,0.4-0.1,0.8-0.1c0.7-0.1,1.1-0.2,1.1-0.2c0.1,0,1.4,0.2,1.7,0.3h0l0.2,0.2l0.2-0.1l-2.4-1.2c-0.3-0.3-0.9-1-0.4-1.6
		c0.5-0.6,2.4-0.9,2.6-1l1.5-0.5l1.9,0.2l0,0l-1.9,0.1l-1.4,0.4c0,0-1.8,0.3-2.3,0.9c-0.4,0.5,0.1,1.2,0.2,1.3l2.6,1.4L415.1,41.1z"
		/>
	<polygon class="st0" points="421,34.1 420.7,33.8 419.6,32.7 419.6,32.7 420.8,33.7 	"/>
	<polygon class="st0" points="425.6,40.3 423.8,39.6 422.5,38.5 422.5,38.5 423.9,39.4 424.7,39.6 424.1,38.8 423.7,38.3 
		423.4,37.2 421.5,35 421.5,35 423.6,37.1 423.9,38.2 424.3,38.7 	"/>
</g>
<g id="frame-11">
	<path class="st0" d="M460.5,10c-3.6,0-6.5,2.3-1.7,10.1c1.1,4.6,8.5,13.7,16.3,15.9c1,0.3,4.4-0.3,5.6-0.4c1.1-0.1,5.3,0.7,7.3,1.5
		c2.4-0.3,5.2-2.5,5.1-3.9c-3.2-2.7-4.3-6.5-4.3-7.6c-1-0.9-4.2-1.7-5.6-1.3c-1-3.7-5.6-3.8-3.7,1.7c-0.2,1.5-1.4,3.6-1.7,3.8
		c0.6-1.4,1.4-3.6,1.5-3.8c-0.4-1.1-1-4-2.3-4.2c-0.5-0.3-1.4-1.8-1.4-1.9c1.5,1.9,5.9,1,7.5,0.3c-1.8,1-1,1.9,0.6,3.4
		c1-0.1,5,0.2,5.4,0.4c0.4,3.5,2.7,7.5,4.9,9.1c-0.8,1.9-3.9,4.2-5.8,4.7c-3.3-1.3-4.9-1.6-6.3-1.6c-1.4,0-6.5,1.1-7.2,1.2
		c-2.3-0.6-6.5-2.9-7.4-3.5c-0.9-0.7-3.6-3.6-4.3-4.3s-3.2-2.9-3.4-3.1c-2.2-4.5-7.8-16.3-7.9-16.6c-0.1-0.3,0.5-0.6,0.6-0.7
		c0.1-0.1,0-1.3,0-1.5c2-0.5,7.5-0.8,9.1-0.7c1.3-0.6,3.2-1.5,3.5-1.6c0.7,0,3.3-0.3,3.3-1.8c0.9-0.2,3.2,0,3.3,0
		c0.2,0.3,1.3,0.6,1.5-0.9c1.4-0.2,5.3-1.2,7.4-1.1c2.1,0,5.8,0.4,6.2,0.5c1.2,0.9,3.6,4,3.9,4.7c0.4,1.7,0.8,4.5,0.8,4.9
		c-0.2,1.1-2.6,5.3-2.6,6.2c-0.4,0.8-1.8,1.9-2.2,1.9c-0.9,0.3-1.9,0-2.3,0c2.6-0.7,4.7-2.2,5.2-5c0.7-1.1,1.6-2.6,1.6-3.1
		c0-0.5-0.5-4.6-0.7-4.9c-0.2-0.3-2.9-4.1-3.7-4.5c-0.8-0.4-5.6-0.6-6.1-0.5c-0.6,0-7.1,1-7.2,1.1c-0.2,0.6-0.7,1.8-1.8,1
		c-0.6,0-2.8-0.1-3,0c0,0.9-1,2-3.4,2.1C462.6,7,460.7,8.8,460.5,10z"/>
	<path class="st0" d="M465.7,24.3c-1.1-0.2-1.6,0.5-0.2,0.7c1.3,0.2,2.2,1.7,2.5,2.3c0.3,1.1,1.4,1.6,1,0
		C468.5,25.7,467.1,24.5,465.7,24.3z"/>
	<path class="st0" d="M471.9,15.4c-1.2-0.1-1.9,1.2-0.2,1.9c-0.2,1.6,1.8,3.1,3,2.2s-0.3-3-1.7-2.9
		C473.1,16.1,472.7,15.5,471.9,15.4z"/>
</g>
<g id="frame-12">
	<path class="st0" d="M538.7,33.4c-3.5-0.9-5.4-7.2-5-10.9c-1.7,1.8-3.8,1.3-5.1,1.1c-0.4-0.2-1.1-1.3-1.9-2.5
		c0.1-0.2,0.3-0.4,0.9-0.7c2.8,0.4,3.4-0.1,4.5-1c1-0.6,1.9-2.1,2.2-3.4c0-0.1,0.5-0.4,0.2-1.3c0.1,0.3-0.2,0.7-0.4,1.2
		c-0.1,1.4-1.4,3-2.3,3.2c-0.8,1.2-2.6,1.1-4.2,1.1c-3.2,1.8-5.8,1-6.5,0.2c0.2-1.2-1-1.7-1.9-2.3c-0.9-0.6-0.1-2-2-2.3
		c-1.9-0.4-1.6,1.6-0.2,1.9c1.4,0.3,2,0.1,2,1.8c0.1,1.7,1.2,1.5,1.7,1.3c0,0.1,0.1,0.5,0.3,0.7c2.1,1,2.6,2.2,2.6,3.5
		c0.9,1.5-0.6,4.9-2.5,6c-4.3,0.8-6.9,0.1-11.9-3.7c4.2,4.6,9.4,4.6,12.1,4.1c0.5-0.3,3.2-1.8,2.7-6.5c0.4,0.6,2.6,2.6,4.2,4
		c0.4,0,1.7,0.2,2.6-1.2c1-2.4,2.5-0.8,2.8,0.1c0.3,0.9,1.7,4.2,4,6.4c2.4,3.1-1.8,4.4-3.4,4.3c-0.8-0.9-6.6-5.7-8.3-5.6
		c-0.7,0-3.8,2.4-5.2,4.7c-11-1.8-17.9-14.5-19.1-19.2c-5.4-10.7,1.6-11.4,4.5-10.1c0.6-1.1,3.3-2.6,5.1-2.7
		c1.8-0.1,2.1-1.5,2.1-2.5c0.1,0,0.9,0.1,1.3,0.1c0.1,0,0.7,0.6,1.3,0.4c-0.3,0-1-0.4-1.1-0.7c-0.2,0-0.9-0.1-1.6-0.1
		c-0.1,1.7-0.9,1.9-2.1,2c-1.2,0-4.9-0.5-9.1-0.3c-0.5,0.5-2.6,1.2-4.7,1.1c0,1.8-0.5,3.3-1.4,3.1c0,0.5,3.4,9.8,5.9,15.7
		c0.7,0.8,2.8,2.3,4.9,5.3c2.1,3,3.4,3.5,5.1,4.6c1.7,1.1,6.5,4,9.2,3.9c3.7-5.5,9-3.9,13.1,0.9c0.3,0,3.8-0.9,4.6-2.3
		C538.9,36.4,539,35,538.7,33.4z M531.2,25.9c-0.1,1.4-1.5,2.1-1.9,2.1c-0.4,0-3.3-0.8-5.1-3.8s1.4-2.9,2.2-3
		c0.3,0.2,1.3,1.8,1.9,2.6c0.3,0.1,2.5,0.4,3.5,0.2C533.8,23.2,532.9,25.1,531.2,25.9z"/>
	<path class="st0" d="M508.4,22.6L508.4,22.6l1-2l1.8-2.5l-1.2-1.1l-2.2-1.1l-0.2-1.2l-0.2-1.3l0.8-0.1c0-0.2,0.1-0.7,0.5-0.8l0,0
		c-0.4,0.2-0.3,0.9-0.3,0.9v0.1l-0.6,0.1l-0.1,0.9l0.3,1.2l2.2,1.2l1.4,1.2l-2.1,2.6L508.4,22.6z"/>
	<path class="st0" d="M534.9,14.4L534.9,14.4c0,0,0.5-1.1,0.5-1.1c0.1,0,0.4-0.3,0.6-0.7c0.2-0.4,0.1-0.7-0.1-1.1
		c0,0-0.5-0.7-0.1-1.6c-0.2-0.4-0.6-1.2-0.4-3c-0.5-0.3-1.4-1.6-2-2.6c-0.3-0.2-1.1-0.9-1.7-2.1c0,0-0.8,0-1.5-0.4
		c-0.2,0-4.2,0.2-4.7-0.4c-0.4,0-0.6,0.2-0.8,0.3c-0.1,0.1-0.3,0.2-0.6,0.2c-0.3,0-0.5-0.1-0.6-0.2c-0.2-0.1-0.3-0.1-0.7,0
		c-0.3,0.4-1.4,1.1-2.2,1.2c-0.4,0-0.8-0.2-1.1-0.4c-0.4-0.2-0.6-0.2-1-0.1c-0.1,1.6-0.5,2.2-1,2.2c-0.5,0-0.9-0.7-0.9-0.9l0,0
		c0,0.2,0.6,0.7,0.9,0.7c0.2,0,0.6-0.3,0.8-2.3c0,0,1-0.1,1.4,0.2c0.3,0.2,0.8,0.1,1.1,0.1c0.8-0.1,1.7-0.7,1.9-1c0,0,0.9-0.1,1,0.1
		c0.1,0.1,0.3,0.2,0.5,0.2c0.3,0,0.4-0.1,0.5-0.2c0.2-0.1,0.4-0.2,1-0.2l0.1,0c0.5,0.6,2.7,0.5,3.9,0.4c0.3,0,0.6,0,0.7,0
		c0,0,1,0.3,1.3,0.3c0.1,0,0.3,0,0.3,0c0.6,1.2,1.4,2,1.6,2.1c0,0,1.7,2.3,2.1,2.5l0.1,0.1c-0.2,1.9,0.2,2.7,0.4,3l0,0.1
		c-0.3,0.9,0,1.1,0.1,1.3c0,0,0.2,1.2,0,1.5s-0.4,0.6-0.6,0.7C535.3,14.3,534.9,14.4,534.9,14.4z"/>
</g>
<g id="frame-13">
	<path class="st0" d="M542.6,5.7c2-0.3,3.6-0.8,3.7-1.2c0.7,0,1.6,0,2,0c0.5,0.3,2.6,0.4,3.5,0c0.7,0,1.6,0,2.3,0
		c2.6,1,4.1-0.3,4.1-2.3c0.4-0.3,1,0,1.2,0c-0.9,0.2-1,0-1,0.7s-0.5,2.3-2.8,2.4c-2.4,0-3.9,2.1-4.2,2.4c0.3-0.7,1.1-2.6-1-2.7
		c-1.3,0.1-2.1-0.1-2.2-0.2c-0.7,0-1.4,0-1.7,0C546.2,5,543.5,5.8,542.6,5.7z"/>
	<path class="st0" d="M561.8,4.7c-0.4,0-0.8-0.3-1-0.6c-0.4,0-1-0.6-1.2-1.1l0,0c0.3,0.6,1.1,0.9,1.3,0.9l0.1,0l0,0.1
		c0.1,0.3,0.5,0.6,0.9,0.6c0.4,0,0.7-0.5,0.9-1.3l0,0C562.6,4.5,562.2,4.7,561.8,4.7C561.9,4.7,561.8,4.7,561.8,4.7z"/>
	<path class="st0" d="M564.2,2.5c-0.3-0.2-0.6-0.6-0.7-0.9c-0.1,0.1-0.3,0.1-0.3,0.2c0,0.1-0.2,0.3-0.2,0.3l0,0c0-0.1,0-0.2,0-0.4
		c0.1-0.2,0.4-0.4,0.5-0.5l0.1,0v0.1c0,0.1,0.2,0.5,0.6,0.9c0.4,0.3,0.7,0.5,0.9,0.5c0,0,0,0,0,0c0.3-0.2,0.6-0.6,0.9-0.9
		c0.4-0.4,0.7-0.7,0.9-0.9c0.5-0.3,1.1-0.1,1.2-0.1l0.1,0.1c0,0.2,0.1,0.4,0.3,0.5c0.3,0.1,0.7,0,0.8-0.1c0.3-0.3,1.6,0,2,0.2l0,0
		c-0.6-0.2-1.7-0.2-1.9,0c-0.2,0.1-0.7,0.3-1,0.1c-0.2-0.1-0.4-0.2-0.4-0.5c-0.2,0-0.6-0.1-0.9,0c-0.2,0.1-0.5,0.6-0.8,1
		c-0.3,0.4-1,1-1,1C565.3,3.2,564.3,2.6,564.2,2.5z"/>
	<path class="st0" d="M578.4,4.5c-0.3-0.2-0.6-0.4-1-1.3c-0.2-0.5-0.8-0.7-1.3-0.9c-0.3-0.1-0.6-0.2-0.6-0.4l0,0
		c0,0.1,0.5,0.1,0.7,0.2c0.5,0.2,1.1,0.4,1.4,1C578,4,578.2,4.4,578.4,4.5L578.4,4.5z"/>
	<path class="st0" d="M580.6,8.3L580.6,8.3l0-0.4c0-0.2,0.2-0.8-0.2-1.2l0,0c0.4,0.5,0.4,1,0.4,1.2L580.6,8.3z"/>
	<path class="st0" d="M579.7,15.1L579.7,15.1c0.2-0.1,0.6-1.3,0.5-1.6l-0.1-0.1l0.1,0c0.2,0,0.7-1.2,0.6-1.8l0,0
		c0.1,0.6-0.1,1.7-0.4,1.9C580.5,14,580,15,579.7,15.1z"/>
	<path class="st0" d="M564.1,17.4c-0.7-1.8-1.5-3.3-3.8-2.6s-0.6,2.6,1.6,2.3c2.2-0.3,2.8,2,2.8,2.4c0,0.3-0.5,3,0.6,2.9
		c0.9-0.2,0.6-1.1,0.6-1.3c0.6,0.2,2.2,1,2.8,3.6c0.6,2.6-0.6,4.4-0.7,4.5c-0.1,0.1-1.6,1.6-1.9,1.7c-0.9,0.1-3.8,0.5-4.7,0.1
		c-0.9-0.5-3.3-0.7-4-0.7c1.6,0.3,3.6,0.7,3.9,0.9c0.4,0.2,4.5,0.1,5-0.1c0.5-0.2,1.8-1.7,1.9-1.9c0.1-0.2,1.4-2.4,0.9-4.5
		c1.6,1.4,1.9,1.7,2.1,2.1c0.6,0.3,2,1.9,2.1,2.1c1-0.2,2.3-1.1,2.4-1.3c0.1-0.6,0.4-1.7,1.1-1.9c-0.9,0.1-1.2,1.6-1.3,1.9
		c-0.7,0.4-1.9,0.9-2.1,1c-0.5-0.6-1.8-2-2.1-2c-0.5-0.8-2.5-2.3-2.6-2.6s-1.1-1.9,0.6-2.5c0.9-0.4,1.6-0.6,1.8-0.6
		c0.4,0.9,1.3,1.8,1.6,2c0.2,0.5,0.5,1.2,0.5,1.3c0.5-0.2,2.1-0.6,2.3-0.6c0.3,0.4,1.3,0.3,2.1-0.3c0.3-0.3,0.5-0.5,0.8-0.5
		c-0.9,0.1-1.1,0.5-1.2,0.6c-0.1,0-1,0.4-1.7,0.1c-0.8,0-2,0.4-2.2,0.4c-0.3-0.7-0.4-1.1-0.5-1.2c-0.4-0.5-1.4-1.6-1.4-1.9
		c0.4-0.4,1.5-0.9,2.9-0.4c0.8,0.1,2.9-1.4,3.2-1.6c0.4,0,1.5-2.4,1.6-2.7c-0.4,0.7-1.3,2.4-1.8,2.6c-0.6,0.4-2.7,1.4-2.9,1.5
		c-0.4-0.3-1.9-0.6-3.3,0.4c-1.9,0.7-4.3,0.5-4.6,0.3C566.2,20.7,564.8,19.2,564.1,17.4z"/>
</g>
<g id="frame-14">
	<path class="st0" d="M602.1,7.9c-1.4-0.6-3.7-1-4.9-0.6c2.4-4.9-9.3-3.2-9.1,3.2c0.4,4,1.9,7,2.9,7.9c4.5,13.3,13.9,19.1,19.3,20.1
		c3-2.9,6.3-6.5,6.5-6.8c0.8,0.1,6.4,5.6,7.1,6.8c1.3,0.6,3.3,1,3.6,0.9c0.3-1.3,1.6-2.2,1.9-2.4c0.2-1.6-0.3-3.2-0.6-3.2
		c-0.4,0.4-0.5,1.3-1,1.3s-3.3-3.6-3.9-6.8c-0.7-3.2-0.4-4.2-1.4-3.2s-2.4,4.2-4.1,3.9c-1.7-0.3-4.6-5.3-5.5-6.9
		c-0.9-0.8-2.4-1.3-2.4-3.2c-1-1.8-1.8-2.8-2.4-2.8c-0.6,0-1.5,0.5-2.8,0.4c-1.3-0.2-2.9-0.9-1-2s3.5-0.3,3.9,0.7
		c0.1,0.3,0.3,0.8,0.6,1c0.3,0.2,1.9,2.6,2,2.9c0.2-0.5,0.3-1.3,0-1.5c0.4,0.3,0.1,1.8,0.1,2c0,0.2,1.6,2.9,6.8,0
		c1.9,0.4,3,0.7,3.9-0.4c0.7-0.1,1.3-0.6,1.4-0.9c-0.3,0.7-1.2,1.1-1.3,1.1c-0.4,0.5-1.1,1.2-3.9,0.4c-1.8,1.3-3.1,1.4-3.6,1.4
		c-0.4,0.1-1,0.7-0.1,2.2c0.9,1.4,3,5,4.4,4.9c1.5-0.1,3.3-2.8,4.2-4.9c0.4-0.7,0.9-2,1.1-1.8c0.2,0.2-1.4,8.3,4,12.2
		c0.4,0.2,0.7-0.3,0.8-1.6c0.5,0.1,1.2,2.8,1,4.7c-0.9,0.4-1.8,1.9-1.9,2.8c-1.2,0.2-3.7-0.9-4-1.1c-1.2-1.6-4.8-5.3-6.8-5.3
		c-2,0-5.8,4.9-6.2,5.4c-4.8-1-9.8-4.5-10.9-5.2c-4.5-3.9-9.1-13.3-10.8-14.3c-0.4-1.8-2.9-9.3-3.6-10.3c1.4-1.4,3.5-3.9,3.6-4.9
		c1-1.5,2-2.3,2.4-2.4c1.1,1.3,6.6,2,7.7,2s3.9,1,4,0.7c0.1-0.3-0.7-1.7,0.1-2.5c0,1,0,1.9,0.3,2.4c0.3,0.5-0.3,0.6-0.7,0.6
		C602.5,4.9,601.3,5,602.1,7.9z"/>
	<path class="st0" d="M607.1,4.9c-0.1,0-0.1,0-0.2,0c-0.3-0.1-0.8-0.3-0.9-0.7l0,0c0.1,0.2,0.6,0.4,0.9,0.5c0.2,0,0.3,0,0.4,0
		c-0.1-0.3-0.2-0.4-0.2-0.6c0-0.1,0.1-0.2,0.3-0.3l0,0c-0.1,0,0,0.3,0,0.3c0,0.1,0.1,0.3,0.2,0.5l0,0.1l-0.1,0.1
		C607.5,4.9,607.3,4.9,607.1,4.9z"/>
	<path class="st0" d="M609.3,2.3c-0.2,0-0.3-0.2-0.3-0.3c-0.2-0.3-0.4-0.5-0.5-0.5l0,0c-0.1,0-0.4,0-0.5,0.1l0,0
		c0.1-0.2,0.3-0.3,0.5-0.3l0,0c0.2,0,0.5,0.2,0.7,0.6c0.1,0.1,0.1,0.1,0.1,0.1c0,0,0.3-0.2,0.3-0.4l0,0
		C609.6,1.9,609.3,2.3,609.3,2.3z"/>
	<path class="st0" d="M610.4,3.4c-0.2,0-0.4-0.1-0.5-0.3l0,0c0.1,0.1,0.4,0.1,0.6,0.1c0.3,0,0.6-0.3,0.8-1c0.3-1.1,0.5-1.5,1.3-1.6
		c0.5,0,0.9,0.5,1.2,0.9c0.1,0.1,0.2,0.3,0.3,0.3c0.2-0.3,0.5-0.4,0.8-0.4c0.1,0,0.3,0,0.4-0.1l0,0c-0.4,0.1-1,0.5-1.3,1
		c-0.1,0-0.2-0.4-0.4-0.7c-0.3-0.4-0.6-0.8-1-0.8c-0.7,0-0.7,0.3-1.1,1.4C611.3,2.9,610.5,3.4,610.4,3.4z"/>
</g>
<g id="frame-15">
	<path class="st0" d="M651.9,15.5c-1.4,0-0.9,0.3-1.8,0.7c-0.9,0.4-3.3,0.2-2.6-0.7C648.2,14.5,650.5,14,651.9,15.5z"/>
	<path class="st0" d="M647.5,9.8c-1-2.6-1-5.2,0.5-5.3c0.2-0.6,0-1.7,0-1.9c0,0.9-0.1,1.6-0.1,1.7c-0.8,0-2.9-0.6-3.3-0.9
		c3.8,2.9-4.7,0.8-7.2-0.8c-1.1,0.4-2.9,1.6-3.3,1.9c-1.2,1-3.1,4.1-3.2,4.7c0.2,2.5,2.9,8.8,3,9.4c0.8,0.7,3.5,5.5,4,6.4
		c0.4,0.9,5.2,7.7,7,8.6c1.8,0.9,2.2,1.6,2.4,1.8c0.8,0.3,6.2,3.5,7.1,3.6c1.6-0.5,3.9-2.7,4-2.9c0.7-1.4,2.6-3.3,3.6-3.3
		c1.6,0,6.1,5.1,7.2,6.7c0.7,0.1,1.2,0.2,1.3,0.3c0.5-0.2,1.8-0.3,2.2,0c0.3-0.8,0.5-2.8,2.2-2.8c-0.4-2.3-1.1-4.9-1.5-5
		c-0.4-0.1-0.4,1.8-0.5,2.2c-0.1,0.4-0.8,0.8-1.8-0.9c-1-1.6-2.2-2.6-2-9.4c0-1.3,0.1-2.9-0.9-1s-2.9,6-4.5,6.1
		c-1.6,0.1-5.3-6.2-5.4-6.6c-0.1-0.4,0.3-1,1.4-1c0.3-0.7,0.8-1,1.8-0.6c0.1,0.3,0.1,0.6,0.6,0.6c-0.1-0.3-0.5-0.5-0.6-0.9
		c-0.4-0.3-1.6,0-1.7,0.1c-0.2,0.5-0.6,0.6-1,0.6c-0.9,0.5-4.7-0.8-2-4.3c-0.9,0.3-1.2,2.2-1.3,2.4c0.1,0.6,0.2,1.4,0.3,1.5
		c0.6,0.1,1.7,0.1,3.5,3.6c1.1,1.5,2.6,3.5,3,4c0.4,0.5,1.5,1.7,2.7,0.1s2.9-4.4,3-4.7c0.1-0.3,0.9-1.2,0.8,0.3
		c0,1.4-0.3,7.3,2.8,10.3c0.6,1,1.4,1.1,1.6-0.3c0.1-1.4,0.2-2.2,0.9,0c0.7,2.3,0.6,2.4,0.6,2.5c-0.7,0.1-1.7,0.6-2,2.7
		c-2,0.1-3-0.1-3.3-0.2c-2.1-2.7-6.8-7.7-7.4-7.8c-1.4,0.8-3.7,4.3-3.8,4.5c-0.4,0.4-2.9,2.7-3.8,2.8c-2.5-1.2-6.8-3.6-7-3.6
		c-0.9-0.8-2-1.5-2.4-1.9c-4.4-4.3-6.7-8-9.3-14.3c-4.2-5.2-6.1-17.1,4.3-13c3.2,0.2,3.9,1.6,4.1,1.8C645.1,7.7,646.6,9,647.5,9.8z"
		/>
</g>
<g id="frame-16">
	<path class="st0" d="M703.5,21.6c-1.2,0-2.7-0.6-2.7-1.3c-0.5-0.8,0-1.4,0.3-1.6c0.1-0.7,0.1-1.6,1-1.5c-0.6-0.3-0.9-0.1-1,0.1
		c-0.1,0.2-0.1,1.1-0.2,1.2c-0.1,0.1-0.7,0.6-0.6,1.2c0.1,0.6,0.3,1.6,1.3,1.8c1,0.3,1.6,0.8,1.7,1.2C703,21.9,703,21.8,703.5,21.6z
		"/>
	<path class="st0" d="M694.3,14.8c-1.1,0-2.2,1.1-2.1,1.4c0.1,0.3,1.9,0.3,2.5-0.1C695.3,15.7,695.8,14.8,694.3,14.8z"/>
	<path class="st0" d="M694.4,22.8c-0.8-1.4-1.6-1.8-2-0.8c-0.4,1-0.1,2.9,1.5,3.5c1.6,0.7,2.3,0,1.6-1.2
		C694.8,23.4,694.6,23.2,694.4,22.8z"/>
</g>
<g id="frame-17">
	<path class="st0" d="M739.1,14.8c-0.8,0-2.5,1.1-2.6,1.7s1.3,0.1,2-0.2C739.1,16,740.7,14.8,739.1,14.8z"/>
	<path class="st0" d="M744.3,39.2l-0.2-0.3h-0.6l-1.2-0.7l1.2,0.5h0.6l0.2,0.3c0.2,0,1.3-0.7,1.3-0.7
		C745.4,39.1,744.3,39.2,744.3,39.2z"/>
	<polygon class="st0" points="746.2,38 746.2,37.5 746.7,37.5 746.9,37.2 746.7,37.7 746.4,37.7 	"/>
	<path class="st0" d="M748.1,36.4l0.5-0.4l0.1-0.5l0,0l0.4-0.7c0.1,0.6-0.1,0.8-0.3,0.9v0.5L748.1,36.4z"/>
	<polygon class="st0" points="756.3,36 755.9,36.2 755.6,35.4 752.7,32.8 752.7,32.3 752.1,31.9 751.7,32.5 750.3,33.6 751.5,32.4 
		752,31.3 753,32.3 753,32.7 755.8,35.3 756,35.9 756.3,35.6 757.5,37 	"/>
	<polygon class="st0" points="762.6,40.3 761.9,39.9 760.4,39.9 760,39.5 759.1,39.6 758.4,38.9 758.5,38.5 758.4,38.2 758.8,38.4 
		758.6,38.8 759.2,39.3 760.1,39.3 760.5,39.6 762,39.6 762.7,40 763,40 762.6,39.2 763.1,38.4 763.6,37.4 764.3,37.4 763.7,37.6 
		763.2,38.5 762.9,39.2 763.3,40.1 	"/>
	<path class="st0" d="M763.8,34.3l-0.3-1.7c0-0.2-0.1-0.3-0.1-0.3c0,0.1-0.1,0.3-0.1,0.7v0.2c0,0.7,0,1.5-0.4,1.9
		c-0.1,0.1-0.3,0.2-0.5,0.2c-0.9,0-1.9-2-2.1-2.6c-0.1-0.4-0.6-1.3-0.6-1.5l-0.7-0.5l0.2-1.2v1.1l0.6,0.4c0,0,0.5,1.1,0.7,1.6
		c0.2,0.6,1.1,2.3,1.9,2.3c0.1,0,0.3,0,0.4-0.1c0.3-0.3,0.3-1,0.3-1.6V33c0-0.4,0.1-1,0.3-1c0.1,0,0.3,0.2,0.3,0.5l0.3,1.7l0.8,1.7
		L763.8,34.3z"/>
	<path class="st0" d="M759.1,21.8c-0.2-0.1-0.7,0.3-1.8,2.4c-0.3,0.6-0.6,1.2-0.9,1.8c-0.8,1.7-1.6,3.1-2.6,3.2
		c-0.4,0.1-0.8,0.1-1.3-0.4c-0.8-0.7-1.6-1.6-2.3-2.8c1.1,0.1,1.9,0.2,2.2,0.3c1.8-1.6,5.2-7,5.3-8.6c-1.6-0.4-7.1-2.9-8-3.6
		c-1.9,1.3-6.2,3.1-6.7,3.3c-0.3-0.2-0.6-0.3-0.9-0.3c-0.5,0.2-1.9,1-2.2,1.1s-1.1,2-1.3,2.2c-0.5-0.3-1.9-0.1-2.1,0.2
		c-0.7,0.1-2.3,0.1-2.6,0.1c-0.4-0.3-1-0.6-1.1-0.9c-0.8,0.7-3.2,2.2-6.4,1.6c-2.9-4.9-4.5-10.2-4.5-11.8s2.3-5.4,5.4-5.3
		c2.3,0.1,2.6,0.8,2.7,1.1c2.3-0.1,5.4,1.3,8.5,6.5c-1.7-3.7-1.7-6.5-0.7-7.7c-0.7,0.3-1.2,0.3-1.3,0.3c1.5,2.3-4.5,1-8.4-1
		c-1.1,0.1-4,1.3-4.2,1.5c-0.2,0.2-2.6,3.8-2.6,4.6c0,0.8,2.2,8.1,4.7,11.9c-0.4,0.6-4.2,6.3-4.4,6.7c1.2,0,7.9,3.7,9.9,3.7
		c0.3,0,0.8-0.1,1.3-0.4c1,1,2.2,2,2.9,2.4c0.9,0.7,1.5,0.9,1.6,0.9l0.9,0.9l2.1,1.2l-1.9-1.4l-0.9-1h0c0,0-0.6-0.3-1.6-1
		c-0.6-0.5-1.8-1.4-2.8-2.3c2.4-1.1,5.9-3.7,6.3-4.1c0.7,0.2,1.7-0.4,2-0.8c1.8-0.7,5.9-0.7,8.6-0.4c0.8,1.2,1.6,2.2,2.4,3
		c0.5,0.4,0.9,0.6,1.3,0.6c0.1,0,0.2,0,0.3,0c1-0.2,1.8-1.7,2.6-3.5c0.3-0.6,0.6-1.2,0.9-1.7c1.2-2.2,1.4-2,1.4-2c0,0,0.2,0.1,0.1,1
		c-0.2,1.3,0,5.2,0,5.2c0-0.5,0-3.9,0.2-5.2C759.4,22.2,759.3,21.9,759.1,21.8z M725.2,25.7c0.4-1,1.1-1.8,2-2.3l0.2,0.5
		c0,0,0.8,0.6,0.9,1.1l0.1,0.2c0.3,0.7,0.5,1.3,0.7,1.4c0.1,0.1,0.5,0.7,0.6,1v0.6c0,0,0.8,0.7,1.5,1.6
		C728.7,29.3,725.1,27.5,725.2,25.7z M732.2,29.8c-0.2,0-0.4,0-0.6,0c-0.6-0.9-1.3-1.5-1.6-1.7l0-0.6c0-0.1-0.5-0.9-0.7-1.1
		c-0.1-0.1-0.4-0.9-0.6-1.4c0,0-1-1.3-1.1-1.4l-0.1-0.3c1.3-0.7,2.9-1,4-0.9c1.4-1.1,4-0.9,4.6-0.7c-0.6,2,0.4,4.7,2.3,5.4
		C736.5,28.3,734.8,29.9,732.2,29.8z M748.2,25.4c-1.4,0-3.8-0.2-6.7,0.3c0.1-1.8-0.7-4-2.5-5.1c0.2-0.4,0.9-1.8,1-2
		c0.1-0.2,1-0.6,1.8-1c0.7-0.4,0.9-0.1,1.3,0c0.2-0.1,0.9-0.4,1.4-0.6c2.8-1.4,5.5-1.9,9.1-0.5s2.8,2.8,1.4,5.6
		c-1,2.1-3.6,2.9-5.4,3.1c-0.3-0.5-0.6-1-0.8-1.5c-0.1-0.2-0.2-0.4-0.2-0.5c-0.1-0.4-0.3-0.9-0.5-1.3l0.4,0.1l0.6-0.6l-0.7,0.4
		l-0.5-0.3c0,0-0.6-0.1-0.9-0.1c-0.5-0.1-1.1-0.1-1.1-0.5c-0.1-0.7,0-1.6,0-1.6l-0.4-0.3l0.3-0.1c0,0,0.3-0.1,0.4-0.5
		c0-0.1,0-0.2,0.1-0.4c0.1-0.4,0.1-1.1,0.4-1.3c0,0,0.1,0,0.1,0c0.2,0.5,0.7,0.8,1.1,0.7c0.1,0,0.1-0.1,0.2-0.1
		c0.1-0.2,0-0.4-0.1-0.7c-0.1-0.2-0.1-0.4-0.1-0.5c0,0-0.1,0.3-0.1,0.5c0.1,0.2,0.1,0.4,0.1,0.5c0,0,0,0,0,0
		c-0.3,0.1-0.7-0.2-0.9-0.6l-0.1-0.1c-0.1,0-0.3,0-0.4,0.1c-0.3,0.2-0.4,1-0.5,1.4c0,0.1,0,0.3-0.1,0.3c-0.1,0.2-0.2,0.3-0.3,0.3
		h-0.9l0.9,0.7c0,0.2-0.1,0.9,0,1.5c0.1,0.5,0.7,0.6,1.3,0.7c0.3,0,0.5,0.2,0.7,0.3c0.4,0.2,1,1.8,1.1,1.9c0.3,0.5,0.5,1,0.8,1.4
		C749,25.4,748.6,25.4,748.2,25.4z"/>
</g>
<g id="frame-18">
	<path class="st0" d="M783.5,15c0.6-0.1,0.3,0.9-0.8,1.6c-1.1,0.7-1.8,0.4-1.6,0C781.3,16.2,782.4,15.3,783.5,15z"/>
	<g>
		<path class="st0" d="M795.3,12.4c-1.9,2.4-9.8,5.6-10,5.6s-2.2-1.3-2.3-1.3c-0.1,0-0.2,1.5-0.2,2.6c-1.8-0.3-3.1,0.6-3.3,1.8
			c-0.2-0.1-0.6-0.5-1.2-0.8c-1.1,1.9-4.6,2-6.6,1.9c-1.1-1.9-2.4-4.3-2.6-4.7c-0.2-0.5-2.4-6.9-2.3-7.8c0.1-0.9,1.6-3.7,2.3-4.1
			c0.7-0.4,3.3-1.6,3.9-1.4c0.6,0.1,2.1,1,3.2,1.3c1,0.3,5.6,1.4,7,7.4c0.6,0.4,1.9,0.5,1.9,0.5c-2.2-1.8-3.7-4.6-2.9-8.2
			c-0.5,1.4-1.2,2.3-2.7,0.7c-1.4-0.1-5.2-1.4-6.2-2.1c-1.2-0.1-4,1.2-4.3,1.4c-1,0.8-2.4,3.6-2.5,4.5c-0.1,0.8,2.1,7.5,2.3,7.9
			c0.1,0.3,1.6,2.7,2.6,4.6c-0.2,0-0.4,0-0.5,0c-0.1,0.3-2.3,3.9-3.9,6.1c0.2,0.3,4.6,3.7,5.1,5.8c4.5,1.4,14.2,0.8,14.7,0.5
			c0.5-0.3,7.1-3.9,11.1-4.9c1-1.2,6.2-10.5,7-13.2C804.5,16.3,798.1,14.3,795.3,12.4z M796,26.6c-2.1,4-10.9,7.9-21.4,7.2
			c-3.3-1.8-3.7-2.8-3.9-3.2c-1.5-0.9-3.2-5.3,1.5-7.6c0.4,0.6,0.6,1,0.6,1.1c0.4,0.4,2.2,4.2,2.6,4.5c-0.6-1.3-2.5-4.5-2.5-4.8
			c-0.1-0.2-0.4-0.5-0.6-0.8c0.6-0.3,1.3-0.5,2.1-0.7c2.2-0.1,2.6-0.7,3-0.9c0.4-0.2,1.5-0.2,1.8,0.1c-0.4,4,3,7.1,5.6,7.2
			c2.6,0.1,3.8-3.9,2.3-6.4c-1.4-2.5-3.9-2.9-4-3c0-0.6,0-2.3,0-2.4c1,0.7,1.9,1.2,2.1,1.2c0.1,0,5.7-2.7,9.7-2.5
			C800.7,13.5,802.3,21.7,796,26.6z"/>
		<path class="st0" d="M782.2,5.1c0.1-0.3,0.2-0.6,0.3-1C782.3,4.5,782.3,4.8,782.2,5.1z"/>
	</g>
	<path class="st0" d="M793.8,23.8c-0.4-2-2.3-2.6-2.8-2.6l-0.1-0.1c0.1-0.4-0.4-0.9-0.4-0.9c0-0.3,0-0.7,0.1-1
		c0.1-0.7,0.3-0.8,0.3-0.8c0.1,0,0.2-0.3,0.2-0.4l-0.2-1.2l0.6-0.5l0.7,0.8l0.7,0.4v-0.8h-0.6l0.5-0.4l-0.1,0.2l0.3,0.1l0.1,1.3
		l-1.1-0.6l-0.6-0.7l-0.4,0.4l0.2,1.1v0c0,0.1-0.1,0.5-0.4,0.6c-0.1,0.1-0.3,1.1-0.2,1.6c0.3,0.3,0.4,0.6,0.4,0.9
		C792,21.1,793.5,22,793.8,23.8L793.8,23.8z"/>
</g>
<g id="frame-19">
	<path class="st0" d="M842.9,25.9c-1.3,2.5-5.8,4.9-9.9,2.9c4.5-1.9,1.9-9.8-2.1-10.7c1-0.2,2-0.4,2.3-0.6s2.4-1.3,2.8-1.4
		c0.4-0.1,1-0.3,1.7-0.7c0.6-0.4,1.1-1,1.4-1.1c-1.7,0.7-1.9,1.2-2.5,1.4c-0.6,0.2-1.4,0.3-1.8,0.6c-0.4,0.3-1.9,1.1-2.6,1.3
		c-0.7,0.2-2,0.5-2.4,0.5c-0.4-0.7-2.3-1.1-2.2-1.4c0.2-0.2,0.3-0.5,0.3-0.6c-0.3,0.2-0.8,0.3-0.9,0.1c-0.3-0.3-1.3,1.4-1.2,2.7
		c-0.7,0.3-1.3,1-1.7,1.8c-0.9,0.1-2.4,1.2-3,1.3c-0.6,0.1-3.5,0.6-3.8,0.5c0.3,0.3,3.6-0.2,3.9-0.3c0.3,0,2.5-1.2,2.8-1.2
		c-0.4,4.4,2.6,8.9,8.2,8.2c0.3,1.2,3.6,1.6,4.7,1.5c-0.6,0.7-1.1,0.7-1.2,0.8c-0.3,0.4-2.2,1.4-2.6,1.6c-0.9,0-2.6,0.3-2.9,0.4
		c-0.6,0.4-2.9,1-4.2,1.1c2.4,0.1,4.2-0.9,4.4-0.9s2.4-0.3,2.8-0.4c0.4,0,2.7-1.4,2.9-1.5c0.3-0.3,2-1.7,4.6-0.3
		c0.6-2.1,2.5-4.9,2.7-5.7c1.6-1.5,2.1-2.9,2.2-3.5C844.5,24,843.2,25.7,842.9,25.9z M826.5,18.4c-0.1-0.4,0.6-0.9,0.7-1
		c0,0.3,1,0.2,1.2,0.3c0.3,0.1,0.4,0.1,0.4,0.2C827.8,17.9,826.8,18.3,826.5,18.4z"/>
	<path class="st0" d="M831.4,13.8c-1.9,0-3.5-0.8-3.8-1.1c-0.4-2.7-1.3-5.7-3.9-6.6c-0.5,0.2-0.7-0.3-0.7-0.3c-0.4,0-1-0.2-1.4-0.3
		c-0.4-0.1-1.7-0.7-1.9-0.9c1.3,0.5,3,1,3.3,1s0.3,0.4,1,0.4c0.6,0,1.7,1.3,2.3,1.3c0.5,0,1-1.4,1-1.8
		C826.9,8.2,826.8,12.4,831.4,13.8z"/>
	<polygon class="st0" points="814.1,18.2 814.3,17.9 813.6,17 814.6,17.9 814.3,18.2 814.7,18.7 	"/>
	<polygon class="st0" points="813.4,15.2 813.2,14.9 812.9,14.9 812.7,13.5 812.3,13.4 812.3,12 811.7,10.9 811.3,10 811.7,9.1 
		812.4,7.6 813.3,7 813,6.4 813.5,6.1 813.8,5.2 814.5,4.8 815.5,5.1 816.5,4.2 817.3,4.2 817.9,3.7 818.8,3.7 819.4,4.5 818.7,3.9 
		818,4.1 817.3,4.4 816.6,4.6 815.6,5.4 814.6,5.3 814.2,5.4 813.7,6.3 813.3,6.5 813.5,7 812.8,7.7 811.9,9.2 811.7,10 811.9,10.8 
		812.5,11.9 812.5,13.3 812.9,13.4 813.1,14.7 813.4,14.7 	"/>
</g>
<g id="frame-20">
	<path class="st0" d="M895.1,15c-0.6-0.4-8.1-2.5-12.2-3.2c-0.2,0.2-3.2,3.4-4.5,4.7c-1.2-0.5-4.7-0.7-5.8-0.1
		c-0.2-0.2-0.5-0.6-1.8-1c-0.1,1.2-1.2,3.1-1.2,4.6c-0.1-0.1-0.5-0.5-0.9-0.7c-0.1,0.2-1.3,1.9-2.3,3c-0.2-0.1-2.7-1.1-5-0.8
		c-0.1,2.7-2.1,5.7-4.1,6.9c0.4,1.1,4.1,4.2,6.3,5.1c3.5-0.9,6.3-0.1,12.8,2.4c0.6,0,5.3-1.1,6.1-1.4c0.8-0.4,3.9-2.9,4.6-3.5
		c0.7-0.5,1.7-1,2.7-1.6c0.2-0.4,5.7-11.7,6-12.7C895.4,16.7,894.9,15.9,895.1,15z M871,20.8c0,0,0,0.1,0,0.1
		c0.1,0.3,0.5,0.5,0.6,0.6c-0.3,0.2-0.2,0.5,0,0.6c-0.5,0-0.7,0.3-0.8,0.4c0,0,0,0,0,0.1c0,0,0,0,0-0.1c0.2-0.4,0.2-1.2,0.1-1.6
		C871,20.9,871,20.9,871,20.8z M883.8,31.7c-0.6,0.7-5.4,3.2-9.7,2.7c-1.8-1.3-7.7-2.3-10.9-1.4c-1.5-0.5-4.5-2.7-5.1-4.5
		c1.8-0.9,3.6-3.6,3.3-5.6c0.7-0.4,2.9-0.9,5.2,0c1.7-2.6,2.8-0.8,2.6-0.4c-0.2,0.4-0.5,1.5,0.5,2.3c0,0.9,0.9,2,1.8,2.3
		c0.2,0.1,0.2,0.9,0.7,1.5c0.4,0.6,5.1,3.4,7,3.3c0.2-0.2,2.1-0.8,2.9-0.9C882.9,30.6,884.5,31,883.8,31.7z M889.5,24.3
		c-0.4,3.2-3.6,5-6,5.3c-4.4,4.3-9.1-0.3-9.5-0.7c-0.4-0.4-0.2-1-1.3-1.4c0.6,0,1.8-0.6,2.2-1.7c0,0.1,0.1,0.4,0.4,0.5
		c-0.5,1.1-0.2,2.8,2.8,3c3,0.2,7.2-6.2,1.4-12.1c0.7-0.5,3.1-2.4,5.2-1.3C890.7,13.3,893.8,19.8,889.5,24.3z"/>
	<path class="st0" d="M872.7,12.9c-0.5-3.1-0.8-5.7-5.5-7.4c2.8,0.5,3.7,1.6,3.7,1.8c0.4-0.1,0.9,0,1,0c0.3,1.6,0.5,6.1,3.7,6.1
		C874.2,13.5,873,13.1,872.7,12.9z"/>
</g>
<g id="frame-21">
	<path class="st0" d="M939.5,12.9c-0.6,0-3.7-0.8-4.6-1.9c-0.7-0.2-3.3-1.3-8.3-1.3c-0.3,1-1.7,4.1-3.2,6.1
		c-0.5-0.3-2.5-0.8-2.9-0.7c-0.4,0.2-0.1,1.6-1.5,2.1c-2.9-2.2-3.4-2.2-3.3,0c-0.2,0.2-0.9,2.1-1.1,4.7c-0.4,6-5,4.1-5.3,1.9
		c-0.4-0.2-1.3-0.7-2.7-3.4c0.5,6.9-2.8,8.6-4.1,8c0,3.8,1.4,4.7,5,5.9c4.7-4,9.2-2.4,12.4,2c2.6,0.3,8-1.2,10.8-2.7
		c0.9-0.7,5.2-4.9,6.2-5.3c0.2-0.4,3.6-8.4,4.1-12.4C940,15.8,939.5,13.9,939.5,12.9z M916.1,17.3c0-0.7,0.9-1.4,2.6,0.1
		c-0.6,0.6-2.7,0.8-2.8,0.6C915.8,17.6,915.9,17.3,916.1,17.3z M915.3,19.2c0.2,0.8,1.7,0.9,2.8,1c1.2,0,1.3,1.5,0,1.9
		c-1.3,0.5-2.6,0.8-2.8,1.4C914.9,22.5,915.1,20.3,915.3,19.2z M929.7,33.1c-2.5,1.6-5.3,2.8-9.6,2.7c-2.4-3.2-4.8-5-5.5-5.3
		c-2.2,0.3-6.2,2.5-7,3.2c-2.2-0.2-4.3-1.4-4.6-3.4c0.3-0.8,2.3-1.6,3-3.5s1.8-4.7,3.5-1.5c2.1,2,3,1.7,3.7,0.8
		c0.9-0.7,1.9-1.6,3.4,1c0.4,0.4,0.9,1.2,0.9,1.4c0.3,0.4,2.3,1.4,2.6,1.6c0.3,0.5,3,1.8,3.8,1.7c0.8,0,2.4-0.4,2.7-0.4
		c0.5-0.4,1.6-0.9,3-0.3C931.1,31.7,931.2,32.4,929.7,33.1z M936.6,22.8c-0.7,4.9-4.3,9.6-7.6,7c-1,1-1.5,0.9-1.8,0.9
		c-2,0.9-4.1,1.2-5.9-0.3c-0.7-0.6-2.8-1.5-3.5-2.1c-0.3-0.7-0.7-1.2-0.7-1.2c1.2,0.5,2.1-0.6,2.2-1.1c0.1-0.5,1.1-2.5,2.2-2
		c1.1,0.6,1,2,0,2.9c-1,0.9-1,2.5,1.3,2.3c2.3-0.1,5.5-2.5,5.8-4.5c-1.2-2.2-0.3-3.3-1.2-5c-0.9-1.7-2.6-3.5-3-3.6
		c2.3-2.2,4.1-2.2,4.7-1.9C933.1,11.7,941,15.3,936.6,22.8z"/>
</g>
<g id="frame-22">
	<path class="st0" d="M971.6,9.9c3.1-0.4,4.9,0.4,5.3,0.7c-3.3-0.7-4.8-0.9-6.8,3.6s-4.3,5.3-4.6,5.3c-1.7-1.8-5.5-2.8-5.6,4.4
		c1.6-1.6,4.8-1.2,6.8-1.6c2-0.4,0.6-1.3-1.6-0.6c-2.2,0.7-3.9-0.8-4.1-1.2c2.9,1.1,6-0.2,7.1-2.5c1.1-2.3,2-2.9,2.5-3
		c3.9,2.7,3.6,7.3,3.3,8.5c-0.3,1.2-1.9,5.1-5,4.7c-3.1-0.4,0.4-3.3,0.2-4.4s-2.7-0.8-4.1,0.4c-1.4,1.3-1.7,2.6-2.6,2.7
		c-0.9,0.1-1.7-0.4-2-0.8c1.2,2,3,3.1,4.9,3.1c1.8,0.1,3.2,1.6,3.6,1.7c0.4,0.1,3.4,0.2,4.3-0.9c1.2,0.9,5.3,1.4,7.3-1.8
		c-3.5,5-6,5.7-6.8,5.9c2.3-1.5,3.2-2.2,3.2-2.7c-0.1-0.5-3.4-0.9-3.8-0.9c-1.6,0.7-3.9,0.8-4.6,0.7c-1.8-1.4-4.4-2.1-6.2-2
		c-2.6-1.4-2.5-2.2-2.7-2.5c-0.2-0.3-0.7-2.8-1.4-3.3c0.2-2.5,1.3-6,1.5-6.4c1.2,1.1,3.2,0.2,1.7-1.4c3.5,2.2,5.5,2.2,6.1,1.5
		c0.6-0.7,0.3-2.5,0-2.8c0.7-0.3,1.6,0,1.9,0.3C970.7,12.8,971.4,11.1,971.6,9.9z"/>
</g>
<g id="frame-23">
	<path class="st0" d="M1028.8,12.8c-0.4-0.8-1-1.2-3.4-4c-0.5,0.9-4.3,0.8-9.4,0.2c-0.1,5.4-4.2,9.3-5.5,7.6
		c-0.4,0.2-3.7,0.8-5.7,0.1c0.1,0.6,0.7,2-1.9,6.1c2.6,6.5-3.1,3.7-6.5-3c1.7,7.3-2.3,9.8-2.8,9.7c-0.5-0.1-0.6-1.7-0.9-1.7
		s-0.6,1.5-0.4,3.9c0.4,0.2,1.7,1.5,2,2.8c0.3,0,1.6,0.1,3.5,0c4.4-4.5,6.6-4.8,12.6,2.6c1.6,0.1,3.9-0.4,7.6-1.6
		c3.6-0.9,6.3-4.5,6.8-5.4c0.5-0.9,3.2-4.9,4.4-5.5c0.3-0.6,1.9-5.1,2.6-8.6C1031.3,15.6,1029.2,13.5,1028.8,12.8z M1022.1,32.3
		c-0.3,0.3-2.2,1.6-3.2,2.3c-1.1,0.7-5.7,2-6.6,2.1c-0.9,0.1-1.9-0.1-2-0.4s-4.4-5.6-6.4-6.7c-2,0.7-5.3,3.8-5.8,4.2
		c-0.4,0.4-0.6,0.4-0.9,0.5c-0.3,0.1-1.5,0.1-2,0s-0.9-0.3-0.9-0.6c0-0.3-1-1.9-1.8-2.2c0-3.3,0.3-2.7,0.6-2.1
		c0.3,0.6,0.2,1.8,1.7,0.4c1.5-1.4,2.4-4.2,2.4-5.9s0.2-2.1,1.1-0.7c3.2,4.5,4.6,3.9,5,3.7c0.4-0.2,1.1-0.1,1.3,0.2s2,2.6,3.5,2.7
		c3.3-1.1,4.6-0.9,6,2.1c3,0.9,4-0.9,4.6-1.7c0.5,0,2,1,2.8,1.7C1022.4,31.4,1022.4,32,1022.1,32.3z M1027.3,23.4
		c-1.4,4.5-3,6.8-4.3,7c-0.4,0.6-1.5,1.3-1.7,1.3c-0.3-0.6-2.2-1.8-2.7-1.9c-1,2.2-3,2.3-4.4,1.9c-0.4-1.8-1.8-2.9-1.9-3
		c-0.8-0.1-3.9,0.5-4.2,0.8c-2.5-1.2-3.9-3.2-3.8-5.9c0.1-2.8,1.2-3,1.8-1.6c0.1-3.9,4.2-3.4,5.8-2.4c1.6-3.8,2.7-3.5,3.1-3.5
		c0.6-2.4,6.9-3.9,8.4-3.4C1026.8,11.9,1032.6,16.1,1027.3,23.4z"/>
	<path class="st0" d="M1008.8,26.1c-1.9-0.4-2.1-1-2.5-1.4c-0.4-0.4-1.8,0.3-0.6,1.5C1006.6,27.1,1008.4,26.3,1008.8,26.1z"/>
</g>
<g id="frame-24">
	<path class="st0" d="M1072.7,11.4c-0.5-0.4-2.8-1.9-3.1-2.1c-1.1,0.5-7.1,0.6-7.6,0.6c-1.6,4.7-4.1,5.9-3.3-1.4
		c-2.4-3.5-5.5-6.5-5.8-6.9c0,2-4.2,5.2-4.2,7.7c0,1.7,2,6.4,2.6,7c-0.1,0.8-0.8,1.1-1.2,1.1c-0.3,0-0.7,0.7-0.8,1.6
		s-0.7,3.5-1.2,3.7c1.4,3.3-0.6,6-3.1,2.5c-2.7-4.3-4.4-7.2-3.9-3.9c1.9,5-2,11.1-2.6,7.5c-1.2-4.1-1.3,0.9-1.4,1.4
		c-0.1,0.6-0.9,1.3,0.3,1.6c1.2,0.3,1.6,2,1.6,2.5c1.2,0,1.9,0.3,2.2,0.5c1.9,0.4,2.2-1.5,5.2-3.6c1.4-1.1,2.8-1.1,4.4,0.8
		s1.8,1.9,1.8,2.3c1,0.6,3.1,2.5,3.2,2.8c1.2,0,2.9,1.2,3.9,2.5c1.1-2.8,2-3.8,2.3-3.9c1.2,0.3,1.8-0.8,2-0.9
		c1.8-0.3,5.1-3.5,6.5-5.6c1.4-2.2,3.2-5,3.6-5.3c0.7-2.4,2.4-7,2.3-7.4C1076.5,16,1073.2,11.9,1072.7,11.4z M1072.8,23.8
		c-2.9,5.9-3.5,7.1-5.4,7c-0.5,0.6-1.4,1.3-1.7,0.1c-0.7-0.6-1.5-1.2-1.7-1.4c-0.7,0-1.1,1.8-2.2,2.2c1.1,0,1.7-1.7,1.9-1.7
		c0.3,0,1.5,0.8,1.6,1.1c0.1,0.3,0.5,1.5,2.1,0.1c0.7,0.2,0.1,0.9-0.2,1.1c-0.3,0.3-2.4,2.1-3.3,2.2c-0.8,0.5-1.2,0.9-2.2,0.8
		c-1.7,2.6-2.7,3.6-5.5,0.2c-2.9-3.4-3-5.8-2.5-10.6c0.1-3.2-0.4-4.3-0.5-4.5c0.3,3-0.3,9.4-1.1,10.6c0.8,1.4,3.4,4.7,4,5.2
		c0.6,0.5,0.8,1,0,0.6c-0.8-0.4-2.7-2.5-3.1-2.6c-1-1-3.9-4.7-4.4-4.9c-1.4,0.6-5.7,4.5-5.9,4.9c-0.9,0.3-1.4,0.3-2.2,0
		c-0.7-0.3-1,0.1-1.3-0.8s-1.3-2.2-1.8-2.2c0.3-1.1,0.3-3.4,0.4-3.4c0.5,0,0.6,2.6,1.2,2.7c1.1-0.2,3.4-2.5,2.9-7.2
		c-0.7-4.2,0.1-1.9,2.4,1.2c2.2,3.1,3.6,3.5,4.5,1.9c1-1.6-0.2-3.4-0.1-3.7c0.1-0.3,0.9-2.1,1.2-2.7c0.4-0.6,1.6-1.9,2.6-1.9
		c-0.7-1.6-0.3-1.9-0.1-2.1c-3.9-5.1,0-10.2,1.7-10.4c1.7-0.2,3.7,3.7,3.7,5.6s-0.1,4,1.4,4.8c2.9-3.7,6.3-5.2,8.2-4.6
		C1073.2,10.4,1078.2,16.9,1072.8,23.8z"/>
</g>
<g id="frame-25">
	<path class="st0" d="M1113.5,30.4c-0.4,0-0.8,0.2-0.9,0.4c-0.2,0.6-1.3,1.6-2.3,0c-0.4-0.3-0.7-0.6-0.8-0.8
		c-0.3-0.1-0.6-0.2-0.7-0.5c-0.2,0.4-0.7,1.3-1,1.4c-0.8,1.4-1.5,1.2-1.7,1.2c-0.8,0.5-2,0.3-2.4-1.4c0-1.6-0.9-2.2-1.2-2.3
		c-0.6,0.2-1.2,0.3-1.5,0.3c-0.9,0.4-2.6,0.6-2.8,0.5c0-1.6,0.1-2.5,0.3-2.5c0.8,0.4,1.7,0.2,2,0.2c-1.2-0.1-2.1-0.4-2.2-0.5
		c-0.4,0.3-0.3,2.1-0.3,2.4c0,0.3-0.4,0.7-0.6,0.7s-2.7-2.5-3.4-4.5s-0.1-3.2,0-3.3c0.1-1.3,0.5-4.6,2.2-4.7c0.2-0.3,1-0.7,1.7-0.9
		c-2,0.4-2.7,0.4-3.3,0.4c-0.9,0.8-1.4,3.9-1.4,4.2c0.3,0.9,0.2,3.3-0.3,0.7c-0.5-2.7-1.7-6.3-1.4-10.3c0.3-4,0.3-5.3,3-6.5
		c2.7-1.2,3.6-1.8,5.8,0.9s2.5,4.5,2.5,5.7s0.4,3.6,0.2,3.9c0.5-0.1,1.8,0.3,2.1,0.8c-0.1-1,1.1-4.8,8.6-5.6c-1.1,0-5.6,0.2-6.4,0.3
		c-2.1,4.9-5,7.5-3.9-2.3c-1.8-2.2-5.2-5.5-5.3-6.1c-2,1.4-3.7,2.6-5.9,2.4c-1.2,2-2.3,10.1-1.7,13.7c1.6,2.6,2.8,7.8,2.8,8.2
		c-0.4,0.9-1.4,1.5-4.2-2.4c1,2.1,3.3,4.5,4.4,2.9c0.3,1.4,0.4,2.2,0.4,2.3c-1.3,0.6-3.4,2.4-3.7,2.9c2.2-1.7,3.3-2.2,3.6-2.2
		c0.5,1,10.7,11.6,11.9,12.1c1.4-1.2,1.8-3.5,2.2-4.3s2.5-3.3,3.6-4c1.2-0.7,4.7-5.4,5-6.3C1115,29.5,1114.5,30.3,1113.5,30.4z
		 M1113.1,31.6c-0.8,1.1-1.6,1.9-2.1,2.1s-1.3,0.5-1.8,0.9c-0.5,0.4-1.4,0.6-1.9,0.9c-1.2,2.1-4,3-10-5.4c0.6-0.4,1.6-0.6,2-0.5
		c1.8-0.9,3.5-0.9,4.2,0.9c0.7,1.8,0.9,2.1,2,2.2s2.4-1.3,2.5-1.6c0.9-0.8,0.7-1.3,1.4-0.9c0.6,0.4,1.4,1.7,1.9,1.7
		c0.4,0,1.2-0.4,1.6-0.9C1113.1,30.4,1113.9,30.5,1113.1,31.6z"/>
</g>
<g id="frame-26">
	<path class="st0" d="M1152.2,10.4c3,0.3,6-0.3,6.8-0.4c1.9,0.5,3.6,1.6,4.1,2c0.5,0.4,2.8,3.5,2.9,4.4c-0.3,3.1-2.2,8.8-4.9,11.4
		c-0.4,1.3-3.7,5.2-4.6,5.7c-1.4,1.1-2.8,1.6-3.3,1.7c2.1-1.1,4.3-2.6,5.5-4.4c0.1-0.3,0.1-0.5-0.3-0.3c-0.4,0.2-1.6,1.4-1.6,1.4
		l-1,0.1l1-0.3c0,0,1.4-1.7,2.5-1.7c1.3-1.6,1.6-2.2,1.7-2.4c1.6-1.9,5-7.8,4.7-11.1c-1.4-3-3.2-5.5-6.4-6c-1.9,0.2-1.9,0.5-2,0.5
		c-0.9-0.4-4.3-0.6-6.8,3.8c-0.2,0.4,0,1,0,1.1c-0.7,0.1-2.2-0.5-2.4-3.3c0.2-1.6,0.1-1.8,0-2.1c0.3-0.7,0-2.4-0.2-2.6
		c-1.8-1-2.6-3.1-2.5-3.4c0.9,1.5,1.8,2.8,2.6,3.2c0.6,0.8,0.6,2.4,0.4,2.8c0.2,0.8-0.1,1.6,0,2.3c0.1,0.7,1,1.8,1.6,1.9
		C1151.1,13.2,1152.2,11,1152.2,10.4z"/>
	<path class="st0" d="M1139.8,16.5c-2.3,4.2-1.4,8.5-1.2,9.3c-0.4,1.2-1.9,1.1-2.3,0.8c0.8,1.1,2.4,0.3,2.6,0
		c0.7,1.1,2.7,3.2,3.3,3.3c1.1,0,1.6-0.2,1.7-0.3c-1.5,0-1.5,0.1-1.8,0c-0.3-0.1-3-2.7-3.3-4.1c-0.3-1.4-0.4-7.5,2.2-9
		C1140.4,16.5,1140.1,16.3,1139.8,16.5z"/>
	<path class="st0" d="M1148.8,32.1L1148.8,32.1c0-0.6-0.9-2.8-1.1-3.2c-1.1,0.2-2.7,0.2-2.7,0.2c0.1,0,2.2-0.4,2.8-0.5l0.1,0.1
		c0,0.1,1.1,2.7,1.1,3.4c0.3,0.3,1.1,0.4,1.3,0.4c0.1-0.1,0.7-0.7,1.2-0.7c0.4,0,1.2-0.2,1.4-0.2l0.3-1.4l0.9-0.8l0.8,0.9l0.6,0.5
		l-0.7-0.3l-0.6-0.6l-0.7,0.5l-0.4,1.5c0,0-1,0.2-1.5,0.3c-0.5,0-1.1,0.6-1.1,0.6L1148.8,32.1z"/>
	<polygon class="st0" points="1149.9,36.2 1150.8,36 1151.6,35.1 1152.2,35.4 1151.7,35.4 1150.9,36.2 	"/>
	<path class="st0" d="M1146.2,37.3C1146.2,37.3,1146.2,37.3,1146.2,37.3c0,0-2.2-1.9-2.2-1.9c0,0,1,1,2.2,1.7c0.5,0,2-0.4,2-0.4
		C1148.3,36.7,1146.8,37.3,1146.2,37.3z"/>
	<polygon class="st0" points="1141.2,32.8 1140.8,31.5 1138.5,29.7 1137,30.7 1136.2,31.6 1135.3,31.8 1134,33 1135.2,31.7 
		1136.1,31.4 1136.9,30.5 1138.6,29.1 1141,31.4 1141.4,32.7 1143.1,34.4 	"/>
	<polygon class="st0" points="1129.5,35 1128.7,33.8 1128.7,32.8 1127.7,32 1128.9,32.8 1128.9,33.7 1129.5,34.6 1130.5,33.8 
		1131.2,34.3 1132.6,34.4 1133.5,33.8 1132.7,34.6 1131,34.6 1130.5,34.1 	"/>
	<path class="st0" d="M1126.9,30.5c0.3-0.4,0.7-2,0.9-2.8c0-0.2,0.1-0.3,0.1-0.4l0.1-0.3l0.1,0.3c0.1,0.3,0.2,0.7,0.3,1
		c0.3,0.9,0.5,1.7,0.9,1.7c0,0,0.2,0.2,0.4,0c0.9-0.8,2.2-3,2.2-3.5c0-0.7-0.2-4.5-0.6-5.6c-0.3-1-0.3-1.2-0.1-1.3
		c0.1,0,0.4-0.2,1.5,1.8c1.3,2.3,2.8,4.6,2.8,4.6c-0.3-0.2-1.8-2.4-3-4.5c-0.7-1.3-0.9-1.5-1-1.6c0,0.1-0.3,0.1,0,0.8
		c0.4,1.1,0.6,5,0.6,5.6c0,0.6-1.5,3-2.3,3.7c-0.2,0.2-0.4,0.3-0.5,0.3c-0.5,0-0.8-1-1.1-2.1c-0.1-0.2-0.1-0.4-0.2-0.7
		C1127.6,29,1126.9,30.5,1126.9,30.5z"/>
</g>
<g id="frame-27">
	<path class="st0" d="M1193.9,8.7c0,2.1-1,4.5-1.2,4.6c0.6,0.9,1.7,2,1.9,2.1c0.3-0.3,0.5-0.5,0.6-0.6c-0.6,1.3-1.5,2.9-1.6,3.3
		c-0.5-0.2-1.2-0.2-1.8,0c1.2-0.7,1.9-2.1,2.1-2.3c-0.3-0.9-1.2-2.4-1.8-2.6c0.7-1.1,1.1-3.9,0.7-4.6c-1.9-0.5-4.4-3.8-4.8-5.1
		c-0.3-0.4-0.9-0.7-1.7-0.5s-2.9,2-3.1,2.8c-0.3,2.2-0.2,3.6-0.2,4.2c-0.1,2-1.8,5.1-2.3,5.8c-0.3,3.8,0.5,7,1.1,8.3
		c0.7,1.3,3.5,7.8,7.1,9.8c4.5,5.4,7.8,4.8,8.6,1.4c2.9-0.8,4.9-3,5.8-4.6c0.6,0,1,0.1,1.1-0.2c0.1-0.3,0.9-2.2,0.9-3.2
		c0.6-0.2,1.4,0,1.7-1.4c1.9-3.5,3.6-7.9,3.4-9.4c-0.2-1.4-3.5-5.8-6.4-6c-2.6,0.2-4.2,0.5-4.3,0.7c-1.4-0.1-3.3,1.3-3.9,2.4
		c0.2-2,1.9-2.8,2.8-2.8c0.9,0,2.7-0.1,3.4-0.3c0.7-0.2,1.6-0.4,2-0.4c0.4,0,1.9,0.9,2.3,1.1c0.4,0.2,1.5,0.7,1.9,1
		c0.4,0.4,1.2,1.9,1.6,2.4c0.4,0.5,1.1,1.7,1.1,2.1c0,0.4-1.9,7.5-3.5,9.2c-0.1,1.8-1.8,1.5-1.8,1.6c0.1,0.7-0.7,3.5-1,3.5
		c-0.3,0.1-0.7-0.1-0.9,0c-0.2,0.1-2.6,4.3-3.3,4.4c-1.3,3.6-2.8,6.8-3,7.2c-0.6-0.5-1.6-0.3-1.9-0.2c-1.4-1.1-10.5-9.7-11.1-10.4
		c-0.6-0.7-1.8-4.2-2.2-5c-0.4-0.8-2-3.2-2.3-5c-0.3-1.8-0.4-5-0.5-5.4c0.7-2.1,3.3-4.9,3.2-6.8c0-2-0.1-3.9,0-4.1
		c1.3-1.4,3.7-3.6,5.1-3.4C1188.8,4.1,1191.1,7.6,1193.9,8.7z"/>
</g>
<g id="frame-28">
	<path class="st0" d="M1227,4.6c2,3.8,3.7,9-2.8,10.8c-0.7,6.7,1.8,11.9,2.3,12.5c0.6,0.6,3.5,5.5,3.7,6.5c2.2,2.7,10.6,8.6,11.2,9
		c0.5-0.9,2.5-0.4,2.9-0.2c0.5-2,1.9-3.3,2.3-3.6c0.4-1.3,2-6.5,2.1-7.3c0.1-0.8,0.6-1.8,2.1-1.1c0.4-0.9,0.3-1.7-0.2-1.8
		c0.2,0.6,0.2,1.2,0,1.4c-1.4-0.4-2.3,0.2-2.6,1.1c-0.2,1-2.6,3.2-3.6,3.3c0.8,3.2-2.9,7.7-8.6,1.4c-5.3-4.4-11.9-9.5-11.1-20.8
		c2.7-0.5,5.2-2.6,5.4-2.9c0.3-1.5-1.8-6.7-2.2-7.3c-0.4-0.6-0.2-2,0.4-2.4c0.5-0.4,2.5-2.1,3.5-0.5c0.4,2,3.8,5.1,4.5,5.6
		c0.7,0.5,1,2-1,1.9c-1.1,0.3-1.5,1.4-1.5,2c0.6,0.9,1.6,3.9,1.6,4.3c0.6,0.4,1.9,1.4,2,1.7c-1-0.1-1.8-0.9-1.8-1.1
		c-0.5,0-0.6,0.7-0.7,1c0.5,0.1,0.8,1.2,0.7,1.5c0.9-0.8,3.2,0.9,3.6,1.1c-1.2-2.2-0.4-4.2,1.2-5.7c0.6-0.4,0.6-1.4,0.6-1.6
		c0.4-1.2,1.9-2.5,2.5-2.5c-0.7-0.3-2.7,1.8-2.7,1.9c0,0.8,0,1.6-1.1,2.4c-0.7,0.4-0.9,1.2-1.1,1.4c-0.2,0.2-0.7,1.2-2.6-0.6
		c-0.4-1.8-1-2.7-1.3-3.1c-0.3-0.4-0.4-2.5,1.1-2.6c1.1,0.2,1.7-0.5,2-0.7c1.3-0.5,1.5,0,1,0.5c-0.6,1.1-1.2,2.7-0.9,3.3
		c0.1-1.7,1.8-3.9,2.3-4.2c-2.7-0.2-8.6-5.1-7.2-7c-1.1-0.7-2.6-0.9-2.9-0.8C1229,1.9,1227.7,3,1227,4.6z"/>
	<path class="st0" d="M1250.6,28.8c0,0,0-0.3,0.1-0.4l-0.6-0.5l0.4-1c0,0,1.7,0.2,1.8,0.1c0.4-0.4,0.2-0.8,0-0.9
		c-0.1-0.1,0.1-0.6,0.1-0.7c0.1-0.3,0.7-1.4,1.6-1.6c0.4-0.7,0.1-1.6,0.1-1.6l0.1,0c0.7-0.4,0.7-1.2,0.5-1.8v-0.1
		c0.3-1.1,0.5-1.5,0.6-1.6c-0.1-0.2-0.1-0.4,0-0.6c0.1-0.2,0.3-0.4,0.5-0.5c0.1-0.7-0.7-2.3-1.1-2.8c0,0,1.6,1.7,1.3,2.9
		c0,0-0.4,0.3-0.5,0.5c-0.1,0.1,0,0.3,0.1,0.4l0,0.1c-0.1,0-0.3,0.3-0.6,1.5c0.3,0.7,0.2,1.5-0.5,2c0.1,0.3,0.2,1-0.3,1.7l-0.1,0
		c-0.5,0-0.9,0.4-1.1,0.8c-0.4,0.5-0.5,1-0.5,1.1c0.1,0.1,0.5,0.8,0,1.3c-0.3,0.2-1.4,0-1.9-0.1l-0.3,0.7l0.6,0.5
		C1251,28.3,1250.6,28.8,1250.6,28.8z"/>
	<path class="st0" d="M1254,13.9c-0.5-0.4-0.8-1-0.8-1.3c-0.3-0.3-0.9-0.9-1.3-0.9h0c-0.5,0-1.4-0.7-1.6-0.8l-1-0.6h-1.5l-1,0.4
		c-1.4,0-2.9,0.1-3.1,0.2c0,0,2.6-0.4,3.1-0.4l1-0.4h1.6l1,0.7c0.3,0.2,1,0.8,1.4,0.8h0c0.5,0,1.1,0.5,1.5,1L1254,13.9z"/>
</g>
<g id="frame-29">
	<path class="st0" d="M1284.2,20.9c-1.5-1.7-1-3.1,0-3.8c0-0.9,1.3-2.2,1.6-2.5c0-1.1,0.1-1.9,0.8-2c0.6-0.7,1.4-1.6,2.9-1.6
		c0.6-0.2,1-0.3,1.1-0.3c-1.1-0.1-2.7,0.4-3.1,0.7s-0.9,0.8-1.1,1c-0.1,0.1-0.8,0.3-0.9,0.7c-0.1,0.4,0.1,1.2,0,1.4
		c0,0.1-0.6,1.1-0.9,1.1c-0.3,0-1-0.7-1.2-1.1c0.1,0.7,0.7,1.1,0.8,1.3c0.1,0.2,0,0.6-0.3,0.9c-0.3,0.3-0.9,1.1-1.3,1.1
		c-0.4,0-1.4-0.7-1.6-1.2c-0.2-0.5-0.6-1.7-1-2.3c-0.4-0.5-1.3-1.9-1.2-2.1c0.2-0.2,1.1-1.4,1.5-1.4c0.4,0,0.8,0.1,1,0
		c0.2-0.1,0.6-0.5,0.9-0.5c-0.4,0-0.8,0.4-1,0.4c-0.1,0-1.1-0.1-1.3,0c-0.2,0-1.5,1.4-1.5,1.6s1.3,2.2,1.4,2.3
		c0.1,0.2,0.9,2.2,0.9,2.4c0.6,0.5,1.6,1.3,1.7,1.8c0.1,0.5,0.1,1.4,0.4,1.6C1283.2,20.4,1283.8,20.8,1284.2,20.9z"/>
	<path class="st0" d="M1282.9,13c0-0.1,0.1-0.4,0.3-1.1v-1.3l0.7-0.7l1.1-0.6l-0.9,0.7l-0.6,0.6v1.2
		C1283.3,12.4,1282.9,13,1282.9,13z"/>
	<polygon class="st0" points="1298.4,12.4 1298.5,11.9 1297.8,11.9 1295.9,10.8 1294.5,10.6 1293,10.3 1291.3,10.4 1293,10.1 
		1294.5,10.4 1296,10.6 1297.8,11.7 1299,11.7 	"/>
	<polygon class="st0" points="1300.8,17.4 1300.9,16.6 1300.6,15.6 1299.9,15.6 1299.5,14.7 1300,15.4 1300.7,15.4 1301.1,16.6 	"/>
	<polygon class="st0" points="1297.9,27.5 1297.3,27.5 1297,27.1 1297.5,27.3 1297.8,27.3 1298.1,26.9 1297.4,26.6 1297,25.8 
		1297.2,24.7 1298,24.7 1298.4,24.2 1299.2,24.3 1299.3,24 1298.9,23.5 1299.1,22.5 1299.5,22.5 1299.8,22.3 1299.8,21.1 1300,22.4 
		1299.5,22.7 1299.3,22.7 1299.1,23.4 1299.6,23.9 1299.4,24.6 1298.5,24.4 1298.1,24.9 1297.4,24.9 1297.2,25.8 1297.6,26.4 
		1298.5,26.9 	"/>
	<path class="st0" d="M1290.1,35.1c1.9-0.9,2.8-1.8,3.1-3.3c0.3-1.6,2.6-0.8,3-1c0.4-0.2-0.3-1-0.6-1.3c-0.3-0.4-1.3-2.1-0.5-2.4
		c0.7-0.3,1.5,0,1.7,0.2c-0.8-0.2-1.7,0-1.7,0.4c0.1,1.1,1.6,2.7,1.5,3c-0.1,0.6-0.7,0.4-1.9,0.3c-1.3-0.1-1.5,2.4-1.5,3.2
		c0,0.8-1,2.5-1.1,2.7c-0.1,0.8-0.3,2.8-0.6,3c-0.8,0-2,2.1-1.9,2.7c0-1.3,1-2.8,1.7-3c0.3-0.9,0.2-2.1,0.4-2.5
		C1292.3,35.6,1291.3,35,1290.1,35.1z"/>
</g>
</svg>
