
<svg id="gamepad-svg" viewBox="0 0 340 230">
	<style type="text/css">
		.st0{fill:url(#base_bg_);;filter: url(#base_filter_);}
	</style>
	<linearGradient id="base_bg_" gradientUnits="userSpaceOnUse" x1="170.011" y1="7.6" x2="170.011" y2="224.5211">
		<stop offset="0" style="stop-color:rgba(0,0,0,.2)"/>
		<stop offset="1" style="stop-color:rgba(0,0,0,.4)"/>
	</linearGradient>
	<filter id="base_filter_" x="0" y="0" width="110%" height="110%">
		<feDropShadow dx="0" dy="1" stdDeviation=".25" flood-color="#fff" flood-opacity=".6" />
		<feDropShadow dx="0" dy="-1" stdDeviation=".5" flood-color="#333" flood-opacity="1" />
	</filter>
	<path class="st0" d="M334.4,148.8c-1.2-37.9-17.9-101.7-35.1-126.9C272,14.5,216.4,7.6,167.8,7.6v0.1
		C120.2,8.1,67.1,14.8,40.7,21.9c-17.2,25.2-34,89-35.1,126.9c-0.5,15.9-3.2,43.6,9.9,63c9,11.9,27.8,12.9,34.5,12.7
		c9.6-0.5,17.4-29.7,23-45c5.6-15.4,15.7-31.1,24.7-31.6c10.2-0.6,9,2.4,25.4,2.4c15.6,0,81.1-0.1,93.8-0.1c16.4,0,15.2-3,25.4-2.4
		c9,0.5,19.1,16.3,24.7,31.6c5.6,15.4,13.4,44.5,23,45c6.7,0.1,25.4-0.9,34.5-12.7C337.7,192.4,334.9,164.6,334.4,148.8z M114.4,12.4
		c11.2-0.9,39.6-2.2,57.8-2.2c0,0,43,1.4,53.3,2.2c9.7,0.8,9.3,5.9,8.3,10.5c-1,4.6-3.6,16.9-7.7,35.8c-4.1,18.9-11.8,20-21.5,20
		c-9.7,0-60.5,0.1-69.3,0.1c-9.7,0-17.4-1-21.5-20c-4.1-18.9-6.7-31.2-7.7-35.8C105.2,18.3,104.7,13.2,114.4,12.4z M64.7,141.5
		c-13.4,25.6-26,76.4-31.2,78c-8-1.4-11.3-3.9-14.3-7.2c-4.6-4.9-10.4-14.9-11.3-37.4c-1.4-38.2,3.3-55.3,8.4-80.3
		c5.9-29.1,22.9-66.8,26.1-70.7c27.4-6.7,45.2-8,45.2-8c4.4-0.7,10.9-0.3,12.3,7c1.4,7.3,8,36.9,8.7,40.4c0.7,3.6,2,12.9-7.3,22.4
		C89.4,97.8,79.4,113.5,64.7,141.5z M117.2,133.7c-10.8,0-19.5-8.7-19.5-19.5s8.7-19.5,19.5-19.5s19.5,8.7,19.5,19.5
		S128,133.7,117.2,133.7z M222.6,133.7c-10.8,0-19.5-8.7-19.5-19.5s8.7-19.5,19.5-19.5s19.5,8.7,19.5,19.5S233.4,133.7,222.6,133.7z
		 M332.1,174.9c-0.8,22.5-6.7,32.5-11.3,37.4c-3.1,3.2-6.3,5.8-14.3,7.2c-5.2-1.6-17.8-52.3-31.2-78c-14.7-28-24.7-43.7-36.5-55.8
		c-9.3-9.5-8-18.8-7.3-22.4c0.7-3.6,7.3-33.1,8.7-40.4c1.4-7.3,7.8-7.7,12.3-7c0,0,17.8,1.4,45.2,8c3.2,3.9,20.2,41.6,26.1,70.7
		C328.8,119.6,333.5,136.7,332.1,174.9z"/>
</svg>

<svg id="gamepad-left-button" viewBox="0 0 23 27">
	<style type="text/css">
		.st0{fill:none;stroke:#888;stroke-width:3;}
	</style>
	<path class="st0" d="M11.5,2c-1.9-0.2-7,5.8-8,7.7s-0.8,8.2-0.9,10.2c0,2.7,2.4,4.8,4.3,4.9c1.9,0.2,7.5,0.1,9.2-0.1
		s4.3-2.3,4.3-4.1s0.1-8.6-0.9-10.4C18.8,8.8,13.5,2.2,11.5,2z"/>
</svg>

<svg id="gamepad-left-button-down" viewBox="0 0 23 27">
	<style type="text/css">
		.st0{fill:#77777777;stroke:#888;stroke-width:3;}
	</style>
	<path class="st0" d="M11.5,2c-1.9-0.2-7,5.8-8,7.7s-0.8,8.2-0.9,10.2c0,2.7,2.4,4.8,4.3,4.9c1.9,0.2,7.5,0.1,9.2-0.1
		s4.3-2.3,4.3-4.1s0.1-8.6-0.9-10.4C18.8,8.8,13.5,2.2,11.5,2z"/>
</svg>

<svg id="gamepad-shoulder-button" viewBox="0 0 47 17">
	<style type="text/css">
		.st0{fill:#aaa;}
	</style>
	<path class="st0" d="M0.7,16.1c0-2.4,0.2-4.5,2.2-6.2c2-1.7,11.7-9,27.1-9S46,3.2,46.2,4s0.1,3,0.1,4.3
		C29.8,10.6,17,12.7,0.7,16.1z"/>
</svg>
