<svg xmlns="http://www.w3.org/2000/svg" width="0" height="0">

	<svg id="paradroid-logo" viewBox="0 0 480 300" cache="keep">
		<style type="text/css">
			.paradroid-st0{fill:#fff;}
		</style>
		<path class="paradroid-st0" d="M473.6,153.9h-6c-2.8,0-5.1,2.2-5.1,5.1l0,0l0,0v2.7c0,2.7-2.2,4.9-4.9,5.1h-67.1c-2.8,0-5.1,2.2-5.1,5.1v44.8
			c0,2.8,2.2,5.1,5.1,5.1h77.1h4.5h1.3c2.8,0,5.1-2.2,5.1-5.1v-57.5C478.6,156.1,476.3,153.9,473.6,153.9z M462.5,200.3
			c0,2.8-2.2,5.1-5.1,5.1h-25.1c-2.8,0-5.1-2.2-5.1-5.1V188c0-2.8,2.2-5.1,5.1-5.1h25.1c2.8,0,5.1,2.2,5.1,5.1V200.3z"/>
		<path class="paradroid-st0" d="M368.1,170h2.7c2.8,0,5.1-2.2,5.1-5.1v-6c0-2.8-2.2-5.1-5.1-5.1l0,0h-57.3l0,0c-2.8,0-5.1,2.2-5.1,5.1l0,0v5.8
			c0,2.8,2.2,5.1,5.1,5.1h3c2.8,0,5.1,2.2,5.1,5.1v25.1c0,2.8-2.2,5.1-5.1,5.1h-3c-2.8,0-5.1,2.2-5.1,5.1v6c0,2.8,2.2,5.1,5.1,5.1
			h57.3c2.8,0,5.1-2.2,5.1-5.1v-6c0-2.8-2.2-5.1-5.1-5.1h-2.7c-2.8,0-5.1-2.2-5.1-5.1v-25C363.1,172.4,365.4,170,368.1,170z"/>
		<path class="paradroid-st0" d="M293.8,154h-82.9c-2.8,0-5.1,2.2-5.1,5.1v57.3c0,2.8,2.2,5.1,5.1,5.1h82.9c2.8,0,5.1-2.2,5.1-5.1v-57.3
			C298.9,156.3,296.5,154,293.8,154z M282.8,200.3c0,2.8-2.2,5.1-5.1,5.1h-25.1c-2.8,0-5.1-2.2-5.1-5.1v-25.1c0-2.8,2.2-5.1,5.1-5.1
			h25.1c2.8,0,5.1,2.2,5.1,5.1V200.3z"/>
		<path class="paradroid-st0" d="M88.5,153.9h-6.1c-2.8,0-5.1,2.2-5.1,5.1l0,0v2.7c0,2.8-2.2,5.1-5.1,5.1h-3l0,0H37h-6.1H5.4c-2.8,0-5.1,2.2-5.1,5.1
			v44.8c0,2.8,2.2,5.1,5.1,5.1h25.4H37h45.2h6.1c2.8,0,5.1-2.2,5.1-5.1v-6.1v-32.3V172v-12.9C93.4,156.1,91.2,153.9,88.5,153.9z
			 M47.2,205.2c-2.8,0-5.1-2.2-5.1-5.1v-3l0,0v-6.4l0,0V188c0-2.7,2.2-4.9,4.9-5.1h22.3l0,0H72c2.8,0,5.1,2.2,5.1,5.1v12.1
			c0,2.8-2.2,5.1-5.1,5.1H49.8l0,0H47.2z"/>
		<path class="paradroid-st0" d="M191.3,231.1H191h-6h-45.2h-6.1h-25.4c-2.8,0-5.1,2.2-5.1,5.1v57.2c0,2.8,2.2,5.1,5.1,5.1h31.6
			c2.8,0,5.1-2.2,5.1-5.1v-2.8c0-2.7,2.2-4.9,5.1-4.9h25.1c2.7,0,4.9,2.2,4.9,4.9v2.8c0,2.8,2.2,5.1,5.1,5.1h6.1
			c2.8,0,5.1-2.2,5.1-5.1v-57.3C196.4,233.4,194.1,231.1,191.3,231.1z M144.7,252.2c0-2.8,2.2-5.1,5.1-5.1H175c2.8,0,5.1,2.2,5.1,5.1
			v12.3c0,2.8-2.2,5.1-5.1,5.1h-25.1c-2.8,0-5.1-2.2-5.1-5.1C144.7,264.5,144.7,252.2,144.7,252.2z"/>
		<path class="paradroid-st0" d="M191.3,192.6L191.3,192.6L191.3,192.6c-0.1,0-0.1,0-0.3,0h-2.5c-2.7,0-4.9-2.2-4.9-5.1v-3l0,0v-19.3v-6.1
			c0-2.8-2.2-5.1-5.1-5.1h-6.1h-32.5h-6.1h-25.4c-2.8,0-5.1,2.2-5.1,5.1v57.3c0,2.8,2.2,5.1,5.1,5.1h31.6c2.8,0,5.1-2.2,5.1-5.1v-1.3
			l0,0v-1c0-2.7,2.2-4.9,4.9-5.1h22.6h2.5c2.7,0,4.9,2.2,4.9,4.9v2.5c0,2.8,2.2,5.1,5.1,5.1h6.1c2.8,0,5.1-2.2,5.1-5.1v-12.6v-6.3
			C196.2,194.9,194,192.8,191.3,192.6z M149.8,192.6c-2.8,0-5.1-2.2-5.1-5.1v-12.1c0-2.7,2.2-4.9,4.9-4.9h12.4c2.8,0,5.1,2.2,5.1,5.1
			v9.4l0,0v2.7c0,2.7-2.2,4.9-4.9,5.1h-12.4V192.6z"/>
		<path class="paradroid-st0" d="M191.3,77.1H191h-6h-45.4h-6.1h-25.4c-2.8,0-5.1,2.2-5.1,5.1v57.3c0,2.8,2.2,5.1,5.1,5.1h31.6c2.8,0,5.1-2.2,5.1-5.1
			v-2.8c0-2.7,2.2-4.9,5.1-4.9h25.3c2.7,0,4.9,2.2,4.9,4.9v2.8c0,2.8,2.2,5.1,5.1,5.1h6.1c2.8,0,5.1-2.2,5.1-5.1V82
			C196.2,79.3,194,77.1,191.3,77.1z M144.7,98.2c0-2.8,2.2-5.1,5.1-5.1H175c2.8,0,5.1,2.2,5.1,5.1v12.3c0,2.8-2.2,5.1-5.1,5.1h-25.3
			c-2.8,0-5.1-2.2-5.1-5.1V98.2H144.7z"/>
		<path class="paradroid-st0" d="M191.2,0h-51.3h-4.3h-27.2c-2.8,0-5.1,2.2-5.1,5.1v57.3c0,2.8,2.2,5.1,5.1,5.1h31.6c2.8,0,5.1-2.2,5.1-5.1v-2.5
			c0-2.7,2.2-4.9,5.1-4.9h3l0,0h38.3c2.8,0,5.1-2.2,5.1-5.1V5.1C196.2,2.2,193.8,0,191.2,0z M180.1,33.4c0,2.8-2.2,5.1-5.1,5.1h-25.1
			c-2.8,0-5.1-2.2-5.1-5.1V21.1c0-2.8,2.2-5.1,5.1-5.1H175c2.8,0,5.1,2.2,5.1,5.1C180.1,21.1,180.1,33.4,180.1,33.4z"/>
	</svg>

	<svg id="paradroid-boxes-top" viewBox="0 0 480 300" cache="keep">
		<style type="text/css">
			.paradroid-st1{fill:#ddd;}
		</style>
		<path class="paradroid-st1" d="M87.1,144.4H6.7c-3.4,0-6.3-2.8-6.3-6.3V6.4C0.4,2.8,3.3,0,6.7,0h80.4c3.4,0,6.3,2.8,6.3,6.3V138
			C93.4,141.6,90.6,144.4,87.1,144.4z"/>
		<path class="paradroid-st1" d="M472.7,144.4H212.3c-3.4,0-6.3-2.8-6.3-6.3V6.4c0-3.4,2.8-6.3,6.3-6.3h260.5c3.4,0,6.3,2.8,6.3,6.3v131.7
			C479,141.6,476.2,144.4,472.7,144.4z"/>
	</svg>

	<svg id="paradroid-boxes-bottom" viewBox="0 0 480 300" cache="keep">
		<style type="text/css">
			.paradroid-st2{fill:#ddd;}
		</style>
		<path class="paradroid-st2" d="M86.7,298.5H6.3c-3.4,0-6.3-2.8-6.3-6.3v-54.8c0-3.4,2.8-6.3,6.3-6.3h80.4c3.4,0,6.3,2.8,6.3,6.3v54.8
			C93.1,295.6,90.3,298.5,86.7,298.5z"/>
		<path class="paradroid-st2" d="M472.3,298.5H211.8c-3.4,0-6.3-2.8-6.3-6.3v-54.8c0-3.4,2.8-6.3,6.3-6.3h260.5c3.4,0,6.3,2.8,6.3,6.3v54.8
			C478.6,295.6,475.7,298.5,472.3,298.5z"/>
	</svg>

	<svg id="droid-001" viewBox="0 0 32 32">
		<style type="text/css">
			.st0{fill:#fff;}
		</style>
		<path class="st0" d="M3.9,25.3c2.8,3.5,7.3,5.7,12.4,5.7c5.1,0,9.6-2.3,12.4-5.7H3.9z"/>
		<path class="st0" d="M29,9.4C26.5,6,22.4,3.7,17.7,3.3V1h-2.9v2.3C10.1,3.7,6,6,3.5,9.4H29z"/>
		<path class="st0" d="M5.9,14.1h2h3.7c-0.3-1.6-1.6-2.9-3.3-2.9H5.5c-1.7,0-3,1.3-3.3,2.9H5.9z"/>
		<path class="st0" d="M9.1,15.4v3.8c0,0.7-0.6,1.2-1.2,1.2h-2c-0.7,0-1.2-0.6-1.2-1.2v-3.8H2.1v4.5c0,1.9,1.5,3.4,3.4,3.4h2.8
			c1.9,0,3.4-1.5,3.4-3.4v-4.5H9.1z"/>
		<polygon id="_x31__1_" class="st0" points="26.2,11.2 26.2,11.2 23.7,12.4 23.7,14.1 26.2,14.1 26.2,23.3 29.9,23.3 29.9,11.2 "/>
		<path class="st0" d="M17,14.1h2h3.7c-0.3-1.6-1.6-2.9-3.3-2.9h-2.8c-1.7,0-3,1.3-3.3,2.9H17z"/>
		<path class="st0" d="M20.2,15.4v3.8c0,0.7-0.6,1.2-1.2,1.2h-2c-0.7,0-1.2-0.6-1.2-1.2v-3.8h-2.6v4.5c0,1.9,1.5,3.4,3.4,3.4h2.8
			c1.9,0,3.4-1.5,3.4-3.4v-4.5H20.2z"/>
	</svg>

</svg>