<svg xmlns="http://www.w3.org/2000/svg" width="0" height="0">

@import "tiles-32.svg"

	<svg id="logo-p" viewBox="0 0 94 68">
		<style type="text/css">
			.st0{fill:#eee;}
		</style>
		<path class="st0" d="M88.2,0.2H36.9h-4.3H5.4c-2.8,0-5.1,2.2-5.1,5.1v57.3c0,2.8,2.2,5.1,5.1,5.1H37c2.8,0,5.1-2.2,5.1-5.1
			v-2.5c0-2.7,2.2-4.9,5.1-4.9h3l0,0h38.3c2.8,0,5.1-2.2,5.1-5.1V5.3C93.2,2.5,90.8,0.2,88.2,0.2z M77.1,33.7c0,2.8-2.2,5.1-5.1,5.1
			H46.9c-2.8,0-5.1-2.2-5.1-5.1V21.4c0-2.8,2.2-5.1,5.1-5.1H72c2.8,0,5.1,2.2,5.1,5.1V33.7z"/>
	</svg>

	<svg id="logo-a" viewBox="0 0 94 68">
		<style type="text/css">
			.st0{fill:#eee;}
		</style>
		<path class="st0" d="M88.6,0.2h-0.3h-6H36.9h-6.1H5.4c-2.8,0-5.1,2.2-5.1,5.1v57.3c0,2.8,2.2,5.1,5.1,5.1H37
			c2.8,0,5.1-2.2,5.1-5.1v-2.8c0-2.7,2.2-4.9,5.1-4.9h25.3c2.7,0,4.9,2.2,4.9,4.9v2.8c0,2.8,2.2,5.1,5.1,5.1h6.1
			c2.8,0,5.1-2.2,5.1-5.1V5.1C93.5,2.5,91.3,0.2,88.6,0.2z M42,21.3c0-2.8,2.2-5.1,5.1-5.1h25.2c2.8,0,5.1,2.2,5.1,5.1v12.3
			c0,2.8-2.2,5.1-5.1,5.1H47c-2.8,0-5.1-2.2-5.1-5.1L42,21.3L42,21.3z"/>
	</svg>

	<svg id="logo-r" viewBox="0 0 94 68">
		<style type="text/css">
			.st0{fill:#eee;}
		</style>
		<path class="st0" d="M88.5,38.9L88.5,38.9L88.5,38.9c-0.1,0-0.1,0-0.3,0h-2.5c-2.7,0-4.9-2.2-4.9-5.1v-3l0,0V11.5V5.3
			c0-2.8-2.2-5.1-5.1-5.1h-6.1H37.1H31H5.6c-2.8,0-5.1,2.2-5.1,5.1v57.3c0,2.8,2.2,5.1,5.1,5.1h31.6c2.8,0,5.1-2.2,5.1-5.1v-1.3l0,0
			v-1c0-2.7,2.2-4.9,4.9-5.1h22.6h2.5c2.7,0,4.9,2.2,4.9,4.9v2.5c0,2.8,2.2,5.1,5.1,5.1h6.1c2.8,0,5.1-2.2,5.1-5.1V50v-6.3
			C93.4,41.2,91.2,39.1,88.5,38.9z M47,38.9c-2.8,0-5.1-2.2-5.1-5.1V21.7c0-2.7,2.2-4.9,4.9-4.9h12.4c2.8,0,5.1,2.2,5.1,5.1v9.4l0,0
			V34c0,2.7-2.2,4.9-4.9,5.1H47V38.9z"/>
	</svg>

	<svg id="logo-d" viewBox="0 0 94 68">
		<style type="text/css">
			.st0{fill:#eee;}
		</style>
		<path class="st0" d="M88.7,0h-6.1c-2.8,0-5.1,2.2-5.1,5.1l0,0v2.7c0,2.8-2.2,5.1-5.1,5.1h-3l0,0H37.2h-6.1H5.6
			c-2.8,0-5.1,2.2-5.1,5.1v44.8c0,2.8,2.2,5.1,5.1,5.1H31h6.2h45.2h6.1c2.8,0,5.1-2.2,5.1-5.1v-6.1V24.4v-6.3V5.2
			C93.6,2.2,91.3,0,88.7,0z M47.4,51.3c-2.8,0-5.1-2.2-5.1-5.1v-3l0,0v-6.4l0,0v-2.7c0-2.7,2.2-4.9,4.9-5.1h22.3l0,0h2.7
			c2.8,0,5.1,2.2,5.1,5.1v12.1c0,2.8-2.2,5.1-5.1,5.1H50l0,0L47.4,51.3L47.4,51.3z"/>
	</svg>

	<svg id="logo-o" viewBox="0 0 94 68">
		<style type="text/css">
			.st0{fill:#eee;}
		</style>
		<path class="st0" d="M88.4,0.2H5.6c-2.8,0-5.1,2.2-5.1,5.1v57.3c0,2.8,2.2,5.1,5.1,5.1h82.9c2.8,0,5.1-2.2,5.1-5.1V5.3
			C93.6,2.5,91.2,0.2,88.4,0.2z M77.4,46.5c0,2.8-2.2,5.1-5.1,5.1H47.2c-2.8,0-5.1-2.2-5.1-5.1V21.4c0-2.8,2.2-5.1,5.1-5.1h25.1
			c2.8,0,5.1,2.2,5.1,5.1V46.5z"/>
	</svg>

	<svg id="logo-i" viewBox="0 0 68 68">
		<style type="text/css">
			.st0{fill:#eee;}
		</style>
		<path class="st0" d="M59.6,16.4h2.7c2.8,0,5.1-2.2,5.1-5.1v-6c0-2.8-2.2-5.1-5.1-5.1l0,0H5.1l0,0C2.3,0.2,0,2.4,0,5.3l0,0
			v5.8c0,2.8,2.2,5.1,5.1,5.1h3c2.8,0,5.1,2.2,5.1,5.1v25.1c0,2.8-2.2,5.1-5.1,5.1h-3c-2.8,0-5.1,2.2-5.1,5.1v6c0,2.8,2.2,5.1,5.1,5.1
			h57.3c2.8,0,5.1-2.2,5.1-5.1v-6c0-2.8-2.2-5.1-5.1-5.1h-2.7c-2.8,0-5.1-2.2-5.1-5.1v-25C54.6,18.8,56.9,16.4,59.6,16.4z"/>
		</style>
	</svg>

	<svg id="paradroid-hud-logo" viewBox="0 0 484 37" cache="keep">
		<style type="text/css">
			.paradroid-st3{fill:#fff;}
		</style>
		<path class="paradroid-st3" d="M480.8,0.1h-3.3c-1.5,0-2.9,1.1-2.9,2.9l0,0l0,0v0.8c0,1.5-1.1,2.7-2.7,2.9h-36.6c-1.5,0-2.9,1.1-2.9,2.9v24.4
			c0,1.5,1.1,2.9,2.9,2.9h42h2.5h0.7c1.5,0,2.9-1.1,2.9-2.9V3C483.5,1.2,482.3,0.1,480.8,0.1z M474.8,24.6c0,1.5-1.1,2.9-2.9,2.9
			h-13.7c-1.5,0-2.9-1.1-2.9-2.9v-6.7c0-1.5,1.1-2.9,2.9-2.9h13.7c1.5,0,2.9,1.1,2.9,2.9V24.6z"/>
		<path class="paradroid-st3" d="M423.3,8.9h1.5c1.5,0,2.9-1.1,2.9-2.9V2.9c0-1.5-1.1-2.9-2.9-2.9l0,0h-31.2l0,0c-1.5,0-2.9,1.1-2.9,2.9l0,0V6
			c0,1.5,1.1,2.9,2.9,2.9h1.6c1.5,0,2.9,1.1,2.9,2.9v13.7c0,1.5-1.1,2.9-2.9,2.9h-1.6c-1.5,0-2.9,1.1-2.9,2.9v3.3
			c0,1.5,1.1,2.9,2.9,2.9h31.2c1.5,0,2.9-1.1,2.9-2.9v-3.3c0-1.5-1.1-2.9-2.9-2.9h-1.5c-1.5,0-2.9-1.1-2.9-2.9V11.5
			C420.6,10.1,421.9,8.9,423.3,8.9z"/>
		<path class="paradroid-st3" d="M382.7,0h-45.2c-1.5,0-2.9,1.1-2.9,2.9V34c0,1.5,1.1,2.9,2.9,2.9h45.2c1.5,0,2.9-1.1,2.9-2.9V2.9C385.6,1.2,384.3,0,382.7,0
			z M376.8,25.2c0,1.5-1.1,2.9-2.9,2.9h-13.7c-1.5,0-2.9-1.1-2.9-2.9V11.5c0-1.5,1.1-2.9,2.9-2.9h13.7c1.5,0,2.9,1.1,2.9,2.9V25.2z"/>
		<path class="paradroid-st3" d="M271.2,0.1h-3.3c-1.5,0-2.9,1.1-2.9,2.9l0,0v1.1c0,1.5-1.1,2.9-2.9,2.9h-1.6l0,0H243h-3.3h-13.9c-1.5,0-2.9,1.1-2.9,2.9
			v24.4c0,1.5,1.1,2.9,2.9,2.9h13.8h3.4h24.6h3.3c1.5,0,2.9-1.1,2.9-2.9V31V13.1V9.7V2.9C273.9,1.2,272.7,0.1,271.2,0.1z M248.7,27.7
			c-1.5,0-2.9-1.1-2.9-2.9v-1.6l0,0v-3.5l0,0v-1.5c0-1.5,1.1-2.7,2.7-2.9h12.2l0,0h1.5c1.5,0,2.9,1.1,2.9,2.9v6.6
			c0,1.5-1.1,2.9-2.9,2.9h-12.1l0,0H248.7L248.7,27.7z"/>
		<path class="paradroid-st3" d="M215.3,0.1h-0.2h-3.3h-24.6h-3.3h-13.8c-1.5,0-2.9,1.1-2.9,2.9v31.2c0,1.5,1.1,2.9,2.9,2.9h17.3c1.5,0,2.9-1.1,2.9-2.9v-1.5
			c0-1.5,1.1-2.7,2.9-2.7h13.7c1.5,0,2.7,1.1,2.7,2.7v1.5c0,1.5,1.1,2.9,2.9,2.9h3.3c1.5,0,2.9-1.1,2.9-2.9V2.9
			C218,1.3,216.8,0.1,215.3,0.1z M189.8,11.5c0-1.5,1.1-2.9,2.9-2.9h13.7c1.5,0,2.9,1.1,2.9,2.9v6.7c0,1.5-1.1,2.9-2.9,2.9h-13.7
			c-1.5,0-2.9-1.1-2.9-2.9C189.8,18.2,189.8,11.5,189.8,11.5z"/>
		<path class="paradroid-st3" d="M159.7,21L159.7,21L159.7,21c-0.1,0-0.1,0-0.2,0h-1.3c-1.5,0-2.7-1.1-2.7-2.9v-1.6l0,0V6.1V2.9c0-1.5-1.1-2.9-2.9-2.9h-3.3
			h-17.7h-3.3h-13.8c-1.5,0-2.9,1.1-2.9,2.9V34c0,1.5,1.1,2.9,2.9,2.9h17.2c1.5,0,2.9-1.1,2.9-2.9v-0.7l0,0v-0.6
			c0-1.5,1.1-2.7,2.7-2.9h12.4h1.3c1.5,0,2.7,1.1,2.7,2.7v1.3c0,1.5,1.1,2.9,2.9,2.9h3.3c1.5,0,2.9-1.1,2.9-2.9V27v-3.4
			C162.3,22.3,161.1,21.1,159.7,21z M137,21c-1.5,0-2.9-1.1-2.9-2.9v-6.6c0-1.5,1.1-2.7,2.7-2.7h6.7c1.5,0,2.9,1.1,2.9,2.9v5.1l0,0
			v1.5c0,1.5-1.1,2.7-2.7,2.9H137V21z"/>
		<path class="paradroid-st3" d="M326.8,21L326.8,21L326.8,21c-0.1,0-0.1,0-0.2,0h-1.3c-1.5,0-2.7-1.1-2.7-2.9v-1.6l0,0V6.1V2.9c0-1.5-1.1-2.9-2.9-2.9h-3.3
			h-17.7h-3.3h-13.8c-1.5,0-2.9,1.1-2.9,2.9V34c0,1.5,1.1,2.9,2.9,2.9h17.3c1.5,0,2.9-1.1,2.9-2.9v-0.7l0,0v-0.6
			c0-1.5,1.1-2.7,2.7-2.9h12.4h1.3c1.5,0,2.7,1.1,2.7,2.7v1.3c0,1.5,1.1,2.9,2.9,2.9h3.3c1.5,0,2.9-1.1,2.9-2.9V27v-3.4
			C329.5,22.3,328.4,21.1,326.8,21z M304.3,21c-1.5,0-2.9-1.1-2.9-2.9v-6.6c0-1.5,1.1-2.7,2.7-2.7h6.7c1.5,0,2.9,1.1,2.9,2.9v5.1l0,0
			v1.5c0,1.5-1.1,2.7-2.7,2.9h-6.7V21z"/>
		<path class="paradroid-st3" d="M104,0h-0.2h-3.3H75.9h-3.4H58.7c-1.5,0-2.9,1.1-2.9,2.9V34c0,1.5,1.1,2.9,2.9,2.9H76c1.5,0,2.9-1.1,2.9-2.9v-1.5
			c0-1.5,1.1-2.7,2.9-2.7h13.7c1.5,0,2.7,1.1,2.7,2.7V34c0,1.5,1.1,2.9,2.9,2.9h3.3c1.5,0,2.9-1.1,2.9-2.9V2.8
			C106.7,1.2,105.5,0,104,0z M78.6,11.5c0-1.5,1.1-2.9,2.9-2.9h13.8c1.5,0,2.9,1.1,2.9,2.9v6.7c0,1.5-1.1,2.9-2.9,2.9H81.3
			c-1.5,0-2.9-1.1-2.9-2.9L78.6,11.5L78.6,11.5z"/>
		<path class="paradroid-st3" d="M48,0H20h-2.3H3C1.4,0,0.2,1.2,0.2,2.9V34c0,1.5,1.1,2.9,2.9,2.9h17.3c1.5,0,2.9-1.1,2.9-2.9v-1.3c0-1.5,1.1-2.7,2.9-2.7
			h1.6l0,0h20.8c1.5,0,2.9-1.1,2.9-2.9V2.9C50.8,1.2,49.4,0,48,0z M42,18.2c0,1.5-1.1,2.9-2.9,2.9H25.5c-1.5,0-2.9-1.1-2.9-2.9v-6.7
			c0-1.5,1.1-2.9,2.9-2.9h13.7c1.5,0,2.9,1.1,2.9,2.9v6.7H42z"/>
	</svg>
	
	<svg id="cpu-circuit" viewBox="0 0 171 85">
		<style type="text/css">
			.st0{fill:none;stroke:#8ed8eb66;stroke-width:2;stroke-miterlimit:10;}
		</style>
		<line class="st0" x1="85.5" y1="51.2" x2="85.5" y2="85"/>
		<polyline class="st0" points="100.3,51.2 100.3,57.8 90.5,65.6 90.5,85 "/>
		<polyline class="st0" points="115.2,51.2 115.2,56.8 95.5,69.3 95.5,85 "/>
		<polyline class="st0" points="139.4,24.1 144,24.1 143.9,50 100.5,71.8 100.5,85 "/>
		<polyline class="st0" points="139.6,8 151.5,8 151.5,56.3 105.5,74.7 105.5,85 "/>
		<polyline class="st0" points="70.5,51.2 70.4,57.8 80.3,65.6 80.3,85 "/>
		<polyline class="st0" points="55.6,51.2 55.6,56.8 75.3,69.3 75.3,85 "/>
		<polyline class="st0" points="31.6,24.1 26.9,24.1 26.8,50 70.3,71.8 70.3,85 "/>
		<polyline class="st0" points="31.1,8 19.3,8 19.3,56.3 65.2,74.7 65.2,85 "/>
	</svg>

	<svg id="droid" viewBox="0 0 405 45" size="keep">
		<style type="text/css">
			.st0{fill:#333;}
		</style>
		<g id="_x31_">
			<path class="st0" d="M23.5,38.6H22c-1.2,0-2.2-1-2.2,0.2v2c0,1.2,1,2.2,2.2,2.2h1.5c1.2,0,2.2-1,2.2-2.2v-2
				C25.7,37.6,24.7,38.6,23.5,38.6z"/>
			<path class="st0" d="M7.1,32.9H3.7c4.3,3.9,11.2,6.3,18.9,6.3C16.3,39.3,10.6,36.8,7.1,32.9z"/>
			<path class="st0" d="M11.1,32.9c2.6,3.9,6.8,6.3,11.5,6.3c7.7,0,14.5-2.5,18.9-6.3C41.5,32.9,11.1,32.9,11.1,32.9z"/>
			<path class="st0" d="M11.3,13h29.8c-4.4-3.7-11-6-18.5-6C18,7,14,9.3,11.3,13z"/>
			<path class="st0" d="M22.6,7C15.1,7,8.4,9.4,4.1,13h3.3C10.9,9.3,16.4,7,22.6,7z"/>
		</g>
		<g id="_x32_">
			<path class="st0" d="M68.5,38.6H67c-1.2,0-2.2-1-2.2,0.2v2c0,1.2,1,2.2,2.2,2.2h1.5c1.2,0,2.2-1,2.2-2.2v-2
				C70.7,37.6,69.7,38.6,68.5,38.6z"/>
			<path class="st0" d="M54.2,32.9h-5.5c4.3,3.9,11.2,6.3,18.9,6.3C62.1,39.3,57.3,36.8,54.2,32.9z"/>
			<path class="st0" d="M59,32.9c2,3.9,5.1,6.3,8.6,6.3c7.7,0,14.5-2.5,18.9-6.3C86.5,32.9,59,32.9,59,32.9z"/>
			<path class="st0" d="M59.2,13h26.9c-4.4-3.7-11-6-18.5-6C64.2,7,61.1,9.3,59.2,13z"/>
			<path class="st0" d="M67.6,7c-7.5,0-14.2,2.4-18.5,6h5.4C57.5,9.3,62.3,7,67.6,7z"/>
		</g>
		<g id="_x33_">
			<path class="st0" d="M113.5,38.6H112c-1.2,0-2.2-1-2.2,0.2v2c0,1.2,1,2.2,2.2,2.2h1.5c1.2,0,2.2-1,2.2-2.2v-2
				C115.7,37.6,114.7,38.6,113.5,38.6z"/>
			<path class="st0" d="M104.1,32.9H93.7c4.3,3.9,11.2,6.3,18.9,6.3C109.1,39.3,106,36.8,104.1,32.9z"/>
			<path class="st0" d="M109,32.9c0.8,3.9,2.1,6.3,3.6,6.3c7.7,0,14.5-2.5,18.9-6.3C131.5,32.9,109,32.9,109,32.9z"/>
			<path class="st0" d="M109.1,13h22c-4.4-3.7-11-6-18.5-6C111.2,7,109.9,9.3,109.1,13z"/>
			<path class="st0" d="M112.6,7c-7.5,0-14.2,2.4-18.5,6h10.2C106.2,9.3,109.2,7,112.6,7z"/>
		</g>
		<g id="_x34_">
			<path class="st0" d="M158.5,38.6H157c-1.2,0-2.2-1-2.2,0.2v2c0,1.2,1,2.2,2.2,2.2h1.5c1.2,0,2.2-1,2.2-2.2v-2
				C160.7,37.6,159.7,38.6,158.5,38.6z"/>
			<path class="st0" d="M158.7,13h17.4c-4.4-3.7-11-6-18.5-6c0.4,0,0.7,0.1,1.1,0.3V13z"/>
			<path class="st0" d="M157.6,7c-7.5,0-14.2,2.4-18.5,6h14.2C154.3,9.3,155.8,7,157.6,7z"/>
			<path class="st0" d="M153.2,32.9h-14.5c4.3,3.9,11.2,6.3,18.9,6.3C155.8,39.3,154.2,36.8,153.2,32.9z"/>
			<path class="st0" d="M158.7,32.9v6c-0.4,0.2-0.7,0.3-1.1,0.3c7.7,0,14.5-2.5,18.9-6.3C176.5,32.9,158.7,32.9,158.7,32.9z"/>
		</g>
		<g id="_x35_">
			<path class="st0" d="M203.5,38.6H202c-1.2,0-2.2-1-2.2,0.2v2c0,1.2,1,2.2,2.2,2.2h1.5c1.2,0,2.2-1,2.2-2.2v-2
				C205.7,37.6,204.7,38.6,203.5,38.6z"/>
			<path class="st0" d="M207.2,32.9c-1.1,3.9-2.8,6.3-4.7,6.3c7.7,0,14.5-2.5,18.9-6.3C221.4,32.9,207.2,32.9,207.2,32.9z"/>
			<path class="st0" d="M201.8,32.9h-18.1c4.3,3.9,11.2,6.3,18.9,6.3c-0.3,0-0.6-0.1-0.8-0.2L201.8,32.9L201.8,32.9z"/>
			<path class="st0" d="M207.2,13h13.9c-4.4-3.7-11-6-18.5-6C204.4,7,206.1,9.3,207.2,13z"/>
			<path class="st0" d="M201.8,7.2c0.3-0.1,0.5-0.2,0.8-0.2c-7.5,0-14.2,2.4-18.5,6h17.7V7.2z"/>
		</g>
		<g id="_x36_">
			<path class="st0" d="M248.5,38.6H247c-1.2,0-2.2-1-2.2,0.2v2c0,1.2,1,2.2,2.2,2.2h1.5c1.2,0,2.2-1,2.2-2.2v-2
				C250.7,37.6,249.7,38.6,248.5,38.6z"/>
			<path class="st0" d="M251.1,32.9h-22.4c4.3,3.9,11.2,6.3,18.9,6.3C249,39.3,250.3,36.8,251.1,32.9z"/>
			<path class="st0" d="M256.1,32.9c-2,3.9-5,6.3-8.5,6.3c7.7,0,14.5-2.5,18.9-6.3C266.5,32.9,256.1,32.9,256.1,32.9z"/>
			<path class="st0" d="M255.9,13h10.2c-4.4-3.7-11-6-18.5-6C251,7,254,9.3,255.9,13z"/>
			<path class="st0" d="M247.6,7c-7.5,0-14.2,2.4-18.5,6h22C250.3,9.3,249,7,247.6,7z"/>
		</g>
		<g id="_x37_">
			<path class="st0" d="M293.7,38.6h-1.5c-1.2,0-2.2-1-2.2,0.2v2c0,1.2,1,2.2,2.2,2.2h1.5c1.2,0,2.2-1,2.2-2.2v-2
				C295.9,37.6,294.9,38.6,293.7,38.6z"/>
			<path class="st0" d="M301.4,32.9h-27.5c4.3,3.9,11.2,6.3,18.9,6.3C296.3,39.3,299.4,36.8,301.4,32.9z"/>
			<path class="st0" d="M306.2,32.9c-3.1,3.9-7.9,6.3-13.4,6.3c7.7,0,14.5-2.5,18.9-6.3C311.7,32.9,306.2,32.9,306.2,32.9z"/>
			<path class="st0" d="M305.9,13h5.4c-4.4-3.7-11-6-18.5-6C298.1,7,302.8,9.3,305.9,13z"/>
			<path class="st0" d="M292.8,7c-7.5,0-14.2,2.4-18.5,6h26.9C299.2,9.3,296.2,7,292.8,7z"/>
		</g>
		<g id="_x38_">
			<path class="st0" d="M338.5,38.6H337c-1.2,0-2.2-1-2.2,0.2v2c0,1.2,1,2.2,2.2,2.2h1.5c1.2,0,2.2-1,2.2-2.2v-2
				C340.7,37.6,339.7,38.6,338.5,38.6z"/>
			<path class="st0" d="M349.1,32.9h-30.4c4.3,3.9,11.2,6.3,18.9,6.3C342.3,39.3,346.4,36.8,349.1,32.9z"/>
			<path class="st0" d="M337.6,39.3c7.7,0,14.5-2.5,18.9-6.3h-3.4C349.5,36.8,343.9,39.3,337.6,39.3z"/>
			<path class="st0" d="M352.8,13h3.3c-4.4-3.7-11-6-18.5-6C343.7,7,349.2,9.3,352.8,13z"/>
			<path class="st0" d="M337.6,7c-7.5,0-14.2,2.4-18.5,6h29.8C346.2,9.3,342.1,7,337.6,7z"/>
		</g>
		<g id="_x39_">
			<path class="st0" d="M383.6,38.6h-1.5c-1.2,0-2.2-1-2.2,0.2v2c0,1.2,1,2.2,2.2,2.2h1.5c1.2,0,2.2-1,2.2-2.2v-2
				C385.8,37.6,384.8,38.6,383.6,38.6z"/>
			<path class="st0" d="M382.7,39.3c7.7,0,14.6-2.5,18.9-6.4h-37.8C368.1,36.8,375,39.3,382.7,39.3"/>
			<path class="st0" d="M401.2,13c-4.4-3.7-11-6-18.5-6l0,0c-7.5,0-14.2,2.4-18.5,6H401.2z"/>
		</g>
	</svg>

	<svg id="droid-digits" viewBox="0 0 140 16">
		<style type="text/css">
			.st0{fill:#333;}
		</style>
		<path id="_x38_" class="st0" d="M113.6,7.7c-1,0.8-1.6,1.7-1.6,3c0,2.7,3,5.2,6.9,5.2s7.1-2.4,7.1-5.2c0-1.2-0.6-2.2-1.6-2.9
			c0.9-0.7,1.6-1.7,1.6-2.9c0-2.7-3-4.9-7-4.9s-7,2.1-7,4.8C112,6.2,112.6,7.2,113.6,7.7z M122.4,10.8c0,0.8-1.4,1.8-3.4,1.8
			c-2.2,0-3.4-0.8-3.4-1.8C115.6,10,117,9,119,9C121.1,9.1,122.4,10.1,122.4,10.8z M119,3.2c2.2,0,3.4,0.8,3.4,1.7S121,6.6,119,6.6
			c-2.1,0.1-3.6-0.8-3.6-1.7C115.4,4.1,116.9,3.2,119,3.2z"/>
		<g id="_x37_">
			<rect x="98" class="st0" width="14" height="4"/>
			<polygon class="st0" points="100,16 105.6,16 110.8,6.2 105.2,6.2 	"/>
		</g>
		<path id="_x39_" class="st0" d="M130.9,12.9l-3.1,3.1h5.3l4.6-4.5c1.5-1.5,2.3-3,2.3-4.9c0-3.7-3.1-6.6-7-6.6s-7,2.9-7,6.6
			C126,9.5,128,12,130.9,12.9z M133,3.7c1.7,0,3.1,1.3,3.1,2.9s-1.4,2.9-3.1,2.9s-3.1-1.3-3.1-2.9S131.3,3.7,133,3.7z"/>
		<path id="_x36__1_" class="st0" d="M93.1,3.1L96.2,0h-5.3l-4.6,4.5C84.8,6,84,7.5,84,9.4c0,3.7,3.1,6.6,7,6.6c3.9,0,7-2.9,7-6.6
			C98,6.5,96,4,93.1,3.1z M91,12c-1.7,0-3.1-1.3-3.1-2.9s1.4-2.9,3.1-2.9c1.7,0,3.1,1.3,3.1,2.9S92.7,12,91,12z"/>
		<g id="_x35_">
			<path class="st0" d="M84,4V0H70v10.1h14c0-2.4-2.1-3.9-4.8-3.9l0,0H74V4H84z"/>
			<path class="st0" d="M79,12h-9v4h9l0,0c2.7,0,5-1.5,5-4H79L79,12z"/>
		</g>
		<g id="_x34_">
			<rect x="62" y="12" class="st0" width="6" height="4"/>
			<polygon class="st0" points="62.4,6.2 69.5,0 63.1,0 56,6.2 56,10.1 70,10.1 70,6.2 	"/>
		</g>
		<g id="_x33_">
			<polygon class="st0" points="42,0 56,0 51.6,4 42,4 	"/>
			<path class="st0" d="M42,12v4h9l0,0c2.7,0,5-2,5-4l0,0v-2l0,0c0-2.4-2.4-3.8-5-3.8l0,0h-4l-5,3.9h9.9V12H42z"/>
		</g>
		<g id="_x32_">
			<rect x="28" y="12" class="st0" width="14" height="4"/>
			<path class="st0" d="M37.9,4H28V0h9l0,0c2.7,0,5.1,1.5,5,4l0,0l0,2.2l0,0c0,2.4-2.2,3.9-4.8,3.9l0,0H28l5-3.9h4.9L37.9,4z"/>
		</g>
		<polygon id="_x31_" class="st0" points="19.7,0 15.2,4 19.7,4 19.7,16 24.8,16 24.8,0 "/>
		<g id="_x30_">
			<path class="st0" d="M10,6.2c0,0.1,0,0.2,0,0.4v3.2c0,1.3-1,2.4-2.4,2.4H6.4c-1.3-0.1-2.3-1.1-2.3-2.4V6.6c0-0.1,0-0.3,0-0.4H0l0,0
				v4C0,13.4,2.7,16,6,16h2c3.2,0,6-2.6,6-5.9V6.2l0,0C13.9,6.2,10,6.2,10,6.2z"/>
			<path class="st0" d="M6.4,4h1.2h6.1c-0.8-2.3-3-4-5.7-4H6C3.5,0,1.3,1.7,0.6,4H6.4z"/>
		</g>
	</svg>

	<svg id="droid-001" viewBox="0 0 32 32">
		<style type="text/css">
			.st0{fill:#fff;}
		</style>
		<path class="st0" d="M3.9,25.3c2.8,3.5,7.3,5.7,12.4,5.7c5.1,0,9.6-2.3,12.4-5.7H3.9z"/>
		<path class="st0" d="M29,9.4C26.5,6,22.4,3.7,17.7,3.3V1h-2.9v2.3C10.1,3.7,6,6,3.5,9.4H29z"/>
		<path class="st0" d="M5.9,14.1h2h3.7c-0.3-1.6-1.6-2.9-3.3-2.9H5.5c-1.7,0-3,1.3-3.3,2.9H5.9z"/>
		<path class="st0" d="M9.1,15.4v3.8c0,0.7-0.6,1.2-1.2,1.2h-2c-0.7,0-1.2-0.6-1.2-1.2v-3.8H2.1v4.5c0,1.9,1.5,3.4,3.4,3.4h2.8
			c1.9,0,3.4-1.5,3.4-3.4v-4.5H9.1z"/>
		<polygon id="_x31__1_" class="st0" points="26.2,11.2 26.2,11.2 23.7,12.4 23.7,14.1 26.2,14.1 26.2,23.3 29.9,23.3 29.9,11.2 "/>
		<path class="st0" d="M17,14.1h2h3.7c-0.3-1.6-1.6-2.9-3.3-2.9h-2.8c-1.7,0-3,1.3-3.3,2.9H17z"/>
		<path class="st0" d="M20.2,15.4v3.8c0,0.7-0.6,1.2-1.2,1.2h-2c-0.7,0-1.2-0.6-1.2-1.2v-3.8h-2.6v4.5c0,1.9,1.5,3.4,3.4,3.4h2.8
			c1.9,0,3.4-1.5,3.4-3.4v-4.5H20.2z"/>
	</svg>

	<svg id="switch" viewBox="0 0 17 6">
		<style type="text/css">
			.st0{fill:none;stroke:#8ed8eb66;stroke-width:1.25;}
		</style>
		<circle class="st0" cx="14" cy="3" r="2.35"/>
	</svg>

	<svg id="switch-conn" viewBox="0 0 17 6">
		<style type="text/css">
			.st0{fill:#8ed8eb66;}
		</style>
		<path class="st0" d="M14,2c-0.4,0-0.7,0.2-0.9,0.5H4.9C3.7,1.8,1.5,0.4,0.7,0L0,0v6l0.7,0c0.6-0.3,3.2-1.8,4.3-2.5h8.2C13.3,3.8,13.6,4,14,4
			c0.6,0,1-0.5,1-1S14.6,2,14,2z"/>
		<path class="st0" d="M14,0c-1.3,0-2.4,0.8-2.8,2h1.4c0.3-0.4,0.8-0.7,1.4-0.7c1,0,1.7,0.8,1.7,1.7S15,4.7,14,4.7c-0.6,0-1.1-0.3-1.4-0.7h-1.4
			c0.4,1.1,1.5,2,2.8,2c1.6,0,3-1.3,3-3S15.6,0,14,0z"/>
	</svg>

	<svg id="conn" viewBox="0 0 17 6">
		<style type="text/css">
			.st0{fill:#8ed8eb66;}
		</style>
		<path class="st0" d="M14,1.3c-0.8,0-1.4,0.5-1.7,1.2H4.9C3.7,1.8,1.5,0.4,0.7,0L0,0v6l0.7,0c0.6-0.3,3.2-1.8,4.3-2.5h7.4
	c0.2,0.7,0.9,1.2,1.7,1.2c1,0,1.7-0.8,1.7-1.7S15,1.3,14,1.3z"/>
	</svg>

</svg>