<svg xmlns="http://www.w3.org/2000/svg" width="0" height="0">

@import "tiles-32.svg"
@import "tiles-7.svg"
@import "3001.svg"
@import "electric.svg"
@import "explosion.svg"
@import "circuit-board.svg"

@import "bp/001.svg"
@import "bp/123.svg"
@import "bp/139.svg"
@import "bp/247.svg"
@import "bp/249.svg"
@import "bp/296.svg"
@import "bp/302.svg"
@import "bp/329.svg"
@import "bp/420.svg"
@import "bp/476.svg"
@import "bp/493.svg"
@import "bp/516.svg"
@import "bp/571.svg"
@import "bp/598.svg"
@import "bp/614.svg"
@import "bp/615.svg"
@import "bp/629.svg"
@import "bp/711.svg"
@import "bp/737.svg"
@import "bp/742.svg"
@import "bp/751.svg"
@import "bp/821.svg"
@import "bp/834.svg"
@import "bp/883.svg"
@import "bp/999.svg"

	<svg id="droid-mask" viewBox="0 0 44 33" cache="keep">
		<path d="M43.7,13.8C42,6,32.9,0,22,0C11.1,0,2.1,5.9,0.3,13.7v5.5C2.1,27.1,11.1,33,22,33c10.9,0,20-6,21.7-13.8V13.8z"/>
	</svg>

	<svg id="prog-bar-bg" viewBox="0 0 28 82">
		<style type="text/css">
			.st0{fill:none;stroke:#0009;stroke-width:3;stroke-miterlimit:10;}
			.st1{fill:url(#SVGID_1_);}
			.st2{fill:#B0B0B0;}
			.st3{fill:#C1C1C1;}
			.st4{fill:none;stroke:#777;stroke-width:0.25;stroke-miterlimit:10;}
			.st5{fill:none;stroke:#fff;stroke-width:0.25;stroke-miterlimit:10;}
		</style>
		<polygon class="st0" points="13.9,1.7 26.5,9.2 26.5,72.4 13.9,80.4 1.5,72.7 1.5,9.4 "/>
		<linearGradient id="SVGID_1_" gradientUnits="userSpaceOnUse" x1="2.9" y1="10.2" x2="24.9972" y2="10.2">
			<stop  offset="0.5" style="stop-color:#DFDFDF"/>
			<stop  offset="0.5" style="stop-color:#E2E2E2"/>
		</linearGradient>
		<polygon class="st1" points="13.9,3.5 25,10.1 13.9,16.9 2.9,10.3 "/>
		<polygon class="st2" points="2.9,10.3 3,71.9 13.8,78.7 13.9,16.9 "/>
		<polygon class="st3" points="25,10.1 13.9,16.9 13.8,78.7 25,71.5 "/>
		<g id="_x32_5">
			<polyline class="st4" points="2.9,57.3 13.9,63.9 25,57.1 	"/>
			<polyline class="st5" points="2.9,57.6 13.9,64.2 25,57.4 	"/>
		</g>
		<g id="_x35_0">
			<polyline class="st4" points="2.9,42.3 13.9,48.9 25,42.1 	"/>
			<polyline class="st5" points="2.9,42.6 13.9,49.2 25,42.4 	"/>
		</g>
		<g id="_x37_5">
			<polyline class="st4" points="2.9,26.3 13.9,32.9 25,26.1 	"/>
			<polyline class="st5" points="2.9,26.6 13.9,33.2 25,26.4 	"/>
		</g>
	</svg>

	<svg id="prog-bar" viewBox="0 0 28 82">
		<style type="text/css">
			.st0{fill:url(#SVGID_1_);}
			.st1{fill:#ff64ad;}
			.st2{fill:#fd86bf;}
		</style>
		<linearGradient id="SVGID_1_" gradientUnits="userSpaceOnUse" x1="2.9" y1="10.2" x2="24.9972" y2="10.2">
			<stop  offset="0.5" style="stop-color:#fdbedb"/>
			<stop  offset="0.5" style="stop-color:#fdcbe4"/>
		</linearGradient>
		<polygon class="st0" points="13.9,3.5 25,10.1 13.9,16.9 2.9,10.3 "/>
		<polygon class="st1" points="2.9,10.3 3,71.9 13.8,78.7 13.9,16.9 "/>
		<polygon class="st2" points="25,10.1 13.9,16.9 13.8,78.7 25,71.5 "/>
	</svg>

	<svg id="logo-p" viewBox="0 0 94 68">
		<style type="text/css">
			.st0{fill:#eee;}
		</style>
		<path class="st0" d="M88.2,0.2H36.9h-4.3H5.4c-2.8,0-5.1,2.2-5.1,5.1v57.3c0,2.8,2.2,5.1,5.1,5.1H37c2.8,0,5.1-2.2,5.1-5.1
			v-2.5c0-2.7,2.2-4.9,5.1-4.9h3l0,0h38.3c2.8,0,5.1-2.2,5.1-5.1V5.3C93.2,2.5,90.8,0.2,88.2,0.2z M77.1,33.7c0,2.8-2.2,5.1-5.1,5.1
			H46.9c-2.8,0-5.1-2.2-5.1-5.1V21.4c0-2.8,2.2-5.1,5.1-5.1H72c2.8,0,5.1,2.2,5.1,5.1V33.7z"/>
	</svg>

	<svg id="logo-a" viewBox="0 0 94 68">
		<style type="text/css">
			.st0{fill:#eee;}
		</style>
		<path class="st0" d="M88.6,0.2h-0.3h-6H36.9h-6.1H5.4c-2.8,0-5.1,2.2-5.1,5.1v57.3c0,2.8,2.2,5.1,5.1,5.1H37
			c2.8,0,5.1-2.2,5.1-5.1v-2.8c0-2.7,2.2-4.9,5.1-4.9h25.3c2.7,0,4.9,2.2,4.9,4.9v2.8c0,2.8,2.2,5.1,5.1,5.1h6.1
			c2.8,0,5.1-2.2,5.1-5.1V5.1C93.5,2.5,91.3,0.2,88.6,0.2z M42,21.3c0-2.8,2.2-5.1,5.1-5.1h25.2c2.8,0,5.1,2.2,5.1,5.1v12.3
			c0,2.8-2.2,5.1-5.1,5.1H47c-2.8,0-5.1-2.2-5.1-5.1L42,21.3L42,21.3z"/>
	</svg>

	<svg id="logo-r" viewBox="0 0 94 68">
		<style type="text/css">
			.st0{fill:#eee;}
		</style>
		<path class="st0" d="M88.5,38.9L88.5,38.9L88.5,38.9c-0.1,0-0.1,0-0.3,0h-2.5c-2.7,0-4.9-2.2-4.9-5.1v-3l0,0V11.5V5.3
			c0-2.8-2.2-5.1-5.1-5.1h-6.1H37.1H31H5.6c-2.8,0-5.1,2.2-5.1,5.1v57.3c0,2.8,2.2,5.1,5.1,5.1h31.6c2.8,0,5.1-2.2,5.1-5.1v-1.3l0,0
			v-1c0-2.7,2.2-4.9,4.9-5.1h22.6h2.5c2.7,0,4.9,2.2,4.9,4.9v2.5c0,2.8,2.2,5.1,5.1,5.1h6.1c2.8,0,5.1-2.2,5.1-5.1V50v-6.3
			C93.4,41.2,91.2,39.1,88.5,38.9z M47,38.9c-2.8,0-5.1-2.2-5.1-5.1V21.7c0-2.7,2.2-4.9,4.9-4.9h12.4c2.8,0,5.1,2.2,5.1,5.1v9.4l0,0
			V34c0,2.7-2.2,4.9-4.9,5.1H47V38.9z"/>
	</svg>

	<svg id="logo-d" viewBox="0 0 94 68">
		<style type="text/css">
			.st0{fill:#eee;}
		</style>
		<path class="st0" d="M88.7,0h-6.1c-2.8,0-5.1,2.2-5.1,5.1l0,0v2.7c0,2.8-2.2,5.1-5.1,5.1h-3l0,0H37.2h-6.1H5.6
			c-2.8,0-5.1,2.2-5.1,5.1v44.8c0,2.8,2.2,5.1,5.1,5.1H31h6.2h45.2h6.1c2.8,0,5.1-2.2,5.1-5.1v-6.1V24.4v-6.3V5.2
			C93.6,2.2,91.3,0,88.7,0z M47.4,51.3c-2.8,0-5.1-2.2-5.1-5.1v-3l0,0v-6.4l0,0v-2.7c0-2.7,2.2-4.9,4.9-5.1h22.3l0,0h2.7
			c2.8,0,5.1,2.2,5.1,5.1v12.1c0,2.8-2.2,5.1-5.1,5.1H50l0,0L47.4,51.3L47.4,51.3z"/>
	</svg>

	<svg id="logo-o" viewBox="0 0 94 68">
		<style type="text/css">
			.st0{fill:#eee;}
		</style>
		<path class="st0" d="M88.4,0.2H5.6c-2.8,0-5.1,2.2-5.1,5.1v57.3c0,2.8,2.2,5.1,5.1,5.1h82.9c2.8,0,5.1-2.2,5.1-5.1V5.3
			C93.6,2.5,91.2,0.2,88.4,0.2z M77.4,46.5c0,2.8-2.2,5.1-5.1,5.1H47.2c-2.8,0-5.1-2.2-5.1-5.1V21.4c0-2.8,2.2-5.1,5.1-5.1h25.1
			c2.8,0,5.1,2.2,5.1,5.1V46.5z"/>
	</svg>

	<svg id="logo-i" viewBox="0 0 68 68">
		<style type="text/css">
			.st0{fill:#eee;}
		</style>
		<path class="st0" d="M59.6,16.4h2.7c2.8,0,5.1-2.2,5.1-5.1v-6c0-2.8-2.2-5.1-5.1-5.1l0,0H5.1l0,0C2.3,0.2,0,2.4,0,5.3l0,0
			v5.8c0,2.8,2.2,5.1,5.1,5.1h3c2.8,0,5.1,2.2,5.1,5.1v25.1c0,2.8-2.2,5.1-5.1,5.1h-3c-2.8,0-5.1,2.2-5.1,5.1v6c0,2.8,2.2,5.1,5.1,5.1
			h57.3c2.8,0,5.1-2.2,5.1-5.1v-6c0-2.8-2.2-5.1-5.1-5.1h-2.7c-2.8,0-5.1-2.2-5.1-5.1v-25C54.6,18.8,56.9,16.4,59.6,16.4z"/>
		</style>
	</svg>
	
	<svg id="cpu-circuit" viewBox="0 0 171 85">
		<style type="text/css">
			.st0{fill:none;stroke:#369fff;stroke-width:2;stroke-miterlimit:10;}
		</style>
		<line class="st0" x1="85.5" y1="51.2" x2="85.5" y2="85"/>
		<polyline class="st0" points="100.3,51.2 100.3,57.8 90.5,65.6 90.5,85 "/>
		<polyline class="st0" points="115.2,51.2 115.2,56.8 95.5,69.3 95.5,85 "/>
		<polyline class="st0" points="139.4,24.1 144,24.1 143.9,50 100.5,71.8 100.5,85 "/>
		<polyline class="st0" points="139.6,8 151.5,8 151.5,56.3 105.5,74.7 105.5,85 "/>
		<polyline class="st0" points="70.5,51.2 70.4,57.8 80.3,65.6 80.3,85 "/>
		<polyline class="st0" points="55.6,51.2 55.6,56.8 75.3,69.3 75.3,85 "/>
		<polyline class="st0" points="31.6,24.1 26.9,24.1 26.8,50 70.3,71.8 70.3,85 "/>
		<polyline class="st0" points="31.1,8 19.3,8 19.3,56.3 65.2,74.7 65.2,85 "/>
	</svg>

	<svg id="laser" viewBox="0 0 96 96" size="keep">
		<style type="text/css">
			.st0{fill:url(#SVGID_1_);}
			.st1{fill:url(#SVGID_2_);}
			.st2{fill:#fff;}
			.st3{fill:url(#SVGID_3_);}
		</style>
		<linearGradient id="SVGID_1_" gradientUnits="userSpaceOnUse" x1="48" y1="48" x2="48" y2="96">
			<stop  offset="0" style="stop-color:#fff"/>
			<stop  offset="1" style="stop-color:#fff;stop-opacity:0"/>
		</linearGradient>
		<path class="st0" d="M49.5,48c0,0.8-0.7,47.5-1.5,47.5S46.5,48.8,46.5,48s0.7-1.5,1.5-1.5S49.5,47.2,49.5,48z"/>
		<linearGradient id="SVGID_2_" gradientUnits="userSpaceOnUse" x1="48" y1="48" x2="48" y2="96">
			<stop  offset="0" style="stop-color:#fff"/>
			<stop  offset="1" style="stop-color:#fff;stop-opacity:0"/>
		</linearGradient>
		<path class="st1" d="M48.5,48c0,0.8-0.2,47.5-0.5,47.5S47.5,48.8,47.5,48s0.2-1.5,0.5-1.5S48.5,47.2,48.5,48z"/>
		<circle class="st2" cx="48" cy="48" r="1.5"/>
		<radialGradient id="SVGID_3_" cx="48" cy="48" r="23.6614" gradientUnits="userSpaceOnUse">
			<stop  offset="0" style="stop-color:#fff;stop-opacity:0.2"/>
			<stop  offset="1" style="stop-color:#fff;stop-opacity:0"/>
		</radialGradient>
		<circle class="st3" cx="48" cy="48" r="24"/>
	</svg>

	<svg id="phaser" viewBox="0 0 96 96" size="keep">
		<style type="text/css">
			.st0{fill:url(#SVGID_1_);}
			.st1{fill:url(#SVGID_2_);}
			.st2{fill:url(#SVGID_3_);}
			.st3{fill:#fff;}
			.st4{fill:url(#SVGID_4_);}
			.st5{fill:url(#SVGID_5_);}
			.st6{fill:url(#SVGID_6_);}
		</style>
		<linearGradient id="SVGID_1_" gradientUnits="userSpaceOnUse" x1="42" y1="50" x2="42" y2="2" gradientTransform="matrix(1 0 0 -1 0 98)">
			<stop  offset="0" style="stop-color:#fff"/>
			<stop  offset="2.546109e-02" style="stop-color:#00AEEF;stop-opacity:0.97"/>
			<stop  offset="1" style="stop-color:#fff;stop-opacity:0"/>
		</linearGradient>
		<path class="st0" d="M43.5,48c0,0.8-0.7,47.5-1.5,47.5S40.5,48.8,40.5,48s0.7-1.5,1.5-1.5S43.5,47.2,43.5,48z"/>
		<linearGradient id="SVGID_2_" gradientUnits="userSpaceOnUse" x1="42" y1="50" x2="42" y2="2" gradientTransform="matrix(1 0 0 -1 0 98)">
			<stop  offset="0" style="stop-color:#00AEEF"/>
			<stop  offset="1" style="stop-color:#fff;stop-opacity:0"/>
		</linearGradient>
		<path class="st1" d="M42.5,48c0,0.8-0.2,47.5-0.5,47.5S41.5,48.8,41.5,48s0.2-1.5,0.5-1.5S42.5,47.2,42.5,48z"/>
		<radialGradient id="SVGID_3_" cx="42" cy="50" r="23.6614" gradientTransform="matrix(1 0 0 -1 0 98)" gradientUnits="userSpaceOnUse">
			<stop  offset="0" style="stop-color:#00AEEF;stop-opacity:0.4"/>
			<stop  offset="1" style="stop-color:#fff;stop-opacity:0"/>
		</radialGradient>
		<circle class="st2" cx="42" cy="48" r="24"/>
		<path class="st3" d="M42.1,56.1h-0.1c-0.8,0-1.4-0.6-1.4-1.4V43.9c0-0.8,0.6-1.4,1.4-1.4h0.1c0.8,0,1.4,0.6,1.4,1.4v10.8
			C43.5,55.4,42.9,56.1,42.1,56.1z"/>
		<linearGradient id="SVGID_4_" gradientUnits="userSpaceOnUse" x1="54" y1="50" x2="54" y2="2" gradientTransform="matrix(1 0 0 -1 0 98)">
			<stop  offset="0" style="stop-color:#00AEEF"/>
			<stop  offset="1" style="stop-color:#fff;stop-opacity:0"/>
		</linearGradient>
		<path class="st4" d="M55.5,48c0,0.8-0.7,47.5-1.5,47.5S52.5,48.8,52.5,48s0.7-1.5,1.5-1.5S55.5,47.2,55.5,48z"/>
		<linearGradient id="SVGID_5_" gradientUnits="userSpaceOnUse" x1="54" y1="50" x2="54" y2="2" gradientTransform="matrix(1 0 0 -1 0 98)">
			<stop  offset="0" style="stop-color:#00AEEF"/>
			<stop  offset="1" style="stop-color:#fff;stop-opacity:0"/>
		</linearGradient>
		<path class="st5" d="M54.5,48c0,0.8-0.2,47.5-0.5,47.5S53.5,48.8,53.5,48s0.2-1.5,0.5-1.5S54.5,47.2,54.5,48z"/>
		<radialGradient id="SVGID_6_" cx="54" cy="50" r="23.6614" gradientTransform="matrix(1 0 0 -1 0 98)" gradientUnits="userSpaceOnUse">
			<stop  offset="0" style="stop-color:#00AEEF;stop-opacity:0.4"/>
			<stop  offset="1" style="stop-color:#fff;stop-opacity:0"/>
		</radialGradient>
		<circle class="st6" cx="54" cy="48" r="24"/>
		<path class="st3" d="M54.1,56.1h-0.1c-0.8,0-1.4-0.6-1.4-1.4V43.9c0-0.8,0.6-1.4,1.4-1.4h0.1c0.8,0,1.4,0.6,1.4,1.4v10.8
			C55.5,55.4,54.9,56.1,54.1,56.1z"/>
	</svg>

	<svg id="plasma" viewBox="0 0 10 10" size="keep">
		<style type="text/css">
			.st0{fill:#fff;filter:url(#dropshadow-1);}
		</style>
		<filter filterUnits="objectBoundingBox" id="dropshadow-1">
			<feOffset dx="0" dy="0" in="SourceAlpha" result="defappShadowOffsetOuter1"></feOffset>
			<feGaussianBlur stdDeviation=".25" in="defappShadowOffsetOuter1" result="defappShadowBlurOuter1"></feGaussianBlur>
			<feColorMatrix values="0 0 0 0 0   0 0 0 0 0   0 0 0 0 0  0 0 0 0.5 0" type="matrix" in="defappShadowBlurOuter1" result="defappShadowMatrixOuter1"></feColorMatrix>
			<feMerge>
				<feMergeNode in="defappShadowMatrixOuter1"/>
				<feMergeNode in="SourceGraphic"/>
			</feMerge>
		</filter>
		<circle class="st0" cx="5" cy="5" r="3.5"/>
	</svg>

	<svg id="mist" viewBox="0 0 30 30" size="keep">
		<style type="text/css">
			.st0{fill:url(#SVGID_1_);}
		</style>
		<radialGradient id="SVGID_1_" cx="15" cy="15" r="15" gradientUnits="userSpaceOnUse">
			<stop  offset="0" style="stop-color:#fff;stop-opacity:1"/>
			<stop  offset=".9" style="stop-color:#fff;stop-opacity:0"/>
		</radialGradient>
		<circle class="st0" cx="15" cy="15" r="15"/>
	</svg>

	<svg id="sonic" viewBox="0 0 96 96" size="keep">
		<style type="text/css">
			.st0{fill:none;stroke:#fff;stroke-width:3;stroke-miterlimit:10;}
		</style>
		<ellipse class="st0" cx="48" cy="48" rx="37" ry="20"/>
	</svg>

	<svg id="missile" viewBox="0 0 40 40" size="keep">
		<style type="text/css">
			.st0{fill:#fff;filter:url(#dropshadow-1);}
		</style>
		<filter filterUnits="objectBoundingBox" id="dropshadow-1">
			<feOffset dx="0" dy="0" in="SourceAlpha" result="defappShadowOffsetOuter1"></feOffset>
			<feGaussianBlur stdDeviation=".25" in="defappShadowOffsetOuter1" result="defappShadowBlurOuter1"></feGaussianBlur>
			<feColorMatrix values="0 0 0 0 0   0 0 0 0 0   0 0 0 0 0  0 0 0 0.5 0" type="matrix" in="defappShadowBlurOuter1" result="defappShadowMatrixOuter1"></feColorMatrix>
			<feMerge>
				<feMergeNode in="defappShadowMatrixOuter1"/>
				<feMergeNode in="SourceGraphic"/>
			</feMerge>
		</filter>
		<path class="st0" d="M19.8,16.1h-0.5c0,0-0.5,1.3-0.6,1.4s-1.2,0.1-1.4,0s-0.8-3.7-0.8-3.7s0.7-0.9,1.2-1.5c0-0.3-0.4-2.5-0.4-4.8
			s1.1-7.2,2.5-7.2s2.5,4.9,2.5,7.2S22,12,21.9,12.3c0.5,0.6,1.2,1.5,1.2,1.5s-0.6,3.6-0.8,3.7s-1.2,0.1-1.4,0
			c-0.1-0.1-0.6-1.4-0.6-1.4L19.8,16.1z"/>
	</svg>

	<svg id="particle" viewBox="0 0 96 96" size="keep">
		<style type="text/css">
			.st0{fill:url(#SVGID_1_);}
			.st1{fill:url(#SVGID_2_);}
			.st2{fill:url(#SVGID_3_);}
			.st3{fill:url(#SVGID_4_);}
			.st4{fill:url(#SVGID_5_);}
		</style>
		<radialGradient id="SVGID_1_" cx="35.7707" cy="34.4496" r="22.5258" gradientTransform="matrix(1.144 0 0 1.1188 -8.3945 -6.7698)" gradientUnits="userSpaceOnUse">
			<stop  offset="0" style="stop-color:#AE3C19;stop-opacity:0.4"/>
			<stop  offset="0.3192" style="stop-color:#A93C18;stop-opacity:0.25"/>
			<stop  offset="0.6728" style="stop-color:#9C3A16;stop-opacity:8.180359e-02"/>
			<stop  offset="1" style="stop-color:#893813;stop-opacity:0"/>
		</radialGradient>
		<ellipse class="st0" cx="32.5" cy="31.8" rx="25.8" ry="25.2"/>
		<radialGradient id="SVGID_2_" cx="55.6841" cy="37.7919" r="26.3169" gradientTransform="matrix(1.1467 0 0 0.8856 -4.6173 7.5813)" gradientUnits="userSpaceOnUse">
			<stop  offset="0" style="stop-color:#AE3C19;stop-opacity:0.4"/>
			<stop  offset="0.3192" style="stop-color:#A93C18;stop-opacity:0.34"/>
			<stop  offset="0.6728" style="stop-color:#9C3A16;stop-opacity:9.816431e-02"/>
			<stop  offset="1" style="stop-color:#893813;stop-opacity:0"/>
		</radialGradient>
		<ellipse class="st1" cx="59.2" cy="41" rx="30.2" ry="23.3"/>
		<radialGradient id="SVGID_3_" cx="47.678" cy="64.4264" r="23.3766" gradientTransform="matrix(0.8449 0 0 1 3.7681 0)" gradientUnits="userSpaceOnUse">
			<stop  offset="0" style="stop-color:#AE3C19;stop-opacity:0.35"/>
			<stop  offset="0.3192" style="stop-color:#A93C18;stop-opacity:0.25"/>
			<stop  offset="0.6728" style="stop-color:#9C3A16;stop-opacity:8.507574e-02"/>
			<stop  offset="1" style="stop-color:#893813;stop-opacity:0"/>
		</radialGradient>
		<ellipse class="st2" cx="44.1" cy="64.4" rx="19.8" ry="23.4"/>
		<radialGradient id="SVGID_4_" cx="48" cy="48" r="6" gradientUnits="userSpaceOnUse">
			<stop  offset="0" style="stop-color:#fff"/>
			<stop  offset="0.5288" style="stop-color:#BC5735;stop-opacity:0.5"/>
			<stop  offset="1" style="stop-color:#893813;stop-opacity:0"/>
		</radialGradient>
		<circle class="st3" cx="48" cy="48" r="6"/>
		<radialGradient id="SVGID_5_" cx="71.0546" cy="48.1119" r="16.3145" gradientTransform="matrix(1 0 0 0.6977 0 24.4055)" gradientUnits="userSpaceOnUse">
			<stop  offset="0" style="stop-color:#AE3C19;stop-opacity:0.3"/>
			<stop  offset="0.3151" style="stop-color:#A93B18;stop-opacity:0.25"/>
			<stop  offset="0.6946" style="stop-color:#9A3A16;stop-opacity:6.108277e-02"/>
			<stop  offset="1" style="stop-color:#893813;stop-opacity:0"/>
		</radialGradient>
		<ellipse class="st4" cx="71.1" cy="58" rx="16.3" ry="11.4"/>
	</svg>

	<svg id="icon-droid" viewBox="0 0 70 70">
		<style type="text/css">
			.st0{fill:#8884;stroke:#3338;stroke-width:0.5;stroke-miterlimit:10;}
		</style>
		<path class="st0" d="M53.9,42.9H26.4c1.4,2.8,3.5,4.8,5.8,5.8c0,0,0,0.1,0,0.1V49c-4.3-0.6-8-2.9-10.6-6.1h-5.5
			c3.8,3.4,9.5,5.7,16.1,6.2v1.7c0,1.2,1,2.2,2.2,2.2h1.5c1.2,0,2.2-1,2.2-2.2v-1.7C44.5,48.5,50.1,46.2,53.9,42.9z"/>
		<path class="st0" d="M26.6,23h26.9c-4.4-3.7-11-6-18.5-6C31.6,17,28.5,19.3,26.6,23z"/>
		<path class="st0" d="M35,17c-7.5,0-14.2,2.4-18.5,6h5.4C24.9,19.3,29.7,17,35,17z"/>
	</svg>

	<svg id="icon-droid-info" viewBox="0 0 70 70">
		<style type="text/css">
			.st0{fill:none;stroke:#888a;stroke-miterlimit:10;}
			.st1{fill:none;stroke:#4446;stroke-width:0.5;stroke-miterlimit:10;}
			.st2{fill:none;stroke:#4446;stroke-width:0.25;stroke-miterlimit:10;}
			.st3{fill:#4446;stroke:#4446;stroke-width:0.5;stroke-miterlimit:10;}
		</style>
		<path class="st0" d="M46.1,41.6c0,0,0-0.1,0-0.2c0-0.2,0.1-0.6-0.2-0.9l-0.1-0.1c-1.9-2.1-2.4-3-2.5-3.4c-0.2-0.9-0.6-2.5-2.4-3.2
			c5.1-2.3,8.7-7.5,8.7-13.5c0-8.2-6.6-14.8-14.8-14.8S20,12.1,20,20.3c0,5.8,3.3,10.8,8.2,13.2c0,0,0,0.1-0.1,0.1L27.9,34
			c-0.1-0.1-0.2-0.1-0.3-0.2c-0.6-0.2-1.3,0-1.9,0.5c-0.8,0.7-1.6,2-1.4,3.4s-0.3,2.3-0.7,3c-0.2,0.3-0.3,0.6-0.3,0.8v0.3
			c-0.2,1.3-0.5,2.6,0,3.2c-0.3,3.3-0.4,6.5,1.4,9.4c-0.1,0.3-0.2,0.8,0.1,1.2c0,0.1,0.1,0.1,0.2,0.1c0,0.5,0.3,0.8,0.4,0.9
			c0.2,0.2,0.5,0.2,0.7,0.2c0,0,0.1,0,0.1,0.1c-0.4,1.4-0.7,3.1-0.4,3.7c0,0.1,0.1,0.1,0.1,0.1c0,0.3,0.1,0.6,0.2,0.8l0,0
			c0,0,0.1,0.3,0.1,1c0,0.2,0.1,0.4,0.3,0.6c0.7,0.7,2.5,1.4,3.9,1.4h0.1c1.5,0,2.8-0.8,3.4-1.2c0.1,0,0.1-0.1,0.2-0.1
			c0.5-0.3,0.7-0.5,0.5-1.2c0.3-0.5,0.5-1.1,0.4-1.6c0,0,0.1-0.1,0.1-0.2c0.3-0.6,0.4-2.2,0.1-3.1c0.2-0.1,0.6-0.4,0.7-0.7l0,0
			c0,0.1,0,0.2,0.1,0.3c-0.2,0.5-0.5,2-0.5,3v0.1v0.1l0,0c-0.1,0-0.1,0.1-0.2,0.2c0,0.1-0.1,0.3,0.1,0.5c0.4,0.5,5.4,2.6,6.3,2.8
			c0.1,0,0.2,0,0.3,0c1.1,0,2.9-0.6,3.3-0.7c0.7-0.2,0.8-0.7,0.8-1.3c0.3-0.9,0-2.5-1.5-3.5c0-0.2-0.2-0.4-0.3-0.7
			c-0.1-0.1-0.2-0.2-0.3-0.4c-0.2-0.3-0.5-0.6-0.6-1l-0.1-0.5c0.3-0.3,0.5-1,0.7-1.7c0-0.2,0.1-0.3,0.1-0.5c0.4,0,0.7,0,1-0.4v0.1
			c0,0.1-0.1,0.3-0.2,0.5c-0.2,0.4-0.5,0.8-0.3,1.1c0,0.1,0.2,0.2,0.4,0.3c0.1,0,0.2,0,0.4,0c1.1,0,3.3-0.6,4.1-3.5l0,0h0.2l0.1-0.2
			C50.8,47.7,48.2,43.3,46.1,41.6z"/>
		<g>
			<circle class="st1" cx="34.9" cy="20.4" r="14.5"/>
			<path class="st2" d="M20.3,20.4c0-0.8,0.1-1.6,0.2-2.3c0.4-0.9,1-1.4,1.7-1.6c2.1-0.5,4.6,2.8,5.7,7.3c0.9,3.9,0.4,7.5-1.1,8.7
				C22.9,29.9,20.3,25.4,20.3,20.4z"/>
			<path class="st1" d="M49,23.7c-3.1-1.4-8.7-2-21.3-0.7"/>
			<path class="st3" d="M47.8,23.3l-1.3,2.4l-2.6-3.2C45.5,22.6,47.8,23.3,47.8,23.3z"/>
			<polygon class="st3" points="37.6,22.4 34.5,25.7 32,22.7 	"/>
			<path class="st1" d="M39.8,34.1c1,0.6,2.3,2.8,1.7,3.6"/>
			<path class="st1" d="M40.3,33.9c2.1,0.5,2.5,2.3,2.8,3.3c0.2,1,2.2,3.1,2.6,3.6c0.4,0.4,0,0.9,0.2,1.1c2.3,1.9,4.6,6.1,3.5,9.1
				c-0.7,0,0.1-2-2-2.6s-2.8,0.7-3,1c0,0,0.2-1.1-0.2-1.7c0.3-0.3,0.1-1.2-0.3-1.7c0.2-0.2,0.1-1.2-0.4-3.2s-2.4-6-4.5-8.4"/>
			<path class="st1" d="M43.1,41.1c1-0.5,2.2-0.6,2.4,0.4c-0.8-0.2-1.7,0-2.2,0.3C43.2,41.5,43.1,41.1,43.1,41.1z"/>
			<path class="st1" d="M39.1,34.5c0.5,0.8-1.6,4.4-7.4,0.1"/>
			<path class="st1" d="M28.7,33.5c-0.1,0-0.1,0.1-0.3,0.3c3.3,2,3.6,6.6,1,7.9c0.4,0.8,0.4,1.3,0.2,1.7c1.1,1.2,1.3,5.2,1.2,6.8
				s-4.3,4.4-5.8,4c-1.7-2.8-1.7-5.9-1.4-9.4c-0.6-0.5-0.1-2.6,0-3.3s1.2-1.8,1-3.9s1.6-4.1,3-3.6c0.8,0.3,1.9,2.5,1.8,4.1
				s-0.6,1.8-0.5,2.1c0,0.3,0.4,0.9,0.5,1.2"/>
			<line class="st1" x1="28.4" y1="33.9" x2="27.9" y2="34.3"/>
			<path class="st1" d="M23.5,44.9c0.5,0.4,1.2,0.1,1.9-1.5c0.7-1.6,1.1-1.7,2.2-1.6c1.1,0,1.5,0.4,1.5,1s-1.1,2-3.6,0.3"/>
			<path class="st1" d="M30.3,45.5c1.3-0.2,2.7-0.9,4.7-2.9c0.9-0.5,1-0.7,3.1-0.8c2-0.1,2.7-0.3,3.2,0s3,3.2,2,3.3
				c-0.1-0.4-0.1-0.7-0.8-0.4C41.8,44.9,38.8,46,32,45"/>
			<path class="st1" d="M44.2,47.6c-2,0.8-7.8,2.1-13.6-0.5"/>
			<path class="st1" d="M43.1,48c-0.2,2-3.5,6.7-7.4,6c0-1.4-3.2-5.1-4.9-5.3"/>
			<path class="st1" d="M30.8,50.1c0.6,1.1,3.8,3.8,4.9,3.9c0,1.2,0.1,2,0,2.2s-0.5,0.5-0.8,0.7c0.4,0.9,0.2,3.2-0.2,3.3
				c0.2,0.7-0.4,1.9-0.7,2.1c-0.3,0.2-2.1,1.3-3.9,1.2c-1.8,0-3.9-0.9-3.9-3.1c-0.5-0.1-0.3-1.6,0.3-3.6"/>
			<path class="st1" d="M43.9,52.7c-0.3,0.9-0.4,2.1-0.9,2.4c0,1.1,1.5,2.2,1.2,2.6c1.6,0.9,2,2.6,1.6,3.4c-0.4,0.8-3.7,1.2-4.3,1.1
				c-0.6-0.1-5.3-1.8-5.9-2.7c0-1.1,0.4-2.8,0.5-2.9c-0.2-0.7-0.4-1.7-0.2-2.5"/>
			<path class="st1" d="M45.9,61.1c0,0.6,0,0.9-0.6,1.1c-0.6,0.2-2.6,0.8-3.5,0.7s-5.8-2.3-6.2-2.7s0.3-0.5,0.3-0.5"/>
			<path class="st1" d="M34.2,61.9c0.2,0.7,0.1,0.8-0.3,1.1c-0.4,0.2-1.9,1.3-3.6,1.3c-1.6,0-4-1-4-1.8s-0.1-1.1-0.1-1.1"/>
			<path class="st1" d="M34.6,60.1c-0.2-1.2-0.6-2.1-0.9-2.2s-6.6-0.2-6.9,0.6s-0.7,1.9-0.7,1.9"/>
			<path class="st1" d="M34.3,58.7c-0.5-0.4-0.9-0.4-1.4-0.2s-3.4,1.2-5.9,0.2"/>
			<path class="st1" d="M34.9,56.8c-0.2-0.8-0.6-1.5-1.1-1.4S30.5,56,29,55.8"/>
			<path class="st1" d="M44.3,57.7c-0.7-0.5-0.9-0.1-2.7,0s-2.3,0.2-2.8,0.6"/>
			<path class="st1" d="M36.2,56.5c0.6,0.8,0.9,0.6,1.8-0.4c0.8-1,0.9-1.6,1.8-1.6s1.5-0.3,2.3-0.2s0.9,0.8,0.9,0.8
				c-0.4-0.7-1.6-0.3-2.3-0.2c-0.8,0.1-1.6-0.2-1.9,0.2"/>
			<path class="st1" d="M36.2,59.9c1.3,0.4,1.7,0,2.3-1s0.4-1.5,1.3-1.4s2.2,0.2,3.3-0.5c1-0.7,1.4,0.8,1.4,0.8"/>
			<path class="st1" d="M42,42.4c-1.1,0.5-3.6,1.1-7.3,0.6"/>
			<path class="st1" d="M42.5,43.2c-0.6,0.4-2.5,1.6-8.9,0.8"/>
			<path class="st1" d="M25.9,42.6c1.4,0.7,3.3,0.2,3.3,0.2"/>
			<path class="st1" d="M30,51.7c0.7,0.3,0.5,0.7,0.6,1.3s0.1,0.6,0,1.3s-0.2,1.6-0.6,1.6s-0.7-0.8-0.8-1.4s-0.8-1-0.8-0.2
				c-0.1,0.8,0,1.8,0.6,2s0.9,0.7-0.2,0.7s-1.2-0.2-1.4-0.4c-0.4,0.4-0.9,0.2-1.2-0.2c-0.3,0.1-1,0-0.9-1c-0.5,0-0.2-1.1-0.2-1.1"/>
			<path class="st1" d="M44.3,49.5c-0.4,0.8-1.1,3.3-0.5,3.3c0.6-0.1,1.2,0.5,1.5-1.6c0.6-0.5,0.7-0.5,0.9-0.1s0.2,0.9-0.4,1
				c-0.5,0-0.5,0.4-0.5,0.8c0,0.4-1.1,1.5-0.4,1.6c0.7,0.1,3.5,0,4.2-3.6"/>
		</g>
	</svg>

	<svg id="icon-tre-kronor" viewBox="0 0 32 32">
		<style type="text/css">
			.st0{fill:#777;stroke:#777a;stroke-linejoin:round;stroke-miterlimit:10;}
		</style>
		<path class="st0" d="M10.4,25.6c0,0,9.7,0,10.7,0c0-1.5,1.4-6.6,2-7.5c-0.6,0.6-3.1,2.5-3.1,2.5l0.7,1.5h-3.6l1.2-1.6l-2.7-3.1
			L13,20.3l1.3,1.6h-3.6l0.9-1.6c0,0-2.5-1.9-3.2-2.5C9.2,19.4,10.4,24.2,10.4,25.6z"/>
		<path class="st0" d="M20,14.1c0,0,8.9,0,9.8,0c0-1.4,1.2-6,1.8-6.9c-0.6,0.5-2.8,2.2-2.8,2.2l0.7,1.3h-3.3l1.1-1.5l-2.5-2.8
			l-2.5,2.8l1.2,1.5h-3.3l0.8-1.5c0,0-2.2-1.7-2.9-2.2C19,8.3,20.1,12.8,20,14.1z"/>
		<path class="st0" d="M2.2,14.1c0,0,8.9,0,9.8,0c0-1.4,1.2-6,1.8-6.9C13.2,7.7,11,9.4,11,9.4l0.7,1.3H8.3l1.1-1.5L7,6.4L4.6,9.2
			l1.2,1.5H2.5l0.8-1.5c0,0-2.2-1.7-2.9-2.2C1.1,8.3,2.3,12.8,2.2,14.1z"/>
	</svg>

	<svg id="icon-level" viewBox="0 0 70 70">
<style type="text/css">
	.st0{fill:#fff2;stroke:#666a;stroke-miterlimit:10;}
	.st1{fill:#ddd7;stroke:#888a;stroke-width:0.5;stroke-miterlimit:10;}
	.st2{fill:none;stroke:#888a;stroke-linejoin:round;stroke-miterlimit:10;}
	.st3{fill:#8889;}
</style>
<path class="st0" d="M63.6,17.5H24.7c-0.6,0-1,0.4-1,1v1.9H6.4c-0.6,0-1,0.4-1,1v9c0,0.6,0.4,1,1,1h26.4v1.4l0,0v6H6.4
	c-0.6,0-1,0.4-1,1v9c0,0.6,0.4,1,1,1h17.2v1.6c0,0.6,0.4,1,1,1h39c0.6,0,1-0.4,1-1V18.5C64.6,17.9,64.2,17.5,63.6,17.5z"/>
<path class="st1" d="M62.8,41H51.2v2h11.7v7.3H48.7V43h0.2v-2h-0.2v-0.2h-2V41h-0.2v2h0.2v7.2H34.8v-4.8h-2v4.8h-7.2v-1.6
	c0-0.6-0.4-1-1-1H7.4v-7h25.4v0.7V42v1.1h2V43h8.3h0.1h0.9v-2l0,0v-7.2h2.6v3.6c0,0.6,0.4,1,1,1l0,0h10.4h1.1h1.1v-2h-0.1v-12v-0.9
	v-1.1h-2v0.1h-7.1v2h7.1v11.9h-9.6v-3.6v-8.3h0.2v-2h-1.2H47h-8.5c-0.6,0-1,0.4-1,1v1.2h2v-0.2h7.3v7.3h-3.5h-0.1h-3.6V27h-2v4.7
	h-0.1v2h1h0.1h3.6V41h-7.3v-1.2l0,0v-9.4c0-0.6-0.4-1-1-1h-8.2V27h-2v2.3H7.4v-7h16.2v2.4h2v-3.4v-1.6h37.2v17.6
	C62.8,37.3,62.8,41,62.8,41z"/>
<g>
	<line class="st2" x1="24.7" y1="24.7" x2="24.7" y2="27"/>
	<line class="st2" x1="38.5" y1="24.7" x2="38.5" y2="27"/>
	<line class="st2" x1="33.8" y1="43.2" x2="33.8" y2="45.6"/>
	<line class="st2" x1="47.7" y1="38.6" x2="47.7" y2="40.9"/>
	<line class="st2" x1="37.3" y1="32.8" x2="35" y2="32.8"/>
	<line class="st2" x1="59.2" y1="19.9" x2="59.2" y2="22.2"/>
	<line class="st2" x1="51.1" y1="23.5" x2="48.8" y2="23.5"/>
	<line class="st2" x1="62.6" y1="37.3" x2="60.2" y2="37.3"/>
	<line class="st2" x1="51.1" y1="42" x2="48.8" y2="42"/>
	<line class="st2" x1="46.5" y1="42" x2="44.2" y2="42"/>
</g>
<rect x="37.6" y="45.8" class="st3" width="1.7" height="1.7"/>
<rect x="42.3" y="45.8" class="st3" width="1.7" height="1.7"/>
<rect x="33" y="22.7" class="st3" width="1.7" height="1.7"/>
<path class="st3" d="M20.4,45.1h-0.7c-0.3,0-0.5-0.2-0.5-0.5v-0.7c0-0.3,0.2-0.5,0.5-0.5h0.7c0.3,0,0.5,0.2,0.5,0.5v0.7
	C20.8,44.9,20.6,45.1,20.4,45.1z"/>
<path class="st3" d="M13.5,45.1h-0.7c-0.3,0-0.5-0.2-0.5-0.5v-0.7c0-0.3,0.2-0.5,0.5-0.5h0.7c0.3,0,0.5,0.2,0.5,0.5v0.7
	C14,44.9,13.7,45.1,13.5,45.1z"/>
<path class="st3" d="M11.2,45.1h-0.7c-0.3,0-0.5-0.2-0.5-0.5v-0.7c0-0.3,0.2-0.5,0.5-0.5h0.7c0.3,0,0.5,0.2,0.5,0.5v0.7
	C11.7,44.9,11.5,45.1,11.2,45.1z"/>
<path class="st3" d="M9,45.1H8.2c-0.3,0-0.5-0.2-0.5-0.5v-0.7c0-0.3,0.2-0.5,0.5-0.5H9c0.3,0,0.5,0.2,0.5,0.5v0.7
	C9.4,44.9,9.2,45.1,9,45.1z"/>
<path class="st3" d="M11.2,42.9h-0.7c-0.3,0-0.5-0.2-0.5-0.5v-0.7c0-0.3,0.2-0.5,0.5-0.5h0.7c0.3,0,0.5,0.2,0.5,0.5v0.7
	C11.7,42.7,11.5,42.9,11.2,42.9z"/>
<path class="st3" d="M15.8,24.4H15c-0.3,0-0.5-0.2-0.5-0.5v-0.7c0-0.3,0.2-0.5,0.5-0.5h0.7c0.3,0,0.5,0.2,0.5,0.5v0.7
	C16.2,24.2,16,24.4,15.8,24.4z"/>
<path class="st3" d="M40.8,40.5L40.8,40.5c-0.5,0-0.8-0.4-0.8-0.8l0,0c0-0.5,0.4-0.8,0.8-0.8l0,0c0.5,0,0.8,0.4,0.8,0.8l0,0
	C41.6,40.1,41.2,40.5,40.8,40.5z"/>
<path class="st3" d="M27,49.8L27,49.8c-0.5,0-0.8-0.4-0.8-0.8l0,0c0-0.5,0.4-0.8,0.8-0.8l0,0c0.5,0,0.8,0.4,0.8,0.8l0,0
	C27.8,49.4,27.5,49.8,27,49.8z"/>
<path class="st3" d="M56.9,35.9L56.9,35.9c-0.5,0-0.8-0.4-0.8-0.8l0,0c0-0.5,0.4-0.8,0.8-0.8l0,0c0.5,0,0.8,0.4,0.8,0.8l0,0
	C57.7,35.5,57.3,35.9,56.9,35.9z"/>
<polygon class="st3" points="44,25.1 44,26.3 44.6,26.3 44.6,25.8 45.6,25.8 45.6,26.3 46.2,26.3 46.2,25.1 "/>
<polygon class="st3" points="57.7,29.3 56.5,29.3 56.5,30 57,30 57,30.9 56.5,30.9 56.5,31.5 57.7,31.5 "/>
<polygon class="st3" points="62.3,47.6 61,47.6 61,48.2 61.6,48.2 61.6,49.2 61,49.2 61,49.8 62.3,49.8 "/>
<polygon class="st3" points="32.4,49.7 32.4,48.5 31.8,48.5 31.8,49 30.8,49 30.8,48.5 30.2,48.5 30.2,49.7 "/>
<polygon class="st3" points="10.2,28.8 10.2,27.5 9.6,27.5 9.6,28.1 8.6,28.1 8.6,27.5 8,27.5 8,28.8 "/>
	</svg>

	<svg id="icon-ship" viewBox="0 0 70 70">
		<style type="text/css">
			.st0{opacity:0.6;fill:none;stroke:#111;stroke-width:0.1;stroke-miterlimit:10;enable-background:new    ;}
			.st1{opacity:0.6;fill:none;stroke:#111;stroke-width:0.1;stroke-linejoin:round;stroke-miterlimit:10;enable-background:new    ;}
			.st2{fill:none;stroke:#111;stroke-width:0.3;stroke-miterlimit:10;}
		</style>
		<polygon class="st0" points="40.4,43.6 40.4,28.9 56.8,30.7 56.8,43.6 "/>
		<polygon class="st0" points="68.7,35.3 56.8,30.7 56.8,43.6 68.7,41.8 "/>
		<polygon class="st0" points="69.4,35.9 69.4,41 68.7,41.8 68.7,35.3 "/>
		<path class="st1" d="M40.4,43.6h-0.9v-3.4h-7l-4.1-5.3l5.2,3.6h0.5l0.5-1.4h4.3v-0.6l-4.5,0.1c0,0-0.6-0.9-0.6-2.8
			c0-1.9,0.1-2.7,0.1-2.7l4.5,0.6v-0.3L34,30.9l0.5-1.7h5.9v14.5H40.4z"/>
		<polygon class="st1" points="42.5,29.1 34.9,25.4 31.8,25.4 31.8,29.4 40.4,29.4 40.4,28.9 "/>
		<polygon class="st0" points="39.8,28.8 32.4,28.8 32.4,26 34.9,26 "/>
		<path class="st0" d="M31.8,29.4h-3.2v5.6l5.4,3.2l0.3-1c0,0-0.6-1.3-0.8-1.7c-0.3-1-0.1-3.7,0-4.5c0.1-0.6,0.8-1.7,0.8-1.7h-2.4v0.2
			H31.8z"/>
		<polygon class="st0" points="39.5,42.8 28.7,44.3 28.7,40.4 39.5,40.4 "/>
		<polygon class="st0" points="28.7,45.3 39.5,43.6 39.5,42.8 28.7,44.3 "/>
		<rect x="8.1" y="44.1" class="st0" width="20.8" height="1.3"/>
		<polygon class="st0" points="28.7,40.4 28.7,44.1 7.1,44.1 4.7,43.6 1.4,40.4 1.4,39.6 3.8,39.6 3.8,40.5 14.8,40.4 14.6,43.6 
			22.8,43.6 22.8,40.4 "/>
		<rect x="15.1" y="40.4" class="st0" width="7.4" height="2.9"/>
		<polygon class="st0" points="8.1,45.3 4.6,44.7 0.6,40.9 0.6,38.1 1.4,37.4 1.4,40.4 4.7,43.6 7.1,44.1 8.1,44.1 "/>
		<polygon class="st0" points="8.8,40.4 8.8,38.2 1.4,38.2 1.4,37.4 8.8,37.4 9.7,38.3 9.7,40 13.1,39.9 13.1,34.5 16.3,32.2 
			16.3,31.7 23.3,31.7 23.8,34.8 26.5,34.8 27.5,35.4 27.5,39.6 26.7,40.4 22.9,40.4 22.9,32 16.7,32 16.7,40 14.8,40 14.8,40.4 "/>
		<polygon class="st0" points="13.4,39.9 13.4,34.9 16.3,34.5 16.3,39.6 14.5,39.6 14.5,40 "/>
		<rect x="23.9" y="34.9" class="st0" width="2.7" height="5.1"/>
		<polygon class="st0" points="32,40 28.5,35.4 27.8,35.4 27.8,39.6 28.3,40 "/>
		<rect x="40.9" y="41.8" class="st0" width="15.6" height="0.6"/>
		<polygon class="st0" points="57.1,41.8 57.1,42.5 68.5,40.5 68.5,39.9 "/>
		<polygon class="st0" points="13.1,34.9 11.6,34.9 10.7,35.8 10.7,36.3 11.6,37 10.8,37.6 10.9,39 11.8,39.5 13.1,39.5 "/>
		<polygon class="st0" points="12.6,39 11.2,38.7 11.2,38.2 12.6,38.3 "/>
		<polygon class="st0" points="12.6,37.8 12.6,37.3 11.8,37.3 11.2,37.6 11.2,37.8 "/>
		<polygon class="st0" points="12.7,35.3 12.7,35.9 10.9,35.9 11.7,35.3 "/>
		<polygon class="st0" points="12.7,36.2 12.7,36.8 11.8,36.8 10.9,36.2 "/>
		<polygon class="st0" points="9,38.2 9,40 9.4,40 9.4,38.5 "/>
		<rect x="3.9" y="39.6" class="st0" width="4.5" height="0.5"/>
		<polygon class="st0" points="15.3,42.9 15.5,42.9 15.5,41 21.9,41 21.9,42.9 22.2,42.9 22.2,40.6 15.3,40.6 "/>
		<polygon class="st0" points="15.9,32.4 8.1,31.7 8.1,31.1 8.9,30.7 21.6,30.8 25.6,31.9 27.6,35.2 27.6,35.3 26.4,34.5 23.9,34.7 
			23.4,31.6 16.3,31.5 16.3,32.2 "/>
		<polygon class="st0" points="8.3,31 7.2,30.3 6.7,29.7 11.6,29.7 11.6,30.7 8.9,30.7 "/>
		<polygon class="st0" points="11.8,30.7 11.8,29.7 18.2,29.7 18.2,30.7 "/>
		<polygon class="st0" points="18.3,30.7 18.3,29.7 21.6,29.7 21.6,30.7 "/>
		<polygon class="st0" points="21.8,29.7 21.8,30.7 25.6,31.6 25.6,29.7 "/>
		<polygon class="st0" points="28.5,29.7 25.7,29.7 25.7,31.7 27.9,35.2 28.5,35.2 "/>
		<polygon class="st0" points="28.5,29.4 28.5,25.1 28.3,24.6 25.6,24.6 25.6,29.6 28.5,29.6 "/>
		<path class="st0" d="M25.5,29.6c0,0,0-4.2,0-5c-1.5,0-3.1,0.3-3.7,0.5v4.5C21.8,29.6,25.5,29.6,25.5,29.6z"/>
		<polygon class="st0" points="21.6,29.6 18.3,29.6 18.3,25.6 21.6,25.2 "/>
		<polygon class="st0" points="18.2,29.6 18.2,25.6 11.8,25.7 11.8,29.6 "/>
		<polygon class="st0" points="11.6,29.6 11.6,25.7 7.9,28.8 6.9,29.1 6.6,29.6 "/>
		<polygon id="outline" class="st2" points="68.7,41.8 69.4,41 69.4,35.9 68.7,35.3 56.8,30.7 42.5,29.1 34.9,25.4 31.8,25.4 
			31.8,29.4 28.5,29.4 28.5,25.1 28.3,24.6 25.6,24.6 23.9,24.6 21.8,25.1 18.3,25.6 11.6,25.7 7.9,28.8 6.9,29.1 6.6,29.6 7.2,30.3 
			8.3,31 8.1,31.7 16.2,32.5 13.1,34.5 13.1,34.9 11.6,34.9 10.7,35.8 10.7,36.3 11.6,37 10.8,37.6 10.9,39 11.8,39.5 13.1,39.5 
			13.1,39.9 9.7,40 9.7,38.3 8.8,37.4 1.4,37.4 0.6,38.1 0.6,40.9 4.6,44.7 8.1,45.3 28.7,45.3 39.5,43.6 40.4,43.6 56.8,43.6 "/>
	</svg>

	<svg id="droid" viewBox="0 0 405 45" size="keep">
		<style type="text/css">
			.st0{fill:#333;}
		</style>
		<g id="_x31_">
			<path class="st0" d="M23.5,38.6H22c-1.2,0-2.2-1-2.2,0.2v2c0,1.2,1,2.2,2.2,2.2h1.5c1.2,0,2.2-1,2.2-2.2v-2
				C25.7,37.6,24.7,38.6,23.5,38.6z"/>
			<path class="st0" d="M7.1,32.9H3.7c4.3,3.9,11.2,6.3,18.9,6.3C16.3,39.3,10.6,36.8,7.1,32.9z"/>
			<path class="st0" d="M11.1,32.9c2.6,3.9,6.8,6.3,11.5,6.3c7.7,0,14.5-2.5,18.9-6.3C41.5,32.9,11.1,32.9,11.1,32.9z"/>
			<path class="st0" d="M11.3,13h29.8c-4.4-3.7-11-6-18.5-6C18,7,14,9.3,11.3,13z"/>
			<path class="st0" d="M22.6,7C15.1,7,8.4,9.4,4.1,13h3.3C10.9,9.3,16.4,7,22.6,7z"/>
		</g>
		<g id="_x32_">
			<path class="st0" d="M68.5,38.6H67c-1.2,0-2.2-1-2.2,0.2v2c0,1.2,1,2.2,2.2,2.2h1.5c1.2,0,2.2-1,2.2-2.2v-2
				C70.7,37.6,69.7,38.6,68.5,38.6z"/>
			<path class="st0" d="M54.2,32.9h-5.5c4.3,3.9,11.2,6.3,18.9,6.3C62.1,39.3,57.3,36.8,54.2,32.9z"/>
			<path class="st0" d="M59,32.9c2,3.9,5.1,6.3,8.6,6.3c7.7,0,14.5-2.5,18.9-6.3C86.5,32.9,59,32.9,59,32.9z"/>
			<path class="st0" d="M59.2,13h26.9c-4.4-3.7-11-6-18.5-6C64.2,7,61.1,9.3,59.2,13z"/>
			<path class="st0" d="M67.6,7c-7.5,0-14.2,2.4-18.5,6h5.4C57.5,9.3,62.3,7,67.6,7z"/>
		</g>
		<g id="_x33_">
			<path class="st0" d="M113.5,38.6H112c-1.2,0-2.2-1-2.2,0.2v2c0,1.2,1,2.2,2.2,2.2h1.5c1.2,0,2.2-1,2.2-2.2v-2
				C115.7,37.6,114.7,38.6,113.5,38.6z"/>
			<path class="st0" d="M104.1,32.9H93.7c4.3,3.9,11.2,6.3,18.9,6.3C109.1,39.3,106,36.8,104.1,32.9z"/>
			<path class="st0" d="M109,32.9c0.8,3.9,2.1,6.3,3.6,6.3c7.7,0,14.5-2.5,18.9-6.3C131.5,32.9,109,32.9,109,32.9z"/>
			<path class="st0" d="M109.1,13h22c-4.4-3.7-11-6-18.5-6C111.2,7,109.9,9.3,109.1,13z"/>
			<path class="st0" d="M112.6,7c-7.5,0-14.2,2.4-18.5,6h10.2C106.2,9.3,109.2,7,112.6,7z"/>
		</g>
		<g id="_x34_">
			<path class="st0" d="M158.5,38.6H157c-1.2,0-2.2-1-2.2,0.2v2c0,1.2,1,2.2,2.2,2.2h1.5c1.2,0,2.2-1,2.2-2.2v-2
				C160.7,37.6,159.7,38.6,158.5,38.6z"/>
			<path class="st0" d="M158.7,13h17.4c-4.4-3.7-11-6-18.5-6c0.4,0,0.7,0.1,1.1,0.3V13z"/>
			<path class="st0" d="M157.6,7c-7.5,0-14.2,2.4-18.5,6h14.2C154.3,9.3,155.8,7,157.6,7z"/>
			<path class="st0" d="M153.2,32.9h-14.5c4.3,3.9,11.2,6.3,18.9,6.3C155.8,39.3,154.2,36.8,153.2,32.9z"/>
			<path class="st0" d="M158.7,32.9v6c-0.4,0.2-0.7,0.3-1.1,0.3c7.7,0,14.5-2.5,18.9-6.3C176.5,32.9,158.7,32.9,158.7,32.9z"/>
		</g>
		<g id="_x35_">
			<path class="st0" d="M203.5,38.6H202c-1.2,0-2.2-1-2.2,0.2v2c0,1.2,1,2.2,2.2,2.2h1.5c1.2,0,2.2-1,2.2-2.2v-2
				C205.7,37.6,204.7,38.6,203.5,38.6z"/>
			<path class="st0" d="M207.2,32.9c-1.1,3.9-2.8,6.3-4.7,6.3c7.7,0,14.5-2.5,18.9-6.3C221.4,32.9,207.2,32.9,207.2,32.9z"/>
			<path class="st0" d="M201.8,32.9h-18.1c4.3,3.9,11.2,6.3,18.9,6.3c-0.3,0-0.6-0.1-0.8-0.2L201.8,32.9L201.8,32.9z"/>
			<path class="st0" d="M207.2,13h13.9c-4.4-3.7-11-6-18.5-6C204.4,7,206.1,9.3,207.2,13z"/>
			<path class="st0" d="M201.8,7.2c0.3-0.1,0.5-0.2,0.8-0.2c-7.5,0-14.2,2.4-18.5,6h17.7V7.2z"/>
		</g>
		<g id="_x36_">
			<path class="st0" d="M248.5,38.6H247c-1.2,0-2.2-1-2.2,0.2v2c0,1.2,1,2.2,2.2,2.2h1.5c1.2,0,2.2-1,2.2-2.2v-2
				C250.7,37.6,249.7,38.6,248.5,38.6z"/>
			<path class="st0" d="M251.1,32.9h-22.4c4.3,3.9,11.2,6.3,18.9,6.3C249,39.3,250.3,36.8,251.1,32.9z"/>
			<path class="st0" d="M256.1,32.9c-2,3.9-5,6.3-8.5,6.3c7.7,0,14.5-2.5,18.9-6.3C266.5,32.9,256.1,32.9,256.1,32.9z"/>
			<path class="st0" d="M255.9,13h10.2c-4.4-3.7-11-6-18.5-6C251,7,254,9.3,255.9,13z"/>
			<path class="st0" d="M247.6,7c-7.5,0-14.2,2.4-18.5,6h22C250.3,9.3,249,7,247.6,7z"/>
		</g>
		<g id="_x37_">
			<path class="st0" d="M293.7,38.6h-1.5c-1.2,0-2.2-1-2.2,0.2v2c0,1.2,1,2.2,2.2,2.2h1.5c1.2,0,2.2-1,2.2-2.2v-2
				C295.9,37.6,294.9,38.6,293.7,38.6z"/>
			<path class="st0" d="M301.4,32.9h-27.5c4.3,3.9,11.2,6.3,18.9,6.3C296.3,39.3,299.4,36.8,301.4,32.9z"/>
			<path class="st0" d="M306.2,32.9c-3.1,3.9-7.9,6.3-13.4,6.3c7.7,0,14.5-2.5,18.9-6.3C311.7,32.9,306.2,32.9,306.2,32.9z"/>
			<path class="st0" d="M305.9,13h5.4c-4.4-3.7-11-6-18.5-6C298.1,7,302.8,9.3,305.9,13z"/>
			<path class="st0" d="M292.8,7c-7.5,0-14.2,2.4-18.5,6h26.9C299.2,9.3,296.2,7,292.8,7z"/>
		</g>
		<g id="_x38_">
			<path class="st0" d="M338.5,38.6H337c-1.2,0-2.2-1-2.2,0.2v2c0,1.2,1,2.2,2.2,2.2h1.5c1.2,0,2.2-1,2.2-2.2v-2
				C340.7,37.6,339.7,38.6,338.5,38.6z"/>
			<path class="st0" d="M349.1,32.9h-30.4c4.3,3.9,11.2,6.3,18.9,6.3C342.3,39.3,346.4,36.8,349.1,32.9z"/>
			<path class="st0" d="M337.6,39.3c7.7,0,14.5-2.5,18.9-6.3h-3.4C349.5,36.8,343.9,39.3,337.6,39.3z"/>
			<path class="st0" d="M352.8,13h3.3c-4.4-3.7-11-6-18.5-6C343.7,7,349.2,9.3,352.8,13z"/>
			<path class="st0" d="M337.6,7c-7.5,0-14.2,2.4-18.5,6h29.8C346.2,9.3,342.1,7,337.6,7z"/>
		</g>
		<g id="_x39_">
			<path class="st0" d="M383.6,38.6h-1.5c-1.2,0-2.2-1-2.2,0.2v2c0,1.2,1,2.2,2.2,2.2h1.5c1.2,0,2.2-1,2.2-2.2v-2
				C385.8,37.6,384.8,38.6,383.6,38.6z"/>
			<path class="st0" d="M382.7,39.3c7.7,0,14.6-2.5,18.9-6.4h-37.8C368.1,36.8,375,39.3,382.7,39.3"/>
			<path class="st0" d="M401.2,13c-4.4-3.7-11-6-18.5-6l0,0c-7.5,0-14.2,2.4-18.5,6H401.2z"/>
		</g>
	</svg>

	<svg id="droid-digits" viewBox="0 0 140 16">
		<style type="text/css">
			.st0{fill:#333;}
		</style>
		<path id="_x38_" class="st0" d="M113.6,7.7c-1,0.8-1.6,1.7-1.6,3c0,2.7,3,5.2,6.9,5.2s7.1-2.4,7.1-5.2c0-1.2-0.6-2.2-1.6-2.9
			c0.9-0.7,1.6-1.7,1.6-2.9c0-2.7-3-4.9-7-4.9s-7,2.1-7,4.8C112,6.2,112.6,7.2,113.6,7.7z M122.4,10.8c0,0.8-1.4,1.8-3.4,1.8
			c-2.2,0-3.4-0.8-3.4-1.8C115.6,10,117,9,119,9C121.1,9.1,122.4,10.1,122.4,10.8z M119,3.2c2.2,0,3.4,0.8,3.4,1.7S121,6.6,119,6.6
			c-2.1,0.1-3.6-0.8-3.6-1.7C115.4,4.1,116.9,3.2,119,3.2z"/>
		<g id="_x37_">
			<rect x="98" class="st0" width="14" height="4"/>
			<polygon class="st0" points="100,16 105.6,16 110.8,6.2 105.2,6.2 	"/>
		</g>
		<path id="_x39_" class="st0" d="M130.9,12.9l-3.1,3.1h5.3l4.6-4.5c1.5-1.5,2.3-3,2.3-4.9c0-3.7-3.1-6.6-7-6.6s-7,2.9-7,6.6
			C126,9.5,128,12,130.9,12.9z M133,3.7c1.7,0,3.1,1.3,3.1,2.9s-1.4,2.9-3.1,2.9s-3.1-1.3-3.1-2.9S131.3,3.7,133,3.7z"/>
		<path id="_x36__1_" class="st0" d="M93.1,3.1L96.2,0h-5.3l-4.6,4.5C84.8,6,84,7.5,84,9.4c0,3.7,3.1,6.6,7,6.6c3.9,0,7-2.9,7-6.6
			C98,6.5,96,4,93.1,3.1z M91,12c-1.7,0-3.1-1.3-3.1-2.9s1.4-2.9,3.1-2.9c1.7,0,3.1,1.3,3.1,2.9S92.7,12,91,12z"/>
		<g id="_x35_">
			<path class="st0" d="M84,4V0H70v10.1h14c0-2.4-2.1-3.9-4.8-3.9l0,0H74V4H84z"/>
			<path class="st0" d="M79,12h-9v4h9l0,0c2.7,0,5-1.5,5-4H79L79,12z"/>
		</g>
		<g id="_x34_">
			<rect x="62" y="12" class="st0" width="6" height="4"/>
			<polygon class="st0" points="62.4,6.2 69.5,0 63.1,0 56,6.2 56,10.1 70,10.1 70,6.2 	"/>
		</g>
		<g id="_x33_">
			<polygon class="st0" points="42,0 56,0 51.6,4 42,4 	"/>
			<path class="st0" d="M42,12v4h9l0,0c2.7,0,5-2,5-4l0,0v-2l0,0c0-2.4-2.4-3.8-5-3.8l0,0h-4l-5,3.9h9.9V12H42z"/>
		</g>
		<g id="_x32_">
			<rect x="28" y="12" class="st0" width="14" height="4"/>
			<path class="st0" d="M37.9,4H28V0h9l0,0c2.7,0,5.1,1.5,5,4l0,0l0,2.2l0,0c0,2.4-2.2,3.9-4.8,3.9l0,0H28l5-3.9h4.9L37.9,4z"/>
		</g>
		<polygon id="_x31_" class="st0" points="19.7,0 15.2,4 19.7,4 19.7,16 24.8,16 24.8,0 "/>
		<g id="_x30_">
			<path class="st0" d="M10,6.2c0,0.1,0,0.2,0,0.4v3.2c0,1.3-1,2.4-2.4,2.4H6.4c-1.3-0.1-2.3-1.1-2.3-2.4V6.6c0-0.1,0-0.3,0-0.4H0l0,0
				v4C0,13.4,2.7,16,6,16h2c3.2,0,6-2.6,6-5.9V6.2l0,0C13.9,6.2,10,6.2,10,6.2z"/>
			<path class="st0" d="M6.4,4h1.2h6.1c-0.8-2.3-3-4-5.7-4H6C3.5,0,1.3,1.7,0.6,4H6.4z"/>
		</g>
	</svg>

	<svg id="toggler" viewBox="0 0 37 16">
		<style type="text/css">
			.st0{fill:none;stroke:#2292f9;stroke-width:2.5;stroke-miterlimit:10;}
			.st1{fill:#2292f9;}
		</style>
		<line class="st0" x1="22.2" y1="8" x2="8.9" y2="8"/>
		<path class="st1" d="M33.5,11.2c-1,1.4-2.6,2.3-4.5,2.3c-3,0-5.5-2.5-5.5-5.5S26,2.5,29,2.5c1.9,0,3.5,0.9,4.5,2.3h2.9
			C35.1,2,32.3,0,29,0c-4.4,0-8,3.6-8,8c0,4.4,3.6,8,8,8c3.3,0,6.1-2,7.4-4.8H33.5z"/>
	</svg>

</svg>