<svg xmlns="http://www.w3.org/2000/svg" width="0" height="0">

@import "tiles-32.svg"
@import "3001.svg"

@import "bp/999.svg"
@import "bp/123.svg"
@import "bp/139.svg"
@import "bp/247.svg"
@import "bp/249.svg"
@import "bp/296.svg"
@import "bp/302.svg"
@import "bp/329.svg"
@import "bp/420.svg"
@import "bp/476.svg"
@import "bp/493.svg"
@import "bp/516.svg"
@import "bp/571.svg"
@import "bp/598.svg"
@import "bp/614.svg"
@import "bp/615.svg"
@import "bp/629.svg"
@import "bp/711.svg"
@import "bp/742.svg"
@import "bp/751.svg"
@import "bp/821.svg"
@import "bp/834.svg"
@import "bp/883.svg"

	<svg id="droid-mask" viewBox="0 0 44 33" cache="keep">
		<path d="M43.7,13.8C42,6,32.9,0,22,0C11.1,0,2.1,5.9,0.3,13.7v5.5C2.1,27.1,11.1,33,22,33c10.9,0,20-6,21.7-13.8V13.8z"/>
	</svg>

	<svg id="logo-p" viewBox="0 0 94 68">
		<style type="text/css">
			.st0{fill:#eee;}
		</style>
		<path class="st0" d="M88.2,0.2H36.9h-4.3H5.4c-2.8,0-5.1,2.2-5.1,5.1v57.3c0,2.8,2.2,5.1,5.1,5.1H37c2.8,0,5.1-2.2,5.1-5.1
			v-2.5c0-2.7,2.2-4.9,5.1-4.9h3l0,0h38.3c2.8,0,5.1-2.2,5.1-5.1V5.3C93.2,2.5,90.8,0.2,88.2,0.2z M77.1,33.7c0,2.8-2.2,5.1-5.1,5.1
			H46.9c-2.8,0-5.1-2.2-5.1-5.1V21.4c0-2.8,2.2-5.1,5.1-5.1H72c2.8,0,5.1,2.2,5.1,5.1V33.7z"/>
	</svg>

	<svg id="logo-a" viewBox="0 0 94 68">
		<style type="text/css">
			.st0{fill:#eee;}
		</style>
		<path class="st0" d="M88.6,0.2h-0.3h-6H36.9h-6.1H5.4c-2.8,0-5.1,2.2-5.1,5.1v57.3c0,2.8,2.2,5.1,5.1,5.1H37
			c2.8,0,5.1-2.2,5.1-5.1v-2.8c0-2.7,2.2-4.9,5.1-4.9h25.3c2.7,0,4.9,2.2,4.9,4.9v2.8c0,2.8,2.2,5.1,5.1,5.1h6.1
			c2.8,0,5.1-2.2,5.1-5.1V5.1C93.5,2.5,91.3,0.2,88.6,0.2z M42,21.3c0-2.8,2.2-5.1,5.1-5.1h25.2c2.8,0,5.1,2.2,5.1,5.1v12.3
			c0,2.8-2.2,5.1-5.1,5.1H47c-2.8,0-5.1-2.2-5.1-5.1L42,21.3L42,21.3z"/>
	</svg>

	<svg id="logo-r" viewBox="0 0 94 68">
		<style type="text/css">
			.st0{fill:#eee;}
		</style>
		<path class="st0" d="M88.5,38.9L88.5,38.9L88.5,38.9c-0.1,0-0.1,0-0.3,0h-2.5c-2.7,0-4.9-2.2-4.9-5.1v-3l0,0V11.5V5.3
			c0-2.8-2.2-5.1-5.1-5.1h-6.1H37.1H31H5.6c-2.8,0-5.1,2.2-5.1,5.1v57.3c0,2.8,2.2,5.1,5.1,5.1h31.6c2.8,0,5.1-2.2,5.1-5.1v-1.3l0,0
			v-1c0-2.7,2.2-4.9,4.9-5.1h22.6h2.5c2.7,0,4.9,2.2,4.9,4.9v2.5c0,2.8,2.2,5.1,5.1,5.1h6.1c2.8,0,5.1-2.2,5.1-5.1V50v-6.3
			C93.4,41.2,91.2,39.1,88.5,38.9z M47,38.9c-2.8,0-5.1-2.2-5.1-5.1V21.7c0-2.7,2.2-4.9,4.9-4.9h12.4c2.8,0,5.1,2.2,5.1,5.1v9.4l0,0
			V34c0,2.7-2.2,4.9-4.9,5.1H47V38.9z"/>
	</svg>

	<svg id="logo-d" viewBox="0 0 94 68">
		<style type="text/css">
			.st0{fill:#eee;}
		</style>
		<path class="st0" d="M88.7,0h-6.1c-2.8,0-5.1,2.2-5.1,5.1l0,0v2.7c0,2.8-2.2,5.1-5.1,5.1h-3l0,0H37.2h-6.1H5.6
			c-2.8,0-5.1,2.2-5.1,5.1v44.8c0,2.8,2.2,5.1,5.1,5.1H31h6.2h45.2h6.1c2.8,0,5.1-2.2,5.1-5.1v-6.1V24.4v-6.3V5.2
			C93.6,2.2,91.3,0,88.7,0z M47.4,51.3c-2.8,0-5.1-2.2-5.1-5.1v-3l0,0v-6.4l0,0v-2.7c0-2.7,2.2-4.9,4.9-5.1h22.3l0,0h2.7
			c2.8,0,5.1,2.2,5.1,5.1v12.1c0,2.8-2.2,5.1-5.1,5.1H50l0,0L47.4,51.3L47.4,51.3z"/>
	</svg>

	<svg id="logo-o" viewBox="0 0 94 68">
		<style type="text/css">
			.st0{fill:#eee;}
		</style>
		<path class="st0" d="M88.4,0.2H5.6c-2.8,0-5.1,2.2-5.1,5.1v57.3c0,2.8,2.2,5.1,5.1,5.1h82.9c2.8,0,5.1-2.2,5.1-5.1V5.3
			C93.6,2.5,91.2,0.2,88.4,0.2z M77.4,46.5c0,2.8-2.2,5.1-5.1,5.1H47.2c-2.8,0-5.1-2.2-5.1-5.1V21.4c0-2.8,2.2-5.1,5.1-5.1h25.1
			c2.8,0,5.1,2.2,5.1,5.1V46.5z"/>
	</svg>

	<svg id="logo-i" viewBox="0 0 68 68">
		<style type="text/css">
			.st0{fill:#eee;}
		</style>
		<path class="st0" d="M59.6,16.4h2.7c2.8,0,5.1-2.2,5.1-5.1v-6c0-2.8-2.2-5.1-5.1-5.1l0,0H5.1l0,0C2.3,0.2,0,2.4,0,5.3l0,0
			v5.8c0,2.8,2.2,5.1,5.1,5.1h3c2.8,0,5.1,2.2,5.1,5.1v25.1c0,2.8-2.2,5.1-5.1,5.1h-3c-2.8,0-5.1,2.2-5.1,5.1v6c0,2.8,2.2,5.1,5.1,5.1
			h57.3c2.8,0,5.1-2.2,5.1-5.1v-6c0-2.8-2.2-5.1-5.1-5.1h-2.7c-2.8,0-5.1-2.2-5.1-5.1v-25C54.6,18.8,56.9,16.4,59.6,16.4z"/>
		</style>
	</svg>
	
	<svg id="cpu-circuit" viewBox="0 0 171 85">
		<style type="text/css">
			.st0{fill:none;stroke:#8ed8eb66;stroke-width:2;stroke-miterlimit:10;}
		</style>
		<line class="st0" x1="85.5" y1="51.2" x2="85.5" y2="85"/>
		<polyline class="st0" points="100.3,51.2 100.3,57.8 90.5,65.6 90.5,85 "/>
		<polyline class="st0" points="115.2,51.2 115.2,56.8 95.5,69.3 95.5,85 "/>
		<polyline class="st0" points="139.4,24.1 144,24.1 143.9,50 100.5,71.8 100.5,85 "/>
		<polyline class="st0" points="139.6,8 151.5,8 151.5,56.3 105.5,74.7 105.5,85 "/>
		<polyline class="st0" points="70.5,51.2 70.4,57.8 80.3,65.6 80.3,85 "/>
		<polyline class="st0" points="55.6,51.2 55.6,56.8 75.3,69.3 75.3,85 "/>
		<polyline class="st0" points="31.6,24.1 26.9,24.1 26.8,50 70.3,71.8 70.3,85 "/>
		<polyline class="st0" points="31.1,8 19.3,8 19.3,56.3 65.2,74.7 65.2,85 "/>
	</svg>

	<svg id="icon-droid-info" viewBox="0 0 70 70">
		<style type="text/css">
			.st0{fill:#333;opacity:0.4;}
		</style>
		<path class="st0" d="M37.8,20.9v-1.7c0-1.2-1-2.2-2.2-2.2h-1.5c-1.2,0-2.2,1-2.2,2.2v1.7c-6.4,0.6-12,2.9-15.8,6.2h27.5
			c-1.4-2.8-3.5-4.8-5.8-5.8c0,0,0-0.1,0-0.1V20.9c4.3,0.7,8,3,10.6,6.2h5.5C50.1,23.7,44.4,21.4,37.8,20.9z"/>
		<path class="st0" d="M43.4,47H16.5c4.4,3.7,11,6,18.5,6C38.4,53,41.5,50.7,43.4,47z"/>
		<path class="st0" d="M35,53c7.5,0,14.2-2.4,18.5-6h-5.4C45.1,50.7,40.3,53,35,53z"/>
		<path class="st0" d="M36.5,39.1h-4.6v-4h2.6c1.1,0,1.6-0.4,1.6-1.1c0-0.7-0.4-1.1-1.6-1.1h-6.8v-4h8.8c3.5,0,5.6,1.9,5.6,5.1
			C42.2,37,39.9,39.1,36.5,39.1z"/>
		<rect x="31.9" y="41.2" class="st0" width="5.9" height="3.8"/>
	</svg>

	<svg id="icon-tre-kronor" viewBox="0 0 32 32">
		<style type="text/css">
			.st0{fill:#fff;stroke:#fffa;stroke-linejoin:round;stroke-miterlimit:10;}
		</style>
		<path class="st0" d="M10.4,25.6c0,0,9.7,0,10.7,0c0-1.5,1.4-6.6,2-7.5c-0.6,0.6-3.1,2.5-3.1,2.5l0.7,1.5h-3.6l1.2-1.6l-2.7-3.1
			L13,20.3l1.3,1.6h-3.6l0.9-1.6c0,0-2.5-1.9-3.2-2.5C9.2,19.4,10.4,24.2,10.4,25.6z"/>
		<path class="st0" d="M20,14.1c0,0,8.9,0,9.8,0c0-1.4,1.2-6,1.8-6.9c-0.6,0.5-2.8,2.2-2.8,2.2l0.7,1.3h-3.3l1.1-1.5l-2.5-2.8
			l-2.5,2.8l1.2,1.5h-3.3l0.8-1.5c0,0-2.2-1.7-2.9-2.2C19,8.3,20.1,12.8,20,14.1z"/>
		<path class="st0" d="M2.2,14.1c0,0,8.9,0,9.8,0c0-1.4,1.2-6,1.8-6.9C13.2,7.7,11,9.4,11,9.4l0.7,1.3H8.3l1.1-1.5L7,6.4L4.6,9.2
			l1.2,1.5H2.5l0.8-1.5c0,0-2.2-1.7-2.9-2.2C1.1,8.3,2.3,12.8,2.2,14.1z"/>
	</svg>

	<svg id="icon-level" viewBox="0 0 70 70">
		<style type="text/css">
			.st0{opacity:.75;}
			.st1{fill:#444;}
			.st2{fill:none;stroke:#111;stroke-width:0.1;stroke-miterlimit:10;opacity:0.5;}
			.st3{fill:none;stroke:#777;stroke-width:.5;stroke-miterlimit:10;}
		</style>
		<g class="st0">
			<path class="st1" d="M68.8,32.1h-6.9c-0.2,0-0.4-0.2-0.4-0.4v-0.5c0-0.2-0.2-0.4-0.4-0.4h-6.3c-0.2,0-0.4-0.2-0.4-0.4v-1.2
				c0-0.2-0.2-0.4-0.4-0.4H40.2c-0.2,0-0.4-0.2-0.4-0.4v-2.7c0-0.2-0.2-0.4-0.4-0.4l-20.5,0c-0.2,0-0.4-0.2-0.4-0.4v-1
				c0-0.2-0.2-0.4-0.4-0.4h-6.6c-0.2,0-0.4-0.2-0.4-0.4v-0.8c0-0.2-0.2-0.4-0.4-0.4H1.2c-0.2,0-0.4,0.2-0.4,0.4v25.5
				c0,0.2,0.2,0.4,0.4,0.4h9.3c0.2,0,0.4-0.2,0.4-0.4v-0.9c0-0.2,0.2-0.4,0.4-0.4h6.5c0.2,0,0.4-0.2,0.4-0.4v-0.9
				c0-0.2,0.2-0.4,0.4-0.4l20.6,0c0.2,0,0.4-0.2,0.4-0.4v-3c0-0.2,0.2-0.4,0.4-0.4h13.7c0.2,0,0.4-0.2,0.4-0.4v-1.1
				c0-0.2,0.2-0.4,0.4-0.4h6.3c0.2,0,0.4-0.2,0.4-0.4v-1c0-0.2,0.2-0.4,0.4-0.4h6.9c0.2,0,0.4-0.2,0.4-0.4v-4.2
				C69.2,32.3,69,32.1,68.8,32.1z M68.2,35.7c0,0.2-0.2,0.4-0.4,0.4h-6.3v-0.4h-1v1.9c0,0.2-0.2,0.4-0.4,0.4h-5.7v-0.3h-1V38v0.5v1
				c0,0.2-0.2,0.4-0.4,0.4H39.7v-0.4h-1v3.8c0,0.2-0.2,0.4-0.4,0.4l-16.2,0v-0.5h-1v0.5h-2.3c-0.2,0-0.4-0.2-0.4-0.4V29.2
				c0-0.2-0.2-0.4-0.4-0.4h-2.7v1h1.6c0.2,0,0.4,0.2,0.4,0.4v5.6c0,0.2-0.2,0.4-0.4,0.4h-1.7v1h1.7c0.2,0,0.4,0.2,0.4,0.4V45
				c0,0.2-0.2,0.4-0.4,0.4h-5.5c-0.2,0-0.4-0.2-0.4-0.4v-1c0-0.2-0.2-0.4-0.4-0.4H6c-0.2,0-0.4-0.2-0.4-0.4v-5.4
				c0-0.2,0.2-0.4,0.4-0.4h6.8v-1H8c-0.2,0-0.4-0.2-0.4-0.4v-1.8c0-0.2,0.2-0.4,0.4-0.4h1c0.2,0,0.4-0.2,0.4-0.4v-3
				c0-0.2,0.2-0.4,0.4-0.4h3.3v-1h-2.2v-0.2h-1v0.2H8.7c-0.2,0-0.4,0.2-0.4,0.4v3c0,0.2-0.2,0.4-0.4,0.4h-1c-0.2,0-0.4,0.2-0.4,0.4
				v2.8c0,0.2-0.2,0.4-0.4,0.4H4.9c-0.2,0-0.4,0.2-0.4,0.4v7.5c0,0.2,0.2,0.4,0.4,0.4h4.5c0.2,0,0.4,0.2,0.4,0.4v1.6
				c0,0.2-0.2,0.4-0.4,0.4H2.2c-0.2,0-0.4-0.2-0.4-0.4V23.3c0-0.2,0.2-0.4,0.4-0.4h7.2c0.2,0,0.4,0.2,0.4,0.4v3.1h1v-1.5
				c0-0.2,0.2-0.4,0.4-0.4h5.6c0.2,0,0.4,0.2,0.4,0.4v1c0,0.2,0.2,0.4,0.4,0.4H21v0.2h1v-0.2l16.2,0c0.2,0,0.4,0.2,0.4,0.4v3.3h1v-0.2
				h13.1c0.2,0,0.4,0.2,0.4,0.4V32h1v-0.2H60c0.2,0,0.4,0.2,0.4,0.4v1.7h1v-0.8h6.3c0.2,0,0.4,0.2,0.4,0.4V35.7z"/>
			<path class="st1" d="M53.3,34.5h-2.5c-0.2,0-0.3-0.1-0.3-0.3v-1.3c0-0.2-0.1-0.3-0.3-0.3H42v1h7.2c0.2,0,0.3,0.1,0.3,0.3v1.3
				c0,0.2,0.1,0.3,0.3,0.3h3.5v0.1h1V34h-1V34.5z"/>
			<path class="st1" d="M39.7,32.3h-1v0.3l-14.1,0c-0.2,0-0.4-0.2-0.4-0.4v-2.5c0-0.2-0.2-0.4-0.4-0.4h-1.7v-0.7h-1v1.3
				c0,0.2,0.2,0.4,0.4,0.4h1.2c0.2,0,0.4,0.2,0.4,0.4v1.4c0,0.2-0.2,0.4-0.4,0.4h-1.2c-0.2,0-0.4,0.2-0.4,0.4v7.1v0.8v0.3h1v-0.3h4.2
				v-1h-3.8c-0.2,0-0.4-0.2-0.4-0.4V34c0-0.2,0.2-0.4,0.4-0.4h5.6c0.2,0,0.4,0.2,0.4,0.4v5.9h-0.4v1h5.5v-1H30c-0.2,0-0.4-0.2-0.4-0.4
				V34c0-0.2,0.2-0.4,0.4-0.4h5.7v0.3h1v-0.3l1.6,0c0.2,0,0.4,0.2,0.4,0.4v1.9c0,0.2-0.2,0.4-0.4,0.4l-1.6,0v-0.4h-1v4h-0.3v1h0.9
				c0.2,0,0.4-0.2,0.4-0.4v-2.8c0-0.2,0.2-0.4,0.4-0.4l1.6,0v0.3h1v-4H40v-1h-0.2V32.3z"/>
		</g>
		<rect x="7.3" y="23.5" class="st2" width="1.6" height="1.6"/>
		<rect x="7.3" y="25.1" class="st2" width="1.6" height="1.6"/>
		<rect x="7.3" y="26.7" class="st2" width="1.6" height="1.6"/>
		<rect x="5.7" y="23.5" class="st2" width="1.6" height="1.6"/>
		<rect x="5.7" y="25.1" class="st2" width="1.6" height="1.6"/>
		<rect x="5.7" y="26.7" class="st2" width="1.6" height="1.6"/>
		<rect x="4" y="23.5" class="st2" width="1.6" height="1.6"/>
		<rect x="4" y="25.1" class="st2" width="1.6" height="1.6"/>
		<rect x="4" y="26.7" class="st2" width="1.6" height="1.6"/>
		<rect x="2.4" y="23.5" class="st2" width="1.6" height="1.6"/>
		<rect x="2.4" y="25.1" class="st2" width="1.6" height="1.6"/>
		<rect x="2.4" y="26.7" class="st2" width="1.6" height="1.6"/>
		<rect x="11.6" y="38" class="st2" width="1.6" height="1.6"/>
		<rect x="11.6" y="39.7" class="st2" width="1.6" height="1.6"/>
		<rect x="11.6" y="41.3" class="st2" width="1.6" height="1.6"/>
		<rect x="10" y="38" class="st2" width="1.6" height="1.6"/>
		<rect x="10" y="39.7" class="st2" width="1.6" height="1.6"/>
		<rect x="10" y="41.3" class="st2" width="1.6" height="1.6"/>
		<rect x="8.3" y="38" class="st2" width="1.6" height="1.6"/>
		<rect x="8.3" y="39.7" class="st2" width="1.6" height="1.6"/>
		<rect x="8.3" y="41.3" class="st2" width="1.6" height="1.6"/>
		<rect x="6.7" y="38" class="st2" width="1.6" height="1.6"/>
		<rect x="6.7" y="39.7" class="st2" width="1.6" height="1.6"/>
		<rect x="6.7" y="41.3" class="st2" width="1.6" height="1.6"/>
		<rect x="14.9" y="30.6" class="st2" width="1.6" height="1.6"/>
		<rect x="14.9" y="32.2" class="st2" width="1.6" height="1.6"/>
		<rect x="14.9" y="33.9" class="st2" width="1.6" height="1.6"/>
		<rect x="13.3" y="30.6" class="st2" width="1.6" height="1.6"/>
		<rect x="13.3" y="32.2" class="st2" width="1.6" height="1.6"/>
		<rect x="13.3" y="33.9" class="st2" width="1.6" height="1.6"/>
		<rect x="11.6" y="30.6" class="st2" width="1.6" height="1.6"/>
		<rect x="11.6" y="32.2" class="st2" width="1.6" height="1.6"/>
		<rect x="11.6" y="33.9" class="st2" width="1.6" height="1.6"/>
		<rect x="10" y="30.6" class="st2" width="1.6" height="1.6"/>
		<rect x="10" y="32.2" class="st2" width="1.6" height="1.6"/>
		<rect x="10" y="33.9" class="st2" width="1.6" height="1.6"/>
		<rect x="29.7" y="26.9" class="st2" width="1.6" height="1.6"/>
		<rect x="29.7" y="28.6" class="st2" width="1.6" height="1.6"/>
		<rect x="29.7" y="30.2" class="st2" width="1.6" height="1.6"/>
		<rect x="28" y="26.9" class="st2" width="1.6" height="1.6"/>
		<rect x="28" y="28.6" class="st2" width="1.6" height="1.6"/>
		<rect x="28" y="30.2" class="st2" width="1.6" height="1.6"/>
		<rect x="26.4" y="26.9" class="st2" width="1.6" height="1.6"/>
		<rect x="26.4" y="28.6" class="st2" width="1.6" height="1.6"/>
		<rect x="26.4" y="30.2" class="st2" width="1.6" height="1.6"/>
		<rect x="24.8" y="26.9" class="st2" width="1.6" height="1.6"/>
		<rect x="24.8" y="28.6" class="st2" width="1.6" height="1.6"/>
		<rect x="24.8" y="30.2" class="st2" width="1.6" height="1.6"/>
		<rect x="14.9" y="38" class="st2" width="1.6" height="1.6"/>
		<rect x="14.9" y="39.7" class="st2" width="1.6" height="1.6"/>
		<rect x="14.9" y="41.3" class="st2" width="1.6" height="1.6"/>
		<rect x="13.3" y="38" class="st2" width="1.6" height="1.6"/>
		<rect x="13.3" y="39.7" class="st2" width="1.6" height="1.6"/>
		<rect x="13.3" y="41.3" class="st2" width="1.6" height="1.6"/>
		<rect x="11.6" y="42.9" class="st2" width="1.6" height="1.6"/>
		<rect x="14.9" y="42.9" class="st2" width="1.6" height="1.6"/>
		<rect x="13.3" y="42.9" class="st2" width="1.6" height="1.6"/>
		<rect x="8.4" y="33.9" class="st2" width="1.6" height="1.6"/>
		<rect x="23.1" y="26.9" class="st2" width="1.6" height="1.6"/>
		<rect x="5.7" y="28.4" class="st2" width="1.6" height="1.6"/>
		<rect x="5.7" y="30" class="st2" width="1.6" height="1.6"/>
		<rect x="4" y="28.4" class="st2" width="1.6" height="1.6"/>
		<rect x="4" y="30" class="st2" width="1.6" height="1.6"/>
		<rect x="2.4" y="28.4" class="st2" width="1.6" height="1.6"/>
		<rect x="2.4" y="30" class="st2" width="1.6" height="1.6"/>
		<rect x="4" y="31.7" class="st2" width="1.6" height="1.6"/>
		<rect x="4" y="33.3" class="st2" width="1.6" height="1.6"/>
		<rect x="2.4" y="31.7" class="st2" width="1.6" height="1.6"/>
		<rect x="2.4" y="33.3" class="st2" width="1.6" height="1.6"/>
		<rect x="2.4" y="34.9" class="st2" width="1.6" height="1.6"/>
		<rect x="2.4" y="36.6" class="st2" width="1.6" height="1.6"/>
		<rect x="2.4" y="38.2" class="st2" width="1.6" height="1.6"/>
		<rect x="2.4" y="39.8" class="st2" width="1.6" height="1.6"/>
		<rect x="2.4" y="41.5" class="st2" width="1.6" height="1.6"/>
		<rect x="2.4" y="43.1" class="st2" width="1.6" height="1.6"/>
		<rect x="2.4" y="44.8" class="st2" width="1.6" height="1.6"/>
		<rect x="4" y="44.8" class="st2" width="1.6" height="1.6"/>
		<rect x="5.7" y="44.8" class="st2" width="1.6" height="1.6"/>
		<rect x="7.3" y="44.8" class="st2" width="1.6" height="1.6"/>
		<rect x="14.9" y="25.1" class="st2" width="1.6" height="1.6"/>
		<rect x="14.9" y="26.7" class="st2" width="1.6" height="1.6"/>
		<rect x="13.3" y="25.1" class="st2" width="1.6" height="1.6"/>
		<rect x="13.3" y="26.7" class="st2" width="1.6" height="1.6"/>
		<rect x="11.6" y="25.1" class="st2" width="1.6" height="1.6"/>
		<rect x="11.6" y="26.7" class="st2" width="1.6" height="1.6"/>
		<rect x="18.9" y="26.8" class="st2" width="1.6" height="1.6"/>
		<rect x="18.9" y="28.4" class="st2" width="1.6" height="1.6"/>
		<rect x="18.9" y="30.1" class="st2" width="1.6" height="1.6"/>
		<rect x="18.9" y="31.7" class="st2" width="1.6" height="1.6"/>
		<rect x="18.9" y="33.4" class="st2" width="1.6" height="1.6"/>
		<rect x="18.9" y="35" class="st2" width="1.6" height="1.6"/>
		<rect x="18.9" y="36.6" class="st2" width="1.6" height="1.6"/>
		<rect x="18.9" y="38.3" class="st2" width="1.6" height="1.6"/>
		<rect x="18.9" y="39.9" class="st2" width="1.6" height="1.6"/>
		<rect x="18.9" y="41.6" class="st2" width="1.6" height="1.6"/>
		<rect x="36.2" y="26.9" class="st2" width="1.6" height="1.6"/>
		<rect x="36.2" y="28.6" class="st2" width="1.6" height="1.6"/>
		<rect x="36.2" y="30.2" class="st2" width="1.6" height="1.6"/>
		<rect x="34.6" y="26.9" class="st2" width="1.6" height="1.6"/>
		<rect x="34.6" y="28.6" class="st2" width="1.6" height="1.6"/>
		<rect x="34.6" y="30.2" class="st2" width="1.6" height="1.6"/>
		<rect x="33" y="26.9" class="st2" width="1.6" height="1.6"/>
		<rect x="33" y="28.6" class="st2" width="1.6" height="1.6"/>
		<rect x="33" y="30.2" class="st2" width="1.6" height="1.6"/>
		<rect x="31.3" y="26.9" class="st2" width="1.6" height="1.6"/>
		<rect x="31.3" y="28.6" class="st2" width="1.6" height="1.6"/>
		<rect x="31.3" y="30.2" class="st2" width="1.6" height="1.6"/>
		<rect x="26" y="34.3" class="st2" width="1.6" height="1.6"/>
		<rect x="26" y="35.9" class="st2" width="1.6" height="1.6"/>
		<rect x="26" y="37.6" class="st2" width="1.6" height="1.6"/>
		<rect x="24.4" y="34.3" class="st2" width="1.6" height="1.6"/>
		<rect x="24.4" y="35.9" class="st2" width="1.6" height="1.6"/>
		<rect x="24.4" y="37.6" class="st2" width="1.6" height="1.6"/>
		<rect x="22.8" y="34.3" class="st2" width="1.6" height="1.6"/>
		<rect x="22.8" y="35.9" class="st2" width="1.6" height="1.6"/>
		<rect x="22.8" y="37.6" class="st2" width="1.6" height="1.6"/>
		<rect x="33.5" y="34.2" class="st2" width="1.6" height="1.6"/>
		<rect x="33.5" y="35.8" class="st2" width="1.6" height="1.6"/>
		<rect x="33.5" y="37.5" class="st2" width="1.6" height="1.6"/>
		<rect x="31.8" y="34.2" class="st2" width="1.6" height="1.6"/>
		<rect x="31.8" y="35.8" class="st2" width="1.6" height="1.6"/>
		<rect x="31.8" y="37.5" class="st2" width="1.6" height="1.6"/>
		<rect x="30.2" y="34.2" class="st2" width="1.6" height="1.6"/>
		<rect x="30.2" y="35.8" class="st2" width="1.6" height="1.6"/>
		<rect x="30.2" y="37.5" class="st2" width="1.6" height="1.6"/>
		<rect x="58.1" y="32.5" class="st2" width="1.6" height="1.6"/>
		<rect x="58.1" y="34.1" class="st2" width="1.6" height="1.6"/>
		<rect x="58.1" y="35.8" class="st2" width="1.6" height="1.6"/>
		<rect x="56.5" y="32.5" class="st2" width="1.6" height="1.6"/>
		<rect x="56.5" y="34.1" class="st2" width="1.6" height="1.6"/>
		<rect x="56.5" y="35.8" class="st2" width="1.6" height="1.6"/>
		<rect x="54.8" y="32.5" class="st2" width="1.6" height="1.6"/>
		<rect x="54.8" y="34.1" class="st2" width="1.6" height="1.6"/>
		<rect x="54.8" y="35.8" class="st2" width="1.6" height="1.6"/>
		<rect x="43.8" y="34.3" class="st2" width="1.6" height="1.6"/>
		<rect x="43.8" y="35.9" class="st2" width="1.6" height="1.6"/>
		<rect x="43.8" y="37.6" class="st2" width="1.6" height="1.6"/>
		<rect x="42.1" y="34.3" class="st2" width="1.6" height="1.6"/>
		<rect x="42.1" y="35.9" class="st2" width="1.6" height="1.6"/>
		<rect x="42.1" y="37.6" class="st2" width="1.6" height="1.6"/>
		<rect x="40.5" y="34.3" class="st2" width="1.6" height="1.6"/>
		<rect x="40.5" y="35.9" class="st2" width="1.6" height="1.6"/>
		<rect x="40.5" y="37.6" class="st2" width="1.6" height="1.6"/>
		<rect x="47.1" y="34.3" class="st2" width="1.6" height="1.6"/>
		<rect x="47.1" y="35.9" class="st2" width="1.6" height="1.6"/>
		<rect x="47.1" y="37.6" class="st2" width="1.6" height="1.6"/>
		<rect x="45.4" y="34.3" class="st2" width="1.6" height="1.6"/>
		<rect x="45.4" y="35.9" class="st2" width="1.6" height="1.6"/>
		<rect x="45.4" y="37.6" class="st2" width="1.6" height="1.6"/>
		<rect x="50.3" y="35.9" class="st2" width="1.6" height="1.6"/>
		<rect x="50.3" y="37.6" class="st2" width="1.6" height="1.6"/>
		<rect x="48.7" y="35.9" class="st2" width="1.6" height="1.6"/>
		<rect x="48.7" y="37.6" class="st2" width="1.6" height="1.6"/>
		<rect x="65.5" y="33.8" class="st2" width="1.6" height="1.6"/>
		<rect x="63.9" y="33.8" class="st2" width="1.6" height="1.6"/>
		<rect x="62.3" y="33.8" class="st2" width="1.6" height="1.6"/>
		<rect x="50.9" y="30.5" class="st2" width="1.6" height="1.6"/>
		<rect x="49.3" y="30.5" class="st2" width="1.6" height="1.6"/>
		<rect x="47.7" y="30.5" class="st2" width="1.6" height="1.6"/>
		<rect x="46" y="30.5" class="st2" width="1.6" height="1.6"/>
		<rect x="44.4" y="30.5" class="st2" width="1.6" height="1.6"/>
		<rect x="42.7" y="30.5" class="st2" width="1.6" height="1.6"/>
		<rect x="50.9" y="32.2" class="st2" width="1.6" height="1.6"/>
		<rect x="41.1" y="30.5" class="st2" width="1.6" height="1.6"/>
		<rect x="29.5" y="41.6" class="st2" width="1.6" height="1.6"/>
		<rect x="27.8" y="41.6" class="st2" width="1.6" height="1.6"/>
		<rect x="26.2" y="41.6" class="st2" width="1.6" height="1.6"/>
		<rect x="24.5" y="41.6" class="st2" width="1.6" height="1.6"/>
		<rect x="22.9" y="41.6" class="st2" width="1.6" height="1.6"/>
		<rect x="36" y="41.6" class="st2" width="1.6" height="1.6"/>
		<rect x="34.4" y="41.6" class="st2" width="1.6" height="1.6"/>
		<rect x="32.7" y="41.6" class="st2" width="1.6" height="1.6"/>
		<rect x="31.1" y="41.6" class="st2" width="1.6" height="1.6"/>
	<path class="st3" d="M68.8,32.1h-6.9c-0.2,0-0.4-0.2-0.4-0.4v-0.5c0-0.2-0.2-0.4-0.4-0.4h-6.3c-0.2,0-0.4-0.2-0.4-0.4v-1.2
		c0-0.2-0.2-0.4-0.4-0.4H40.2c-0.2,0-0.4-0.2-0.4-0.4v-2.7c0-0.2-0.2-0.4-0.4-0.4l-20.5,0c-0.2,0-0.4-0.2-0.4-0.4v-1
		c0-0.2-0.2-0.4-0.4-0.4h-6.6c-0.2,0-0.4-0.2-0.4-0.4v-0.8c0-0.2-0.2-0.4-0.4-0.4H1.2c-0.2,0-0.4,0.2-0.4,0.4v25.5
		c0,0.2,0.2,0.4,0.4,0.4h9.3c0.2,0,0.4-0.2,0.4-0.4v-0.9c0-0.2,0.2-0.4,0.4-0.4h6.5c0.2,0,0.4-0.2,0.4-0.4v-0.9
		c0-0.2,0.2-0.4,0.4-0.4l20.6,0c0.2,0,0.4-0.2,0.4-0.4v-3c0-0.2,0.2-0.4,0.4-0.4h13.7c0.2,0,0.4-0.2,0.4-0.4v-1.1
		c0-0.2,0.2-0.4,0.4-0.4h6.3c0.2,0,0.4-0.2,0.4-0.4v-1c0-0.2,0.2-0.4,0.4-0.4h6.9c0.2,0,0.4-0.2,0.4-0.4v-4.2
		C69.2,32.3,69,32.1,68.8,32.1z"/>
	</svg>

	<svg id="icon-ship" viewBox="0 0 70 70">
		<style type="text/css">
			.st0{opacity:0.6;fill:none;stroke:#111;stroke-width:0.1;stroke-miterlimit:10;enable-background:new    ;}
			.st1{opacity:0.6;fill:none;stroke:#111;stroke-width:0.1;stroke-linejoin:round;stroke-miterlimit:10;enable-background:new    ;}
			.st2{fill:none;stroke:#111;stroke-width:0.3;stroke-miterlimit:10;}
		</style>
		<polygon class="st0" points="40.4,43.6 40.4,28.9 56.8,30.7 56.8,43.6 "/>
		<polygon class="st0" points="68.7,35.3 56.8,30.7 56.8,43.6 68.7,41.8 "/>
		<polygon class="st0" points="69.4,35.9 69.4,41 68.7,41.8 68.7,35.3 "/>
		<path class="st1" d="M40.4,43.6h-0.9v-3.4h-7l-4.1-5.3l5.2,3.6h0.5l0.5-1.4h4.3v-0.6l-4.5,0.1c0,0-0.6-0.9-0.6-2.8
			c0-1.9,0.1-2.7,0.1-2.7l4.5,0.6v-0.3L34,30.9l0.5-1.7h5.9v14.5H40.4z"/>
		<polygon class="st1" points="42.5,29.1 34.9,25.4 31.8,25.4 31.8,29.4 40.4,29.4 40.4,28.9 "/>
		<polygon class="st0" points="39.8,28.8 32.4,28.8 32.4,26 34.9,26 "/>
		<path class="st0" d="M31.8,29.4h-3.2v5.6l5.4,3.2l0.3-1c0,0-0.6-1.3-0.8-1.7c-0.3-1-0.1-3.7,0-4.5c0.1-0.6,0.8-1.7,0.8-1.7h-2.4v0.2
			H31.8z"/>
		<polygon class="st0" points="39.5,42.8 28.7,44.3 28.7,40.4 39.5,40.4 "/>
		<polygon class="st0" points="28.7,45.3 39.5,43.6 39.5,42.8 28.7,44.3 "/>
		<rect x="8.1" y="44.1" class="st0" width="20.8" height="1.3"/>
		<polygon class="st0" points="28.7,40.4 28.7,44.1 7.1,44.1 4.7,43.6 1.4,40.4 1.4,39.6 3.8,39.6 3.8,40.5 14.8,40.4 14.6,43.6 
			22.8,43.6 22.8,40.4 "/>
		<rect x="15.1" y="40.4" class="st0" width="7.4" height="2.9"/>
		<polygon class="st0" points="8.1,45.3 4.6,44.7 0.6,40.9 0.6,38.1 1.4,37.4 1.4,40.4 4.7,43.6 7.1,44.1 8.1,44.1 "/>
		<polygon class="st0" points="8.8,40.4 8.8,38.2 1.4,38.2 1.4,37.4 8.8,37.4 9.7,38.3 9.7,40 13.1,39.9 13.1,34.5 16.3,32.2 
			16.3,31.7 23.3,31.7 23.8,34.8 26.5,34.8 27.5,35.4 27.5,39.6 26.7,40.4 22.9,40.4 22.9,32 16.7,32 16.7,40 14.8,40 14.8,40.4 "/>
		<polygon class="st0" points="13.4,39.9 13.4,34.9 16.3,34.5 16.3,39.6 14.5,39.6 14.5,40 "/>
		<rect x="23.9" y="34.9" class="st0" width="2.7" height="5.1"/>
		<polygon class="st0" points="32,40 28.5,35.4 27.8,35.4 27.8,39.6 28.3,40 "/>
		<rect x="40.9" y="41.8" class="st0" width="15.6" height="0.6"/>
		<polygon class="st0" points="57.1,41.8 57.1,42.5 68.5,40.5 68.5,39.9 "/>
		<polygon class="st0" points="13.1,34.9 11.6,34.9 10.7,35.8 10.7,36.3 11.6,37 10.8,37.6 10.9,39 11.8,39.5 13.1,39.5 "/>
		<polygon class="st0" points="12.6,39 11.2,38.7 11.2,38.2 12.6,38.3 "/>
		<polygon class="st0" points="12.6,37.8 12.6,37.3 11.8,37.3 11.2,37.6 11.2,37.8 "/>
		<polygon class="st0" points="12.7,35.3 12.7,35.9 10.9,35.9 11.7,35.3 "/>
		<polygon class="st0" points="12.7,36.2 12.7,36.8 11.8,36.8 10.9,36.2 "/>
		<polygon class="st0" points="9,38.2 9,40 9.4,40 9.4,38.5 "/>
		<rect x="3.9" y="39.6" class="st0" width="4.5" height="0.5"/>
		<polygon class="st0" points="15.3,42.9 15.5,42.9 15.5,41 21.9,41 21.9,42.9 22.2,42.9 22.2,40.6 15.3,40.6 "/>
		<polygon class="st0" points="15.9,32.4 8.1,31.7 8.1,31.1 8.9,30.7 21.6,30.8 25.6,31.9 27.6,35.2 27.6,35.3 26.4,34.5 23.9,34.7 
			23.4,31.6 16.3,31.5 16.3,32.2 "/>
		<polygon class="st0" points="8.3,31 7.2,30.3 6.7,29.7 11.6,29.7 11.6,30.7 8.9,30.7 "/>
		<polygon class="st0" points="11.8,30.7 11.8,29.7 18.2,29.7 18.2,30.7 "/>
		<polygon class="st0" points="18.3,30.7 18.3,29.7 21.6,29.7 21.6,30.7 "/>
		<polygon class="st0" points="21.8,29.7 21.8,30.7 25.6,31.6 25.6,29.7 "/>
		<polygon class="st0" points="28.5,29.7 25.7,29.7 25.7,31.7 27.9,35.2 28.5,35.2 "/>
		<polygon class="st0" points="28.5,29.4 28.5,25.1 28.3,24.6 25.6,24.6 25.6,29.6 28.5,29.6 "/>
		<path class="st0" d="M25.5,29.6c0,0,0-4.2,0-5c-1.5,0-3.1,0.3-3.7,0.5v4.5C21.8,29.6,25.5,29.6,25.5,29.6z"/>
		<polygon class="st0" points="21.6,29.6 18.3,29.6 18.3,25.6 21.6,25.2 "/>
		<polygon class="st0" points="18.2,29.6 18.2,25.6 11.8,25.7 11.8,29.6 "/>
		<polygon class="st0" points="11.6,29.6 11.6,25.7 7.9,28.8 6.9,29.1 6.6,29.6 "/>
		<polygon id="outline" class="st2" points="68.7,41.8 69.4,41 69.4,35.9 68.7,35.3 56.8,30.7 42.5,29.1 34.9,25.4 31.8,25.4 
			31.8,29.4 28.5,29.4 28.5,25.1 28.3,24.6 25.6,24.6 23.9,24.6 21.8,25.1 18.3,25.6 11.6,25.7 7.9,28.8 6.9,29.1 6.6,29.6 7.2,30.3 
			8.3,31 8.1,31.7 16.2,32.5 13.1,34.5 13.1,34.9 11.6,34.9 10.7,35.8 10.7,36.3 11.6,37 10.8,37.6 10.9,39 11.8,39.5 13.1,39.5 
			13.1,39.9 9.7,40 9.7,38.3 8.8,37.4 1.4,37.4 0.6,38.1 0.6,40.9 4.6,44.7 8.1,45.3 28.7,45.3 39.5,43.6 40.4,43.6 56.8,43.6 "/>
	</svg>

	<svg id="droid" viewBox="0 0 405 45" size="keep">
		<style type="text/css">
			.st0{fill:#333;}
		</style>
		<g id="_x31_">
			<path class="st0" d="M23.5,38.6H22c-1.2,0-2.2-1-2.2,0.2v2c0,1.2,1,2.2,2.2,2.2h1.5c1.2,0,2.2-1,2.2-2.2v-2
				C25.7,37.6,24.7,38.6,23.5,38.6z"/>
			<path class="st0" d="M7.1,32.9H3.7c4.3,3.9,11.2,6.3,18.9,6.3C16.3,39.3,10.6,36.8,7.1,32.9z"/>
			<path class="st0" d="M11.1,32.9c2.6,3.9,6.8,6.3,11.5,6.3c7.7,0,14.5-2.5,18.9-6.3C41.5,32.9,11.1,32.9,11.1,32.9z"/>
			<path class="st0" d="M11.3,13h29.8c-4.4-3.7-11-6-18.5-6C18,7,14,9.3,11.3,13z"/>
			<path class="st0" d="M22.6,7C15.1,7,8.4,9.4,4.1,13h3.3C10.9,9.3,16.4,7,22.6,7z"/>
		</g>
		<g id="_x32_">
			<path class="st0" d="M68.5,38.6H67c-1.2,0-2.2-1-2.2,0.2v2c0,1.2,1,2.2,2.2,2.2h1.5c1.2,0,2.2-1,2.2-2.2v-2
				C70.7,37.6,69.7,38.6,68.5,38.6z"/>
			<path class="st0" d="M54.2,32.9h-5.5c4.3,3.9,11.2,6.3,18.9,6.3C62.1,39.3,57.3,36.8,54.2,32.9z"/>
			<path class="st0" d="M59,32.9c2,3.9,5.1,6.3,8.6,6.3c7.7,0,14.5-2.5,18.9-6.3C86.5,32.9,59,32.9,59,32.9z"/>
			<path class="st0" d="M59.2,13h26.9c-4.4-3.7-11-6-18.5-6C64.2,7,61.1,9.3,59.2,13z"/>
			<path class="st0" d="M67.6,7c-7.5,0-14.2,2.4-18.5,6h5.4C57.5,9.3,62.3,7,67.6,7z"/>
		</g>
		<g id="_x33_">
			<path class="st0" d="M113.5,38.6H112c-1.2,0-2.2-1-2.2,0.2v2c0,1.2,1,2.2,2.2,2.2h1.5c1.2,0,2.2-1,2.2-2.2v-2
				C115.7,37.6,114.7,38.6,113.5,38.6z"/>
			<path class="st0" d="M104.1,32.9H93.7c4.3,3.9,11.2,6.3,18.9,6.3C109.1,39.3,106,36.8,104.1,32.9z"/>
			<path class="st0" d="M109,32.9c0.8,3.9,2.1,6.3,3.6,6.3c7.7,0,14.5-2.5,18.9-6.3C131.5,32.9,109,32.9,109,32.9z"/>
			<path class="st0" d="M109.1,13h22c-4.4-3.7-11-6-18.5-6C111.2,7,109.9,9.3,109.1,13z"/>
			<path class="st0" d="M112.6,7c-7.5,0-14.2,2.4-18.5,6h10.2C106.2,9.3,109.2,7,112.6,7z"/>
		</g>
		<g id="_x34_">
			<path class="st0" d="M158.5,38.6H157c-1.2,0-2.2-1-2.2,0.2v2c0,1.2,1,2.2,2.2,2.2h1.5c1.2,0,2.2-1,2.2-2.2v-2
				C160.7,37.6,159.7,38.6,158.5,38.6z"/>
			<path class="st0" d="M158.7,13h17.4c-4.4-3.7-11-6-18.5-6c0.4,0,0.7,0.1,1.1,0.3V13z"/>
			<path class="st0" d="M157.6,7c-7.5,0-14.2,2.4-18.5,6h14.2C154.3,9.3,155.8,7,157.6,7z"/>
			<path class="st0" d="M153.2,32.9h-14.5c4.3,3.9,11.2,6.3,18.9,6.3C155.8,39.3,154.2,36.8,153.2,32.9z"/>
			<path class="st0" d="M158.7,32.9v6c-0.4,0.2-0.7,0.3-1.1,0.3c7.7,0,14.5-2.5,18.9-6.3C176.5,32.9,158.7,32.9,158.7,32.9z"/>
		</g>
		<g id="_x35_">
			<path class="st0" d="M203.5,38.6H202c-1.2,0-2.2-1-2.2,0.2v2c0,1.2,1,2.2,2.2,2.2h1.5c1.2,0,2.2-1,2.2-2.2v-2
				C205.7,37.6,204.7,38.6,203.5,38.6z"/>
			<path class="st0" d="M207.2,32.9c-1.1,3.9-2.8,6.3-4.7,6.3c7.7,0,14.5-2.5,18.9-6.3C221.4,32.9,207.2,32.9,207.2,32.9z"/>
			<path class="st0" d="M201.8,32.9h-18.1c4.3,3.9,11.2,6.3,18.9,6.3c-0.3,0-0.6-0.1-0.8-0.2L201.8,32.9L201.8,32.9z"/>
			<path class="st0" d="M207.2,13h13.9c-4.4-3.7-11-6-18.5-6C204.4,7,206.1,9.3,207.2,13z"/>
			<path class="st0" d="M201.8,7.2c0.3-0.1,0.5-0.2,0.8-0.2c-7.5,0-14.2,2.4-18.5,6h17.7V7.2z"/>
		</g>
		<g id="_x36_">
			<path class="st0" d="M248.5,38.6H247c-1.2,0-2.2-1-2.2,0.2v2c0,1.2,1,2.2,2.2,2.2h1.5c1.2,0,2.2-1,2.2-2.2v-2
				C250.7,37.6,249.7,38.6,248.5,38.6z"/>
			<path class="st0" d="M251.1,32.9h-22.4c4.3,3.9,11.2,6.3,18.9,6.3C249,39.3,250.3,36.8,251.1,32.9z"/>
			<path class="st0" d="M256.1,32.9c-2,3.9-5,6.3-8.5,6.3c7.7,0,14.5-2.5,18.9-6.3C266.5,32.9,256.1,32.9,256.1,32.9z"/>
			<path class="st0" d="M255.9,13h10.2c-4.4-3.7-11-6-18.5-6C251,7,254,9.3,255.9,13z"/>
			<path class="st0" d="M247.6,7c-7.5,0-14.2,2.4-18.5,6h22C250.3,9.3,249,7,247.6,7z"/>
		</g>
		<g id="_x37_">
			<path class="st0" d="M293.7,38.6h-1.5c-1.2,0-2.2-1-2.2,0.2v2c0,1.2,1,2.2,2.2,2.2h1.5c1.2,0,2.2-1,2.2-2.2v-2
				C295.9,37.6,294.9,38.6,293.7,38.6z"/>
			<path class="st0" d="M301.4,32.9h-27.5c4.3,3.9,11.2,6.3,18.9,6.3C296.3,39.3,299.4,36.8,301.4,32.9z"/>
			<path class="st0" d="M306.2,32.9c-3.1,3.9-7.9,6.3-13.4,6.3c7.7,0,14.5-2.5,18.9-6.3C311.7,32.9,306.2,32.9,306.2,32.9z"/>
			<path class="st0" d="M305.9,13h5.4c-4.4-3.7-11-6-18.5-6C298.1,7,302.8,9.3,305.9,13z"/>
			<path class="st0" d="M292.8,7c-7.5,0-14.2,2.4-18.5,6h26.9C299.2,9.3,296.2,7,292.8,7z"/>
		</g>
		<g id="_x38_">
			<path class="st0" d="M338.5,38.6H337c-1.2,0-2.2-1-2.2,0.2v2c0,1.2,1,2.2,2.2,2.2h1.5c1.2,0,2.2-1,2.2-2.2v-2
				C340.7,37.6,339.7,38.6,338.5,38.6z"/>
			<path class="st0" d="M349.1,32.9h-30.4c4.3,3.9,11.2,6.3,18.9,6.3C342.3,39.3,346.4,36.8,349.1,32.9z"/>
			<path class="st0" d="M337.6,39.3c7.7,0,14.5-2.5,18.9-6.3h-3.4C349.5,36.8,343.9,39.3,337.6,39.3z"/>
			<path class="st0" d="M352.8,13h3.3c-4.4-3.7-11-6-18.5-6C343.7,7,349.2,9.3,352.8,13z"/>
			<path class="st0" d="M337.6,7c-7.5,0-14.2,2.4-18.5,6h29.8C346.2,9.3,342.1,7,337.6,7z"/>
		</g>
		<g id="_x39_">
			<path class="st0" d="M383.6,38.6h-1.5c-1.2,0-2.2-1-2.2,0.2v2c0,1.2,1,2.2,2.2,2.2h1.5c1.2,0,2.2-1,2.2-2.2v-2
				C385.8,37.6,384.8,38.6,383.6,38.6z"/>
			<path class="st0" d="M382.7,39.3c7.7,0,14.6-2.5,18.9-6.4h-37.8C368.1,36.8,375,39.3,382.7,39.3"/>
			<path class="st0" d="M401.2,13c-4.4-3.7-11-6-18.5-6l0,0c-7.5,0-14.2,2.4-18.5,6H401.2z"/>
		</g>
	</svg>

	<svg id="droid-digits" viewBox="0 0 140 16">
		<style type="text/css">
			.st0{fill:#333;}
		</style>
		<path id="_x38_" class="st0" d="M113.6,7.7c-1,0.8-1.6,1.7-1.6,3c0,2.7,3,5.2,6.9,5.2s7.1-2.4,7.1-5.2c0-1.2-0.6-2.2-1.6-2.9
			c0.9-0.7,1.6-1.7,1.6-2.9c0-2.7-3-4.9-7-4.9s-7,2.1-7,4.8C112,6.2,112.6,7.2,113.6,7.7z M122.4,10.8c0,0.8-1.4,1.8-3.4,1.8
			c-2.2,0-3.4-0.8-3.4-1.8C115.6,10,117,9,119,9C121.1,9.1,122.4,10.1,122.4,10.8z M119,3.2c2.2,0,3.4,0.8,3.4,1.7S121,6.6,119,6.6
			c-2.1,0.1-3.6-0.8-3.6-1.7C115.4,4.1,116.9,3.2,119,3.2z"/>
		<g id="_x37_">
			<rect x="98" class="st0" width="14" height="4"/>
			<polygon class="st0" points="100,16 105.6,16 110.8,6.2 105.2,6.2 	"/>
		</g>
		<path id="_x39_" class="st0" d="M130.9,12.9l-3.1,3.1h5.3l4.6-4.5c1.5-1.5,2.3-3,2.3-4.9c0-3.7-3.1-6.6-7-6.6s-7,2.9-7,6.6
			C126,9.5,128,12,130.9,12.9z M133,3.7c1.7,0,3.1,1.3,3.1,2.9s-1.4,2.9-3.1,2.9s-3.1-1.3-3.1-2.9S131.3,3.7,133,3.7z"/>
		<path id="_x36__1_" class="st0" d="M93.1,3.1L96.2,0h-5.3l-4.6,4.5C84.8,6,84,7.5,84,9.4c0,3.7,3.1,6.6,7,6.6c3.9,0,7-2.9,7-6.6
			C98,6.5,96,4,93.1,3.1z M91,12c-1.7,0-3.1-1.3-3.1-2.9s1.4-2.9,3.1-2.9c1.7,0,3.1,1.3,3.1,2.9S92.7,12,91,12z"/>
		<g id="_x35_">
			<path class="st0" d="M84,4V0H70v10.1h14c0-2.4-2.1-3.9-4.8-3.9l0,0H74V4H84z"/>
			<path class="st0" d="M79,12h-9v4h9l0,0c2.7,0,5-1.5,5-4H79L79,12z"/>
		</g>
		<g id="_x34_">
			<rect x="62" y="12" class="st0" width="6" height="4"/>
			<polygon class="st0" points="62.4,6.2 69.5,0 63.1,0 56,6.2 56,10.1 70,10.1 70,6.2 	"/>
		</g>
		<g id="_x33_">
			<polygon class="st0" points="42,0 56,0 51.6,4 42,4 	"/>
			<path class="st0" d="M42,12v4h9l0,0c2.7,0,5-2,5-4l0,0v-2l0,0c0-2.4-2.4-3.8-5-3.8l0,0h-4l-5,3.9h9.9V12H42z"/>
		</g>
		<g id="_x32_">
			<rect x="28" y="12" class="st0" width="14" height="4"/>
			<path class="st0" d="M37.9,4H28V0h9l0,0c2.7,0,5.1,1.5,5,4l0,0l0,2.2l0,0c0,2.4-2.2,3.9-4.8,3.9l0,0H28l5-3.9h4.9L37.9,4z"/>
		</g>
		<polygon id="_x31_" class="st0" points="19.7,0 15.2,4 19.7,4 19.7,16 24.8,16 24.8,0 "/>
		<g id="_x30_">
			<path class="st0" d="M10,6.2c0,0.1,0,0.2,0,0.4v3.2c0,1.3-1,2.4-2.4,2.4H6.4c-1.3-0.1-2.3-1.1-2.3-2.4V6.6c0-0.1,0-0.3,0-0.4H0l0,0
				v4C0,13.4,2.7,16,6,16h2c3.2,0,6-2.6,6-5.9V6.2l0,0C13.9,6.2,10,6.2,10,6.2z"/>
			<path class="st0" d="M6.4,4h1.2h6.1c-0.8-2.3-3-4-5.7-4H6C3.5,0,1.3,1.7,0.6,4H6.4z"/>
		</g>
	</svg>

	<svg id="droid-001" viewBox="0 0 32 32">
		<style type="text/css">
			.st0{fill:#fff;}
		</style>
		<path class="st0" d="M3.9,25.3c2.8,3.5,7.3,5.7,12.4,5.7c5.1,0,9.6-2.3,12.4-5.7H3.9z"/>
		<path class="st0" d="M29,9.4C26.5,6,22.4,3.7,17.7,3.3V1h-2.9v2.3C10.1,3.7,6,6,3.5,9.4H29z"/>
		<path class="st0" d="M5.9,14.1h2h3.7c-0.3-1.6-1.6-2.9-3.3-2.9H5.5c-1.7,0-3,1.3-3.3,2.9H5.9z"/>
		<path class="st0" d="M9.1,15.4v3.8c0,0.7-0.6,1.2-1.2,1.2h-2c-0.7,0-1.2-0.6-1.2-1.2v-3.8H2.1v4.5c0,1.9,1.5,3.4,3.4,3.4h2.8
			c1.9,0,3.4-1.5,3.4-3.4v-4.5H9.1z"/>
		<polygon id="_x31__1_" class="st0" points="26.2,11.2 26.2,11.2 23.7,12.4 23.7,14.1 26.2,14.1 26.2,23.3 29.9,23.3 29.9,11.2 "/>
		<path class="st0" d="M17,14.1h2h3.7c-0.3-1.6-1.6-2.9-3.3-2.9h-2.8c-1.7,0-3,1.3-3.3,2.9H17z"/>
		<path class="st0" d="M20.2,15.4v3.8c0,0.7-0.6,1.2-1.2,1.2h-2c-0.7,0-1.2-0.6-1.2-1.2v-3.8h-2.6v4.5c0,1.9,1.5,3.4,3.4,3.4h2.8
			c1.9,0,3.4-1.5,3.4-3.4v-4.5H20.2z"/>
	</svg>

	<svg id="switch" viewBox="0 0 17 6">
		<style type="text/css">
			.st0{fill:none;stroke:#8ed8eb66;stroke-width:1.25;}
		</style>
		<circle class="st0" cx="14" cy="3" r="2.35"/>
	</svg>

	<svg id="switch-conn" viewBox="0 0 17 6">
		<style type="text/css">
			.st0{fill:#8ed8eb66;}
		</style>
		<path class="st0" d="M14,2c-0.4,0-0.7,0.2-0.9,0.5H4.9C3.7,1.8,1.5,0.4,0.7,0L0,0v6l0.7,0c0.6-0.3,3.2-1.8,4.3-2.5h8.2C13.3,3.8,13.6,4,14,4
			c0.6,0,1-0.5,1-1S14.6,2,14,2z"/>
		<path class="st0" d="M14,0c-1.3,0-2.4,0.8-2.8,2h1.4c0.3-0.4,0.8-0.7,1.4-0.7c1,0,1.7,0.8,1.7,1.7S15,4.7,14,4.7c-0.6,0-1.1-0.3-1.4-0.7h-1.4
			c0.4,1.1,1.5,2,2.8,2c1.6,0,3-1.3,3-3S15.6,0,14,0z"/>
	</svg>

	<svg id="conn" viewBox="0 0 17 6">
		<style type="text/css">
			.st0{fill:#8ed8eb66;}
		</style>
		<path class="st0" d="M14,1.3c-0.8,0-1.4,0.5-1.7,1.2H4.9C3.7,1.8,1.5,0.4,0.7,0L0,0v6l0.7,0c0.6-0.3,3.2-1.8,4.3-2.5h7.4
	c0.2,0.7,0.9,1.2,1.7,1.2c1,0,1.7-0.8,1.7-1.7S15,1.3,14,1.3z"/>
	</svg>

</svg>