
<svg id="tiles-7" viewBox="0 0 112 112" size="keep">
<style type="text/css">
	.st0{fill:#bbbbbb;opacity:.25;}
	.st1{fill:#666666;opacity:.8;}
	.st2{fill:#666666;opacity:.25;}
	.st3{fill:#ffffff;opacity:.75;}
</style>
<g>
	<path class="st0" d="M96,14V4.4C96,3.1,94.9,2,93.6,2H84v10.2h1.1c0.4,0,0.7,0.3,0.7,0.7V14H96z"/>
	<path class="st1" d="M93.6,2C94.9,2,96,3.1,96,4.4V14h1.2V4.4c0-2-1.6-3.7-3.7-3.7l0,0H84V2H93.6"/>
	<path class="st1" d="M84,12h1.1c0.5,0,0.9,0.4,0.9,0.9V14h-0.5v-1.1c0-0.2-0.2-0.4-0.4-0.4H84V12z"/>
</g>
<g>
	<path class="st0" d="M110.2,14v-1.1c0-0.4,0.3-0.7,0.7-0.7h1.1V2h-9.6c-1.3,0-2.4,1.1-2.4,2.4V14H110.2z"/>
	<path class="st1" d="M102.4,2h9.6V0.8h-9.6l0,0c-2,0-3.7,1.6-3.7,3.7V14h1.2V4.4C100,3.1,101.1,2,102.4,2"/>
	<path class="st1" d="M112,12.5h-1.1c-0.2,0-0.4,0.2-0.4,0.4V14H110v-1.1c0-0.5,0.4-0.9,0.9-0.9h1.1V12.5z"/>
</g>
<g>
	<path class="st0" d="M15.8,14v1.1c0,0.4-0.3,0.7-0.7,0.7H14V26h9.6c1.3,0,2.4-1.1,2.4-2.4V14H15.8z"/>
	<path class="st1" d="M23.6,26H14v1.2h9.6l0,0c2,0,3.7-1.6,3.7-3.7V14H26v9.6C26,24.9,24.9,26,23.6,26"/>
	<path class="st1" d="M14,15.5h1.1c0.2,0,0.4-0.2,0.4-0.4V14H16v1.1c0,0.5-0.4,0.9-0.9,0.9H14V15.5z"/>
</g>
<g>
	<path class="st0" d="M2,14v9.6C2,24.9,3.1,26,4.4,26H14V15.8h-1.1c-0.4,0-0.7-0.3-0.7-0.7V14H2z"/>
	<path class="st1" d="M4.4,26C3.1,26,2,24.9,2,23.6V14H0.8v9.6c0,2,1.6,3.7,3.7,3.7l0,0H14V26H4.4"/>
	<path class="st1" d="M14,16h-1.1c-0.5,0-0.9-0.4-0.9-0.9V14h0.5v1.1c0,0.2,0.2,0.4,0.4,0.4H14V16z"/>
</g>
<g>
	<rect x="56" y="2" class="st0" width="14" height="5"/>
	<rect x="56" y="0.8" class="st1" width="14" height="1.2"/>
</g>
<g>
	<rect x="77" y="0" class="st0" width="5" height="14"/>
	<rect x="82" y="0" class="st1" width="1.2" height="14"/>
</g>
<g>
	<rect x="56" y="7" class="st0" width="14" height="5"/>
	<rect x="56" y="12" class="st1" width="14" height="1.2"/>
</g>
<g>
	<rect x="72" class="st0" width="5" height="14"/>
	<rect x="70.8" class="st1" width="1.2" height="14"/>
</g>
<g>
	<rect x="56" y="15.8" class="st0" width="14" height="5.2"/>
	<rect x="56" y="15.5" class="st1" width="14" height="0.5"/>
</g>
<g>
	<rect x="71.8" y="14" class="st0" width="5.2" height="14"/>
	<rect x="71.5" y="14" class="st1" width="0.5" height="14"/>
</g>
<g>
	<rect x="49" y="14" class="st0" width="5.2" height="14"/>
	<rect x="54" y="14" class="st1" width="0.5" height="14"/>
</g>
<g>
	<rect x="28" y="21" class="st0" width="14" height="5.2"/>
	<rect x="28" y="26" class="st1" width="14" height="0.5"/>
</g>
<g>
	<path class="st0" d="M82.2,28v-1.1c0-0.4,0.3-0.7,0.7-0.7H84V15.4l-1.4-0.2V14H77v14H82.2z"/>
	<path class="st1" d="M83.2,14v0.3c0,0.2,0.2,0.4,0.4,0.4H84V16l-1.1,0c-0.5,0-0.9-0.4-0.9-0.9V14H83.2z"/>
	<path class="st1" d="M84,27.2h-0.3c-0.2,0-0.4,0.2-0.4,0.4V28H82l0-1.1c0-0.5,0.4-0.9,0.9-0.9H84V27.2z"/>
</g>
<g>
	<path class="st0" d="M43.8,14v1.1c0,0.4-0.3,0.7-0.7,0.7H42v10.9l1.4,0.2V28H49V14H43.8z"/>
	<path class="st1" d="M42.8,28v-0.3c0-0.2-0.2-0.4-0.4-0.4H42V26l1.1,0c0.5,0,0.9,0.4,0.9,0.9V28H42.8z"/>
	<path class="st1" d="M42,14.8h0.3c0.2,0,0.4-0.2,0.4-0.4V14H44l0,1.1c0,0.5-0.4,0.9-0.9,0.9H42V14.8z"/>
</g>
<g>
	<path class="st0" d="M68.2,28v-1.1c0-0.4,0.3-0.7,0.7-0.7H70V21h-7v7H68.2z"/>
	<path class="st1" d="M70,26.5h-1.1c-0.2,0-0.4,0.2-0.4,0.4V28H68v-1.1c0-0.5,0.4-0.9,0.9-0.9H70V26.5z"/>
</g>
<g>
	<path class="st0" d="M56,26.2h1.1c0.4,0,0.7,0.3,0.7,0.7V28H63v-7h-7V26.2z"/>
	<path class="st1" d="M57.5,28v-1.1c0-0.2-0.2-0.4-0.4-0.4H56V26h1.1c0.5,0,0.9,0.4,0.9,0.9V28H57.5z"/>
</g>
<g>
	<path class="st0" d="M29.8,14v1.1c0,0.4-0.3,0.7-0.7,0.7H28V21h7v-7H29.8z"/>
	<path class="st1" d="M28,15.5h1.1c0.2,0,0.4-0.2,0.4-0.4V14H30v1.1c0,0.5-0.4,0.9-0.9,0.9H28V15.5z"/>
</g>
<g>
	<path class="st0" d="M42,15.8h-1.1c-0.4,0-0.7-0.3-0.7-0.7V14H35v7h7V15.8z"/>
	<path class="st1" d="M40.5,14v1.1c0,0.2,0.2,0.4,0.4,0.4H42V16h-1.1c-0.5,0-0.9-0.4-0.9-0.9V14H40.5z"/>
</g>
<g>
	<path class="st0" d="M85.8,14v1.1c0,0.4-0.3,0.7-0.7,0.7H84V21h7v-7H85.8z"/>
	<path class="st1" d="M84,15.5h1.1c0.2,0,0.4-0.2,0.4-0.4V14H86v1.1c0,0.5-0.4,0.9-0.9,0.9H84V15.5z"/>
</g>
<g>
	<path class="st0" d="M98,15.8h-1.1c-0.4,0-0.7-0.3-0.7-0.7V14H91v7h7V15.8z"/>
	<path class="st1" d="M96.5,14v1.1c0,0.2,0.2,0.4,0.4,0.4H98V16h-1.1c-0.5,0-0.9-0.4-0.9-0.9V14H96.5z"/>
</g>
<g>
	<path class="st0" d="M96.2,28v-1.1c0-0.4,0.3-0.7,0.7-0.7H98V21h-7v7H96.2z"/>
	<path class="st1" d="M98,26.5h-1.1c-0.2,0-0.4,0.2-0.4,0.4V28H96v-1.1c0-0.5,0.4-0.9,0.9-0.9H98V26.5z"/>
</g>
<g>
	<path class="st0" d="M84,26.2h1.1c0.4,0,0.7,0.3,0.7,0.7V28H91v-7h-7V26.2z"/>
	<path class="st1" d="M85.5,28v-1.1c0-0.2-0.2-0.4-0.4-0.4H84V26h1.1c0.5,0,0.9,0.4,0.9,0.9V28H85.5z"/>
</g>
<g>
	<path class="st1" d="M109.6,15.5l-9.2,0c-0.5,0-0.9,0.4-0.9,0.9v9.1c0,0.5,0.4,0.9,0.9,0.9l9.2,0c0.5,0,0.9-0.4,0.9-0.9v-9.1
		C110.5,15.9,110.1,15.5,109.6,15.5z M110,25.6c0,0.2-0.2,0.4-0.4,0.4l-9.2,0c-0.2,0-0.4-0.2-0.4-0.4v-9.1c0-0.2,0.2-0.4,0.4-0.4
		l9.2,0c0.2,0,0.4,0.2,0.4,0.4V25.6z"/>
	<path class="st0" d="M110,25.6c0,0.2-0.2,0.4-0.4,0.4l-9.2,0c-0.2,0-0.4-0.2-0.4-0.4v-9.1c0-0.2,0.2-0.4,0.4-0.4l9.2,0
		c0.2,0,0.4,0.2,0.4,0.4V25.6z"/>
</g>
<g>
	<polygon class="st0" points="26,1.4 26,0 16,0 16,1.4 19,1.4 19,12.6 16,12.6 16,14 26,14 26,12.6 23,12.6 23,1.4 	"/>
	<polygon class="st1" points="16,1.4 16,0 15.5,0 15.5,1.9 18.5,1.9 18.5,12.1 15.5,12.1 15.5,14 16,14 16,12.6 19,12.6 19,1.4 	"/>
	<polygon class="st1" points="26,0 26,1.4 23,1.4 23,12.6 26,12.6 26,14 26.5,14 26.5,12.1 23.5,12.1 23.5,1.9 26.5,1.9 26.5,0 	"/>
</g>
<g>
	<polygon class="st0" points="40.6,12 42,12 42,2 40.6,2 40.6,5 29.4,5 29.4,2 28,2 28,12 29.4,12 29.4,9 40.6,9 	"/>
	<polygon class="st1" points="40.6,2 42,2 42,1.5 40.1,1.5 40.1,4.5 29.9,4.5 29.9,1.5 28,1.5 28,2 29.4,2 29.4,5 40.6,5 	"/>
	<polygon class="st1" points="42,12 40.6,12 40.6,9 29.4,9 29.4,12 28,12 28,12.5 29.9,12.5 29.9,9.5 40.1,9.5 40.1,12.5 42,12.5 	
		"/>
</g>
<g>
	<path class="st1" d="M67.6,43.5l-9.2,0c-0.5,0-0.9,0.4-0.9,0.9v9.1c0,0.5,0.4,0.9,0.9,0.9l9.2,0c0.5,0,0.9-0.4,0.9-0.9v-9.1
		C68.5,43.9,68.1,43.5,67.6,43.5z M68,53.6c0,0.2-0.2,0.4-0.4,0.4l-9.2,0c-0.2,0-0.4-0.2-0.4-0.4v-9.1c0-0.2,0.2-0.4,0.4-0.4l9.2,0
		c0.2,0,0.4,0.2,0.4,0.4V53.6z"/>
	<path class="st0" d="M68,53.6c0,0.2-0.2,0.4-0.4,0.4l-9.2,0c-0.2,0-0.4-0.2-0.4-0.4v-9.1c0-0.2,0.2-0.4,0.4-0.4l9.2,0
		c0.2,0,0.4,0.2,0.4,0.4V53.6z"/>
</g>
<g>
	<path class="st1" d="M81.6,43.5l-9.2,0c-0.5,0-0.9,0.4-0.9,0.9v9.1c0,0.5,0.4,0.9,0.9,0.9l9.2,0c0.5,0,0.9-0.4,0.9-0.9v-9.1
		C82.5,43.9,82.1,43.5,81.6,43.5z M82,53.6c0,0.2-0.2,0.4-0.4,0.4l-9.2,0c-0.2,0-0.4-0.2-0.4-0.4v-9.1c0-0.2,0.2-0.4,0.4-0.4l9.2,0
		c0.2,0,0.4,0.2,0.4,0.4V53.6z"/>
	<path class="st0" d="M82,53.6c0,0.2-0.2,0.4-0.4,0.4l-9.2,0c-0.2,0-0.4-0.2-0.4-0.4v-9.1c0-0.2,0.2-0.4,0.4-0.4l9.2,0
		c0.2,0,0.4,0.2,0.4,0.4V53.6z"/>
</g>
<g>
	<path class="st1" d="M95.6,31.5l-9.2,0c-0.5,0-0.9,0.4-0.9,0.9v7.1c0,0.5,0.4,0.9,0.9,0.9l9.2,0c0.5,0,0.9-0.4,0.9-0.9v-7.1
		C96.5,31.9,96.1,31.5,95.6,31.5z M96,39.6c0,0.2-0.2,0.4-0.4,0.4l-9.2,0c-0.2,0-0.4-0.2-0.4-0.4v-7.1c0-0.2,0.2-0.4,0.4-0.4l9.2,0
		c0.2,0,0.4,0.2,0.4,0.4V39.6z"/>
	<path class="st0" d="M96,39.6c0,0.2-0.2,0.4-0.4,0.4l-9.2,0c-0.2,0-0.4-0.2-0.4-0.4v-7.1c0-0.2,0.2-0.4,0.4-0.4l9.2,0
		c0.2,0,0.4,0.2,0.4,0.4V39.6z"/>
</g>
<g>
	<path class="st1" d="M25.6,35c0,0-3.3,2-4.6,2c-1.3,0-4.6-2-4.6-2c-0.5,0-0.9,0.4-0.9,0.9l-1,3.8c0,0.5,0.4,0.9,0.9,0.9l11.2,0
		c0.5,0,0.9-0.4,0.9-0.9l-1-3.8C26.5,35.4,26.1,35,25.6,35z M27,39.8c0,0.2-0.2,0.4-0.4,0.4l-11.2,0c-0.2,0-0.4-0.2-0.4-0.4l1-3.8
		c0-0.2,0.2-0.4,0.4-0.4c0,0,3.3,2,4.6,2c1.3,0,4.6-2,4.6-2c0.2,0,0.4,0.2,0.4,0.4L27,39.8z"/>
	<path class="st0" d="M27,39.8c0,0.2-0.2,0.4-0.4,0.4l-11.2,0c-0.2,0-0.4-0.2-0.4-0.4l1-3.8c0-0.2,0.2-0.4,0.4-0.4c0,0,3.3,2,4.6,2
		s4.6-2,4.6-2c0.2,0,0.4,0.2,0.4,0.4L27,39.8z"/>
</g>
<g>
	<path class="st1" d="M2.4,35c0,0,3.3-2,4.6-2s4.6,2,4.6,2c0.5,0,0.9-0.4,0.9-0.9l1-3.8c0-0.5-0.4-0.9-0.9-0.9l-11.2,0
		c-0.5,0-0.9,0.4-0.9,0.9l1,3.8C1.5,34.6,1.9,35,2.4,35z M1,30.2c0-0.2,0.2-0.4,0.4-0.4l11.2,0c0.2,0,0.4,0.2,0.4,0.4l-1,3.8
		c0,0.2-0.2,0.4-0.4,0.4c0,0-3.3-2-4.6-2s-4.6,2-4.6,2c-0.2,0-0.4-0.2-0.4-0.4L1,30.2z"/>
	<path class="st0" d="M1,30.2c0-0.2,0.2-0.4,0.4-0.4l11.2,0c0.2,0,0.4,0.2,0.4,0.4l-1,3.8c0,0.2-0.2,0.4-0.4,0.4c0,0-3.3-2-4.6-2
		s-4.6,2-4.6,2c-0.2,0-0.4-0.2-0.4-0.4L1,30.2z"/>
</g>
<g>
	<path class="st1" d="M35,39.6c0,0-2-3.3-2-4.6c0-1.3,2-4.6,2-4.6c0-0.5-0.4-0.9-0.9-0.9l-3.8-1c-0.5,0-0.9,0.4-0.9,0.9l0,11.2
		c0,0.5,0.4,0.9,0.9,0.9l3.8-1C34.6,40.5,35,40.1,35,39.6z M30.2,41c-0.2,0-0.4-0.2-0.4-0.4l0-11.2c0-0.2,0.2-0.4,0.4-0.4l3.8,1
		c0.2,0,0.4,0.2,0.4,0.4c0,0-2,3.3-2,4.6s2,4.6,2,4.6c0,0.2-0.2,0.4-0.4,0.4L30.2,41z"/>
	<path class="st0" d="M30.2,41c-0.2,0-0.4-0.2-0.4-0.4l0-11.2c0-0.2,0.2-0.4,0.4-0.4l3.8,1c0.2,0,0.4,0.2,0.4,0.4c0,0-2,3.3-2,4.6
		s2,4.6,2,4.6c0,0.2-0.2,0.4-0.4,0.4L30.2,41z"/>
</g>
<g>
	<path class="st1" d="M49,30.4c0,0,2,3.3,2,4.6c0,1.3-2,4.6-2,4.6c0,0.5,0.4,0.9,0.9,0.9l3.8,1c0.5,0,0.9-0.4,0.9-0.9l0-11.2
		c0-0.5-0.4-0.9-0.9-0.9l-3.8,1C49.4,29.5,49,29.9,49,30.4z M53.8,29c0.2,0,0.4,0.2,0.4,0.4l0,11.2c0,0.2-0.2,0.4-0.4,0.4l-3.8-1
		c-0.2,0-0.4-0.2-0.4-0.4c0,0,2-3.3,2-4.6s-2-4.6-2-4.6c0-0.2,0.2-0.4,0.4-0.4L53.8,29z"/>
	<path class="st0" d="M53.8,29c0.2,0,0.4,0.2,0.4,0.4l0,11.2c0,0.2-0.2,0.4-0.4,0.4l-3.8-1c-0.2,0-0.4-0.2-0.4-0.4c0,0,2-3.3,2-4.6
		s-2-4.6-2-4.6c0-0.2,0.2-0.4,0.4-0.4L53.8,29z"/>
</g>
<g>
	<circle class="st2" cx="49" cy="7" r="6.2"/>
	<path class="st3" d="M49.8,5.3l2.5-2.5c-1.9-1.5-4.6-1.5-6.5,0l2.5,2.5C48.7,5.1,49.3,5.1,49.8,5.3z"/>
	<path class="st3" d="M50.7,7.8l2.5,2.5c1.5-1.9,1.5-4.6,0-6.5l-2.5,2.5C50.9,6.7,50.9,7.3,50.7,7.8z"/>
	<path class="st3" d="M49.8,8.6c-0.5,0.2-1,0.2-1.5,0l-2.5,2.5c1.9,1.5,4.6,1.5,6.5,0L49.8,8.6L49.8,8.6z"/>
	<path class="st3" d="M47.4,6.2l-2.5-2.5c-1.5,1.9-1.5,4.6,0,6.5l2.5-2.5C47.2,7.3,47.2,6.7,47.4,6.2z"/>
</g>
<g>
	<path class="st2" d="M64.6,38.1c-0.1,0-0.1-0.1-0.3-0.1c-1-0.4-1.7-1.5-2-2.8c-0.2-1-0.7-1.7-1.5-1.9c-0.6-0.2-1.4-0.2-2,0.3
		c-0.8,2.2,0.3,4.7,2.4,5.6c1.9,0.8,4.1,0.2,5.2-1.3C66,38.2,65.3,38.3,64.6,38.1z"/>
	<path class="st2" d="M61.6,31.9c1.3,0.5,2,1.5,2.2,3c0.2,0.9,0.6,1.6,1.3,1.8c0.7,0.2,1.6,0,2.4-0.8c0.4-2-0.7-4.1-2.6-5
		c-1.8-0.8-3.7-0.3-5,1C60.4,31.7,61,31.7,61.6,31.9z"/>
</g>
<g>
	<polygon class="st0" points="42,56 42,48 42,43.7 40.6,43.7 39.9,44.4 30,54.3 29.7,54.6 29.7,56 	"/>
	<path class="st1" d="M29.7,54.2l10.5-10.5c0.2-0.2,0.4-0.3,0.7-0.3H42v0.5h-1.1c-0.1,0-0.2,0-0.3,0.1L30.1,54.6
		c-0.1,0.1-0.1,0.2-0.1,0.3V56h-0.5v-1.1C29.4,54.6,29.6,54.4,29.7,54.2z"/>
</g>
<g>
	<polygon class="st0" points="54.3,56 54.3,54.6 54,54.3 44.1,44.4 43.4,43.7 42,43.7 42,48 42,56 	"/>
	<path class="st1" d="M54.6,54.9V56h-0.5v-1.1c0-0.1,0-0.2-0.1-0.3L43.4,44.1c-0.1-0.1-0.2-0.1-0.3-0.1H42v-0.5h1.1
		c0.3,0,0.5,0.1,0.7,0.3l10.5,10.5C54.4,54.4,54.6,54.6,54.6,54.9z"/>
</g>
<g>
	<path class="st0" d="M98,42v-7l14,0v7h-1.7c-0.1-1-2-3.5-5.3-3.5c-3.4,0-5.2,2.3-5.3,3.5"/>
	<path class="st1" d="M112,41.5l-1.3,0c-0.5-1.4-2.5-3.5-5.7-3.5c-3.4,0-5.3,2-5.7,3.5H98V42h1.7c0-1.2,1.8-3.5,5.3-3.5
		c3.3,0,5.2,2.5,5.3,3.5h1.7V41.5z"/>
</g>
<g>
	<path class="st0" d="M105,28.2c-4.1,0-5.7,0.9-7,1.8V35h7V28.2z"/>
	<path class="st1" d="M98,30.4v-0.6c1.2-0.9,2.9-1.8,7-1.8v0.5C101.1,28.4,99.4,29.3,98,30.4z"/>
</g>
<g>
	<path class="st0" d="M105,28.2c4.1,0,5.7,0.9,7,1.8V35h-7V28.2z"/>
	<path class="st1" d="M112,30.4v-0.6c-1.2-0.9-2.9-1.8-7-1.8v0.5C108.9,28.4,110.6,29.3,112,30.4z"/>
</g>
</svg>
